%TF.GenerationSoftware,KiCad,Pcbnew,5.1.8-5.1.8*%
%TF.CreationDate,2021-08-29T21:24:45+08:00*%
%TF.ProjectId,lcr-1,6c63722d-312e-46b6-9963-61645f706362,rev?*%
%TF.SameCoordinates,Original*%
%TF.FileFunction,Legend,Top*%
%TF.FilePolarity,Positive*%
%FSLAX46Y46*%
G04 Gerber Fmt 4.6, Leading zero omitted, Abs format (unit mm)*
G04 Created by KiCad (PCBNEW 5.1.8-5.1.8) date 2021-08-29 21:24:45*
%MOMM*%
%LPD*%
G01*
G04 APERTURE LIST*
%ADD10C,0.300000*%
%ADD11C,0.150000*%
%ADD12C,0.120000*%
G04 APERTURE END LIST*
D10*
X90460351Y-152168622D02*
X91174637Y-154168622D01*
X91888922Y-152168622D02*
X91174637Y-154168622D01*
X90888922Y-154882908D01*
X90746065Y-155025765D01*
X90460351Y-155168622D01*
X93031780Y-152168622D02*
X93031780Y-154740051D01*
X92888922Y-155025765D01*
X92603208Y-155168622D01*
X92460351Y-155168622D01*
X93031780Y-151168622D02*
X92888922Y-151311480D01*
X93031780Y-151454337D01*
X93174637Y-151311480D01*
X93031780Y-151168622D01*
X93031780Y-151454337D01*
X94460351Y-154168622D02*
X94460351Y-152168622D01*
X94460351Y-152454337D02*
X94603208Y-152311480D01*
X94888922Y-152168622D01*
X95317494Y-152168622D01*
X95603208Y-152311480D01*
X95746065Y-152597194D01*
X95746065Y-154168622D01*
X95746065Y-152597194D02*
X95888922Y-152311480D01*
X96174637Y-152168622D01*
X96603208Y-152168622D01*
X96888922Y-152311480D01*
X97031780Y-152597194D01*
X97031780Y-154168622D01*
X98174637Y-152168622D02*
X98746065Y-154168622D01*
X99317494Y-152740051D01*
X99888922Y-154168622D01*
X100460351Y-152168622D01*
X101317494Y-154168622D02*
X102888922Y-152168622D01*
X101317494Y-152168622D02*
X102888922Y-154168622D01*
X103746065Y-152168622D02*
X104317494Y-154168622D01*
X104888922Y-152740051D01*
X105460351Y-154168622D01*
X106031780Y-152168622D01*
X106888922Y-154168622D02*
X108460351Y-152168622D01*
X106888922Y-152168622D02*
X108460351Y-154168622D01*
X108888922Y-154454337D02*
X111174637Y-154454337D01*
X111746065Y-151454337D02*
X111888922Y-151311480D01*
X112174637Y-151168622D01*
X112888922Y-151168622D01*
X113174637Y-151311480D01*
X113317494Y-151454337D01*
X113460351Y-151740051D01*
X113460351Y-152025765D01*
X113317494Y-152454337D01*
X111603208Y-154168622D01*
X113460351Y-154168622D01*
X115317494Y-151168622D02*
X115603208Y-151168622D01*
X115888922Y-151311480D01*
X116031780Y-151454337D01*
X116174637Y-151740051D01*
X116317494Y-152311480D01*
X116317494Y-153025765D01*
X116174637Y-153597194D01*
X116031780Y-153882908D01*
X115888922Y-154025765D01*
X115603208Y-154168622D01*
X115317494Y-154168622D01*
X115031780Y-154025765D01*
X114888922Y-153882908D01*
X114746065Y-153597194D01*
X114603208Y-153025765D01*
X114603208Y-152311480D01*
X114746065Y-151740051D01*
X114888922Y-151454337D01*
X115031780Y-151311480D01*
X115317494Y-151168622D01*
X117460351Y-151454337D02*
X117603208Y-151311480D01*
X117888922Y-151168622D01*
X118603208Y-151168622D01*
X118888922Y-151311480D01*
X119031780Y-151454337D01*
X119174637Y-151740051D01*
X119174637Y-152025765D01*
X119031780Y-152454337D01*
X117317494Y-154168622D01*
X119174637Y-154168622D01*
X122031780Y-154168622D02*
X120317494Y-154168622D01*
X121174637Y-154168622D02*
X121174637Y-151168622D01*
X120888922Y-151597194D01*
X120603208Y-151882908D01*
X120317494Y-152025765D01*
X123888922Y-151168622D02*
X124174637Y-151168622D01*
X124460351Y-151311480D01*
X124603208Y-151454337D01*
X124746065Y-151740051D01*
X124888922Y-152311480D01*
X124888922Y-153025765D01*
X124746065Y-153597194D01*
X124603208Y-153882908D01*
X124460351Y-154025765D01*
X124174637Y-154168622D01*
X123888922Y-154168622D01*
X123603208Y-154025765D01*
X123460351Y-153882908D01*
X123317494Y-153597194D01*
X123174637Y-153025765D01*
X123174637Y-152311480D01*
X123317494Y-151740051D01*
X123460351Y-151454337D01*
X123603208Y-151311480D01*
X123888922Y-151168622D01*
X126603208Y-152454337D02*
X126317494Y-152311480D01*
X126174637Y-152168622D01*
X126031780Y-151882908D01*
X126031780Y-151740051D01*
X126174637Y-151454337D01*
X126317494Y-151311480D01*
X126603208Y-151168622D01*
X127174637Y-151168622D01*
X127460351Y-151311480D01*
X127603208Y-151454337D01*
X127746065Y-151740051D01*
X127746065Y-151882908D01*
X127603208Y-152168622D01*
X127460351Y-152311480D01*
X127174637Y-152454337D01*
X126603208Y-152454337D01*
X126317494Y-152597194D01*
X126174637Y-152740051D01*
X126031780Y-153025765D01*
X126031780Y-153597194D01*
X126174637Y-153882908D01*
X126317494Y-154025765D01*
X126603208Y-154168622D01*
X127174637Y-154168622D01*
X127460351Y-154025765D01*
X127603208Y-153882908D01*
X127746065Y-153597194D01*
X127746065Y-153025765D01*
X127603208Y-152740051D01*
X127460351Y-152597194D01*
X127174637Y-152454337D01*
X128888922Y-151454337D02*
X129031780Y-151311480D01*
X129317494Y-151168622D01*
X130031780Y-151168622D01*
X130317494Y-151311480D01*
X130460351Y-151454337D01*
X130603208Y-151740051D01*
X130603208Y-152025765D01*
X130460351Y-152454337D01*
X128746065Y-154168622D01*
X130603208Y-154168622D01*
X132031780Y-154168622D02*
X132603208Y-154168622D01*
X132888922Y-154025765D01*
X133031780Y-153882908D01*
X133317494Y-153454337D01*
X133460351Y-152882908D01*
X133460351Y-151740051D01*
X133317494Y-151454337D01*
X133174637Y-151311480D01*
X132888922Y-151168622D01*
X132317494Y-151168622D01*
X132031780Y-151311480D01*
X131888922Y-151454337D01*
X131746065Y-151740051D01*
X131746065Y-152454337D01*
X131888922Y-152740051D01*
X132031780Y-152882908D01*
X132317494Y-153025765D01*
X132888922Y-153025765D01*
X133174637Y-152882908D01*
X133317494Y-152740051D01*
X133460351Y-152454337D01*
D11*
X90037920Y-110081060D02*
X189938660Y-110792260D01*
D12*
%TO.C,U8*%
X116469780Y-62857380D02*
X119009780Y-62857380D01*
X116469780Y-65397380D02*
X119009780Y-65397380D01*
X116469780Y-67937380D02*
X119009780Y-67937380D01*
X100579780Y-60277380D02*
X116469780Y-60277380D01*
X100579780Y-70517380D02*
X116469780Y-70517380D01*
X100579780Y-70517380D02*
X100579780Y-60277380D01*
X116469780Y-70517380D02*
X116469780Y-60277380D01*
%TO.C,J38*%
X162738640Y-82958900D02*
X160888640Y-82958900D01*
X162738640Y-83008900D02*
X162738640Y-82958900D01*
X162738640Y-84858900D02*
X162738640Y-83008900D01*
X160888640Y-84858900D02*
X162738640Y-84858900D01*
X160888640Y-82958900D02*
X160888640Y-84858900D01*
%TO.C,J37*%
X166927100Y-86443780D02*
X165077100Y-86443780D01*
X166927100Y-86493780D02*
X166927100Y-86443780D01*
X166927100Y-88343780D02*
X166927100Y-86493780D01*
X165077100Y-88343780D02*
X166927100Y-88343780D01*
X165077100Y-86443780D02*
X165077100Y-88343780D01*
%TO.C,J36*%
X166825500Y-83598980D02*
X164975500Y-83598980D01*
X166825500Y-83648980D02*
X166825500Y-83598980D01*
X166825500Y-85498980D02*
X166825500Y-83648980D01*
X164975500Y-85498980D02*
X166825500Y-85498980D01*
X164975500Y-83598980D02*
X164975500Y-85498980D01*
%TO.C,J35*%
X158755920Y-78818700D02*
X156905920Y-78818700D01*
X158755920Y-78868700D02*
X158755920Y-78818700D01*
X158755920Y-80718700D02*
X158755920Y-78868700D01*
X156905920Y-80718700D02*
X158755920Y-80718700D01*
X156905920Y-78818700D02*
X156905920Y-80718700D01*
%TO.C,J34*%
X137694240Y-83746300D02*
X135844240Y-83746300D01*
X137694240Y-83796300D02*
X137694240Y-83746300D01*
X137694240Y-85646300D02*
X137694240Y-83796300D01*
X135844240Y-85646300D02*
X137694240Y-85646300D01*
X135844240Y-83746300D02*
X135844240Y-85646300D01*
%TO.C,J33*%
X134854520Y-89890560D02*
X133004520Y-89890560D01*
X134854520Y-89940560D02*
X134854520Y-89890560D01*
X134854520Y-91790560D02*
X134854520Y-89940560D01*
X133004520Y-91790560D02*
X134854520Y-91790560D01*
X133004520Y-89890560D02*
X133004520Y-91790560D01*
%TO.C,J32*%
X96001674Y-98298000D02*
G75*
G03*
X96001674Y-98298000I-1800694J0D01*
G01*
%TO.C,J31*%
X95343814Y-69121020D02*
G75*
G03*
X95343814Y-69121020I-1800694J0D01*
G01*
%TO.C,J30*%
X123030820Y-119936220D02*
X121180820Y-119936220D01*
X123030820Y-119986220D02*
X123030820Y-119936220D01*
X123030820Y-121836220D02*
X123030820Y-119986220D01*
X121180820Y-121836220D02*
X123030820Y-121836220D01*
X121180820Y-119936220D02*
X121180820Y-121836220D01*
%TO.C,J29*%
X169776980Y-122298420D02*
X167926980Y-122298420D01*
X169776980Y-122348420D02*
X169776980Y-122298420D01*
X169776980Y-124198420D02*
X169776980Y-122348420D01*
X167926980Y-124198420D02*
X169776980Y-124198420D01*
X167926980Y-122298420D02*
X167926980Y-124198420D01*
%TO.C,J28*%
X143188260Y-121643100D02*
X141338260Y-121643100D01*
X143188260Y-121693100D02*
X143188260Y-121643100D01*
X143188260Y-123543100D02*
X143188260Y-121693100D01*
X141338260Y-123543100D02*
X143188260Y-123543100D01*
X141338260Y-121643100D02*
X141338260Y-123543100D01*
%TO.C,J27*%
X185570700Y-107096520D02*
X183720700Y-107096520D01*
X185570700Y-107146520D02*
X185570700Y-107096520D01*
X185570700Y-108996520D02*
X185570700Y-107146520D01*
X183720700Y-108996520D02*
X185570700Y-108996520D01*
X183720700Y-107096520D02*
X183720700Y-108996520D01*
%TO.C,J26*%
X126848440Y-122839440D02*
X124998440Y-122839440D01*
X126848440Y-122889440D02*
X126848440Y-122839440D01*
X126848440Y-124739440D02*
X126848440Y-122889440D01*
X124998440Y-124739440D02*
X126848440Y-124739440D01*
X124998440Y-122839440D02*
X124998440Y-124739440D01*
%TO.C,J25*%
X186797520Y-119506960D02*
X184947520Y-119506960D01*
X186797520Y-119556960D02*
X186797520Y-119506960D01*
X186797520Y-121406960D02*
X186797520Y-119556960D01*
X184947520Y-121406960D02*
X186797520Y-121406960D01*
X184947520Y-119506960D02*
X184947520Y-121406960D01*
%TO.C,J24*%
X166132080Y-105646180D02*
X164282080Y-105646180D01*
X166132080Y-105696180D02*
X166132080Y-105646180D01*
X166132080Y-107546180D02*
X166132080Y-105696180D01*
X164282080Y-107546180D02*
X166132080Y-107546180D01*
X164282080Y-105646180D02*
X164282080Y-107546180D01*
%TO.C,J23*%
X123805520Y-134942540D02*
X121955520Y-134942540D01*
X123805520Y-134992540D02*
X123805520Y-134942540D01*
X123805520Y-136842540D02*
X123805520Y-134992540D01*
X121955520Y-136842540D02*
X123805520Y-136842540D01*
X121955520Y-134942540D02*
X121955520Y-136842540D01*
%TO.C,J22*%
X95461660Y-135562300D02*
X93611660Y-135562300D01*
X95461660Y-135612300D02*
X95461660Y-135562300D01*
X95461660Y-137462300D02*
X95461660Y-135612300D01*
X93611660Y-137462300D02*
X95461660Y-137462300D01*
X93611660Y-135562300D02*
X93611660Y-137462300D01*
%TO.C,J21*%
X147107480Y-135679140D02*
X145257480Y-135679140D01*
X147107480Y-135729140D02*
X147107480Y-135679140D01*
X147107480Y-137579140D02*
X147107480Y-135729140D01*
X145257480Y-137579140D02*
X147107480Y-137579140D01*
X145257480Y-135679140D02*
X145257480Y-137579140D01*
%TO.C,J20*%
X153675920Y-103598940D02*
X151825920Y-103598940D01*
X153675920Y-103648940D02*
X153675920Y-103598940D01*
X153675920Y-105498940D02*
X153675920Y-103648940D01*
X151825920Y-105498940D02*
X153675920Y-105498940D01*
X151825920Y-103598940D02*
X151825920Y-105498940D01*
%TO.C,J19*%
X151615980Y-152394880D02*
X149765980Y-152394880D01*
X151615980Y-152444880D02*
X151615980Y-152394880D01*
X151615980Y-154294880D02*
X151615980Y-152444880D01*
X149765980Y-154294880D02*
X151615980Y-154294880D01*
X149765980Y-152394880D02*
X149765980Y-154294880D01*
%TO.C,J18*%
X158313960Y-97718840D02*
X156463960Y-97718840D01*
X158313960Y-97768840D02*
X158313960Y-97718840D01*
X158313960Y-99618840D02*
X158313960Y-97768840D01*
X156463960Y-99618840D02*
X158313960Y-99618840D01*
X156463960Y-97718840D02*
X156463960Y-99618840D01*
%TO.C,J17*%
X144750360Y-103317000D02*
X142900360Y-103317000D01*
X144750360Y-103367000D02*
X144750360Y-103317000D01*
X144750360Y-105217000D02*
X144750360Y-103367000D01*
X142900360Y-105217000D02*
X144750360Y-105217000D01*
X142900360Y-103317000D02*
X142900360Y-105217000D01*
%TO.C,J16*%
X151577880Y-149090340D02*
X149727880Y-149090340D01*
X151577880Y-149140340D02*
X151577880Y-149090340D01*
X151577880Y-150990340D02*
X151577880Y-149140340D01*
X149727880Y-150990340D02*
X151577880Y-150990340D01*
X149727880Y-149090340D02*
X149727880Y-150990340D01*
%TO.C,J15*%
X158758460Y-94835940D02*
X156908460Y-94835940D01*
X158758460Y-94885940D02*
X158758460Y-94835940D01*
X158758460Y-96735940D02*
X158758460Y-94885940D01*
X156908460Y-96735940D02*
X158758460Y-96735940D01*
X156908460Y-94835940D02*
X156908460Y-96735940D01*
%TO.C,J14*%
X143129840Y-135768040D02*
X141279840Y-135768040D01*
X143129840Y-135818040D02*
X143129840Y-135768040D01*
X143129840Y-137668040D02*
X143129840Y-135818040D01*
X141279840Y-137668040D02*
X143129840Y-137668040D01*
X141279840Y-135768040D02*
X141279840Y-137668040D01*
%TO.C,J12*%
X145662220Y-150413680D02*
X143812220Y-150413680D01*
X145662220Y-150463680D02*
X145662220Y-150413680D01*
X145662220Y-152313680D02*
X145662220Y-150463680D01*
X143812220Y-152313680D02*
X145662220Y-152313680D01*
X143812220Y-150413680D02*
X143812220Y-152313680D01*
%TO.C,J10*%
X125555580Y-140797240D02*
X123705580Y-140797240D01*
X125555580Y-140847240D02*
X125555580Y-140797240D01*
X125555580Y-142697240D02*
X125555580Y-140847240D01*
X123705580Y-142697240D02*
X125555580Y-142697240D01*
X123705580Y-140797240D02*
X123705580Y-142697240D01*
%TO.C,J9*%
X147943140Y-103426220D02*
X146093140Y-103426220D01*
X147943140Y-103476220D02*
X147943140Y-103426220D01*
X147943140Y-105326220D02*
X147943140Y-103476220D01*
X146093140Y-105326220D02*
X147943140Y-105326220D01*
X146093140Y-103426220D02*
X146093140Y-105326220D01*
%TO.C,J8*%
X176101580Y-148508680D02*
X174251580Y-148508680D01*
X176101580Y-148558680D02*
X176101580Y-148508680D01*
X176101580Y-150408680D02*
X176101580Y-148558680D01*
X174251580Y-150408680D02*
X176101580Y-150408680D01*
X174251580Y-148508680D02*
X174251580Y-150408680D01*
%TO.C,J7*%
X152555780Y-133131520D02*
X150705780Y-133131520D01*
X152555780Y-133181520D02*
X152555780Y-133131520D01*
X152555780Y-135031520D02*
X152555780Y-133181520D01*
X150705780Y-135031520D02*
X152555780Y-135031520D01*
X150705780Y-133131520D02*
X150705780Y-135031520D01*
%TO.C,J6*%
X150777780Y-103794520D02*
X148927780Y-103794520D01*
X150777780Y-103844520D02*
X150777780Y-103794520D01*
X150777780Y-105694520D02*
X150777780Y-103844520D01*
X148927780Y-105694520D02*
X150777780Y-105694520D01*
X148927780Y-103794520D02*
X148927780Y-105694520D01*
%TO.C,J5*%
X187007334Y-152105360D02*
G75*
G03*
X187007334Y-152105360I-1800694J0D01*
G01*
%TO.C,J4*%
X186959074Y-147513040D02*
G75*
G03*
X186959074Y-147513040I-1800694J0D01*
G01*
%TO.C,J3*%
X186999714Y-136794240D02*
G75*
G03*
X186999714Y-136794240I-1800694J0D01*
G01*
%TO.C,J2*%
X186966694Y-132029200D02*
G75*
G03*
X186966694Y-132029200I-1800694J0D01*
G01*
%TO.C,J1*%
X177595100Y-140037780D02*
X175745100Y-140037780D01*
X177595100Y-140087780D02*
X177595100Y-140037780D01*
X177595100Y-141937780D02*
X177595100Y-140087780D01*
X175745100Y-141937780D02*
X177595100Y-141937780D01*
X175745100Y-140037780D02*
X175745100Y-141937780D01*
%TO.C,R16*%
X171399980Y-115255040D02*
G75*
G03*
X171399980Y-115255040I-920000J0D01*
G01*
X169559980Y-115255040D02*
X168939980Y-115255040D01*
%TO.C,C12*%
X173535460Y-118077820D02*
X173535460Y-121317820D01*
X171295460Y-118077820D02*
X171295460Y-121317820D01*
X173535460Y-118077820D02*
X173470460Y-118077820D01*
X171360460Y-118077820D02*
X171295460Y-118077820D01*
X173535460Y-121317820D02*
X173470460Y-121317820D01*
X171360460Y-121317820D02*
X171295460Y-121317820D01*
%TO.C,U6*%
X175203360Y-108965040D02*
X176853360Y-108965040D01*
X176853360Y-108965040D02*
X176853360Y-98685040D01*
X176853360Y-98685040D02*
X171553360Y-98685040D01*
X171553360Y-98685040D02*
X171553360Y-108965040D01*
X171553360Y-108965040D02*
X173203360Y-108965040D01*
X173203360Y-108965040D02*
G75*
G02*
X175203360Y-108965040I1000000J0D01*
G01*
%TO.C,U5*%
X109254800Y-143864640D02*
X110904800Y-143864640D01*
X110904800Y-143864640D02*
X110904800Y-125964640D01*
X110904800Y-125964640D02*
X105604800Y-125964640D01*
X105604800Y-125964640D02*
X105604800Y-143864640D01*
X105604800Y-143864640D02*
X107254800Y-143864640D01*
X107254800Y-143864640D02*
G75*
G02*
X109254800Y-143864640I1000000J0D01*
G01*
%TO.C,U1*%
X159651160Y-138220400D02*
X159651160Y-139870400D01*
X159651160Y-139870400D02*
X169931160Y-139870400D01*
X169931160Y-139870400D02*
X169931160Y-134570400D01*
X169931160Y-134570400D02*
X159651160Y-134570400D01*
X159651160Y-134570400D02*
X159651160Y-136220400D01*
X159651160Y-136220400D02*
G75*
G02*
X159651160Y-138220400I0J-1000000D01*
G01*
%TO.C,R33*%
X171608000Y-68326000D02*
G75*
G03*
X171608000Y-68326000I-920000J0D01*
G01*
X169768000Y-68326000D02*
X169148000Y-68326000D01*
%TO.C,R32*%
X133254000Y-65278000D02*
G75*
G03*
X133254000Y-65278000I-920000J0D01*
G01*
X131414000Y-65278000D02*
X130794000Y-65278000D01*
%TO.C,R31*%
X182022000Y-76962000D02*
G75*
G03*
X182022000Y-76962000I-920000J0D01*
G01*
X180182000Y-76962000D02*
X179562000Y-76962000D01*
%TO.C,R30*%
X180182000Y-84836000D02*
X179562000Y-84836000D01*
X182022000Y-84836000D02*
G75*
G03*
X182022000Y-84836000I-920000J0D01*
G01*
%TO.C,R29*%
X182022000Y-82042000D02*
G75*
G03*
X182022000Y-82042000I-920000J0D01*
G01*
X180182000Y-82042000D02*
X179562000Y-82042000D01*
%TO.C,R28*%
X114478320Y-118841520D02*
G75*
G03*
X114478320Y-118841520I-920000J0D01*
G01*
X113558320Y-119761520D02*
X113558320Y-120381520D01*
%TO.C,R25*%
X145197340Y-125900180D02*
G75*
G03*
X145197340Y-125900180I-920000J0D01*
G01*
X144277340Y-126820180D02*
X144277340Y-127440180D01*
%TO.C,R24*%
X141529580Y-125895100D02*
G75*
G03*
X141529580Y-125895100I-920000J0D01*
G01*
X140609580Y-126815100D02*
X140609580Y-127435100D01*
%TO.C,R27*%
X115397800Y-126918720D02*
G75*
G03*
X115397800Y-126918720I-920000J0D01*
G01*
X114477800Y-127838720D02*
X114477800Y-128458720D01*
%TO.C,R26*%
X117633000Y-129326640D02*
G75*
G03*
X117633000Y-129326640I-920000J0D01*
G01*
X117633000Y-129326640D02*
X118253000Y-129326640D01*
%TO.C,R22*%
X129174760Y-129799080D02*
G75*
G03*
X129174760Y-129799080I-920000J0D01*
G01*
X128254760Y-128879080D02*
X128254760Y-128259080D01*
%TO.C,R23*%
X169776920Y-126281180D02*
G75*
G03*
X169776920Y-126281180I-920000J0D01*
G01*
X168856920Y-127201180D02*
X168856920Y-127821180D01*
%TO.C,R21*%
X182717960Y-101854000D02*
G75*
G03*
X182717960Y-101854000I-920000J0D01*
G01*
X181797960Y-100934000D02*
X181797960Y-100314000D01*
%TO.C,R20*%
X182667160Y-106619040D02*
G75*
G03*
X182667160Y-106619040I-920000J0D01*
G01*
X181747160Y-105699040D02*
X181747160Y-105079040D01*
%TO.C,R18*%
X102504760Y-121828560D02*
G75*
G03*
X102504760Y-121828560I-920000J0D01*
G01*
X102504760Y-121828560D02*
X103124760Y-121828560D01*
%TO.C,R17*%
X104887280Y-124338080D02*
G75*
G03*
X104887280Y-124338080I-920000J0D01*
G01*
X103047280Y-124338080D02*
X102427280Y-124338080D01*
%TO.C,R15*%
X102550480Y-127482600D02*
G75*
G03*
X102550480Y-127482600I-920000J0D01*
G01*
X101630480Y-128402600D02*
X101630480Y-129022600D01*
%TO.C,R14*%
X100010480Y-132648960D02*
G75*
G03*
X100010480Y-132648960I-920000J0D01*
G01*
X100010480Y-132648960D02*
X100630480Y-132648960D01*
%TO.C,R19*%
X183030640Y-115224560D02*
G75*
G03*
X183030640Y-115224560I-920000J0D01*
G01*
X181190640Y-115224560D02*
X180570640Y-115224560D01*
%TO.C,R12*%
X108847140Y-146758660D02*
G75*
G03*
X108847140Y-146758660I-920000J0D01*
G01*
X108847140Y-146758660D02*
X109467140Y-146758660D01*
%TO.C,R13*%
X110170480Y-149026880D02*
G75*
G03*
X110170480Y-149026880I-920000J0D01*
G01*
X108330480Y-149026880D02*
X107710480Y-149026880D01*
%TO.C,R11*%
X159385780Y-115488720D02*
G75*
G03*
X159385780Y-115488720I-920000J0D01*
G01*
X157545780Y-115488720D02*
X156925780Y-115488720D01*
%TO.C,R10*%
X138920000Y-118000000D02*
G75*
G03*
X138920000Y-118000000I-920000J0D01*
G01*
X138000000Y-117080000D02*
X138000000Y-116460000D01*
%TO.C,R9*%
X175941240Y-143319500D02*
G75*
G03*
X175941240Y-143319500I-920000J0D01*
G01*
X175941240Y-143319500D02*
X176561240Y-143319500D01*
%TO.C,R8*%
X160305000Y-157256480D02*
G75*
G03*
X160305000Y-157256480I-920000J0D01*
G01*
X159385000Y-156336480D02*
X159385000Y-155716480D01*
%TO.C,R7*%
X170576760Y-157215840D02*
G75*
G03*
X170576760Y-157215840I-920000J0D01*
G01*
X169656760Y-156295840D02*
X169656760Y-155675840D01*
%TO.C,R6*%
X179624240Y-148437600D02*
G75*
G03*
X179624240Y-148437600I-920000J0D01*
G01*
X178704240Y-149357600D02*
X178704240Y-149977600D01*
%TO.C,R5*%
X179682000Y-133216660D02*
G75*
G03*
X179682000Y-133216660I-920000J0D01*
G01*
X178762000Y-134136660D02*
X178762000Y-134756660D01*
%TO.C,R4*%
X174473120Y-131820920D02*
G75*
G03*
X174473120Y-131820920I-920000J0D01*
G01*
X174473120Y-131820920D02*
X175093120Y-131820920D01*
%TO.C,R3*%
X144236960Y-93751400D02*
G75*
G03*
X144236960Y-93751400I-920000J0D01*
G01*
X142396960Y-93751400D02*
X141776960Y-93751400D01*
%TO.C,R2*%
X167904680Y-157215840D02*
G75*
G03*
X167904680Y-157215840I-920000J0D01*
G01*
X166984680Y-156295840D02*
X166984680Y-155675840D01*
%TO.C,R1*%
X162916120Y-157256480D02*
G75*
G03*
X162916120Y-157256480I-920000J0D01*
G01*
X161996120Y-156336480D02*
X161996120Y-155716480D01*
%TO.C,C14*%
X179311420Y-118032100D02*
X179311420Y-121272100D01*
X177071420Y-118032100D02*
X177071420Y-121272100D01*
X179311420Y-118032100D02*
X179246420Y-118032100D01*
X177136420Y-118032100D02*
X177071420Y-118032100D01*
X179311420Y-121272100D02*
X179246420Y-121272100D01*
X177136420Y-121272100D02*
X177071420Y-121272100D01*
%TO.C,C11*%
X167556300Y-118049880D02*
X167556300Y-121289880D01*
X165316300Y-118049880D02*
X165316300Y-121289880D01*
X167556300Y-118049880D02*
X167491300Y-118049880D01*
X165381300Y-118049880D02*
X165316300Y-118049880D01*
X167556300Y-121289880D02*
X167491300Y-121289880D01*
X165381300Y-121289880D02*
X165316300Y-121289880D01*
%TO.C,C9*%
X154363540Y-117971140D02*
X154363540Y-121211140D01*
X152123540Y-117971140D02*
X152123540Y-121211140D01*
X154363540Y-117971140D02*
X154298540Y-117971140D01*
X152188540Y-117971140D02*
X152123540Y-117971140D01*
X154363540Y-121211140D02*
X154298540Y-121211140D01*
X152188540Y-121211140D02*
X152123540Y-121211140D01*
%TO.C,Q2*%
X161382560Y-126932300D02*
X164982560Y-126932300D01*
X165506744Y-126205095D02*
G75*
G02*
X164982560Y-126932300I-2324184J1122795D01*
G01*
X165538960Y-123983493D02*
G75*
G03*
X163182560Y-122482300I-2356400J-1098807D01*
G01*
X160826160Y-123983493D02*
G75*
G02*
X163182560Y-122482300I2356400J-1098807D01*
G01*
X160858376Y-126205095D02*
G75*
G03*
X161382560Y-126932300I2324184J1122795D01*
G01*
%TO.C,C8*%
X146407500Y-121289880D02*
X146342500Y-121289880D01*
X148582500Y-121289880D02*
X148517500Y-121289880D01*
X146407500Y-118049880D02*
X146342500Y-118049880D01*
X148582500Y-118049880D02*
X148517500Y-118049880D01*
X146342500Y-118049880D02*
X146342500Y-121289880D01*
X148582500Y-118049880D02*
X148582500Y-121289880D01*
%TO.C,C19*%
X118441840Y-134518200D02*
X118376840Y-134518200D01*
X120616840Y-134518200D02*
X120551840Y-134518200D01*
X118441840Y-131278200D02*
X118376840Y-131278200D01*
X120616840Y-131278200D02*
X120551840Y-131278200D01*
X118376840Y-131278200D02*
X118376840Y-134518200D01*
X120616840Y-131278200D02*
X120616840Y-134518200D01*
%TO.C,C13*%
X187699280Y-98917960D02*
X187764280Y-98917960D01*
X185524280Y-98917960D02*
X185589280Y-98917960D01*
X187699280Y-102157960D02*
X187764280Y-102157960D01*
X185524280Y-102157960D02*
X185589280Y-102157960D01*
X187764280Y-102157960D02*
X187764280Y-98917960D01*
X185524280Y-102157960D02*
X185524280Y-98917960D01*
%TO.C,Y1*%
X152398000Y-92187000D02*
X145998000Y-92187000D01*
X152398000Y-87137000D02*
X145998000Y-87137000D01*
X145998000Y-87137000D02*
G75*
G03*
X145998000Y-92187000I0J-2525000D01*
G01*
X152398000Y-87137000D02*
G75*
G02*
X152398000Y-92187000I0J-2525000D01*
G01*
%TO.C,U7*%
X171466000Y-70552000D02*
X169816000Y-70552000D01*
X169816000Y-70552000D02*
X169816000Y-90992000D01*
X169816000Y-90992000D02*
X175116000Y-90992000D01*
X175116000Y-90992000D02*
X175116000Y-70552000D01*
X175116000Y-70552000D02*
X173466000Y-70552000D01*
X173466000Y-70552000D02*
G75*
G02*
X171466000Y-70552000I-1000000J0D01*
G01*
%TO.C,U4*%
X173440400Y-147595080D02*
X173440400Y-145945080D01*
X173440400Y-145945080D02*
X153000400Y-145945080D01*
X153000400Y-145945080D02*
X153000400Y-151245080D01*
X153000400Y-151245080D02*
X173440400Y-151245080D01*
X173440400Y-151245080D02*
X173440400Y-149595080D01*
X173440400Y-149595080D02*
G75*
G02*
X173440400Y-147595080I0J1000000D01*
G01*
%TO.C,U9*%
X149738000Y-82658000D02*
X149738000Y-81398000D01*
X149738000Y-75838000D02*
X149738000Y-77098000D01*
X145978000Y-82658000D02*
X149738000Y-82658000D01*
X143728000Y-75838000D02*
X149738000Y-75838000D01*
%TO.C,U2*%
X149098000Y-99651000D02*
X151298000Y-99651000D01*
X149098000Y-99651000D02*
X146898000Y-99651000D01*
X149098000Y-92881000D02*
X151298000Y-92881000D01*
X149098000Y-92881000D02*
X145498000Y-92881000D01*
%TO.C,U3*%
X128184600Y-145048480D02*
X128184600Y-146698480D01*
X128184600Y-146698480D02*
X148624600Y-146698480D01*
X148624600Y-146698480D02*
X148624600Y-141398480D01*
X148624600Y-141398480D02*
X128184600Y-141398480D01*
X128184600Y-141398480D02*
X128184600Y-143048480D01*
X128184600Y-143048480D02*
G75*
G02*
X128184600Y-145048480I0J-1000000D01*
G01*
%TO.C,U10*%
X114882000Y-82430000D02*
X113382000Y-82430000D01*
X113382000Y-82430000D02*
X113382000Y-83380000D01*
X113382000Y-83380000D02*
X108257000Y-83380000D01*
X114882000Y-92830000D02*
X113382000Y-92830000D01*
X113382000Y-92830000D02*
X113382000Y-91880000D01*
X113382000Y-91880000D02*
X112282000Y-91880000D01*
%TO.C,Q3*%
X173307860Y-127168520D02*
X176907860Y-127168520D01*
X177432044Y-126441315D02*
G75*
G02*
X176907860Y-127168520I-2324184J1122795D01*
G01*
X177464260Y-124219713D02*
G75*
G03*
X175107860Y-122718520I-2356400J-1098807D01*
G01*
X172751460Y-124219713D02*
G75*
G02*
X175107860Y-122718520I2356400J-1098807D01*
G01*
X172783676Y-126441315D02*
G75*
G03*
X173307860Y-127168520I2324184J1122795D01*
G01*
%TO.C,Q1*%
X148636840Y-127089780D02*
X152236840Y-127089780D01*
X152761024Y-126362575D02*
G75*
G02*
X152236840Y-127089780I-2324184J1122795D01*
G01*
X152793240Y-124140973D02*
G75*
G03*
X150436840Y-122639780I-2356400J-1098807D01*
G01*
X148080440Y-124140973D02*
G75*
G02*
X150436840Y-122639780I2356400J-1098807D01*
G01*
X148112656Y-126362575D02*
G75*
G03*
X148636840Y-127089780I2324184J1122795D01*
G01*
%TO.C,L1*%
X103120000Y-88500000D02*
G75*
G03*
X103120000Y-88500000I-5120000J0D01*
G01*
%TO.C,J11*%
X160214000Y-96072000D02*
X162874000Y-96072000D01*
X160214000Y-90932000D02*
X160214000Y-96072000D01*
X162874000Y-90932000D02*
X162874000Y-96072000D01*
X160214000Y-90932000D02*
X162874000Y-90932000D01*
X160214000Y-89662000D02*
X160214000Y-88332000D01*
X160214000Y-88332000D02*
X161544000Y-88332000D01*
%TO.C,D3*%
X127836000Y-67364000D02*
X127836000Y-70304000D01*
X127836000Y-70304000D02*
X133276000Y-70304000D01*
X133276000Y-70304000D02*
X133276000Y-67364000D01*
X133276000Y-67364000D02*
X127836000Y-67364000D01*
X126816000Y-68834000D02*
X127836000Y-68834000D01*
X134296000Y-68834000D02*
X133276000Y-68834000D01*
X128736000Y-67364000D02*
X128736000Y-70304000D01*
X128856000Y-67364000D02*
X128856000Y-70304000D01*
X128616000Y-67364000D02*
X128616000Y-70304000D01*
%TO.C,D1*%
X114882000Y-71682000D02*
X114882000Y-74622000D01*
X114882000Y-74622000D02*
X120322000Y-74622000D01*
X120322000Y-74622000D02*
X120322000Y-71682000D01*
X120322000Y-71682000D02*
X114882000Y-71682000D01*
X113862000Y-73152000D02*
X114882000Y-73152000D01*
X121342000Y-73152000D02*
X120322000Y-73152000D01*
X115782000Y-71682000D02*
X115782000Y-74622000D01*
X115902000Y-71682000D02*
X115902000Y-74622000D01*
X115662000Y-71682000D02*
X115662000Y-74622000D01*
%TO.C,D2*%
X114726000Y-77344000D02*
X114726000Y-80644000D01*
X114726000Y-80644000D02*
X121626000Y-80644000D01*
X114726000Y-77344000D02*
X121626000Y-77344000D01*
%TO.C,C18*%
X118031400Y-127405560D02*
X118031400Y-124165560D01*
X120271400Y-127405560D02*
X120271400Y-124165560D01*
X118031400Y-127405560D02*
X118096400Y-127405560D01*
X120206400Y-127405560D02*
X120271400Y-127405560D01*
X118031400Y-124165560D02*
X118096400Y-124165560D01*
X120206400Y-124165560D02*
X120271400Y-124165560D01*
%TO.C,C25*%
X160488200Y-79545320D02*
X163728200Y-79545320D01*
X160488200Y-81785320D02*
X163728200Y-81785320D01*
X160488200Y-79545320D02*
X160488200Y-79610320D01*
X160488200Y-81720320D02*
X160488200Y-81785320D01*
X163728200Y-79545320D02*
X163728200Y-79610320D01*
X163728200Y-81720320D02*
X163728200Y-81785320D01*
%TO.C,C20*%
X116632560Y-115831760D02*
X119872560Y-115831760D01*
X116632560Y-118071760D02*
X119872560Y-118071760D01*
X116632560Y-115831760D02*
X116632560Y-115896760D01*
X116632560Y-118006760D02*
X116632560Y-118071760D01*
X119872560Y-115831760D02*
X119872560Y-115896760D01*
X119872560Y-118006760D02*
X119872560Y-118071760D01*
%TO.C,C17*%
X99159200Y-138774600D02*
X99159200Y-135534600D01*
X101399200Y-138774600D02*
X101399200Y-135534600D01*
X99159200Y-138774600D02*
X99224200Y-138774600D01*
X101334200Y-138774600D02*
X101399200Y-138774600D01*
X99159200Y-135534600D02*
X99224200Y-135534600D01*
X101334200Y-135534600D02*
X101399200Y-135534600D01*
%TO.C,C16*%
X114470320Y-137237900D02*
X114470320Y-133997900D01*
X116710320Y-137237900D02*
X116710320Y-133997900D01*
X114470320Y-137237900D02*
X114535320Y-137237900D01*
X116645320Y-137237900D02*
X116710320Y-137237900D01*
X114470320Y-133997900D02*
X114535320Y-133997900D01*
X116645320Y-133997900D02*
X116710320Y-133997900D01*
%TO.C,C15*%
X128336880Y-132966600D02*
X131576880Y-132966600D01*
X128336880Y-135206600D02*
X131576880Y-135206600D01*
X128336880Y-132966600D02*
X128336880Y-133031600D01*
X128336880Y-135141600D02*
X128336880Y-135206600D01*
X131576880Y-132966600D02*
X131576880Y-133031600D01*
X131576880Y-135141600D02*
X131576880Y-135206600D01*
%TO.C,C28*%
X156589400Y-83838148D02*
X156589400Y-84360652D01*
X155119400Y-83838148D02*
X155119400Y-84360652D01*
%TO.C,C5*%
X143743480Y-97325040D02*
X140503480Y-97325040D01*
X143743480Y-95085040D02*
X140503480Y-95085040D01*
X143743480Y-97325040D02*
X143743480Y-97260040D01*
X143743480Y-95150040D02*
X143743480Y-95085040D01*
X140503480Y-97325040D02*
X140503480Y-97260040D01*
X140503480Y-95150040D02*
X140503480Y-95085040D01*
%TO.C,C10*%
X161485700Y-118154020D02*
X161485700Y-121394020D01*
X159245700Y-118154020D02*
X159245700Y-121394020D01*
X161485700Y-118154020D02*
X161420700Y-118154020D01*
X159310700Y-118154020D02*
X159245700Y-118154020D01*
X161485700Y-121394020D02*
X161420700Y-121394020D01*
X159310700Y-121394020D02*
X159245700Y-121394020D01*
%TO.C,C2*%
X157995252Y-90397000D02*
X157472748Y-90397000D01*
X157995252Y-88927000D02*
X157472748Y-88927000D01*
%TO.C,C1*%
X140977252Y-90397000D02*
X140454748Y-90397000D01*
X140977252Y-88927000D02*
X140454748Y-88927000D01*
%TO.C,C27*%
X113870000Y-102000000D02*
G75*
G03*
X113870000Y-102000000I-5120000J0D01*
G01*
X108750000Y-96920000D02*
X108750000Y-107080000D01*
X108790000Y-96920000D02*
X108790000Y-107080000D01*
X108830000Y-96920000D02*
X108830000Y-107080000D01*
X108870000Y-96921000D02*
X108870000Y-107079000D01*
X108910000Y-96922000D02*
X108910000Y-107078000D01*
X108950000Y-96923000D02*
X108950000Y-107077000D01*
X108990000Y-96925000D02*
X108990000Y-107075000D01*
X109030000Y-96927000D02*
X109030000Y-107073000D01*
X109070000Y-96930000D02*
X109070000Y-107070000D01*
X109110000Y-96932000D02*
X109110000Y-107068000D01*
X109150000Y-96935000D02*
X109150000Y-107065000D01*
X109190000Y-96938000D02*
X109190000Y-107062000D01*
X109230000Y-96942000D02*
X109230000Y-107058000D01*
X109270000Y-96946000D02*
X109270000Y-100759000D01*
X109270000Y-103241000D02*
X109270000Y-107054000D01*
X109310000Y-96950000D02*
X109310000Y-100759000D01*
X109310000Y-103241000D02*
X109310000Y-107050000D01*
X109350000Y-96955000D02*
X109350000Y-100759000D01*
X109350000Y-103241000D02*
X109350000Y-107045000D01*
X109390000Y-96960000D02*
X109390000Y-100759000D01*
X109390000Y-103241000D02*
X109390000Y-107040000D01*
X109430000Y-96965000D02*
X109430000Y-100759000D01*
X109430000Y-103241000D02*
X109430000Y-107035000D01*
X109471000Y-96970000D02*
X109471000Y-100759000D01*
X109471000Y-103241000D02*
X109471000Y-107030000D01*
X109511000Y-96976000D02*
X109511000Y-100759000D01*
X109511000Y-103241000D02*
X109511000Y-107024000D01*
X109551000Y-96982000D02*
X109551000Y-100759000D01*
X109551000Y-103241000D02*
X109551000Y-107018000D01*
X109591000Y-96989000D02*
X109591000Y-100759000D01*
X109591000Y-103241000D02*
X109591000Y-107011000D01*
X109631000Y-96996000D02*
X109631000Y-100759000D01*
X109631000Y-103241000D02*
X109631000Y-107004000D01*
X109671000Y-97003000D02*
X109671000Y-100759000D01*
X109671000Y-103241000D02*
X109671000Y-106997000D01*
X109711000Y-97010000D02*
X109711000Y-100759000D01*
X109711000Y-103241000D02*
X109711000Y-106990000D01*
X109751000Y-97018000D02*
X109751000Y-100759000D01*
X109751000Y-103241000D02*
X109751000Y-106982000D01*
X109791000Y-97026000D02*
X109791000Y-100759000D01*
X109791000Y-103241000D02*
X109791000Y-106974000D01*
X109831000Y-97035000D02*
X109831000Y-100759000D01*
X109831000Y-103241000D02*
X109831000Y-106965000D01*
X109871000Y-97044000D02*
X109871000Y-100759000D01*
X109871000Y-103241000D02*
X109871000Y-106956000D01*
X109911000Y-97053000D02*
X109911000Y-100759000D01*
X109911000Y-103241000D02*
X109911000Y-106947000D01*
X109951000Y-97062000D02*
X109951000Y-100759000D01*
X109951000Y-103241000D02*
X109951000Y-106938000D01*
X109991000Y-97072000D02*
X109991000Y-100759000D01*
X109991000Y-103241000D02*
X109991000Y-106928000D01*
X110031000Y-97082000D02*
X110031000Y-100759000D01*
X110031000Y-103241000D02*
X110031000Y-106918000D01*
X110071000Y-97093000D02*
X110071000Y-100759000D01*
X110071000Y-103241000D02*
X110071000Y-106907000D01*
X110111000Y-97103000D02*
X110111000Y-100759000D01*
X110111000Y-103241000D02*
X110111000Y-106897000D01*
X110151000Y-97115000D02*
X110151000Y-100759000D01*
X110151000Y-103241000D02*
X110151000Y-106885000D01*
X110191000Y-97126000D02*
X110191000Y-100759000D01*
X110191000Y-103241000D02*
X110191000Y-106874000D01*
X110231000Y-97138000D02*
X110231000Y-100759000D01*
X110231000Y-103241000D02*
X110231000Y-106862000D01*
X110271000Y-97150000D02*
X110271000Y-100759000D01*
X110271000Y-103241000D02*
X110271000Y-106850000D01*
X110311000Y-97163000D02*
X110311000Y-100759000D01*
X110311000Y-103241000D02*
X110311000Y-106837000D01*
X110351000Y-97176000D02*
X110351000Y-100759000D01*
X110351000Y-103241000D02*
X110351000Y-106824000D01*
X110391000Y-97189000D02*
X110391000Y-100759000D01*
X110391000Y-103241000D02*
X110391000Y-106811000D01*
X110431000Y-97203000D02*
X110431000Y-100759000D01*
X110431000Y-103241000D02*
X110431000Y-106797000D01*
X110471000Y-97217000D02*
X110471000Y-100759000D01*
X110471000Y-103241000D02*
X110471000Y-106783000D01*
X110511000Y-97232000D02*
X110511000Y-100759000D01*
X110511000Y-103241000D02*
X110511000Y-106768000D01*
X110551000Y-97246000D02*
X110551000Y-100759000D01*
X110551000Y-103241000D02*
X110551000Y-106754000D01*
X110591000Y-97262000D02*
X110591000Y-100759000D01*
X110591000Y-103241000D02*
X110591000Y-106738000D01*
X110631000Y-97277000D02*
X110631000Y-100759000D01*
X110631000Y-103241000D02*
X110631000Y-106723000D01*
X110671000Y-97293000D02*
X110671000Y-100759000D01*
X110671000Y-103241000D02*
X110671000Y-106707000D01*
X110711000Y-97310000D02*
X110711000Y-100759000D01*
X110711000Y-103241000D02*
X110711000Y-106690000D01*
X110751000Y-97326000D02*
X110751000Y-100759000D01*
X110751000Y-103241000D02*
X110751000Y-106674000D01*
X110791000Y-97343000D02*
X110791000Y-100759000D01*
X110791000Y-103241000D02*
X110791000Y-106657000D01*
X110831000Y-97361000D02*
X110831000Y-100759000D01*
X110831000Y-103241000D02*
X110831000Y-106639000D01*
X110871000Y-97379000D02*
X110871000Y-100759000D01*
X110871000Y-103241000D02*
X110871000Y-106621000D01*
X110911000Y-97397000D02*
X110911000Y-100759000D01*
X110911000Y-103241000D02*
X110911000Y-106603000D01*
X110951000Y-97416000D02*
X110951000Y-100759000D01*
X110951000Y-103241000D02*
X110951000Y-106584000D01*
X110991000Y-97436000D02*
X110991000Y-100759000D01*
X110991000Y-103241000D02*
X110991000Y-106564000D01*
X111031000Y-97455000D02*
X111031000Y-100759000D01*
X111031000Y-103241000D02*
X111031000Y-106545000D01*
X111071000Y-97475000D02*
X111071000Y-100759000D01*
X111071000Y-103241000D02*
X111071000Y-106525000D01*
X111111000Y-97496000D02*
X111111000Y-100759000D01*
X111111000Y-103241000D02*
X111111000Y-106504000D01*
X111151000Y-97517000D02*
X111151000Y-100759000D01*
X111151000Y-103241000D02*
X111151000Y-106483000D01*
X111191000Y-97538000D02*
X111191000Y-100759000D01*
X111191000Y-103241000D02*
X111191000Y-106462000D01*
X111231000Y-97560000D02*
X111231000Y-100759000D01*
X111231000Y-103241000D02*
X111231000Y-106440000D01*
X111271000Y-97583000D02*
X111271000Y-100759000D01*
X111271000Y-103241000D02*
X111271000Y-106417000D01*
X111311000Y-97605000D02*
X111311000Y-100759000D01*
X111311000Y-103241000D02*
X111311000Y-106395000D01*
X111351000Y-97629000D02*
X111351000Y-100759000D01*
X111351000Y-103241000D02*
X111351000Y-106371000D01*
X111391000Y-97653000D02*
X111391000Y-100759000D01*
X111391000Y-103241000D02*
X111391000Y-106347000D01*
X111431000Y-97677000D02*
X111431000Y-100759000D01*
X111431000Y-103241000D02*
X111431000Y-106323000D01*
X111471000Y-97702000D02*
X111471000Y-100759000D01*
X111471000Y-103241000D02*
X111471000Y-106298000D01*
X111511000Y-97727000D02*
X111511000Y-100759000D01*
X111511000Y-103241000D02*
X111511000Y-106273000D01*
X111551000Y-97753000D02*
X111551000Y-100759000D01*
X111551000Y-103241000D02*
X111551000Y-106247000D01*
X111591000Y-97779000D02*
X111591000Y-100759000D01*
X111591000Y-103241000D02*
X111591000Y-106221000D01*
X111631000Y-97806000D02*
X111631000Y-100759000D01*
X111631000Y-103241000D02*
X111631000Y-106194000D01*
X111671000Y-97834000D02*
X111671000Y-100759000D01*
X111671000Y-103241000D02*
X111671000Y-106166000D01*
X111711000Y-97862000D02*
X111711000Y-100759000D01*
X111711000Y-103241000D02*
X111711000Y-106138000D01*
X111751000Y-97890000D02*
X111751000Y-106110000D01*
X111791000Y-97920000D02*
X111791000Y-106080000D01*
X111831000Y-97950000D02*
X111831000Y-106050000D01*
X111871000Y-97980000D02*
X111871000Y-106020000D01*
X111911000Y-98011000D02*
X111911000Y-105989000D01*
X111951000Y-98043000D02*
X111951000Y-105957000D01*
X111991000Y-98075000D02*
X111991000Y-105925000D01*
X112031000Y-98108000D02*
X112031000Y-105892000D01*
X112071000Y-98142000D02*
X112071000Y-105858000D01*
X112111000Y-98176000D02*
X112111000Y-105824000D01*
X112151000Y-98211000D02*
X112151000Y-105789000D01*
X112191000Y-98247000D02*
X112191000Y-105753000D01*
X112231000Y-98284000D02*
X112231000Y-105716000D01*
X112271000Y-98321000D02*
X112271000Y-105679000D01*
X112311000Y-98360000D02*
X112311000Y-105640000D01*
X112351000Y-98399000D02*
X112351000Y-105601000D01*
X112391000Y-98439000D02*
X112391000Y-105561000D01*
X112431000Y-98480000D02*
X112431000Y-105520000D01*
X112471000Y-98522000D02*
X112471000Y-105478000D01*
X112511000Y-98564000D02*
X112511000Y-105436000D01*
X112551000Y-98608000D02*
X112551000Y-105392000D01*
X112591000Y-98653000D02*
X112591000Y-105347000D01*
X112631000Y-98699000D02*
X112631000Y-105301000D01*
X112671000Y-98746000D02*
X112671000Y-105254000D01*
X112711000Y-98794000D02*
X112711000Y-105206000D01*
X112751000Y-98844000D02*
X112751000Y-105156000D01*
X112791000Y-98894000D02*
X112791000Y-105106000D01*
X112831000Y-98946000D02*
X112831000Y-105054000D01*
X112871000Y-99000000D02*
X112871000Y-105000000D01*
X112911000Y-99055000D02*
X112911000Y-104945000D01*
X112951000Y-99111000D02*
X112951000Y-104889000D01*
X112991000Y-99170000D02*
X112991000Y-104830000D01*
X113031000Y-99230000D02*
X113031000Y-104770000D01*
X113071000Y-99291000D02*
X113071000Y-104709000D01*
X113111000Y-99355000D02*
X113111000Y-104645000D01*
X113151000Y-99421000D02*
X113151000Y-104579000D01*
X113191000Y-99490000D02*
X113191000Y-104510000D01*
X113231000Y-99561000D02*
X113231000Y-104439000D01*
X113271000Y-99635000D02*
X113271000Y-104365000D01*
X113311000Y-99711000D02*
X113311000Y-104289000D01*
X113351000Y-99791000D02*
X113351000Y-104209000D01*
X113391000Y-99875000D02*
X113391000Y-104125000D01*
X113431000Y-99963000D02*
X113431000Y-104037000D01*
X113471000Y-100056000D02*
X113471000Y-103944000D01*
X113511000Y-100154000D02*
X113511000Y-103846000D01*
X113551000Y-100258000D02*
X113551000Y-103742000D01*
X113591000Y-100370000D02*
X113591000Y-103630000D01*
X113631000Y-100490000D02*
X113631000Y-103510000D01*
X113671000Y-100622000D02*
X113671000Y-103378000D01*
X113711000Y-100770000D02*
X113711000Y-103230000D01*
X113751000Y-100938000D02*
X113751000Y-103062000D01*
X113791000Y-101138000D02*
X113791000Y-102862000D01*
X113831000Y-101401000D02*
X113831000Y-102599000D01*
X103270354Y-99125000D02*
X104270354Y-99125000D01*
X103770354Y-98625000D02*
X103770354Y-99625000D01*
%TO.C,C26*%
X141490000Y-76962000D02*
G75*
G03*
X141490000Y-76962000I-5120000J0D01*
G01*
X136370000Y-71882000D02*
X136370000Y-82042000D01*
X136410000Y-71882000D02*
X136410000Y-82042000D01*
X136450000Y-71882000D02*
X136450000Y-82042000D01*
X136490000Y-71883000D02*
X136490000Y-82041000D01*
X136530000Y-71884000D02*
X136530000Y-82040000D01*
X136570000Y-71885000D02*
X136570000Y-82039000D01*
X136610000Y-71887000D02*
X136610000Y-82037000D01*
X136650000Y-71889000D02*
X136650000Y-82035000D01*
X136690000Y-71892000D02*
X136690000Y-82032000D01*
X136730000Y-71894000D02*
X136730000Y-82030000D01*
X136770000Y-71897000D02*
X136770000Y-82027000D01*
X136810000Y-71900000D02*
X136810000Y-82024000D01*
X136850000Y-71904000D02*
X136850000Y-82020000D01*
X136890000Y-71908000D02*
X136890000Y-75721000D01*
X136890000Y-78203000D02*
X136890000Y-82016000D01*
X136930000Y-71912000D02*
X136930000Y-75721000D01*
X136930000Y-78203000D02*
X136930000Y-82012000D01*
X136970000Y-71917000D02*
X136970000Y-75721000D01*
X136970000Y-78203000D02*
X136970000Y-82007000D01*
X137010000Y-71922000D02*
X137010000Y-75721000D01*
X137010000Y-78203000D02*
X137010000Y-82002000D01*
X137050000Y-71927000D02*
X137050000Y-75721000D01*
X137050000Y-78203000D02*
X137050000Y-81997000D01*
X137091000Y-71932000D02*
X137091000Y-75721000D01*
X137091000Y-78203000D02*
X137091000Y-81992000D01*
X137131000Y-71938000D02*
X137131000Y-75721000D01*
X137131000Y-78203000D02*
X137131000Y-81986000D01*
X137171000Y-71944000D02*
X137171000Y-75721000D01*
X137171000Y-78203000D02*
X137171000Y-81980000D01*
X137211000Y-71951000D02*
X137211000Y-75721000D01*
X137211000Y-78203000D02*
X137211000Y-81973000D01*
X137251000Y-71958000D02*
X137251000Y-75721000D01*
X137251000Y-78203000D02*
X137251000Y-81966000D01*
X137291000Y-71965000D02*
X137291000Y-75721000D01*
X137291000Y-78203000D02*
X137291000Y-81959000D01*
X137331000Y-71972000D02*
X137331000Y-75721000D01*
X137331000Y-78203000D02*
X137331000Y-81952000D01*
X137371000Y-71980000D02*
X137371000Y-75721000D01*
X137371000Y-78203000D02*
X137371000Y-81944000D01*
X137411000Y-71988000D02*
X137411000Y-75721000D01*
X137411000Y-78203000D02*
X137411000Y-81936000D01*
X137451000Y-71997000D02*
X137451000Y-75721000D01*
X137451000Y-78203000D02*
X137451000Y-81927000D01*
X137491000Y-72006000D02*
X137491000Y-75721000D01*
X137491000Y-78203000D02*
X137491000Y-81918000D01*
X137531000Y-72015000D02*
X137531000Y-75721000D01*
X137531000Y-78203000D02*
X137531000Y-81909000D01*
X137571000Y-72024000D02*
X137571000Y-75721000D01*
X137571000Y-78203000D02*
X137571000Y-81900000D01*
X137611000Y-72034000D02*
X137611000Y-75721000D01*
X137611000Y-78203000D02*
X137611000Y-81890000D01*
X137651000Y-72044000D02*
X137651000Y-75721000D01*
X137651000Y-78203000D02*
X137651000Y-81880000D01*
X137691000Y-72055000D02*
X137691000Y-75721000D01*
X137691000Y-78203000D02*
X137691000Y-81869000D01*
X137731000Y-72065000D02*
X137731000Y-75721000D01*
X137731000Y-78203000D02*
X137731000Y-81859000D01*
X137771000Y-72077000D02*
X137771000Y-75721000D01*
X137771000Y-78203000D02*
X137771000Y-81847000D01*
X137811000Y-72088000D02*
X137811000Y-75721000D01*
X137811000Y-78203000D02*
X137811000Y-81836000D01*
X137851000Y-72100000D02*
X137851000Y-75721000D01*
X137851000Y-78203000D02*
X137851000Y-81824000D01*
X137891000Y-72112000D02*
X137891000Y-75721000D01*
X137891000Y-78203000D02*
X137891000Y-81812000D01*
X137931000Y-72125000D02*
X137931000Y-75721000D01*
X137931000Y-78203000D02*
X137931000Y-81799000D01*
X137971000Y-72138000D02*
X137971000Y-75721000D01*
X137971000Y-78203000D02*
X137971000Y-81786000D01*
X138011000Y-72151000D02*
X138011000Y-75721000D01*
X138011000Y-78203000D02*
X138011000Y-81773000D01*
X138051000Y-72165000D02*
X138051000Y-75721000D01*
X138051000Y-78203000D02*
X138051000Y-81759000D01*
X138091000Y-72179000D02*
X138091000Y-75721000D01*
X138091000Y-78203000D02*
X138091000Y-81745000D01*
X138131000Y-72194000D02*
X138131000Y-75721000D01*
X138131000Y-78203000D02*
X138131000Y-81730000D01*
X138171000Y-72208000D02*
X138171000Y-75721000D01*
X138171000Y-78203000D02*
X138171000Y-81716000D01*
X138211000Y-72224000D02*
X138211000Y-75721000D01*
X138211000Y-78203000D02*
X138211000Y-81700000D01*
X138251000Y-72239000D02*
X138251000Y-75721000D01*
X138251000Y-78203000D02*
X138251000Y-81685000D01*
X138291000Y-72255000D02*
X138291000Y-75721000D01*
X138291000Y-78203000D02*
X138291000Y-81669000D01*
X138331000Y-72272000D02*
X138331000Y-75721000D01*
X138331000Y-78203000D02*
X138331000Y-81652000D01*
X138371000Y-72288000D02*
X138371000Y-75721000D01*
X138371000Y-78203000D02*
X138371000Y-81636000D01*
X138411000Y-72305000D02*
X138411000Y-75721000D01*
X138411000Y-78203000D02*
X138411000Y-81619000D01*
X138451000Y-72323000D02*
X138451000Y-75721000D01*
X138451000Y-78203000D02*
X138451000Y-81601000D01*
X138491000Y-72341000D02*
X138491000Y-75721000D01*
X138491000Y-78203000D02*
X138491000Y-81583000D01*
X138531000Y-72359000D02*
X138531000Y-75721000D01*
X138531000Y-78203000D02*
X138531000Y-81565000D01*
X138571000Y-72378000D02*
X138571000Y-75721000D01*
X138571000Y-78203000D02*
X138571000Y-81546000D01*
X138611000Y-72398000D02*
X138611000Y-75721000D01*
X138611000Y-78203000D02*
X138611000Y-81526000D01*
X138651000Y-72417000D02*
X138651000Y-75721000D01*
X138651000Y-78203000D02*
X138651000Y-81507000D01*
X138691000Y-72437000D02*
X138691000Y-75721000D01*
X138691000Y-78203000D02*
X138691000Y-81487000D01*
X138731000Y-72458000D02*
X138731000Y-75721000D01*
X138731000Y-78203000D02*
X138731000Y-81466000D01*
X138771000Y-72479000D02*
X138771000Y-75721000D01*
X138771000Y-78203000D02*
X138771000Y-81445000D01*
X138811000Y-72500000D02*
X138811000Y-75721000D01*
X138811000Y-78203000D02*
X138811000Y-81424000D01*
X138851000Y-72522000D02*
X138851000Y-75721000D01*
X138851000Y-78203000D02*
X138851000Y-81402000D01*
X138891000Y-72545000D02*
X138891000Y-75721000D01*
X138891000Y-78203000D02*
X138891000Y-81379000D01*
X138931000Y-72567000D02*
X138931000Y-75721000D01*
X138931000Y-78203000D02*
X138931000Y-81357000D01*
X138971000Y-72591000D02*
X138971000Y-75721000D01*
X138971000Y-78203000D02*
X138971000Y-81333000D01*
X139011000Y-72615000D02*
X139011000Y-75721000D01*
X139011000Y-78203000D02*
X139011000Y-81309000D01*
X139051000Y-72639000D02*
X139051000Y-75721000D01*
X139051000Y-78203000D02*
X139051000Y-81285000D01*
X139091000Y-72664000D02*
X139091000Y-75721000D01*
X139091000Y-78203000D02*
X139091000Y-81260000D01*
X139131000Y-72689000D02*
X139131000Y-75721000D01*
X139131000Y-78203000D02*
X139131000Y-81235000D01*
X139171000Y-72715000D02*
X139171000Y-75721000D01*
X139171000Y-78203000D02*
X139171000Y-81209000D01*
X139211000Y-72741000D02*
X139211000Y-75721000D01*
X139211000Y-78203000D02*
X139211000Y-81183000D01*
X139251000Y-72768000D02*
X139251000Y-75721000D01*
X139251000Y-78203000D02*
X139251000Y-81156000D01*
X139291000Y-72796000D02*
X139291000Y-75721000D01*
X139291000Y-78203000D02*
X139291000Y-81128000D01*
X139331000Y-72824000D02*
X139331000Y-75721000D01*
X139331000Y-78203000D02*
X139331000Y-81100000D01*
X139371000Y-72852000D02*
X139371000Y-81072000D01*
X139411000Y-72882000D02*
X139411000Y-81042000D01*
X139451000Y-72912000D02*
X139451000Y-81012000D01*
X139491000Y-72942000D02*
X139491000Y-80982000D01*
X139531000Y-72973000D02*
X139531000Y-80951000D01*
X139571000Y-73005000D02*
X139571000Y-80919000D01*
X139611000Y-73037000D02*
X139611000Y-80887000D01*
X139651000Y-73070000D02*
X139651000Y-80854000D01*
X139691000Y-73104000D02*
X139691000Y-80820000D01*
X139731000Y-73138000D02*
X139731000Y-80786000D01*
X139771000Y-73173000D02*
X139771000Y-80751000D01*
X139811000Y-73209000D02*
X139811000Y-80715000D01*
X139851000Y-73246000D02*
X139851000Y-80678000D01*
X139891000Y-73283000D02*
X139891000Y-80641000D01*
X139931000Y-73322000D02*
X139931000Y-80602000D01*
X139971000Y-73361000D02*
X139971000Y-80563000D01*
X140011000Y-73401000D02*
X140011000Y-80523000D01*
X140051000Y-73442000D02*
X140051000Y-80482000D01*
X140091000Y-73484000D02*
X140091000Y-80440000D01*
X140131000Y-73526000D02*
X140131000Y-80398000D01*
X140171000Y-73570000D02*
X140171000Y-80354000D01*
X140211000Y-73615000D02*
X140211000Y-80309000D01*
X140251000Y-73661000D02*
X140251000Y-80263000D01*
X140291000Y-73708000D02*
X140291000Y-80216000D01*
X140331000Y-73756000D02*
X140331000Y-80168000D01*
X140371000Y-73806000D02*
X140371000Y-80118000D01*
X140411000Y-73856000D02*
X140411000Y-80068000D01*
X140451000Y-73908000D02*
X140451000Y-80016000D01*
X140491000Y-73962000D02*
X140491000Y-79962000D01*
X140531000Y-74017000D02*
X140531000Y-79907000D01*
X140571000Y-74073000D02*
X140571000Y-79851000D01*
X140611000Y-74132000D02*
X140611000Y-79792000D01*
X140651000Y-74192000D02*
X140651000Y-79732000D01*
X140691000Y-74253000D02*
X140691000Y-79671000D01*
X140731000Y-74317000D02*
X140731000Y-79607000D01*
X140771000Y-74383000D02*
X140771000Y-79541000D01*
X140811000Y-74452000D02*
X140811000Y-79472000D01*
X140851000Y-74523000D02*
X140851000Y-79401000D01*
X140891000Y-74597000D02*
X140891000Y-79327000D01*
X140931000Y-74673000D02*
X140931000Y-79251000D01*
X140971000Y-74753000D02*
X140971000Y-79171000D01*
X141011000Y-74837000D02*
X141011000Y-79087000D01*
X141051000Y-74925000D02*
X141051000Y-78999000D01*
X141091000Y-75018000D02*
X141091000Y-78906000D01*
X141131000Y-75116000D02*
X141131000Y-78808000D01*
X141171000Y-75220000D02*
X141171000Y-78704000D01*
X141211000Y-75332000D02*
X141211000Y-78592000D01*
X141251000Y-75452000D02*
X141251000Y-78472000D01*
X141291000Y-75584000D02*
X141291000Y-78340000D01*
X141331000Y-75732000D02*
X141331000Y-78192000D01*
X141371000Y-75900000D02*
X141371000Y-78024000D01*
X141411000Y-76100000D02*
X141411000Y-77824000D01*
X141451000Y-76363000D02*
X141451000Y-77561000D01*
X130890354Y-74087000D02*
X131890354Y-74087000D01*
X131390354Y-73587000D02*
X131390354Y-74587000D01*
%TO.C,C24*%
X121630000Y-94880000D02*
X124870000Y-94880000D01*
X121630000Y-97120000D02*
X124870000Y-97120000D01*
X121630000Y-94880000D02*
X121630000Y-94945000D01*
X121630000Y-97055000D02*
X121630000Y-97120000D01*
X124870000Y-94880000D02*
X124870000Y-94945000D01*
X124870000Y-97055000D02*
X124870000Y-97120000D01*
%TO.C,C23*%
X125360000Y-71778000D02*
X128600000Y-71778000D01*
X125360000Y-74018000D02*
X128600000Y-74018000D01*
X125360000Y-71778000D02*
X125360000Y-71843000D01*
X125360000Y-73953000D02*
X125360000Y-74018000D01*
X128600000Y-71778000D02*
X128600000Y-71843000D01*
X128600000Y-73953000D02*
X128600000Y-74018000D01*
%TO.C,C22*%
X103926000Y-77188000D02*
G75*
G03*
X103926000Y-77188000I-5120000J0D01*
G01*
X103886000Y-77188000D02*
X93726000Y-77188000D01*
X103886000Y-77228000D02*
X93726000Y-77228000D01*
X103886000Y-77268000D02*
X93726000Y-77268000D01*
X103885000Y-77308000D02*
X93727000Y-77308000D01*
X103884000Y-77348000D02*
X93728000Y-77348000D01*
X103883000Y-77388000D02*
X93729000Y-77388000D01*
X103881000Y-77428000D02*
X93731000Y-77428000D01*
X103879000Y-77468000D02*
X93733000Y-77468000D01*
X103876000Y-77508000D02*
X93736000Y-77508000D01*
X103874000Y-77548000D02*
X93738000Y-77548000D01*
X103871000Y-77588000D02*
X93741000Y-77588000D01*
X103868000Y-77628000D02*
X93744000Y-77628000D01*
X103864000Y-77668000D02*
X93748000Y-77668000D01*
X103860000Y-77708000D02*
X100047000Y-77708000D01*
X97565000Y-77708000D02*
X93752000Y-77708000D01*
X103856000Y-77748000D02*
X100047000Y-77748000D01*
X97565000Y-77748000D02*
X93756000Y-77748000D01*
X103851000Y-77788000D02*
X100047000Y-77788000D01*
X97565000Y-77788000D02*
X93761000Y-77788000D01*
X103846000Y-77828000D02*
X100047000Y-77828000D01*
X97565000Y-77828000D02*
X93766000Y-77828000D01*
X103841000Y-77868000D02*
X100047000Y-77868000D01*
X97565000Y-77868000D02*
X93771000Y-77868000D01*
X103836000Y-77909000D02*
X100047000Y-77909000D01*
X97565000Y-77909000D02*
X93776000Y-77909000D01*
X103830000Y-77949000D02*
X100047000Y-77949000D01*
X97565000Y-77949000D02*
X93782000Y-77949000D01*
X103824000Y-77989000D02*
X100047000Y-77989000D01*
X97565000Y-77989000D02*
X93788000Y-77989000D01*
X103817000Y-78029000D02*
X100047000Y-78029000D01*
X97565000Y-78029000D02*
X93795000Y-78029000D01*
X103810000Y-78069000D02*
X100047000Y-78069000D01*
X97565000Y-78069000D02*
X93802000Y-78069000D01*
X103803000Y-78109000D02*
X100047000Y-78109000D01*
X97565000Y-78109000D02*
X93809000Y-78109000D01*
X103796000Y-78149000D02*
X100047000Y-78149000D01*
X97565000Y-78149000D02*
X93816000Y-78149000D01*
X103788000Y-78189000D02*
X100047000Y-78189000D01*
X97565000Y-78189000D02*
X93824000Y-78189000D01*
X103780000Y-78229000D02*
X100047000Y-78229000D01*
X97565000Y-78229000D02*
X93832000Y-78229000D01*
X103771000Y-78269000D02*
X100047000Y-78269000D01*
X97565000Y-78269000D02*
X93841000Y-78269000D01*
X103762000Y-78309000D02*
X100047000Y-78309000D01*
X97565000Y-78309000D02*
X93850000Y-78309000D01*
X103753000Y-78349000D02*
X100047000Y-78349000D01*
X97565000Y-78349000D02*
X93859000Y-78349000D01*
X103744000Y-78389000D02*
X100047000Y-78389000D01*
X97565000Y-78389000D02*
X93868000Y-78389000D01*
X103734000Y-78429000D02*
X100047000Y-78429000D01*
X97565000Y-78429000D02*
X93878000Y-78429000D01*
X103724000Y-78469000D02*
X100047000Y-78469000D01*
X97565000Y-78469000D02*
X93888000Y-78469000D01*
X103713000Y-78509000D02*
X100047000Y-78509000D01*
X97565000Y-78509000D02*
X93899000Y-78509000D01*
X103703000Y-78549000D02*
X100047000Y-78549000D01*
X97565000Y-78549000D02*
X93909000Y-78549000D01*
X103691000Y-78589000D02*
X100047000Y-78589000D01*
X97565000Y-78589000D02*
X93921000Y-78589000D01*
X103680000Y-78629000D02*
X100047000Y-78629000D01*
X97565000Y-78629000D02*
X93932000Y-78629000D01*
X103668000Y-78669000D02*
X100047000Y-78669000D01*
X97565000Y-78669000D02*
X93944000Y-78669000D01*
X103656000Y-78709000D02*
X100047000Y-78709000D01*
X97565000Y-78709000D02*
X93956000Y-78709000D01*
X103643000Y-78749000D02*
X100047000Y-78749000D01*
X97565000Y-78749000D02*
X93969000Y-78749000D01*
X103630000Y-78789000D02*
X100047000Y-78789000D01*
X97565000Y-78789000D02*
X93982000Y-78789000D01*
X103617000Y-78829000D02*
X100047000Y-78829000D01*
X97565000Y-78829000D02*
X93995000Y-78829000D01*
X103603000Y-78869000D02*
X100047000Y-78869000D01*
X97565000Y-78869000D02*
X94009000Y-78869000D01*
X103589000Y-78909000D02*
X100047000Y-78909000D01*
X97565000Y-78909000D02*
X94023000Y-78909000D01*
X103574000Y-78949000D02*
X100047000Y-78949000D01*
X97565000Y-78949000D02*
X94038000Y-78949000D01*
X103560000Y-78989000D02*
X100047000Y-78989000D01*
X97565000Y-78989000D02*
X94052000Y-78989000D01*
X103544000Y-79029000D02*
X100047000Y-79029000D01*
X97565000Y-79029000D02*
X94068000Y-79029000D01*
X103529000Y-79069000D02*
X100047000Y-79069000D01*
X97565000Y-79069000D02*
X94083000Y-79069000D01*
X103513000Y-79109000D02*
X100047000Y-79109000D01*
X97565000Y-79109000D02*
X94099000Y-79109000D01*
X103496000Y-79149000D02*
X100047000Y-79149000D01*
X97565000Y-79149000D02*
X94116000Y-79149000D01*
X103480000Y-79189000D02*
X100047000Y-79189000D01*
X97565000Y-79189000D02*
X94132000Y-79189000D01*
X103463000Y-79229000D02*
X100047000Y-79229000D01*
X97565000Y-79229000D02*
X94149000Y-79229000D01*
X103445000Y-79269000D02*
X100047000Y-79269000D01*
X97565000Y-79269000D02*
X94167000Y-79269000D01*
X103427000Y-79309000D02*
X100047000Y-79309000D01*
X97565000Y-79309000D02*
X94185000Y-79309000D01*
X103409000Y-79349000D02*
X100047000Y-79349000D01*
X97565000Y-79349000D02*
X94203000Y-79349000D01*
X103390000Y-79389000D02*
X100047000Y-79389000D01*
X97565000Y-79389000D02*
X94222000Y-79389000D01*
X103370000Y-79429000D02*
X100047000Y-79429000D01*
X97565000Y-79429000D02*
X94242000Y-79429000D01*
X103351000Y-79469000D02*
X100047000Y-79469000D01*
X97565000Y-79469000D02*
X94261000Y-79469000D01*
X103331000Y-79509000D02*
X100047000Y-79509000D01*
X97565000Y-79509000D02*
X94281000Y-79509000D01*
X103310000Y-79549000D02*
X100047000Y-79549000D01*
X97565000Y-79549000D02*
X94302000Y-79549000D01*
X103289000Y-79589000D02*
X100047000Y-79589000D01*
X97565000Y-79589000D02*
X94323000Y-79589000D01*
X103268000Y-79629000D02*
X100047000Y-79629000D01*
X97565000Y-79629000D02*
X94344000Y-79629000D01*
X103246000Y-79669000D02*
X100047000Y-79669000D01*
X97565000Y-79669000D02*
X94366000Y-79669000D01*
X103223000Y-79709000D02*
X100047000Y-79709000D01*
X97565000Y-79709000D02*
X94389000Y-79709000D01*
X103201000Y-79749000D02*
X100047000Y-79749000D01*
X97565000Y-79749000D02*
X94411000Y-79749000D01*
X103177000Y-79789000D02*
X100047000Y-79789000D01*
X97565000Y-79789000D02*
X94435000Y-79789000D01*
X103153000Y-79829000D02*
X100047000Y-79829000D01*
X97565000Y-79829000D02*
X94459000Y-79829000D01*
X103129000Y-79869000D02*
X100047000Y-79869000D01*
X97565000Y-79869000D02*
X94483000Y-79869000D01*
X103104000Y-79909000D02*
X100047000Y-79909000D01*
X97565000Y-79909000D02*
X94508000Y-79909000D01*
X103079000Y-79949000D02*
X100047000Y-79949000D01*
X97565000Y-79949000D02*
X94533000Y-79949000D01*
X103053000Y-79989000D02*
X100047000Y-79989000D01*
X97565000Y-79989000D02*
X94559000Y-79989000D01*
X103027000Y-80029000D02*
X100047000Y-80029000D01*
X97565000Y-80029000D02*
X94585000Y-80029000D01*
X103000000Y-80069000D02*
X100047000Y-80069000D01*
X97565000Y-80069000D02*
X94612000Y-80069000D01*
X102972000Y-80109000D02*
X100047000Y-80109000D01*
X97565000Y-80109000D02*
X94640000Y-80109000D01*
X102944000Y-80149000D02*
X100047000Y-80149000D01*
X97565000Y-80149000D02*
X94668000Y-80149000D01*
X102916000Y-80189000D02*
X94696000Y-80189000D01*
X102886000Y-80229000D02*
X94726000Y-80229000D01*
X102856000Y-80269000D02*
X94756000Y-80269000D01*
X102826000Y-80309000D02*
X94786000Y-80309000D01*
X102795000Y-80349000D02*
X94817000Y-80349000D01*
X102763000Y-80389000D02*
X94849000Y-80389000D01*
X102731000Y-80429000D02*
X94881000Y-80429000D01*
X102698000Y-80469000D02*
X94914000Y-80469000D01*
X102664000Y-80509000D02*
X94948000Y-80509000D01*
X102630000Y-80549000D02*
X94982000Y-80549000D01*
X102595000Y-80589000D02*
X95017000Y-80589000D01*
X102559000Y-80629000D02*
X95053000Y-80629000D01*
X102522000Y-80669000D02*
X95090000Y-80669000D01*
X102485000Y-80709000D02*
X95127000Y-80709000D01*
X102446000Y-80749000D02*
X95166000Y-80749000D01*
X102407000Y-80789000D02*
X95205000Y-80789000D01*
X102367000Y-80829000D02*
X95245000Y-80829000D01*
X102326000Y-80869000D02*
X95286000Y-80869000D01*
X102284000Y-80909000D02*
X95328000Y-80909000D01*
X102242000Y-80949000D02*
X95370000Y-80949000D01*
X102198000Y-80989000D02*
X95414000Y-80989000D01*
X102153000Y-81029000D02*
X95459000Y-81029000D01*
X102107000Y-81069000D02*
X95505000Y-81069000D01*
X102060000Y-81109000D02*
X95552000Y-81109000D01*
X102012000Y-81149000D02*
X95600000Y-81149000D01*
X101962000Y-81189000D02*
X95650000Y-81189000D01*
X101912000Y-81229000D02*
X95700000Y-81229000D01*
X101860000Y-81269000D02*
X95752000Y-81269000D01*
X101806000Y-81309000D02*
X95806000Y-81309000D01*
X101751000Y-81349000D02*
X95861000Y-81349000D01*
X101695000Y-81389000D02*
X95917000Y-81389000D01*
X101636000Y-81429000D02*
X95976000Y-81429000D01*
X101576000Y-81469000D02*
X96036000Y-81469000D01*
X101515000Y-81509000D02*
X96097000Y-81509000D01*
X101451000Y-81549000D02*
X96161000Y-81549000D01*
X101385000Y-81589000D02*
X96227000Y-81589000D01*
X101316000Y-81629000D02*
X96296000Y-81629000D01*
X101245000Y-81669000D02*
X96367000Y-81669000D01*
X101171000Y-81709000D02*
X96441000Y-81709000D01*
X101095000Y-81749000D02*
X96517000Y-81749000D01*
X101015000Y-81789000D02*
X96597000Y-81789000D01*
X100931000Y-81829000D02*
X96681000Y-81829000D01*
X100843000Y-81869000D02*
X96769000Y-81869000D01*
X100750000Y-81909000D02*
X96862000Y-81909000D01*
X100652000Y-81949000D02*
X96960000Y-81949000D01*
X100548000Y-81989000D02*
X97064000Y-81989000D01*
X100436000Y-82029000D02*
X97176000Y-82029000D01*
X100316000Y-82069000D02*
X97296000Y-82069000D01*
X100184000Y-82109000D02*
X97428000Y-82109000D01*
X100036000Y-82149000D02*
X97576000Y-82149000D01*
X99868000Y-82189000D02*
X97744000Y-82189000D01*
X99668000Y-82229000D02*
X97944000Y-82229000D01*
X99405000Y-82269000D02*
X98207000Y-82269000D01*
X101681000Y-71708354D02*
X101681000Y-72708354D01*
X102181000Y-72208354D02*
X101181000Y-72208354D01*
%TO.C,C21*%
X112384000Y-77320000D02*
X109144000Y-77320000D01*
X112384000Y-75080000D02*
X109144000Y-75080000D01*
X112384000Y-77320000D02*
X112384000Y-77255000D01*
X112384000Y-75145000D02*
X112384000Y-75080000D01*
X109144000Y-77320000D02*
X109144000Y-77255000D01*
X109144000Y-75145000D02*
X109144000Y-75080000D01*
%TO.C,C6*%
X156212680Y-104332200D02*
X156212680Y-101092200D01*
X158452680Y-104332200D02*
X158452680Y-101092200D01*
X156212680Y-104332200D02*
X156277680Y-104332200D01*
X158387680Y-104332200D02*
X158452680Y-104332200D01*
X156212680Y-101092200D02*
X156277680Y-101092200D01*
X158387680Y-101092200D02*
X158452680Y-101092200D01*
%TO.C,C7*%
X144370000Y-119120000D02*
X141130000Y-119120000D01*
X144370000Y-116880000D02*
X141130000Y-116880000D01*
X144370000Y-119120000D02*
X144370000Y-119055000D01*
X144370000Y-116945000D02*
X144370000Y-116880000D01*
X141130000Y-119120000D02*
X141130000Y-119055000D01*
X141130000Y-116945000D02*
X141130000Y-116880000D01*
%TO.C,C4*%
X174505480Y-136795080D02*
X174505480Y-140035080D01*
X172265480Y-136795080D02*
X172265480Y-140035080D01*
X174505480Y-136795080D02*
X174440480Y-136795080D01*
X172330480Y-136795080D02*
X172265480Y-136795080D01*
X174505480Y-140035080D02*
X174440480Y-140035080D01*
X172330480Y-140035080D02*
X172265480Y-140035080D01*
%TO.C,C3*%
X155008720Y-138576480D02*
X155008720Y-135336480D01*
X157248720Y-138576480D02*
X157248720Y-135336480D01*
X155008720Y-138576480D02*
X155073720Y-138576480D01*
X157183720Y-138576480D02*
X157248720Y-138576480D01*
X155008720Y-135336480D02*
X155073720Y-135336480D01*
X157183720Y-135336480D02*
X157248720Y-135336480D01*
%TO.C,U8*%
D11*
X99032160Y-66159284D02*
X99841684Y-66159284D01*
X99936922Y-66111665D01*
X99984541Y-66064046D01*
X100032160Y-65968808D01*
X100032160Y-65778332D01*
X99984541Y-65683094D01*
X99936922Y-65635475D01*
X99841684Y-65587856D01*
X99032160Y-65587856D01*
X99460732Y-64968808D02*
X99413113Y-65064046D01*
X99365494Y-65111665D01*
X99270256Y-65159284D01*
X99222637Y-65159284D01*
X99127399Y-65111665D01*
X99079780Y-65064046D01*
X99032160Y-64968808D01*
X99032160Y-64778332D01*
X99079780Y-64683094D01*
X99127399Y-64635475D01*
X99222637Y-64587856D01*
X99270256Y-64587856D01*
X99365494Y-64635475D01*
X99413113Y-64683094D01*
X99460732Y-64778332D01*
X99460732Y-64968808D01*
X99508351Y-65064046D01*
X99555970Y-65111665D01*
X99651208Y-65159284D01*
X99841684Y-65159284D01*
X99936922Y-65111665D01*
X99984541Y-65064046D01*
X100032160Y-64968808D01*
X100032160Y-64778332D01*
X99984541Y-64683094D01*
X99936922Y-64635475D01*
X99841684Y-64587856D01*
X99651208Y-64587856D01*
X99555970Y-64635475D01*
X99508351Y-64683094D01*
X99460732Y-64778332D01*
%TO.C,J38*%
X161029116Y-85161280D02*
X161029116Y-85875566D01*
X160981497Y-86018423D01*
X160886259Y-86113661D01*
X160743401Y-86161280D01*
X160648163Y-86161280D01*
X161410068Y-85161280D02*
X162029116Y-85161280D01*
X161695782Y-85542233D01*
X161838640Y-85542233D01*
X161933878Y-85589852D01*
X161981497Y-85637471D01*
X162029116Y-85732709D01*
X162029116Y-85970804D01*
X161981497Y-86066042D01*
X161933878Y-86113661D01*
X161838640Y-86161280D01*
X161552925Y-86161280D01*
X161457687Y-86113661D01*
X161410068Y-86066042D01*
X162600544Y-85589852D02*
X162505306Y-85542233D01*
X162457687Y-85494614D01*
X162410068Y-85399376D01*
X162410068Y-85351757D01*
X162457687Y-85256519D01*
X162505306Y-85208900D01*
X162600544Y-85161280D01*
X162791020Y-85161280D01*
X162886259Y-85208900D01*
X162933878Y-85256519D01*
X162981497Y-85351757D01*
X162981497Y-85399376D01*
X162933878Y-85494614D01*
X162886259Y-85542233D01*
X162791020Y-85589852D01*
X162600544Y-85589852D01*
X162505306Y-85637471D01*
X162457687Y-85685090D01*
X162410068Y-85780328D01*
X162410068Y-85970804D01*
X162457687Y-86066042D01*
X162505306Y-86113661D01*
X162600544Y-86161280D01*
X162791020Y-86161280D01*
X162886259Y-86113661D01*
X162933878Y-86066042D01*
X162981497Y-85970804D01*
X162981497Y-85780328D01*
X162933878Y-85685090D01*
X162886259Y-85637471D01*
X162791020Y-85589852D01*
%TO.C,J37*%
X165217576Y-88646160D02*
X165217576Y-89360446D01*
X165169957Y-89503303D01*
X165074719Y-89598541D01*
X164931861Y-89646160D01*
X164836623Y-89646160D01*
X165598528Y-88646160D02*
X166217576Y-88646160D01*
X165884242Y-89027113D01*
X166027100Y-89027113D01*
X166122338Y-89074732D01*
X166169957Y-89122351D01*
X166217576Y-89217589D01*
X166217576Y-89455684D01*
X166169957Y-89550922D01*
X166122338Y-89598541D01*
X166027100Y-89646160D01*
X165741385Y-89646160D01*
X165646147Y-89598541D01*
X165598528Y-89550922D01*
X166550909Y-88646160D02*
X167217576Y-88646160D01*
X166789004Y-89646160D01*
%TO.C,J36*%
X165115976Y-85801360D02*
X165115976Y-86515646D01*
X165068357Y-86658503D01*
X164973119Y-86753741D01*
X164830261Y-86801360D01*
X164735023Y-86801360D01*
X165496928Y-85801360D02*
X166115976Y-85801360D01*
X165782642Y-86182313D01*
X165925500Y-86182313D01*
X166020738Y-86229932D01*
X166068357Y-86277551D01*
X166115976Y-86372789D01*
X166115976Y-86610884D01*
X166068357Y-86706122D01*
X166020738Y-86753741D01*
X165925500Y-86801360D01*
X165639785Y-86801360D01*
X165544547Y-86753741D01*
X165496928Y-86706122D01*
X166973119Y-85801360D02*
X166782642Y-85801360D01*
X166687404Y-85848980D01*
X166639785Y-85896599D01*
X166544547Y-86039456D01*
X166496928Y-86229932D01*
X166496928Y-86610884D01*
X166544547Y-86706122D01*
X166592166Y-86753741D01*
X166687404Y-86801360D01*
X166877880Y-86801360D01*
X166973119Y-86753741D01*
X167020738Y-86706122D01*
X167068357Y-86610884D01*
X167068357Y-86372789D01*
X167020738Y-86277551D01*
X166973119Y-86229932D01*
X166877880Y-86182313D01*
X166687404Y-86182313D01*
X166592166Y-86229932D01*
X166544547Y-86277551D01*
X166496928Y-86372789D01*
%TO.C,J35*%
X157046396Y-81021080D02*
X157046396Y-81735366D01*
X156998777Y-81878223D01*
X156903539Y-81973461D01*
X156760681Y-82021080D01*
X156665443Y-82021080D01*
X157427348Y-81021080D02*
X158046396Y-81021080D01*
X157713062Y-81402033D01*
X157855920Y-81402033D01*
X157951158Y-81449652D01*
X157998777Y-81497271D01*
X158046396Y-81592509D01*
X158046396Y-81830604D01*
X157998777Y-81925842D01*
X157951158Y-81973461D01*
X157855920Y-82021080D01*
X157570205Y-82021080D01*
X157474967Y-81973461D01*
X157427348Y-81925842D01*
X158951158Y-81021080D02*
X158474967Y-81021080D01*
X158427348Y-81497271D01*
X158474967Y-81449652D01*
X158570205Y-81402033D01*
X158808300Y-81402033D01*
X158903539Y-81449652D01*
X158951158Y-81497271D01*
X158998777Y-81592509D01*
X158998777Y-81830604D01*
X158951158Y-81925842D01*
X158903539Y-81973461D01*
X158808300Y-82021080D01*
X158570205Y-82021080D01*
X158474967Y-81973461D01*
X158427348Y-81925842D01*
%TO.C,J34*%
X135984716Y-85948680D02*
X135984716Y-86662966D01*
X135937097Y-86805823D01*
X135841859Y-86901061D01*
X135699001Y-86948680D01*
X135603763Y-86948680D01*
X136365668Y-85948680D02*
X136984716Y-85948680D01*
X136651382Y-86329633D01*
X136794240Y-86329633D01*
X136889478Y-86377252D01*
X136937097Y-86424871D01*
X136984716Y-86520109D01*
X136984716Y-86758204D01*
X136937097Y-86853442D01*
X136889478Y-86901061D01*
X136794240Y-86948680D01*
X136508525Y-86948680D01*
X136413287Y-86901061D01*
X136365668Y-86853442D01*
X137841859Y-86282014D02*
X137841859Y-86948680D01*
X137603763Y-85901061D02*
X137365668Y-86615347D01*
X137984716Y-86615347D01*
%TO.C,J33*%
X133144996Y-92092940D02*
X133144996Y-92807226D01*
X133097377Y-92950083D01*
X133002139Y-93045321D01*
X132859281Y-93092940D01*
X132764043Y-93092940D01*
X133525948Y-92092940D02*
X134144996Y-92092940D01*
X133811662Y-92473893D01*
X133954520Y-92473893D01*
X134049758Y-92521512D01*
X134097377Y-92569131D01*
X134144996Y-92664369D01*
X134144996Y-92902464D01*
X134097377Y-92997702D01*
X134049758Y-93045321D01*
X133954520Y-93092940D01*
X133668805Y-93092940D01*
X133573567Y-93045321D01*
X133525948Y-92997702D01*
X134478329Y-92092940D02*
X135097377Y-92092940D01*
X134764043Y-92473893D01*
X134906900Y-92473893D01*
X135002139Y-92521512D01*
X135049758Y-92569131D01*
X135097377Y-92664369D01*
X135097377Y-92902464D01*
X135049758Y-92997702D01*
X135002139Y-93045321D01*
X134906900Y-93092940D01*
X134621186Y-93092940D01*
X134525948Y-93045321D01*
X134478329Y-92997702D01*
%TO.C,J32*%
X93391456Y-100300380D02*
X93391456Y-101014666D01*
X93343837Y-101157523D01*
X93248599Y-101252761D01*
X93105741Y-101300380D01*
X93010503Y-101300380D01*
X93772408Y-100300380D02*
X94391456Y-100300380D01*
X94058122Y-100681333D01*
X94200980Y-100681333D01*
X94296218Y-100728952D01*
X94343837Y-100776571D01*
X94391456Y-100871809D01*
X94391456Y-101109904D01*
X94343837Y-101205142D01*
X94296218Y-101252761D01*
X94200980Y-101300380D01*
X93915265Y-101300380D01*
X93820027Y-101252761D01*
X93772408Y-101205142D01*
X94772408Y-100395619D02*
X94820027Y-100348000D01*
X94915265Y-100300380D01*
X95153360Y-100300380D01*
X95248599Y-100348000D01*
X95296218Y-100395619D01*
X95343837Y-100490857D01*
X95343837Y-100586095D01*
X95296218Y-100728952D01*
X94724789Y-101300380D01*
X95343837Y-101300380D01*
%TO.C,J31*%
X92733596Y-71123400D02*
X92733596Y-71837686D01*
X92685977Y-71980543D01*
X92590739Y-72075781D01*
X92447881Y-72123400D01*
X92352643Y-72123400D01*
X93114548Y-71123400D02*
X93733596Y-71123400D01*
X93400262Y-71504353D01*
X93543120Y-71504353D01*
X93638358Y-71551972D01*
X93685977Y-71599591D01*
X93733596Y-71694829D01*
X93733596Y-71932924D01*
X93685977Y-72028162D01*
X93638358Y-72075781D01*
X93543120Y-72123400D01*
X93257405Y-72123400D01*
X93162167Y-72075781D01*
X93114548Y-72028162D01*
X94685977Y-72123400D02*
X94114548Y-72123400D01*
X94400262Y-72123400D02*
X94400262Y-71123400D01*
X94305024Y-71266258D01*
X94209786Y-71361496D01*
X94114548Y-71409115D01*
%TO.C,J30*%
X121321296Y-122138600D02*
X121321296Y-122852886D01*
X121273677Y-122995743D01*
X121178439Y-123090981D01*
X121035581Y-123138600D01*
X120940343Y-123138600D01*
X121702248Y-122138600D02*
X122321296Y-122138600D01*
X121987962Y-122519553D01*
X122130820Y-122519553D01*
X122226058Y-122567172D01*
X122273677Y-122614791D01*
X122321296Y-122710029D01*
X122321296Y-122948124D01*
X122273677Y-123043362D01*
X122226058Y-123090981D01*
X122130820Y-123138600D01*
X121845105Y-123138600D01*
X121749867Y-123090981D01*
X121702248Y-123043362D01*
X122940343Y-122138600D02*
X123035581Y-122138600D01*
X123130820Y-122186220D01*
X123178439Y-122233839D01*
X123226058Y-122329077D01*
X123273677Y-122519553D01*
X123273677Y-122757648D01*
X123226058Y-122948124D01*
X123178439Y-123043362D01*
X123130820Y-123090981D01*
X123035581Y-123138600D01*
X122940343Y-123138600D01*
X122845105Y-123090981D01*
X122797486Y-123043362D01*
X122749867Y-122948124D01*
X122702248Y-122757648D01*
X122702248Y-122519553D01*
X122749867Y-122329077D01*
X122797486Y-122233839D01*
X122845105Y-122186220D01*
X122940343Y-122138600D01*
%TO.C,J29*%
X168067456Y-124500800D02*
X168067456Y-125215086D01*
X168019837Y-125357943D01*
X167924599Y-125453181D01*
X167781741Y-125500800D01*
X167686503Y-125500800D01*
X168496027Y-124596039D02*
X168543646Y-124548420D01*
X168638884Y-124500800D01*
X168876980Y-124500800D01*
X168972218Y-124548420D01*
X169019837Y-124596039D01*
X169067456Y-124691277D01*
X169067456Y-124786515D01*
X169019837Y-124929372D01*
X168448408Y-125500800D01*
X169067456Y-125500800D01*
X169543646Y-125500800D02*
X169734122Y-125500800D01*
X169829360Y-125453181D01*
X169876980Y-125405562D01*
X169972218Y-125262705D01*
X170019837Y-125072229D01*
X170019837Y-124691277D01*
X169972218Y-124596039D01*
X169924599Y-124548420D01*
X169829360Y-124500800D01*
X169638884Y-124500800D01*
X169543646Y-124548420D01*
X169496027Y-124596039D01*
X169448408Y-124691277D01*
X169448408Y-124929372D01*
X169496027Y-125024610D01*
X169543646Y-125072229D01*
X169638884Y-125119848D01*
X169829360Y-125119848D01*
X169924599Y-125072229D01*
X169972218Y-125024610D01*
X170019837Y-124929372D01*
%TO.C,J28*%
X141478736Y-123845480D02*
X141478736Y-124559766D01*
X141431117Y-124702623D01*
X141335879Y-124797861D01*
X141193021Y-124845480D01*
X141097783Y-124845480D01*
X141907307Y-123940719D02*
X141954926Y-123893100D01*
X142050164Y-123845480D01*
X142288260Y-123845480D01*
X142383498Y-123893100D01*
X142431117Y-123940719D01*
X142478736Y-124035957D01*
X142478736Y-124131195D01*
X142431117Y-124274052D01*
X141859688Y-124845480D01*
X142478736Y-124845480D01*
X143050164Y-124274052D02*
X142954926Y-124226433D01*
X142907307Y-124178814D01*
X142859688Y-124083576D01*
X142859688Y-124035957D01*
X142907307Y-123940719D01*
X142954926Y-123893100D01*
X143050164Y-123845480D01*
X143240640Y-123845480D01*
X143335879Y-123893100D01*
X143383498Y-123940719D01*
X143431117Y-124035957D01*
X143431117Y-124083576D01*
X143383498Y-124178814D01*
X143335879Y-124226433D01*
X143240640Y-124274052D01*
X143050164Y-124274052D01*
X142954926Y-124321671D01*
X142907307Y-124369290D01*
X142859688Y-124464528D01*
X142859688Y-124655004D01*
X142907307Y-124750242D01*
X142954926Y-124797861D01*
X143050164Y-124845480D01*
X143240640Y-124845480D01*
X143335879Y-124797861D01*
X143383498Y-124750242D01*
X143431117Y-124655004D01*
X143431117Y-124464528D01*
X143383498Y-124369290D01*
X143335879Y-124321671D01*
X143240640Y-124274052D01*
%TO.C,J27*%
X183861176Y-109298900D02*
X183861176Y-110013186D01*
X183813557Y-110156043D01*
X183718319Y-110251281D01*
X183575461Y-110298900D01*
X183480223Y-110298900D01*
X184289747Y-109394139D02*
X184337366Y-109346520D01*
X184432604Y-109298900D01*
X184670700Y-109298900D01*
X184765938Y-109346520D01*
X184813557Y-109394139D01*
X184861176Y-109489377D01*
X184861176Y-109584615D01*
X184813557Y-109727472D01*
X184242128Y-110298900D01*
X184861176Y-110298900D01*
X185194509Y-109298900D02*
X185861176Y-109298900D01*
X185432604Y-110298900D01*
%TO.C,J26*%
X125138916Y-125041820D02*
X125138916Y-125756106D01*
X125091297Y-125898963D01*
X124996059Y-125994201D01*
X124853201Y-126041820D01*
X124757963Y-126041820D01*
X125567487Y-125137059D02*
X125615106Y-125089440D01*
X125710344Y-125041820D01*
X125948440Y-125041820D01*
X126043678Y-125089440D01*
X126091297Y-125137059D01*
X126138916Y-125232297D01*
X126138916Y-125327535D01*
X126091297Y-125470392D01*
X125519868Y-126041820D01*
X126138916Y-126041820D01*
X126996059Y-125041820D02*
X126805582Y-125041820D01*
X126710344Y-125089440D01*
X126662725Y-125137059D01*
X126567487Y-125279916D01*
X126519868Y-125470392D01*
X126519868Y-125851344D01*
X126567487Y-125946582D01*
X126615106Y-125994201D01*
X126710344Y-126041820D01*
X126900820Y-126041820D01*
X126996059Y-125994201D01*
X127043678Y-125946582D01*
X127091297Y-125851344D01*
X127091297Y-125613249D01*
X127043678Y-125518011D01*
X126996059Y-125470392D01*
X126900820Y-125422773D01*
X126710344Y-125422773D01*
X126615106Y-125470392D01*
X126567487Y-125518011D01*
X126519868Y-125613249D01*
%TO.C,J25*%
X185087996Y-121709340D02*
X185087996Y-122423626D01*
X185040377Y-122566483D01*
X184945139Y-122661721D01*
X184802281Y-122709340D01*
X184707043Y-122709340D01*
X185516567Y-121804579D02*
X185564186Y-121756960D01*
X185659424Y-121709340D01*
X185897520Y-121709340D01*
X185992758Y-121756960D01*
X186040377Y-121804579D01*
X186087996Y-121899817D01*
X186087996Y-121995055D01*
X186040377Y-122137912D01*
X185468948Y-122709340D01*
X186087996Y-122709340D01*
X186992758Y-121709340D02*
X186516567Y-121709340D01*
X186468948Y-122185531D01*
X186516567Y-122137912D01*
X186611805Y-122090293D01*
X186849900Y-122090293D01*
X186945139Y-122137912D01*
X186992758Y-122185531D01*
X187040377Y-122280769D01*
X187040377Y-122518864D01*
X186992758Y-122614102D01*
X186945139Y-122661721D01*
X186849900Y-122709340D01*
X186611805Y-122709340D01*
X186516567Y-122661721D01*
X186468948Y-122614102D01*
%TO.C,J24*%
X164422556Y-107848560D02*
X164422556Y-108562846D01*
X164374937Y-108705703D01*
X164279699Y-108800941D01*
X164136841Y-108848560D01*
X164041603Y-108848560D01*
X164851127Y-107943799D02*
X164898746Y-107896180D01*
X164993984Y-107848560D01*
X165232080Y-107848560D01*
X165327318Y-107896180D01*
X165374937Y-107943799D01*
X165422556Y-108039037D01*
X165422556Y-108134275D01*
X165374937Y-108277132D01*
X164803508Y-108848560D01*
X165422556Y-108848560D01*
X166279699Y-108181894D02*
X166279699Y-108848560D01*
X166041603Y-107800941D02*
X165803508Y-108515227D01*
X166422556Y-108515227D01*
%TO.C,J23*%
X122095996Y-137144920D02*
X122095996Y-137859206D01*
X122048377Y-138002063D01*
X121953139Y-138097301D01*
X121810281Y-138144920D01*
X121715043Y-138144920D01*
X122524567Y-137240159D02*
X122572186Y-137192540D01*
X122667424Y-137144920D01*
X122905520Y-137144920D01*
X123000758Y-137192540D01*
X123048377Y-137240159D01*
X123095996Y-137335397D01*
X123095996Y-137430635D01*
X123048377Y-137573492D01*
X122476948Y-138144920D01*
X123095996Y-138144920D01*
X123429329Y-137144920D02*
X124048377Y-137144920D01*
X123715043Y-137525873D01*
X123857900Y-137525873D01*
X123953139Y-137573492D01*
X124000758Y-137621111D01*
X124048377Y-137716349D01*
X124048377Y-137954444D01*
X124000758Y-138049682D01*
X123953139Y-138097301D01*
X123857900Y-138144920D01*
X123572186Y-138144920D01*
X123476948Y-138097301D01*
X123429329Y-138049682D01*
%TO.C,J22*%
X93752136Y-137764680D02*
X93752136Y-138478966D01*
X93704517Y-138621823D01*
X93609279Y-138717061D01*
X93466421Y-138764680D01*
X93371183Y-138764680D01*
X94180707Y-137859919D02*
X94228326Y-137812300D01*
X94323564Y-137764680D01*
X94561660Y-137764680D01*
X94656898Y-137812300D01*
X94704517Y-137859919D01*
X94752136Y-137955157D01*
X94752136Y-138050395D01*
X94704517Y-138193252D01*
X94133088Y-138764680D01*
X94752136Y-138764680D01*
X95133088Y-137859919D02*
X95180707Y-137812300D01*
X95275945Y-137764680D01*
X95514040Y-137764680D01*
X95609279Y-137812300D01*
X95656898Y-137859919D01*
X95704517Y-137955157D01*
X95704517Y-138050395D01*
X95656898Y-138193252D01*
X95085469Y-138764680D01*
X95704517Y-138764680D01*
%TO.C,J21*%
X145397956Y-137881520D02*
X145397956Y-138595806D01*
X145350337Y-138738663D01*
X145255099Y-138833901D01*
X145112241Y-138881520D01*
X145017003Y-138881520D01*
X145826527Y-137976759D02*
X145874146Y-137929140D01*
X145969384Y-137881520D01*
X146207480Y-137881520D01*
X146302718Y-137929140D01*
X146350337Y-137976759D01*
X146397956Y-138071997D01*
X146397956Y-138167235D01*
X146350337Y-138310092D01*
X145778908Y-138881520D01*
X146397956Y-138881520D01*
X147350337Y-138881520D02*
X146778908Y-138881520D01*
X147064622Y-138881520D02*
X147064622Y-137881520D01*
X146969384Y-138024378D01*
X146874146Y-138119616D01*
X146778908Y-138167235D01*
%TO.C,J20*%
X151966396Y-105801320D02*
X151966396Y-106515606D01*
X151918777Y-106658463D01*
X151823539Y-106753701D01*
X151680681Y-106801320D01*
X151585443Y-106801320D01*
X152394967Y-105896559D02*
X152442586Y-105848940D01*
X152537824Y-105801320D01*
X152775920Y-105801320D01*
X152871158Y-105848940D01*
X152918777Y-105896559D01*
X152966396Y-105991797D01*
X152966396Y-106087035D01*
X152918777Y-106229892D01*
X152347348Y-106801320D01*
X152966396Y-106801320D01*
X153585443Y-105801320D02*
X153680681Y-105801320D01*
X153775920Y-105848940D01*
X153823539Y-105896559D01*
X153871158Y-105991797D01*
X153918777Y-106182273D01*
X153918777Y-106420368D01*
X153871158Y-106610844D01*
X153823539Y-106706082D01*
X153775920Y-106753701D01*
X153680681Y-106801320D01*
X153585443Y-106801320D01*
X153490205Y-106753701D01*
X153442586Y-106706082D01*
X153394967Y-106610844D01*
X153347348Y-106420368D01*
X153347348Y-106182273D01*
X153394967Y-105991797D01*
X153442586Y-105896559D01*
X153490205Y-105848940D01*
X153585443Y-105801320D01*
%TO.C,J19*%
X149906456Y-154597260D02*
X149906456Y-155311546D01*
X149858837Y-155454403D01*
X149763599Y-155549641D01*
X149620741Y-155597260D01*
X149525503Y-155597260D01*
X150906456Y-155597260D02*
X150335027Y-155597260D01*
X150620741Y-155597260D02*
X150620741Y-154597260D01*
X150525503Y-154740118D01*
X150430265Y-154835356D01*
X150335027Y-154882975D01*
X151382646Y-155597260D02*
X151573122Y-155597260D01*
X151668360Y-155549641D01*
X151715980Y-155502022D01*
X151811218Y-155359165D01*
X151858837Y-155168689D01*
X151858837Y-154787737D01*
X151811218Y-154692499D01*
X151763599Y-154644880D01*
X151668360Y-154597260D01*
X151477884Y-154597260D01*
X151382646Y-154644880D01*
X151335027Y-154692499D01*
X151287408Y-154787737D01*
X151287408Y-155025832D01*
X151335027Y-155121070D01*
X151382646Y-155168689D01*
X151477884Y-155216308D01*
X151668360Y-155216308D01*
X151763599Y-155168689D01*
X151811218Y-155121070D01*
X151858837Y-155025832D01*
%TO.C,J18*%
X156604436Y-99921220D02*
X156604436Y-100635506D01*
X156556817Y-100778363D01*
X156461579Y-100873601D01*
X156318721Y-100921220D01*
X156223483Y-100921220D01*
X157604436Y-100921220D02*
X157033007Y-100921220D01*
X157318721Y-100921220D02*
X157318721Y-99921220D01*
X157223483Y-100064078D01*
X157128245Y-100159316D01*
X157033007Y-100206935D01*
X158175864Y-100349792D02*
X158080626Y-100302173D01*
X158033007Y-100254554D01*
X157985388Y-100159316D01*
X157985388Y-100111697D01*
X158033007Y-100016459D01*
X158080626Y-99968840D01*
X158175864Y-99921220D01*
X158366340Y-99921220D01*
X158461579Y-99968840D01*
X158509198Y-100016459D01*
X158556817Y-100111697D01*
X158556817Y-100159316D01*
X158509198Y-100254554D01*
X158461579Y-100302173D01*
X158366340Y-100349792D01*
X158175864Y-100349792D01*
X158080626Y-100397411D01*
X158033007Y-100445030D01*
X157985388Y-100540268D01*
X157985388Y-100730744D01*
X158033007Y-100825982D01*
X158080626Y-100873601D01*
X158175864Y-100921220D01*
X158366340Y-100921220D01*
X158461579Y-100873601D01*
X158509198Y-100825982D01*
X158556817Y-100730744D01*
X158556817Y-100540268D01*
X158509198Y-100445030D01*
X158461579Y-100397411D01*
X158366340Y-100349792D01*
%TO.C,J17*%
X143040836Y-105519380D02*
X143040836Y-106233666D01*
X142993217Y-106376523D01*
X142897979Y-106471761D01*
X142755121Y-106519380D01*
X142659883Y-106519380D01*
X144040836Y-106519380D02*
X143469407Y-106519380D01*
X143755121Y-106519380D02*
X143755121Y-105519380D01*
X143659883Y-105662238D01*
X143564645Y-105757476D01*
X143469407Y-105805095D01*
X144374169Y-105519380D02*
X145040836Y-105519380D01*
X144612264Y-106519380D01*
%TO.C,J16*%
X146967676Y-152952200D02*
X146967676Y-153666486D01*
X146920057Y-153809343D01*
X146824819Y-153904581D01*
X146681961Y-153952200D01*
X146586723Y-153952200D01*
X147967676Y-153952200D02*
X147396247Y-153952200D01*
X147681961Y-153952200D02*
X147681961Y-152952200D01*
X147586723Y-153095058D01*
X147491485Y-153190296D01*
X147396247Y-153237915D01*
X148824819Y-152952200D02*
X148634342Y-152952200D01*
X148539104Y-152999820D01*
X148491485Y-153047439D01*
X148396247Y-153190296D01*
X148348628Y-153380772D01*
X148348628Y-153761724D01*
X148396247Y-153856962D01*
X148443866Y-153904581D01*
X148539104Y-153952200D01*
X148729580Y-153952200D01*
X148824819Y-153904581D01*
X148872438Y-153856962D01*
X148920057Y-153761724D01*
X148920057Y-153523629D01*
X148872438Y-153428391D01*
X148824819Y-153380772D01*
X148729580Y-153333153D01*
X148539104Y-153333153D01*
X148443866Y-153380772D01*
X148396247Y-153428391D01*
X148348628Y-153523629D01*
%TO.C,J15*%
X157048936Y-97038320D02*
X157048936Y-97752606D01*
X157001317Y-97895463D01*
X156906079Y-97990701D01*
X156763221Y-98038320D01*
X156667983Y-98038320D01*
X158048936Y-98038320D02*
X157477507Y-98038320D01*
X157763221Y-98038320D02*
X157763221Y-97038320D01*
X157667983Y-97181178D01*
X157572745Y-97276416D01*
X157477507Y-97324035D01*
X158953698Y-97038320D02*
X158477507Y-97038320D01*
X158429888Y-97514511D01*
X158477507Y-97466892D01*
X158572745Y-97419273D01*
X158810840Y-97419273D01*
X158906079Y-97466892D01*
X158953698Y-97514511D01*
X159001317Y-97609749D01*
X159001317Y-97847844D01*
X158953698Y-97943082D01*
X158906079Y-97990701D01*
X158810840Y-98038320D01*
X158572745Y-98038320D01*
X158477507Y-97990701D01*
X158429888Y-97943082D01*
%TO.C,J14*%
X141420316Y-137970420D02*
X141420316Y-138684706D01*
X141372697Y-138827563D01*
X141277459Y-138922801D01*
X141134601Y-138970420D01*
X141039363Y-138970420D01*
X142420316Y-138970420D02*
X141848887Y-138970420D01*
X142134601Y-138970420D02*
X142134601Y-137970420D01*
X142039363Y-138113278D01*
X141944125Y-138208516D01*
X141848887Y-138256135D01*
X143277459Y-138303754D02*
X143277459Y-138970420D01*
X143039363Y-137922801D02*
X142801268Y-138637087D01*
X143420316Y-138637087D01*
%TO.C,J12*%
X143952696Y-152616060D02*
X143952696Y-153330346D01*
X143905077Y-153473203D01*
X143809839Y-153568441D01*
X143666981Y-153616060D01*
X143571743Y-153616060D01*
X144952696Y-153616060D02*
X144381267Y-153616060D01*
X144666981Y-153616060D02*
X144666981Y-152616060D01*
X144571743Y-152758918D01*
X144476505Y-152854156D01*
X144381267Y-152901775D01*
X145333648Y-152711299D02*
X145381267Y-152663680D01*
X145476505Y-152616060D01*
X145714600Y-152616060D01*
X145809839Y-152663680D01*
X145857458Y-152711299D01*
X145905077Y-152806537D01*
X145905077Y-152901775D01*
X145857458Y-153044632D01*
X145286029Y-153616060D01*
X145905077Y-153616060D01*
%TO.C,J10*%
X123846056Y-142999620D02*
X123846056Y-143713906D01*
X123798437Y-143856763D01*
X123703199Y-143952001D01*
X123560341Y-143999620D01*
X123465103Y-143999620D01*
X124846056Y-143999620D02*
X124274627Y-143999620D01*
X124560341Y-143999620D02*
X124560341Y-142999620D01*
X124465103Y-143142478D01*
X124369865Y-143237716D01*
X124274627Y-143285335D01*
X125465103Y-142999620D02*
X125560341Y-142999620D01*
X125655580Y-143047240D01*
X125703199Y-143094859D01*
X125750818Y-143190097D01*
X125798437Y-143380573D01*
X125798437Y-143618668D01*
X125750818Y-143809144D01*
X125703199Y-143904382D01*
X125655580Y-143952001D01*
X125560341Y-143999620D01*
X125465103Y-143999620D01*
X125369865Y-143952001D01*
X125322246Y-143904382D01*
X125274627Y-143809144D01*
X125227008Y-143618668D01*
X125227008Y-143380573D01*
X125274627Y-143190097D01*
X125322246Y-143094859D01*
X125369865Y-143047240D01*
X125465103Y-142999620D01*
%TO.C,J9*%
X146709806Y-105628600D02*
X146709806Y-106342886D01*
X146662187Y-106485743D01*
X146566949Y-106580981D01*
X146424092Y-106628600D01*
X146328854Y-106628600D01*
X147233616Y-106628600D02*
X147424092Y-106628600D01*
X147519330Y-106580981D01*
X147566949Y-106533362D01*
X147662187Y-106390505D01*
X147709806Y-106200029D01*
X147709806Y-105819077D01*
X147662187Y-105723839D01*
X147614568Y-105676220D01*
X147519330Y-105628600D01*
X147328854Y-105628600D01*
X147233616Y-105676220D01*
X147185997Y-105723839D01*
X147138378Y-105819077D01*
X147138378Y-106057172D01*
X147185997Y-106152410D01*
X147233616Y-106200029D01*
X147328854Y-106247648D01*
X147519330Y-106247648D01*
X147614568Y-106200029D01*
X147662187Y-106152410D01*
X147709806Y-106057172D01*
%TO.C,J8*%
X174868246Y-150711060D02*
X174868246Y-151425346D01*
X174820627Y-151568203D01*
X174725389Y-151663441D01*
X174582532Y-151711060D01*
X174487294Y-151711060D01*
X175487294Y-151139632D02*
X175392056Y-151092013D01*
X175344437Y-151044394D01*
X175296818Y-150949156D01*
X175296818Y-150901537D01*
X175344437Y-150806299D01*
X175392056Y-150758680D01*
X175487294Y-150711060D01*
X175677770Y-150711060D01*
X175773008Y-150758680D01*
X175820627Y-150806299D01*
X175868246Y-150901537D01*
X175868246Y-150949156D01*
X175820627Y-151044394D01*
X175773008Y-151092013D01*
X175677770Y-151139632D01*
X175487294Y-151139632D01*
X175392056Y-151187251D01*
X175344437Y-151234870D01*
X175296818Y-151330108D01*
X175296818Y-151520584D01*
X175344437Y-151615822D01*
X175392056Y-151663441D01*
X175487294Y-151711060D01*
X175677770Y-151711060D01*
X175773008Y-151663441D01*
X175820627Y-151615822D01*
X175868246Y-151520584D01*
X175868246Y-151330108D01*
X175820627Y-151234870D01*
X175773008Y-151187251D01*
X175677770Y-151139632D01*
%TO.C,J7*%
X151322446Y-135333900D02*
X151322446Y-136048186D01*
X151274827Y-136191043D01*
X151179589Y-136286281D01*
X151036732Y-136333900D01*
X150941494Y-136333900D01*
X151703399Y-135333900D02*
X152370065Y-135333900D01*
X151941494Y-136333900D01*
%TO.C,J6*%
X149544446Y-105996900D02*
X149544446Y-106711186D01*
X149496827Y-106854043D01*
X149401589Y-106949281D01*
X149258732Y-106996900D01*
X149163494Y-106996900D01*
X150449208Y-105996900D02*
X150258732Y-105996900D01*
X150163494Y-106044520D01*
X150115875Y-106092139D01*
X150020637Y-106234996D01*
X149973018Y-106425472D01*
X149973018Y-106806424D01*
X150020637Y-106901662D01*
X150068256Y-106949281D01*
X150163494Y-106996900D01*
X150353970Y-106996900D01*
X150449208Y-106949281D01*
X150496827Y-106901662D01*
X150544446Y-106806424D01*
X150544446Y-106568329D01*
X150496827Y-106473091D01*
X150449208Y-106425472D01*
X150353970Y-106377853D01*
X150163494Y-106377853D01*
X150068256Y-106425472D01*
X150020637Y-106473091D01*
X149973018Y-106568329D01*
%TO.C,J5*%
X184873306Y-154107740D02*
X184873306Y-154822026D01*
X184825687Y-154964883D01*
X184730449Y-155060121D01*
X184587592Y-155107740D01*
X184492354Y-155107740D01*
X185825687Y-154107740D02*
X185349497Y-154107740D01*
X185301878Y-154583931D01*
X185349497Y-154536312D01*
X185444735Y-154488693D01*
X185682830Y-154488693D01*
X185778068Y-154536312D01*
X185825687Y-154583931D01*
X185873306Y-154679169D01*
X185873306Y-154917264D01*
X185825687Y-155012502D01*
X185778068Y-155060121D01*
X185682830Y-155107740D01*
X185444735Y-155107740D01*
X185349497Y-155060121D01*
X185301878Y-155012502D01*
%TO.C,J4*%
X184825046Y-149515420D02*
X184825046Y-150229706D01*
X184777427Y-150372563D01*
X184682189Y-150467801D01*
X184539332Y-150515420D01*
X184444094Y-150515420D01*
X185729808Y-149848754D02*
X185729808Y-150515420D01*
X185491713Y-149467801D02*
X185253618Y-150182087D01*
X185872665Y-150182087D01*
%TO.C,J3*%
X184865686Y-138796620D02*
X184865686Y-139510906D01*
X184818067Y-139653763D01*
X184722829Y-139749001D01*
X184579972Y-139796620D01*
X184484734Y-139796620D01*
X185246639Y-138796620D02*
X185865686Y-138796620D01*
X185532353Y-139177573D01*
X185675210Y-139177573D01*
X185770448Y-139225192D01*
X185818067Y-139272811D01*
X185865686Y-139368049D01*
X185865686Y-139606144D01*
X185818067Y-139701382D01*
X185770448Y-139749001D01*
X185675210Y-139796620D01*
X185389496Y-139796620D01*
X185294258Y-139749001D01*
X185246639Y-139701382D01*
%TO.C,J2*%
X184832666Y-134031580D02*
X184832666Y-134745866D01*
X184785047Y-134888723D01*
X184689809Y-134983961D01*
X184546952Y-135031580D01*
X184451714Y-135031580D01*
X185261238Y-134126819D02*
X185308857Y-134079200D01*
X185404095Y-134031580D01*
X185642190Y-134031580D01*
X185737428Y-134079200D01*
X185785047Y-134126819D01*
X185832666Y-134222057D01*
X185832666Y-134317295D01*
X185785047Y-134460152D01*
X185213619Y-135031580D01*
X185832666Y-135031580D01*
%TO.C,J1*%
X176361766Y-142240160D02*
X176361766Y-142954446D01*
X176314147Y-143097303D01*
X176218909Y-143192541D01*
X176076052Y-143240160D01*
X175980814Y-143240160D01*
X177361766Y-143240160D02*
X176790338Y-143240160D01*
X177076052Y-143240160D02*
X177076052Y-142240160D01*
X176980814Y-142383018D01*
X176885576Y-142478256D01*
X176790338Y-142525875D01*
%TO.C,R16*%
X168567122Y-117627420D02*
X168233789Y-117151230D01*
X167995694Y-117627420D02*
X167995694Y-116627420D01*
X168376646Y-116627420D01*
X168471884Y-116675040D01*
X168519503Y-116722659D01*
X168567122Y-116817897D01*
X168567122Y-116960754D01*
X168519503Y-117055992D01*
X168471884Y-117103611D01*
X168376646Y-117151230D01*
X167995694Y-117151230D01*
X169519503Y-117627420D02*
X168948075Y-117627420D01*
X169233789Y-117627420D02*
X169233789Y-116627420D01*
X169138551Y-116770278D01*
X169043313Y-116865516D01*
X168948075Y-116913135D01*
X170376646Y-116627420D02*
X170186170Y-116627420D01*
X170090932Y-116675040D01*
X170043313Y-116722659D01*
X169948075Y-116865516D01*
X169900456Y-117055992D01*
X169900456Y-117436944D01*
X169948075Y-117532182D01*
X169995694Y-117579801D01*
X170090932Y-117627420D01*
X170281408Y-117627420D01*
X170376646Y-117579801D01*
X170424265Y-117532182D01*
X170471884Y-117436944D01*
X170471884Y-117198849D01*
X170424265Y-117103611D01*
X170376646Y-117055992D01*
X170281408Y-117008373D01*
X170090932Y-117008373D01*
X169995694Y-117055992D01*
X169948075Y-117103611D01*
X169900456Y-117198849D01*
%TO.C,C12*%
X175022602Y-120340677D02*
X175070221Y-120388296D01*
X175117840Y-120531153D01*
X175117840Y-120626391D01*
X175070221Y-120769248D01*
X174974983Y-120864486D01*
X174879745Y-120912105D01*
X174689269Y-120959724D01*
X174546412Y-120959724D01*
X174355936Y-120912105D01*
X174260698Y-120864486D01*
X174165460Y-120769248D01*
X174117840Y-120626391D01*
X174117840Y-120531153D01*
X174165460Y-120388296D01*
X174213079Y-120340677D01*
X175117840Y-119388296D02*
X175117840Y-119959724D01*
X175117840Y-119674010D02*
X174117840Y-119674010D01*
X174260698Y-119769248D01*
X174355936Y-119864486D01*
X174403555Y-119959724D01*
X174213079Y-119007343D02*
X174165460Y-118959724D01*
X174117840Y-118864486D01*
X174117840Y-118626391D01*
X174165460Y-118531153D01*
X174213079Y-118483534D01*
X174308317Y-118435915D01*
X174403555Y-118435915D01*
X174546412Y-118483534D01*
X175117840Y-119054962D01*
X175117840Y-118435915D01*
%TO.C,U6*%
X173441455Y-109417420D02*
X173441455Y-110226944D01*
X173489074Y-110322182D01*
X173536693Y-110369801D01*
X173631931Y-110417420D01*
X173822407Y-110417420D01*
X173917645Y-110369801D01*
X173965264Y-110322182D01*
X174012883Y-110226944D01*
X174012883Y-109417420D01*
X174917645Y-109417420D02*
X174727169Y-109417420D01*
X174631931Y-109465040D01*
X174584312Y-109512659D01*
X174489074Y-109655516D01*
X174441455Y-109845992D01*
X174441455Y-110226944D01*
X174489074Y-110322182D01*
X174536693Y-110369801D01*
X174631931Y-110417420D01*
X174822407Y-110417420D01*
X174917645Y-110369801D01*
X174965264Y-110322182D01*
X175012883Y-110226944D01*
X175012883Y-109988849D01*
X174965264Y-109893611D01*
X174917645Y-109845992D01*
X174822407Y-109798373D01*
X174631931Y-109798373D01*
X174536693Y-109845992D01*
X174489074Y-109893611D01*
X174441455Y-109988849D01*
%TO.C,U5*%
X107492895Y-144317020D02*
X107492895Y-145126544D01*
X107540514Y-145221782D01*
X107588133Y-145269401D01*
X107683371Y-145317020D01*
X107873847Y-145317020D01*
X107969085Y-145269401D01*
X108016704Y-145221782D01*
X108064323Y-145126544D01*
X108064323Y-144317020D01*
X109016704Y-144317020D02*
X108540514Y-144317020D01*
X108492895Y-144793211D01*
X108540514Y-144745592D01*
X108635752Y-144697973D01*
X108873847Y-144697973D01*
X108969085Y-144745592D01*
X109016704Y-144793211D01*
X109064323Y-144888449D01*
X109064323Y-145126544D01*
X109016704Y-145221782D01*
X108969085Y-145269401D01*
X108873847Y-145317020D01*
X108635752Y-145317020D01*
X108540514Y-145269401D01*
X108492895Y-145221782D01*
%TO.C,U1*%
X158103540Y-137982304D02*
X158913064Y-137982304D01*
X159008302Y-137934685D01*
X159055921Y-137887066D01*
X159103540Y-137791828D01*
X159103540Y-137601352D01*
X159055921Y-137506114D01*
X159008302Y-137458495D01*
X158913064Y-137410876D01*
X158103540Y-137410876D01*
X159103540Y-136410876D02*
X159103540Y-136982304D01*
X159103540Y-136696590D02*
X158103540Y-136696590D01*
X158246398Y-136791828D01*
X158341636Y-136887066D01*
X158389255Y-136982304D01*
%TO.C,R33*%
X168775142Y-70698380D02*
X168441809Y-70222190D01*
X168203714Y-70698380D02*
X168203714Y-69698380D01*
X168584666Y-69698380D01*
X168679904Y-69746000D01*
X168727523Y-69793619D01*
X168775142Y-69888857D01*
X168775142Y-70031714D01*
X168727523Y-70126952D01*
X168679904Y-70174571D01*
X168584666Y-70222190D01*
X168203714Y-70222190D01*
X169108476Y-69698380D02*
X169727523Y-69698380D01*
X169394190Y-70079333D01*
X169537047Y-70079333D01*
X169632285Y-70126952D01*
X169679904Y-70174571D01*
X169727523Y-70269809D01*
X169727523Y-70507904D01*
X169679904Y-70603142D01*
X169632285Y-70650761D01*
X169537047Y-70698380D01*
X169251333Y-70698380D01*
X169156095Y-70650761D01*
X169108476Y-70603142D01*
X170060857Y-69698380D02*
X170679904Y-69698380D01*
X170346571Y-70079333D01*
X170489428Y-70079333D01*
X170584666Y-70126952D01*
X170632285Y-70174571D01*
X170679904Y-70269809D01*
X170679904Y-70507904D01*
X170632285Y-70603142D01*
X170584666Y-70650761D01*
X170489428Y-70698380D01*
X170203714Y-70698380D01*
X170108476Y-70650761D01*
X170060857Y-70603142D01*
%TO.C,R32*%
X130421142Y-67650380D02*
X130087809Y-67174190D01*
X129849714Y-67650380D02*
X129849714Y-66650380D01*
X130230666Y-66650380D01*
X130325904Y-66698000D01*
X130373523Y-66745619D01*
X130421142Y-66840857D01*
X130421142Y-66983714D01*
X130373523Y-67078952D01*
X130325904Y-67126571D01*
X130230666Y-67174190D01*
X129849714Y-67174190D01*
X130754476Y-66650380D02*
X131373523Y-66650380D01*
X131040190Y-67031333D01*
X131183047Y-67031333D01*
X131278285Y-67078952D01*
X131325904Y-67126571D01*
X131373523Y-67221809D01*
X131373523Y-67459904D01*
X131325904Y-67555142D01*
X131278285Y-67602761D01*
X131183047Y-67650380D01*
X130897333Y-67650380D01*
X130802095Y-67602761D01*
X130754476Y-67555142D01*
X131754476Y-66745619D02*
X131802095Y-66698000D01*
X131897333Y-66650380D01*
X132135428Y-66650380D01*
X132230666Y-66698000D01*
X132278285Y-66745619D01*
X132325904Y-66840857D01*
X132325904Y-66936095D01*
X132278285Y-67078952D01*
X131706857Y-67650380D01*
X132325904Y-67650380D01*
%TO.C,R31*%
X179189142Y-79334380D02*
X178855809Y-78858190D01*
X178617714Y-79334380D02*
X178617714Y-78334380D01*
X178998666Y-78334380D01*
X179093904Y-78382000D01*
X179141523Y-78429619D01*
X179189142Y-78524857D01*
X179189142Y-78667714D01*
X179141523Y-78762952D01*
X179093904Y-78810571D01*
X178998666Y-78858190D01*
X178617714Y-78858190D01*
X179522476Y-78334380D02*
X180141523Y-78334380D01*
X179808190Y-78715333D01*
X179951047Y-78715333D01*
X180046285Y-78762952D01*
X180093904Y-78810571D01*
X180141523Y-78905809D01*
X180141523Y-79143904D01*
X180093904Y-79239142D01*
X180046285Y-79286761D01*
X179951047Y-79334380D01*
X179665333Y-79334380D01*
X179570095Y-79286761D01*
X179522476Y-79239142D01*
X181093904Y-79334380D02*
X180522476Y-79334380D01*
X180808190Y-79334380D02*
X180808190Y-78334380D01*
X180712952Y-78477238D01*
X180617714Y-78572476D01*
X180522476Y-78620095D01*
%TO.C,R30*%
X179189142Y-87208380D02*
X178855809Y-86732190D01*
X178617714Y-87208380D02*
X178617714Y-86208380D01*
X178998666Y-86208380D01*
X179093904Y-86256000D01*
X179141523Y-86303619D01*
X179189142Y-86398857D01*
X179189142Y-86541714D01*
X179141523Y-86636952D01*
X179093904Y-86684571D01*
X178998666Y-86732190D01*
X178617714Y-86732190D01*
X179522476Y-86208380D02*
X180141523Y-86208380D01*
X179808190Y-86589333D01*
X179951047Y-86589333D01*
X180046285Y-86636952D01*
X180093904Y-86684571D01*
X180141523Y-86779809D01*
X180141523Y-87017904D01*
X180093904Y-87113142D01*
X180046285Y-87160761D01*
X179951047Y-87208380D01*
X179665333Y-87208380D01*
X179570095Y-87160761D01*
X179522476Y-87113142D01*
X180760571Y-86208380D02*
X180855809Y-86208380D01*
X180951047Y-86256000D01*
X180998666Y-86303619D01*
X181046285Y-86398857D01*
X181093904Y-86589333D01*
X181093904Y-86827428D01*
X181046285Y-87017904D01*
X180998666Y-87113142D01*
X180951047Y-87160761D01*
X180855809Y-87208380D01*
X180760571Y-87208380D01*
X180665333Y-87160761D01*
X180617714Y-87113142D01*
X180570095Y-87017904D01*
X180522476Y-86827428D01*
X180522476Y-86589333D01*
X180570095Y-86398857D01*
X180617714Y-86303619D01*
X180665333Y-86256000D01*
X180760571Y-86208380D01*
%TO.C,R29*%
X179189142Y-84414380D02*
X178855809Y-83938190D01*
X178617714Y-84414380D02*
X178617714Y-83414380D01*
X178998666Y-83414380D01*
X179093904Y-83462000D01*
X179141523Y-83509619D01*
X179189142Y-83604857D01*
X179189142Y-83747714D01*
X179141523Y-83842952D01*
X179093904Y-83890571D01*
X178998666Y-83938190D01*
X178617714Y-83938190D01*
X179570095Y-83509619D02*
X179617714Y-83462000D01*
X179712952Y-83414380D01*
X179951047Y-83414380D01*
X180046285Y-83462000D01*
X180093904Y-83509619D01*
X180141523Y-83604857D01*
X180141523Y-83700095D01*
X180093904Y-83842952D01*
X179522476Y-84414380D01*
X180141523Y-84414380D01*
X180617714Y-84414380D02*
X180808190Y-84414380D01*
X180903428Y-84366761D01*
X180951047Y-84319142D01*
X181046285Y-84176285D01*
X181093904Y-83985809D01*
X181093904Y-83604857D01*
X181046285Y-83509619D01*
X180998666Y-83462000D01*
X180903428Y-83414380D01*
X180712952Y-83414380D01*
X180617714Y-83462000D01*
X180570095Y-83509619D01*
X180522476Y-83604857D01*
X180522476Y-83842952D01*
X180570095Y-83938190D01*
X180617714Y-83985809D01*
X180712952Y-84033428D01*
X180903428Y-84033428D01*
X180998666Y-83985809D01*
X181046285Y-83938190D01*
X181093904Y-83842952D01*
%TO.C,R28*%
X115930700Y-120754377D02*
X115454510Y-121087710D01*
X115930700Y-121325805D02*
X114930700Y-121325805D01*
X114930700Y-120944853D01*
X114978320Y-120849615D01*
X115025939Y-120801996D01*
X115121177Y-120754377D01*
X115264034Y-120754377D01*
X115359272Y-120801996D01*
X115406891Y-120849615D01*
X115454510Y-120944853D01*
X115454510Y-121325805D01*
X115025939Y-120373424D02*
X114978320Y-120325805D01*
X114930700Y-120230567D01*
X114930700Y-119992472D01*
X114978320Y-119897234D01*
X115025939Y-119849615D01*
X115121177Y-119801996D01*
X115216415Y-119801996D01*
X115359272Y-119849615D01*
X115930700Y-120421043D01*
X115930700Y-119801996D01*
X115359272Y-119230567D02*
X115311653Y-119325805D01*
X115264034Y-119373424D01*
X115168796Y-119421043D01*
X115121177Y-119421043D01*
X115025939Y-119373424D01*
X114978320Y-119325805D01*
X114930700Y-119230567D01*
X114930700Y-119040091D01*
X114978320Y-118944853D01*
X115025939Y-118897234D01*
X115121177Y-118849615D01*
X115168796Y-118849615D01*
X115264034Y-118897234D01*
X115311653Y-118944853D01*
X115359272Y-119040091D01*
X115359272Y-119230567D01*
X115406891Y-119325805D01*
X115454510Y-119373424D01*
X115549748Y-119421043D01*
X115740224Y-119421043D01*
X115835462Y-119373424D01*
X115883081Y-119325805D01*
X115930700Y-119230567D01*
X115930700Y-119040091D01*
X115883081Y-118944853D01*
X115835462Y-118897234D01*
X115740224Y-118849615D01*
X115549748Y-118849615D01*
X115454510Y-118897234D01*
X115406891Y-118944853D01*
X115359272Y-119040091D01*
%TO.C,R25*%
X146649720Y-127813037D02*
X146173530Y-128146370D01*
X146649720Y-128384465D02*
X145649720Y-128384465D01*
X145649720Y-128003513D01*
X145697340Y-127908275D01*
X145744959Y-127860656D01*
X145840197Y-127813037D01*
X145983054Y-127813037D01*
X146078292Y-127860656D01*
X146125911Y-127908275D01*
X146173530Y-128003513D01*
X146173530Y-128384465D01*
X145744959Y-127432084D02*
X145697340Y-127384465D01*
X145649720Y-127289227D01*
X145649720Y-127051132D01*
X145697340Y-126955894D01*
X145744959Y-126908275D01*
X145840197Y-126860656D01*
X145935435Y-126860656D01*
X146078292Y-126908275D01*
X146649720Y-127479703D01*
X146649720Y-126860656D01*
X145649720Y-125955894D02*
X145649720Y-126432084D01*
X146125911Y-126479703D01*
X146078292Y-126432084D01*
X146030673Y-126336846D01*
X146030673Y-126098751D01*
X146078292Y-126003513D01*
X146125911Y-125955894D01*
X146221149Y-125908275D01*
X146459244Y-125908275D01*
X146554482Y-125955894D01*
X146602101Y-126003513D01*
X146649720Y-126098751D01*
X146649720Y-126336846D01*
X146602101Y-126432084D01*
X146554482Y-126479703D01*
%TO.C,R24*%
X142981960Y-127807957D02*
X142505770Y-128141290D01*
X142981960Y-128379385D02*
X141981960Y-128379385D01*
X141981960Y-127998433D01*
X142029580Y-127903195D01*
X142077199Y-127855576D01*
X142172437Y-127807957D01*
X142315294Y-127807957D01*
X142410532Y-127855576D01*
X142458151Y-127903195D01*
X142505770Y-127998433D01*
X142505770Y-128379385D01*
X142077199Y-127427004D02*
X142029580Y-127379385D01*
X141981960Y-127284147D01*
X141981960Y-127046052D01*
X142029580Y-126950814D01*
X142077199Y-126903195D01*
X142172437Y-126855576D01*
X142267675Y-126855576D01*
X142410532Y-126903195D01*
X142981960Y-127474623D01*
X142981960Y-126855576D01*
X142315294Y-125998433D02*
X142981960Y-125998433D01*
X141934341Y-126236528D02*
X142648627Y-126474623D01*
X142648627Y-125855576D01*
%TO.C,R27*%
X116621820Y-127424417D02*
X116145630Y-127757750D01*
X116621820Y-127995845D02*
X115621820Y-127995845D01*
X115621820Y-127614893D01*
X115669440Y-127519655D01*
X115717059Y-127472036D01*
X115812297Y-127424417D01*
X115955154Y-127424417D01*
X116050392Y-127472036D01*
X116098011Y-127519655D01*
X116145630Y-127614893D01*
X116145630Y-127995845D01*
X115717059Y-127043464D02*
X115669440Y-126995845D01*
X115621820Y-126900607D01*
X115621820Y-126662512D01*
X115669440Y-126567274D01*
X115717059Y-126519655D01*
X115812297Y-126472036D01*
X115907535Y-126472036D01*
X116050392Y-126519655D01*
X116621820Y-127091083D01*
X116621820Y-126472036D01*
X115621820Y-126138702D02*
X115621820Y-125472036D01*
X116621820Y-125900607D01*
%TO.C,R26*%
X123293902Y-129626620D02*
X122960569Y-129150430D01*
X122722474Y-129626620D02*
X122722474Y-128626620D01*
X123103426Y-128626620D01*
X123198664Y-128674240D01*
X123246283Y-128721859D01*
X123293902Y-128817097D01*
X123293902Y-128959954D01*
X123246283Y-129055192D01*
X123198664Y-129102811D01*
X123103426Y-129150430D01*
X122722474Y-129150430D01*
X123674855Y-128721859D02*
X123722474Y-128674240D01*
X123817712Y-128626620D01*
X124055807Y-128626620D01*
X124151045Y-128674240D01*
X124198664Y-128721859D01*
X124246283Y-128817097D01*
X124246283Y-128912335D01*
X124198664Y-129055192D01*
X123627236Y-129626620D01*
X124246283Y-129626620D01*
X125103426Y-128626620D02*
X124912950Y-128626620D01*
X124817712Y-128674240D01*
X124770093Y-128721859D01*
X124674855Y-128864716D01*
X124627236Y-129055192D01*
X124627236Y-129436144D01*
X124674855Y-129531382D01*
X124722474Y-129579001D01*
X124817712Y-129626620D01*
X125008188Y-129626620D01*
X125103426Y-129579001D01*
X125151045Y-129531382D01*
X125198664Y-129436144D01*
X125198664Y-129198049D01*
X125151045Y-129102811D01*
X125103426Y-129055192D01*
X125008188Y-129007573D01*
X124817712Y-129007573D01*
X124722474Y-129055192D01*
X124674855Y-129102811D01*
X124627236Y-129198049D01*
%TO.C,R22*%
X126787140Y-129171937D02*
X126310950Y-129505270D01*
X126787140Y-129743365D02*
X125787140Y-129743365D01*
X125787140Y-129362413D01*
X125834760Y-129267175D01*
X125882379Y-129219556D01*
X125977617Y-129171937D01*
X126120474Y-129171937D01*
X126215712Y-129219556D01*
X126263331Y-129267175D01*
X126310950Y-129362413D01*
X126310950Y-129743365D01*
X125882379Y-128790984D02*
X125834760Y-128743365D01*
X125787140Y-128648127D01*
X125787140Y-128410032D01*
X125834760Y-128314794D01*
X125882379Y-128267175D01*
X125977617Y-128219556D01*
X126072855Y-128219556D01*
X126215712Y-128267175D01*
X126787140Y-128838603D01*
X126787140Y-128219556D01*
X125882379Y-127838603D02*
X125834760Y-127790984D01*
X125787140Y-127695746D01*
X125787140Y-127457651D01*
X125834760Y-127362413D01*
X125882379Y-127314794D01*
X125977617Y-127267175D01*
X126072855Y-127267175D01*
X126215712Y-127314794D01*
X126787140Y-127886222D01*
X126787140Y-127267175D01*
%TO.C,R23*%
X171229300Y-128194037D02*
X170753110Y-128527370D01*
X171229300Y-128765465D02*
X170229300Y-128765465D01*
X170229300Y-128384513D01*
X170276920Y-128289275D01*
X170324539Y-128241656D01*
X170419777Y-128194037D01*
X170562634Y-128194037D01*
X170657872Y-128241656D01*
X170705491Y-128289275D01*
X170753110Y-128384513D01*
X170753110Y-128765465D01*
X170324539Y-127813084D02*
X170276920Y-127765465D01*
X170229300Y-127670227D01*
X170229300Y-127432132D01*
X170276920Y-127336894D01*
X170324539Y-127289275D01*
X170419777Y-127241656D01*
X170515015Y-127241656D01*
X170657872Y-127289275D01*
X171229300Y-127860703D01*
X171229300Y-127241656D01*
X170229300Y-126908322D02*
X170229300Y-126289275D01*
X170610253Y-126622608D01*
X170610253Y-126479751D01*
X170657872Y-126384513D01*
X170705491Y-126336894D01*
X170800729Y-126289275D01*
X171038824Y-126289275D01*
X171134062Y-126336894D01*
X171181681Y-126384513D01*
X171229300Y-126479751D01*
X171229300Y-126765465D01*
X171181681Y-126860703D01*
X171134062Y-126908322D01*
%TO.C,R21*%
X180330340Y-101226857D02*
X179854150Y-101560190D01*
X180330340Y-101798285D02*
X179330340Y-101798285D01*
X179330340Y-101417333D01*
X179377960Y-101322095D01*
X179425579Y-101274476D01*
X179520817Y-101226857D01*
X179663674Y-101226857D01*
X179758912Y-101274476D01*
X179806531Y-101322095D01*
X179854150Y-101417333D01*
X179854150Y-101798285D01*
X179425579Y-100845904D02*
X179377960Y-100798285D01*
X179330340Y-100703047D01*
X179330340Y-100464952D01*
X179377960Y-100369714D01*
X179425579Y-100322095D01*
X179520817Y-100274476D01*
X179616055Y-100274476D01*
X179758912Y-100322095D01*
X180330340Y-100893523D01*
X180330340Y-100274476D01*
X180330340Y-99322095D02*
X180330340Y-99893523D01*
X180330340Y-99607809D02*
X179330340Y-99607809D01*
X179473198Y-99703047D01*
X179568436Y-99798285D01*
X179616055Y-99893523D01*
%TO.C,R20*%
X180279540Y-105991897D02*
X179803350Y-106325230D01*
X180279540Y-106563325D02*
X179279540Y-106563325D01*
X179279540Y-106182373D01*
X179327160Y-106087135D01*
X179374779Y-106039516D01*
X179470017Y-105991897D01*
X179612874Y-105991897D01*
X179708112Y-106039516D01*
X179755731Y-106087135D01*
X179803350Y-106182373D01*
X179803350Y-106563325D01*
X179374779Y-105610944D02*
X179327160Y-105563325D01*
X179279540Y-105468087D01*
X179279540Y-105229992D01*
X179327160Y-105134754D01*
X179374779Y-105087135D01*
X179470017Y-105039516D01*
X179565255Y-105039516D01*
X179708112Y-105087135D01*
X180279540Y-105658563D01*
X180279540Y-105039516D01*
X179279540Y-104420468D02*
X179279540Y-104325230D01*
X179327160Y-104229992D01*
X179374779Y-104182373D01*
X179470017Y-104134754D01*
X179660493Y-104087135D01*
X179898588Y-104087135D01*
X180089064Y-104134754D01*
X180184302Y-104182373D01*
X180231921Y-104229992D01*
X180279540Y-104325230D01*
X180279540Y-104420468D01*
X180231921Y-104515706D01*
X180184302Y-104563325D01*
X180089064Y-104610944D01*
X179898588Y-104658563D01*
X179660493Y-104658563D01*
X179470017Y-104610944D01*
X179374779Y-104563325D01*
X179327160Y-104515706D01*
X179279540Y-104420468D01*
%TO.C,R18*%
X102211902Y-120360940D02*
X101878569Y-119884750D01*
X101640474Y-120360940D02*
X101640474Y-119360940D01*
X102021426Y-119360940D01*
X102116664Y-119408560D01*
X102164283Y-119456179D01*
X102211902Y-119551417D01*
X102211902Y-119694274D01*
X102164283Y-119789512D01*
X102116664Y-119837131D01*
X102021426Y-119884750D01*
X101640474Y-119884750D01*
X103164283Y-120360940D02*
X102592855Y-120360940D01*
X102878569Y-120360940D02*
X102878569Y-119360940D01*
X102783331Y-119503798D01*
X102688093Y-119599036D01*
X102592855Y-119646655D01*
X103735712Y-119789512D02*
X103640474Y-119741893D01*
X103592855Y-119694274D01*
X103545236Y-119599036D01*
X103545236Y-119551417D01*
X103592855Y-119456179D01*
X103640474Y-119408560D01*
X103735712Y-119360940D01*
X103926188Y-119360940D01*
X104021426Y-119408560D01*
X104069045Y-119456179D01*
X104116664Y-119551417D01*
X104116664Y-119599036D01*
X104069045Y-119694274D01*
X104021426Y-119741893D01*
X103926188Y-119789512D01*
X103735712Y-119789512D01*
X103640474Y-119837131D01*
X103592855Y-119884750D01*
X103545236Y-119979988D01*
X103545236Y-120170464D01*
X103592855Y-120265702D01*
X103640474Y-120313321D01*
X103735712Y-120360940D01*
X103926188Y-120360940D01*
X104021426Y-120313321D01*
X104069045Y-120265702D01*
X104116664Y-120170464D01*
X104116664Y-119979988D01*
X104069045Y-119884750D01*
X104021426Y-119837131D01*
X103926188Y-119789512D01*
%TO.C,R17*%
X98056462Y-124826020D02*
X97723129Y-124349830D01*
X97485034Y-124826020D02*
X97485034Y-123826020D01*
X97865986Y-123826020D01*
X97961224Y-123873640D01*
X98008843Y-123921259D01*
X98056462Y-124016497D01*
X98056462Y-124159354D01*
X98008843Y-124254592D01*
X97961224Y-124302211D01*
X97865986Y-124349830D01*
X97485034Y-124349830D01*
X99008843Y-124826020D02*
X98437415Y-124826020D01*
X98723129Y-124826020D02*
X98723129Y-123826020D01*
X98627891Y-123968878D01*
X98532653Y-124064116D01*
X98437415Y-124111735D01*
X99342177Y-123826020D02*
X100008843Y-123826020D01*
X99580272Y-124826020D01*
%TO.C,R15*%
X98730060Y-129380217D02*
X98253870Y-129713550D01*
X98730060Y-129951645D02*
X97730060Y-129951645D01*
X97730060Y-129570693D01*
X97777680Y-129475455D01*
X97825299Y-129427836D01*
X97920537Y-129380217D01*
X98063394Y-129380217D01*
X98158632Y-129427836D01*
X98206251Y-129475455D01*
X98253870Y-129570693D01*
X98253870Y-129951645D01*
X98730060Y-128427836D02*
X98730060Y-128999264D01*
X98730060Y-128713550D02*
X97730060Y-128713550D01*
X97872918Y-128808788D01*
X97968156Y-128904026D01*
X98015775Y-128999264D01*
X97730060Y-127523074D02*
X97730060Y-127999264D01*
X98206251Y-128046883D01*
X98158632Y-127999264D01*
X98111013Y-127904026D01*
X98111013Y-127665931D01*
X98158632Y-127570693D01*
X98206251Y-127523074D01*
X98301489Y-127475455D01*
X98539584Y-127475455D01*
X98634822Y-127523074D01*
X98682441Y-127570693D01*
X98730060Y-127665931D01*
X98730060Y-127904026D01*
X98682441Y-127999264D01*
X98634822Y-128046883D01*
%TO.C,R14*%
X95887302Y-132979420D02*
X95553969Y-132503230D01*
X95315874Y-132979420D02*
X95315874Y-131979420D01*
X95696826Y-131979420D01*
X95792064Y-132027040D01*
X95839683Y-132074659D01*
X95887302Y-132169897D01*
X95887302Y-132312754D01*
X95839683Y-132407992D01*
X95792064Y-132455611D01*
X95696826Y-132503230D01*
X95315874Y-132503230D01*
X96839683Y-132979420D02*
X96268255Y-132979420D01*
X96553969Y-132979420D02*
X96553969Y-131979420D01*
X96458731Y-132122278D01*
X96363493Y-132217516D01*
X96268255Y-132265135D01*
X97696826Y-132312754D02*
X97696826Y-132979420D01*
X97458731Y-131931801D02*
X97220636Y-132646087D01*
X97839683Y-132646087D01*
%TO.C,R19*%
X180197782Y-117596940D02*
X179864449Y-117120750D01*
X179626354Y-117596940D02*
X179626354Y-116596940D01*
X180007306Y-116596940D01*
X180102544Y-116644560D01*
X180150163Y-116692179D01*
X180197782Y-116787417D01*
X180197782Y-116930274D01*
X180150163Y-117025512D01*
X180102544Y-117073131D01*
X180007306Y-117120750D01*
X179626354Y-117120750D01*
X181150163Y-117596940D02*
X180578735Y-117596940D01*
X180864449Y-117596940D02*
X180864449Y-116596940D01*
X180769211Y-116739798D01*
X180673973Y-116835036D01*
X180578735Y-116882655D01*
X181626354Y-117596940D02*
X181816830Y-117596940D01*
X181912068Y-117549321D01*
X181959687Y-117501702D01*
X182054925Y-117358845D01*
X182102544Y-117168369D01*
X182102544Y-116787417D01*
X182054925Y-116692179D01*
X182007306Y-116644560D01*
X181912068Y-116596940D01*
X181721592Y-116596940D01*
X181626354Y-116644560D01*
X181578735Y-116692179D01*
X181531116Y-116787417D01*
X181531116Y-117025512D01*
X181578735Y-117120750D01*
X181626354Y-117168369D01*
X181721592Y-117215988D01*
X181912068Y-117215988D01*
X182007306Y-117168369D01*
X182054925Y-117120750D01*
X182102544Y-117025512D01*
%TO.C,R12*%
X110245922Y-145257780D02*
X109912589Y-144781590D01*
X109674494Y-145257780D02*
X109674494Y-144257780D01*
X110055446Y-144257780D01*
X110150684Y-144305400D01*
X110198303Y-144353019D01*
X110245922Y-144448257D01*
X110245922Y-144591114D01*
X110198303Y-144686352D01*
X110150684Y-144733971D01*
X110055446Y-144781590D01*
X109674494Y-144781590D01*
X111198303Y-145257780D02*
X110626875Y-145257780D01*
X110912589Y-145257780D02*
X110912589Y-144257780D01*
X110817351Y-144400638D01*
X110722113Y-144495876D01*
X110626875Y-144543495D01*
X111579256Y-144353019D02*
X111626875Y-144305400D01*
X111722113Y-144257780D01*
X111960208Y-144257780D01*
X112055446Y-144305400D01*
X112103065Y-144353019D01*
X112150684Y-144448257D01*
X112150684Y-144543495D01*
X112103065Y-144686352D01*
X111531637Y-145257780D01*
X112150684Y-145257780D01*
%TO.C,R13*%
X107233482Y-151287740D02*
X106900149Y-150811550D01*
X106662054Y-151287740D02*
X106662054Y-150287740D01*
X107043006Y-150287740D01*
X107138244Y-150335360D01*
X107185863Y-150382979D01*
X107233482Y-150478217D01*
X107233482Y-150621074D01*
X107185863Y-150716312D01*
X107138244Y-150763931D01*
X107043006Y-150811550D01*
X106662054Y-150811550D01*
X108185863Y-151287740D02*
X107614435Y-151287740D01*
X107900149Y-151287740D02*
X107900149Y-150287740D01*
X107804911Y-150430598D01*
X107709673Y-150525836D01*
X107614435Y-150573455D01*
X108519197Y-150287740D02*
X109138244Y-150287740D01*
X108804911Y-150668693D01*
X108947768Y-150668693D01*
X109043006Y-150716312D01*
X109090625Y-150763931D01*
X109138244Y-150859169D01*
X109138244Y-151097264D01*
X109090625Y-151192502D01*
X109043006Y-151240121D01*
X108947768Y-151287740D01*
X108662054Y-151287740D01*
X108566816Y-151240121D01*
X108519197Y-151192502D01*
%TO.C,R11*%
X156552922Y-117861100D02*
X156219589Y-117384910D01*
X155981494Y-117861100D02*
X155981494Y-116861100D01*
X156362446Y-116861100D01*
X156457684Y-116908720D01*
X156505303Y-116956339D01*
X156552922Y-117051577D01*
X156552922Y-117194434D01*
X156505303Y-117289672D01*
X156457684Y-117337291D01*
X156362446Y-117384910D01*
X155981494Y-117384910D01*
X157505303Y-117861100D02*
X156933875Y-117861100D01*
X157219589Y-117861100D02*
X157219589Y-116861100D01*
X157124351Y-117003958D01*
X157029113Y-117099196D01*
X156933875Y-117146815D01*
X158457684Y-117861100D02*
X157886256Y-117861100D01*
X158171970Y-117861100D02*
X158171970Y-116861100D01*
X158076732Y-117003958D01*
X157981494Y-117099196D01*
X157886256Y-117146815D01*
%TO.C,R10*%
X136532380Y-117372857D02*
X136056190Y-117706190D01*
X136532380Y-117944285D02*
X135532380Y-117944285D01*
X135532380Y-117563333D01*
X135580000Y-117468095D01*
X135627619Y-117420476D01*
X135722857Y-117372857D01*
X135865714Y-117372857D01*
X135960952Y-117420476D01*
X136008571Y-117468095D01*
X136056190Y-117563333D01*
X136056190Y-117944285D01*
X136532380Y-116420476D02*
X136532380Y-116991904D01*
X136532380Y-116706190D02*
X135532380Y-116706190D01*
X135675238Y-116801428D01*
X135770476Y-116896666D01*
X135818095Y-116991904D01*
X135532380Y-115801428D02*
X135532380Y-115706190D01*
X135580000Y-115610952D01*
X135627619Y-115563333D01*
X135722857Y-115515714D01*
X135913333Y-115468095D01*
X136151428Y-115468095D01*
X136341904Y-115515714D01*
X136437142Y-115563333D01*
X136484761Y-115610952D01*
X136532380Y-115706190D01*
X136532380Y-115801428D01*
X136484761Y-115896666D01*
X136437142Y-115944285D01*
X136341904Y-115991904D01*
X136151428Y-116039523D01*
X135913333Y-116039523D01*
X135722857Y-115991904D01*
X135627619Y-115944285D01*
X135580000Y-115896666D01*
X135532380Y-115801428D01*
%TO.C,R9*%
X176124573Y-141851880D02*
X175791240Y-141375690D01*
X175553144Y-141851880D02*
X175553144Y-140851880D01*
X175934097Y-140851880D01*
X176029335Y-140899500D01*
X176076954Y-140947119D01*
X176124573Y-141042357D01*
X176124573Y-141185214D01*
X176076954Y-141280452D01*
X176029335Y-141328071D01*
X175934097Y-141375690D01*
X175553144Y-141375690D01*
X176600763Y-141851880D02*
X176791240Y-141851880D01*
X176886478Y-141804261D01*
X176934097Y-141756642D01*
X177029335Y-141613785D01*
X177076954Y-141423309D01*
X177076954Y-141042357D01*
X177029335Y-140947119D01*
X176981716Y-140899500D01*
X176886478Y-140851880D01*
X176696001Y-140851880D01*
X176600763Y-140899500D01*
X176553144Y-140947119D01*
X176505525Y-141042357D01*
X176505525Y-141280452D01*
X176553144Y-141375690D01*
X176600763Y-141423309D01*
X176696001Y-141470928D01*
X176886478Y-141470928D01*
X176981716Y-141423309D01*
X177029335Y-141375690D01*
X177076954Y-141280452D01*
%TO.C,R8*%
X157917380Y-156153146D02*
X157441190Y-156486480D01*
X157917380Y-156724575D02*
X156917380Y-156724575D01*
X156917380Y-156343622D01*
X156965000Y-156248384D01*
X157012619Y-156200765D01*
X157107857Y-156153146D01*
X157250714Y-156153146D01*
X157345952Y-156200765D01*
X157393571Y-156248384D01*
X157441190Y-156343622D01*
X157441190Y-156724575D01*
X157345952Y-155581718D02*
X157298333Y-155676956D01*
X157250714Y-155724575D01*
X157155476Y-155772194D01*
X157107857Y-155772194D01*
X157012619Y-155724575D01*
X156965000Y-155676956D01*
X156917380Y-155581718D01*
X156917380Y-155391241D01*
X156965000Y-155296003D01*
X157012619Y-155248384D01*
X157107857Y-155200765D01*
X157155476Y-155200765D01*
X157250714Y-155248384D01*
X157298333Y-155296003D01*
X157345952Y-155391241D01*
X157345952Y-155581718D01*
X157393571Y-155676956D01*
X157441190Y-155724575D01*
X157536428Y-155772194D01*
X157726904Y-155772194D01*
X157822142Y-155724575D01*
X157869761Y-155676956D01*
X157917380Y-155581718D01*
X157917380Y-155391241D01*
X157869761Y-155296003D01*
X157822142Y-155248384D01*
X157726904Y-155200765D01*
X157536428Y-155200765D01*
X157441190Y-155248384D01*
X157393571Y-155296003D01*
X157345952Y-155391241D01*
%TO.C,R7*%
X169388493Y-159568140D02*
X169055160Y-159091950D01*
X168817064Y-159568140D02*
X168817064Y-158568140D01*
X169198017Y-158568140D01*
X169293255Y-158615760D01*
X169340874Y-158663379D01*
X169388493Y-158758617D01*
X169388493Y-158901474D01*
X169340874Y-158996712D01*
X169293255Y-159044331D01*
X169198017Y-159091950D01*
X168817064Y-159091950D01*
X169721826Y-158568140D02*
X170388493Y-158568140D01*
X169959921Y-159568140D01*
%TO.C,R6*%
X181076620Y-149874266D02*
X180600430Y-150207600D01*
X181076620Y-150445695D02*
X180076620Y-150445695D01*
X180076620Y-150064742D01*
X180124240Y-149969504D01*
X180171859Y-149921885D01*
X180267097Y-149874266D01*
X180409954Y-149874266D01*
X180505192Y-149921885D01*
X180552811Y-149969504D01*
X180600430Y-150064742D01*
X180600430Y-150445695D01*
X180076620Y-149017123D02*
X180076620Y-149207600D01*
X180124240Y-149302838D01*
X180171859Y-149350457D01*
X180314716Y-149445695D01*
X180505192Y-149493314D01*
X180886144Y-149493314D01*
X180981382Y-149445695D01*
X181029001Y-149398076D01*
X181076620Y-149302838D01*
X181076620Y-149112361D01*
X181029001Y-149017123D01*
X180981382Y-148969504D01*
X180886144Y-148921885D01*
X180648049Y-148921885D01*
X180552811Y-148969504D01*
X180505192Y-149017123D01*
X180457573Y-149112361D01*
X180457573Y-149302838D01*
X180505192Y-149398076D01*
X180552811Y-149445695D01*
X180648049Y-149493314D01*
%TO.C,R5*%
X181134380Y-134653326D02*
X180658190Y-134986660D01*
X181134380Y-135224755D02*
X180134380Y-135224755D01*
X180134380Y-134843802D01*
X180182000Y-134748564D01*
X180229619Y-134700945D01*
X180324857Y-134653326D01*
X180467714Y-134653326D01*
X180562952Y-134700945D01*
X180610571Y-134748564D01*
X180658190Y-134843802D01*
X180658190Y-135224755D01*
X180134380Y-133748564D02*
X180134380Y-134224755D01*
X180610571Y-134272374D01*
X180562952Y-134224755D01*
X180515333Y-134129517D01*
X180515333Y-133891421D01*
X180562952Y-133796183D01*
X180610571Y-133748564D01*
X180705809Y-133700945D01*
X180943904Y-133700945D01*
X181039142Y-133748564D01*
X181086761Y-133796183D01*
X181134380Y-133891421D01*
X181134380Y-134129517D01*
X181086761Y-134224755D01*
X181039142Y-134272374D01*
%TO.C,R4*%
X174656453Y-130353300D02*
X174323120Y-129877110D01*
X174085024Y-130353300D02*
X174085024Y-129353300D01*
X174465977Y-129353300D01*
X174561215Y-129400920D01*
X174608834Y-129448539D01*
X174656453Y-129543777D01*
X174656453Y-129686634D01*
X174608834Y-129781872D01*
X174561215Y-129829491D01*
X174465977Y-129877110D01*
X174085024Y-129877110D01*
X175513596Y-129686634D02*
X175513596Y-130353300D01*
X175275500Y-129305681D02*
X175037405Y-130019967D01*
X175656453Y-130019967D01*
%TO.C,R3*%
X141880293Y-96123780D02*
X141546960Y-95647590D01*
X141308864Y-96123780D02*
X141308864Y-95123780D01*
X141689817Y-95123780D01*
X141785055Y-95171400D01*
X141832674Y-95219019D01*
X141880293Y-95314257D01*
X141880293Y-95457114D01*
X141832674Y-95552352D01*
X141785055Y-95599971D01*
X141689817Y-95647590D01*
X141308864Y-95647590D01*
X142213626Y-95123780D02*
X142832674Y-95123780D01*
X142499340Y-95504733D01*
X142642198Y-95504733D01*
X142737436Y-95552352D01*
X142785055Y-95599971D01*
X142832674Y-95695209D01*
X142832674Y-95933304D01*
X142785055Y-96028542D01*
X142737436Y-96076161D01*
X142642198Y-96123780D01*
X142356483Y-96123780D01*
X142261245Y-96076161D01*
X142213626Y-96028542D01*
%TO.C,R2*%
X165517060Y-156112506D02*
X165040870Y-156445840D01*
X165517060Y-156683935D02*
X164517060Y-156683935D01*
X164517060Y-156302982D01*
X164564680Y-156207744D01*
X164612299Y-156160125D01*
X164707537Y-156112506D01*
X164850394Y-156112506D01*
X164945632Y-156160125D01*
X164993251Y-156207744D01*
X165040870Y-156302982D01*
X165040870Y-156683935D01*
X164612299Y-155731554D02*
X164564680Y-155683935D01*
X164517060Y-155588697D01*
X164517060Y-155350601D01*
X164564680Y-155255363D01*
X164612299Y-155207744D01*
X164707537Y-155160125D01*
X164802775Y-155160125D01*
X164945632Y-155207744D01*
X165517060Y-155779173D01*
X165517060Y-155160125D01*
%TO.C,R1*%
X161778653Y-159451300D02*
X161445320Y-158975110D01*
X161207224Y-159451300D02*
X161207224Y-158451300D01*
X161588177Y-158451300D01*
X161683415Y-158498920D01*
X161731034Y-158546539D01*
X161778653Y-158641777D01*
X161778653Y-158784634D01*
X161731034Y-158879872D01*
X161683415Y-158927491D01*
X161588177Y-158975110D01*
X161207224Y-158975110D01*
X162731034Y-159451300D02*
X162159605Y-159451300D01*
X162445320Y-159451300D02*
X162445320Y-158451300D01*
X162350081Y-158594158D01*
X162254843Y-158689396D01*
X162159605Y-158737015D01*
%TO.C,C14*%
X180798562Y-120294957D02*
X180846181Y-120342576D01*
X180893800Y-120485433D01*
X180893800Y-120580671D01*
X180846181Y-120723528D01*
X180750943Y-120818766D01*
X180655705Y-120866385D01*
X180465229Y-120914004D01*
X180322372Y-120914004D01*
X180131896Y-120866385D01*
X180036658Y-120818766D01*
X179941420Y-120723528D01*
X179893800Y-120580671D01*
X179893800Y-120485433D01*
X179941420Y-120342576D01*
X179989039Y-120294957D01*
X180893800Y-119342576D02*
X180893800Y-119914004D01*
X180893800Y-119628290D02*
X179893800Y-119628290D01*
X180036658Y-119723528D01*
X180131896Y-119818766D01*
X180179515Y-119914004D01*
X180227134Y-118485433D02*
X180893800Y-118485433D01*
X179846181Y-118723528D02*
X180560467Y-118961623D01*
X180560467Y-118342576D01*
%TO.C,C11*%
X169043442Y-120312737D02*
X169091061Y-120360356D01*
X169138680Y-120503213D01*
X169138680Y-120598451D01*
X169091061Y-120741308D01*
X168995823Y-120836546D01*
X168900585Y-120884165D01*
X168710109Y-120931784D01*
X168567252Y-120931784D01*
X168376776Y-120884165D01*
X168281538Y-120836546D01*
X168186300Y-120741308D01*
X168138680Y-120598451D01*
X168138680Y-120503213D01*
X168186300Y-120360356D01*
X168233919Y-120312737D01*
X169138680Y-119360356D02*
X169138680Y-119931784D01*
X169138680Y-119646070D02*
X168138680Y-119646070D01*
X168281538Y-119741308D01*
X168376776Y-119836546D01*
X168424395Y-119931784D01*
X169138680Y-118407975D02*
X169138680Y-118979403D01*
X169138680Y-118693689D02*
X168138680Y-118693689D01*
X168281538Y-118788927D01*
X168376776Y-118884165D01*
X168424395Y-118979403D01*
%TO.C,C9*%
X155850682Y-119757806D02*
X155898301Y-119805425D01*
X155945920Y-119948282D01*
X155945920Y-120043520D01*
X155898301Y-120186378D01*
X155803063Y-120281616D01*
X155707825Y-120329235D01*
X155517349Y-120376854D01*
X155374492Y-120376854D01*
X155184016Y-120329235D01*
X155088778Y-120281616D01*
X154993540Y-120186378D01*
X154945920Y-120043520D01*
X154945920Y-119948282D01*
X154993540Y-119805425D01*
X155041159Y-119757806D01*
X155945920Y-119281616D02*
X155945920Y-119091140D01*
X155898301Y-118995901D01*
X155850682Y-118948282D01*
X155707825Y-118853044D01*
X155517349Y-118805425D01*
X155136397Y-118805425D01*
X155041159Y-118853044D01*
X154993540Y-118900663D01*
X154945920Y-118995901D01*
X154945920Y-119186378D01*
X154993540Y-119281616D01*
X155041159Y-119329235D01*
X155136397Y-119376854D01*
X155374492Y-119376854D01*
X155469730Y-119329235D01*
X155517349Y-119281616D01*
X155564968Y-119186378D01*
X155564968Y-118995901D01*
X155517349Y-118900663D01*
X155469730Y-118853044D01*
X155374492Y-118805425D01*
%TO.C,Q2*%
X163087321Y-122069919D02*
X162992083Y-122022300D01*
X162896845Y-121927061D01*
X162753988Y-121784204D01*
X162658750Y-121736585D01*
X162563512Y-121736585D01*
X162611131Y-121974680D02*
X162515893Y-121927061D01*
X162420655Y-121831823D01*
X162373036Y-121641347D01*
X162373036Y-121308014D01*
X162420655Y-121117538D01*
X162515893Y-121022300D01*
X162611131Y-120974680D01*
X162801607Y-120974680D01*
X162896845Y-121022300D01*
X162992083Y-121117538D01*
X163039702Y-121308014D01*
X163039702Y-121641347D01*
X162992083Y-121831823D01*
X162896845Y-121927061D01*
X162801607Y-121974680D01*
X162611131Y-121974680D01*
X163420655Y-121069919D02*
X163468274Y-121022300D01*
X163563512Y-120974680D01*
X163801607Y-120974680D01*
X163896845Y-121022300D01*
X163944464Y-121069919D01*
X163992083Y-121165157D01*
X163992083Y-121260395D01*
X163944464Y-121403252D01*
X163373036Y-121974680D01*
X163992083Y-121974680D01*
%TO.C,C8*%
X150069642Y-119836546D02*
X150117261Y-119884165D01*
X150164880Y-120027022D01*
X150164880Y-120122260D01*
X150117261Y-120265118D01*
X150022023Y-120360356D01*
X149926785Y-120407975D01*
X149736309Y-120455594D01*
X149593452Y-120455594D01*
X149402976Y-120407975D01*
X149307738Y-120360356D01*
X149212500Y-120265118D01*
X149164880Y-120122260D01*
X149164880Y-120027022D01*
X149212500Y-119884165D01*
X149260119Y-119836546D01*
X149593452Y-119265118D02*
X149545833Y-119360356D01*
X149498214Y-119407975D01*
X149402976Y-119455594D01*
X149355357Y-119455594D01*
X149260119Y-119407975D01*
X149212500Y-119360356D01*
X149164880Y-119265118D01*
X149164880Y-119074641D01*
X149212500Y-118979403D01*
X149260119Y-118931784D01*
X149355357Y-118884165D01*
X149402976Y-118884165D01*
X149498214Y-118931784D01*
X149545833Y-118979403D01*
X149593452Y-119074641D01*
X149593452Y-119265118D01*
X149641071Y-119360356D01*
X149688690Y-119407975D01*
X149783928Y-119455594D01*
X149974404Y-119455594D01*
X150069642Y-119407975D01*
X150117261Y-119360356D01*
X150164880Y-119265118D01*
X150164880Y-119074641D01*
X150117261Y-118979403D01*
X150069642Y-118931784D01*
X149974404Y-118884165D01*
X149783928Y-118884165D01*
X149688690Y-118931784D01*
X149641071Y-118979403D01*
X149593452Y-119074641D01*
%TO.C,C19*%
X122103982Y-133541057D02*
X122151601Y-133588676D01*
X122199220Y-133731533D01*
X122199220Y-133826771D01*
X122151601Y-133969628D01*
X122056363Y-134064866D01*
X121961125Y-134112485D01*
X121770649Y-134160104D01*
X121627792Y-134160104D01*
X121437316Y-134112485D01*
X121342078Y-134064866D01*
X121246840Y-133969628D01*
X121199220Y-133826771D01*
X121199220Y-133731533D01*
X121246840Y-133588676D01*
X121294459Y-133541057D01*
X122199220Y-132588676D02*
X122199220Y-133160104D01*
X122199220Y-132874390D02*
X121199220Y-132874390D01*
X121342078Y-132969628D01*
X121437316Y-133064866D01*
X121484935Y-133160104D01*
X122199220Y-132112485D02*
X122199220Y-131922009D01*
X122151601Y-131826771D01*
X122103982Y-131779152D01*
X121961125Y-131683914D01*
X121770649Y-131636295D01*
X121389697Y-131636295D01*
X121294459Y-131683914D01*
X121246840Y-131731533D01*
X121199220Y-131826771D01*
X121199220Y-132017247D01*
X121246840Y-132112485D01*
X121294459Y-132160104D01*
X121389697Y-132207723D01*
X121627792Y-132207723D01*
X121723030Y-132160104D01*
X121770649Y-132112485D01*
X121818268Y-132017247D01*
X121818268Y-131826771D01*
X121770649Y-131731533D01*
X121723030Y-131683914D01*
X121627792Y-131636295D01*
%TO.C,C13*%
X184751422Y-101180817D02*
X184799041Y-101228436D01*
X184846660Y-101371293D01*
X184846660Y-101466531D01*
X184799041Y-101609388D01*
X184703803Y-101704626D01*
X184608565Y-101752245D01*
X184418089Y-101799864D01*
X184275232Y-101799864D01*
X184084756Y-101752245D01*
X183989518Y-101704626D01*
X183894280Y-101609388D01*
X183846660Y-101466531D01*
X183846660Y-101371293D01*
X183894280Y-101228436D01*
X183941899Y-101180817D01*
X184846660Y-100228436D02*
X184846660Y-100799864D01*
X184846660Y-100514150D02*
X183846660Y-100514150D01*
X183989518Y-100609388D01*
X184084756Y-100704626D01*
X184132375Y-100799864D01*
X183846660Y-99895102D02*
X183846660Y-99276055D01*
X184227613Y-99609388D01*
X184227613Y-99466531D01*
X184275232Y-99371293D01*
X184322851Y-99323674D01*
X184418089Y-99276055D01*
X184656184Y-99276055D01*
X184751422Y-99323674D01*
X184799041Y-99371293D01*
X184846660Y-99466531D01*
X184846660Y-99752245D01*
X184799041Y-99847483D01*
X184751422Y-99895102D01*
%TO.C,Y1*%
X148721809Y-93163190D02*
X148721809Y-93639380D01*
X148388476Y-92639380D02*
X148721809Y-93163190D01*
X149055142Y-92639380D01*
X149912285Y-93639380D02*
X149340857Y-93639380D01*
X149626571Y-93639380D02*
X149626571Y-92639380D01*
X149531333Y-92782238D01*
X149436095Y-92877476D01*
X149340857Y-92925095D01*
%TO.C,U7*%
X171704095Y-69004380D02*
X171704095Y-69813904D01*
X171751714Y-69909142D01*
X171799333Y-69956761D01*
X171894571Y-70004380D01*
X172085047Y-70004380D01*
X172180285Y-69956761D01*
X172227904Y-69909142D01*
X172275523Y-69813904D01*
X172275523Y-69004380D01*
X172656476Y-69004380D02*
X173323142Y-69004380D01*
X172894571Y-70004380D01*
%TO.C,U4*%
X173892780Y-149356984D02*
X174702304Y-149356984D01*
X174797542Y-149309365D01*
X174845161Y-149261746D01*
X174892780Y-149166508D01*
X174892780Y-148976032D01*
X174845161Y-148880794D01*
X174797542Y-148833175D01*
X174702304Y-148785556D01*
X173892780Y-148785556D01*
X174226114Y-147880794D02*
X174892780Y-147880794D01*
X173845161Y-148118889D02*
X174559447Y-148356984D01*
X174559447Y-147737937D01*
%TO.C,U9*%
X147066095Y-74200380D02*
X147066095Y-75009904D01*
X147113714Y-75105142D01*
X147161333Y-75152761D01*
X147256571Y-75200380D01*
X147447047Y-75200380D01*
X147542285Y-75152761D01*
X147589904Y-75105142D01*
X147637523Y-75009904D01*
X147637523Y-74200380D01*
X148161333Y-75200380D02*
X148351809Y-75200380D01*
X148447047Y-75152761D01*
X148494666Y-75105142D01*
X148589904Y-74962285D01*
X148637523Y-74771809D01*
X148637523Y-74390857D01*
X148589904Y-74295619D01*
X148542285Y-74248000D01*
X148447047Y-74200380D01*
X148256571Y-74200380D01*
X148161333Y-74248000D01*
X148113714Y-74295619D01*
X148066095Y-74390857D01*
X148066095Y-74628952D01*
X148113714Y-74724190D01*
X148161333Y-74771809D01*
X148256571Y-74819428D01*
X148447047Y-74819428D01*
X148542285Y-74771809D01*
X148589904Y-74724190D01*
X148637523Y-74628952D01*
%TO.C,U2*%
X148336095Y-91518380D02*
X148336095Y-92327904D01*
X148383714Y-92423142D01*
X148431333Y-92470761D01*
X148526571Y-92518380D01*
X148717047Y-92518380D01*
X148812285Y-92470761D01*
X148859904Y-92423142D01*
X148907523Y-92327904D01*
X148907523Y-91518380D01*
X149336095Y-91613619D02*
X149383714Y-91566000D01*
X149478952Y-91518380D01*
X149717047Y-91518380D01*
X149812285Y-91566000D01*
X149859904Y-91613619D01*
X149907523Y-91708857D01*
X149907523Y-91804095D01*
X149859904Y-91946952D01*
X149288476Y-92518380D01*
X149907523Y-92518380D01*
%TO.C,U3*%
X126636980Y-144810384D02*
X127446504Y-144810384D01*
X127541742Y-144762765D01*
X127589361Y-144715146D01*
X127636980Y-144619908D01*
X127636980Y-144429432D01*
X127589361Y-144334194D01*
X127541742Y-144286575D01*
X127446504Y-144238956D01*
X126636980Y-144238956D01*
X126636980Y-143858003D02*
X126636980Y-143238956D01*
X127017933Y-143572289D01*
X127017933Y-143429432D01*
X127065552Y-143334194D01*
X127113171Y-143286575D01*
X127208409Y-143238956D01*
X127446504Y-143238956D01*
X127541742Y-143286575D01*
X127589361Y-143334194D01*
X127636980Y-143429432D01*
X127636980Y-143715146D01*
X127589361Y-143810384D01*
X127541742Y-143858003D01*
%TO.C,U10*%
X115093904Y-80432380D02*
X115093904Y-81241904D01*
X115141523Y-81337142D01*
X115189142Y-81384761D01*
X115284380Y-81432380D01*
X115474857Y-81432380D01*
X115570095Y-81384761D01*
X115617714Y-81337142D01*
X115665333Y-81241904D01*
X115665333Y-80432380D01*
X116665333Y-81432380D02*
X116093904Y-81432380D01*
X116379619Y-81432380D02*
X116379619Y-80432380D01*
X116284380Y-80575238D01*
X116189142Y-80670476D01*
X116093904Y-80718095D01*
X117284380Y-80432380D02*
X117379619Y-80432380D01*
X117474857Y-80480000D01*
X117522476Y-80527619D01*
X117570095Y-80622857D01*
X117617714Y-80813333D01*
X117617714Y-81051428D01*
X117570095Y-81241904D01*
X117522476Y-81337142D01*
X117474857Y-81384761D01*
X117379619Y-81432380D01*
X117284380Y-81432380D01*
X117189142Y-81384761D01*
X117141523Y-81337142D01*
X117093904Y-81241904D01*
X117046285Y-81051428D01*
X117046285Y-80813333D01*
X117093904Y-80622857D01*
X117141523Y-80527619D01*
X117189142Y-80480000D01*
X117284380Y-80432380D01*
%TO.C,Q3*%
X175012621Y-122306139D02*
X174917383Y-122258520D01*
X174822145Y-122163281D01*
X174679288Y-122020424D01*
X174584050Y-121972805D01*
X174488812Y-121972805D01*
X174536431Y-122210900D02*
X174441193Y-122163281D01*
X174345955Y-122068043D01*
X174298336Y-121877567D01*
X174298336Y-121544234D01*
X174345955Y-121353758D01*
X174441193Y-121258520D01*
X174536431Y-121210900D01*
X174726907Y-121210900D01*
X174822145Y-121258520D01*
X174917383Y-121353758D01*
X174965002Y-121544234D01*
X174965002Y-121877567D01*
X174917383Y-122068043D01*
X174822145Y-122163281D01*
X174726907Y-122210900D01*
X174536431Y-122210900D01*
X175298336Y-121210900D02*
X175917383Y-121210900D01*
X175584050Y-121591853D01*
X175726907Y-121591853D01*
X175822145Y-121639472D01*
X175869764Y-121687091D01*
X175917383Y-121782329D01*
X175917383Y-122020424D01*
X175869764Y-122115662D01*
X175822145Y-122163281D01*
X175726907Y-122210900D01*
X175441193Y-122210900D01*
X175345955Y-122163281D01*
X175298336Y-122115662D01*
%TO.C,Q1*%
X150341601Y-122227399D02*
X150246363Y-122179780D01*
X150151125Y-122084541D01*
X150008268Y-121941684D01*
X149913030Y-121894065D01*
X149817792Y-121894065D01*
X149865411Y-122132160D02*
X149770173Y-122084541D01*
X149674935Y-121989303D01*
X149627316Y-121798827D01*
X149627316Y-121465494D01*
X149674935Y-121275018D01*
X149770173Y-121179780D01*
X149865411Y-121132160D01*
X150055887Y-121132160D01*
X150151125Y-121179780D01*
X150246363Y-121275018D01*
X150293982Y-121465494D01*
X150293982Y-121798827D01*
X150246363Y-121989303D01*
X150151125Y-122084541D01*
X150055887Y-122132160D01*
X149865411Y-122132160D01*
X151246363Y-122132160D02*
X150674935Y-122132160D01*
X150960649Y-122132160D02*
X150960649Y-121132160D01*
X150865411Y-121275018D01*
X150770173Y-121370256D01*
X150674935Y-121417875D01*
%TO.C,L1*%
X92202380Y-88666666D02*
X92202380Y-89142857D01*
X91202380Y-89142857D01*
X92202380Y-87809523D02*
X92202380Y-88380952D01*
X92202380Y-88095238D02*
X91202380Y-88095238D01*
X91345238Y-88190476D01*
X91440476Y-88285714D01*
X91488095Y-88380952D01*
%TO.C,J11*%
X160734476Y-86784380D02*
X160734476Y-87498666D01*
X160686857Y-87641523D01*
X160591619Y-87736761D01*
X160448761Y-87784380D01*
X160353523Y-87784380D01*
X161734476Y-87784380D02*
X161163047Y-87784380D01*
X161448761Y-87784380D02*
X161448761Y-86784380D01*
X161353523Y-86927238D01*
X161258285Y-87022476D01*
X161163047Y-87070095D01*
X162686857Y-87784380D02*
X162115428Y-87784380D01*
X162401142Y-87784380D02*
X162401142Y-86784380D01*
X162305904Y-86927238D01*
X162210666Y-87022476D01*
X162115428Y-87070095D01*
%TO.C,D3*%
X129817904Y-66816380D02*
X129817904Y-65816380D01*
X130056000Y-65816380D01*
X130198857Y-65864000D01*
X130294095Y-65959238D01*
X130341714Y-66054476D01*
X130389333Y-66244952D01*
X130389333Y-66387809D01*
X130341714Y-66578285D01*
X130294095Y-66673523D01*
X130198857Y-66768761D01*
X130056000Y-66816380D01*
X129817904Y-66816380D01*
X130722666Y-65816380D02*
X131341714Y-65816380D01*
X131008380Y-66197333D01*
X131151238Y-66197333D01*
X131246476Y-66244952D01*
X131294095Y-66292571D01*
X131341714Y-66387809D01*
X131341714Y-66625904D01*
X131294095Y-66721142D01*
X131246476Y-66768761D01*
X131151238Y-66816380D01*
X130865523Y-66816380D01*
X130770285Y-66768761D01*
X130722666Y-66721142D01*
X125214095Y-67186380D02*
X125214095Y-66186380D01*
X125785523Y-67186380D02*
X125356952Y-66614952D01*
X125785523Y-66186380D02*
X125214095Y-66757809D01*
%TO.C,D1*%
X116863904Y-71134380D02*
X116863904Y-70134380D01*
X117102000Y-70134380D01*
X117244857Y-70182000D01*
X117340095Y-70277238D01*
X117387714Y-70372476D01*
X117435333Y-70562952D01*
X117435333Y-70705809D01*
X117387714Y-70896285D01*
X117340095Y-70991523D01*
X117244857Y-71086761D01*
X117102000Y-71134380D01*
X116863904Y-71134380D01*
X118387714Y-71134380D02*
X117816285Y-71134380D01*
X118102000Y-71134380D02*
X118102000Y-70134380D01*
X118006761Y-70277238D01*
X117911523Y-70372476D01*
X117816285Y-70420095D01*
X112260095Y-71504380D02*
X112260095Y-70504380D01*
X112831523Y-71504380D02*
X112402952Y-70932952D01*
X112831523Y-70504380D02*
X112260095Y-71075809D01*
%TO.C,D2*%
X118387904Y-76946380D02*
X118387904Y-75946380D01*
X118626000Y-75946380D01*
X118768857Y-75994000D01*
X118864095Y-76089238D01*
X118911714Y-76184476D01*
X118959333Y-76374952D01*
X118959333Y-76517809D01*
X118911714Y-76708285D01*
X118864095Y-76803523D01*
X118768857Y-76898761D01*
X118626000Y-76946380D01*
X118387904Y-76946380D01*
X119340285Y-76041619D02*
X119387904Y-75994000D01*
X119483142Y-75946380D01*
X119721238Y-75946380D01*
X119816476Y-75994000D01*
X119864095Y-76041619D01*
X119911714Y-76136857D01*
X119911714Y-76232095D01*
X119864095Y-76374952D01*
X119292666Y-76946380D01*
X119911714Y-76946380D01*
%TO.C,C18*%
X119508542Y-122573017D02*
X119556161Y-122620636D01*
X119603780Y-122763493D01*
X119603780Y-122858731D01*
X119556161Y-123001588D01*
X119460923Y-123096826D01*
X119365685Y-123144445D01*
X119175209Y-123192064D01*
X119032352Y-123192064D01*
X118841876Y-123144445D01*
X118746638Y-123096826D01*
X118651400Y-123001588D01*
X118603780Y-122858731D01*
X118603780Y-122763493D01*
X118651400Y-122620636D01*
X118699019Y-122573017D01*
X119603780Y-121620636D02*
X119603780Y-122192064D01*
X119603780Y-121906350D02*
X118603780Y-121906350D01*
X118746638Y-122001588D01*
X118841876Y-122096826D01*
X118889495Y-122192064D01*
X119032352Y-121049207D02*
X118984733Y-121144445D01*
X118937114Y-121192064D01*
X118841876Y-121239683D01*
X118794257Y-121239683D01*
X118699019Y-121192064D01*
X118651400Y-121144445D01*
X118603780Y-121049207D01*
X118603780Y-120858731D01*
X118651400Y-120763493D01*
X118699019Y-120715874D01*
X118794257Y-120668255D01*
X118841876Y-120668255D01*
X118937114Y-120715874D01*
X118984733Y-120763493D01*
X119032352Y-120858731D01*
X119032352Y-121049207D01*
X119079971Y-121144445D01*
X119127590Y-121192064D01*
X119222828Y-121239683D01*
X119413304Y-121239683D01*
X119508542Y-121192064D01*
X119556161Y-121144445D01*
X119603780Y-121049207D01*
X119603780Y-120858731D01*
X119556161Y-120763493D01*
X119508542Y-120715874D01*
X119413304Y-120668255D01*
X119222828Y-120668255D01*
X119127590Y-120715874D01*
X119079971Y-120763493D01*
X119032352Y-120858731D01*
%TO.C,C25*%
X161465342Y-78772462D02*
X161417723Y-78820081D01*
X161274866Y-78867700D01*
X161179628Y-78867700D01*
X161036771Y-78820081D01*
X160941533Y-78724843D01*
X160893914Y-78629605D01*
X160846295Y-78439129D01*
X160846295Y-78296272D01*
X160893914Y-78105796D01*
X160941533Y-78010558D01*
X161036771Y-77915320D01*
X161179628Y-77867700D01*
X161274866Y-77867700D01*
X161417723Y-77915320D01*
X161465342Y-77962939D01*
X161846295Y-77962939D02*
X161893914Y-77915320D01*
X161989152Y-77867700D01*
X162227247Y-77867700D01*
X162322485Y-77915320D01*
X162370104Y-77962939D01*
X162417723Y-78058177D01*
X162417723Y-78153415D01*
X162370104Y-78296272D01*
X161798676Y-78867700D01*
X162417723Y-78867700D01*
X163322485Y-77867700D02*
X162846295Y-77867700D01*
X162798676Y-78343891D01*
X162846295Y-78296272D01*
X162941533Y-78248653D01*
X163179628Y-78248653D01*
X163274866Y-78296272D01*
X163322485Y-78343891D01*
X163370104Y-78439129D01*
X163370104Y-78677224D01*
X163322485Y-78772462D01*
X163274866Y-78820081D01*
X163179628Y-78867700D01*
X162941533Y-78867700D01*
X162846295Y-78820081D01*
X162798676Y-78772462D01*
%TO.C,C20*%
X117609702Y-115058902D02*
X117562083Y-115106521D01*
X117419226Y-115154140D01*
X117323988Y-115154140D01*
X117181131Y-115106521D01*
X117085893Y-115011283D01*
X117038274Y-114916045D01*
X116990655Y-114725569D01*
X116990655Y-114582712D01*
X117038274Y-114392236D01*
X117085893Y-114296998D01*
X117181131Y-114201760D01*
X117323988Y-114154140D01*
X117419226Y-114154140D01*
X117562083Y-114201760D01*
X117609702Y-114249379D01*
X117990655Y-114249379D02*
X118038274Y-114201760D01*
X118133512Y-114154140D01*
X118371607Y-114154140D01*
X118466845Y-114201760D01*
X118514464Y-114249379D01*
X118562083Y-114344617D01*
X118562083Y-114439855D01*
X118514464Y-114582712D01*
X117943036Y-115154140D01*
X118562083Y-115154140D01*
X119181131Y-114154140D02*
X119276369Y-114154140D01*
X119371607Y-114201760D01*
X119419226Y-114249379D01*
X119466845Y-114344617D01*
X119514464Y-114535093D01*
X119514464Y-114773188D01*
X119466845Y-114963664D01*
X119419226Y-115058902D01*
X119371607Y-115106521D01*
X119276369Y-115154140D01*
X119181131Y-115154140D01*
X119085893Y-115106521D01*
X119038274Y-115058902D01*
X118990655Y-114963664D01*
X118943036Y-114773188D01*
X118943036Y-114535093D01*
X118990655Y-114344617D01*
X119038274Y-114249379D01*
X119085893Y-114201760D01*
X119181131Y-114154140D01*
%TO.C,C17*%
X98386342Y-137797457D02*
X98433961Y-137845076D01*
X98481580Y-137987933D01*
X98481580Y-138083171D01*
X98433961Y-138226028D01*
X98338723Y-138321266D01*
X98243485Y-138368885D01*
X98053009Y-138416504D01*
X97910152Y-138416504D01*
X97719676Y-138368885D01*
X97624438Y-138321266D01*
X97529200Y-138226028D01*
X97481580Y-138083171D01*
X97481580Y-137987933D01*
X97529200Y-137845076D01*
X97576819Y-137797457D01*
X98481580Y-136845076D02*
X98481580Y-137416504D01*
X98481580Y-137130790D02*
X97481580Y-137130790D01*
X97624438Y-137226028D01*
X97719676Y-137321266D01*
X97767295Y-137416504D01*
X97481580Y-136511742D02*
X97481580Y-135845076D01*
X98481580Y-136273647D01*
%TO.C,C16*%
X113697462Y-136260757D02*
X113745081Y-136308376D01*
X113792700Y-136451233D01*
X113792700Y-136546471D01*
X113745081Y-136689328D01*
X113649843Y-136784566D01*
X113554605Y-136832185D01*
X113364129Y-136879804D01*
X113221272Y-136879804D01*
X113030796Y-136832185D01*
X112935558Y-136784566D01*
X112840320Y-136689328D01*
X112792700Y-136546471D01*
X112792700Y-136451233D01*
X112840320Y-136308376D01*
X112887939Y-136260757D01*
X113792700Y-135308376D02*
X113792700Y-135879804D01*
X113792700Y-135594090D02*
X112792700Y-135594090D01*
X112935558Y-135689328D01*
X113030796Y-135784566D01*
X113078415Y-135879804D01*
X112792700Y-134451233D02*
X112792700Y-134641709D01*
X112840320Y-134736947D01*
X112887939Y-134784566D01*
X113030796Y-134879804D01*
X113221272Y-134927423D01*
X113602224Y-134927423D01*
X113697462Y-134879804D01*
X113745081Y-134832185D01*
X113792700Y-134736947D01*
X113792700Y-134546471D01*
X113745081Y-134451233D01*
X113697462Y-134403614D01*
X113602224Y-134355995D01*
X113364129Y-134355995D01*
X113268891Y-134403614D01*
X113221272Y-134451233D01*
X113173653Y-134546471D01*
X113173653Y-134736947D01*
X113221272Y-134832185D01*
X113268891Y-134879804D01*
X113364129Y-134927423D01*
%TO.C,C15*%
X129314022Y-132193742D02*
X129266403Y-132241361D01*
X129123546Y-132288980D01*
X129028308Y-132288980D01*
X128885451Y-132241361D01*
X128790213Y-132146123D01*
X128742594Y-132050885D01*
X128694975Y-131860409D01*
X128694975Y-131717552D01*
X128742594Y-131527076D01*
X128790213Y-131431838D01*
X128885451Y-131336600D01*
X129028308Y-131288980D01*
X129123546Y-131288980D01*
X129266403Y-131336600D01*
X129314022Y-131384219D01*
X130266403Y-132288980D02*
X129694975Y-132288980D01*
X129980689Y-132288980D02*
X129980689Y-131288980D01*
X129885451Y-131431838D01*
X129790213Y-131527076D01*
X129694975Y-131574695D01*
X131171165Y-131288980D02*
X130694975Y-131288980D01*
X130647356Y-131765171D01*
X130694975Y-131717552D01*
X130790213Y-131669933D01*
X131028308Y-131669933D01*
X131123546Y-131717552D01*
X131171165Y-131765171D01*
X131218784Y-131860409D01*
X131218784Y-132098504D01*
X131171165Y-132193742D01*
X131123546Y-132241361D01*
X131028308Y-132288980D01*
X130790213Y-132288980D01*
X130694975Y-132241361D01*
X130647356Y-132193742D01*
%TO.C,C28*%
X157891542Y-84742257D02*
X157939161Y-84789876D01*
X157986780Y-84932733D01*
X157986780Y-85027971D01*
X157939161Y-85170828D01*
X157843923Y-85266066D01*
X157748685Y-85313685D01*
X157558209Y-85361304D01*
X157415352Y-85361304D01*
X157224876Y-85313685D01*
X157129638Y-85266066D01*
X157034400Y-85170828D01*
X156986780Y-85027971D01*
X156986780Y-84932733D01*
X157034400Y-84789876D01*
X157082019Y-84742257D01*
X157082019Y-84361304D02*
X157034400Y-84313685D01*
X156986780Y-84218447D01*
X156986780Y-83980352D01*
X157034400Y-83885114D01*
X157082019Y-83837495D01*
X157177257Y-83789876D01*
X157272495Y-83789876D01*
X157415352Y-83837495D01*
X157986780Y-84408923D01*
X157986780Y-83789876D01*
X157415352Y-83218447D02*
X157367733Y-83313685D01*
X157320114Y-83361304D01*
X157224876Y-83408923D01*
X157177257Y-83408923D01*
X157082019Y-83361304D01*
X157034400Y-83313685D01*
X156986780Y-83218447D01*
X156986780Y-83027971D01*
X157034400Y-82932733D01*
X157082019Y-82885114D01*
X157177257Y-82837495D01*
X157224876Y-82837495D01*
X157320114Y-82885114D01*
X157367733Y-82932733D01*
X157415352Y-83027971D01*
X157415352Y-83218447D01*
X157462971Y-83313685D01*
X157510590Y-83361304D01*
X157605828Y-83408923D01*
X157796304Y-83408923D01*
X157891542Y-83361304D01*
X157939161Y-83313685D01*
X157986780Y-83218447D01*
X157986780Y-83027971D01*
X157939161Y-82932733D01*
X157891542Y-82885114D01*
X157796304Y-82837495D01*
X157605828Y-82837495D01*
X157510590Y-82885114D01*
X157462971Y-82932733D01*
X157415352Y-83027971D01*
%TO.C,C5*%
X141956813Y-98812182D02*
X141909194Y-98859801D01*
X141766337Y-98907420D01*
X141671099Y-98907420D01*
X141528241Y-98859801D01*
X141433003Y-98764563D01*
X141385384Y-98669325D01*
X141337765Y-98478849D01*
X141337765Y-98335992D01*
X141385384Y-98145516D01*
X141433003Y-98050278D01*
X141528241Y-97955040D01*
X141671099Y-97907420D01*
X141766337Y-97907420D01*
X141909194Y-97955040D01*
X141956813Y-98002659D01*
X142861575Y-97907420D02*
X142385384Y-97907420D01*
X142337765Y-98383611D01*
X142385384Y-98335992D01*
X142480622Y-98288373D01*
X142718718Y-98288373D01*
X142813956Y-98335992D01*
X142861575Y-98383611D01*
X142909194Y-98478849D01*
X142909194Y-98716944D01*
X142861575Y-98812182D01*
X142813956Y-98859801D01*
X142718718Y-98907420D01*
X142480622Y-98907420D01*
X142385384Y-98859801D01*
X142337765Y-98812182D01*
%TO.C,C10*%
X162972842Y-120416877D02*
X163020461Y-120464496D01*
X163068080Y-120607353D01*
X163068080Y-120702591D01*
X163020461Y-120845448D01*
X162925223Y-120940686D01*
X162829985Y-120988305D01*
X162639509Y-121035924D01*
X162496652Y-121035924D01*
X162306176Y-120988305D01*
X162210938Y-120940686D01*
X162115700Y-120845448D01*
X162068080Y-120702591D01*
X162068080Y-120607353D01*
X162115700Y-120464496D01*
X162163319Y-120416877D01*
X163068080Y-119464496D02*
X163068080Y-120035924D01*
X163068080Y-119750210D02*
X162068080Y-119750210D01*
X162210938Y-119845448D01*
X162306176Y-119940686D01*
X162353795Y-120035924D01*
X162068080Y-118845448D02*
X162068080Y-118750210D01*
X162115700Y-118654972D01*
X162163319Y-118607353D01*
X162258557Y-118559734D01*
X162449033Y-118512115D01*
X162687128Y-118512115D01*
X162877604Y-118559734D01*
X162972842Y-118607353D01*
X163020461Y-118654972D01*
X163068080Y-118750210D01*
X163068080Y-118845448D01*
X163020461Y-118940686D01*
X162972842Y-118988305D01*
X162877604Y-119035924D01*
X162687128Y-119083543D01*
X162449033Y-119083543D01*
X162258557Y-119035924D01*
X162163319Y-118988305D01*
X162115700Y-118940686D01*
X162068080Y-118845448D01*
%TO.C,C2*%
X157567333Y-91699142D02*
X157519714Y-91746761D01*
X157376857Y-91794380D01*
X157281619Y-91794380D01*
X157138761Y-91746761D01*
X157043523Y-91651523D01*
X156995904Y-91556285D01*
X156948285Y-91365809D01*
X156948285Y-91222952D01*
X156995904Y-91032476D01*
X157043523Y-90937238D01*
X157138761Y-90842000D01*
X157281619Y-90794380D01*
X157376857Y-90794380D01*
X157519714Y-90842000D01*
X157567333Y-90889619D01*
X157948285Y-90889619D02*
X157995904Y-90842000D01*
X158091142Y-90794380D01*
X158329238Y-90794380D01*
X158424476Y-90842000D01*
X158472095Y-90889619D01*
X158519714Y-90984857D01*
X158519714Y-91080095D01*
X158472095Y-91222952D01*
X157900666Y-91794380D01*
X158519714Y-91794380D01*
%TO.C,C1*%
X140549333Y-91699142D02*
X140501714Y-91746761D01*
X140358857Y-91794380D01*
X140263619Y-91794380D01*
X140120761Y-91746761D01*
X140025523Y-91651523D01*
X139977904Y-91556285D01*
X139930285Y-91365809D01*
X139930285Y-91222952D01*
X139977904Y-91032476D01*
X140025523Y-90937238D01*
X140120761Y-90842000D01*
X140263619Y-90794380D01*
X140358857Y-90794380D01*
X140501714Y-90842000D01*
X140549333Y-90889619D01*
X141501714Y-91794380D02*
X140930285Y-91794380D01*
X141216000Y-91794380D02*
X141216000Y-90794380D01*
X141120761Y-90937238D01*
X141025523Y-91032476D01*
X140930285Y-91080095D01*
%TO.C,C27*%
X108107142Y-96107142D02*
X108059523Y-96154761D01*
X107916666Y-96202380D01*
X107821428Y-96202380D01*
X107678571Y-96154761D01*
X107583333Y-96059523D01*
X107535714Y-95964285D01*
X107488095Y-95773809D01*
X107488095Y-95630952D01*
X107535714Y-95440476D01*
X107583333Y-95345238D01*
X107678571Y-95250000D01*
X107821428Y-95202380D01*
X107916666Y-95202380D01*
X108059523Y-95250000D01*
X108107142Y-95297619D01*
X108488095Y-95297619D02*
X108535714Y-95250000D01*
X108630952Y-95202380D01*
X108869047Y-95202380D01*
X108964285Y-95250000D01*
X109011904Y-95297619D01*
X109059523Y-95392857D01*
X109059523Y-95488095D01*
X109011904Y-95630952D01*
X108440476Y-96202380D01*
X109059523Y-96202380D01*
X109392857Y-95202380D02*
X110059523Y-95202380D01*
X109630952Y-96202380D01*
%TO.C,C26*%
X135727142Y-71069142D02*
X135679523Y-71116761D01*
X135536666Y-71164380D01*
X135441428Y-71164380D01*
X135298571Y-71116761D01*
X135203333Y-71021523D01*
X135155714Y-70926285D01*
X135108095Y-70735809D01*
X135108095Y-70592952D01*
X135155714Y-70402476D01*
X135203333Y-70307238D01*
X135298571Y-70212000D01*
X135441428Y-70164380D01*
X135536666Y-70164380D01*
X135679523Y-70212000D01*
X135727142Y-70259619D01*
X136108095Y-70259619D02*
X136155714Y-70212000D01*
X136250952Y-70164380D01*
X136489047Y-70164380D01*
X136584285Y-70212000D01*
X136631904Y-70259619D01*
X136679523Y-70354857D01*
X136679523Y-70450095D01*
X136631904Y-70592952D01*
X136060476Y-71164380D01*
X136679523Y-71164380D01*
X137536666Y-70164380D02*
X137346190Y-70164380D01*
X137250952Y-70212000D01*
X137203333Y-70259619D01*
X137108095Y-70402476D01*
X137060476Y-70592952D01*
X137060476Y-70973904D01*
X137108095Y-71069142D01*
X137155714Y-71116761D01*
X137250952Y-71164380D01*
X137441428Y-71164380D01*
X137536666Y-71116761D01*
X137584285Y-71069142D01*
X137631904Y-70973904D01*
X137631904Y-70735809D01*
X137584285Y-70640571D01*
X137536666Y-70592952D01*
X137441428Y-70545333D01*
X137250952Y-70545333D01*
X137155714Y-70592952D01*
X137108095Y-70640571D01*
X137060476Y-70735809D01*
%TO.C,C24*%
X122607142Y-94107142D02*
X122559523Y-94154761D01*
X122416666Y-94202380D01*
X122321428Y-94202380D01*
X122178571Y-94154761D01*
X122083333Y-94059523D01*
X122035714Y-93964285D01*
X121988095Y-93773809D01*
X121988095Y-93630952D01*
X122035714Y-93440476D01*
X122083333Y-93345238D01*
X122178571Y-93250000D01*
X122321428Y-93202380D01*
X122416666Y-93202380D01*
X122559523Y-93250000D01*
X122607142Y-93297619D01*
X122988095Y-93297619D02*
X123035714Y-93250000D01*
X123130952Y-93202380D01*
X123369047Y-93202380D01*
X123464285Y-93250000D01*
X123511904Y-93297619D01*
X123559523Y-93392857D01*
X123559523Y-93488095D01*
X123511904Y-93630952D01*
X122940476Y-94202380D01*
X123559523Y-94202380D01*
X124416666Y-93535714D02*
X124416666Y-94202380D01*
X124178571Y-93154761D02*
X123940476Y-93869047D01*
X124559523Y-93869047D01*
%TO.C,C23*%
X126337142Y-71005142D02*
X126289523Y-71052761D01*
X126146666Y-71100380D01*
X126051428Y-71100380D01*
X125908571Y-71052761D01*
X125813333Y-70957523D01*
X125765714Y-70862285D01*
X125718095Y-70671809D01*
X125718095Y-70528952D01*
X125765714Y-70338476D01*
X125813333Y-70243238D01*
X125908571Y-70148000D01*
X126051428Y-70100380D01*
X126146666Y-70100380D01*
X126289523Y-70148000D01*
X126337142Y-70195619D01*
X126718095Y-70195619D02*
X126765714Y-70148000D01*
X126860952Y-70100380D01*
X127099047Y-70100380D01*
X127194285Y-70148000D01*
X127241904Y-70195619D01*
X127289523Y-70290857D01*
X127289523Y-70386095D01*
X127241904Y-70528952D01*
X126670476Y-71100380D01*
X127289523Y-71100380D01*
X127622857Y-70100380D02*
X128241904Y-70100380D01*
X127908571Y-70481333D01*
X128051428Y-70481333D01*
X128146666Y-70528952D01*
X128194285Y-70576571D01*
X128241904Y-70671809D01*
X128241904Y-70909904D01*
X128194285Y-71005142D01*
X128146666Y-71052761D01*
X128051428Y-71100380D01*
X127765714Y-71100380D01*
X127670476Y-71052761D01*
X127622857Y-71005142D01*
%TO.C,C22*%
X105413142Y-77830857D02*
X105460761Y-77878476D01*
X105508380Y-78021333D01*
X105508380Y-78116571D01*
X105460761Y-78259428D01*
X105365523Y-78354666D01*
X105270285Y-78402285D01*
X105079809Y-78449904D01*
X104936952Y-78449904D01*
X104746476Y-78402285D01*
X104651238Y-78354666D01*
X104556000Y-78259428D01*
X104508380Y-78116571D01*
X104508380Y-78021333D01*
X104556000Y-77878476D01*
X104603619Y-77830857D01*
X104603619Y-77449904D02*
X104556000Y-77402285D01*
X104508380Y-77307047D01*
X104508380Y-77068952D01*
X104556000Y-76973714D01*
X104603619Y-76926095D01*
X104698857Y-76878476D01*
X104794095Y-76878476D01*
X104936952Y-76926095D01*
X105508380Y-77497523D01*
X105508380Y-76878476D01*
X104603619Y-76497523D02*
X104556000Y-76449904D01*
X104508380Y-76354666D01*
X104508380Y-76116571D01*
X104556000Y-76021333D01*
X104603619Y-75973714D01*
X104698857Y-75926095D01*
X104794095Y-75926095D01*
X104936952Y-75973714D01*
X105508380Y-76545142D01*
X105508380Y-75926095D01*
%TO.C,C21*%
X110121142Y-78807142D02*
X110073523Y-78854761D01*
X109930666Y-78902380D01*
X109835428Y-78902380D01*
X109692571Y-78854761D01*
X109597333Y-78759523D01*
X109549714Y-78664285D01*
X109502095Y-78473809D01*
X109502095Y-78330952D01*
X109549714Y-78140476D01*
X109597333Y-78045238D01*
X109692571Y-77950000D01*
X109835428Y-77902380D01*
X109930666Y-77902380D01*
X110073523Y-77950000D01*
X110121142Y-77997619D01*
X110502095Y-77997619D02*
X110549714Y-77950000D01*
X110644952Y-77902380D01*
X110883047Y-77902380D01*
X110978285Y-77950000D01*
X111025904Y-77997619D01*
X111073523Y-78092857D01*
X111073523Y-78188095D01*
X111025904Y-78330952D01*
X110454476Y-78902380D01*
X111073523Y-78902380D01*
X112025904Y-78902380D02*
X111454476Y-78902380D01*
X111740190Y-78902380D02*
X111740190Y-77902380D01*
X111644952Y-78045238D01*
X111549714Y-78140476D01*
X111454476Y-78188095D01*
%TO.C,C6*%
X155439822Y-102878866D02*
X155487441Y-102926485D01*
X155535060Y-103069342D01*
X155535060Y-103164580D01*
X155487441Y-103307438D01*
X155392203Y-103402676D01*
X155296965Y-103450295D01*
X155106489Y-103497914D01*
X154963632Y-103497914D01*
X154773156Y-103450295D01*
X154677918Y-103402676D01*
X154582680Y-103307438D01*
X154535060Y-103164580D01*
X154535060Y-103069342D01*
X154582680Y-102926485D01*
X154630299Y-102878866D01*
X154535060Y-102021723D02*
X154535060Y-102212200D01*
X154582680Y-102307438D01*
X154630299Y-102355057D01*
X154773156Y-102450295D01*
X154963632Y-102497914D01*
X155344584Y-102497914D01*
X155439822Y-102450295D01*
X155487441Y-102402676D01*
X155535060Y-102307438D01*
X155535060Y-102116961D01*
X155487441Y-102021723D01*
X155439822Y-101974104D01*
X155344584Y-101926485D01*
X155106489Y-101926485D01*
X155011251Y-101974104D01*
X154963632Y-102021723D01*
X154916013Y-102116961D01*
X154916013Y-102307438D01*
X154963632Y-102402676D01*
X155011251Y-102450295D01*
X155106489Y-102497914D01*
%TO.C,C7*%
X142583333Y-120607142D02*
X142535714Y-120654761D01*
X142392857Y-120702380D01*
X142297619Y-120702380D01*
X142154761Y-120654761D01*
X142059523Y-120559523D01*
X142011904Y-120464285D01*
X141964285Y-120273809D01*
X141964285Y-120130952D01*
X142011904Y-119940476D01*
X142059523Y-119845238D01*
X142154761Y-119750000D01*
X142297619Y-119702380D01*
X142392857Y-119702380D01*
X142535714Y-119750000D01*
X142583333Y-119797619D01*
X142916666Y-119702380D02*
X143583333Y-119702380D01*
X143154761Y-120702380D01*
%TO.C,C4*%
X175992622Y-138581746D02*
X176040241Y-138629365D01*
X176087860Y-138772222D01*
X176087860Y-138867460D01*
X176040241Y-139010318D01*
X175945003Y-139105556D01*
X175849765Y-139153175D01*
X175659289Y-139200794D01*
X175516432Y-139200794D01*
X175325956Y-139153175D01*
X175230718Y-139105556D01*
X175135480Y-139010318D01*
X175087860Y-138867460D01*
X175087860Y-138772222D01*
X175135480Y-138629365D01*
X175183099Y-138581746D01*
X175421194Y-137724603D02*
X176087860Y-137724603D01*
X175040241Y-137962699D02*
X175754527Y-138200794D01*
X175754527Y-137581746D01*
%TO.C,C3*%
X154235862Y-137123146D02*
X154283481Y-137170765D01*
X154331100Y-137313622D01*
X154331100Y-137408860D01*
X154283481Y-137551718D01*
X154188243Y-137646956D01*
X154093005Y-137694575D01*
X153902529Y-137742194D01*
X153759672Y-137742194D01*
X153569196Y-137694575D01*
X153473958Y-137646956D01*
X153378720Y-137551718D01*
X153331100Y-137408860D01*
X153331100Y-137313622D01*
X153378720Y-137170765D01*
X153426339Y-137123146D01*
X153331100Y-136789813D02*
X153331100Y-136170765D01*
X153712053Y-136504099D01*
X153712053Y-136361241D01*
X153759672Y-136266003D01*
X153807291Y-136218384D01*
X153902529Y-136170765D01*
X154140624Y-136170765D01*
X154235862Y-136218384D01*
X154283481Y-136266003D01*
X154331100Y-136361241D01*
X154331100Y-136646956D01*
X154283481Y-136742194D01*
X154235862Y-136789813D01*
%TD*%
M02*
