M48
; DRILL file {KiCad 5.1.8-5.1.8} date Tue Apr 12 10:05:05 2022
; FORMAT={-:-/ absolute / metric / decimal}
; #@! TF.CreationDate,2022-04-12T10:05:05+08:00
; #@! TF.GenerationSoftware,Kicad,Pcbnew,5.1.8-5.1.8
; #@! TF.FileFunction,Plated,1,2,PTH
FMAT,2
METRIC
T1C0.400
T2C0.500
T3C0.700
T4C0.750
T5C0.800
T6C0.990
T7C1.000
T8C1.300
T9C2.200
T10C2.250
%
G90
G05
T1
X109.702Y-98.624
X111.079Y-115.681
X113.589Y-102.504
X114.848Y-102.366
X115.187Y-105.015
X116.087Y-107.233
X116.678Y-103.629
X116.703Y-104.727
X119.31Y-100.055
X128.511Y-74.88
X130.38Y-75.1
X132.322Y-55.651
X141.672Y-56.593
X141.672Y-58.437
X142.013Y-59.607
X147.66Y-63.55
X149.183Y-97.932
X149.724Y-96.0
X150.79Y-114.6
T2
X100.34Y-96.999
X101.498Y-63.614
X104.299Y-99.278
X104.747Y-97.706
X104.755Y-95.513
X106.675Y-63.224
X106.99Y-109.542
X107.831Y-114.487
X109.822Y-109.4
X111.428Y-98.027
X111.631Y-74.359
X111.938Y-112.985
X114.127Y-107.6
X115.472Y-80.457
X115.497Y-68.521
X117.212Y-81.73
X118.366Y-60.513
X120.633Y-122.394
X121.419Y-90.887
X121.663Y-115.967
X122.245Y-118.718
X122.272Y-98.03
X123.095Y-84.284
X123.464Y-102.407
X124.259Y-116.088
X124.366Y-121.74
X126.079Y-84.927
X126.204Y-74.04
X126.771Y-75.596
X129.61Y-113.109
X130.006Y-63.552
X131.184Y-101.228
X131.306Y-95.815
X131.477Y-67.495
X132.58Y-115.747
X134.143Y-62.037
X135.397Y-118.002
X135.854Y-70.451
X137.774Y-89.679
X138.316Y-118.016
X140.186Y-64.046
X141.093Y-88.307
X141.993Y-106.773
X142.545Y-116.859
X142.762Y-94.048
X142.883Y-57.57
X143.536Y-64.728
X144.79Y-106.682
X145.401Y-109.305
X150.619Y-100.124
X150.651Y-103.362
X151.951Y-67.303
X153.082Y-116.164
X153.497Y-119.561
X153.559Y-101.973
X156.65Y-103.564
X157.002Y-119.895
X159.0Y-105.0
X159.415Y-108.925
X159.462Y-91.156
X162.521Y-110.199
X163.717Y-121.486
X163.835Y-95.362
X163.887Y-98.79
X165.374Y-108.247
X169.324Y-106.999
T3
X131.674Y-80.513
X157.13Y-101.252
X172.649Y-92.371
X131.983Y-84.473
X129.839Y-80.493
X115.576Y-109.473
X143.55Y-118.909
X154.875Y-117.703
X113.214Y-121.347
X172.345Y-118.795
X126.058Y-66.768
X126.072Y-69.677
X160.721Y-98.599
X118.287Y-109.489
X129.699Y-69.716
X159.91Y-101.037
X127.864Y-69.7
X127.941Y-80.493
X125.246Y-80.031
T4
X124.084Y-58.151
X124.084Y-59.421
X124.084Y-60.691
X110.171Y-58.766
X110.171Y-60.036
X110.171Y-61.306
X171.793Y-81.038
X173.063Y-81.038
X174.333Y-81.038
X103.739Y-59.551
X103.739Y-60.821
X103.739Y-62.091
X171.707Y-76.234
X172.977Y-76.234
X174.247Y-76.234
T5
X168.527Y-73.807
X168.527Y-81.427
X169.315Y-54.283
X173.115Y-54.283
X179.076Y-72.622
X179.076Y-80.242
X119.478Y-72.129
X119.478Y-77.009
T6
X178.289Y-109.695
X178.289Y-114.195
X178.181Y-96.262
X178.181Y-100.762
T7
X115.975Y-96.899
X143.368Y-85.556
X144.144Y-74.16
X149.915Y-63.561
X154.098Y-55.316
X156.266Y-62.809
X158.168Y-55.444
X158.289Y-59.491
X166.7Y-146.7
X166.7Y-140.2
X82.6Y-148.3
X102.012Y-101.143
X102.012Y-103.683
X102.012Y-106.223
X102.012Y-108.763
X86.5Y-128.8
X166.7Y-127.2
X127.433Y-98.797
X82.6Y-141.8
X111.786Y-79.278
X111.786Y-81.818
X111.786Y-84.358
X84.6Y-148.3
X125.665Y-108.043
X108.701Y-52.975
X111.241Y-52.975
X113.781Y-52.975
X116.321Y-52.975
X118.861Y-52.975
X121.401Y-52.975
X123.941Y-52.975
X126.481Y-52.975
X129.021Y-52.975
X131.561Y-52.975
X134.101Y-52.975
X136.641Y-52.975
X139.181Y-52.975
X141.721Y-52.975
X144.261Y-52.975
X146.801Y-52.975
X179.9Y-131.8
X179.9Y-125.3
X84.6Y-135.3
X86.5Y-141.8
X179.9Y-144.8
X86.5Y-135.3
X137.609Y-76.497
X84.6Y-128.8
X161.649Y-75.138
X165.649Y-75.138
X82.6Y-128.8
X112.772Y-89.375
X170.91Y-85.008
X173.45Y-85.008
X179.9Y-138.3
X107.964Y-85.179
X84.6Y-141.8
X82.6Y-135.3
X166.7Y-133.7
X149.029Y-56.354
X137.484Y-85.278
X166.647Y-65.91
X169.847Y-60.41
X169.847Y-71.41
X175.847Y-60.41
X175.847Y-71.41
X179.047Y-65.91
X86.5Y-148.3
T8
X175.799Y-108.445
X175.799Y-115.455
X175.691Y-95.012
X175.691Y-102.022
T9
X83.96Y-65.0
X83.96Y-108.0
X172.8Y-147.44
X83.96Y-71.0
X83.96Y-102.0
X172.8Y-140.94
X172.8Y-127.94
X172.8Y-134.44
T10
X84.0Y-83.54
X84.0Y-120.54
X103.186Y-84.113
X103.23Y-120.639
X84.0Y-53.04
X97.5Y-83.54
X178.209Y-120.562
X103.217Y-53.08
X97.5Y-120.54
X178.165Y-84.036
X97.5Y-53.04
X178.238Y-89.559
X103.261Y-89.606
X84.0Y-90.04
X178.194Y-53.033
X97.5Y-90.04
T0
M30
