%TF.GenerationSoftware,KiCad,Pcbnew,5.1.8-5.1.8*%
%TF.CreationDate,2022-04-12T10:04:15+08:00*%
%TF.ProjectId,lcr_6,6c63725f-362e-46b6-9963-61645f706362,rev?*%
%TF.SameCoordinates,Original*%
%TF.FileFunction,Soldermask,Bot*%
%TF.FilePolarity,Negative*%
%FSLAX46Y46*%
G04 Gerber Fmt 4.6, Leading zero omitted, Abs format (unit mm)*
G04 Created by KiCad (PCBNEW 5.1.8-5.1.8) date 2022-04-12 10:04:15*
%MOMM*%
%LPD*%
G01*
G04 APERTURE LIST*
%ADD10C,2.000000*%
%ADD11C,5.000000*%
%ADD12C,1.600000*%
%ADD13R,1.600000X1.600000*%
%ADD14R,1.700000X1.700000*%
%ADD15R,1.050000X1.500000*%
%ADD16O,1.050000X1.500000*%
%ADD17O,1.600000X1.600000*%
%ADD18O,1.700000X1.700000*%
%ADD19C,1.400000*%
%ADD20C,1.500000*%
%ADD21C,2.100000*%
%ADD22C,1.750000*%
%ADD23R,1.500000X1.050000*%
%ADD24O,1.500000X1.050000*%
G04 APERTURE END LIST*
D10*
%TO.C,REF\u002A\u002A*%
X82600000Y-128800000D03*
%TD*%
%TO.C,REF\u002A\u002A*%
X86500000Y-128800000D03*
%TD*%
%TO.C,REF\u002A\u002A*%
X84600000Y-128800000D03*
%TD*%
%TO.C,REF\u002A\u002A*%
X179900000Y-125300000D03*
%TD*%
%TO.C,REF\u002A\u002A*%
X166700000Y-127200000D03*
%TD*%
D11*
%TO.C,REF\u002A\u002A*%
X172800000Y-127940000D03*
%TD*%
D10*
%TO.C,REF\u002A\u002A*%
X84600000Y-135300000D03*
%TD*%
%TO.C,REF\u002A\u002A*%
X166700000Y-133700000D03*
%TD*%
%TO.C,REF\u002A\u002A*%
X86500000Y-135300000D03*
%TD*%
%TO.C,REF\u002A\u002A*%
X179900000Y-131800000D03*
%TD*%
%TO.C,REF\u002A\u002A*%
X82600000Y-135300000D03*
%TD*%
D11*
%TO.C,REF\u002A\u002A*%
X172800000Y-134440000D03*
%TD*%
D10*
%TO.C,REF\u002A\u002A*%
X166700000Y-140200000D03*
%TD*%
%TO.C,REF\u002A\u002A*%
X84600000Y-141800000D03*
%TD*%
%TO.C,REF\u002A\u002A*%
X179900000Y-138300000D03*
%TD*%
%TO.C,REF\u002A\u002A*%
X82600000Y-141800000D03*
%TD*%
%TO.C,REF\u002A\u002A*%
X86500000Y-141800000D03*
%TD*%
D11*
%TO.C,REF\u002A\u002A*%
X172800000Y-140940000D03*
%TD*%
D10*
%TO.C,REF\u002A\u002A*%
X166700000Y-146700000D03*
%TD*%
%TO.C,REF\u002A\u002A*%
X86500000Y-148300000D03*
%TD*%
%TO.C,REF\u002A\u002A*%
X179900000Y-144800000D03*
%TD*%
D11*
%TO.C,REF\u002A\u002A*%
X172800000Y-147440000D03*
%TD*%
D10*
%TO.C,REF\u002A\u002A*%
X84600000Y-148300000D03*
%TD*%
%TO.C,REF\u002A\u002A*%
X82600000Y-148300000D03*
%TD*%
D12*
%TO.C,C45*%
X173115000Y-54283000D03*
D13*
X169315000Y-54283000D03*
%TD*%
D14*
%TO.C,J3*%
X127433000Y-98797000D03*
%TD*%
D10*
%TO.C,TR1*%
X166647000Y-65910000D03*
X179047000Y-65910000D03*
X169847000Y-60410000D03*
X169847000Y-71410000D03*
X175847000Y-60410000D03*
X175847000Y-71410000D03*
%TD*%
D15*
%TO.C,Q2*%
X171707000Y-76234000D03*
D16*
X174247000Y-76234000D03*
X172977000Y-76234000D03*
%TD*%
D15*
%TO.C,Q1*%
X171793000Y-81038000D03*
D16*
X174333000Y-81038000D03*
X173063000Y-81038000D03*
%TD*%
D17*
%TO.C,D6*%
X179076000Y-80242000D03*
D13*
X179076000Y-72622000D03*
%TD*%
D17*
%TO.C,D5*%
X168527000Y-81427000D03*
D13*
X168527000Y-73807000D03*
%TD*%
D18*
%TO.C,BT1*%
X173450000Y-85008000D03*
D14*
X170910000Y-85008000D03*
%TD*%
%TO.C,J2*%
X125665000Y-108043000D03*
%TD*%
D19*
%TO.C,REF\u002A\u002A*%
X172345000Y-118795000D03*
%TD*%
%TO.C,REF\u002A\u002A*%
X172649000Y-92371000D03*
%TD*%
%TO.C,REF\u002A\u002A*%
X143550000Y-118909000D03*
%TD*%
%TO.C,REF\u002A\u002A*%
X154875000Y-117703000D03*
%TD*%
%TO.C,REF\u002A\u002A*%
X160721000Y-98599000D03*
%TD*%
%TO.C,REF\u002A\u002A*%
X159910000Y-101037000D03*
%TD*%
%TO.C,REF\u002A\u002A*%
X157130000Y-101252000D03*
%TD*%
%TO.C,REF\u002A\u002A*%
X113214000Y-121347000D03*
%TD*%
%TO.C,REF\u002A\u002A*%
X118287000Y-109489000D03*
%TD*%
%TO.C,REF\u002A\u002A*%
X115576000Y-109473000D03*
%TD*%
D14*
%TO.C,J1*%
X112772000Y-89375000D03*
%TD*%
D18*
%TO.C,REF\u002A\u002A*%
X102012000Y-108763000D03*
X102012000Y-106223000D03*
X102012000Y-103683000D03*
D14*
X102012000Y-101143000D03*
%TD*%
D19*
%TO.C,REF\u002A\u002A*%
X131983000Y-84473000D03*
%TD*%
%TO.C,REF\u002A\u002A*%
X131674000Y-80513000D03*
%TD*%
%TO.C,REF\u002A\u002A*%
X129839000Y-80493000D03*
%TD*%
%TO.C,REF\u002A\u002A*%
X127941000Y-80493000D03*
%TD*%
%TO.C,REF\u002A\u002A*%
X126058000Y-66768000D03*
%TD*%
%TO.C,REF\u002A\u002A*%
X127864000Y-69700000D03*
%TD*%
%TO.C,REF\u002A\u002A*%
X129699000Y-69716000D03*
%TD*%
%TO.C,REF\u002A\u002A*%
X125246000Y-80031000D03*
%TD*%
%TO.C,REF\u002A\u002A*%
X126072000Y-69677000D03*
%TD*%
D18*
%TO.C,J5*%
X111786000Y-79278000D03*
X111786000Y-81818000D03*
D14*
X111786000Y-84358000D03*
%TD*%
D11*
%TO.C,REF\u002A\u002A*%
X103230000Y-120639000D03*
%TD*%
%TO.C,REF\u002A\u002A*%
X178209000Y-120562000D03*
%TD*%
%TO.C,REF\u002A\u002A*%
X178238000Y-89559000D03*
%TD*%
%TO.C,REF\u002A\u002A*%
X103261000Y-89606000D03*
%TD*%
%TO.C,REF\u002A\u002A*%
X103186000Y-84113000D03*
%TD*%
D18*
%TO.C,DS1*%
X146801000Y-52975000D03*
X144261000Y-52975000D03*
X141721000Y-52975000D03*
X139181000Y-52975000D03*
X136641000Y-52975000D03*
X134101000Y-52975000D03*
X131561000Y-52975000D03*
X129021000Y-52975000D03*
X126481000Y-52975000D03*
X123941000Y-52975000D03*
X121401000Y-52975000D03*
X118861000Y-52975000D03*
X116321000Y-52975000D03*
X113781000Y-52975000D03*
X111241000Y-52975000D03*
D14*
X108701000Y-52975000D03*
%TD*%
D11*
%TO.C,REF\u002A\u002A*%
X83960000Y-102000000D03*
%TD*%
%TO.C,REF\u002A\u002A*%
X84000000Y-120540000D03*
%TD*%
%TO.C,REF\u002A\u002A*%
X97500000Y-120540000D03*
%TD*%
%TO.C,REF\u002A\u002A*%
X84000000Y-90040000D03*
%TD*%
%TO.C,REF\u002A\u002A*%
X83960000Y-108000000D03*
%TD*%
%TO.C,REF\u002A\u002A*%
X97500000Y-90040000D03*
%TD*%
%TO.C,REF\u002A\u002A*%
X84000000Y-83540000D03*
%TD*%
%TO.C,REF\u002A\u002A*%
X97500000Y-83540000D03*
%TD*%
%TO.C,REF\u002A\u002A*%
X97500000Y-53040000D03*
%TD*%
%TO.C,REF\u002A\u002A*%
X84000000Y-53040000D03*
%TD*%
%TO.C,REF\u002A\u002A*%
X83960000Y-71000000D03*
%TD*%
%TO.C,REF\u002A\u002A*%
X83960000Y-65000000D03*
%TD*%
%TO.C,REF\u002A\u002A*%
X178165000Y-84036000D03*
%TD*%
%TO.C,REF\u002A\u002A*%
X178194000Y-53033000D03*
%TD*%
%TO.C,REF\u002A\u002A*%
X103217000Y-53080000D03*
%TD*%
D20*
%TO.C,Y1*%
X119478000Y-77009000D03*
X119478000Y-72129000D03*
%TD*%
D21*
%TO.C,SW3*%
X175691000Y-95012000D03*
D22*
X178181000Y-96262000D03*
X178181000Y-100762000D03*
D21*
X175691000Y-102022000D03*
%TD*%
%TO.C,SW2*%
X175799000Y-108445000D03*
D22*
X178289000Y-109695000D03*
X178289000Y-114195000D03*
D21*
X175799000Y-115455000D03*
%TD*%
D23*
%TO.C,Q5*%
X124084000Y-60691000D03*
D24*
X124084000Y-58151000D03*
X124084000Y-59421000D03*
%TD*%
D23*
%TO.C,Q4*%
X110171000Y-61306000D03*
D24*
X110171000Y-58766000D03*
X110171000Y-60036000D03*
%TD*%
D23*
%TO.C,Q3*%
X103739000Y-62091000D03*
D24*
X103739000Y-59551000D03*
X103739000Y-60821000D03*
%TD*%
D10*
%TO.C,L1*%
X161649000Y-75138000D03*
X165649000Y-75138000D03*
%TD*%
D14*
%TO.C,J1*%
X107964000Y-85179000D03*
%TD*%
%TO.C,J4*%
X137609000Y-76497000D03*
%TD*%
%TO.C,J3*%
X137484000Y-85278000D03*
%TD*%
%TO.C,J2*%
X149029000Y-56354000D03*
%TD*%
M02*
