M48
; DRILL file {KiCad 5.1.8-5.1.8} date Fri Feb 25 22:11:30 2022
; FORMAT={-:-/ absolute / metric / decimal}
; #@! TF.CreationDate,2022-02-25T22:11:30+08:00
; #@! TF.GenerationSoftware,Kicad,Pcbnew,5.1.8-5.1.8
; #@! TF.FileFunction,Plated,1,2,PTH
FMAT,2
METRIC
T1C0.400
T2C0.500
T3C0.700
T4C0.750
T5C0.800
T6C0.900
T7C0.990
T8C1.000
T9C1.100
T10C1.300
T11C2.250
%
G90
G05
T1
X104.13Y-57.13
X106.36Y-56.61
X107.62Y-60.83
X109.702Y-98.624
X111.079Y-115.681
X111.26Y-68.39
X112.707Y-95.194
X113.589Y-102.504
X113.821Y-92.499
X114.81Y-84.5
X114.848Y-102.366
X115.187Y-105.015
X116.06Y-55.75
X116.087Y-107.233
X116.678Y-103.629
X116.703Y-104.727
X117.55Y-74.66
X117.9Y-85.52
X118.941Y-93.847
X119.205Y-97.07
X119.31Y-100.055
X119.8Y-59.06
X120.3Y-86.57
X121.53Y-58.92
X123.4Y-88.48
X126.83Y-61.1
X127.04Y-57.92
X127.33Y-121.46
X127.8Y-75.08
X130.38Y-75.1
X130.66Y-61.65
X131.75Y-63.35
X132.322Y-55.651
X132.53Y-73.27
X134.27Y-98.2
X134.88Y-107.85
X135.16Y-105.51
X135.27Y-121.45
X136.0Y-62.35
X136.399Y-110.42
X136.903Y-111.89
X137.06Y-60.62
X137.1Y-98.32
X138.01Y-61.54
X141.672Y-56.593
X141.672Y-58.437
X142.013Y-59.607
X146.86Y-113.37
X147.09Y-85.67
X147.66Y-63.55
X148.0Y-103.96
X148.28Y-88.24
X149.183Y-97.932
X149.56Y-110.44
X149.724Y-96.0
X150.79Y-114.6
X152.09Y-108.14
X158.29Y-88.48
X160.85Y-103.51
X161.56Y-58.9
X163.05Y-88.8
X164.9Y-58.66
X165.63Y-112.14
X165.66Y-95.18
X165.69Y-110.15
X165.81Y-118.77
X165.94Y-104.7
X166.39Y-120.48
X167.39Y-118.74
X168.21Y-97.28
X168.93Y-105.15
X169.86Y-94.92
X170.66Y-121.56
X171.02Y-101.2
X171.35Y-89.79
X173.31Y-121.56
X173.37Y-87.9
X174.25Y-111.27
X174.83Y-106.02
X174.86Y-118.5
X175.13Y-99.33
X175.13Y-104.38
T2
X99.0Y-112.0
X99.0Y-114.0
X100.34Y-96.999
X101.0Y-112.0
X101.498Y-63.614
X104.299Y-99.278
X104.747Y-97.706
X104.755Y-95.513
X105.0Y-102.0
X106.675Y-63.224
X106.99Y-109.542
X107.831Y-114.487
X109.0Y-89.0
X109.822Y-109.4
X110.0Y-119.0
X111.428Y-98.027
X111.631Y-74.359
X111.938Y-112.985
X114.0Y-118.0
X114.127Y-107.6
X115.387Y-64.826
X115.472Y-80.457
X115.497Y-68.521
X115.51Y-74.23
X116.0Y-117.0
X117.212Y-81.73
X118.2Y-69.526
X118.366Y-60.513
X120.0Y-114.0
X120.633Y-122.394
X121.419Y-90.887
X121.663Y-115.967
X122.245Y-118.718
X122.272Y-98.03
X123.0Y-108.0
X123.0Y-110.0
X123.0Y-114.0
X123.095Y-84.284
X123.464Y-102.407
X123.666Y-73.643
X124.0Y-95.0
X124.259Y-116.088
X124.366Y-121.74
X125.0Y-104.0
X126.0Y-89.0
X126.0Y-92.0
X126.0Y-112.0
X126.079Y-84.927
X126.204Y-74.04
X127.0Y-105.0
X127.0Y-115.0
X127.0Y-119.0
X128.0Y-92.0
X129.0Y-90.0
X129.03Y-118.9
X129.61Y-113.109
X130.006Y-63.552
X131.0Y-88.0
X131.0Y-98.0
X131.184Y-101.228
X131.306Y-95.815
X131.477Y-67.495
X132.58Y-115.747
X133.0Y-78.0
X134.0Y-91.0
X134.143Y-62.037
X135.0Y-80.0
X135.397Y-118.002
X135.854Y-70.451
X136.0Y-92.0
X137.774Y-89.679
X138.0Y-80.0
X138.316Y-118.016
X140.186Y-64.046
X141.0Y-79.0
X141.093Y-88.307
X141.993Y-106.773
X142.545Y-116.859
X142.762Y-94.048
X142.883Y-57.57
X143.536Y-64.728
X144.79Y-106.682
X144.956Y-109.602
X146.062Y-94.26
X147.98Y-106.67
X150.619Y-100.124
X150.651Y-103.362
X151.951Y-67.303
X153.0Y-88.0
X153.082Y-116.164
X153.497Y-119.561
X153.559Y-101.973
X156.65Y-103.564
X157.002Y-119.895
X159.0Y-105.0
X159.415Y-108.925
X159.462Y-91.156
X162.521Y-110.199
X163.0Y-59.0
X163.717Y-121.486
X163.835Y-95.362
X163.887Y-98.79
X165.0Y-91.0
X165.374Y-108.247
X168.0Y-89.0
X169.0Y-83.0
X169.0Y-85.0
X169.324Y-106.999
X172.0Y-83.0
X172.0Y-85.0
X174.0Y-68.0
X174.0Y-82.0
X179.0Y-65.0
X179.0Y-69.0
T3
X160.721Y-98.599
X154.875Y-117.703
X157.13Y-101.252
X172.345Y-118.795
X115.576Y-109.473
X172.649Y-92.371
X125.246Y-80.031
X126.058Y-66.768
X129.699Y-69.716
X127.941Y-80.493
X118.287Y-109.489
X113.214Y-121.347
X131.674Y-80.513
X127.864Y-69.7
X159.91Y-101.037
X129.839Y-80.493
X131.983Y-84.473
X126.072Y-69.677
X143.55Y-118.909
T4
X124.084Y-58.151
X124.084Y-59.421
X124.084Y-60.691
X110.171Y-58.766
X110.171Y-60.036
X110.171Y-61.306
X103.739Y-59.551
X103.739Y-60.821
X103.739Y-62.091
T5
X119.478Y-72.129
X119.478Y-77.009
T6
X179.798Y-125.104
X179.831Y-138.12
X179.812Y-144.626
X179.851Y-131.617
T7
X178.289Y-109.695
X178.289Y-114.195
X178.181Y-96.262
X178.181Y-100.762
T8
X115.975Y-96.899
X143.368Y-85.556
X149.915Y-63.561
X129.328Y-146.698
X149.029Y-56.354
X149.093Y-146.583
X129.367Y-133.689
X137.609Y-76.497
X112.772Y-89.375
X98.793Y-146.845
X149.132Y-133.574
X111.786Y-79.278
X111.786Y-81.818
X111.786Y-84.358
X159.294Y-127.194
X159.347Y-133.707
X127.433Y-98.797
X118.558Y-146.73
X98.779Y-127.323
X107.964Y-85.179
X169.652Y-59.816
X169.652Y-62.356
X108.701Y-52.975
X111.241Y-52.975
X113.781Y-52.975
X116.321Y-52.975
X118.861Y-52.975
X121.401Y-52.975
X123.941Y-52.975
X126.481Y-52.975
X129.021Y-52.975
X131.561Y-52.975
X134.101Y-52.975
X136.641Y-52.975
X139.181Y-52.975
X141.721Y-52.975
X144.261Y-52.975
X146.801Y-52.975
X108.286Y-127.28
X165.396Y-67.196
X165.396Y-69.736
X138.874Y-133.646
X98.812Y-140.339
X159.308Y-146.716
X149.079Y-127.061
X138.821Y-127.133
X137.484Y-85.278
X129.314Y-127.176
X118.544Y-127.208
X149.112Y-140.077
X108.339Y-133.793
X118.597Y-133.721
X125.665Y-108.043
X129.347Y-140.192
X108.319Y-140.296
X98.832Y-133.836
X159.327Y-140.21
X138.854Y-140.149
X102.012Y-101.143
X102.012Y-103.683
X102.012Y-106.223
X102.012Y-108.763
X138.835Y-146.655
X108.3Y-146.802
X161.649Y-75.138
X165.649Y-75.138
X118.577Y-140.224
T9
X179.201Y-57.205
X179.201Y-59.745
X105.863Y-71.13
X105.863Y-73.67
X144.144Y-77.25
X146.684Y-77.25
X105.784Y-76.953
X105.784Y-79.493
X173.204Y-61.059
X173.204Y-63.599
X102.234Y-70.859
X102.234Y-73.399
X102.263Y-77.048
X102.263Y-79.588
X169.715Y-56.06
X172.255Y-56.06
X171.434Y-52.395
X173.974Y-52.395
T10
X175.799Y-108.445
X175.799Y-115.455
X175.691Y-95.012
X175.691Y-102.022
T11
X178.238Y-89.559
X89.258Y-140.71
X178.165Y-84.036
X84.0Y-120.54
X89.239Y-147.216
X83.81Y-147.18
X97.5Y-90.04
X97.5Y-53.04
X83.829Y-140.674
X173.941Y-127.798
X89.278Y-134.207
X83.96Y-71.0
X178.194Y-53.033
X83.96Y-102.0
X173.955Y-147.32
X173.994Y-134.311
X97.5Y-120.54
X178.209Y-120.562
X103.261Y-89.606
X103.186Y-84.113
X84.0Y-90.04
X84.0Y-83.54
X84.0Y-53.04
X103.23Y-120.639
X83.849Y-134.171
X89.225Y-127.694
X173.974Y-140.814
X83.96Y-65.0
X103.217Y-53.08
X83.796Y-127.658
X83.96Y-108.0
X97.5Y-83.54
T0
M30
