%TF.GenerationSoftware,KiCad,Pcbnew,5.1.8-5.1.8*%
%TF.CreationDate,2022-02-25T22:11:04+08:00*%
%TF.ProjectId,lcr_2,6c63725f-322e-46b6-9963-61645f706362,rev?*%
%TF.SameCoordinates,Original*%
%TF.FileFunction,Paste,Top*%
%TF.FilePolarity,Positive*%
%FSLAX46Y46*%
G04 Gerber Fmt 4.6, Leading zero omitted, Abs format (unit mm)*
G04 Created by KiCad (PCBNEW 5.1.8-5.1.8) date 2022-02-25 22:11:04*
%MOMM*%
%LPD*%
G01*
G04 APERTURE LIST*
%ADD10R,1.800000X2.500000*%
%ADD11R,5.250000X4.550000*%
%ADD12R,1.100000X4.600000*%
%ADD13R,2.000000X1.500000*%
%ADD14R,2.000000X3.800000*%
%ADD15R,4.550000X5.250000*%
%ADD16R,4.600000X1.100000*%
G04 APERTURE END LIST*
D10*
%TO.C,D1*%
X95507000Y-99299000D03*
X95507000Y-103299000D03*
%TD*%
D11*
%TO.C,U13*%
X171011000Y-73278000D03*
X176561000Y-78128000D03*
X176561000Y-73278000D03*
X171011000Y-78128000D03*
D12*
X171246000Y-66553000D03*
X176326000Y-66553000D03*
%TD*%
%TO.C,U12*%
G36*
G01*
X123086000Y-72552000D02*
X122886000Y-72552000D01*
G75*
G02*
X122786000Y-72452000I0J100000D01*
G01*
X122786000Y-71177000D01*
G75*
G02*
X122886000Y-71077000I100000J0D01*
G01*
X123086000Y-71077000D01*
G75*
G02*
X123186000Y-71177000I0J-100000D01*
G01*
X123186000Y-72452000D01*
G75*
G02*
X123086000Y-72552000I-100000J0D01*
G01*
G37*
G36*
G01*
X123736000Y-72552000D02*
X123536000Y-72552000D01*
G75*
G02*
X123436000Y-72452000I0J100000D01*
G01*
X123436000Y-71177000D01*
G75*
G02*
X123536000Y-71077000I100000J0D01*
G01*
X123736000Y-71077000D01*
G75*
G02*
X123836000Y-71177000I0J-100000D01*
G01*
X123836000Y-72452000D01*
G75*
G02*
X123736000Y-72552000I-100000J0D01*
G01*
G37*
G36*
G01*
X124386000Y-72552000D02*
X124186000Y-72552000D01*
G75*
G02*
X124086000Y-72452000I0J100000D01*
G01*
X124086000Y-71177000D01*
G75*
G02*
X124186000Y-71077000I100000J0D01*
G01*
X124386000Y-71077000D01*
G75*
G02*
X124486000Y-71177000I0J-100000D01*
G01*
X124486000Y-72452000D01*
G75*
G02*
X124386000Y-72552000I-100000J0D01*
G01*
G37*
G36*
G01*
X125036000Y-72552000D02*
X124836000Y-72552000D01*
G75*
G02*
X124736000Y-72452000I0J100000D01*
G01*
X124736000Y-71177000D01*
G75*
G02*
X124836000Y-71077000I100000J0D01*
G01*
X125036000Y-71077000D01*
G75*
G02*
X125136000Y-71177000I0J-100000D01*
G01*
X125136000Y-72452000D01*
G75*
G02*
X125036000Y-72552000I-100000J0D01*
G01*
G37*
G36*
G01*
X125686000Y-72552000D02*
X125486000Y-72552000D01*
G75*
G02*
X125386000Y-72452000I0J100000D01*
G01*
X125386000Y-71177000D01*
G75*
G02*
X125486000Y-71077000I100000J0D01*
G01*
X125686000Y-71077000D01*
G75*
G02*
X125786000Y-71177000I0J-100000D01*
G01*
X125786000Y-72452000D01*
G75*
G02*
X125686000Y-72552000I-100000J0D01*
G01*
G37*
G36*
G01*
X126336000Y-72552000D02*
X126136000Y-72552000D01*
G75*
G02*
X126036000Y-72452000I0J100000D01*
G01*
X126036000Y-71177000D01*
G75*
G02*
X126136000Y-71077000I100000J0D01*
G01*
X126336000Y-71077000D01*
G75*
G02*
X126436000Y-71177000I0J-100000D01*
G01*
X126436000Y-72452000D01*
G75*
G02*
X126336000Y-72552000I-100000J0D01*
G01*
G37*
G36*
G01*
X126986000Y-72552000D02*
X126786000Y-72552000D01*
G75*
G02*
X126686000Y-72452000I0J100000D01*
G01*
X126686000Y-71177000D01*
G75*
G02*
X126786000Y-71077000I100000J0D01*
G01*
X126986000Y-71077000D01*
G75*
G02*
X127086000Y-71177000I0J-100000D01*
G01*
X127086000Y-72452000D01*
G75*
G02*
X126986000Y-72552000I-100000J0D01*
G01*
G37*
G36*
G01*
X127636000Y-72552000D02*
X127436000Y-72552000D01*
G75*
G02*
X127336000Y-72452000I0J100000D01*
G01*
X127336000Y-71177000D01*
G75*
G02*
X127436000Y-71077000I100000J0D01*
G01*
X127636000Y-71077000D01*
G75*
G02*
X127736000Y-71177000I0J-100000D01*
G01*
X127736000Y-72452000D01*
G75*
G02*
X127636000Y-72552000I-100000J0D01*
G01*
G37*
G36*
G01*
X128286000Y-72552000D02*
X128086000Y-72552000D01*
G75*
G02*
X127986000Y-72452000I0J100000D01*
G01*
X127986000Y-71177000D01*
G75*
G02*
X128086000Y-71077000I100000J0D01*
G01*
X128286000Y-71077000D01*
G75*
G02*
X128386000Y-71177000I0J-100000D01*
G01*
X128386000Y-72452000D01*
G75*
G02*
X128286000Y-72552000I-100000J0D01*
G01*
G37*
G36*
G01*
X128936000Y-72552000D02*
X128736000Y-72552000D01*
G75*
G02*
X128636000Y-72452000I0J100000D01*
G01*
X128636000Y-71177000D01*
G75*
G02*
X128736000Y-71077000I100000J0D01*
G01*
X128936000Y-71077000D01*
G75*
G02*
X129036000Y-71177000I0J-100000D01*
G01*
X129036000Y-72452000D01*
G75*
G02*
X128936000Y-72552000I-100000J0D01*
G01*
G37*
G36*
G01*
X128936000Y-78277000D02*
X128736000Y-78277000D01*
G75*
G02*
X128636000Y-78177000I0J100000D01*
G01*
X128636000Y-76902000D01*
G75*
G02*
X128736000Y-76802000I100000J0D01*
G01*
X128936000Y-76802000D01*
G75*
G02*
X129036000Y-76902000I0J-100000D01*
G01*
X129036000Y-78177000D01*
G75*
G02*
X128936000Y-78277000I-100000J0D01*
G01*
G37*
G36*
G01*
X128286000Y-78277000D02*
X128086000Y-78277000D01*
G75*
G02*
X127986000Y-78177000I0J100000D01*
G01*
X127986000Y-76902000D01*
G75*
G02*
X128086000Y-76802000I100000J0D01*
G01*
X128286000Y-76802000D01*
G75*
G02*
X128386000Y-76902000I0J-100000D01*
G01*
X128386000Y-78177000D01*
G75*
G02*
X128286000Y-78277000I-100000J0D01*
G01*
G37*
G36*
G01*
X127636000Y-78277000D02*
X127436000Y-78277000D01*
G75*
G02*
X127336000Y-78177000I0J100000D01*
G01*
X127336000Y-76902000D01*
G75*
G02*
X127436000Y-76802000I100000J0D01*
G01*
X127636000Y-76802000D01*
G75*
G02*
X127736000Y-76902000I0J-100000D01*
G01*
X127736000Y-78177000D01*
G75*
G02*
X127636000Y-78277000I-100000J0D01*
G01*
G37*
G36*
G01*
X126986000Y-78277000D02*
X126786000Y-78277000D01*
G75*
G02*
X126686000Y-78177000I0J100000D01*
G01*
X126686000Y-76902000D01*
G75*
G02*
X126786000Y-76802000I100000J0D01*
G01*
X126986000Y-76802000D01*
G75*
G02*
X127086000Y-76902000I0J-100000D01*
G01*
X127086000Y-78177000D01*
G75*
G02*
X126986000Y-78277000I-100000J0D01*
G01*
G37*
G36*
G01*
X126336000Y-78277000D02*
X126136000Y-78277000D01*
G75*
G02*
X126036000Y-78177000I0J100000D01*
G01*
X126036000Y-76902000D01*
G75*
G02*
X126136000Y-76802000I100000J0D01*
G01*
X126336000Y-76802000D01*
G75*
G02*
X126436000Y-76902000I0J-100000D01*
G01*
X126436000Y-78177000D01*
G75*
G02*
X126336000Y-78277000I-100000J0D01*
G01*
G37*
G36*
G01*
X125686000Y-78277000D02*
X125486000Y-78277000D01*
G75*
G02*
X125386000Y-78177000I0J100000D01*
G01*
X125386000Y-76902000D01*
G75*
G02*
X125486000Y-76802000I100000J0D01*
G01*
X125686000Y-76802000D01*
G75*
G02*
X125786000Y-76902000I0J-100000D01*
G01*
X125786000Y-78177000D01*
G75*
G02*
X125686000Y-78277000I-100000J0D01*
G01*
G37*
G36*
G01*
X125036000Y-78277000D02*
X124836000Y-78277000D01*
G75*
G02*
X124736000Y-78177000I0J100000D01*
G01*
X124736000Y-76902000D01*
G75*
G02*
X124836000Y-76802000I100000J0D01*
G01*
X125036000Y-76802000D01*
G75*
G02*
X125136000Y-76902000I0J-100000D01*
G01*
X125136000Y-78177000D01*
G75*
G02*
X125036000Y-78277000I-100000J0D01*
G01*
G37*
G36*
G01*
X124386000Y-78277000D02*
X124186000Y-78277000D01*
G75*
G02*
X124086000Y-78177000I0J100000D01*
G01*
X124086000Y-76902000D01*
G75*
G02*
X124186000Y-76802000I100000J0D01*
G01*
X124386000Y-76802000D01*
G75*
G02*
X124486000Y-76902000I0J-100000D01*
G01*
X124486000Y-78177000D01*
G75*
G02*
X124386000Y-78277000I-100000J0D01*
G01*
G37*
G36*
G01*
X123736000Y-78277000D02*
X123536000Y-78277000D01*
G75*
G02*
X123436000Y-78177000I0J100000D01*
G01*
X123436000Y-76902000D01*
G75*
G02*
X123536000Y-76802000I100000J0D01*
G01*
X123736000Y-76802000D01*
G75*
G02*
X123836000Y-76902000I0J-100000D01*
G01*
X123836000Y-78177000D01*
G75*
G02*
X123736000Y-78277000I-100000J0D01*
G01*
G37*
G36*
G01*
X123086000Y-78277000D02*
X122886000Y-78277000D01*
G75*
G02*
X122786000Y-78177000I0J100000D01*
G01*
X122786000Y-76902000D01*
G75*
G02*
X122886000Y-76802000I100000J0D01*
G01*
X123086000Y-76802000D01*
G75*
G02*
X123186000Y-76902000I0J-100000D01*
G01*
X123186000Y-78177000D01*
G75*
G02*
X123086000Y-78277000I-100000J0D01*
G01*
G37*
%TD*%
%TO.C,U11*%
G36*
G01*
X139190000Y-56587000D02*
X139190000Y-56387000D01*
G75*
G02*
X139290000Y-56287000I100000J0D01*
G01*
X140565000Y-56287000D01*
G75*
G02*
X140665000Y-56387000I0J-100000D01*
G01*
X140665000Y-56587000D01*
G75*
G02*
X140565000Y-56687000I-100000J0D01*
G01*
X139290000Y-56687000D01*
G75*
G02*
X139190000Y-56587000I0J100000D01*
G01*
G37*
G36*
G01*
X139190000Y-57237000D02*
X139190000Y-57037000D01*
G75*
G02*
X139290000Y-56937000I100000J0D01*
G01*
X140565000Y-56937000D01*
G75*
G02*
X140665000Y-57037000I0J-100000D01*
G01*
X140665000Y-57237000D01*
G75*
G02*
X140565000Y-57337000I-100000J0D01*
G01*
X139290000Y-57337000D01*
G75*
G02*
X139190000Y-57237000I0J100000D01*
G01*
G37*
G36*
G01*
X139190000Y-57887000D02*
X139190000Y-57687000D01*
G75*
G02*
X139290000Y-57587000I100000J0D01*
G01*
X140565000Y-57587000D01*
G75*
G02*
X140665000Y-57687000I0J-100000D01*
G01*
X140665000Y-57887000D01*
G75*
G02*
X140565000Y-57987000I-100000J0D01*
G01*
X139290000Y-57987000D01*
G75*
G02*
X139190000Y-57887000I0J100000D01*
G01*
G37*
G36*
G01*
X139190000Y-58537000D02*
X139190000Y-58337000D01*
G75*
G02*
X139290000Y-58237000I100000J0D01*
G01*
X140565000Y-58237000D01*
G75*
G02*
X140665000Y-58337000I0J-100000D01*
G01*
X140665000Y-58537000D01*
G75*
G02*
X140565000Y-58637000I-100000J0D01*
G01*
X139290000Y-58637000D01*
G75*
G02*
X139190000Y-58537000I0J100000D01*
G01*
G37*
G36*
G01*
X139190000Y-59187000D02*
X139190000Y-58987000D01*
G75*
G02*
X139290000Y-58887000I100000J0D01*
G01*
X140565000Y-58887000D01*
G75*
G02*
X140665000Y-58987000I0J-100000D01*
G01*
X140665000Y-59187000D01*
G75*
G02*
X140565000Y-59287000I-100000J0D01*
G01*
X139290000Y-59287000D01*
G75*
G02*
X139190000Y-59187000I0J100000D01*
G01*
G37*
G36*
G01*
X139190000Y-59837000D02*
X139190000Y-59637000D01*
G75*
G02*
X139290000Y-59537000I100000J0D01*
G01*
X140565000Y-59537000D01*
G75*
G02*
X140665000Y-59637000I0J-100000D01*
G01*
X140665000Y-59837000D01*
G75*
G02*
X140565000Y-59937000I-100000J0D01*
G01*
X139290000Y-59937000D01*
G75*
G02*
X139190000Y-59837000I0J100000D01*
G01*
G37*
G36*
G01*
X139190000Y-60487000D02*
X139190000Y-60287000D01*
G75*
G02*
X139290000Y-60187000I100000J0D01*
G01*
X140565000Y-60187000D01*
G75*
G02*
X140665000Y-60287000I0J-100000D01*
G01*
X140665000Y-60487000D01*
G75*
G02*
X140565000Y-60587000I-100000J0D01*
G01*
X139290000Y-60587000D01*
G75*
G02*
X139190000Y-60487000I0J100000D01*
G01*
G37*
G36*
G01*
X139190000Y-61137000D02*
X139190000Y-60937000D01*
G75*
G02*
X139290000Y-60837000I100000J0D01*
G01*
X140565000Y-60837000D01*
G75*
G02*
X140665000Y-60937000I0J-100000D01*
G01*
X140665000Y-61137000D01*
G75*
G02*
X140565000Y-61237000I-100000J0D01*
G01*
X139290000Y-61237000D01*
G75*
G02*
X139190000Y-61137000I0J100000D01*
G01*
G37*
G36*
G01*
X133465000Y-61137000D02*
X133465000Y-60937000D01*
G75*
G02*
X133565000Y-60837000I100000J0D01*
G01*
X134840000Y-60837000D01*
G75*
G02*
X134940000Y-60937000I0J-100000D01*
G01*
X134940000Y-61137000D01*
G75*
G02*
X134840000Y-61237000I-100000J0D01*
G01*
X133565000Y-61237000D01*
G75*
G02*
X133465000Y-61137000I0J100000D01*
G01*
G37*
G36*
G01*
X133465000Y-60487000D02*
X133465000Y-60287000D01*
G75*
G02*
X133565000Y-60187000I100000J0D01*
G01*
X134840000Y-60187000D01*
G75*
G02*
X134940000Y-60287000I0J-100000D01*
G01*
X134940000Y-60487000D01*
G75*
G02*
X134840000Y-60587000I-100000J0D01*
G01*
X133565000Y-60587000D01*
G75*
G02*
X133465000Y-60487000I0J100000D01*
G01*
G37*
G36*
G01*
X133465000Y-59837000D02*
X133465000Y-59637000D01*
G75*
G02*
X133565000Y-59537000I100000J0D01*
G01*
X134840000Y-59537000D01*
G75*
G02*
X134940000Y-59637000I0J-100000D01*
G01*
X134940000Y-59837000D01*
G75*
G02*
X134840000Y-59937000I-100000J0D01*
G01*
X133565000Y-59937000D01*
G75*
G02*
X133465000Y-59837000I0J100000D01*
G01*
G37*
G36*
G01*
X133465000Y-59187000D02*
X133465000Y-58987000D01*
G75*
G02*
X133565000Y-58887000I100000J0D01*
G01*
X134840000Y-58887000D01*
G75*
G02*
X134940000Y-58987000I0J-100000D01*
G01*
X134940000Y-59187000D01*
G75*
G02*
X134840000Y-59287000I-100000J0D01*
G01*
X133565000Y-59287000D01*
G75*
G02*
X133465000Y-59187000I0J100000D01*
G01*
G37*
G36*
G01*
X133465000Y-58537000D02*
X133465000Y-58337000D01*
G75*
G02*
X133565000Y-58237000I100000J0D01*
G01*
X134840000Y-58237000D01*
G75*
G02*
X134940000Y-58337000I0J-100000D01*
G01*
X134940000Y-58537000D01*
G75*
G02*
X134840000Y-58637000I-100000J0D01*
G01*
X133565000Y-58637000D01*
G75*
G02*
X133465000Y-58537000I0J100000D01*
G01*
G37*
G36*
G01*
X133465000Y-57887000D02*
X133465000Y-57687000D01*
G75*
G02*
X133565000Y-57587000I100000J0D01*
G01*
X134840000Y-57587000D01*
G75*
G02*
X134940000Y-57687000I0J-100000D01*
G01*
X134940000Y-57887000D01*
G75*
G02*
X134840000Y-57987000I-100000J0D01*
G01*
X133565000Y-57987000D01*
G75*
G02*
X133465000Y-57887000I0J100000D01*
G01*
G37*
G36*
G01*
X133465000Y-57237000D02*
X133465000Y-57037000D01*
G75*
G02*
X133565000Y-56937000I100000J0D01*
G01*
X134840000Y-56937000D01*
G75*
G02*
X134940000Y-57037000I0J-100000D01*
G01*
X134940000Y-57237000D01*
G75*
G02*
X134840000Y-57337000I-100000J0D01*
G01*
X133565000Y-57337000D01*
G75*
G02*
X133465000Y-57237000I0J100000D01*
G01*
G37*
G36*
G01*
X133465000Y-56587000D02*
X133465000Y-56387000D01*
G75*
G02*
X133565000Y-56287000I100000J0D01*
G01*
X134840000Y-56287000D01*
G75*
G02*
X134940000Y-56387000I0J-100000D01*
G01*
X134940000Y-56587000D01*
G75*
G02*
X134840000Y-56687000I-100000J0D01*
G01*
X133565000Y-56687000D01*
G75*
G02*
X133465000Y-56587000I0J100000D01*
G01*
G37*
%TD*%
%TO.C,U10*%
G36*
G01*
X159330000Y-115807000D02*
X159330000Y-116107000D01*
G75*
G02*
X159180000Y-116257000I-150000J0D01*
G01*
X157830000Y-116257000D01*
G75*
G02*
X157680000Y-116107000I0J150000D01*
G01*
X157680000Y-115807000D01*
G75*
G02*
X157830000Y-115657000I150000J0D01*
G01*
X159180000Y-115657000D01*
G75*
G02*
X159330000Y-115807000I0J-150000D01*
G01*
G37*
G36*
G01*
X159330000Y-114537000D02*
X159330000Y-114837000D01*
G75*
G02*
X159180000Y-114987000I-150000J0D01*
G01*
X157830000Y-114987000D01*
G75*
G02*
X157680000Y-114837000I0J150000D01*
G01*
X157680000Y-114537000D01*
G75*
G02*
X157830000Y-114387000I150000J0D01*
G01*
X159180000Y-114387000D01*
G75*
G02*
X159330000Y-114537000I0J-150000D01*
G01*
G37*
G36*
G01*
X159330000Y-113267000D02*
X159330000Y-113567000D01*
G75*
G02*
X159180000Y-113717000I-150000J0D01*
G01*
X157830000Y-113717000D01*
G75*
G02*
X157680000Y-113567000I0J150000D01*
G01*
X157680000Y-113267000D01*
G75*
G02*
X157830000Y-113117000I150000J0D01*
G01*
X159180000Y-113117000D01*
G75*
G02*
X159330000Y-113267000I0J-150000D01*
G01*
G37*
G36*
G01*
X159330000Y-111997000D02*
X159330000Y-112297000D01*
G75*
G02*
X159180000Y-112447000I-150000J0D01*
G01*
X157830000Y-112447000D01*
G75*
G02*
X157680000Y-112297000I0J150000D01*
G01*
X157680000Y-111997000D01*
G75*
G02*
X157830000Y-111847000I150000J0D01*
G01*
X159180000Y-111847000D01*
G75*
G02*
X159330000Y-111997000I0J-150000D01*
G01*
G37*
G36*
G01*
X164580000Y-111997000D02*
X164580000Y-112297000D01*
G75*
G02*
X164430000Y-112447000I-150000J0D01*
G01*
X163080000Y-112447000D01*
G75*
G02*
X162930000Y-112297000I0J150000D01*
G01*
X162930000Y-111997000D01*
G75*
G02*
X163080000Y-111847000I150000J0D01*
G01*
X164430000Y-111847000D01*
G75*
G02*
X164580000Y-111997000I0J-150000D01*
G01*
G37*
G36*
G01*
X164580000Y-113267000D02*
X164580000Y-113567000D01*
G75*
G02*
X164430000Y-113717000I-150000J0D01*
G01*
X163080000Y-113717000D01*
G75*
G02*
X162930000Y-113567000I0J150000D01*
G01*
X162930000Y-113267000D01*
G75*
G02*
X163080000Y-113117000I150000J0D01*
G01*
X164430000Y-113117000D01*
G75*
G02*
X164580000Y-113267000I0J-150000D01*
G01*
G37*
G36*
G01*
X164580000Y-114537000D02*
X164580000Y-114837000D01*
G75*
G02*
X164430000Y-114987000I-150000J0D01*
G01*
X163080000Y-114987000D01*
G75*
G02*
X162930000Y-114837000I0J150000D01*
G01*
X162930000Y-114537000D01*
G75*
G02*
X163080000Y-114387000I150000J0D01*
G01*
X164430000Y-114387000D01*
G75*
G02*
X164580000Y-114537000I0J-150000D01*
G01*
G37*
G36*
G01*
X164580000Y-115807000D02*
X164580000Y-116107000D01*
G75*
G02*
X164430000Y-116257000I-150000J0D01*
G01*
X163080000Y-116257000D01*
G75*
G02*
X162930000Y-116107000I0J150000D01*
G01*
X162930000Y-115807000D01*
G75*
G02*
X163080000Y-115657000I150000J0D01*
G01*
X164430000Y-115657000D01*
G75*
G02*
X164580000Y-115807000I0J-150000D01*
G01*
G37*
%TD*%
%TO.C,U9*%
G36*
G01*
X157184000Y-95019000D02*
X157184000Y-94819000D01*
G75*
G02*
X157284000Y-94719000I100000J0D01*
G01*
X158559000Y-94719000D01*
G75*
G02*
X158659000Y-94819000I0J-100000D01*
G01*
X158659000Y-95019000D01*
G75*
G02*
X158559000Y-95119000I-100000J0D01*
G01*
X157284000Y-95119000D01*
G75*
G02*
X157184000Y-95019000I0J100000D01*
G01*
G37*
G36*
G01*
X157184000Y-95669000D02*
X157184000Y-95469000D01*
G75*
G02*
X157284000Y-95369000I100000J0D01*
G01*
X158559000Y-95369000D01*
G75*
G02*
X158659000Y-95469000I0J-100000D01*
G01*
X158659000Y-95669000D01*
G75*
G02*
X158559000Y-95769000I-100000J0D01*
G01*
X157284000Y-95769000D01*
G75*
G02*
X157184000Y-95669000I0J100000D01*
G01*
G37*
G36*
G01*
X157184000Y-96319000D02*
X157184000Y-96119000D01*
G75*
G02*
X157284000Y-96019000I100000J0D01*
G01*
X158559000Y-96019000D01*
G75*
G02*
X158659000Y-96119000I0J-100000D01*
G01*
X158659000Y-96319000D01*
G75*
G02*
X158559000Y-96419000I-100000J0D01*
G01*
X157284000Y-96419000D01*
G75*
G02*
X157184000Y-96319000I0J100000D01*
G01*
G37*
G36*
G01*
X157184000Y-96969000D02*
X157184000Y-96769000D01*
G75*
G02*
X157284000Y-96669000I100000J0D01*
G01*
X158559000Y-96669000D01*
G75*
G02*
X158659000Y-96769000I0J-100000D01*
G01*
X158659000Y-96969000D01*
G75*
G02*
X158559000Y-97069000I-100000J0D01*
G01*
X157284000Y-97069000D01*
G75*
G02*
X157184000Y-96969000I0J100000D01*
G01*
G37*
G36*
G01*
X157184000Y-97619000D02*
X157184000Y-97419000D01*
G75*
G02*
X157284000Y-97319000I100000J0D01*
G01*
X158559000Y-97319000D01*
G75*
G02*
X158659000Y-97419000I0J-100000D01*
G01*
X158659000Y-97619000D01*
G75*
G02*
X158559000Y-97719000I-100000J0D01*
G01*
X157284000Y-97719000D01*
G75*
G02*
X157184000Y-97619000I0J100000D01*
G01*
G37*
G36*
G01*
X157184000Y-98269000D02*
X157184000Y-98069000D01*
G75*
G02*
X157284000Y-97969000I100000J0D01*
G01*
X158559000Y-97969000D01*
G75*
G02*
X158659000Y-98069000I0J-100000D01*
G01*
X158659000Y-98269000D01*
G75*
G02*
X158559000Y-98369000I-100000J0D01*
G01*
X157284000Y-98369000D01*
G75*
G02*
X157184000Y-98269000I0J100000D01*
G01*
G37*
G36*
G01*
X157184000Y-98919000D02*
X157184000Y-98719000D01*
G75*
G02*
X157284000Y-98619000I100000J0D01*
G01*
X158559000Y-98619000D01*
G75*
G02*
X158659000Y-98719000I0J-100000D01*
G01*
X158659000Y-98919000D01*
G75*
G02*
X158559000Y-99019000I-100000J0D01*
G01*
X157284000Y-99019000D01*
G75*
G02*
X157184000Y-98919000I0J100000D01*
G01*
G37*
G36*
G01*
X157184000Y-99569000D02*
X157184000Y-99369000D01*
G75*
G02*
X157284000Y-99269000I100000J0D01*
G01*
X158559000Y-99269000D01*
G75*
G02*
X158659000Y-99369000I0J-100000D01*
G01*
X158659000Y-99569000D01*
G75*
G02*
X158559000Y-99669000I-100000J0D01*
G01*
X157284000Y-99669000D01*
G75*
G02*
X157184000Y-99569000I0J100000D01*
G01*
G37*
G36*
G01*
X151459000Y-99569000D02*
X151459000Y-99369000D01*
G75*
G02*
X151559000Y-99269000I100000J0D01*
G01*
X152834000Y-99269000D01*
G75*
G02*
X152934000Y-99369000I0J-100000D01*
G01*
X152934000Y-99569000D01*
G75*
G02*
X152834000Y-99669000I-100000J0D01*
G01*
X151559000Y-99669000D01*
G75*
G02*
X151459000Y-99569000I0J100000D01*
G01*
G37*
G36*
G01*
X151459000Y-98919000D02*
X151459000Y-98719000D01*
G75*
G02*
X151559000Y-98619000I100000J0D01*
G01*
X152834000Y-98619000D01*
G75*
G02*
X152934000Y-98719000I0J-100000D01*
G01*
X152934000Y-98919000D01*
G75*
G02*
X152834000Y-99019000I-100000J0D01*
G01*
X151559000Y-99019000D01*
G75*
G02*
X151459000Y-98919000I0J100000D01*
G01*
G37*
G36*
G01*
X151459000Y-98269000D02*
X151459000Y-98069000D01*
G75*
G02*
X151559000Y-97969000I100000J0D01*
G01*
X152834000Y-97969000D01*
G75*
G02*
X152934000Y-98069000I0J-100000D01*
G01*
X152934000Y-98269000D01*
G75*
G02*
X152834000Y-98369000I-100000J0D01*
G01*
X151559000Y-98369000D01*
G75*
G02*
X151459000Y-98269000I0J100000D01*
G01*
G37*
G36*
G01*
X151459000Y-97619000D02*
X151459000Y-97419000D01*
G75*
G02*
X151559000Y-97319000I100000J0D01*
G01*
X152834000Y-97319000D01*
G75*
G02*
X152934000Y-97419000I0J-100000D01*
G01*
X152934000Y-97619000D01*
G75*
G02*
X152834000Y-97719000I-100000J0D01*
G01*
X151559000Y-97719000D01*
G75*
G02*
X151459000Y-97619000I0J100000D01*
G01*
G37*
G36*
G01*
X151459000Y-96969000D02*
X151459000Y-96769000D01*
G75*
G02*
X151559000Y-96669000I100000J0D01*
G01*
X152834000Y-96669000D01*
G75*
G02*
X152934000Y-96769000I0J-100000D01*
G01*
X152934000Y-96969000D01*
G75*
G02*
X152834000Y-97069000I-100000J0D01*
G01*
X151559000Y-97069000D01*
G75*
G02*
X151459000Y-96969000I0J100000D01*
G01*
G37*
G36*
G01*
X151459000Y-96319000D02*
X151459000Y-96119000D01*
G75*
G02*
X151559000Y-96019000I100000J0D01*
G01*
X152834000Y-96019000D01*
G75*
G02*
X152934000Y-96119000I0J-100000D01*
G01*
X152934000Y-96319000D01*
G75*
G02*
X152834000Y-96419000I-100000J0D01*
G01*
X151559000Y-96419000D01*
G75*
G02*
X151459000Y-96319000I0J100000D01*
G01*
G37*
G36*
G01*
X151459000Y-95669000D02*
X151459000Y-95469000D01*
G75*
G02*
X151559000Y-95369000I100000J0D01*
G01*
X152834000Y-95369000D01*
G75*
G02*
X152934000Y-95469000I0J-100000D01*
G01*
X152934000Y-95669000D01*
G75*
G02*
X152834000Y-95769000I-100000J0D01*
G01*
X151559000Y-95769000D01*
G75*
G02*
X151459000Y-95669000I0J100000D01*
G01*
G37*
G36*
G01*
X151459000Y-95019000D02*
X151459000Y-94819000D01*
G75*
G02*
X151559000Y-94719000I100000J0D01*
G01*
X152834000Y-94719000D01*
G75*
G02*
X152934000Y-94819000I0J-100000D01*
G01*
X152934000Y-95019000D01*
G75*
G02*
X152834000Y-95119000I-100000J0D01*
G01*
X151559000Y-95119000D01*
G75*
G02*
X151459000Y-95019000I0J100000D01*
G01*
G37*
%TD*%
D13*
%TO.C,U8*%
X144097000Y-74113000D03*
X144097000Y-69513000D03*
X144097000Y-71813000D03*
D14*
X137797000Y-71813000D03*
%TD*%
%TO.C,U7*%
G36*
G01*
X140475000Y-100192000D02*
X140775000Y-100192000D01*
G75*
G02*
X140925000Y-100342000I0J-150000D01*
G01*
X140925000Y-101692000D01*
G75*
G02*
X140775000Y-101842000I-150000J0D01*
G01*
X140475000Y-101842000D01*
G75*
G02*
X140325000Y-101692000I0J150000D01*
G01*
X140325000Y-100342000D01*
G75*
G02*
X140475000Y-100192000I150000J0D01*
G01*
G37*
G36*
G01*
X139205000Y-100192000D02*
X139505000Y-100192000D01*
G75*
G02*
X139655000Y-100342000I0J-150000D01*
G01*
X139655000Y-101692000D01*
G75*
G02*
X139505000Y-101842000I-150000J0D01*
G01*
X139205000Y-101842000D01*
G75*
G02*
X139055000Y-101692000I0J150000D01*
G01*
X139055000Y-100342000D01*
G75*
G02*
X139205000Y-100192000I150000J0D01*
G01*
G37*
G36*
G01*
X137935000Y-100192000D02*
X138235000Y-100192000D01*
G75*
G02*
X138385000Y-100342000I0J-150000D01*
G01*
X138385000Y-101692000D01*
G75*
G02*
X138235000Y-101842000I-150000J0D01*
G01*
X137935000Y-101842000D01*
G75*
G02*
X137785000Y-101692000I0J150000D01*
G01*
X137785000Y-100342000D01*
G75*
G02*
X137935000Y-100192000I150000J0D01*
G01*
G37*
G36*
G01*
X136665000Y-100192000D02*
X136965000Y-100192000D01*
G75*
G02*
X137115000Y-100342000I0J-150000D01*
G01*
X137115000Y-101692000D01*
G75*
G02*
X136965000Y-101842000I-150000J0D01*
G01*
X136665000Y-101842000D01*
G75*
G02*
X136515000Y-101692000I0J150000D01*
G01*
X136515000Y-100342000D01*
G75*
G02*
X136665000Y-100192000I150000J0D01*
G01*
G37*
G36*
G01*
X136665000Y-94942000D02*
X136965000Y-94942000D01*
G75*
G02*
X137115000Y-95092000I0J-150000D01*
G01*
X137115000Y-96442000D01*
G75*
G02*
X136965000Y-96592000I-150000J0D01*
G01*
X136665000Y-96592000D01*
G75*
G02*
X136515000Y-96442000I0J150000D01*
G01*
X136515000Y-95092000D01*
G75*
G02*
X136665000Y-94942000I150000J0D01*
G01*
G37*
G36*
G01*
X137935000Y-94942000D02*
X138235000Y-94942000D01*
G75*
G02*
X138385000Y-95092000I0J-150000D01*
G01*
X138385000Y-96442000D01*
G75*
G02*
X138235000Y-96592000I-150000J0D01*
G01*
X137935000Y-96592000D01*
G75*
G02*
X137785000Y-96442000I0J150000D01*
G01*
X137785000Y-95092000D01*
G75*
G02*
X137935000Y-94942000I150000J0D01*
G01*
G37*
G36*
G01*
X139205000Y-94942000D02*
X139505000Y-94942000D01*
G75*
G02*
X139655000Y-95092000I0J-150000D01*
G01*
X139655000Y-96442000D01*
G75*
G02*
X139505000Y-96592000I-150000J0D01*
G01*
X139205000Y-96592000D01*
G75*
G02*
X139055000Y-96442000I0J150000D01*
G01*
X139055000Y-95092000D01*
G75*
G02*
X139205000Y-94942000I150000J0D01*
G01*
G37*
G36*
G01*
X140475000Y-94942000D02*
X140775000Y-94942000D01*
G75*
G02*
X140925000Y-95092000I0J-150000D01*
G01*
X140925000Y-96442000D01*
G75*
G02*
X140775000Y-96592000I-150000J0D01*
G01*
X140475000Y-96592000D01*
G75*
G02*
X140325000Y-96442000I0J150000D01*
G01*
X140325000Y-95092000D01*
G75*
G02*
X140475000Y-94942000I150000J0D01*
G01*
G37*
%TD*%
D15*
%TO.C,U6*%
X158319000Y-56036000D03*
X153469000Y-61586000D03*
X158319000Y-61586000D03*
X153469000Y-56036000D03*
D16*
X165044000Y-56271000D03*
X165044000Y-61351000D03*
%TD*%
D11*
%TO.C,U5*%
X150876000Y-77325000D03*
X156426000Y-82175000D03*
X156426000Y-77325000D03*
X150876000Y-82175000D03*
D12*
X150251000Y-70600000D03*
X151951000Y-70600000D03*
X153651000Y-70600000D03*
X155351000Y-70600000D03*
X157051000Y-70600000D03*
%TD*%
%TO.C,U4*%
G36*
G01*
X138694028Y-110711348D02*
X138694028Y-110411348D01*
G75*
G02*
X138844028Y-110261348I150000J0D01*
G01*
X140194028Y-110261348D01*
G75*
G02*
X140344028Y-110411348I0J-150000D01*
G01*
X140344028Y-110711348D01*
G75*
G02*
X140194028Y-110861348I-150000J0D01*
G01*
X138844028Y-110861348D01*
G75*
G02*
X138694028Y-110711348I0J150000D01*
G01*
G37*
G36*
G01*
X138694028Y-111981348D02*
X138694028Y-111681348D01*
G75*
G02*
X138844028Y-111531348I150000J0D01*
G01*
X140194028Y-111531348D01*
G75*
G02*
X140344028Y-111681348I0J-150000D01*
G01*
X140344028Y-111981348D01*
G75*
G02*
X140194028Y-112131348I-150000J0D01*
G01*
X138844028Y-112131348D01*
G75*
G02*
X138694028Y-111981348I0J150000D01*
G01*
G37*
G36*
G01*
X138694028Y-113251348D02*
X138694028Y-112951348D01*
G75*
G02*
X138844028Y-112801348I150000J0D01*
G01*
X140194028Y-112801348D01*
G75*
G02*
X140344028Y-112951348I0J-150000D01*
G01*
X140344028Y-113251348D01*
G75*
G02*
X140194028Y-113401348I-150000J0D01*
G01*
X138844028Y-113401348D01*
G75*
G02*
X138694028Y-113251348I0J150000D01*
G01*
G37*
G36*
G01*
X138694028Y-114521348D02*
X138694028Y-114221348D01*
G75*
G02*
X138844028Y-114071348I150000J0D01*
G01*
X140194028Y-114071348D01*
G75*
G02*
X140344028Y-114221348I0J-150000D01*
G01*
X140344028Y-114521348D01*
G75*
G02*
X140194028Y-114671348I-150000J0D01*
G01*
X138844028Y-114671348D01*
G75*
G02*
X138694028Y-114521348I0J150000D01*
G01*
G37*
G36*
G01*
X133444028Y-114521348D02*
X133444028Y-114221348D01*
G75*
G02*
X133594028Y-114071348I150000J0D01*
G01*
X134944028Y-114071348D01*
G75*
G02*
X135094028Y-114221348I0J-150000D01*
G01*
X135094028Y-114521348D01*
G75*
G02*
X134944028Y-114671348I-150000J0D01*
G01*
X133594028Y-114671348D01*
G75*
G02*
X133444028Y-114521348I0J150000D01*
G01*
G37*
G36*
G01*
X133444028Y-113251348D02*
X133444028Y-112951348D01*
G75*
G02*
X133594028Y-112801348I150000J0D01*
G01*
X134944028Y-112801348D01*
G75*
G02*
X135094028Y-112951348I0J-150000D01*
G01*
X135094028Y-113251348D01*
G75*
G02*
X134944028Y-113401348I-150000J0D01*
G01*
X133594028Y-113401348D01*
G75*
G02*
X133444028Y-113251348I0J150000D01*
G01*
G37*
G36*
G01*
X133444028Y-111981348D02*
X133444028Y-111681348D01*
G75*
G02*
X133594028Y-111531348I150000J0D01*
G01*
X134944028Y-111531348D01*
G75*
G02*
X135094028Y-111681348I0J-150000D01*
G01*
X135094028Y-111981348D01*
G75*
G02*
X134944028Y-112131348I-150000J0D01*
G01*
X133594028Y-112131348D01*
G75*
G02*
X133444028Y-111981348I0J150000D01*
G01*
G37*
G36*
G01*
X133444028Y-110711348D02*
X133444028Y-110411348D01*
G75*
G02*
X133594028Y-110261348I150000J0D01*
G01*
X134944028Y-110261348D01*
G75*
G02*
X135094028Y-110411348I0J-150000D01*
G01*
X135094028Y-110711348D01*
G75*
G02*
X134944028Y-110861348I-150000J0D01*
G01*
X133594028Y-110861348D01*
G75*
G02*
X133444028Y-110711348I0J150000D01*
G01*
G37*
%TD*%
%TO.C,U3*%
G36*
G01*
X117387000Y-103079000D02*
X117387000Y-102879000D01*
G75*
G02*
X117487000Y-102779000I100000J0D01*
G01*
X118762000Y-102779000D01*
G75*
G02*
X118862000Y-102879000I0J-100000D01*
G01*
X118862000Y-103079000D01*
G75*
G02*
X118762000Y-103179000I-100000J0D01*
G01*
X117487000Y-103179000D01*
G75*
G02*
X117387000Y-103079000I0J100000D01*
G01*
G37*
G36*
G01*
X117387000Y-103729000D02*
X117387000Y-103529000D01*
G75*
G02*
X117487000Y-103429000I100000J0D01*
G01*
X118762000Y-103429000D01*
G75*
G02*
X118862000Y-103529000I0J-100000D01*
G01*
X118862000Y-103729000D01*
G75*
G02*
X118762000Y-103829000I-100000J0D01*
G01*
X117487000Y-103829000D01*
G75*
G02*
X117387000Y-103729000I0J100000D01*
G01*
G37*
G36*
G01*
X117387000Y-104379000D02*
X117387000Y-104179000D01*
G75*
G02*
X117487000Y-104079000I100000J0D01*
G01*
X118762000Y-104079000D01*
G75*
G02*
X118862000Y-104179000I0J-100000D01*
G01*
X118862000Y-104379000D01*
G75*
G02*
X118762000Y-104479000I-100000J0D01*
G01*
X117487000Y-104479000D01*
G75*
G02*
X117387000Y-104379000I0J100000D01*
G01*
G37*
G36*
G01*
X117387000Y-105029000D02*
X117387000Y-104829000D01*
G75*
G02*
X117487000Y-104729000I100000J0D01*
G01*
X118762000Y-104729000D01*
G75*
G02*
X118862000Y-104829000I0J-100000D01*
G01*
X118862000Y-105029000D01*
G75*
G02*
X118762000Y-105129000I-100000J0D01*
G01*
X117487000Y-105129000D01*
G75*
G02*
X117387000Y-105029000I0J100000D01*
G01*
G37*
G36*
G01*
X117387000Y-105679000D02*
X117387000Y-105479000D01*
G75*
G02*
X117487000Y-105379000I100000J0D01*
G01*
X118762000Y-105379000D01*
G75*
G02*
X118862000Y-105479000I0J-100000D01*
G01*
X118862000Y-105679000D01*
G75*
G02*
X118762000Y-105779000I-100000J0D01*
G01*
X117487000Y-105779000D01*
G75*
G02*
X117387000Y-105679000I0J100000D01*
G01*
G37*
G36*
G01*
X117387000Y-106329000D02*
X117387000Y-106129000D01*
G75*
G02*
X117487000Y-106029000I100000J0D01*
G01*
X118762000Y-106029000D01*
G75*
G02*
X118862000Y-106129000I0J-100000D01*
G01*
X118862000Y-106329000D01*
G75*
G02*
X118762000Y-106429000I-100000J0D01*
G01*
X117487000Y-106429000D01*
G75*
G02*
X117387000Y-106329000I0J100000D01*
G01*
G37*
G36*
G01*
X117387000Y-106979000D02*
X117387000Y-106779000D01*
G75*
G02*
X117487000Y-106679000I100000J0D01*
G01*
X118762000Y-106679000D01*
G75*
G02*
X118862000Y-106779000I0J-100000D01*
G01*
X118862000Y-106979000D01*
G75*
G02*
X118762000Y-107079000I-100000J0D01*
G01*
X117487000Y-107079000D01*
G75*
G02*
X117387000Y-106979000I0J100000D01*
G01*
G37*
G36*
G01*
X117387000Y-107629000D02*
X117387000Y-107429000D01*
G75*
G02*
X117487000Y-107329000I100000J0D01*
G01*
X118762000Y-107329000D01*
G75*
G02*
X118862000Y-107429000I0J-100000D01*
G01*
X118862000Y-107629000D01*
G75*
G02*
X118762000Y-107729000I-100000J0D01*
G01*
X117487000Y-107729000D01*
G75*
G02*
X117387000Y-107629000I0J100000D01*
G01*
G37*
G36*
G01*
X111662000Y-107629000D02*
X111662000Y-107429000D01*
G75*
G02*
X111762000Y-107329000I100000J0D01*
G01*
X113037000Y-107329000D01*
G75*
G02*
X113137000Y-107429000I0J-100000D01*
G01*
X113137000Y-107629000D01*
G75*
G02*
X113037000Y-107729000I-100000J0D01*
G01*
X111762000Y-107729000D01*
G75*
G02*
X111662000Y-107629000I0J100000D01*
G01*
G37*
G36*
G01*
X111662000Y-106979000D02*
X111662000Y-106779000D01*
G75*
G02*
X111762000Y-106679000I100000J0D01*
G01*
X113037000Y-106679000D01*
G75*
G02*
X113137000Y-106779000I0J-100000D01*
G01*
X113137000Y-106979000D01*
G75*
G02*
X113037000Y-107079000I-100000J0D01*
G01*
X111762000Y-107079000D01*
G75*
G02*
X111662000Y-106979000I0J100000D01*
G01*
G37*
G36*
G01*
X111662000Y-106329000D02*
X111662000Y-106129000D01*
G75*
G02*
X111762000Y-106029000I100000J0D01*
G01*
X113037000Y-106029000D01*
G75*
G02*
X113137000Y-106129000I0J-100000D01*
G01*
X113137000Y-106329000D01*
G75*
G02*
X113037000Y-106429000I-100000J0D01*
G01*
X111762000Y-106429000D01*
G75*
G02*
X111662000Y-106329000I0J100000D01*
G01*
G37*
G36*
G01*
X111662000Y-105679000D02*
X111662000Y-105479000D01*
G75*
G02*
X111762000Y-105379000I100000J0D01*
G01*
X113037000Y-105379000D01*
G75*
G02*
X113137000Y-105479000I0J-100000D01*
G01*
X113137000Y-105679000D01*
G75*
G02*
X113037000Y-105779000I-100000J0D01*
G01*
X111762000Y-105779000D01*
G75*
G02*
X111662000Y-105679000I0J100000D01*
G01*
G37*
G36*
G01*
X111662000Y-105029000D02*
X111662000Y-104829000D01*
G75*
G02*
X111762000Y-104729000I100000J0D01*
G01*
X113037000Y-104729000D01*
G75*
G02*
X113137000Y-104829000I0J-100000D01*
G01*
X113137000Y-105029000D01*
G75*
G02*
X113037000Y-105129000I-100000J0D01*
G01*
X111762000Y-105129000D01*
G75*
G02*
X111662000Y-105029000I0J100000D01*
G01*
G37*
G36*
G01*
X111662000Y-104379000D02*
X111662000Y-104179000D01*
G75*
G02*
X111762000Y-104079000I100000J0D01*
G01*
X113037000Y-104079000D01*
G75*
G02*
X113137000Y-104179000I0J-100000D01*
G01*
X113137000Y-104379000D01*
G75*
G02*
X113037000Y-104479000I-100000J0D01*
G01*
X111762000Y-104479000D01*
G75*
G02*
X111662000Y-104379000I0J100000D01*
G01*
G37*
G36*
G01*
X111662000Y-103729000D02*
X111662000Y-103529000D01*
G75*
G02*
X111762000Y-103429000I100000J0D01*
G01*
X113037000Y-103429000D01*
G75*
G02*
X113137000Y-103529000I0J-100000D01*
G01*
X113137000Y-103729000D01*
G75*
G02*
X113037000Y-103829000I-100000J0D01*
G01*
X111762000Y-103829000D01*
G75*
G02*
X111662000Y-103729000I0J100000D01*
G01*
G37*
G36*
G01*
X111662000Y-103079000D02*
X111662000Y-102879000D01*
G75*
G02*
X111762000Y-102779000I100000J0D01*
G01*
X113037000Y-102779000D01*
G75*
G02*
X113137000Y-102879000I0J-100000D01*
G01*
X113137000Y-103079000D01*
G75*
G02*
X113037000Y-103179000I-100000J0D01*
G01*
X111762000Y-103179000D01*
G75*
G02*
X111662000Y-103079000I0J100000D01*
G01*
G37*
%TD*%
%TO.C,U2*%
G36*
G01*
X117361000Y-118945000D02*
X117561000Y-118945000D01*
G75*
G02*
X117661000Y-119045000I0J-100000D01*
G01*
X117661000Y-120320000D01*
G75*
G02*
X117561000Y-120420000I-100000J0D01*
G01*
X117361000Y-120420000D01*
G75*
G02*
X117261000Y-120320000I0J100000D01*
G01*
X117261000Y-119045000D01*
G75*
G02*
X117361000Y-118945000I100000J0D01*
G01*
G37*
G36*
G01*
X116711000Y-118945000D02*
X116911000Y-118945000D01*
G75*
G02*
X117011000Y-119045000I0J-100000D01*
G01*
X117011000Y-120320000D01*
G75*
G02*
X116911000Y-120420000I-100000J0D01*
G01*
X116711000Y-120420000D01*
G75*
G02*
X116611000Y-120320000I0J100000D01*
G01*
X116611000Y-119045000D01*
G75*
G02*
X116711000Y-118945000I100000J0D01*
G01*
G37*
G36*
G01*
X116061000Y-118945000D02*
X116261000Y-118945000D01*
G75*
G02*
X116361000Y-119045000I0J-100000D01*
G01*
X116361000Y-120320000D01*
G75*
G02*
X116261000Y-120420000I-100000J0D01*
G01*
X116061000Y-120420000D01*
G75*
G02*
X115961000Y-120320000I0J100000D01*
G01*
X115961000Y-119045000D01*
G75*
G02*
X116061000Y-118945000I100000J0D01*
G01*
G37*
G36*
G01*
X115411000Y-118945000D02*
X115611000Y-118945000D01*
G75*
G02*
X115711000Y-119045000I0J-100000D01*
G01*
X115711000Y-120320000D01*
G75*
G02*
X115611000Y-120420000I-100000J0D01*
G01*
X115411000Y-120420000D01*
G75*
G02*
X115311000Y-120320000I0J100000D01*
G01*
X115311000Y-119045000D01*
G75*
G02*
X115411000Y-118945000I100000J0D01*
G01*
G37*
G36*
G01*
X114761000Y-118945000D02*
X114961000Y-118945000D01*
G75*
G02*
X115061000Y-119045000I0J-100000D01*
G01*
X115061000Y-120320000D01*
G75*
G02*
X114961000Y-120420000I-100000J0D01*
G01*
X114761000Y-120420000D01*
G75*
G02*
X114661000Y-120320000I0J100000D01*
G01*
X114661000Y-119045000D01*
G75*
G02*
X114761000Y-118945000I100000J0D01*
G01*
G37*
G36*
G01*
X114111000Y-118945000D02*
X114311000Y-118945000D01*
G75*
G02*
X114411000Y-119045000I0J-100000D01*
G01*
X114411000Y-120320000D01*
G75*
G02*
X114311000Y-120420000I-100000J0D01*
G01*
X114111000Y-120420000D01*
G75*
G02*
X114011000Y-120320000I0J100000D01*
G01*
X114011000Y-119045000D01*
G75*
G02*
X114111000Y-118945000I100000J0D01*
G01*
G37*
G36*
G01*
X113461000Y-118945000D02*
X113661000Y-118945000D01*
G75*
G02*
X113761000Y-119045000I0J-100000D01*
G01*
X113761000Y-120320000D01*
G75*
G02*
X113661000Y-120420000I-100000J0D01*
G01*
X113461000Y-120420000D01*
G75*
G02*
X113361000Y-120320000I0J100000D01*
G01*
X113361000Y-119045000D01*
G75*
G02*
X113461000Y-118945000I100000J0D01*
G01*
G37*
G36*
G01*
X112811000Y-118945000D02*
X113011000Y-118945000D01*
G75*
G02*
X113111000Y-119045000I0J-100000D01*
G01*
X113111000Y-120320000D01*
G75*
G02*
X113011000Y-120420000I-100000J0D01*
G01*
X112811000Y-120420000D01*
G75*
G02*
X112711000Y-120320000I0J100000D01*
G01*
X112711000Y-119045000D01*
G75*
G02*
X112811000Y-118945000I100000J0D01*
G01*
G37*
G36*
G01*
X112811000Y-113220000D02*
X113011000Y-113220000D01*
G75*
G02*
X113111000Y-113320000I0J-100000D01*
G01*
X113111000Y-114595000D01*
G75*
G02*
X113011000Y-114695000I-100000J0D01*
G01*
X112811000Y-114695000D01*
G75*
G02*
X112711000Y-114595000I0J100000D01*
G01*
X112711000Y-113320000D01*
G75*
G02*
X112811000Y-113220000I100000J0D01*
G01*
G37*
G36*
G01*
X113461000Y-113220000D02*
X113661000Y-113220000D01*
G75*
G02*
X113761000Y-113320000I0J-100000D01*
G01*
X113761000Y-114595000D01*
G75*
G02*
X113661000Y-114695000I-100000J0D01*
G01*
X113461000Y-114695000D01*
G75*
G02*
X113361000Y-114595000I0J100000D01*
G01*
X113361000Y-113320000D01*
G75*
G02*
X113461000Y-113220000I100000J0D01*
G01*
G37*
G36*
G01*
X114111000Y-113220000D02*
X114311000Y-113220000D01*
G75*
G02*
X114411000Y-113320000I0J-100000D01*
G01*
X114411000Y-114595000D01*
G75*
G02*
X114311000Y-114695000I-100000J0D01*
G01*
X114111000Y-114695000D01*
G75*
G02*
X114011000Y-114595000I0J100000D01*
G01*
X114011000Y-113320000D01*
G75*
G02*
X114111000Y-113220000I100000J0D01*
G01*
G37*
G36*
G01*
X114761000Y-113220000D02*
X114961000Y-113220000D01*
G75*
G02*
X115061000Y-113320000I0J-100000D01*
G01*
X115061000Y-114595000D01*
G75*
G02*
X114961000Y-114695000I-100000J0D01*
G01*
X114761000Y-114695000D01*
G75*
G02*
X114661000Y-114595000I0J100000D01*
G01*
X114661000Y-113320000D01*
G75*
G02*
X114761000Y-113220000I100000J0D01*
G01*
G37*
G36*
G01*
X115411000Y-113220000D02*
X115611000Y-113220000D01*
G75*
G02*
X115711000Y-113320000I0J-100000D01*
G01*
X115711000Y-114595000D01*
G75*
G02*
X115611000Y-114695000I-100000J0D01*
G01*
X115411000Y-114695000D01*
G75*
G02*
X115311000Y-114595000I0J100000D01*
G01*
X115311000Y-113320000D01*
G75*
G02*
X115411000Y-113220000I100000J0D01*
G01*
G37*
G36*
G01*
X116061000Y-113220000D02*
X116261000Y-113220000D01*
G75*
G02*
X116361000Y-113320000I0J-100000D01*
G01*
X116361000Y-114595000D01*
G75*
G02*
X116261000Y-114695000I-100000J0D01*
G01*
X116061000Y-114695000D01*
G75*
G02*
X115961000Y-114595000I0J100000D01*
G01*
X115961000Y-113320000D01*
G75*
G02*
X116061000Y-113220000I100000J0D01*
G01*
G37*
G36*
G01*
X116711000Y-113220000D02*
X116911000Y-113220000D01*
G75*
G02*
X117011000Y-113320000I0J-100000D01*
G01*
X117011000Y-114595000D01*
G75*
G02*
X116911000Y-114695000I-100000J0D01*
G01*
X116711000Y-114695000D01*
G75*
G02*
X116611000Y-114595000I0J100000D01*
G01*
X116611000Y-113320000D01*
G75*
G02*
X116711000Y-113220000I100000J0D01*
G01*
G37*
G36*
G01*
X117361000Y-113220000D02*
X117561000Y-113220000D01*
G75*
G02*
X117661000Y-113320000I0J-100000D01*
G01*
X117661000Y-114595000D01*
G75*
G02*
X117561000Y-114695000I-100000J0D01*
G01*
X117361000Y-114695000D01*
G75*
G02*
X117261000Y-114595000I0J100000D01*
G01*
X117261000Y-113320000D01*
G75*
G02*
X117361000Y-113220000I100000J0D01*
G01*
G37*
%TD*%
%TO.C,U1*%
G36*
G01*
X114921000Y-91950000D02*
X114921000Y-91650000D01*
G75*
G02*
X115071000Y-91500000I150000J0D01*
G01*
X116421000Y-91500000D01*
G75*
G02*
X116571000Y-91650000I0J-150000D01*
G01*
X116571000Y-91950000D01*
G75*
G02*
X116421000Y-92100000I-150000J0D01*
G01*
X115071000Y-92100000D01*
G75*
G02*
X114921000Y-91950000I0J150000D01*
G01*
G37*
G36*
G01*
X114921000Y-93220000D02*
X114921000Y-92920000D01*
G75*
G02*
X115071000Y-92770000I150000J0D01*
G01*
X116421000Y-92770000D01*
G75*
G02*
X116571000Y-92920000I0J-150000D01*
G01*
X116571000Y-93220000D01*
G75*
G02*
X116421000Y-93370000I-150000J0D01*
G01*
X115071000Y-93370000D01*
G75*
G02*
X114921000Y-93220000I0J150000D01*
G01*
G37*
G36*
G01*
X114921000Y-94490000D02*
X114921000Y-94190000D01*
G75*
G02*
X115071000Y-94040000I150000J0D01*
G01*
X116421000Y-94040000D01*
G75*
G02*
X116571000Y-94190000I0J-150000D01*
G01*
X116571000Y-94490000D01*
G75*
G02*
X116421000Y-94640000I-150000J0D01*
G01*
X115071000Y-94640000D01*
G75*
G02*
X114921000Y-94490000I0J150000D01*
G01*
G37*
G36*
G01*
X114921000Y-95760000D02*
X114921000Y-95460000D01*
G75*
G02*
X115071000Y-95310000I150000J0D01*
G01*
X116421000Y-95310000D01*
G75*
G02*
X116571000Y-95460000I0J-150000D01*
G01*
X116571000Y-95760000D01*
G75*
G02*
X116421000Y-95910000I-150000J0D01*
G01*
X115071000Y-95910000D01*
G75*
G02*
X114921000Y-95760000I0J150000D01*
G01*
G37*
G36*
G01*
X109671000Y-95760000D02*
X109671000Y-95460000D01*
G75*
G02*
X109821000Y-95310000I150000J0D01*
G01*
X111171000Y-95310000D01*
G75*
G02*
X111321000Y-95460000I0J-150000D01*
G01*
X111321000Y-95760000D01*
G75*
G02*
X111171000Y-95910000I-150000J0D01*
G01*
X109821000Y-95910000D01*
G75*
G02*
X109671000Y-95760000I0J150000D01*
G01*
G37*
G36*
G01*
X109671000Y-94490000D02*
X109671000Y-94190000D01*
G75*
G02*
X109821000Y-94040000I150000J0D01*
G01*
X111171000Y-94040000D01*
G75*
G02*
X111321000Y-94190000I0J-150000D01*
G01*
X111321000Y-94490000D01*
G75*
G02*
X111171000Y-94640000I-150000J0D01*
G01*
X109821000Y-94640000D01*
G75*
G02*
X109671000Y-94490000I0J150000D01*
G01*
G37*
G36*
G01*
X109671000Y-93220000D02*
X109671000Y-92920000D01*
G75*
G02*
X109821000Y-92770000I150000J0D01*
G01*
X111171000Y-92770000D01*
G75*
G02*
X111321000Y-92920000I0J-150000D01*
G01*
X111321000Y-93220000D01*
G75*
G02*
X111171000Y-93370000I-150000J0D01*
G01*
X109821000Y-93370000D01*
G75*
G02*
X109671000Y-93220000I0J150000D01*
G01*
G37*
G36*
G01*
X109671000Y-91950000D02*
X109671000Y-91650000D01*
G75*
G02*
X109821000Y-91500000I150000J0D01*
G01*
X111171000Y-91500000D01*
G75*
G02*
X111321000Y-91650000I0J-150000D01*
G01*
X111321000Y-91950000D01*
G75*
G02*
X111171000Y-92100000I-150000J0D01*
G01*
X109821000Y-92100000D01*
G75*
G02*
X109671000Y-91950000I0J150000D01*
G01*
G37*
%TD*%
%TO.C,R57*%
G36*
G01*
X99553001Y-107010000D02*
X98652999Y-107010000D01*
G75*
G02*
X98403000Y-106760001I0J249999D01*
G01*
X98403000Y-106059999D01*
G75*
G02*
X98652999Y-105810000I249999J0D01*
G01*
X99553001Y-105810000D01*
G75*
G02*
X99803000Y-106059999I0J-249999D01*
G01*
X99803000Y-106760001D01*
G75*
G02*
X99553001Y-107010000I-249999J0D01*
G01*
G37*
G36*
G01*
X99553001Y-109010000D02*
X98652999Y-109010000D01*
G75*
G02*
X98403000Y-108760001I0J249999D01*
G01*
X98403000Y-108059999D01*
G75*
G02*
X98652999Y-107810000I249999J0D01*
G01*
X99553001Y-107810000D01*
G75*
G02*
X99803000Y-108059999I0J-249999D01*
G01*
X99803000Y-108760001D01*
G75*
G02*
X99553001Y-109010000I-249999J0D01*
G01*
G37*
%TD*%
%TO.C,R56*%
G36*
G01*
X98709999Y-102813000D02*
X99610001Y-102813000D01*
G75*
G02*
X99860000Y-103062999I0J-249999D01*
G01*
X99860000Y-103763001D01*
G75*
G02*
X99610001Y-104013000I-249999J0D01*
G01*
X98709999Y-104013000D01*
G75*
G02*
X98460000Y-103763001I0J249999D01*
G01*
X98460000Y-103062999D01*
G75*
G02*
X98709999Y-102813000I249999J0D01*
G01*
G37*
G36*
G01*
X98709999Y-100813000D02*
X99610001Y-100813000D01*
G75*
G02*
X99860000Y-101062999I0J-249999D01*
G01*
X99860000Y-101763001D01*
G75*
G02*
X99610001Y-102013000I-249999J0D01*
G01*
X98709999Y-102013000D01*
G75*
G02*
X98460000Y-101763001I0J249999D01*
G01*
X98460000Y-101062999D01*
G75*
G02*
X98709999Y-100813000I249999J0D01*
G01*
G37*
%TD*%
%TO.C,R55*%
G36*
G01*
X169004000Y-108774001D02*
X169004000Y-107873999D01*
G75*
G02*
X169253999Y-107624000I249999J0D01*
G01*
X169954001Y-107624000D01*
G75*
G02*
X170204000Y-107873999I0J-249999D01*
G01*
X170204000Y-108774001D01*
G75*
G02*
X169954001Y-109024000I-249999J0D01*
G01*
X169253999Y-109024000D01*
G75*
G02*
X169004000Y-108774001I0J249999D01*
G01*
G37*
G36*
G01*
X167004000Y-108774001D02*
X167004000Y-107873999D01*
G75*
G02*
X167253999Y-107624000I249999J0D01*
G01*
X167954001Y-107624000D01*
G75*
G02*
X168204000Y-107873999I0J-249999D01*
G01*
X168204000Y-108774001D01*
G75*
G02*
X167954001Y-109024000I-249999J0D01*
G01*
X167253999Y-109024000D01*
G75*
G02*
X167004000Y-108774001I0J249999D01*
G01*
G37*
%TD*%
%TO.C,R54*%
G36*
G01*
X168104001Y-110992000D02*
X167203999Y-110992000D01*
G75*
G02*
X166954000Y-110742001I0J249999D01*
G01*
X166954000Y-110041999D01*
G75*
G02*
X167203999Y-109792000I249999J0D01*
G01*
X168104001Y-109792000D01*
G75*
G02*
X168354000Y-110041999I0J-249999D01*
G01*
X168354000Y-110742001D01*
G75*
G02*
X168104001Y-110992000I-249999J0D01*
G01*
G37*
G36*
G01*
X168104001Y-112992000D02*
X167203999Y-112992000D01*
G75*
G02*
X166954000Y-112742001I0J249999D01*
G01*
X166954000Y-112041999D01*
G75*
G02*
X167203999Y-111792000I249999J0D01*
G01*
X168104001Y-111792000D01*
G75*
G02*
X168354000Y-112041999I0J-249999D01*
G01*
X168354000Y-112742001D01*
G75*
G02*
X168104001Y-112992000I-249999J0D01*
G01*
G37*
%TD*%
%TO.C,R53*%
G36*
G01*
X160417000Y-105815999D02*
X160417000Y-106716001D01*
G75*
G02*
X160167001Y-106966000I-249999J0D01*
G01*
X159466999Y-106966000D01*
G75*
G02*
X159217000Y-106716001I0J249999D01*
G01*
X159217000Y-105815999D01*
G75*
G02*
X159466999Y-105566000I249999J0D01*
G01*
X160167001Y-105566000D01*
G75*
G02*
X160417000Y-105815999I0J-249999D01*
G01*
G37*
G36*
G01*
X162417000Y-105815999D02*
X162417000Y-106716001D01*
G75*
G02*
X162167001Y-106966000I-249999J0D01*
G01*
X161466999Y-106966000D01*
G75*
G02*
X161217000Y-106716001I0J249999D01*
G01*
X161217000Y-105815999D01*
G75*
G02*
X161466999Y-105566000I249999J0D01*
G01*
X162167001Y-105566000D01*
G75*
G02*
X162417000Y-105815999I0J-249999D01*
G01*
G37*
%TD*%
%TO.C,R52*%
G36*
G01*
X144399000Y-55827001D02*
X144399000Y-54926999D01*
G75*
G02*
X144648999Y-54677000I249999J0D01*
G01*
X145349001Y-54677000D01*
G75*
G02*
X145599000Y-54926999I0J-249999D01*
G01*
X145599000Y-55827001D01*
G75*
G02*
X145349001Y-56077000I-249999J0D01*
G01*
X144648999Y-56077000D01*
G75*
G02*
X144399000Y-55827001I0J249999D01*
G01*
G37*
G36*
G01*
X142399000Y-55827001D02*
X142399000Y-54926999D01*
G75*
G02*
X142648999Y-54677000I249999J0D01*
G01*
X143349001Y-54677000D01*
G75*
G02*
X143599000Y-54926999I0J-249999D01*
G01*
X143599000Y-55827001D01*
G75*
G02*
X143349001Y-56077000I-249999J0D01*
G01*
X142648999Y-56077000D01*
G75*
G02*
X142399000Y-55827001I0J249999D01*
G01*
G37*
%TD*%
%TO.C,R51*%
G36*
G01*
X111190000Y-56071001D02*
X111190000Y-55170999D01*
G75*
G02*
X111439999Y-54921000I249999J0D01*
G01*
X112140001Y-54921000D01*
G75*
G02*
X112390000Y-55170999I0J-249999D01*
G01*
X112390000Y-56071001D01*
G75*
G02*
X112140001Y-56321000I-249999J0D01*
G01*
X111439999Y-56321000D01*
G75*
G02*
X111190000Y-56071001I0J249999D01*
G01*
G37*
G36*
G01*
X109190000Y-56071001D02*
X109190000Y-55170999D01*
G75*
G02*
X109439999Y-54921000I249999J0D01*
G01*
X110140001Y-54921000D01*
G75*
G02*
X110390000Y-55170999I0J-249999D01*
G01*
X110390000Y-56071001D01*
G75*
G02*
X110140001Y-56321000I-249999J0D01*
G01*
X109439999Y-56321000D01*
G75*
G02*
X109190000Y-56071001I0J249999D01*
G01*
G37*
%TD*%
%TO.C,R50*%
G36*
G01*
X172794001Y-115384000D02*
X171893999Y-115384000D01*
G75*
G02*
X171644000Y-115134001I0J249999D01*
G01*
X171644000Y-114433999D01*
G75*
G02*
X171893999Y-114184000I249999J0D01*
G01*
X172794001Y-114184000D01*
G75*
G02*
X173044000Y-114433999I0J-249999D01*
G01*
X173044000Y-115134001D01*
G75*
G02*
X172794001Y-115384000I-249999J0D01*
G01*
G37*
G36*
G01*
X172794001Y-117384000D02*
X171893999Y-117384000D01*
G75*
G02*
X171644000Y-117134001I0J249999D01*
G01*
X171644000Y-116433999D01*
G75*
G02*
X171893999Y-116184000I249999J0D01*
G01*
X172794001Y-116184000D01*
G75*
G02*
X173044000Y-116433999I0J-249999D01*
G01*
X173044000Y-117134001D01*
G75*
G02*
X172794001Y-117384000I-249999J0D01*
G01*
G37*
%TD*%
%TO.C,R49*%
G36*
G01*
X172170999Y-96003000D02*
X173071001Y-96003000D01*
G75*
G02*
X173321000Y-96252999I0J-249999D01*
G01*
X173321000Y-96953001D01*
G75*
G02*
X173071001Y-97203000I-249999J0D01*
G01*
X172170999Y-97203000D01*
G75*
G02*
X171921000Y-96953001I0J249999D01*
G01*
X171921000Y-96252999D01*
G75*
G02*
X172170999Y-96003000I249999J0D01*
G01*
G37*
G36*
G01*
X172170999Y-94003000D02*
X173071001Y-94003000D01*
G75*
G02*
X173321000Y-94252999I0J-249999D01*
G01*
X173321000Y-94953001D01*
G75*
G02*
X173071001Y-95203000I-249999J0D01*
G01*
X172170999Y-95203000D01*
G75*
G02*
X171921000Y-94953001I0J249999D01*
G01*
X171921000Y-94252999D01*
G75*
G02*
X172170999Y-94003000I249999J0D01*
G01*
G37*
%TD*%
%TO.C,R48*%
G36*
G01*
X119352000Y-81320999D02*
X119352000Y-82221001D01*
G75*
G02*
X119102001Y-82471000I-249999J0D01*
G01*
X118401999Y-82471000D01*
G75*
G02*
X118152000Y-82221001I0J249999D01*
G01*
X118152000Y-81320999D01*
G75*
G02*
X118401999Y-81071000I249999J0D01*
G01*
X119102001Y-81071000D01*
G75*
G02*
X119352000Y-81320999I0J-249999D01*
G01*
G37*
G36*
G01*
X121352000Y-81320999D02*
X121352000Y-82221001D01*
G75*
G02*
X121102001Y-82471000I-249999J0D01*
G01*
X120401999Y-82471000D01*
G75*
G02*
X120152000Y-82221001I0J249999D01*
G01*
X120152000Y-81320999D01*
G75*
G02*
X120401999Y-81071000I249999J0D01*
G01*
X121102001Y-81071000D01*
G75*
G02*
X121352000Y-81320999I0J-249999D01*
G01*
G37*
%TD*%
%TO.C,R47*%
G36*
G01*
X145111000Y-57229999D02*
X145111000Y-58130001D01*
G75*
G02*
X144861001Y-58380000I-249999J0D01*
G01*
X144160999Y-58380000D01*
G75*
G02*
X143911000Y-58130001I0J249999D01*
G01*
X143911000Y-57229999D01*
G75*
G02*
X144160999Y-56980000I249999J0D01*
G01*
X144861001Y-56980000D01*
G75*
G02*
X145111000Y-57229999I0J-249999D01*
G01*
G37*
G36*
G01*
X147111000Y-57229999D02*
X147111000Y-58130001D01*
G75*
G02*
X146861001Y-58380000I-249999J0D01*
G01*
X146160999Y-58380000D01*
G75*
G02*
X145911000Y-58130001I0J249999D01*
G01*
X145911000Y-57229999D01*
G75*
G02*
X146160999Y-56980000I249999J0D01*
G01*
X146861001Y-56980000D01*
G75*
G02*
X147111000Y-57229999I0J-249999D01*
G01*
G37*
%TD*%
%TO.C,R46*%
G36*
G01*
X143188000Y-62501999D02*
X143188000Y-63402001D01*
G75*
G02*
X142938001Y-63652000I-249999J0D01*
G01*
X142237999Y-63652000D01*
G75*
G02*
X141988000Y-63402001I0J249999D01*
G01*
X141988000Y-62501999D01*
G75*
G02*
X142237999Y-62252000I249999J0D01*
G01*
X142938001Y-62252000D01*
G75*
G02*
X143188000Y-62501999I0J-249999D01*
G01*
G37*
G36*
G01*
X145188000Y-62501999D02*
X145188000Y-63402001D01*
G75*
G02*
X144938001Y-63652000I-249999J0D01*
G01*
X144237999Y-63652000D01*
G75*
G02*
X143988000Y-63402001I0J249999D01*
G01*
X143988000Y-62501999D01*
G75*
G02*
X144237999Y-62252000I249999J0D01*
G01*
X144938001Y-62252000D01*
G75*
G02*
X145188000Y-62501999I0J-249999D01*
G01*
G37*
%TD*%
%TO.C,R45*%
G36*
G01*
X143669000Y-59803999D02*
X143669000Y-60704001D01*
G75*
G02*
X143419001Y-60954000I-249999J0D01*
G01*
X142718999Y-60954000D01*
G75*
G02*
X142469000Y-60704001I0J249999D01*
G01*
X142469000Y-59803999D01*
G75*
G02*
X142718999Y-59554000I249999J0D01*
G01*
X143419001Y-59554000D01*
G75*
G02*
X143669000Y-59803999I0J-249999D01*
G01*
G37*
G36*
G01*
X145669000Y-59803999D02*
X145669000Y-60704001D01*
G75*
G02*
X145419001Y-60954000I-249999J0D01*
G01*
X144718999Y-60954000D01*
G75*
G02*
X144469000Y-60704001I0J249999D01*
G01*
X144469000Y-59803999D01*
G75*
G02*
X144718999Y-59554000I249999J0D01*
G01*
X145419001Y-59554000D01*
G75*
G02*
X145669000Y-59803999I0J-249999D01*
G01*
G37*
%TD*%
%TO.C,R44*%
G36*
G01*
X147222000Y-117089001D02*
X147222000Y-116188999D01*
G75*
G02*
X147471999Y-115939000I249999J0D01*
G01*
X148172001Y-115939000D01*
G75*
G02*
X148422000Y-116188999I0J-249999D01*
G01*
X148422000Y-117089001D01*
G75*
G02*
X148172001Y-117339000I-249999J0D01*
G01*
X147471999Y-117339000D01*
G75*
G02*
X147222000Y-117089001I0J249999D01*
G01*
G37*
G36*
G01*
X145222000Y-117089001D02*
X145222000Y-116188999D01*
G75*
G02*
X145471999Y-115939000I249999J0D01*
G01*
X146172001Y-115939000D01*
G75*
G02*
X146422000Y-116188999I0J-249999D01*
G01*
X146422000Y-117089001D01*
G75*
G02*
X146172001Y-117339000I-249999J0D01*
G01*
X145471999Y-117339000D01*
G75*
G02*
X145222000Y-117089001I0J249999D01*
G01*
G37*
%TD*%
%TO.C,R43*%
G36*
G01*
X151005000Y-117087001D02*
X151005000Y-116186999D01*
G75*
G02*
X151254999Y-115937000I249999J0D01*
G01*
X151955001Y-115937000D01*
G75*
G02*
X152205000Y-116186999I0J-249999D01*
G01*
X152205000Y-117087001D01*
G75*
G02*
X151955001Y-117337000I-249999J0D01*
G01*
X151254999Y-117337000D01*
G75*
G02*
X151005000Y-117087001I0J249999D01*
G01*
G37*
G36*
G01*
X149005000Y-117087001D02*
X149005000Y-116186999D01*
G75*
G02*
X149254999Y-115937000I249999J0D01*
G01*
X149955001Y-115937000D01*
G75*
G02*
X150205000Y-116186999I0J-249999D01*
G01*
X150205000Y-117087001D01*
G75*
G02*
X149955001Y-117337000I-249999J0D01*
G01*
X149254999Y-117337000D01*
G75*
G02*
X149005000Y-117087001I0J249999D01*
G01*
G37*
%TD*%
%TO.C,R42*%
G36*
G01*
X129058999Y-84316000D02*
X129959001Y-84316000D01*
G75*
G02*
X130209000Y-84565999I0J-249999D01*
G01*
X130209000Y-85266001D01*
G75*
G02*
X129959001Y-85516000I-249999J0D01*
G01*
X129058999Y-85516000D01*
G75*
G02*
X128809000Y-85266001I0J249999D01*
G01*
X128809000Y-84565999D01*
G75*
G02*
X129058999Y-84316000I249999J0D01*
G01*
G37*
G36*
G01*
X129058999Y-82316000D02*
X129959001Y-82316000D01*
G75*
G02*
X130209000Y-82565999I0J-249999D01*
G01*
X130209000Y-83266001D01*
G75*
G02*
X129959001Y-83516000I-249999J0D01*
G01*
X129058999Y-83516000D01*
G75*
G02*
X128809000Y-83266001I0J249999D01*
G01*
X128809000Y-82565999D01*
G75*
G02*
X129058999Y-82316000I249999J0D01*
G01*
G37*
%TD*%
%TO.C,R41*%
G36*
G01*
X145531001Y-90681000D02*
X144630999Y-90681000D01*
G75*
G02*
X144381000Y-90431001I0J249999D01*
G01*
X144381000Y-89730999D01*
G75*
G02*
X144630999Y-89481000I249999J0D01*
G01*
X145531001Y-89481000D01*
G75*
G02*
X145781000Y-89730999I0J-249999D01*
G01*
X145781000Y-90431001D01*
G75*
G02*
X145531001Y-90681000I-249999J0D01*
G01*
G37*
G36*
G01*
X145531001Y-92681000D02*
X144630999Y-92681000D01*
G75*
G02*
X144381000Y-92431001I0J249999D01*
G01*
X144381000Y-91730999D01*
G75*
G02*
X144630999Y-91481000I249999J0D01*
G01*
X145531001Y-91481000D01*
G75*
G02*
X145781000Y-91730999I0J-249999D01*
G01*
X145781000Y-92431001D01*
G75*
G02*
X145531001Y-92681000I-249999J0D01*
G01*
G37*
%TD*%
%TO.C,R40*%
G36*
G01*
X141773000Y-89265999D02*
X141773000Y-90166001D01*
G75*
G02*
X141523001Y-90416000I-249999J0D01*
G01*
X140822999Y-90416000D01*
G75*
G02*
X140573000Y-90166001I0J249999D01*
G01*
X140573000Y-89265999D01*
G75*
G02*
X140822999Y-89016000I249999J0D01*
G01*
X141523001Y-89016000D01*
G75*
G02*
X141773000Y-89265999I0J-249999D01*
G01*
G37*
G36*
G01*
X143773000Y-89265999D02*
X143773000Y-90166001D01*
G75*
G02*
X143523001Y-90416000I-249999J0D01*
G01*
X142822999Y-90416000D01*
G75*
G02*
X142573000Y-90166001I0J249999D01*
G01*
X142573000Y-89265999D01*
G75*
G02*
X142822999Y-89016000I249999J0D01*
G01*
X143523001Y-89016000D01*
G75*
G02*
X143773000Y-89265999I0J-249999D01*
G01*
G37*
%TD*%
%TO.C,R39*%
G36*
G01*
X144383999Y-104662000D02*
X145284001Y-104662000D01*
G75*
G02*
X145534000Y-104911999I0J-249999D01*
G01*
X145534000Y-105612001D01*
G75*
G02*
X145284001Y-105862000I-249999J0D01*
G01*
X144383999Y-105862000D01*
G75*
G02*
X144134000Y-105612001I0J249999D01*
G01*
X144134000Y-104911999D01*
G75*
G02*
X144383999Y-104662000I249999J0D01*
G01*
G37*
G36*
G01*
X144383999Y-102662000D02*
X145284001Y-102662000D01*
G75*
G02*
X145534000Y-102911999I0J-249999D01*
G01*
X145534000Y-103612001D01*
G75*
G02*
X145284001Y-103862000I-249999J0D01*
G01*
X144383999Y-103862000D01*
G75*
G02*
X144134000Y-103612001I0J249999D01*
G01*
X144134000Y-102911999D01*
G75*
G02*
X144383999Y-102662000I249999J0D01*
G01*
G37*
%TD*%
%TO.C,R38*%
G36*
G01*
X144386999Y-100836000D02*
X145287001Y-100836000D01*
G75*
G02*
X145537000Y-101085999I0J-249999D01*
G01*
X145537000Y-101786001D01*
G75*
G02*
X145287001Y-102036000I-249999J0D01*
G01*
X144386999Y-102036000D01*
G75*
G02*
X144137000Y-101786001I0J249999D01*
G01*
X144137000Y-101085999D01*
G75*
G02*
X144386999Y-100836000I249999J0D01*
G01*
G37*
G36*
G01*
X144386999Y-98836000D02*
X145287001Y-98836000D01*
G75*
G02*
X145537000Y-99085999I0J-249999D01*
G01*
X145537000Y-99786001D01*
G75*
G02*
X145287001Y-100036000I-249999J0D01*
G01*
X144386999Y-100036000D01*
G75*
G02*
X144137000Y-99786001I0J249999D01*
G01*
X144137000Y-99085999D01*
G75*
G02*
X144386999Y-98836000I249999J0D01*
G01*
G37*
%TD*%
%TO.C,R37*%
G36*
G01*
X165405999Y-115732000D02*
X166306001Y-115732000D01*
G75*
G02*
X166556000Y-115981999I0J-249999D01*
G01*
X166556000Y-116682001D01*
G75*
G02*
X166306001Y-116932000I-249999J0D01*
G01*
X165405999Y-116932000D01*
G75*
G02*
X165156000Y-116682001I0J249999D01*
G01*
X165156000Y-115981999D01*
G75*
G02*
X165405999Y-115732000I249999J0D01*
G01*
G37*
G36*
G01*
X165405999Y-113732000D02*
X166306001Y-113732000D01*
G75*
G02*
X166556000Y-113981999I0J-249999D01*
G01*
X166556000Y-114682001D01*
G75*
G02*
X166306001Y-114932000I-249999J0D01*
G01*
X165405999Y-114932000D01*
G75*
G02*
X165156000Y-114682001I0J249999D01*
G01*
X165156000Y-113981999D01*
G75*
G02*
X165405999Y-113732000I249999J0D01*
G01*
G37*
%TD*%
%TO.C,R36*%
G36*
G01*
X141202027Y-112991347D02*
X142102029Y-112991347D01*
G75*
G02*
X142352028Y-113241346I0J-249999D01*
G01*
X142352028Y-113941348D01*
G75*
G02*
X142102029Y-114191347I-249999J0D01*
G01*
X141202027Y-114191347D01*
G75*
G02*
X140952028Y-113941348I0J249999D01*
G01*
X140952028Y-113241346D01*
G75*
G02*
X141202027Y-112991347I249999J0D01*
G01*
G37*
G36*
G01*
X141202027Y-110991347D02*
X142102029Y-110991347D01*
G75*
G02*
X142352028Y-111241346I0J-249999D01*
G01*
X142352028Y-111941348D01*
G75*
G02*
X142102029Y-112191347I-249999J0D01*
G01*
X141202027Y-112191347D01*
G75*
G02*
X140952028Y-111941348I0J249999D01*
G01*
X140952028Y-111241346D01*
G75*
G02*
X141202027Y-110991347I249999J0D01*
G01*
G37*
%TD*%
%TO.C,R35*%
G36*
G01*
X163250999Y-119531000D02*
X164151001Y-119531000D01*
G75*
G02*
X164401000Y-119780999I0J-249999D01*
G01*
X164401000Y-120481001D01*
G75*
G02*
X164151001Y-120731000I-249999J0D01*
G01*
X163250999Y-120731000D01*
G75*
G02*
X163001000Y-120481001I0J249999D01*
G01*
X163001000Y-119780999D01*
G75*
G02*
X163250999Y-119531000I249999J0D01*
G01*
G37*
G36*
G01*
X163250999Y-117531000D02*
X164151001Y-117531000D01*
G75*
G02*
X164401000Y-117780999I0J-249999D01*
G01*
X164401000Y-118481001D01*
G75*
G02*
X164151001Y-118731000I-249999J0D01*
G01*
X163250999Y-118731000D01*
G75*
G02*
X163001000Y-118481001I0J249999D01*
G01*
X163001000Y-117780999D01*
G75*
G02*
X163250999Y-117531000I249999J0D01*
G01*
G37*
%TD*%
%TO.C,R34*%
G36*
G01*
X131670027Y-111551348D02*
X132570029Y-111551348D01*
G75*
G02*
X132820028Y-111801347I0J-249999D01*
G01*
X132820028Y-112501349D01*
G75*
G02*
X132570029Y-112751348I-249999J0D01*
G01*
X131670027Y-112751348D01*
G75*
G02*
X131420028Y-112501349I0J249999D01*
G01*
X131420028Y-111801347D01*
G75*
G02*
X131670027Y-111551348I249999J0D01*
G01*
G37*
G36*
G01*
X131670027Y-109551348D02*
X132570029Y-109551348D01*
G75*
G02*
X132820028Y-109801347I0J-249999D01*
G01*
X132820028Y-110501349D01*
G75*
G02*
X132570029Y-110751348I-249999J0D01*
G01*
X131670027Y-110751348D01*
G75*
G02*
X131420028Y-110501349I0J249999D01*
G01*
X131420028Y-109801347D01*
G75*
G02*
X131670027Y-109551348I249999J0D01*
G01*
G37*
%TD*%
%TO.C,R33*%
G36*
G01*
X136407028Y-116030347D02*
X136407028Y-116930349D01*
G75*
G02*
X136157029Y-117180348I-249999J0D01*
G01*
X135457027Y-117180348D01*
G75*
G02*
X135207028Y-116930349I0J249999D01*
G01*
X135207028Y-116030347D01*
G75*
G02*
X135457027Y-115780348I249999J0D01*
G01*
X136157029Y-115780348D01*
G75*
G02*
X136407028Y-116030347I0J-249999D01*
G01*
G37*
G36*
G01*
X138407028Y-116030347D02*
X138407028Y-116930349D01*
G75*
G02*
X138157029Y-117180348I-249999J0D01*
G01*
X137457027Y-117180348D01*
G75*
G02*
X137207028Y-116930349I0J249999D01*
G01*
X137207028Y-116030347D01*
G75*
G02*
X137457027Y-115780348I249999J0D01*
G01*
X138157029Y-115780348D01*
G75*
G02*
X138407028Y-116030347I0J-249999D01*
G01*
G37*
%TD*%
%TO.C,R32*%
G36*
G01*
X139632000Y-93022999D02*
X139632000Y-93923001D01*
G75*
G02*
X139382001Y-94173000I-249999J0D01*
G01*
X138681999Y-94173000D01*
G75*
G02*
X138432000Y-93923001I0J249999D01*
G01*
X138432000Y-93022999D01*
G75*
G02*
X138681999Y-92773000I249999J0D01*
G01*
X139382001Y-92773000D01*
G75*
G02*
X139632000Y-93022999I0J-249999D01*
G01*
G37*
G36*
G01*
X141632000Y-93022999D02*
X141632000Y-93923001D01*
G75*
G02*
X141382001Y-94173000I-249999J0D01*
G01*
X140681999Y-94173000D01*
G75*
G02*
X140432000Y-93923001I0J249999D01*
G01*
X140432000Y-93022999D01*
G75*
G02*
X140681999Y-92773000I249999J0D01*
G01*
X141382001Y-92773000D01*
G75*
G02*
X141632000Y-93022999I0J-249999D01*
G01*
G37*
%TD*%
%TO.C,R31*%
G36*
G01*
X121491001Y-110722000D02*
X120590999Y-110722000D01*
G75*
G02*
X120341000Y-110472001I0J249999D01*
G01*
X120341000Y-109771999D01*
G75*
G02*
X120590999Y-109522000I249999J0D01*
G01*
X121491001Y-109522000D01*
G75*
G02*
X121741000Y-109771999I0J-249999D01*
G01*
X121741000Y-110472001D01*
G75*
G02*
X121491001Y-110722000I-249999J0D01*
G01*
G37*
G36*
G01*
X121491001Y-112722000D02*
X120590999Y-112722000D01*
G75*
G02*
X120341000Y-112472001I0J249999D01*
G01*
X120341000Y-111771999D01*
G75*
G02*
X120590999Y-111522000I249999J0D01*
G01*
X121491001Y-111522000D01*
G75*
G02*
X121741000Y-111771999I0J-249999D01*
G01*
X121741000Y-112472001D01*
G75*
G02*
X121491001Y-112722000I-249999J0D01*
G01*
G37*
%TD*%
%TO.C,R30*%
G36*
G01*
X138699999Y-90932000D02*
X139600001Y-90932000D01*
G75*
G02*
X139850000Y-91181999I0J-249999D01*
G01*
X139850000Y-91882001D01*
G75*
G02*
X139600001Y-92132000I-249999J0D01*
G01*
X138699999Y-92132000D01*
G75*
G02*
X138450000Y-91882001I0J249999D01*
G01*
X138450000Y-91181999D01*
G75*
G02*
X138699999Y-90932000I249999J0D01*
G01*
G37*
G36*
G01*
X138699999Y-88932000D02*
X139600001Y-88932000D01*
G75*
G02*
X139850000Y-89181999I0J-249999D01*
G01*
X139850000Y-89882001D01*
G75*
G02*
X139600001Y-90132000I-249999J0D01*
G01*
X138699999Y-90132000D01*
G75*
G02*
X138450000Y-89882001I0J249999D01*
G01*
X138450000Y-89181999D01*
G75*
G02*
X138699999Y-88932000I249999J0D01*
G01*
G37*
%TD*%
%TO.C,R29*%
G36*
G01*
X105497001Y-110005000D02*
X104596999Y-110005000D01*
G75*
G02*
X104347000Y-109755001I0J249999D01*
G01*
X104347000Y-109054999D01*
G75*
G02*
X104596999Y-108805000I249999J0D01*
G01*
X105497001Y-108805000D01*
G75*
G02*
X105747000Y-109054999I0J-249999D01*
G01*
X105747000Y-109755001D01*
G75*
G02*
X105497001Y-110005000I-249999J0D01*
G01*
G37*
G36*
G01*
X105497001Y-112005000D02*
X104596999Y-112005000D01*
G75*
G02*
X104347000Y-111755001I0J249999D01*
G01*
X104347000Y-111054999D01*
G75*
G02*
X104596999Y-110805000I249999J0D01*
G01*
X105497001Y-110805000D01*
G75*
G02*
X105747000Y-111054999I0J-249999D01*
G01*
X105747000Y-111755001D01*
G75*
G02*
X105497001Y-112005000I-249999J0D01*
G01*
G37*
%TD*%
%TO.C,R28*%
G36*
G01*
X156733001Y-113602000D02*
X155832999Y-113602000D01*
G75*
G02*
X155583000Y-113352001I0J249999D01*
G01*
X155583000Y-112651999D01*
G75*
G02*
X155832999Y-112402000I249999J0D01*
G01*
X156733001Y-112402000D01*
G75*
G02*
X156983000Y-112651999I0J-249999D01*
G01*
X156983000Y-113352001D01*
G75*
G02*
X156733001Y-113602000I-249999J0D01*
G01*
G37*
G36*
G01*
X156733001Y-115602000D02*
X155832999Y-115602000D01*
G75*
G02*
X155583000Y-115352001I0J249999D01*
G01*
X155583000Y-114651999D01*
G75*
G02*
X155832999Y-114402000I249999J0D01*
G01*
X156733001Y-114402000D01*
G75*
G02*
X156983000Y-114651999I0J-249999D01*
G01*
X156983000Y-115352001D01*
G75*
G02*
X156733001Y-115602000I-249999J0D01*
G01*
G37*
%TD*%
%TO.C,R27*%
G36*
G01*
X138314000Y-102765999D02*
X138314000Y-103666001D01*
G75*
G02*
X138064001Y-103916000I-249999J0D01*
G01*
X137363999Y-103916000D01*
G75*
G02*
X137114000Y-103666001I0J249999D01*
G01*
X137114000Y-102765999D01*
G75*
G02*
X137363999Y-102516000I249999J0D01*
G01*
X138064001Y-102516000D01*
G75*
G02*
X138314000Y-102765999I0J-249999D01*
G01*
G37*
G36*
G01*
X140314000Y-102765999D02*
X140314000Y-103666001D01*
G75*
G02*
X140064001Y-103916000I-249999J0D01*
G01*
X139363999Y-103916000D01*
G75*
G02*
X139114000Y-103666001I0J249999D01*
G01*
X139114000Y-102765999D01*
G75*
G02*
X139363999Y-102516000I249999J0D01*
G01*
X140064001Y-102516000D01*
G75*
G02*
X140314000Y-102765999I0J-249999D01*
G01*
G37*
%TD*%
%TO.C,R26*%
G36*
G01*
X133893000Y-101710001D02*
X133893000Y-100809999D01*
G75*
G02*
X134142999Y-100560000I249999J0D01*
G01*
X134843001Y-100560000D01*
G75*
G02*
X135093000Y-100809999I0J-249999D01*
G01*
X135093000Y-101710001D01*
G75*
G02*
X134843001Y-101960000I-249999J0D01*
G01*
X134142999Y-101960000D01*
G75*
G02*
X133893000Y-101710001I0J249999D01*
G01*
G37*
G36*
G01*
X131893000Y-101710001D02*
X131893000Y-100809999D01*
G75*
G02*
X132142999Y-100560000I249999J0D01*
G01*
X132843001Y-100560000D01*
G75*
G02*
X133093000Y-100809999I0J-249999D01*
G01*
X133093000Y-101710001D01*
G75*
G02*
X132843001Y-101960000I-249999J0D01*
G01*
X132142999Y-101960000D01*
G75*
G02*
X131893000Y-101710001I0J249999D01*
G01*
G37*
%TD*%
%TO.C,R25*%
G36*
G01*
X129689000Y-58976999D02*
X129689000Y-59877001D01*
G75*
G02*
X129439001Y-60127000I-249999J0D01*
G01*
X128738999Y-60127000D01*
G75*
G02*
X128489000Y-59877001I0J249999D01*
G01*
X128489000Y-58976999D01*
G75*
G02*
X128738999Y-58727000I249999J0D01*
G01*
X129439001Y-58727000D01*
G75*
G02*
X129689000Y-58976999I0J-249999D01*
G01*
G37*
G36*
G01*
X131689000Y-58976999D02*
X131689000Y-59877001D01*
G75*
G02*
X131439001Y-60127000I-249999J0D01*
G01*
X130738999Y-60127000D01*
G75*
G02*
X130489000Y-59877001I0J249999D01*
G01*
X130489000Y-58976999D01*
G75*
G02*
X130738999Y-58727000I249999J0D01*
G01*
X131439001Y-58727000D01*
G75*
G02*
X131689000Y-58976999I0J-249999D01*
G01*
G37*
%TD*%
%TO.C,R24*%
G36*
G01*
X137395999Y-107711000D02*
X138296001Y-107711000D01*
G75*
G02*
X138546000Y-107960999I0J-249999D01*
G01*
X138546000Y-108661001D01*
G75*
G02*
X138296001Y-108911000I-249999J0D01*
G01*
X137395999Y-108911000D01*
G75*
G02*
X137146000Y-108661001I0J249999D01*
G01*
X137146000Y-107960999D01*
G75*
G02*
X137395999Y-107711000I249999J0D01*
G01*
G37*
G36*
G01*
X137395999Y-105711000D02*
X138296001Y-105711000D01*
G75*
G02*
X138546000Y-105960999I0J-249999D01*
G01*
X138546000Y-106661001D01*
G75*
G02*
X138296001Y-106911000I-249999J0D01*
G01*
X137395999Y-106911000D01*
G75*
G02*
X137146000Y-106661001I0J249999D01*
G01*
X137146000Y-105960999D01*
G75*
G02*
X137395999Y-105711000I249999J0D01*
G01*
G37*
%TD*%
%TO.C,R23*%
G36*
G01*
X131655999Y-107670000D02*
X132556001Y-107670000D01*
G75*
G02*
X132806000Y-107919999I0J-249999D01*
G01*
X132806000Y-108620001D01*
G75*
G02*
X132556001Y-108870000I-249999J0D01*
G01*
X131655999Y-108870000D01*
G75*
G02*
X131406000Y-108620001I0J249999D01*
G01*
X131406000Y-107919999D01*
G75*
G02*
X131655999Y-107670000I249999J0D01*
G01*
G37*
G36*
G01*
X131655999Y-105670000D02*
X132556001Y-105670000D01*
G75*
G02*
X132806000Y-105919999I0J-249999D01*
G01*
X132806000Y-106620001D01*
G75*
G02*
X132556001Y-106870000I-249999J0D01*
G01*
X131655999Y-106870000D01*
G75*
G02*
X131406000Y-106620001I0J249999D01*
G01*
X131406000Y-105919999D01*
G75*
G02*
X131655999Y-105670000I249999J0D01*
G01*
G37*
%TD*%
%TO.C,R22*%
G36*
G01*
X124156001Y-65803000D02*
X123255999Y-65803000D01*
G75*
G02*
X123006000Y-65553001I0J249999D01*
G01*
X123006000Y-64852999D01*
G75*
G02*
X123255999Y-64603000I249999J0D01*
G01*
X124156001Y-64603000D01*
G75*
G02*
X124406000Y-64852999I0J-249999D01*
G01*
X124406000Y-65553001D01*
G75*
G02*
X124156001Y-65803000I-249999J0D01*
G01*
G37*
G36*
G01*
X124156001Y-67803000D02*
X123255999Y-67803000D01*
G75*
G02*
X123006000Y-67553001I0J249999D01*
G01*
X123006000Y-66852999D01*
G75*
G02*
X123255999Y-66603000I249999J0D01*
G01*
X124156001Y-66603000D01*
G75*
G02*
X124406000Y-66852999I0J-249999D01*
G01*
X124406000Y-67553001D01*
G75*
G02*
X124156001Y-67803000I-249999J0D01*
G01*
G37*
%TD*%
%TO.C,R21*%
G36*
G01*
X152951000Y-112671999D02*
X152951000Y-113572001D01*
G75*
G02*
X152701001Y-113822000I-249999J0D01*
G01*
X152000999Y-113822000D01*
G75*
G02*
X151751000Y-113572001I0J249999D01*
G01*
X151751000Y-112671999D01*
G75*
G02*
X152000999Y-112422000I249999J0D01*
G01*
X152701001Y-112422000D01*
G75*
G02*
X152951000Y-112671999I0J-249999D01*
G01*
G37*
G36*
G01*
X154951000Y-112671999D02*
X154951000Y-113572001D01*
G75*
G02*
X154701001Y-113822000I-249999J0D01*
G01*
X154000999Y-113822000D01*
G75*
G02*
X153751000Y-113572001I0J249999D01*
G01*
X153751000Y-112671999D01*
G75*
G02*
X154000999Y-112422000I249999J0D01*
G01*
X154701001Y-112422000D01*
G75*
G02*
X154951000Y-112671999I0J-249999D01*
G01*
G37*
%TD*%
%TO.C,R20*%
G36*
G01*
X115292000Y-60462001D02*
X115292000Y-59561999D01*
G75*
G02*
X115541999Y-59312000I249999J0D01*
G01*
X116242001Y-59312000D01*
G75*
G02*
X116492000Y-59561999I0J-249999D01*
G01*
X116492000Y-60462001D01*
G75*
G02*
X116242001Y-60712000I-249999J0D01*
G01*
X115541999Y-60712000D01*
G75*
G02*
X115292000Y-60462001I0J249999D01*
G01*
G37*
G36*
G01*
X113292000Y-60462001D02*
X113292000Y-59561999D01*
G75*
G02*
X113541999Y-59312000I249999J0D01*
G01*
X114242001Y-59312000D01*
G75*
G02*
X114492000Y-59561999I0J-249999D01*
G01*
X114492000Y-60462001D01*
G75*
G02*
X114242001Y-60712000I-249999J0D01*
G01*
X113541999Y-60712000D01*
G75*
G02*
X113292000Y-60462001I0J249999D01*
G01*
G37*
%TD*%
%TO.C,R19*%
G36*
G01*
X114780000Y-62619999D02*
X114780000Y-63520001D01*
G75*
G02*
X114530001Y-63770000I-249999J0D01*
G01*
X113829999Y-63770000D01*
G75*
G02*
X113580000Y-63520001I0J249999D01*
G01*
X113580000Y-62619999D01*
G75*
G02*
X113829999Y-62370000I249999J0D01*
G01*
X114530001Y-62370000D01*
G75*
G02*
X114780000Y-62619999I0J-249999D01*
G01*
G37*
G36*
G01*
X116780000Y-62619999D02*
X116780000Y-63520001D01*
G75*
G02*
X116530001Y-63770000I-249999J0D01*
G01*
X115829999Y-63770000D01*
G75*
G02*
X115580000Y-63520001I0J249999D01*
G01*
X115580000Y-62619999D01*
G75*
G02*
X115829999Y-62370000I249999J0D01*
G01*
X116530001Y-62370000D01*
G75*
G02*
X116780000Y-62619999I0J-249999D01*
G01*
G37*
%TD*%
%TO.C,R18*%
G36*
G01*
X152982000Y-110675999D02*
X152982000Y-111576001D01*
G75*
G02*
X152732001Y-111826000I-249999J0D01*
G01*
X152031999Y-111826000D01*
G75*
G02*
X151782000Y-111576001I0J249999D01*
G01*
X151782000Y-110675999D01*
G75*
G02*
X152031999Y-110426000I249999J0D01*
G01*
X152732001Y-110426000D01*
G75*
G02*
X152982000Y-110675999I0J-249999D01*
G01*
G37*
G36*
G01*
X154982000Y-110675999D02*
X154982000Y-111576001D01*
G75*
G02*
X154732001Y-111826000I-249999J0D01*
G01*
X154031999Y-111826000D01*
G75*
G02*
X153782000Y-111576001I0J249999D01*
G01*
X153782000Y-110675999D01*
G75*
G02*
X154031999Y-110426000I249999J0D01*
G01*
X154732001Y-110426000D01*
G75*
G02*
X154982000Y-110675999I0J-249999D01*
G01*
G37*
%TD*%
%TO.C,R17*%
G36*
G01*
X143251001Y-95942000D02*
X142350999Y-95942000D01*
G75*
G02*
X142101000Y-95692001I0J249999D01*
G01*
X142101000Y-94991999D01*
G75*
G02*
X142350999Y-94742000I249999J0D01*
G01*
X143251001Y-94742000D01*
G75*
G02*
X143501000Y-94991999I0J-249999D01*
G01*
X143501000Y-95692001D01*
G75*
G02*
X143251001Y-95942000I-249999J0D01*
G01*
G37*
G36*
G01*
X143251001Y-97942000D02*
X142350999Y-97942000D01*
G75*
G02*
X142101000Y-97692001I0J249999D01*
G01*
X142101000Y-96991999D01*
G75*
G02*
X142350999Y-96742000I249999J0D01*
G01*
X143251001Y-96742000D01*
G75*
G02*
X143501000Y-96991999I0J-249999D01*
G01*
X143501000Y-97692001D01*
G75*
G02*
X143251001Y-97942000I-249999J0D01*
G01*
G37*
%TD*%
%TO.C,R16*%
G36*
G01*
X146383999Y-71748000D02*
X147284001Y-71748000D01*
G75*
G02*
X147534000Y-71997999I0J-249999D01*
G01*
X147534000Y-72698001D01*
G75*
G02*
X147284001Y-72948000I-249999J0D01*
G01*
X146383999Y-72948000D01*
G75*
G02*
X146134000Y-72698001I0J249999D01*
G01*
X146134000Y-71997999D01*
G75*
G02*
X146383999Y-71748000I249999J0D01*
G01*
G37*
G36*
G01*
X146383999Y-69748000D02*
X147284001Y-69748000D01*
G75*
G02*
X147534000Y-69997999I0J-249999D01*
G01*
X147534000Y-70698001D01*
G75*
G02*
X147284001Y-70948000I-249999J0D01*
G01*
X146383999Y-70948000D01*
G75*
G02*
X146134000Y-70698001I0J249999D01*
G01*
X146134000Y-69997999D01*
G75*
G02*
X146383999Y-69748000I249999J0D01*
G01*
G37*
%TD*%
%TO.C,R15*%
G36*
G01*
X115266000Y-58234001D02*
X115266000Y-57333999D01*
G75*
G02*
X115515999Y-57084000I249999J0D01*
G01*
X116216001Y-57084000D01*
G75*
G02*
X116466000Y-57333999I0J-249999D01*
G01*
X116466000Y-58234001D01*
G75*
G02*
X116216001Y-58484000I-249999J0D01*
G01*
X115515999Y-58484000D01*
G75*
G02*
X115266000Y-58234001I0J249999D01*
G01*
G37*
G36*
G01*
X113266000Y-58234001D02*
X113266000Y-57333999D01*
G75*
G02*
X113515999Y-57084000I249999J0D01*
G01*
X114216001Y-57084000D01*
G75*
G02*
X114466000Y-57333999I0J-249999D01*
G01*
X114466000Y-58234001D01*
G75*
G02*
X114216001Y-58484000I-249999J0D01*
G01*
X113515999Y-58484000D01*
G75*
G02*
X113266000Y-58234001I0J249999D01*
G01*
G37*
%TD*%
%TO.C,R14*%
G36*
G01*
X108008000Y-67572999D02*
X108008000Y-68473001D01*
G75*
G02*
X107758001Y-68723000I-249999J0D01*
G01*
X107057999Y-68723000D01*
G75*
G02*
X106808000Y-68473001I0J249999D01*
G01*
X106808000Y-67572999D01*
G75*
G02*
X107057999Y-67323000I249999J0D01*
G01*
X107758001Y-67323000D01*
G75*
G02*
X108008000Y-67572999I0J-249999D01*
G01*
G37*
G36*
G01*
X110008000Y-67572999D02*
X110008000Y-68473001D01*
G75*
G02*
X109758001Y-68723000I-249999J0D01*
G01*
X109057999Y-68723000D01*
G75*
G02*
X108808000Y-68473001I0J249999D01*
G01*
X108808000Y-67572999D01*
G75*
G02*
X109057999Y-67323000I249999J0D01*
G01*
X109758001Y-67323000D01*
G75*
G02*
X110008000Y-67572999I0J-249999D01*
G01*
G37*
%TD*%
%TO.C,R13*%
G36*
G01*
X149890000Y-66520001D02*
X149890000Y-65619999D01*
G75*
G02*
X150139999Y-65370000I249999J0D01*
G01*
X150840001Y-65370000D01*
G75*
G02*
X151090000Y-65619999I0J-249999D01*
G01*
X151090000Y-66520001D01*
G75*
G02*
X150840001Y-66770000I-249999J0D01*
G01*
X150139999Y-66770000D01*
G75*
G02*
X149890000Y-66520001I0J249999D01*
G01*
G37*
G36*
G01*
X147890000Y-66520001D02*
X147890000Y-65619999D01*
G75*
G02*
X148139999Y-65370000I249999J0D01*
G01*
X148840001Y-65370000D01*
G75*
G02*
X149090000Y-65619999I0J-249999D01*
G01*
X149090000Y-66520001D01*
G75*
G02*
X148840001Y-66770000I-249999J0D01*
G01*
X148139999Y-66770000D01*
G75*
G02*
X147890000Y-66520001I0J249999D01*
G01*
G37*
%TD*%
%TO.C,R12*%
G36*
G01*
X127947000Y-63574001D02*
X127947000Y-62673999D01*
G75*
G02*
X128196999Y-62424000I249999J0D01*
G01*
X128897001Y-62424000D01*
G75*
G02*
X129147000Y-62673999I0J-249999D01*
G01*
X129147000Y-63574001D01*
G75*
G02*
X128897001Y-63824000I-249999J0D01*
G01*
X128196999Y-63824000D01*
G75*
G02*
X127947000Y-63574001I0J249999D01*
G01*
G37*
G36*
G01*
X125947000Y-63574001D02*
X125947000Y-62673999D01*
G75*
G02*
X126196999Y-62424000I249999J0D01*
G01*
X126897001Y-62424000D01*
G75*
G02*
X127147000Y-62673999I0J-249999D01*
G01*
X127147000Y-63574001D01*
G75*
G02*
X126897001Y-63824000I-249999J0D01*
G01*
X126196999Y-63824000D01*
G75*
G02*
X125947000Y-63574001I0J249999D01*
G01*
G37*
%TD*%
%TO.C,R11*%
G36*
G01*
X111589000Y-99874999D02*
X111589000Y-100775001D01*
G75*
G02*
X111339001Y-101025000I-249999J0D01*
G01*
X110638999Y-101025000D01*
G75*
G02*
X110389000Y-100775001I0J249999D01*
G01*
X110389000Y-99874999D01*
G75*
G02*
X110638999Y-99625000I249999J0D01*
G01*
X111339001Y-99625000D01*
G75*
G02*
X111589000Y-99874999I0J-249999D01*
G01*
G37*
G36*
G01*
X113589000Y-99874999D02*
X113589000Y-100775001D01*
G75*
G02*
X113339001Y-101025000I-249999J0D01*
G01*
X112638999Y-101025000D01*
G75*
G02*
X112389000Y-100775001I0J249999D01*
G01*
X112389000Y-99874999D01*
G75*
G02*
X112638999Y-99625000I249999J0D01*
G01*
X113339001Y-99625000D01*
G75*
G02*
X113589000Y-99874999I0J-249999D01*
G01*
G37*
%TD*%
%TO.C,R10*%
G36*
G01*
X110537000Y-76031001D02*
X110537000Y-75130999D01*
G75*
G02*
X110786999Y-74881000I249999J0D01*
G01*
X111487001Y-74881000D01*
G75*
G02*
X111737000Y-75130999I0J-249999D01*
G01*
X111737000Y-76031001D01*
G75*
G02*
X111487001Y-76281000I-249999J0D01*
G01*
X110786999Y-76281000D01*
G75*
G02*
X110537000Y-76031001I0J249999D01*
G01*
G37*
G36*
G01*
X108537000Y-76031001D02*
X108537000Y-75130999D01*
G75*
G02*
X108786999Y-74881000I249999J0D01*
G01*
X109487001Y-74881000D01*
G75*
G02*
X109737000Y-75130999I0J-249999D01*
G01*
X109737000Y-76031001D01*
G75*
G02*
X109487001Y-76281000I-249999J0D01*
G01*
X108786999Y-76281000D01*
G75*
G02*
X108537000Y-76031001I0J249999D01*
G01*
G37*
%TD*%
%TO.C,R9*%
G36*
G01*
X108556000Y-105804001D02*
X108556000Y-104903999D01*
G75*
G02*
X108805999Y-104654000I249999J0D01*
G01*
X109506001Y-104654000D01*
G75*
G02*
X109756000Y-104903999I0J-249999D01*
G01*
X109756000Y-105804001D01*
G75*
G02*
X109506001Y-106054000I-249999J0D01*
G01*
X108805999Y-106054000D01*
G75*
G02*
X108556000Y-105804001I0J249999D01*
G01*
G37*
G36*
G01*
X106556000Y-105804001D02*
X106556000Y-104903999D01*
G75*
G02*
X106805999Y-104654000I249999J0D01*
G01*
X107506001Y-104654000D01*
G75*
G02*
X107756000Y-104903999I0J-249999D01*
G01*
X107756000Y-105804001D01*
G75*
G02*
X107506001Y-106054000I-249999J0D01*
G01*
X106805999Y-106054000D01*
G75*
G02*
X106556000Y-105804001I0J249999D01*
G01*
G37*
%TD*%
%TO.C,R8*%
G36*
G01*
X108554000Y-103824001D02*
X108554000Y-102923999D01*
G75*
G02*
X108803999Y-102674000I249999J0D01*
G01*
X109504001Y-102674000D01*
G75*
G02*
X109754000Y-102923999I0J-249999D01*
G01*
X109754000Y-103824001D01*
G75*
G02*
X109504001Y-104074000I-249999J0D01*
G01*
X108803999Y-104074000D01*
G75*
G02*
X108554000Y-103824001I0J249999D01*
G01*
G37*
G36*
G01*
X106554000Y-103824001D02*
X106554000Y-102923999D01*
G75*
G02*
X106803999Y-102674000I249999J0D01*
G01*
X107504001Y-102674000D01*
G75*
G02*
X107754000Y-102923999I0J-249999D01*
G01*
X107754000Y-103824001D01*
G75*
G02*
X107504001Y-104074000I-249999J0D01*
G01*
X106803999Y-104074000D01*
G75*
G02*
X106554000Y-103824001I0J249999D01*
G01*
G37*
%TD*%
%TO.C,R7*%
G36*
G01*
X106879000Y-95043999D02*
X106879000Y-95944001D01*
G75*
G02*
X106629001Y-96194000I-249999J0D01*
G01*
X105928999Y-96194000D01*
G75*
G02*
X105679000Y-95944001I0J249999D01*
G01*
X105679000Y-95043999D01*
G75*
G02*
X105928999Y-94794000I249999J0D01*
G01*
X106629001Y-94794000D01*
G75*
G02*
X106879000Y-95043999I0J-249999D01*
G01*
G37*
G36*
G01*
X108879000Y-95043999D02*
X108879000Y-95944001D01*
G75*
G02*
X108629001Y-96194000I-249999J0D01*
G01*
X107928999Y-96194000D01*
G75*
G02*
X107679000Y-95944001I0J249999D01*
G01*
X107679000Y-95043999D01*
G75*
G02*
X107928999Y-94794000I249999J0D01*
G01*
X108629001Y-94794000D01*
G75*
G02*
X108879000Y-95043999I0J-249999D01*
G01*
G37*
%TD*%
%TO.C,R6*%
G36*
G01*
X108244000Y-110850999D02*
X108244000Y-111751001D01*
G75*
G02*
X107994001Y-112001000I-249999J0D01*
G01*
X107293999Y-112001000D01*
G75*
G02*
X107044000Y-111751001I0J249999D01*
G01*
X107044000Y-110850999D01*
G75*
G02*
X107293999Y-110601000I249999J0D01*
G01*
X107994001Y-110601000D01*
G75*
G02*
X108244000Y-110850999I0J-249999D01*
G01*
G37*
G36*
G01*
X110244000Y-110850999D02*
X110244000Y-111751001D01*
G75*
G02*
X109994001Y-112001000I-249999J0D01*
G01*
X109293999Y-112001000D01*
G75*
G02*
X109044000Y-111751001I0J249999D01*
G01*
X109044000Y-110850999D01*
G75*
G02*
X109293999Y-110601000I249999J0D01*
G01*
X109994001Y-110601000D01*
G75*
G02*
X110244000Y-110850999I0J-249999D01*
G01*
G37*
%TD*%
%TO.C,R5*%
G36*
G01*
X103211000Y-114125999D02*
X103211000Y-115026001D01*
G75*
G02*
X102961001Y-115276000I-249999J0D01*
G01*
X102260999Y-115276000D01*
G75*
G02*
X102011000Y-115026001I0J249999D01*
G01*
X102011000Y-114125999D01*
G75*
G02*
X102260999Y-113876000I249999J0D01*
G01*
X102961001Y-113876000D01*
G75*
G02*
X103211000Y-114125999I0J-249999D01*
G01*
G37*
G36*
G01*
X105211000Y-114125999D02*
X105211000Y-115026001D01*
G75*
G02*
X104961001Y-115276000I-249999J0D01*
G01*
X104260999Y-115276000D01*
G75*
G02*
X104011000Y-115026001I0J249999D01*
G01*
X104011000Y-114125999D01*
G75*
G02*
X104260999Y-113876000I249999J0D01*
G01*
X104961001Y-113876000D01*
G75*
G02*
X105211000Y-114125999I0J-249999D01*
G01*
G37*
%TD*%
%TO.C,R4*%
G36*
G01*
X108580000Y-107784001D02*
X108580000Y-106883999D01*
G75*
G02*
X108829999Y-106634000I249999J0D01*
G01*
X109530001Y-106634000D01*
G75*
G02*
X109780000Y-106883999I0J-249999D01*
G01*
X109780000Y-107784001D01*
G75*
G02*
X109530001Y-108034000I-249999J0D01*
G01*
X108829999Y-108034000D01*
G75*
G02*
X108580000Y-107784001I0J249999D01*
G01*
G37*
G36*
G01*
X106580000Y-107784001D02*
X106580000Y-106883999D01*
G75*
G02*
X106829999Y-106634000I249999J0D01*
G01*
X107530001Y-106634000D01*
G75*
G02*
X107780000Y-106883999I0J-249999D01*
G01*
X107780000Y-107784001D01*
G75*
G02*
X107530001Y-108034000I-249999J0D01*
G01*
X106829999Y-108034000D01*
G75*
G02*
X106580000Y-107784001I0J249999D01*
G01*
G37*
%TD*%
%TO.C,R3*%
G36*
G01*
X108612001Y-92135000D02*
X107711999Y-92135000D01*
G75*
G02*
X107462000Y-91885001I0J249999D01*
G01*
X107462000Y-91184999D01*
G75*
G02*
X107711999Y-90935000I249999J0D01*
G01*
X108612001Y-90935000D01*
G75*
G02*
X108862000Y-91184999I0J-249999D01*
G01*
X108862000Y-91885001D01*
G75*
G02*
X108612001Y-92135000I-249999J0D01*
G01*
G37*
G36*
G01*
X108612001Y-94135000D02*
X107711999Y-94135000D01*
G75*
G02*
X107462000Y-93885001I0J249999D01*
G01*
X107462000Y-93184999D01*
G75*
G02*
X107711999Y-92935000I249999J0D01*
G01*
X108612001Y-92935000D01*
G75*
G02*
X108862000Y-93184999I0J-249999D01*
G01*
X108862000Y-93885001D01*
G75*
G02*
X108612001Y-94135000I-249999J0D01*
G01*
G37*
%TD*%
%TO.C,R2*%
G36*
G01*
X108575000Y-101855001D02*
X108575000Y-100954999D01*
G75*
G02*
X108824999Y-100705000I249999J0D01*
G01*
X109525001Y-100705000D01*
G75*
G02*
X109775000Y-100954999I0J-249999D01*
G01*
X109775000Y-101855001D01*
G75*
G02*
X109525001Y-102105000I-249999J0D01*
G01*
X108824999Y-102105000D01*
G75*
G02*
X108575000Y-101855001I0J249999D01*
G01*
G37*
G36*
G01*
X106575000Y-101855001D02*
X106575000Y-100954999D01*
G75*
G02*
X106824999Y-100705000I249999J0D01*
G01*
X107525001Y-100705000D01*
G75*
G02*
X107775000Y-100954999I0J-249999D01*
G01*
X107775000Y-101855001D01*
G75*
G02*
X107525001Y-102105000I-249999J0D01*
G01*
X106824999Y-102105000D01*
G75*
G02*
X106575000Y-101855001I0J249999D01*
G01*
G37*
%TD*%
%TO.C,R1*%
G36*
G01*
X101641999Y-97482000D02*
X102542001Y-97482000D01*
G75*
G02*
X102792000Y-97731999I0J-249999D01*
G01*
X102792000Y-98432001D01*
G75*
G02*
X102542001Y-98682000I-249999J0D01*
G01*
X101641999Y-98682000D01*
G75*
G02*
X101392000Y-98432001I0J249999D01*
G01*
X101392000Y-97731999D01*
G75*
G02*
X101641999Y-97482000I249999J0D01*
G01*
G37*
G36*
G01*
X101641999Y-95482000D02*
X102542001Y-95482000D01*
G75*
G02*
X102792000Y-95731999I0J-249999D01*
G01*
X102792000Y-96432001D01*
G75*
G02*
X102542001Y-96682000I-249999J0D01*
G01*
X101641999Y-96682000D01*
G75*
G02*
X101392000Y-96432001I0J249999D01*
G01*
X101392000Y-95731999D01*
G75*
G02*
X101641999Y-95482000I249999J0D01*
G01*
G37*
%TD*%
D10*
%TO.C,D6*%
X163743000Y-84763000D03*
X163743000Y-80763000D03*
%TD*%
%TO.C,D4*%
X91452000Y-108541000D03*
X91452000Y-112541000D03*
%TD*%
%TO.C,D3*%
X95652000Y-106600000D03*
X95652000Y-110600000D03*
%TD*%
%TO.C,D2*%
X91438000Y-101209000D03*
X91438000Y-105209000D03*
%TD*%
%TO.C,C48*%
G36*
G01*
X164362000Y-104790500D02*
X163412000Y-104790500D01*
G75*
G02*
X163162000Y-104540500I0J250000D01*
G01*
X163162000Y-103865500D01*
G75*
G02*
X163412000Y-103615500I250000J0D01*
G01*
X164362000Y-103615500D01*
G75*
G02*
X164612000Y-103865500I0J-250000D01*
G01*
X164612000Y-104540500D01*
G75*
G02*
X164362000Y-104790500I-250000J0D01*
G01*
G37*
G36*
G01*
X164362000Y-106865500D02*
X163412000Y-106865500D01*
G75*
G02*
X163162000Y-106615500I0J250000D01*
G01*
X163162000Y-105940500D01*
G75*
G02*
X163412000Y-105690500I250000J0D01*
G01*
X164362000Y-105690500D01*
G75*
G02*
X164612000Y-105940500I0J-250000D01*
G01*
X164612000Y-106615500D01*
G75*
G02*
X164362000Y-106865500I-250000J0D01*
G01*
G37*
%TD*%
%TO.C,C47*%
G36*
G01*
X116390000Y-99503000D02*
X116390000Y-98553000D01*
G75*
G02*
X116640000Y-98303000I250000J0D01*
G01*
X117315000Y-98303000D01*
G75*
G02*
X117565000Y-98553000I0J-250000D01*
G01*
X117565000Y-99503000D01*
G75*
G02*
X117315000Y-99753000I-250000J0D01*
G01*
X116640000Y-99753000D01*
G75*
G02*
X116390000Y-99503000I0J250000D01*
G01*
G37*
G36*
G01*
X114315000Y-99503000D02*
X114315000Y-98553000D01*
G75*
G02*
X114565000Y-98303000I250000J0D01*
G01*
X115240000Y-98303000D01*
G75*
G02*
X115490000Y-98553000I0J-250000D01*
G01*
X115490000Y-99503000D01*
G75*
G02*
X115240000Y-99753000I-250000J0D01*
G01*
X114565000Y-99753000D01*
G75*
G02*
X114315000Y-99503000I0J250000D01*
G01*
G37*
%TD*%
%TO.C,C46*%
G36*
G01*
X147227000Y-119136000D02*
X147227000Y-118186000D01*
G75*
G02*
X147477000Y-117936000I250000J0D01*
G01*
X148152000Y-117936000D01*
G75*
G02*
X148402000Y-118186000I0J-250000D01*
G01*
X148402000Y-119136000D01*
G75*
G02*
X148152000Y-119386000I-250000J0D01*
G01*
X147477000Y-119386000D01*
G75*
G02*
X147227000Y-119136000I0J250000D01*
G01*
G37*
G36*
G01*
X145152000Y-119136000D02*
X145152000Y-118186000D01*
G75*
G02*
X145402000Y-117936000I250000J0D01*
G01*
X146077000Y-117936000D01*
G75*
G02*
X146327000Y-118186000I0J-250000D01*
G01*
X146327000Y-119136000D01*
G75*
G02*
X146077000Y-119386000I-250000J0D01*
G01*
X145402000Y-119386000D01*
G75*
G02*
X145152000Y-119136000I0J250000D01*
G01*
G37*
%TD*%
%TO.C,C45*%
G36*
G01*
X129319000Y-65670000D02*
X128369000Y-65670000D01*
G75*
G02*
X128119000Y-65420000I0J250000D01*
G01*
X128119000Y-64745000D01*
G75*
G02*
X128369000Y-64495000I250000J0D01*
G01*
X129319000Y-64495000D01*
G75*
G02*
X129569000Y-64745000I0J-250000D01*
G01*
X129569000Y-65420000D01*
G75*
G02*
X129319000Y-65670000I-250000J0D01*
G01*
G37*
G36*
G01*
X129319000Y-67745000D02*
X128369000Y-67745000D01*
G75*
G02*
X128119000Y-67495000I0J250000D01*
G01*
X128119000Y-66820000D01*
G75*
G02*
X128369000Y-66570000I250000J0D01*
G01*
X129319000Y-66570000D01*
G75*
G02*
X129569000Y-66820000I0J-250000D01*
G01*
X129569000Y-67495000D01*
G75*
G02*
X129319000Y-67745000I-250000J0D01*
G01*
G37*
%TD*%
%TO.C,C44*%
G36*
G01*
X147254000Y-121216000D02*
X147254000Y-120266000D01*
G75*
G02*
X147504000Y-120016000I250000J0D01*
G01*
X148179000Y-120016000D01*
G75*
G02*
X148429000Y-120266000I0J-250000D01*
G01*
X148429000Y-121216000D01*
G75*
G02*
X148179000Y-121466000I-250000J0D01*
G01*
X147504000Y-121466000D01*
G75*
G02*
X147254000Y-121216000I0J250000D01*
G01*
G37*
G36*
G01*
X145179000Y-121216000D02*
X145179000Y-120266000D01*
G75*
G02*
X145429000Y-120016000I250000J0D01*
G01*
X146104000Y-120016000D01*
G75*
G02*
X146354000Y-120266000I0J-250000D01*
G01*
X146354000Y-121216000D01*
G75*
G02*
X146104000Y-121466000I-250000J0D01*
G01*
X145429000Y-121466000D01*
G75*
G02*
X145179000Y-121216000I0J250000D01*
G01*
G37*
%TD*%
%TO.C,C43*%
G36*
G01*
X122502000Y-82109000D02*
X123452000Y-82109000D01*
G75*
G02*
X123702000Y-82359000I0J-250000D01*
G01*
X123702000Y-83034000D01*
G75*
G02*
X123452000Y-83284000I-250000J0D01*
G01*
X122502000Y-83284000D01*
G75*
G02*
X122252000Y-83034000I0J250000D01*
G01*
X122252000Y-82359000D01*
G75*
G02*
X122502000Y-82109000I250000J0D01*
G01*
G37*
G36*
G01*
X122502000Y-80034000D02*
X123452000Y-80034000D01*
G75*
G02*
X123702000Y-80284000I0J-250000D01*
G01*
X123702000Y-80959000D01*
G75*
G02*
X123452000Y-81209000I-250000J0D01*
G01*
X122502000Y-81209000D01*
G75*
G02*
X122252000Y-80959000I0J250000D01*
G01*
X122252000Y-80284000D01*
G75*
G02*
X122502000Y-80034000I250000J0D01*
G01*
G37*
%TD*%
%TO.C,C42*%
G36*
G01*
X115972000Y-70478000D02*
X115022000Y-70478000D01*
G75*
G02*
X114772000Y-70228000I0J250000D01*
G01*
X114772000Y-69553000D01*
G75*
G02*
X115022000Y-69303000I250000J0D01*
G01*
X115972000Y-69303000D01*
G75*
G02*
X116222000Y-69553000I0J-250000D01*
G01*
X116222000Y-70228000D01*
G75*
G02*
X115972000Y-70478000I-250000J0D01*
G01*
G37*
G36*
G01*
X115972000Y-72553000D02*
X115022000Y-72553000D01*
G75*
G02*
X114772000Y-72303000I0J250000D01*
G01*
X114772000Y-71628000D01*
G75*
G02*
X115022000Y-71378000I250000J0D01*
G01*
X115972000Y-71378000D01*
G75*
G02*
X116222000Y-71628000I0J-250000D01*
G01*
X116222000Y-72303000D01*
G75*
G02*
X115972000Y-72553000I-250000J0D01*
G01*
G37*
%TD*%
%TO.C,C41*%
G36*
G01*
X115947000Y-77496000D02*
X114997000Y-77496000D01*
G75*
G02*
X114747000Y-77246000I0J250000D01*
G01*
X114747000Y-76571000D01*
G75*
G02*
X114997000Y-76321000I250000J0D01*
G01*
X115947000Y-76321000D01*
G75*
G02*
X116197000Y-76571000I0J-250000D01*
G01*
X116197000Y-77246000D01*
G75*
G02*
X115947000Y-77496000I-250000J0D01*
G01*
G37*
G36*
G01*
X115947000Y-79571000D02*
X114997000Y-79571000D01*
G75*
G02*
X114747000Y-79321000I0J250000D01*
G01*
X114747000Y-78646000D01*
G75*
G02*
X114997000Y-78396000I250000J0D01*
G01*
X115947000Y-78396000D01*
G75*
G02*
X116197000Y-78646000I0J-250000D01*
G01*
X116197000Y-79321000D01*
G75*
G02*
X115947000Y-79571000I-250000J0D01*
G01*
G37*
%TD*%
%TO.C,C40*%
G36*
G01*
X126889000Y-84345000D02*
X127839000Y-84345000D01*
G75*
G02*
X128089000Y-84595000I0J-250000D01*
G01*
X128089000Y-85270000D01*
G75*
G02*
X127839000Y-85520000I-250000J0D01*
G01*
X126889000Y-85520000D01*
G75*
G02*
X126639000Y-85270000I0J250000D01*
G01*
X126639000Y-84595000D01*
G75*
G02*
X126889000Y-84345000I250000J0D01*
G01*
G37*
G36*
G01*
X126889000Y-82270000D02*
X127839000Y-82270000D01*
G75*
G02*
X128089000Y-82520000I0J-250000D01*
G01*
X128089000Y-83195000D01*
G75*
G02*
X127839000Y-83445000I-250000J0D01*
G01*
X126889000Y-83445000D01*
G75*
G02*
X126639000Y-83195000I0J250000D01*
G01*
X126639000Y-82520000D01*
G75*
G02*
X126889000Y-82270000I250000J0D01*
G01*
G37*
%TD*%
%TO.C,C39*%
G36*
G01*
X151095000Y-119134000D02*
X151095000Y-118184000D01*
G75*
G02*
X151345000Y-117934000I250000J0D01*
G01*
X152020000Y-117934000D01*
G75*
G02*
X152270000Y-118184000I0J-250000D01*
G01*
X152270000Y-119134000D01*
G75*
G02*
X152020000Y-119384000I-250000J0D01*
G01*
X151345000Y-119384000D01*
G75*
G02*
X151095000Y-119134000I0J250000D01*
G01*
G37*
G36*
G01*
X149020000Y-119134000D02*
X149020000Y-118184000D01*
G75*
G02*
X149270000Y-117934000I250000J0D01*
G01*
X149945000Y-117934000D01*
G75*
G02*
X150195000Y-118184000I0J-250000D01*
G01*
X150195000Y-119134000D01*
G75*
G02*
X149945000Y-119384000I-250000J0D01*
G01*
X149270000Y-119384000D01*
G75*
G02*
X149020000Y-119134000I0J250000D01*
G01*
G37*
%TD*%
%TO.C,C38*%
G36*
G01*
X164390000Y-108791000D02*
X163440000Y-108791000D01*
G75*
G02*
X163190000Y-108541000I0J250000D01*
G01*
X163190000Y-107866000D01*
G75*
G02*
X163440000Y-107616000I250000J0D01*
G01*
X164390000Y-107616000D01*
G75*
G02*
X164640000Y-107866000I0J-250000D01*
G01*
X164640000Y-108541000D01*
G75*
G02*
X164390000Y-108791000I-250000J0D01*
G01*
G37*
G36*
G01*
X164390000Y-110866000D02*
X163440000Y-110866000D01*
G75*
G02*
X163190000Y-110616000I0J250000D01*
G01*
X163190000Y-109941000D01*
G75*
G02*
X163440000Y-109691000I250000J0D01*
G01*
X164390000Y-109691000D01*
G75*
G02*
X164640000Y-109941000I0J-250000D01*
G01*
X164640000Y-110616000D01*
G75*
G02*
X164390000Y-110866000I-250000J0D01*
G01*
G37*
%TD*%
%TO.C,C37*%
G36*
G01*
X157856000Y-119302000D02*
X158806000Y-119302000D01*
G75*
G02*
X159056000Y-119552000I0J-250000D01*
G01*
X159056000Y-120227000D01*
G75*
G02*
X158806000Y-120477000I-250000J0D01*
G01*
X157856000Y-120477000D01*
G75*
G02*
X157606000Y-120227000I0J250000D01*
G01*
X157606000Y-119552000D01*
G75*
G02*
X157856000Y-119302000I250000J0D01*
G01*
G37*
G36*
G01*
X157856000Y-117227000D02*
X158806000Y-117227000D01*
G75*
G02*
X159056000Y-117477000I0J-250000D01*
G01*
X159056000Y-118152000D01*
G75*
G02*
X158806000Y-118402000I-250000J0D01*
G01*
X157856000Y-118402000D01*
G75*
G02*
X157606000Y-118152000I0J250000D01*
G01*
X157606000Y-117477000D01*
G75*
G02*
X157856000Y-117227000I250000J0D01*
G01*
G37*
%TD*%
%TO.C,C36*%
G36*
G01*
X151146000Y-121230000D02*
X151146000Y-120280000D01*
G75*
G02*
X151396000Y-120030000I250000J0D01*
G01*
X152071000Y-120030000D01*
G75*
G02*
X152321000Y-120280000I0J-250000D01*
G01*
X152321000Y-121230000D01*
G75*
G02*
X152071000Y-121480000I-250000J0D01*
G01*
X151396000Y-121480000D01*
G75*
G02*
X151146000Y-121230000I0J250000D01*
G01*
G37*
G36*
G01*
X149071000Y-121230000D02*
X149071000Y-120280000D01*
G75*
G02*
X149321000Y-120030000I250000J0D01*
G01*
X149996000Y-120030000D01*
G75*
G02*
X150246000Y-120280000I0J-250000D01*
G01*
X150246000Y-121230000D01*
G75*
G02*
X149996000Y-121480000I-250000J0D01*
G01*
X149321000Y-121480000D01*
G75*
G02*
X149071000Y-121230000I0J250000D01*
G01*
G37*
%TD*%
%TO.C,C35*%
G36*
G01*
X124715000Y-83450000D02*
X125665000Y-83450000D01*
G75*
G02*
X125915000Y-83700000I0J-250000D01*
G01*
X125915000Y-84375000D01*
G75*
G02*
X125665000Y-84625000I-250000J0D01*
G01*
X124715000Y-84625000D01*
G75*
G02*
X124465000Y-84375000I0J250000D01*
G01*
X124465000Y-83700000D01*
G75*
G02*
X124715000Y-83450000I250000J0D01*
G01*
G37*
G36*
G01*
X124715000Y-81375000D02*
X125665000Y-81375000D01*
G75*
G02*
X125915000Y-81625000I0J-250000D01*
G01*
X125915000Y-82300000D01*
G75*
G02*
X125665000Y-82550000I-250000J0D01*
G01*
X124715000Y-82550000D01*
G75*
G02*
X124465000Y-82300000I0J250000D01*
G01*
X124465000Y-81625000D01*
G75*
G02*
X124715000Y-81375000I250000J0D01*
G01*
G37*
%TD*%
%TO.C,C34*%
G36*
G01*
X133269000Y-95272000D02*
X133269000Y-96222000D01*
G75*
G02*
X133019000Y-96472000I-250000J0D01*
G01*
X132344000Y-96472000D01*
G75*
G02*
X132094000Y-96222000I0J250000D01*
G01*
X132094000Y-95272000D01*
G75*
G02*
X132344000Y-95022000I250000J0D01*
G01*
X133019000Y-95022000D01*
G75*
G02*
X133269000Y-95272000I0J-250000D01*
G01*
G37*
G36*
G01*
X135344000Y-95272000D02*
X135344000Y-96222000D01*
G75*
G02*
X135094000Y-96472000I-250000J0D01*
G01*
X134419000Y-96472000D01*
G75*
G02*
X134169000Y-96222000I0J250000D01*
G01*
X134169000Y-95272000D01*
G75*
G02*
X134419000Y-95022000I250000J0D01*
G01*
X135094000Y-95022000D01*
G75*
G02*
X135344000Y-95272000I0J-250000D01*
G01*
G37*
%TD*%
%TO.C,C33*%
G36*
G01*
X141506000Y-104748000D02*
X142456000Y-104748000D01*
G75*
G02*
X142706000Y-104998000I0J-250000D01*
G01*
X142706000Y-105673000D01*
G75*
G02*
X142456000Y-105923000I-250000J0D01*
G01*
X141506000Y-105923000D01*
G75*
G02*
X141256000Y-105673000I0J250000D01*
G01*
X141256000Y-104998000D01*
G75*
G02*
X141506000Y-104748000I250000J0D01*
G01*
G37*
G36*
G01*
X141506000Y-102673000D02*
X142456000Y-102673000D01*
G75*
G02*
X142706000Y-102923000I0J-250000D01*
G01*
X142706000Y-103598000D01*
G75*
G02*
X142456000Y-103848000I-250000J0D01*
G01*
X141506000Y-103848000D01*
G75*
G02*
X141256000Y-103598000I0J250000D01*
G01*
X141256000Y-102923000D01*
G75*
G02*
X141506000Y-102673000I250000J0D01*
G01*
G37*
%TD*%
%TO.C,C32*%
G36*
G01*
X157567000Y-92672500D02*
X158517000Y-92672500D01*
G75*
G02*
X158767000Y-92922500I0J-250000D01*
G01*
X158767000Y-93597500D01*
G75*
G02*
X158517000Y-93847500I-250000J0D01*
G01*
X157567000Y-93847500D01*
G75*
G02*
X157317000Y-93597500I0J250000D01*
G01*
X157317000Y-92922500D01*
G75*
G02*
X157567000Y-92672500I250000J0D01*
G01*
G37*
G36*
G01*
X157567000Y-90597500D02*
X158517000Y-90597500D01*
G75*
G02*
X158767000Y-90847500I0J-250000D01*
G01*
X158767000Y-91522500D01*
G75*
G02*
X158517000Y-91772500I-250000J0D01*
G01*
X157567000Y-91772500D01*
G75*
G02*
X157317000Y-91522500I0J250000D01*
G01*
X157317000Y-90847500D01*
G75*
G02*
X157567000Y-90597500I250000J0D01*
G01*
G37*
%TD*%
%TO.C,C31*%
G36*
G01*
X142597000Y-82375000D02*
X141647000Y-82375000D01*
G75*
G02*
X141397000Y-82125000I0J250000D01*
G01*
X141397000Y-81450000D01*
G75*
G02*
X141647000Y-81200000I250000J0D01*
G01*
X142597000Y-81200000D01*
G75*
G02*
X142847000Y-81450000I0J-250000D01*
G01*
X142847000Y-82125000D01*
G75*
G02*
X142597000Y-82375000I-250000J0D01*
G01*
G37*
G36*
G01*
X142597000Y-84450000D02*
X141647000Y-84450000D01*
G75*
G02*
X141397000Y-84200000I0J250000D01*
G01*
X141397000Y-83525000D01*
G75*
G02*
X141647000Y-83275000I250000J0D01*
G01*
X142597000Y-83275000D01*
G75*
G02*
X142847000Y-83525000I0J-250000D01*
G01*
X142847000Y-84200000D01*
G75*
G02*
X142597000Y-84450000I-250000J0D01*
G01*
G37*
%TD*%
%TO.C,C30*%
G36*
G01*
X133479000Y-117250000D02*
X134429000Y-117250000D01*
G75*
G02*
X134679000Y-117500000I0J-250000D01*
G01*
X134679000Y-118175000D01*
G75*
G02*
X134429000Y-118425000I-250000J0D01*
G01*
X133479000Y-118425000D01*
G75*
G02*
X133229000Y-118175000I0J250000D01*
G01*
X133229000Y-117500000D01*
G75*
G02*
X133479000Y-117250000I250000J0D01*
G01*
G37*
G36*
G01*
X133479000Y-115175000D02*
X134429000Y-115175000D01*
G75*
G02*
X134679000Y-115425000I0J-250000D01*
G01*
X134679000Y-116100000D01*
G75*
G02*
X134429000Y-116350000I-250000J0D01*
G01*
X133479000Y-116350000D01*
G75*
G02*
X133229000Y-116100000I0J250000D01*
G01*
X133229000Y-115425000D01*
G75*
G02*
X133479000Y-115175000I250000J0D01*
G01*
G37*
%TD*%
%TO.C,C29*%
G36*
G01*
X143043000Y-110011000D02*
X143043000Y-109061000D01*
G75*
G02*
X143293000Y-108811000I250000J0D01*
G01*
X143968000Y-108811000D01*
G75*
G02*
X144218000Y-109061000I0J-250000D01*
G01*
X144218000Y-110011000D01*
G75*
G02*
X143968000Y-110261000I-250000J0D01*
G01*
X143293000Y-110261000D01*
G75*
G02*
X143043000Y-110011000I0J250000D01*
G01*
G37*
G36*
G01*
X140968000Y-110011000D02*
X140968000Y-109061000D01*
G75*
G02*
X141218000Y-108811000I250000J0D01*
G01*
X141893000Y-108811000D01*
G75*
G02*
X142143000Y-109061000I0J-250000D01*
G01*
X142143000Y-110011000D01*
G75*
G02*
X141893000Y-110261000I-250000J0D01*
G01*
X141218000Y-110261000D01*
G75*
G02*
X140968000Y-110011000I0J250000D01*
G01*
G37*
%TD*%
%TO.C,C27*%
G36*
G01*
X144667000Y-82372000D02*
X143717000Y-82372000D01*
G75*
G02*
X143467000Y-82122000I0J250000D01*
G01*
X143467000Y-81447000D01*
G75*
G02*
X143717000Y-81197000I250000J0D01*
G01*
X144667000Y-81197000D01*
G75*
G02*
X144917000Y-81447000I0J-250000D01*
G01*
X144917000Y-82122000D01*
G75*
G02*
X144667000Y-82372000I-250000J0D01*
G01*
G37*
G36*
G01*
X144667000Y-84447000D02*
X143717000Y-84447000D01*
G75*
G02*
X143467000Y-84197000I0J250000D01*
G01*
X143467000Y-83522000D01*
G75*
G02*
X143717000Y-83272000I250000J0D01*
G01*
X144667000Y-83272000D01*
G75*
G02*
X144917000Y-83522000I0J-250000D01*
G01*
X144917000Y-84197000D01*
G75*
G02*
X144667000Y-84447000I-250000J0D01*
G01*
G37*
%TD*%
%TO.C,C26*%
G36*
G01*
X106812500Y-97266000D02*
X106812500Y-98216000D01*
G75*
G02*
X106562500Y-98466000I-250000J0D01*
G01*
X105887500Y-98466000D01*
G75*
G02*
X105637500Y-98216000I0J250000D01*
G01*
X105637500Y-97266000D01*
G75*
G02*
X105887500Y-97016000I250000J0D01*
G01*
X106562500Y-97016000D01*
G75*
G02*
X106812500Y-97266000I0J-250000D01*
G01*
G37*
G36*
G01*
X108887500Y-97266000D02*
X108887500Y-98216000D01*
G75*
G02*
X108637500Y-98466000I-250000J0D01*
G01*
X107962500Y-98466000D01*
G75*
G02*
X107712500Y-98216000I0J250000D01*
G01*
X107712500Y-97266000D01*
G75*
G02*
X107962500Y-97016000I250000J0D01*
G01*
X108637500Y-97016000D01*
G75*
G02*
X108887500Y-97266000I0J-250000D01*
G01*
G37*
%TD*%
%TO.C,C25*%
G36*
G01*
X119357000Y-91319000D02*
X119357000Y-90369000D01*
G75*
G02*
X119607000Y-90119000I250000J0D01*
G01*
X120282000Y-90119000D01*
G75*
G02*
X120532000Y-90369000I0J-250000D01*
G01*
X120532000Y-91319000D01*
G75*
G02*
X120282000Y-91569000I-250000J0D01*
G01*
X119607000Y-91569000D01*
G75*
G02*
X119357000Y-91319000I0J250000D01*
G01*
G37*
G36*
G01*
X117282000Y-91319000D02*
X117282000Y-90369000D01*
G75*
G02*
X117532000Y-90119000I250000J0D01*
G01*
X118207000Y-90119000D01*
G75*
G02*
X118457000Y-90369000I0J-250000D01*
G01*
X118457000Y-91319000D01*
G75*
G02*
X118207000Y-91569000I-250000J0D01*
G01*
X117532000Y-91569000D01*
G75*
G02*
X117282000Y-91319000I0J250000D01*
G01*
G37*
%TD*%
%TO.C,C24*%
G36*
G01*
X151603000Y-102728000D02*
X152553000Y-102728000D01*
G75*
G02*
X152803000Y-102978000I0J-250000D01*
G01*
X152803000Y-103653000D01*
G75*
G02*
X152553000Y-103903000I-250000J0D01*
G01*
X151603000Y-103903000D01*
G75*
G02*
X151353000Y-103653000I0J250000D01*
G01*
X151353000Y-102978000D01*
G75*
G02*
X151603000Y-102728000I250000J0D01*
G01*
G37*
G36*
G01*
X151603000Y-100653000D02*
X152553000Y-100653000D01*
G75*
G02*
X152803000Y-100903000I0J-250000D01*
G01*
X152803000Y-101578000D01*
G75*
G02*
X152553000Y-101828000I-250000J0D01*
G01*
X151603000Y-101828000D01*
G75*
G02*
X151353000Y-101578000I0J250000D01*
G01*
X151353000Y-100903000D01*
G75*
G02*
X151603000Y-100653000I250000J0D01*
G01*
G37*
%TD*%
%TO.C,C22*%
G36*
G01*
X146726000Y-82355000D02*
X145776000Y-82355000D01*
G75*
G02*
X145526000Y-82105000I0J250000D01*
G01*
X145526000Y-81430000D01*
G75*
G02*
X145776000Y-81180000I250000J0D01*
G01*
X146726000Y-81180000D01*
G75*
G02*
X146976000Y-81430000I0J-250000D01*
G01*
X146976000Y-82105000D01*
G75*
G02*
X146726000Y-82355000I-250000J0D01*
G01*
G37*
G36*
G01*
X146726000Y-84430000D02*
X145776000Y-84430000D01*
G75*
G02*
X145526000Y-84180000I0J250000D01*
G01*
X145526000Y-83505000D01*
G75*
G02*
X145776000Y-83255000I250000J0D01*
G01*
X146726000Y-83255000D01*
G75*
G02*
X146976000Y-83505000I0J-250000D01*
G01*
X146976000Y-84180000D01*
G75*
G02*
X146726000Y-84430000I-250000J0D01*
G01*
G37*
%TD*%
%TO.C,C21*%
G36*
G01*
X149224000Y-61147000D02*
X150174000Y-61147000D01*
G75*
G02*
X150424000Y-61397000I0J-250000D01*
G01*
X150424000Y-62072000D01*
G75*
G02*
X150174000Y-62322000I-250000J0D01*
G01*
X149224000Y-62322000D01*
G75*
G02*
X148974000Y-62072000I0J250000D01*
G01*
X148974000Y-61397000D01*
G75*
G02*
X149224000Y-61147000I250000J0D01*
G01*
G37*
G36*
G01*
X149224000Y-59072000D02*
X150174000Y-59072000D01*
G75*
G02*
X150424000Y-59322000I0J-250000D01*
G01*
X150424000Y-59997000D01*
G75*
G02*
X150174000Y-60247000I-250000J0D01*
G01*
X149224000Y-60247000D01*
G75*
G02*
X148974000Y-59997000I0J250000D01*
G01*
X148974000Y-59322000D01*
G75*
G02*
X149224000Y-59072000I250000J0D01*
G01*
G37*
%TD*%
%TO.C,C20*%
G36*
G01*
X161940000Y-70071000D02*
X162890000Y-70071000D01*
G75*
G02*
X163140000Y-70321000I0J-250000D01*
G01*
X163140000Y-70996000D01*
G75*
G02*
X162890000Y-71246000I-250000J0D01*
G01*
X161940000Y-71246000D01*
G75*
G02*
X161690000Y-70996000I0J250000D01*
G01*
X161690000Y-70321000D01*
G75*
G02*
X161940000Y-70071000I250000J0D01*
G01*
G37*
G36*
G01*
X161940000Y-67996000D02*
X162890000Y-67996000D01*
G75*
G02*
X163140000Y-68246000I0J-250000D01*
G01*
X163140000Y-68921000D01*
G75*
G02*
X162890000Y-69171000I-250000J0D01*
G01*
X161940000Y-69171000D01*
G75*
G02*
X161690000Y-68921000I0J250000D01*
G01*
X161690000Y-68246000D01*
G75*
G02*
X161940000Y-67996000I250000J0D01*
G01*
G37*
%TD*%
%TO.C,C19*%
G36*
G01*
X168261000Y-67719000D02*
X169211000Y-67719000D01*
G75*
G02*
X169461000Y-67969000I0J-250000D01*
G01*
X169461000Y-68644000D01*
G75*
G02*
X169211000Y-68894000I-250000J0D01*
G01*
X168261000Y-68894000D01*
G75*
G02*
X168011000Y-68644000I0J250000D01*
G01*
X168011000Y-67969000D01*
G75*
G02*
X168261000Y-67719000I250000J0D01*
G01*
G37*
G36*
G01*
X168261000Y-65644000D02*
X169211000Y-65644000D01*
G75*
G02*
X169461000Y-65894000I0J-250000D01*
G01*
X169461000Y-66569000D01*
G75*
G02*
X169211000Y-66819000I-250000J0D01*
G01*
X168261000Y-66819000D01*
G75*
G02*
X168011000Y-66569000I0J250000D01*
G01*
X168011000Y-65894000D01*
G75*
G02*
X168261000Y-65644000I250000J0D01*
G01*
G37*
%TD*%
%TO.C,C18*%
G36*
G01*
X147156000Y-61148000D02*
X148106000Y-61148000D01*
G75*
G02*
X148356000Y-61398000I0J-250000D01*
G01*
X148356000Y-62073000D01*
G75*
G02*
X148106000Y-62323000I-250000J0D01*
G01*
X147156000Y-62323000D01*
G75*
G02*
X146906000Y-62073000I0J250000D01*
G01*
X146906000Y-61398000D01*
G75*
G02*
X147156000Y-61148000I250000J0D01*
G01*
G37*
G36*
G01*
X147156000Y-59073000D02*
X148106000Y-59073000D01*
G75*
G02*
X148356000Y-59323000I0J-250000D01*
G01*
X148356000Y-59998000D01*
G75*
G02*
X148106000Y-60248000I-250000J0D01*
G01*
X147156000Y-60248000D01*
G75*
G02*
X146906000Y-59998000I0J250000D01*
G01*
X146906000Y-59323000D01*
G75*
G02*
X147156000Y-59073000I250000J0D01*
G01*
G37*
%TD*%
%TO.C,C17*%
G36*
G01*
X140536000Y-82387000D02*
X139586000Y-82387000D01*
G75*
G02*
X139336000Y-82137000I0J250000D01*
G01*
X139336000Y-81462000D01*
G75*
G02*
X139586000Y-81212000I250000J0D01*
G01*
X140536000Y-81212000D01*
G75*
G02*
X140786000Y-81462000I0J-250000D01*
G01*
X140786000Y-82137000D01*
G75*
G02*
X140536000Y-82387000I-250000J0D01*
G01*
G37*
G36*
G01*
X140536000Y-84462000D02*
X139586000Y-84462000D01*
G75*
G02*
X139336000Y-84212000I0J250000D01*
G01*
X139336000Y-83537000D01*
G75*
G02*
X139586000Y-83287000I250000J0D01*
G01*
X140536000Y-83287000D01*
G75*
G02*
X140786000Y-83537000I0J-250000D01*
G01*
X140786000Y-84212000D01*
G75*
G02*
X140536000Y-84462000I-250000J0D01*
G01*
G37*
%TD*%
%TO.C,C16*%
G36*
G01*
X118856000Y-62671000D02*
X117906000Y-62671000D01*
G75*
G02*
X117656000Y-62421000I0J250000D01*
G01*
X117656000Y-61746000D01*
G75*
G02*
X117906000Y-61496000I250000J0D01*
G01*
X118856000Y-61496000D01*
G75*
G02*
X119106000Y-61746000I0J-250000D01*
G01*
X119106000Y-62421000D01*
G75*
G02*
X118856000Y-62671000I-250000J0D01*
G01*
G37*
G36*
G01*
X118856000Y-64746000D02*
X117906000Y-64746000D01*
G75*
G02*
X117656000Y-64496000I0J250000D01*
G01*
X117656000Y-63821000D01*
G75*
G02*
X117906000Y-63571000I250000J0D01*
G01*
X118856000Y-63571000D01*
G75*
G02*
X119106000Y-63821000I0J-250000D01*
G01*
X119106000Y-64496000D01*
G75*
G02*
X118856000Y-64746000I-250000J0D01*
G01*
G37*
%TD*%
%TO.C,C15*%
G36*
G01*
X156801000Y-109601000D02*
X155851000Y-109601000D01*
G75*
G02*
X155601000Y-109351000I0J250000D01*
G01*
X155601000Y-108676000D01*
G75*
G02*
X155851000Y-108426000I250000J0D01*
G01*
X156801000Y-108426000D01*
G75*
G02*
X157051000Y-108676000I0J-250000D01*
G01*
X157051000Y-109351000D01*
G75*
G02*
X156801000Y-109601000I-250000J0D01*
G01*
G37*
G36*
G01*
X156801000Y-111676000D02*
X155851000Y-111676000D01*
G75*
G02*
X155601000Y-111426000I0J250000D01*
G01*
X155601000Y-110751000D01*
G75*
G02*
X155851000Y-110501000I250000J0D01*
G01*
X156801000Y-110501000D01*
G75*
G02*
X157051000Y-110751000I0J-250000D01*
G01*
X157051000Y-111426000D01*
G75*
G02*
X156801000Y-111676000I-250000J0D01*
G01*
G37*
%TD*%
%TO.C,C14*%
G36*
G01*
X146219000Y-97709000D02*
X146219000Y-96759000D01*
G75*
G02*
X146469000Y-96509000I250000J0D01*
G01*
X147144000Y-96509000D01*
G75*
G02*
X147394000Y-96759000I0J-250000D01*
G01*
X147394000Y-97709000D01*
G75*
G02*
X147144000Y-97959000I-250000J0D01*
G01*
X146469000Y-97959000D01*
G75*
G02*
X146219000Y-97709000I0J250000D01*
G01*
G37*
G36*
G01*
X144144000Y-97709000D02*
X144144000Y-96759000D01*
G75*
G02*
X144394000Y-96509000I250000J0D01*
G01*
X145069000Y-96509000D01*
G75*
G02*
X145319000Y-96759000I0J-250000D01*
G01*
X145319000Y-97709000D01*
G75*
G02*
X145069000Y-97959000I-250000J0D01*
G01*
X144394000Y-97959000D01*
G75*
G02*
X144144000Y-97709000I0J250000D01*
G01*
G37*
%TD*%
%TO.C,C13*%
G36*
G01*
X111887000Y-64477000D02*
X110937000Y-64477000D01*
G75*
G02*
X110687000Y-64227000I0J250000D01*
G01*
X110687000Y-63552000D01*
G75*
G02*
X110937000Y-63302000I250000J0D01*
G01*
X111887000Y-63302000D01*
G75*
G02*
X112137000Y-63552000I0J-250000D01*
G01*
X112137000Y-64227000D01*
G75*
G02*
X111887000Y-64477000I-250000J0D01*
G01*
G37*
G36*
G01*
X111887000Y-66552000D02*
X110937000Y-66552000D01*
G75*
G02*
X110687000Y-66302000I0J250000D01*
G01*
X110687000Y-65627000D01*
G75*
G02*
X110937000Y-65377000I250000J0D01*
G01*
X111887000Y-65377000D01*
G75*
G02*
X112137000Y-65627000I0J-250000D01*
G01*
X112137000Y-66302000D01*
G75*
G02*
X111887000Y-66552000I-250000J0D01*
G01*
G37*
%TD*%
%TO.C,C12*%
G36*
G01*
X108848000Y-64553000D02*
X107898000Y-64553000D01*
G75*
G02*
X107648000Y-64303000I0J250000D01*
G01*
X107648000Y-63628000D01*
G75*
G02*
X107898000Y-63378000I250000J0D01*
G01*
X108848000Y-63378000D01*
G75*
G02*
X109098000Y-63628000I0J-250000D01*
G01*
X109098000Y-64303000D01*
G75*
G02*
X108848000Y-64553000I-250000J0D01*
G01*
G37*
G36*
G01*
X108848000Y-66628000D02*
X107898000Y-66628000D01*
G75*
G02*
X107648000Y-66378000I0J250000D01*
G01*
X107648000Y-65703000D01*
G75*
G02*
X107898000Y-65453000I250000J0D01*
G01*
X108848000Y-65453000D01*
G75*
G02*
X109098000Y-65703000I0J-250000D01*
G01*
X109098000Y-66378000D01*
G75*
G02*
X108848000Y-66628000I-250000J0D01*
G01*
G37*
%TD*%
%TO.C,C11*%
G36*
G01*
X119792000Y-120772000D02*
X118842000Y-120772000D01*
G75*
G02*
X118592000Y-120522000I0J250000D01*
G01*
X118592000Y-119847000D01*
G75*
G02*
X118842000Y-119597000I250000J0D01*
G01*
X119792000Y-119597000D01*
G75*
G02*
X120042000Y-119847000I0J-250000D01*
G01*
X120042000Y-120522000D01*
G75*
G02*
X119792000Y-120772000I-250000J0D01*
G01*
G37*
G36*
G01*
X119792000Y-122847000D02*
X118842000Y-122847000D01*
G75*
G02*
X118592000Y-122597000I0J250000D01*
G01*
X118592000Y-121922000D01*
G75*
G02*
X118842000Y-121672000I250000J0D01*
G01*
X119792000Y-121672000D01*
G75*
G02*
X120042000Y-121922000I0J-250000D01*
G01*
X120042000Y-122597000D01*
G75*
G02*
X119792000Y-122847000I-250000J0D01*
G01*
G37*
%TD*%
%TO.C,C10*%
G36*
G01*
X105056000Y-65727000D02*
X104106000Y-65727000D01*
G75*
G02*
X103856000Y-65477000I0J250000D01*
G01*
X103856000Y-64802000D01*
G75*
G02*
X104106000Y-64552000I250000J0D01*
G01*
X105056000Y-64552000D01*
G75*
G02*
X105306000Y-64802000I0J-250000D01*
G01*
X105306000Y-65477000D01*
G75*
G02*
X105056000Y-65727000I-250000J0D01*
G01*
G37*
G36*
G01*
X105056000Y-67802000D02*
X104106000Y-67802000D01*
G75*
G02*
X103856000Y-67552000I0J250000D01*
G01*
X103856000Y-66877000D01*
G75*
G02*
X104106000Y-66627000I250000J0D01*
G01*
X105056000Y-66627000D01*
G75*
G02*
X105306000Y-66877000I0J-250000D01*
G01*
X105306000Y-67552000D01*
G75*
G02*
X105056000Y-67802000I-250000J0D01*
G01*
G37*
%TD*%
%TO.C,C9*%
G36*
G01*
X155016000Y-66428000D02*
X155016000Y-65478000D01*
G75*
G02*
X155266000Y-65228000I250000J0D01*
G01*
X155941000Y-65228000D01*
G75*
G02*
X156191000Y-65478000I0J-250000D01*
G01*
X156191000Y-66428000D01*
G75*
G02*
X155941000Y-66678000I-250000J0D01*
G01*
X155266000Y-66678000D01*
G75*
G02*
X155016000Y-66428000I0J250000D01*
G01*
G37*
G36*
G01*
X152941000Y-66428000D02*
X152941000Y-65478000D01*
G75*
G02*
X153191000Y-65228000I250000J0D01*
G01*
X153866000Y-65228000D01*
G75*
G02*
X154116000Y-65478000I0J-250000D01*
G01*
X154116000Y-66428000D01*
G75*
G02*
X153866000Y-66678000I-250000J0D01*
G01*
X153191000Y-66678000D01*
G75*
G02*
X152941000Y-66428000I0J250000D01*
G01*
G37*
%TD*%
%TO.C,C8*%
G36*
G01*
X159882000Y-70071000D02*
X160832000Y-70071000D01*
G75*
G02*
X161082000Y-70321000I0J-250000D01*
G01*
X161082000Y-70996000D01*
G75*
G02*
X160832000Y-71246000I-250000J0D01*
G01*
X159882000Y-71246000D01*
G75*
G02*
X159632000Y-70996000I0J250000D01*
G01*
X159632000Y-70321000D01*
G75*
G02*
X159882000Y-70071000I250000J0D01*
G01*
G37*
G36*
G01*
X159882000Y-67996000D02*
X160832000Y-67996000D01*
G75*
G02*
X161082000Y-68246000I0J-250000D01*
G01*
X161082000Y-68921000D01*
G75*
G02*
X160832000Y-69171000I-250000J0D01*
G01*
X159882000Y-69171000D01*
G75*
G02*
X159632000Y-68921000I0J250000D01*
G01*
X159632000Y-68246000D01*
G75*
G02*
X159882000Y-67996000I250000J0D01*
G01*
G37*
%TD*%
%TO.C,C7*%
G36*
G01*
X111599000Y-108947000D02*
X111599000Y-109897000D01*
G75*
G02*
X111349000Y-110147000I-250000J0D01*
G01*
X110674000Y-110147000D01*
G75*
G02*
X110424000Y-109897000I0J250000D01*
G01*
X110424000Y-108947000D01*
G75*
G02*
X110674000Y-108697000I250000J0D01*
G01*
X111349000Y-108697000D01*
G75*
G02*
X111599000Y-108947000I0J-250000D01*
G01*
G37*
G36*
G01*
X113674000Y-108947000D02*
X113674000Y-109897000D01*
G75*
G02*
X113424000Y-110147000I-250000J0D01*
G01*
X112749000Y-110147000D01*
G75*
G02*
X112499000Y-109897000I0J250000D01*
G01*
X112499000Y-108947000D01*
G75*
G02*
X112749000Y-108697000I250000J0D01*
G01*
X113424000Y-108697000D01*
G75*
G02*
X113674000Y-108947000I0J-250000D01*
G01*
G37*
%TD*%
%TO.C,C6*%
G36*
G01*
X109598500Y-114001000D02*
X109598500Y-114951000D01*
G75*
G02*
X109348500Y-115201000I-250000J0D01*
G01*
X108673500Y-115201000D01*
G75*
G02*
X108423500Y-114951000I0J250000D01*
G01*
X108423500Y-114001000D01*
G75*
G02*
X108673500Y-113751000I250000J0D01*
G01*
X109348500Y-113751000D01*
G75*
G02*
X109598500Y-114001000I0J-250000D01*
G01*
G37*
G36*
G01*
X111673500Y-114001000D02*
X111673500Y-114951000D01*
G75*
G02*
X111423500Y-115201000I-250000J0D01*
G01*
X110748500Y-115201000D01*
G75*
G02*
X110498500Y-114951000I0J250000D01*
G01*
X110498500Y-114001000D01*
G75*
G02*
X110748500Y-113751000I250000J0D01*
G01*
X111423500Y-113751000D01*
G75*
G02*
X111673500Y-114001000I0J-250000D01*
G01*
G37*
%TD*%
%TO.C,C5*%
G36*
G01*
X102266000Y-65722000D02*
X101316000Y-65722000D01*
G75*
G02*
X101066000Y-65472000I0J250000D01*
G01*
X101066000Y-64797000D01*
G75*
G02*
X101316000Y-64547000I250000J0D01*
G01*
X102266000Y-64547000D01*
G75*
G02*
X102516000Y-64797000I0J-250000D01*
G01*
X102516000Y-65472000D01*
G75*
G02*
X102266000Y-65722000I-250000J0D01*
G01*
G37*
G36*
G01*
X102266000Y-67797000D02*
X101316000Y-67797000D01*
G75*
G02*
X101066000Y-67547000I0J250000D01*
G01*
X101066000Y-66872000D01*
G75*
G02*
X101316000Y-66622000I250000J0D01*
G01*
X102266000Y-66622000D01*
G75*
G02*
X102516000Y-66872000I0J-250000D01*
G01*
X102516000Y-67547000D01*
G75*
G02*
X102266000Y-67797000I-250000J0D01*
G01*
G37*
%TD*%
%TO.C,C4*%
G36*
G01*
X176588000Y-58683000D02*
X175638000Y-58683000D01*
G75*
G02*
X175388000Y-58433000I0J250000D01*
G01*
X175388000Y-57758000D01*
G75*
G02*
X175638000Y-57508000I250000J0D01*
G01*
X176588000Y-57508000D01*
G75*
G02*
X176838000Y-57758000I0J-250000D01*
G01*
X176838000Y-58433000D01*
G75*
G02*
X176588000Y-58683000I-250000J0D01*
G01*
G37*
G36*
G01*
X176588000Y-60758000D02*
X175638000Y-60758000D01*
G75*
G02*
X175388000Y-60508000I0J250000D01*
G01*
X175388000Y-59833000D01*
G75*
G02*
X175638000Y-59583000I250000J0D01*
G01*
X176588000Y-59583000D01*
G75*
G02*
X176838000Y-59833000I0J-250000D01*
G01*
X176838000Y-60508000D01*
G75*
G02*
X176588000Y-60758000I-250000J0D01*
G01*
G37*
%TD*%
%TO.C,C3*%
G36*
G01*
X109797000Y-72112000D02*
X110747000Y-72112000D01*
G75*
G02*
X110997000Y-72362000I0J-250000D01*
G01*
X110997000Y-73037000D01*
G75*
G02*
X110747000Y-73287000I-250000J0D01*
G01*
X109797000Y-73287000D01*
G75*
G02*
X109547000Y-73037000I0J250000D01*
G01*
X109547000Y-72362000D01*
G75*
G02*
X109797000Y-72112000I250000J0D01*
G01*
G37*
G36*
G01*
X109797000Y-70037000D02*
X110747000Y-70037000D01*
G75*
G02*
X110997000Y-70287000I0J-250000D01*
G01*
X110997000Y-70962000D01*
G75*
G02*
X110747000Y-71212000I-250000J0D01*
G01*
X109797000Y-71212000D01*
G75*
G02*
X109547000Y-70962000I0J250000D01*
G01*
X109547000Y-70287000D01*
G75*
G02*
X109797000Y-70037000I250000J0D01*
G01*
G37*
%TD*%
%TO.C,C2*%
G36*
G01*
X121507000Y-62610000D02*
X120557000Y-62610000D01*
G75*
G02*
X120307000Y-62360000I0J250000D01*
G01*
X120307000Y-61685000D01*
G75*
G02*
X120557000Y-61435000I250000J0D01*
G01*
X121507000Y-61435000D01*
G75*
G02*
X121757000Y-61685000I0J-250000D01*
G01*
X121757000Y-62360000D01*
G75*
G02*
X121507000Y-62610000I-250000J0D01*
G01*
G37*
G36*
G01*
X121507000Y-64685000D02*
X120557000Y-64685000D01*
G75*
G02*
X120307000Y-64435000I0J250000D01*
G01*
X120307000Y-63760000D01*
G75*
G02*
X120557000Y-63510000I250000J0D01*
G01*
X121507000Y-63510000D01*
G75*
G02*
X121757000Y-63760000I0J-250000D01*
G01*
X121757000Y-64435000D01*
G75*
G02*
X121507000Y-64685000I-250000J0D01*
G01*
G37*
%TD*%
%TO.C,C1*%
G36*
G01*
X121553000Y-102800000D02*
X121553000Y-101850000D01*
G75*
G02*
X121803000Y-101600000I250000J0D01*
G01*
X122478000Y-101600000D01*
G75*
G02*
X122728000Y-101850000I0J-250000D01*
G01*
X122728000Y-102800000D01*
G75*
G02*
X122478000Y-103050000I-250000J0D01*
G01*
X121803000Y-103050000D01*
G75*
G02*
X121553000Y-102800000I0J250000D01*
G01*
G37*
G36*
G01*
X119478000Y-102800000D02*
X119478000Y-101850000D01*
G75*
G02*
X119728000Y-101600000I250000J0D01*
G01*
X120403000Y-101600000D01*
G75*
G02*
X120653000Y-101850000I0J-250000D01*
G01*
X120653000Y-102800000D01*
G75*
G02*
X120403000Y-103050000I-250000J0D01*
G01*
X119728000Y-103050000D01*
G75*
G02*
X119478000Y-102800000I0J250000D01*
G01*
G37*
%TD*%
M02*
