%FSLAX45Y45*%
G04 Gerber Fmt 4.5, Leading zero omitted, Abs format (unit mm)*
G04 Created by KiCad (PCBNEW 5.1.8-5.1.8) date 2022-02-25 22:11:30*
%MOMM*%
%LPD*%
G01*
G04 APERTURE LIST*
%TA.AperFunction,Profile*%
%ADD10C,0.050000*%
%TD*%
%ADD11C,0.200000*%
%ADD12C,0.300000*%
G04 APERTURE END LIST*
D10*
X8100000Y-15000000D02*
X8100000Y-5000000D01*
X18100000Y-15000000D02*
X8100000Y-15000000D01*
X18100000Y-5000000D02*
X18100000Y-15000000D01*
X8100000Y-5000000D02*
X18100000Y-5000000D01*
D11*
X10393000Y-5693000D02*
X10433000Y-5733000D01*
X10433000Y-5693000D02*
X10393000Y-5733000D01*
X10616000Y-5641000D02*
X10656000Y-5681000D01*
X10656000Y-5641000D02*
X10616000Y-5681000D01*
X10742000Y-6063000D02*
X10782000Y-6103000D01*
X10782000Y-6063000D02*
X10742000Y-6103000D01*
X10950200Y-9842400D02*
X10990200Y-9882400D01*
X10990200Y-9842400D02*
X10950200Y-9882400D01*
X11087900Y-11548100D02*
X11127900Y-11588100D01*
X11127900Y-11548100D02*
X11087900Y-11588100D01*
X11106000Y-6819000D02*
X11146000Y-6859000D01*
X11146000Y-6819000D02*
X11106000Y-6859000D01*
X11250700Y-9499400D02*
X11290700Y-9539400D01*
X11290700Y-9499400D02*
X11250700Y-9539400D01*
X11338900Y-10230400D02*
X11378900Y-10270400D01*
X11378900Y-10230400D02*
X11338900Y-10270400D01*
X11362100Y-9229900D02*
X11402100Y-9269900D01*
X11402100Y-9229900D02*
X11362100Y-9269900D01*
X11461000Y-8430000D02*
X11501000Y-8470000D01*
X11501000Y-8430000D02*
X11461000Y-8470000D01*
X11464800Y-10216600D02*
X11504800Y-10256600D01*
X11504800Y-10216600D02*
X11464800Y-10256600D01*
X11498700Y-10481500D02*
X11538700Y-10521500D01*
X11538700Y-10481500D02*
X11498700Y-10521500D01*
X11586000Y-5555000D02*
X11626000Y-5595000D01*
X11626000Y-5555000D02*
X11586000Y-5595000D01*
X11588700Y-10703300D02*
X11628700Y-10743300D01*
X11628700Y-10703300D02*
X11588700Y-10743300D01*
X11647800Y-10342900D02*
X11687800Y-10382900D01*
X11687800Y-10342900D02*
X11647800Y-10382900D01*
X11650300Y-10452700D02*
X11690300Y-10492700D01*
X11690300Y-10452700D02*
X11650300Y-10492700D01*
X11735000Y-7446000D02*
X11775000Y-7486000D01*
X11775000Y-7446000D02*
X11735000Y-7486000D01*
X11770000Y-8532000D02*
X11810000Y-8572000D01*
X11810000Y-8532000D02*
X11770000Y-8572000D01*
X11874100Y-9364700D02*
X11914100Y-9404700D01*
X11914100Y-9364700D02*
X11874100Y-9404700D01*
X11900500Y-9687000D02*
X11940500Y-9727000D01*
X11940500Y-9687000D02*
X11900500Y-9727000D01*
X11911000Y-9985500D02*
X11951000Y-10025500D01*
X11951000Y-9985500D02*
X11911000Y-10025500D01*
X11960000Y-5886000D02*
X12000000Y-5926000D01*
X12000000Y-5886000D02*
X11960000Y-5926000D01*
X12010000Y-8637000D02*
X12050000Y-8677000D01*
X12050000Y-8637000D02*
X12010000Y-8677000D01*
X12133000Y-5872000D02*
X12173000Y-5912000D01*
X12173000Y-5872000D02*
X12133000Y-5912000D01*
X12320000Y-8828000D02*
X12360000Y-8868000D01*
X12360000Y-8828000D02*
X12320000Y-8868000D01*
X12663000Y-6090000D02*
X12703000Y-6130000D01*
X12703000Y-6090000D02*
X12663000Y-6130000D01*
X12684000Y-5772000D02*
X12724000Y-5812000D01*
X12724000Y-5772000D02*
X12684000Y-5812000D01*
X12713000Y-12126000D02*
X12753000Y-12166000D01*
X12753000Y-12126000D02*
X12713000Y-12166000D01*
X12760000Y-7488000D02*
X12800000Y-7528000D01*
X12800000Y-7488000D02*
X12760000Y-7528000D01*
X13018000Y-7490000D02*
X13058000Y-7530000D01*
X13058000Y-7490000D02*
X13018000Y-7530000D01*
X13046000Y-6145000D02*
X13086000Y-6185000D01*
X13086000Y-6145000D02*
X13046000Y-6185000D01*
X13155000Y-6315000D02*
X13195000Y-6355000D01*
X13195000Y-6315000D02*
X13155000Y-6355000D01*
X13212200Y-5545100D02*
X13252200Y-5585100D01*
X13252200Y-5545100D02*
X13212200Y-5585100D01*
X13233000Y-7307000D02*
X13273000Y-7347000D01*
X13273000Y-7307000D02*
X13233000Y-7347000D01*
X13407000Y-9800000D02*
X13447000Y-9840000D01*
X13447000Y-9800000D02*
X13407000Y-9840000D01*
X13468000Y-10765000D02*
X13508000Y-10805000D01*
X13508000Y-10765000D02*
X13468000Y-10805000D01*
X13496000Y-10531000D02*
X13536000Y-10571000D01*
X13536000Y-10531000D02*
X13496000Y-10571000D01*
X13507000Y-12125000D02*
X13547000Y-12165000D01*
X13547000Y-12125000D02*
X13507000Y-12165000D01*
X13580000Y-6215000D02*
X13620000Y-6255000D01*
X13620000Y-6215000D02*
X13580000Y-6255000D01*
X13619900Y-11022000D02*
X13659900Y-11062000D01*
X13659900Y-11022000D02*
X13619900Y-11062000D01*
X13670300Y-11169000D02*
X13710300Y-11209000D01*
X13710300Y-11169000D02*
X13670300Y-11209000D01*
X13686000Y-6042000D02*
X13726000Y-6082000D01*
X13726000Y-6042000D02*
X13686000Y-6082000D01*
X13690000Y-9812000D02*
X13730000Y-9852000D01*
X13730000Y-9812000D02*
X13690000Y-9852000D01*
X13781000Y-6134000D02*
X13821000Y-6174000D01*
X13821000Y-6134000D02*
X13781000Y-6174000D01*
X14147200Y-5639300D02*
X14187200Y-5679300D01*
X14187200Y-5639300D02*
X14147200Y-5679300D01*
X14147200Y-5823700D02*
X14187200Y-5863700D01*
X14187200Y-5823700D02*
X14147200Y-5863700D01*
X14181300Y-5940700D02*
X14221300Y-5980700D01*
X14221300Y-5940700D02*
X14181300Y-5980700D01*
X14666000Y-11317000D02*
X14706000Y-11357000D01*
X14706000Y-11317000D02*
X14666000Y-11357000D01*
X14689000Y-8547000D02*
X14729000Y-8587000D01*
X14729000Y-8547000D02*
X14689000Y-8587000D01*
X14746000Y-6335000D02*
X14786000Y-6375000D01*
X14786000Y-6335000D02*
X14746000Y-6375000D01*
X14780000Y-10376000D02*
X14820000Y-10416000D01*
X14820000Y-10376000D02*
X14780000Y-10416000D01*
X14808000Y-8804000D02*
X14848000Y-8844000D01*
X14848000Y-8804000D02*
X14808000Y-8844000D01*
X14898300Y-9773200D02*
X14938300Y-9813200D01*
X14938300Y-9773200D02*
X14898300Y-9813200D01*
X14936000Y-11024000D02*
X14976000Y-11064000D01*
X14976000Y-11024000D02*
X14936000Y-11064000D01*
X14952400Y-9580000D02*
X14992400Y-9620000D01*
X14992400Y-9580000D02*
X14952400Y-9620000D01*
X15059000Y-11440000D02*
X15099000Y-11480000D01*
X15099000Y-11440000D02*
X15059000Y-11480000D01*
X15189000Y-10794000D02*
X15229000Y-10834000D01*
X15229000Y-10794000D02*
X15189000Y-10834000D01*
X15809000Y-8828000D02*
X15849000Y-8868000D01*
X15849000Y-8828000D02*
X15809000Y-8868000D01*
X16065000Y-10331000D02*
X16105000Y-10371000D01*
X16105000Y-10331000D02*
X16065000Y-10371000D01*
X16136000Y-5870000D02*
X16176000Y-5910000D01*
X16176000Y-5870000D02*
X16136000Y-5910000D01*
X16285000Y-8860000D02*
X16325000Y-8900000D01*
X16325000Y-8860000D02*
X16285000Y-8900000D01*
X16470000Y-5846000D02*
X16510000Y-5886000D01*
X16510000Y-5846000D02*
X16470000Y-5886000D01*
X16543000Y-11194000D02*
X16583000Y-11234000D01*
X16583000Y-11194000D02*
X16543000Y-11234000D01*
X16546000Y-9498000D02*
X16586000Y-9538000D01*
X16586000Y-9498000D02*
X16546000Y-9538000D01*
X16549000Y-10995000D02*
X16589000Y-11035000D01*
X16589000Y-10995000D02*
X16549000Y-11035000D01*
X16561000Y-11857000D02*
X16601000Y-11897000D01*
X16601000Y-11857000D02*
X16561000Y-11897000D01*
X16574000Y-10450000D02*
X16614000Y-10490000D01*
X16614000Y-10450000D02*
X16574000Y-10490000D01*
X16619000Y-12028000D02*
X16659000Y-12068000D01*
X16659000Y-12028000D02*
X16619000Y-12068000D01*
X16719000Y-11854000D02*
X16759000Y-11894000D01*
X16759000Y-11854000D02*
X16719000Y-11894000D01*
X16801000Y-9708000D02*
X16841000Y-9748000D01*
X16841000Y-9708000D02*
X16801000Y-9748000D01*
X16873000Y-10495000D02*
X16913000Y-10535000D01*
X16913000Y-10495000D02*
X16873000Y-10535000D01*
X16966000Y-9472000D02*
X17006000Y-9512000D01*
X17006000Y-9472000D02*
X16966000Y-9512000D01*
X17046000Y-12136000D02*
X17086000Y-12176000D01*
X17086000Y-12136000D02*
X17046000Y-12176000D01*
X17082000Y-10100000D02*
X17122000Y-10140000D01*
X17122000Y-10100000D02*
X17082000Y-10140000D01*
X17115000Y-8959000D02*
X17155000Y-8999000D01*
X17155000Y-8959000D02*
X17115000Y-8999000D01*
X17311000Y-12136000D02*
X17351000Y-12176000D01*
X17351000Y-12136000D02*
X17311000Y-12176000D01*
X17317000Y-8770000D02*
X17357000Y-8810000D01*
X17357000Y-8770000D02*
X17317000Y-8810000D01*
X17405000Y-11107000D02*
X17445000Y-11147000D01*
X17445000Y-11107000D02*
X17405000Y-11147000D01*
X17463000Y-10582000D02*
X17503000Y-10622000D01*
X17503000Y-10582000D02*
X17463000Y-10622000D01*
X17466000Y-11830000D02*
X17506000Y-11870000D01*
X17506000Y-11830000D02*
X17466000Y-11870000D01*
X17493000Y-9913000D02*
X17533000Y-9953000D01*
X17533000Y-9913000D02*
X17493000Y-9953000D01*
X17493000Y-10418000D02*
X17533000Y-10458000D01*
X17533000Y-10418000D02*
X17493000Y-10458000D01*
X9925000Y-11200000D02*
G75*
G03*
X9925000Y-11200000I-25000J0D01*
G01*
X9925000Y-11400000D02*
G75*
G03*
X9925000Y-11400000I-25000J0D01*
G01*
X10059000Y-9699900D02*
G75*
G03*
X10059000Y-9699900I-25000J0D01*
G01*
X10125000Y-11200000D02*
G75*
G03*
X10125000Y-11200000I-25000J0D01*
G01*
X10174800Y-6361400D02*
G75*
G03*
X10174800Y-6361400I-25000J0D01*
G01*
X10454900Y-9927800D02*
G75*
G03*
X10454900Y-9927800I-25000J0D01*
G01*
X10499700Y-9770600D02*
G75*
G03*
X10499700Y-9770600I-25000J0D01*
G01*
X10500500Y-9551300D02*
G75*
G03*
X10500500Y-9551300I-25000J0D01*
G01*
X10525000Y-10200000D02*
G75*
G03*
X10525000Y-10200000I-25000J0D01*
G01*
X10692500Y-6322400D02*
G75*
G03*
X10692500Y-6322400I-25000J0D01*
G01*
X10724000Y-10954200D02*
G75*
G03*
X10724000Y-10954200I-25000J0D01*
G01*
X10808100Y-11448700D02*
G75*
G03*
X10808100Y-11448700I-25000J0D01*
G01*
X10925000Y-8900000D02*
G75*
G03*
X10925000Y-8900000I-25000J0D01*
G01*
X11007200Y-10940000D02*
G75*
G03*
X11007200Y-10940000I-25000J0D01*
G01*
X11025000Y-11900000D02*
G75*
G03*
X11025000Y-11900000I-25000J0D01*
G01*
X11167800Y-9802700D02*
G75*
G03*
X11167800Y-9802700I-25000J0D01*
G01*
X11188100Y-7435900D02*
G75*
G03*
X11188100Y-7435900I-25000J0D01*
G01*
X11218800Y-11298500D02*
G75*
G03*
X11218800Y-11298500I-25000J0D01*
G01*
X11425000Y-11800000D02*
G75*
G03*
X11425000Y-11800000I-25000J0D01*
G01*
X11437700Y-10760000D02*
G75*
G03*
X11437700Y-10760000I-25000J0D01*
G01*
X11563700Y-6482600D02*
G75*
G03*
X11563700Y-6482600I-25000J0D01*
G01*
X11572200Y-8045700D02*
G75*
G03*
X11572200Y-8045700I-25000J0D01*
G01*
X11574700Y-6852100D02*
G75*
G03*
X11574700Y-6852100I-25000J0D01*
G01*
X11576000Y-7423000D02*
G75*
G03*
X11576000Y-7423000I-25000J0D01*
G01*
X11625000Y-11700000D02*
G75*
G03*
X11625000Y-11700000I-25000J0D01*
G01*
X11746200Y-8173000D02*
G75*
G03*
X11746200Y-8173000I-25000J0D01*
G01*
X11845000Y-6952600D02*
G75*
G03*
X11845000Y-6952600I-25000J0D01*
G01*
X11861600Y-6051300D02*
G75*
G03*
X11861600Y-6051300I-25000J0D01*
G01*
X12025000Y-11400000D02*
G75*
G03*
X12025000Y-11400000I-25000J0D01*
G01*
X12088300Y-12239400D02*
G75*
G03*
X12088300Y-12239400I-25000J0D01*
G01*
X12166900Y-9088700D02*
G75*
G03*
X12166900Y-9088700I-25000J0D01*
G01*
X12191300Y-11596700D02*
G75*
G03*
X12191300Y-11596700I-25000J0D01*
G01*
X12249500Y-11871800D02*
G75*
G03*
X12249500Y-11871800I-25000J0D01*
G01*
X12252200Y-9803000D02*
G75*
G03*
X12252200Y-9803000I-25000J0D01*
G01*
X12325000Y-10800000D02*
G75*
G03*
X12325000Y-10800000I-25000J0D01*
G01*
X12325000Y-11000000D02*
G75*
G03*
X12325000Y-11000000I-25000J0D01*
G01*
X12325000Y-11400000D02*
G75*
G03*
X12325000Y-11400000I-25000J0D01*
G01*
X12334500Y-8428400D02*
G75*
G03*
X12334500Y-8428400I-25000J0D01*
G01*
X12371400Y-10240700D02*
G75*
G03*
X12371400Y-10240700I-25000J0D01*
G01*
X12391600Y-7364300D02*
G75*
G03*
X12391600Y-7364300I-25000J0D01*
G01*
X12425000Y-9500000D02*
G75*
G03*
X12425000Y-9500000I-25000J0D01*
G01*
X12450900Y-11608800D02*
G75*
G03*
X12450900Y-11608800I-25000J0D01*
G01*
X12461600Y-12174000D02*
G75*
G03*
X12461600Y-12174000I-25000J0D01*
G01*
X12525000Y-10400000D02*
G75*
G03*
X12525000Y-10400000I-25000J0D01*
G01*
X12625000Y-8900000D02*
G75*
G03*
X12625000Y-8900000I-25000J0D01*
G01*
X12625000Y-9200000D02*
G75*
G03*
X12625000Y-9200000I-25000J0D01*
G01*
X12625000Y-11200000D02*
G75*
G03*
X12625000Y-11200000I-25000J0D01*
G01*
X12632925Y-8492675D02*
G75*
G03*
X12632925Y-8492675I-25000J0D01*
G01*
X12645400Y-7404000D02*
G75*
G03*
X12645400Y-7404000I-25000J0D01*
G01*
X12725000Y-10500000D02*
G75*
G03*
X12725000Y-10500000I-25000J0D01*
G01*
X12725000Y-11500000D02*
G75*
G03*
X12725000Y-11500000I-25000J0D01*
G01*
X12725000Y-11900000D02*
G75*
G03*
X12725000Y-11900000I-25000J0D01*
G01*
X12825000Y-9200000D02*
G75*
G03*
X12825000Y-9200000I-25000J0D01*
G01*
X12925000Y-9000000D02*
G75*
G03*
X12925000Y-9000000I-25000J0D01*
G01*
X12928000Y-11890000D02*
G75*
G03*
X12928000Y-11890000I-25000J0D01*
G01*
X12986000Y-11310900D02*
G75*
G03*
X12986000Y-11310900I-25000J0D01*
G01*
X13025600Y-6355200D02*
G75*
G03*
X13025600Y-6355200I-25000J0D01*
G01*
X13125000Y-8800000D02*
G75*
G03*
X13125000Y-8800000I-25000J0D01*
G01*
X13125000Y-9800000D02*
G75*
G03*
X13125000Y-9800000I-25000J0D01*
G01*
X13143400Y-10122800D02*
G75*
G03*
X13143400Y-10122800I-25000J0D01*
G01*
X13155600Y-9581500D02*
G75*
G03*
X13155600Y-9581500I-25000J0D01*
G01*
X13172700Y-6749500D02*
G75*
G03*
X13172700Y-6749500I-25000J0D01*
G01*
X13283000Y-11574700D02*
G75*
G03*
X13283000Y-11574700I-25000J0D01*
G01*
X13325000Y-7800000D02*
G75*
G03*
X13325000Y-7800000I-25000J0D01*
G01*
X13425000Y-9100000D02*
G75*
G03*
X13425000Y-9100000I-25000J0D01*
G01*
X13439300Y-6203700D02*
G75*
G03*
X13439300Y-6203700I-25000J0D01*
G01*
X13525000Y-8000000D02*
G75*
G03*
X13525000Y-8000000I-25000J0D01*
G01*
X13564700Y-11800200D02*
G75*
G03*
X13564700Y-11800200I-25000J0D01*
G01*
X13610400Y-7045100D02*
G75*
G03*
X13610400Y-7045100I-25000J0D01*
G01*
X13625000Y-9200000D02*
G75*
G03*
X13625000Y-9200000I-25000J0D01*
G01*
X13802400Y-8967900D02*
G75*
G03*
X13802400Y-8967900I-25000J0D01*
G01*
X13825000Y-8000000D02*
G75*
G03*
X13825000Y-8000000I-25000J0D01*
G01*
X13856650Y-11801650D02*
G75*
G03*
X13856650Y-11801650I-25000J0D01*
G01*
X14043600Y-6404600D02*
G75*
G03*
X14043600Y-6404600I-25000J0D01*
G01*
X14125000Y-7900000D02*
G75*
G03*
X14125000Y-7900000I-25000J0D01*
G01*
X14134300Y-8830700D02*
G75*
G03*
X14134300Y-8830700I-25000J0D01*
G01*
X14224300Y-10677300D02*
G75*
G03*
X14224300Y-10677300I-25000J0D01*
G01*
X14279500Y-11685900D02*
G75*
G03*
X14279500Y-11685900I-25000J0D01*
G01*
X14301200Y-9404800D02*
G75*
G03*
X14301200Y-9404800I-25000J0D01*
G01*
X14313300Y-5757000D02*
G75*
G03*
X14313300Y-5757000I-25000J0D01*
G01*
X14378600Y-6472800D02*
G75*
G03*
X14378600Y-6472800I-25000J0D01*
G01*
X14504000Y-10668200D02*
G75*
G03*
X14504000Y-10668200I-25000J0D01*
G01*
X14520600Y-10960200D02*
G75*
G03*
X14520600Y-10960200I-25000J0D01*
G01*
X14631200Y-9426000D02*
G75*
G03*
X14631200Y-9426000I-25000J0D01*
G01*
X14823000Y-10667000D02*
G75*
G03*
X14823000Y-10667000I-25000J0D01*
G01*
X15086900Y-10012400D02*
G75*
G03*
X15086900Y-10012400I-25000J0D01*
G01*
X15090100Y-10336200D02*
G75*
G03*
X15090100Y-10336200I-25000J0D01*
G01*
X15220100Y-6730300D02*
G75*
G03*
X15220100Y-6730300I-25000J0D01*
G01*
X15325000Y-8800000D02*
G75*
G03*
X15325000Y-8800000I-25000J0D01*
G01*
X15333200Y-11616400D02*
G75*
G03*
X15333200Y-11616400I-25000J0D01*
G01*
X15374700Y-11956100D02*
G75*
G03*
X15374700Y-11956100I-25000J0D01*
G01*
X15380900Y-10197300D02*
G75*
G03*
X15380900Y-10197300I-25000J0D01*
G01*
X15690000Y-10356400D02*
G75*
G03*
X15690000Y-10356400I-25000J0D01*
G01*
X15725200Y-11989500D02*
G75*
G03*
X15725200Y-11989500I-25000J0D01*
G01*
X15925000Y-10500000D02*
G75*
G03*
X15925000Y-10500000I-25000J0D01*
G01*
X15966500Y-10892500D02*
G75*
G03*
X15966500Y-10892500I-25000J0D01*
G01*
X15971200Y-9115600D02*
G75*
G03*
X15971200Y-9115600I-25000J0D01*
G01*
X16277100Y-11019900D02*
G75*
G03*
X16277100Y-11019900I-25000J0D01*
G01*
X16325000Y-5900000D02*
G75*
G03*
X16325000Y-5900000I-25000J0D01*
G01*
X16396700Y-12148600D02*
G75*
G03*
X16396700Y-12148600I-25000J0D01*
G01*
X16408500Y-9536200D02*
G75*
G03*
X16408500Y-9536200I-25000J0D01*
G01*
X16413700Y-9879000D02*
G75*
G03*
X16413700Y-9879000I-25000J0D01*
G01*
X16525000Y-9100000D02*
G75*
G03*
X16525000Y-9100000I-25000J0D01*
G01*
X16562400Y-10824700D02*
G75*
G03*
X16562400Y-10824700I-25000J0D01*
G01*
X16825000Y-8900000D02*
G75*
G03*
X16825000Y-8900000I-25000J0D01*
G01*
X16925000Y-8300000D02*
G75*
G03*
X16925000Y-8300000I-25000J0D01*
G01*
X16925000Y-8500000D02*
G75*
G03*
X16925000Y-8500000I-25000J0D01*
G01*
X16957400Y-10699900D02*
G75*
G03*
X16957400Y-10699900I-25000J0D01*
G01*
X17225000Y-8300000D02*
G75*
G03*
X17225000Y-8300000I-25000J0D01*
G01*
X17225000Y-8500000D02*
G75*
G03*
X17225000Y-8500000I-25000J0D01*
G01*
X17425000Y-6800000D02*
G75*
G03*
X17425000Y-6800000I-25000J0D01*
G01*
X17425000Y-8200000D02*
G75*
G03*
X17425000Y-8200000I-25000J0D01*
G01*
X17925000Y-6500000D02*
G75*
G03*
X17925000Y-6500000I-25000J0D01*
G01*
X17925000Y-6900000D02*
G75*
G03*
X17925000Y-6900000I-25000J0D01*
G01*
X16072100Y-9824900D02*
X16072100Y-9894900D01*
X16037100Y-9859900D02*
X16107100Y-9859900D01*
X15487500Y-11735300D02*
X15487500Y-11805300D01*
X15452500Y-11770300D02*
X15522500Y-11770300D01*
X15713000Y-10090200D02*
X15713000Y-10160200D01*
X15678000Y-10125200D02*
X15748000Y-10125200D01*
X17234500Y-11844500D02*
X17234500Y-11914500D01*
X17199500Y-11879500D02*
X17269500Y-11879500D01*
X11557600Y-10912300D02*
X11557600Y-10982300D01*
X11522600Y-10947300D02*
X11592600Y-10947300D01*
X17264900Y-9202100D02*
X17264900Y-9272100D01*
X17229900Y-9237100D02*
X17299900Y-9237100D01*
X12524600Y-7968100D02*
X12524600Y-8038100D01*
X12489600Y-8003100D02*
X12559600Y-8003100D01*
X12605800Y-6641800D02*
X12605800Y-6711800D01*
X12570800Y-6676800D02*
X12640800Y-6676800D01*
X12969900Y-6936600D02*
X12969900Y-7006600D01*
X12934900Y-6971600D02*
X13004900Y-6971600D01*
X12794100Y-8014300D02*
X12794100Y-8084300D01*
X12759100Y-8049300D02*
X12829100Y-8049300D01*
X11828700Y-10913900D02*
X11828700Y-10983900D01*
X11793700Y-10948900D02*
X11863700Y-10948900D01*
X11321400Y-12099700D02*
X11321400Y-12169700D01*
X11286400Y-12134700D02*
X11356400Y-12134700D01*
X13167400Y-8016300D02*
X13167400Y-8086300D01*
X13132400Y-8051300D02*
X13202400Y-8051300D01*
X12786400Y-6935000D02*
X12786400Y-7005000D01*
X12751400Y-6970000D02*
X12821400Y-6970000D01*
X15991000Y-10068700D02*
X15991000Y-10138700D01*
X15956000Y-10103700D02*
X16026000Y-10103700D01*
X12983900Y-8014300D02*
X12983900Y-8084300D01*
X12948900Y-8049300D02*
X13018900Y-8049300D01*
X13198300Y-8412300D02*
X13198300Y-8482300D01*
X13163300Y-8447300D02*
X13233300Y-8447300D01*
X12607200Y-6932700D02*
X12607200Y-7002700D01*
X12572200Y-6967700D02*
X12642200Y-6967700D01*
X14355000Y-11855900D02*
X14355000Y-11925900D01*
X14320000Y-11890900D02*
X14390000Y-11890900D01*
X12434917Y-5841617D02*
X12434917Y-5788583D01*
X12381883Y-5788583D01*
X12381883Y-5841617D01*
X12434917Y-5841617D01*
X12434917Y-5968617D02*
X12434917Y-5915583D01*
X12381883Y-5915583D01*
X12381883Y-5968617D01*
X12434917Y-5968617D01*
X12434917Y-6095617D02*
X12434917Y-6042583D01*
X12381883Y-6042583D01*
X12381883Y-6095617D01*
X12434917Y-6095617D01*
X11043617Y-5903117D02*
X11043617Y-5850083D01*
X10990583Y-5850083D01*
X10990583Y-5903117D01*
X11043617Y-5903117D01*
X11043617Y-6030117D02*
X11043617Y-5977083D01*
X10990583Y-5977083D01*
X10990583Y-6030117D01*
X11043617Y-6030117D01*
X11043617Y-6157117D02*
X11043617Y-6104083D01*
X10990583Y-6104083D01*
X10990583Y-6157117D01*
X11043617Y-6157117D01*
X10400417Y-5981617D02*
X10400417Y-5928583D01*
X10347383Y-5928583D01*
X10347383Y-5981617D01*
X10400417Y-5981617D01*
X10400417Y-6108617D02*
X10400417Y-6055583D01*
X10347383Y-6055583D01*
X10347383Y-6108617D01*
X10400417Y-6108617D01*
X10400417Y-6235617D02*
X10400417Y-6182583D01*
X10347383Y-6182583D01*
X10347383Y-6235617D01*
X10400417Y-6235617D01*
X11947800Y-7252900D02*
X11987800Y-7212900D01*
X11947800Y-7172900D01*
X11907800Y-7212900D01*
X11947800Y-7252900D01*
X11947800Y-7740900D02*
X11987800Y-7700900D01*
X11947800Y-7660900D01*
X11907800Y-7700900D01*
X11947800Y-7740900D01*
X17934800Y-12465400D02*
X18024800Y-12555400D01*
X18024800Y-12465400D02*
X17934800Y-12555400D01*
X18024800Y-12510400D02*
G75*
G03*
X18024800Y-12510400I-45000J0D01*
G01*
X17938100Y-13767000D02*
X18028100Y-13857000D01*
X18028100Y-13767000D02*
X17938100Y-13857000D01*
X18028100Y-13812000D02*
G75*
G03*
X18028100Y-13812000I-45000J0D01*
G01*
X17936200Y-14417600D02*
X18026200Y-14507600D01*
X18026200Y-14417600D02*
X17936200Y-14507600D01*
X18026200Y-14462600D02*
G75*
G03*
X18026200Y-14462600I-45000J0D01*
G01*
X17940100Y-13116700D02*
X18030100Y-13206700D01*
X18030100Y-13116700D02*
X17940100Y-13206700D01*
X18030100Y-13161700D02*
G75*
G03*
X18030100Y-13161700I-45000J0D01*
G01*
X17779400Y-10920000D02*
X17878400Y-11019000D01*
X17878400Y-10920000D02*
X17779400Y-11019000D01*
X17828900Y-10920000D02*
X17828900Y-11019000D01*
X17779400Y-10969500D02*
X17878400Y-10969500D01*
X17779400Y-11370000D02*
X17878400Y-11469000D01*
X17878400Y-11370000D02*
X17779400Y-11469000D01*
X17828900Y-11370000D02*
X17828900Y-11469000D01*
X17779400Y-11419500D02*
X17878400Y-11419500D01*
X17768600Y-9576700D02*
X17867600Y-9675700D01*
X17867600Y-9576700D02*
X17768600Y-9675700D01*
X17818100Y-9576700D02*
X17818100Y-9675700D01*
X17768600Y-9626200D02*
X17867600Y-9626200D01*
X17768600Y-10026700D02*
X17867600Y-10125700D01*
X17867600Y-10026700D02*
X17768600Y-10125700D01*
X17818100Y-10026700D02*
X17818100Y-10125700D01*
X17768600Y-10076200D02*
X17867600Y-10076200D01*
X11547500Y-9639900D02*
X11647500Y-9739900D01*
X11647500Y-9639900D02*
X11547500Y-9739900D01*
X11632856Y-9725256D02*
X11632856Y-9654544D01*
X11562144Y-9654544D01*
X11562144Y-9725256D01*
X11632856Y-9725256D01*
X14286800Y-8505600D02*
X14386800Y-8605600D01*
X14386800Y-8505600D02*
X14286800Y-8605600D01*
X14372156Y-8590956D02*
X14372156Y-8520244D01*
X14301444Y-8520244D01*
X14301444Y-8590956D01*
X14372156Y-8590956D01*
X14941500Y-6306100D02*
X15041500Y-6406100D01*
X15041500Y-6306100D02*
X14941500Y-6406100D01*
X15026856Y-6391456D02*
X15026856Y-6320744D01*
X14956144Y-6320744D01*
X14956144Y-6391456D01*
X15026856Y-6391456D01*
X12882800Y-14619800D02*
X12982800Y-14719800D01*
X12982800Y-14619800D02*
X12882800Y-14719800D01*
X12968156Y-14705156D02*
X12968156Y-14634444D01*
X12897444Y-14634444D01*
X12897444Y-14705156D01*
X12968156Y-14705156D01*
X14852900Y-5585400D02*
X14952900Y-5685400D01*
X14952900Y-5585400D02*
X14852900Y-5685400D01*
X14938256Y-5670756D02*
X14938256Y-5600044D01*
X14867544Y-5600044D01*
X14867544Y-5670756D01*
X14938256Y-5670756D01*
X14859300Y-14608300D02*
X14959300Y-14708300D01*
X14959300Y-14608300D02*
X14859300Y-14708300D01*
X14944656Y-14693656D02*
X14944656Y-14622944D01*
X14873944Y-14622944D01*
X14873944Y-14693656D01*
X14944656Y-14693656D01*
X12886700Y-13318900D02*
X12986700Y-13418900D01*
X12986700Y-13318900D02*
X12886700Y-13418900D01*
X12972056Y-13404256D02*
X12972056Y-13333544D01*
X12901344Y-13333544D01*
X12901344Y-13404256D01*
X12972056Y-13404256D01*
X13710900Y-7599700D02*
X13810900Y-7699700D01*
X13810900Y-7599700D02*
X13710900Y-7699700D01*
X13796256Y-7685056D02*
X13796256Y-7614344D01*
X13725544Y-7614344D01*
X13725544Y-7685056D01*
X13796256Y-7685056D01*
X11227200Y-8887500D02*
X11327200Y-8987500D01*
X11327200Y-8887500D02*
X11227200Y-8987500D01*
X11312556Y-8972856D02*
X11312556Y-8902144D01*
X11241844Y-8902144D01*
X11241844Y-8972856D01*
X11312556Y-8972856D01*
X9829300Y-14634500D02*
X9929300Y-14734500D01*
X9929300Y-14634500D02*
X9829300Y-14734500D01*
X9914656Y-14719856D02*
X9914656Y-14649144D01*
X9843944Y-14649144D01*
X9843944Y-14719856D01*
X9914656Y-14719856D01*
X14863200Y-13307400D02*
X14963200Y-13407400D01*
X14963200Y-13307400D02*
X14863200Y-13407400D01*
X14948556Y-13392756D02*
X14948556Y-13322044D01*
X14877844Y-13322044D01*
X14877844Y-13392756D01*
X14948556Y-13392756D01*
X11128600Y-7877800D02*
X11228600Y-7977800D01*
X11228600Y-7877800D02*
X11128600Y-7977800D01*
X11213956Y-7963156D02*
X11213956Y-7892444D01*
X11143244Y-7892444D01*
X11143244Y-7963156D01*
X11213956Y-7963156D01*
X11128600Y-8131800D02*
X11228600Y-8231800D01*
X11228600Y-8131800D02*
X11128600Y-8231800D01*
X11213956Y-8217156D02*
X11213956Y-8146444D01*
X11143244Y-8146444D01*
X11143244Y-8217156D01*
X11213956Y-8217156D01*
X11128600Y-8385800D02*
X11228600Y-8485800D01*
X11228600Y-8385800D02*
X11128600Y-8485800D01*
X11213956Y-8471156D02*
X11213956Y-8400444D01*
X11143244Y-8400444D01*
X11143244Y-8471156D01*
X11213956Y-8471156D01*
X15879400Y-12669400D02*
X15979400Y-12769400D01*
X15979400Y-12669400D02*
X15879400Y-12769400D01*
X15964756Y-12754756D02*
X15964756Y-12684044D01*
X15894044Y-12684044D01*
X15894044Y-12754756D01*
X15964756Y-12754756D01*
X15884700Y-13320700D02*
X15984700Y-13420700D01*
X15984700Y-13320700D02*
X15884700Y-13420700D01*
X15970056Y-13406056D02*
X15970056Y-13335344D01*
X15899344Y-13335344D01*
X15899344Y-13406056D01*
X15970056Y-13406056D01*
X12693300Y-9829700D02*
X12793300Y-9929700D01*
X12793300Y-9829700D02*
X12693300Y-9929700D01*
X12778656Y-9915056D02*
X12778656Y-9844344D01*
X12707944Y-9844344D01*
X12707944Y-9915056D01*
X12778656Y-9915056D01*
X11805800Y-14623000D02*
X11905800Y-14723000D01*
X11905800Y-14623000D02*
X11805800Y-14723000D01*
X11891156Y-14708356D02*
X11891156Y-14637644D01*
X11820444Y-14637644D01*
X11820444Y-14708356D01*
X11891156Y-14708356D01*
X9827900Y-12682300D02*
X9927900Y-12782300D01*
X9927900Y-12682300D02*
X9827900Y-12782300D01*
X9913256Y-12767656D02*
X9913256Y-12696944D01*
X9842544Y-12696944D01*
X9842544Y-12767656D01*
X9913256Y-12767656D01*
X10746400Y-8467900D02*
X10846400Y-8567900D01*
X10846400Y-8467900D02*
X10746400Y-8567900D01*
X10831756Y-8553256D02*
X10831756Y-8482544D01*
X10761044Y-8482544D01*
X10761044Y-8553256D01*
X10831756Y-8553256D01*
X16915200Y-5931600D02*
X17015200Y-6031600D01*
X17015200Y-5931600D02*
X16915200Y-6031600D01*
X17000556Y-6016956D02*
X17000556Y-5946244D01*
X16929844Y-5946244D01*
X16929844Y-6016956D01*
X17000556Y-6016956D01*
X16915200Y-6185600D02*
X17015200Y-6285600D01*
X17015200Y-6185600D02*
X16915200Y-6285600D01*
X17000556Y-6270956D02*
X17000556Y-6200244D01*
X16929844Y-6200244D01*
X16929844Y-6270956D01*
X17000556Y-6270956D01*
X10820100Y-5247500D02*
X10920100Y-5347500D01*
X10920100Y-5247500D02*
X10820100Y-5347500D01*
X10905456Y-5332856D02*
X10905456Y-5262144D01*
X10834744Y-5262144D01*
X10834744Y-5332856D01*
X10905456Y-5332856D01*
X11074100Y-5247500D02*
X11174100Y-5347500D01*
X11174100Y-5247500D02*
X11074100Y-5347500D01*
X11159456Y-5332856D02*
X11159456Y-5262144D01*
X11088744Y-5262144D01*
X11088744Y-5332856D01*
X11159456Y-5332856D01*
X11328100Y-5247500D02*
X11428100Y-5347500D01*
X11428100Y-5247500D02*
X11328100Y-5347500D01*
X11413456Y-5332856D02*
X11413456Y-5262144D01*
X11342744Y-5262144D01*
X11342744Y-5332856D01*
X11413456Y-5332856D01*
X11582100Y-5247500D02*
X11682100Y-5347500D01*
X11682100Y-5247500D02*
X11582100Y-5347500D01*
X11667456Y-5332856D02*
X11667456Y-5262144D01*
X11596744Y-5262144D01*
X11596744Y-5332856D01*
X11667456Y-5332856D01*
X11836100Y-5247500D02*
X11936100Y-5347500D01*
X11936100Y-5247500D02*
X11836100Y-5347500D01*
X11921456Y-5332856D02*
X11921456Y-5262144D01*
X11850744Y-5262144D01*
X11850744Y-5332856D01*
X11921456Y-5332856D01*
X12090100Y-5247500D02*
X12190100Y-5347500D01*
X12190100Y-5247500D02*
X12090100Y-5347500D01*
X12175456Y-5332856D02*
X12175456Y-5262144D01*
X12104744Y-5262144D01*
X12104744Y-5332856D01*
X12175456Y-5332856D01*
X12344100Y-5247500D02*
X12444100Y-5347500D01*
X12444100Y-5247500D02*
X12344100Y-5347500D01*
X12429456Y-5332856D02*
X12429456Y-5262144D01*
X12358744Y-5262144D01*
X12358744Y-5332856D01*
X12429456Y-5332856D01*
X12598100Y-5247500D02*
X12698100Y-5347500D01*
X12698100Y-5247500D02*
X12598100Y-5347500D01*
X12683456Y-5332856D02*
X12683456Y-5262144D01*
X12612744Y-5262144D01*
X12612744Y-5332856D01*
X12683456Y-5332856D01*
X12852100Y-5247500D02*
X12952100Y-5347500D01*
X12952100Y-5247500D02*
X12852100Y-5347500D01*
X12937456Y-5332856D02*
X12937456Y-5262144D01*
X12866744Y-5262144D01*
X12866744Y-5332856D01*
X12937456Y-5332856D01*
X13106100Y-5247500D02*
X13206100Y-5347500D01*
X13206100Y-5247500D02*
X13106100Y-5347500D01*
X13191456Y-5332856D02*
X13191456Y-5262144D01*
X13120744Y-5262144D01*
X13120744Y-5332856D01*
X13191456Y-5332856D01*
X13360100Y-5247500D02*
X13460100Y-5347500D01*
X13460100Y-5247500D02*
X13360100Y-5347500D01*
X13445456Y-5332856D02*
X13445456Y-5262144D01*
X13374744Y-5262144D01*
X13374744Y-5332856D01*
X13445456Y-5332856D01*
X13614100Y-5247500D02*
X13714100Y-5347500D01*
X13714100Y-5247500D02*
X13614100Y-5347500D01*
X13699456Y-5332856D02*
X13699456Y-5262144D01*
X13628744Y-5262144D01*
X13628744Y-5332856D01*
X13699456Y-5332856D01*
X13868100Y-5247500D02*
X13968100Y-5347500D01*
X13968100Y-5247500D02*
X13868100Y-5347500D01*
X13953456Y-5332856D02*
X13953456Y-5262144D01*
X13882744Y-5262144D01*
X13882744Y-5332856D01*
X13953456Y-5332856D01*
X14122100Y-5247500D02*
X14222100Y-5347500D01*
X14222100Y-5247500D02*
X14122100Y-5347500D01*
X14207456Y-5332856D02*
X14207456Y-5262144D01*
X14136744Y-5262144D01*
X14136744Y-5332856D01*
X14207456Y-5332856D01*
X14376100Y-5247500D02*
X14476100Y-5347500D01*
X14476100Y-5247500D02*
X14376100Y-5347500D01*
X14461456Y-5332856D02*
X14461456Y-5262144D01*
X14390744Y-5262144D01*
X14390744Y-5332856D01*
X14461456Y-5332856D01*
X14630100Y-5247500D02*
X14730100Y-5347500D01*
X14730100Y-5247500D02*
X14630100Y-5347500D01*
X14715456Y-5332856D02*
X14715456Y-5262144D01*
X14644744Y-5262144D01*
X14644744Y-5332856D01*
X14715456Y-5332856D01*
X10778600Y-12678000D02*
X10878600Y-12778000D01*
X10878600Y-12678000D02*
X10778600Y-12778000D01*
X10863956Y-12763356D02*
X10863956Y-12692644D01*
X10793244Y-12692644D01*
X10793244Y-12763356D01*
X10863956Y-12763356D01*
X16489600Y-6669600D02*
X16589600Y-6769600D01*
X16589600Y-6669600D02*
X16489600Y-6769600D01*
X16574956Y-6754956D02*
X16574956Y-6684244D01*
X16504244Y-6684244D01*
X16504244Y-6754956D01*
X16574956Y-6754956D01*
X16489600Y-6923600D02*
X16589600Y-7023600D01*
X16589600Y-6923600D02*
X16489600Y-7023600D01*
X16574956Y-7008956D02*
X16574956Y-6938244D01*
X16504244Y-6938244D01*
X16504244Y-7008956D01*
X16574956Y-7008956D01*
X13837400Y-13314600D02*
X13937400Y-13414600D01*
X13937400Y-13314600D02*
X13837400Y-13414600D01*
X13922756Y-13399956D02*
X13922756Y-13329244D01*
X13852044Y-13329244D01*
X13852044Y-13399956D01*
X13922756Y-13399956D01*
X9831200Y-13983900D02*
X9931200Y-14083900D01*
X9931200Y-13983900D02*
X9831200Y-14083900D01*
X9916556Y-14069256D02*
X9916556Y-13998544D01*
X9845844Y-13998544D01*
X9845844Y-14069256D01*
X9916556Y-14069256D01*
X15880800Y-14621600D02*
X15980800Y-14721600D01*
X15980800Y-14621600D02*
X15880800Y-14721600D01*
X15966156Y-14706956D02*
X15966156Y-14636244D01*
X15895444Y-14636244D01*
X15895444Y-14706956D01*
X15966156Y-14706956D01*
X14857900Y-12656100D02*
X14957900Y-12756100D01*
X14957900Y-12656100D02*
X14857900Y-12756100D01*
X14943256Y-12741456D02*
X14943256Y-12670744D01*
X14872544Y-12670744D01*
X14872544Y-12741456D01*
X14943256Y-12741456D01*
X13832100Y-12663300D02*
X13932100Y-12763300D01*
X13932100Y-12663300D02*
X13832100Y-12763300D01*
X13917456Y-12748656D02*
X13917456Y-12677944D01*
X13846744Y-12677944D01*
X13846744Y-12748656D01*
X13917456Y-12748656D01*
X13698400Y-8477800D02*
X13798400Y-8577800D01*
X13798400Y-8477800D02*
X13698400Y-8577800D01*
X13783756Y-8563156D02*
X13783756Y-8492444D01*
X13713044Y-8492444D01*
X13713044Y-8563156D01*
X13783756Y-8563156D01*
X12881400Y-12667600D02*
X12981400Y-12767600D01*
X12981400Y-12667600D02*
X12881400Y-12767600D01*
X12966756Y-12752956D02*
X12966756Y-12682244D01*
X12896044Y-12682244D01*
X12896044Y-12752956D01*
X12966756Y-12752956D01*
X11804400Y-12670800D02*
X11904400Y-12770800D01*
X11904400Y-12670800D02*
X11804400Y-12770800D01*
X11889756Y-12756156D02*
X11889756Y-12685444D01*
X11819044Y-12685444D01*
X11819044Y-12756156D01*
X11889756Y-12756156D01*
X14861200Y-13957700D02*
X14961200Y-14057700D01*
X14961200Y-13957700D02*
X14861200Y-14057700D01*
X14946556Y-14043056D02*
X14946556Y-13972344D01*
X14875844Y-13972344D01*
X14875844Y-14043056D01*
X14946556Y-14043056D01*
X10783900Y-13329300D02*
X10883900Y-13429300D01*
X10883900Y-13329300D02*
X10783900Y-13429300D01*
X10869256Y-13414656D02*
X10869256Y-13343944D01*
X10798544Y-13343944D01*
X10798544Y-13414656D01*
X10869256Y-13414656D01*
X11809700Y-13322100D02*
X11909700Y-13422100D01*
X11909700Y-13322100D02*
X11809700Y-13422100D01*
X11895056Y-13407456D02*
X11895056Y-13336744D01*
X11824344Y-13336744D01*
X11824344Y-13407456D01*
X11895056Y-13407456D01*
X12516500Y-10754300D02*
X12616500Y-10854300D01*
X12616500Y-10754300D02*
X12516500Y-10854300D01*
X12601856Y-10839656D02*
X12601856Y-10768944D01*
X12531144Y-10768944D01*
X12531144Y-10839656D01*
X12601856Y-10839656D01*
X12884700Y-13969200D02*
X12984700Y-14069200D01*
X12984700Y-13969200D02*
X12884700Y-14069200D01*
X12970056Y-14054556D02*
X12970056Y-13983844D01*
X12899344Y-13983844D01*
X12899344Y-14054556D01*
X12970056Y-14054556D01*
X10781900Y-13979600D02*
X10881900Y-14079600D01*
X10881900Y-13979600D02*
X10781900Y-14079600D01*
X10867256Y-14064956D02*
X10867256Y-13994244D01*
X10796544Y-13994244D01*
X10796544Y-14064956D01*
X10867256Y-14064956D01*
X9833200Y-13333600D02*
X9933200Y-13433600D01*
X9933200Y-13333600D02*
X9833200Y-13433600D01*
X9918556Y-13418956D02*
X9918556Y-13348244D01*
X9847844Y-13348244D01*
X9847844Y-13418956D01*
X9918556Y-13418956D01*
X15882700Y-13971000D02*
X15982700Y-14071000D01*
X15982700Y-13971000D02*
X15882700Y-14071000D01*
X15968056Y-14056356D02*
X15968056Y-13985644D01*
X15897344Y-13985644D01*
X15897344Y-14056356D01*
X15968056Y-14056356D01*
X13835400Y-13964900D02*
X13935400Y-14064900D01*
X13935400Y-13964900D02*
X13835400Y-14064900D01*
X13920756Y-14050256D02*
X13920756Y-13979544D01*
X13850044Y-13979544D01*
X13850044Y-14050256D01*
X13920756Y-14050256D01*
X10151200Y-10064300D02*
X10251200Y-10164300D01*
X10251200Y-10064300D02*
X10151200Y-10164300D01*
X10236556Y-10149656D02*
X10236556Y-10078944D01*
X10165844Y-10078944D01*
X10165844Y-10149656D01*
X10236556Y-10149656D01*
X10151200Y-10318300D02*
X10251200Y-10418300D01*
X10251200Y-10318300D02*
X10151200Y-10418300D01*
X10236556Y-10403656D02*
X10236556Y-10332944D01*
X10165844Y-10332944D01*
X10165844Y-10403656D01*
X10236556Y-10403656D01*
X10151200Y-10572300D02*
X10251200Y-10672300D01*
X10251200Y-10572300D02*
X10151200Y-10672300D01*
X10236556Y-10657656D02*
X10236556Y-10586944D01*
X10165844Y-10586944D01*
X10165844Y-10657656D01*
X10236556Y-10657656D01*
X10151200Y-10826300D02*
X10251200Y-10926300D01*
X10251200Y-10826300D02*
X10151200Y-10926300D01*
X10236556Y-10911656D02*
X10236556Y-10840944D01*
X10165844Y-10840944D01*
X10165844Y-10911656D01*
X10236556Y-10911656D01*
X13833500Y-14615500D02*
X13933500Y-14715500D01*
X13933500Y-14615500D02*
X13833500Y-14715500D01*
X13918856Y-14700856D02*
X13918856Y-14630144D01*
X13848144Y-14630144D01*
X13848144Y-14700856D01*
X13918856Y-14700856D01*
X10780000Y-14630200D02*
X10880000Y-14730200D01*
X10880000Y-14630200D02*
X10780000Y-14730200D01*
X10865356Y-14715556D02*
X10865356Y-14644844D01*
X10794644Y-14644844D01*
X10794644Y-14715556D01*
X10865356Y-14715556D01*
X16114900Y-7463800D02*
X16214900Y-7563800D01*
X16214900Y-7463800D02*
X16114900Y-7563800D01*
X16200256Y-7549156D02*
X16200256Y-7478444D01*
X16129544Y-7478444D01*
X16129544Y-7549156D01*
X16200256Y-7549156D01*
X16514900Y-7463800D02*
X16614900Y-7563800D01*
X16614900Y-7463800D02*
X16514900Y-7563800D01*
X16600256Y-7549156D02*
X16600256Y-7478444D01*
X16529544Y-7478444D01*
X16529544Y-7549156D01*
X16600256Y-7549156D01*
X11807700Y-13972400D02*
X11907700Y-14072400D01*
X11907700Y-13972400D02*
X11807700Y-14072400D01*
X11893056Y-14057756D02*
X11893056Y-13987044D01*
X11822344Y-13987044D01*
X11822344Y-14057756D01*
X11893056Y-14057756D01*
X17865100Y-5665500D02*
X17975100Y-5775500D01*
X17975100Y-5665500D02*
X17865100Y-5775500D01*
X17920100Y-5775500D02*
X17975100Y-5720500D01*
X17920100Y-5665500D01*
X17865100Y-5720500D01*
X17920100Y-5775500D01*
X17865100Y-5919500D02*
X17975100Y-6029500D01*
X17975100Y-5919500D02*
X17865100Y-6029500D01*
X17920100Y-6029500D02*
X17975100Y-5974500D01*
X17920100Y-5919500D01*
X17865100Y-5974500D01*
X17920100Y-6029500D01*
X10531300Y-7058000D02*
X10641300Y-7168000D01*
X10641300Y-7058000D02*
X10531300Y-7168000D01*
X10586300Y-7168000D02*
X10641300Y-7113000D01*
X10586300Y-7058000D01*
X10531300Y-7113000D01*
X10586300Y-7168000D01*
X10531300Y-7312000D02*
X10641300Y-7422000D01*
X10641300Y-7312000D02*
X10531300Y-7422000D01*
X10586300Y-7422000D02*
X10641300Y-7367000D01*
X10586300Y-7312000D01*
X10531300Y-7367000D01*
X10586300Y-7422000D01*
X14359400Y-7670000D02*
X14469400Y-7780000D01*
X14469400Y-7670000D02*
X14359400Y-7780000D01*
X14414400Y-7780000D02*
X14469400Y-7725000D01*
X14414400Y-7670000D01*
X14359400Y-7725000D01*
X14414400Y-7780000D01*
X14613400Y-7670000D02*
X14723400Y-7780000D01*
X14723400Y-7670000D02*
X14613400Y-7780000D01*
X14668400Y-7780000D02*
X14723400Y-7725000D01*
X14668400Y-7670000D01*
X14613400Y-7725000D01*
X14668400Y-7780000D01*
X10523400Y-7640300D02*
X10633400Y-7750300D01*
X10633400Y-7640300D02*
X10523400Y-7750300D01*
X10578400Y-7750300D02*
X10633400Y-7695300D01*
X10578400Y-7640300D01*
X10523400Y-7695300D01*
X10578400Y-7750300D01*
X10523400Y-7894300D02*
X10633400Y-8004300D01*
X10633400Y-7894300D02*
X10523400Y-8004300D01*
X10578400Y-8004300D02*
X10633400Y-7949300D01*
X10578400Y-7894300D01*
X10523400Y-7949300D01*
X10578400Y-8004300D01*
X17265400Y-6050900D02*
X17375400Y-6160900D01*
X17375400Y-6050900D02*
X17265400Y-6160900D01*
X17320400Y-6160900D02*
X17375400Y-6105900D01*
X17320400Y-6050900D01*
X17265400Y-6105900D01*
X17320400Y-6160900D01*
X17265400Y-6304900D02*
X17375400Y-6414900D01*
X17375400Y-6304900D02*
X17265400Y-6414900D01*
X17320400Y-6414900D02*
X17375400Y-6359900D01*
X17320400Y-6304900D01*
X17265400Y-6359900D01*
X17320400Y-6414900D01*
X10168400Y-7030900D02*
X10278400Y-7140900D01*
X10278400Y-7030900D02*
X10168400Y-7140900D01*
X10223400Y-7140900D02*
X10278400Y-7085900D01*
X10223400Y-7030900D01*
X10168400Y-7085900D01*
X10223400Y-7140900D01*
X10168400Y-7284900D02*
X10278400Y-7394900D01*
X10278400Y-7284900D02*
X10168400Y-7394900D01*
X10223400Y-7394900D02*
X10278400Y-7339900D01*
X10223400Y-7284900D01*
X10168400Y-7339900D01*
X10223400Y-7394900D01*
X10171300Y-7649800D02*
X10281300Y-7759800D01*
X10281300Y-7649800D02*
X10171300Y-7759800D01*
X10226300Y-7759800D02*
X10281300Y-7704800D01*
X10226300Y-7649800D01*
X10171300Y-7704800D01*
X10226300Y-7759800D01*
X10171300Y-7903800D02*
X10281300Y-8013800D01*
X10281300Y-7903800D02*
X10171300Y-8013800D01*
X10226300Y-8013800D02*
X10281300Y-7958800D01*
X10226300Y-7903800D01*
X10171300Y-7958800D01*
X10226300Y-8013800D01*
X16916500Y-5551000D02*
X17026500Y-5661000D01*
X17026500Y-5551000D02*
X16916500Y-5661000D01*
X16971500Y-5661000D02*
X17026500Y-5606000D01*
X16971500Y-5551000D01*
X16916500Y-5606000D01*
X16971500Y-5661000D01*
X17170500Y-5551000D02*
X17280500Y-5661000D01*
X17280500Y-5551000D02*
X17170500Y-5661000D01*
X17225500Y-5661000D02*
X17280500Y-5606000D01*
X17225500Y-5551000D01*
X17170500Y-5606000D01*
X17225500Y-5661000D01*
X17088400Y-5184500D02*
X17198400Y-5294500D01*
X17198400Y-5184500D02*
X17088400Y-5294500D01*
X17143400Y-5294500D02*
X17198400Y-5239500D01*
X17143400Y-5184500D01*
X17088400Y-5239500D01*
X17143400Y-5294500D01*
X17342400Y-5184500D02*
X17452400Y-5294500D01*
X17452400Y-5184500D02*
X17342400Y-5294500D01*
X17397400Y-5294500D02*
X17452400Y-5239500D01*
X17397400Y-5184500D01*
X17342400Y-5239500D01*
X17397400Y-5294500D01*
X17579900Y-10779500D02*
X17579900Y-10909500D01*
X17514900Y-10844500D02*
X17644900Y-10844500D01*
X17644900Y-10844500D02*
G75*
G03*
X17644900Y-10844500I-65000J0D01*
G01*
X17579900Y-11480500D02*
X17579900Y-11610500D01*
X17514900Y-11545500D02*
X17644900Y-11545500D01*
X17644900Y-11545500D02*
G75*
G03*
X17644900Y-11545500I-65000J0D01*
G01*
X17569100Y-9436200D02*
X17569100Y-9566200D01*
X17504100Y-9501200D02*
X17634100Y-9501200D01*
X17634100Y-9501200D02*
G75*
G03*
X17634100Y-9501200I-65000J0D01*
G01*
X17569100Y-10137200D02*
X17569100Y-10267200D01*
X17504100Y-10202200D02*
X17634100Y-10202200D01*
X17634100Y-10202200D02*
G75*
G03*
X17634100Y-10202200I-65000J0D01*
G01*
X17903350Y-9035450D02*
X17903350Y-8876350D01*
X17744250Y-8876350D01*
X17744250Y-9035450D01*
X17903350Y-9035450D01*
X17936300Y-8955900D02*
G75*
G03*
X17936300Y-8955900I-112500J0D01*
G01*
X9005350Y-14150550D02*
X9005350Y-13991450D01*
X8846250Y-13991450D01*
X8846250Y-14150550D01*
X9005350Y-14150550D01*
X9038300Y-14071000D02*
G75*
G03*
X9038300Y-14071000I-112500J0D01*
G01*
X17896050Y-8483150D02*
X17896050Y-8324050D01*
X17736950Y-8324050D01*
X17736950Y-8483150D01*
X17896050Y-8483150D01*
X17929000Y-8403600D02*
G75*
G03*
X17929000Y-8403600I-112500J0D01*
G01*
X8479550Y-12133550D02*
X8479550Y-11974450D01*
X8320450Y-11974450D01*
X8320450Y-12133550D01*
X8479550Y-12133550D01*
X8512500Y-12054000D02*
G75*
G03*
X8512500Y-12054000I-112500J0D01*
G01*
X9003450Y-14801150D02*
X9003450Y-14642050D01*
X8844350Y-14642050D01*
X8844350Y-14801150D01*
X9003450Y-14801150D01*
X9036400Y-14721600D02*
G75*
G03*
X9036400Y-14721600I-112500J0D01*
G01*
X8460550Y-14797550D02*
X8460550Y-14638450D01*
X8301450Y-14638450D01*
X8301450Y-14797550D01*
X8460550Y-14797550D01*
X8493500Y-14718000D02*
G75*
G03*
X8493500Y-14718000I-112500J0D01*
G01*
X9829550Y-9083550D02*
X9829550Y-8924450D01*
X9670450Y-8924450D01*
X9670450Y-9083550D01*
X9829550Y-9083550D01*
X9862500Y-9004000D02*
G75*
G03*
X9862500Y-9004000I-112500J0D01*
G01*
X9829550Y-5383550D02*
X9829550Y-5224450D01*
X9670450Y-5224450D01*
X9670450Y-5383550D01*
X9829550Y-5383550D01*
X9862500Y-5304000D02*
G75*
G03*
X9862500Y-5304000I-112500J0D01*
G01*
X8462450Y-14146950D02*
X8462450Y-13987850D01*
X8303350Y-13987850D01*
X8303350Y-14146950D01*
X8462450Y-14146950D01*
X8495400Y-14067400D02*
G75*
G03*
X8495400Y-14067400I-112500J0D01*
G01*
X17473650Y-12859350D02*
X17473650Y-12700250D01*
X17314550Y-12700250D01*
X17314550Y-12859350D01*
X17473650Y-12859350D01*
X17506600Y-12779800D02*
G75*
G03*
X17506600Y-12779800I-112500J0D01*
G01*
X9007350Y-13500250D02*
X9007350Y-13341150D01*
X8848250Y-13341150D01*
X8848250Y-13500250D01*
X9007350Y-13500250D01*
X9040300Y-13420700D02*
G75*
G03*
X9040300Y-13420700I-112500J0D01*
G01*
X8475550Y-7179550D02*
X8475550Y-7020450D01*
X8316450Y-7020450D01*
X8316450Y-7179550D01*
X8475550Y-7179550D01*
X8508500Y-7100000D02*
G75*
G03*
X8508500Y-7100000I-112500J0D01*
G01*
X17898950Y-5382850D02*
X17898950Y-5223750D01*
X17739850Y-5223750D01*
X17739850Y-5382850D01*
X17898950Y-5382850D01*
X17931900Y-5303300D02*
G75*
G03*
X17931900Y-5303300I-112500J0D01*
G01*
X8475550Y-10279550D02*
X8475550Y-10120450D01*
X8316450Y-10120450D01*
X8316450Y-10279550D01*
X8475550Y-10279550D01*
X8508500Y-10200000D02*
G75*
G03*
X8508500Y-10200000I-112500J0D01*
G01*
X17475050Y-14811550D02*
X17475050Y-14652450D01*
X17315950Y-14652450D01*
X17315950Y-14811550D01*
X17475050Y-14811550D01*
X17508000Y-14732000D02*
G75*
G03*
X17508000Y-14732000I-112500J0D01*
G01*
X17478950Y-13510650D02*
X17478950Y-13351550D01*
X17319850Y-13351550D01*
X17319850Y-13510650D01*
X17478950Y-13510650D01*
X17511900Y-13431100D02*
G75*
G03*
X17511900Y-13431100I-112500J0D01*
G01*
X9829550Y-12133550D02*
X9829550Y-11974450D01*
X9670450Y-11974450D01*
X9670450Y-12133550D01*
X9829550Y-12133550D01*
X9862500Y-12054000D02*
G75*
G03*
X9862500Y-12054000I-112500J0D01*
G01*
X17900450Y-12135750D02*
X17900450Y-11976650D01*
X17741350Y-11976650D01*
X17741350Y-12135750D01*
X17900450Y-12135750D01*
X17933400Y-12056200D02*
G75*
G03*
X17933400Y-12056200I-112500J0D01*
G01*
X10405650Y-9040150D02*
X10405650Y-8881050D01*
X10246550Y-8881050D01*
X10246550Y-9040150D01*
X10405650Y-9040150D01*
X10438600Y-8960600D02*
G75*
G03*
X10438600Y-8960600I-112500J0D01*
G01*
X10398150Y-8490850D02*
X10398150Y-8331750D01*
X10239050Y-8331750D01*
X10239050Y-8490850D01*
X10398150Y-8490850D01*
X10431100Y-8411300D02*
G75*
G03*
X10431100Y-8411300I-112500J0D01*
G01*
X8479550Y-9083550D02*
X8479550Y-8924450D01*
X8320450Y-8924450D01*
X8320450Y-9083550D01*
X8479550Y-9083550D01*
X8512500Y-9004000D02*
G75*
G03*
X8512500Y-9004000I-112500J0D01*
G01*
X8479550Y-8433550D02*
X8479550Y-8274450D01*
X8320450Y-8274450D01*
X8320450Y-8433550D01*
X8479550Y-8433550D01*
X8512500Y-8354000D02*
G75*
G03*
X8512500Y-8354000I-112500J0D01*
G01*
X8479550Y-5383550D02*
X8479550Y-5224450D01*
X8320450Y-5224450D01*
X8320450Y-5383550D01*
X8479550Y-5383550D01*
X8512500Y-5304000D02*
G75*
G03*
X8512500Y-5304000I-112500J0D01*
G01*
X10402550Y-12143450D02*
X10402550Y-11984350D01*
X10243450Y-11984350D01*
X10243450Y-12143450D01*
X10402550Y-12143450D01*
X10435500Y-12063900D02*
G75*
G03*
X10435500Y-12063900I-112500J0D01*
G01*
X8464450Y-13496650D02*
X8464450Y-13337550D01*
X8305350Y-13337550D01*
X8305350Y-13496650D01*
X8464450Y-13496650D01*
X8497400Y-13417100D02*
G75*
G03*
X8497400Y-13417100I-112500J0D01*
G01*
X9002050Y-12848950D02*
X9002050Y-12689850D01*
X8842950Y-12689850D01*
X8842950Y-12848950D01*
X9002050Y-12848950D01*
X9035000Y-12769400D02*
G75*
G03*
X9035000Y-12769400I-112500J0D01*
G01*
X17476950Y-14160950D02*
X17476950Y-14001850D01*
X17317850Y-14001850D01*
X17317850Y-14160950D01*
X17476950Y-14160950D01*
X17509900Y-14081400D02*
G75*
G03*
X17509900Y-14081400I-112500J0D01*
G01*
X8475550Y-6579550D02*
X8475550Y-6420450D01*
X8316450Y-6420450D01*
X8316450Y-6579550D01*
X8475550Y-6579550D01*
X8508500Y-6500000D02*
G75*
G03*
X8508500Y-6500000I-112500J0D01*
G01*
X10401250Y-5387550D02*
X10401250Y-5228450D01*
X10242150Y-5228450D01*
X10242150Y-5387550D01*
X10401250Y-5387550D01*
X10434200Y-5308000D02*
G75*
G03*
X10434200Y-5308000I-112500J0D01*
G01*
X8459150Y-12845350D02*
X8459150Y-12686250D01*
X8300050Y-12686250D01*
X8300050Y-12845350D01*
X8459150Y-12845350D01*
X8492100Y-12765800D02*
G75*
G03*
X8492100Y-12765800I-112500J0D01*
G01*
X8475550Y-10879550D02*
X8475550Y-10720450D01*
X8316450Y-10720450D01*
X8316450Y-10879550D01*
X8475550Y-10879550D01*
X8508500Y-10800000D02*
G75*
G03*
X8508500Y-10800000I-112500J0D01*
G01*
X9829550Y-8433550D02*
X9829550Y-8274450D01*
X9670450Y-8274450D01*
X9670450Y-8433550D01*
X9829550Y-8433550D01*
X9862500Y-8354000D02*
G75*
G03*
X9862500Y-8354000I-112500J0D01*
G01*
D12*
X8383928Y-15468214D02*
X8383928Y-15168214D01*
X8455357Y-15168214D01*
X8498214Y-15182500D01*
X8526786Y-15211071D01*
X8541071Y-15239643D01*
X8555357Y-15296786D01*
X8555357Y-15339643D01*
X8541071Y-15396786D01*
X8526786Y-15425357D01*
X8498214Y-15453929D01*
X8455357Y-15468214D01*
X8383928Y-15468214D01*
X8683928Y-15468214D02*
X8683928Y-15268214D01*
X8683928Y-15325357D02*
X8698214Y-15296786D01*
X8712500Y-15282500D01*
X8741071Y-15268214D01*
X8769643Y-15268214D01*
X8869643Y-15468214D02*
X8869643Y-15268214D01*
X8869643Y-15168214D02*
X8855357Y-15182500D01*
X8869643Y-15196786D01*
X8883928Y-15182500D01*
X8869643Y-15168214D01*
X8869643Y-15196786D01*
X9055357Y-15468214D02*
X9026786Y-15453929D01*
X9012500Y-15425357D01*
X9012500Y-15168214D01*
X9212500Y-15468214D02*
X9183928Y-15453929D01*
X9169643Y-15425357D01*
X9169643Y-15168214D01*
X9555357Y-15468214D02*
X9555357Y-15168214D01*
X9655357Y-15382500D01*
X9755357Y-15168214D01*
X9755357Y-15468214D01*
X10026786Y-15468214D02*
X10026786Y-15311071D01*
X10012500Y-15282500D01*
X9983928Y-15268214D01*
X9926786Y-15268214D01*
X9898214Y-15282500D01*
X10026786Y-15453929D02*
X9998214Y-15468214D01*
X9926786Y-15468214D01*
X9898214Y-15453929D01*
X9883928Y-15425357D01*
X9883928Y-15396786D01*
X9898214Y-15368214D01*
X9926786Y-15353929D01*
X9998214Y-15353929D01*
X10026786Y-15339643D01*
X10169643Y-15268214D02*
X10169643Y-15568214D01*
X10169643Y-15282500D02*
X10198214Y-15268214D01*
X10255357Y-15268214D01*
X10283928Y-15282500D01*
X10298214Y-15296786D01*
X10312500Y-15325357D01*
X10312500Y-15411071D01*
X10298214Y-15439643D01*
X10283928Y-15453929D01*
X10255357Y-15468214D01*
X10198214Y-15468214D01*
X10169643Y-15453929D01*
X10441071Y-15439643D02*
X10455357Y-15453929D01*
X10441071Y-15468214D01*
X10426786Y-15453929D01*
X10441071Y-15439643D01*
X10441071Y-15468214D01*
X10441071Y-15282500D02*
X10455357Y-15296786D01*
X10441071Y-15311071D01*
X10426786Y-15296786D01*
X10441071Y-15282500D01*
X10441071Y-15311071D01*
X8057500Y-15942500D02*
X8097500Y-15982500D01*
X8097500Y-15942500D02*
X8057500Y-15982500D01*
X8441071Y-15798214D02*
X8469643Y-15798214D01*
X8498214Y-15812500D01*
X8512500Y-15826786D01*
X8526786Y-15855357D01*
X8541071Y-15912500D01*
X8541071Y-15983929D01*
X8526786Y-16041071D01*
X8512500Y-16069643D01*
X8498214Y-16083929D01*
X8469643Y-16098214D01*
X8441071Y-16098214D01*
X8412500Y-16083929D01*
X8398214Y-16069643D01*
X8383928Y-16041071D01*
X8369643Y-15983929D01*
X8369643Y-15912500D01*
X8383928Y-15855357D01*
X8398214Y-15826786D01*
X8412500Y-15812500D01*
X8441071Y-15798214D01*
X8669643Y-16069643D02*
X8683928Y-16083929D01*
X8669643Y-16098214D01*
X8655357Y-16083929D01*
X8669643Y-16069643D01*
X8669643Y-16098214D01*
X8941071Y-15898214D02*
X8941071Y-16098214D01*
X8869643Y-15783929D02*
X8798214Y-15998214D01*
X8983928Y-15998214D01*
X9155357Y-15798214D02*
X9183928Y-15798214D01*
X9212500Y-15812500D01*
X9226786Y-15826786D01*
X9241071Y-15855357D01*
X9255357Y-15912500D01*
X9255357Y-15983929D01*
X9241071Y-16041071D01*
X9226786Y-16069643D01*
X9212500Y-16083929D01*
X9183928Y-16098214D01*
X9155357Y-16098214D01*
X9126786Y-16083929D01*
X9112500Y-16069643D01*
X9098214Y-16041071D01*
X9083928Y-15983929D01*
X9083928Y-15912500D01*
X9098214Y-15855357D01*
X9112500Y-15826786D01*
X9126786Y-15812500D01*
X9155357Y-15798214D01*
X9383928Y-16098214D02*
X9383928Y-15898214D01*
X9383928Y-15926786D02*
X9398214Y-15912500D01*
X9426786Y-15898214D01*
X9469643Y-15898214D01*
X9498214Y-15912500D01*
X9512500Y-15941071D01*
X9512500Y-16098214D01*
X9512500Y-15941071D02*
X9526786Y-15912500D01*
X9555357Y-15898214D01*
X9598214Y-15898214D01*
X9626786Y-15912500D01*
X9641071Y-15941071D01*
X9641071Y-16098214D01*
X9783928Y-16098214D02*
X9783928Y-15898214D01*
X9783928Y-15926786D02*
X9798214Y-15912500D01*
X9826786Y-15898214D01*
X9869643Y-15898214D01*
X9898214Y-15912500D01*
X9912500Y-15941071D01*
X9912500Y-16098214D01*
X9912500Y-15941071D02*
X9926786Y-15912500D01*
X9955357Y-15898214D01*
X9998214Y-15898214D01*
X10026786Y-15912500D01*
X10041071Y-15941071D01*
X10041071Y-16098214D01*
X10626786Y-15783929D02*
X10369643Y-16169643D01*
X11012500Y-15798214D02*
X11041071Y-15798214D01*
X11069643Y-15812500D01*
X11083928Y-15826786D01*
X11098214Y-15855357D01*
X11112500Y-15912500D01*
X11112500Y-15983929D01*
X11098214Y-16041071D01*
X11083928Y-16069643D01*
X11069643Y-16083929D01*
X11041071Y-16098214D01*
X11012500Y-16098214D01*
X10983928Y-16083929D01*
X10969643Y-16069643D01*
X10955357Y-16041071D01*
X10941071Y-15983929D01*
X10941071Y-15912500D01*
X10955357Y-15855357D01*
X10969643Y-15826786D01*
X10983928Y-15812500D01*
X11012500Y-15798214D01*
X11241071Y-16069643D02*
X11255357Y-16083929D01*
X11241071Y-16098214D01*
X11226786Y-16083929D01*
X11241071Y-16069643D01*
X11241071Y-16098214D01*
X11441071Y-15798214D02*
X11469643Y-15798214D01*
X11498214Y-15812500D01*
X11512500Y-15826786D01*
X11526786Y-15855357D01*
X11541071Y-15912500D01*
X11541071Y-15983929D01*
X11526786Y-16041071D01*
X11512500Y-16069643D01*
X11498214Y-16083929D01*
X11469643Y-16098214D01*
X11441071Y-16098214D01*
X11412500Y-16083929D01*
X11398214Y-16069643D01*
X11383928Y-16041071D01*
X11369643Y-15983929D01*
X11369643Y-15912500D01*
X11383928Y-15855357D01*
X11398214Y-15826786D01*
X11412500Y-15812500D01*
X11441071Y-15798214D01*
X11826786Y-16098214D02*
X11655357Y-16098214D01*
X11741071Y-16098214D02*
X11741071Y-15798214D01*
X11712500Y-15841071D01*
X11683928Y-15869643D01*
X11655357Y-15883929D01*
X12083928Y-15798214D02*
X12026786Y-15798214D01*
X11998214Y-15812500D01*
X11983928Y-15826786D01*
X11955357Y-15869643D01*
X11941071Y-15926786D01*
X11941071Y-16041071D01*
X11955357Y-16069643D01*
X11969643Y-16083929D01*
X11998214Y-16098214D01*
X12055357Y-16098214D01*
X12083928Y-16083929D01*
X12098214Y-16069643D01*
X12112500Y-16041071D01*
X12112500Y-15969643D01*
X12098214Y-15941071D01*
X12083928Y-15926786D01*
X12055357Y-15912500D01*
X11998214Y-15912500D01*
X11969643Y-15926786D01*
X11955357Y-15941071D01*
X11941071Y-15969643D01*
X12226786Y-15798214D02*
X12226786Y-15855357D01*
X12341071Y-15798214D02*
X12341071Y-15855357D01*
X12783928Y-16212500D02*
X12769643Y-16198214D01*
X12741071Y-16155357D01*
X12726786Y-16126786D01*
X12712500Y-16083929D01*
X12698214Y-16012500D01*
X12698214Y-15955357D01*
X12712500Y-15883929D01*
X12726786Y-15841071D01*
X12741071Y-15812500D01*
X12769643Y-15769643D01*
X12783928Y-15755357D01*
X12941071Y-15926786D02*
X12912500Y-15912500D01*
X12898214Y-15898214D01*
X12883928Y-15869643D01*
X12883928Y-15855357D01*
X12898214Y-15826786D01*
X12912500Y-15812500D01*
X12941071Y-15798214D01*
X12998214Y-15798214D01*
X13026786Y-15812500D01*
X13041071Y-15826786D01*
X13055357Y-15855357D01*
X13055357Y-15869643D01*
X13041071Y-15898214D01*
X13026786Y-15912500D01*
X12998214Y-15926786D01*
X12941071Y-15926786D01*
X12912500Y-15941071D01*
X12898214Y-15955357D01*
X12883928Y-15983929D01*
X12883928Y-16041071D01*
X12898214Y-16069643D01*
X12912500Y-16083929D01*
X12941071Y-16098214D01*
X12998214Y-16098214D01*
X13026786Y-16083929D01*
X13041071Y-16069643D01*
X13055357Y-16041071D01*
X13055357Y-15983929D01*
X13041071Y-15955357D01*
X13026786Y-15941071D01*
X12998214Y-15926786D01*
X13169643Y-15826786D02*
X13183928Y-15812500D01*
X13212500Y-15798214D01*
X13283928Y-15798214D01*
X13312500Y-15812500D01*
X13326786Y-15826786D01*
X13341071Y-15855357D01*
X13341071Y-15883929D01*
X13326786Y-15926786D01*
X13155357Y-16098214D01*
X13341071Y-16098214D01*
X13698214Y-16098214D02*
X13698214Y-15798214D01*
X13826786Y-16098214D02*
X13826786Y-15941071D01*
X13812500Y-15912500D01*
X13783928Y-15898214D01*
X13741071Y-15898214D01*
X13712500Y-15912500D01*
X13698214Y-15926786D01*
X14012500Y-16098214D02*
X13983928Y-16083929D01*
X13969643Y-16069643D01*
X13955357Y-16041071D01*
X13955357Y-15955357D01*
X13969643Y-15926786D01*
X13983928Y-15912500D01*
X14012500Y-15898214D01*
X14055357Y-15898214D01*
X14083928Y-15912500D01*
X14098214Y-15926786D01*
X14112500Y-15955357D01*
X14112500Y-16041071D01*
X14098214Y-16069643D01*
X14083928Y-16083929D01*
X14055357Y-16098214D01*
X14012500Y-16098214D01*
X14283928Y-16098214D02*
X14255357Y-16083929D01*
X14241071Y-16055357D01*
X14241071Y-15798214D01*
X14512500Y-16083929D02*
X14483928Y-16098214D01*
X14426786Y-16098214D01*
X14398214Y-16083929D01*
X14383928Y-16055357D01*
X14383928Y-15941071D01*
X14398214Y-15912500D01*
X14426786Y-15898214D01*
X14483928Y-15898214D01*
X14512500Y-15912500D01*
X14526786Y-15941071D01*
X14526786Y-15969643D01*
X14383928Y-15998214D01*
X14641071Y-16083929D02*
X14669643Y-16098214D01*
X14726786Y-16098214D01*
X14755357Y-16083929D01*
X14769643Y-16055357D01*
X14769643Y-16041071D01*
X14755357Y-16012500D01*
X14726786Y-15998214D01*
X14683928Y-15998214D01*
X14655357Y-15983929D01*
X14641071Y-15955357D01*
X14641071Y-15941071D01*
X14655357Y-15912500D01*
X14683928Y-15898214D01*
X14726786Y-15898214D01*
X14755357Y-15912500D01*
X14869643Y-16212500D02*
X14883928Y-16198214D01*
X14912500Y-16155357D01*
X14926786Y-16126786D01*
X14941071Y-16083929D01*
X14955357Y-16012500D01*
X14955357Y-15955357D01*
X14941071Y-15883929D01*
X14926786Y-15841071D01*
X14912500Y-15812500D01*
X14883928Y-15769643D01*
X14869643Y-15755357D01*
X8097500Y-16358500D02*
G75*
G03*
X8097500Y-16358500I-25000J0D01*
G01*
X8441071Y-16194214D02*
X8469643Y-16194214D01*
X8498214Y-16208500D01*
X8512500Y-16222786D01*
X8526786Y-16251357D01*
X8541071Y-16308500D01*
X8541071Y-16379929D01*
X8526786Y-16437071D01*
X8512500Y-16465643D01*
X8498214Y-16479929D01*
X8469643Y-16494214D01*
X8441071Y-16494214D01*
X8412500Y-16479929D01*
X8398214Y-16465643D01*
X8383928Y-16437071D01*
X8369643Y-16379929D01*
X8369643Y-16308500D01*
X8383928Y-16251357D01*
X8398214Y-16222786D01*
X8412500Y-16208500D01*
X8441071Y-16194214D01*
X8669643Y-16465643D02*
X8683928Y-16479929D01*
X8669643Y-16494214D01*
X8655357Y-16479929D01*
X8669643Y-16465643D01*
X8669643Y-16494214D01*
X8955357Y-16194214D02*
X8812500Y-16194214D01*
X8798214Y-16337071D01*
X8812500Y-16322786D01*
X8841071Y-16308500D01*
X8912500Y-16308500D01*
X8941071Y-16322786D01*
X8955357Y-16337071D01*
X8969643Y-16365643D01*
X8969643Y-16437071D01*
X8955357Y-16465643D01*
X8941071Y-16479929D01*
X8912500Y-16494214D01*
X8841071Y-16494214D01*
X8812500Y-16479929D01*
X8798214Y-16465643D01*
X9155357Y-16194214D02*
X9183928Y-16194214D01*
X9212500Y-16208500D01*
X9226786Y-16222786D01*
X9241071Y-16251357D01*
X9255357Y-16308500D01*
X9255357Y-16379929D01*
X9241071Y-16437071D01*
X9226786Y-16465643D01*
X9212500Y-16479929D01*
X9183928Y-16494214D01*
X9155357Y-16494214D01*
X9126786Y-16479929D01*
X9112500Y-16465643D01*
X9098214Y-16437071D01*
X9083928Y-16379929D01*
X9083928Y-16308500D01*
X9098214Y-16251357D01*
X9112500Y-16222786D01*
X9126786Y-16208500D01*
X9155357Y-16194214D01*
X9383928Y-16494214D02*
X9383928Y-16294214D01*
X9383928Y-16322786D02*
X9398214Y-16308500D01*
X9426786Y-16294214D01*
X9469643Y-16294214D01*
X9498214Y-16308500D01*
X9512500Y-16337071D01*
X9512500Y-16494214D01*
X9512500Y-16337071D02*
X9526786Y-16308500D01*
X9555357Y-16294214D01*
X9598214Y-16294214D01*
X9626786Y-16308500D01*
X9641071Y-16337071D01*
X9641071Y-16494214D01*
X9783928Y-16494214D02*
X9783928Y-16294214D01*
X9783928Y-16322786D02*
X9798214Y-16308500D01*
X9826786Y-16294214D01*
X9869643Y-16294214D01*
X9898214Y-16308500D01*
X9912500Y-16337071D01*
X9912500Y-16494214D01*
X9912500Y-16337071D02*
X9926786Y-16308500D01*
X9955357Y-16294214D01*
X9998214Y-16294214D01*
X10026786Y-16308500D01*
X10041071Y-16337071D01*
X10041071Y-16494214D01*
X10626786Y-16179929D02*
X10369643Y-16565643D01*
X11012500Y-16194214D02*
X11041071Y-16194214D01*
X11069643Y-16208500D01*
X11083928Y-16222786D01*
X11098214Y-16251357D01*
X11112500Y-16308500D01*
X11112500Y-16379929D01*
X11098214Y-16437071D01*
X11083928Y-16465643D01*
X11069643Y-16479929D01*
X11041071Y-16494214D01*
X11012500Y-16494214D01*
X10983928Y-16479929D01*
X10969643Y-16465643D01*
X10955357Y-16437071D01*
X10941071Y-16379929D01*
X10941071Y-16308500D01*
X10955357Y-16251357D01*
X10969643Y-16222786D01*
X10983928Y-16208500D01*
X11012500Y-16194214D01*
X11241071Y-16465643D02*
X11255357Y-16479929D01*
X11241071Y-16494214D01*
X11226786Y-16479929D01*
X11241071Y-16465643D01*
X11241071Y-16494214D01*
X11441071Y-16194214D02*
X11469643Y-16194214D01*
X11498214Y-16208500D01*
X11512500Y-16222786D01*
X11526786Y-16251357D01*
X11541071Y-16308500D01*
X11541071Y-16379929D01*
X11526786Y-16437071D01*
X11512500Y-16465643D01*
X11498214Y-16479929D01*
X11469643Y-16494214D01*
X11441071Y-16494214D01*
X11412500Y-16479929D01*
X11398214Y-16465643D01*
X11383928Y-16437071D01*
X11369643Y-16379929D01*
X11369643Y-16308500D01*
X11383928Y-16251357D01*
X11398214Y-16222786D01*
X11412500Y-16208500D01*
X11441071Y-16194214D01*
X11655357Y-16222786D02*
X11669643Y-16208500D01*
X11698214Y-16194214D01*
X11769643Y-16194214D01*
X11798214Y-16208500D01*
X11812500Y-16222786D01*
X11826786Y-16251357D01*
X11826786Y-16279929D01*
X11812500Y-16322786D01*
X11641071Y-16494214D01*
X11826786Y-16494214D01*
X12012500Y-16194214D02*
X12041071Y-16194214D01*
X12069643Y-16208500D01*
X12083928Y-16222786D01*
X12098214Y-16251357D01*
X12112500Y-16308500D01*
X12112500Y-16379929D01*
X12098214Y-16437071D01*
X12083928Y-16465643D01*
X12069643Y-16479929D01*
X12041071Y-16494214D01*
X12012500Y-16494214D01*
X11983928Y-16479929D01*
X11969643Y-16465643D01*
X11955357Y-16437071D01*
X11941071Y-16379929D01*
X11941071Y-16308500D01*
X11955357Y-16251357D01*
X11969643Y-16222786D01*
X11983928Y-16208500D01*
X12012500Y-16194214D01*
X12226786Y-16194214D02*
X12226786Y-16251357D01*
X12341071Y-16194214D02*
X12341071Y-16251357D01*
X12783928Y-16608500D02*
X12769643Y-16594214D01*
X12741071Y-16551357D01*
X12726786Y-16522786D01*
X12712500Y-16479929D01*
X12698214Y-16408500D01*
X12698214Y-16351357D01*
X12712500Y-16279929D01*
X12726786Y-16237071D01*
X12741071Y-16208500D01*
X12769643Y-16165643D01*
X12783928Y-16151357D01*
X13055357Y-16494214D02*
X12883928Y-16494214D01*
X12969643Y-16494214D02*
X12969643Y-16194214D01*
X12941071Y-16237071D01*
X12912500Y-16265643D01*
X12883928Y-16279929D01*
X13341071Y-16494214D02*
X13169643Y-16494214D01*
X13255357Y-16494214D02*
X13255357Y-16194214D01*
X13226786Y-16237071D01*
X13198214Y-16265643D01*
X13169643Y-16279929D01*
X13598214Y-16294214D02*
X13598214Y-16494214D01*
X13526786Y-16179929D02*
X13455357Y-16394214D01*
X13641071Y-16394214D01*
X13983928Y-16494214D02*
X13983928Y-16194214D01*
X14112500Y-16494214D02*
X14112500Y-16337071D01*
X14098214Y-16308500D01*
X14069643Y-16294214D01*
X14026786Y-16294214D01*
X13998214Y-16308500D01*
X13983928Y-16322786D01*
X14298214Y-16494214D02*
X14269643Y-16479929D01*
X14255357Y-16465643D01*
X14241071Y-16437071D01*
X14241071Y-16351357D01*
X14255357Y-16322786D01*
X14269643Y-16308500D01*
X14298214Y-16294214D01*
X14341071Y-16294214D01*
X14369643Y-16308500D01*
X14383928Y-16322786D01*
X14398214Y-16351357D01*
X14398214Y-16437071D01*
X14383928Y-16465643D01*
X14369643Y-16479929D01*
X14341071Y-16494214D01*
X14298214Y-16494214D01*
X14569643Y-16494214D02*
X14541071Y-16479929D01*
X14526786Y-16451357D01*
X14526786Y-16194214D01*
X14798214Y-16479929D02*
X14769643Y-16494214D01*
X14712500Y-16494214D01*
X14683928Y-16479929D01*
X14669643Y-16451357D01*
X14669643Y-16337071D01*
X14683928Y-16308500D01*
X14712500Y-16294214D01*
X14769643Y-16294214D01*
X14798214Y-16308500D01*
X14812500Y-16337071D01*
X14812500Y-16365643D01*
X14669643Y-16394214D01*
X14926786Y-16479929D02*
X14955357Y-16494214D01*
X15012500Y-16494214D01*
X15041071Y-16479929D01*
X15055357Y-16451357D01*
X15055357Y-16437071D01*
X15041071Y-16408500D01*
X15012500Y-16394214D01*
X14969643Y-16394214D01*
X14941071Y-16379929D01*
X14926786Y-16351357D01*
X14926786Y-16337071D01*
X14941071Y-16308500D01*
X14969643Y-16294214D01*
X15012500Y-16294214D01*
X15041071Y-16308500D01*
X15155357Y-16608500D02*
X15169643Y-16594214D01*
X15198214Y-16551357D01*
X15212500Y-16522786D01*
X15226786Y-16479929D01*
X15241071Y-16408500D01*
X15241071Y-16351357D01*
X15226786Y-16279929D01*
X15212500Y-16237071D01*
X15198214Y-16208500D01*
X15169643Y-16165643D01*
X15155357Y-16151357D01*
X8062500Y-16719500D02*
X8062500Y-16789500D01*
X8027500Y-16754500D02*
X8097500Y-16754500D01*
X8441071Y-16590214D02*
X8469643Y-16590214D01*
X8498214Y-16604500D01*
X8512500Y-16618786D01*
X8526786Y-16647357D01*
X8541071Y-16704500D01*
X8541071Y-16775929D01*
X8526786Y-16833072D01*
X8512500Y-16861643D01*
X8498214Y-16875929D01*
X8469643Y-16890214D01*
X8441071Y-16890214D01*
X8412500Y-16875929D01*
X8398214Y-16861643D01*
X8383928Y-16833072D01*
X8369643Y-16775929D01*
X8369643Y-16704500D01*
X8383928Y-16647357D01*
X8398214Y-16618786D01*
X8412500Y-16604500D01*
X8441071Y-16590214D01*
X8669643Y-16861643D02*
X8683928Y-16875929D01*
X8669643Y-16890214D01*
X8655357Y-16875929D01*
X8669643Y-16861643D01*
X8669643Y-16890214D01*
X8783928Y-16590214D02*
X8983928Y-16590214D01*
X8855357Y-16890214D01*
X9155357Y-16590214D02*
X9183928Y-16590214D01*
X9212500Y-16604500D01*
X9226786Y-16618786D01*
X9241071Y-16647357D01*
X9255357Y-16704500D01*
X9255357Y-16775929D01*
X9241071Y-16833072D01*
X9226786Y-16861643D01*
X9212500Y-16875929D01*
X9183928Y-16890214D01*
X9155357Y-16890214D01*
X9126786Y-16875929D01*
X9112500Y-16861643D01*
X9098214Y-16833072D01*
X9083928Y-16775929D01*
X9083928Y-16704500D01*
X9098214Y-16647357D01*
X9112500Y-16618786D01*
X9126786Y-16604500D01*
X9155357Y-16590214D01*
X9383928Y-16890214D02*
X9383928Y-16690214D01*
X9383928Y-16718786D02*
X9398214Y-16704500D01*
X9426786Y-16690214D01*
X9469643Y-16690214D01*
X9498214Y-16704500D01*
X9512500Y-16733071D01*
X9512500Y-16890214D01*
X9512500Y-16733071D02*
X9526786Y-16704500D01*
X9555357Y-16690214D01*
X9598214Y-16690214D01*
X9626786Y-16704500D01*
X9641071Y-16733071D01*
X9641071Y-16890214D01*
X9783928Y-16890214D02*
X9783928Y-16690214D01*
X9783928Y-16718786D02*
X9798214Y-16704500D01*
X9826786Y-16690214D01*
X9869643Y-16690214D01*
X9898214Y-16704500D01*
X9912500Y-16733071D01*
X9912500Y-16890214D01*
X9912500Y-16733071D02*
X9926786Y-16704500D01*
X9955357Y-16690214D01*
X9998214Y-16690214D01*
X10026786Y-16704500D01*
X10041071Y-16733071D01*
X10041071Y-16890214D01*
X10626786Y-16575929D02*
X10369643Y-16961643D01*
X11012500Y-16590214D02*
X11041071Y-16590214D01*
X11069643Y-16604500D01*
X11083928Y-16618786D01*
X11098214Y-16647357D01*
X11112500Y-16704500D01*
X11112500Y-16775929D01*
X11098214Y-16833072D01*
X11083928Y-16861643D01*
X11069643Y-16875929D01*
X11041071Y-16890214D01*
X11012500Y-16890214D01*
X10983928Y-16875929D01*
X10969643Y-16861643D01*
X10955357Y-16833072D01*
X10941071Y-16775929D01*
X10941071Y-16704500D01*
X10955357Y-16647357D01*
X10969643Y-16618786D01*
X10983928Y-16604500D01*
X11012500Y-16590214D01*
X11241071Y-16861643D02*
X11255357Y-16875929D01*
X11241071Y-16890214D01*
X11226786Y-16875929D01*
X11241071Y-16861643D01*
X11241071Y-16890214D01*
X11441071Y-16590214D02*
X11469643Y-16590214D01*
X11498214Y-16604500D01*
X11512500Y-16618786D01*
X11526786Y-16647357D01*
X11541071Y-16704500D01*
X11541071Y-16775929D01*
X11526786Y-16833072D01*
X11512500Y-16861643D01*
X11498214Y-16875929D01*
X11469643Y-16890214D01*
X11441071Y-16890214D01*
X11412500Y-16875929D01*
X11398214Y-16861643D01*
X11383928Y-16833072D01*
X11369643Y-16775929D01*
X11369643Y-16704500D01*
X11383928Y-16647357D01*
X11398214Y-16618786D01*
X11412500Y-16604500D01*
X11441071Y-16590214D01*
X11655357Y-16618786D02*
X11669643Y-16604500D01*
X11698214Y-16590214D01*
X11769643Y-16590214D01*
X11798214Y-16604500D01*
X11812500Y-16618786D01*
X11826786Y-16647357D01*
X11826786Y-16675929D01*
X11812500Y-16718786D01*
X11641071Y-16890214D01*
X11826786Y-16890214D01*
X11998214Y-16718786D02*
X11969643Y-16704500D01*
X11955357Y-16690214D01*
X11941071Y-16661643D01*
X11941071Y-16647357D01*
X11955357Y-16618786D01*
X11969643Y-16604500D01*
X11998214Y-16590214D01*
X12055357Y-16590214D01*
X12083928Y-16604500D01*
X12098214Y-16618786D01*
X12112500Y-16647357D01*
X12112500Y-16661643D01*
X12098214Y-16690214D01*
X12083928Y-16704500D01*
X12055357Y-16718786D01*
X11998214Y-16718786D01*
X11969643Y-16733071D01*
X11955357Y-16747357D01*
X11941071Y-16775929D01*
X11941071Y-16833072D01*
X11955357Y-16861643D01*
X11969643Y-16875929D01*
X11998214Y-16890214D01*
X12055357Y-16890214D01*
X12083928Y-16875929D01*
X12098214Y-16861643D01*
X12112500Y-16833072D01*
X12112500Y-16775929D01*
X12098214Y-16747357D01*
X12083928Y-16733071D01*
X12055357Y-16718786D01*
X12226786Y-16590214D02*
X12226786Y-16647357D01*
X12341071Y-16590214D02*
X12341071Y-16647357D01*
X12783928Y-17004500D02*
X12769643Y-16990214D01*
X12741071Y-16947357D01*
X12726786Y-16918786D01*
X12712500Y-16875929D01*
X12698214Y-16804500D01*
X12698214Y-16747357D01*
X12712500Y-16675929D01*
X12726786Y-16633071D01*
X12741071Y-16604500D01*
X12769643Y-16561643D01*
X12783928Y-16547357D01*
X13055357Y-16890214D02*
X12883928Y-16890214D01*
X12969643Y-16890214D02*
X12969643Y-16590214D01*
X12941071Y-16633071D01*
X12912500Y-16661643D01*
X12883928Y-16675929D01*
X13198214Y-16890214D02*
X13255357Y-16890214D01*
X13283928Y-16875929D01*
X13298214Y-16861643D01*
X13326786Y-16818786D01*
X13341071Y-16761643D01*
X13341071Y-16647357D01*
X13326786Y-16618786D01*
X13312500Y-16604500D01*
X13283928Y-16590214D01*
X13226786Y-16590214D01*
X13198214Y-16604500D01*
X13183928Y-16618786D01*
X13169643Y-16647357D01*
X13169643Y-16718786D01*
X13183928Y-16747357D01*
X13198214Y-16761643D01*
X13226786Y-16775929D01*
X13283928Y-16775929D01*
X13312500Y-16761643D01*
X13326786Y-16747357D01*
X13341071Y-16718786D01*
X13698214Y-16890214D02*
X13698214Y-16590214D01*
X13826786Y-16890214D02*
X13826786Y-16733071D01*
X13812500Y-16704500D01*
X13783928Y-16690214D01*
X13741071Y-16690214D01*
X13712500Y-16704500D01*
X13698214Y-16718786D01*
X14012500Y-16890214D02*
X13983928Y-16875929D01*
X13969643Y-16861643D01*
X13955357Y-16833072D01*
X13955357Y-16747357D01*
X13969643Y-16718786D01*
X13983928Y-16704500D01*
X14012500Y-16690214D01*
X14055357Y-16690214D01*
X14083928Y-16704500D01*
X14098214Y-16718786D01*
X14112500Y-16747357D01*
X14112500Y-16833072D01*
X14098214Y-16861643D01*
X14083928Y-16875929D01*
X14055357Y-16890214D01*
X14012500Y-16890214D01*
X14283928Y-16890214D02*
X14255357Y-16875929D01*
X14241071Y-16847357D01*
X14241071Y-16590214D01*
X14512500Y-16875929D02*
X14483928Y-16890214D01*
X14426786Y-16890214D01*
X14398214Y-16875929D01*
X14383928Y-16847357D01*
X14383928Y-16733071D01*
X14398214Y-16704500D01*
X14426786Y-16690214D01*
X14483928Y-16690214D01*
X14512500Y-16704500D01*
X14526786Y-16733071D01*
X14526786Y-16761643D01*
X14383928Y-16790214D01*
X14641071Y-16875929D02*
X14669643Y-16890214D01*
X14726786Y-16890214D01*
X14755357Y-16875929D01*
X14769643Y-16847357D01*
X14769643Y-16833072D01*
X14755357Y-16804500D01*
X14726786Y-16790214D01*
X14683928Y-16790214D01*
X14655357Y-16775929D01*
X14641071Y-16747357D01*
X14641071Y-16733071D01*
X14655357Y-16704500D01*
X14683928Y-16690214D01*
X14726786Y-16690214D01*
X14755357Y-16704500D01*
X14869643Y-17004500D02*
X14883928Y-16990214D01*
X14912500Y-16947357D01*
X14926786Y-16918786D01*
X14941071Y-16875929D01*
X14955357Y-16804500D01*
X14955357Y-16747357D01*
X14941071Y-16675929D01*
X14926786Y-16633071D01*
X14912500Y-16604500D01*
X14883928Y-16561643D01*
X14869643Y-16547357D01*
X8086517Y-17177017D02*
X8086517Y-17123983D01*
X8033483Y-17123983D01*
X8033483Y-17177017D01*
X8086517Y-17177017D01*
X8441071Y-16986214D02*
X8469643Y-16986214D01*
X8498214Y-17000500D01*
X8512500Y-17014786D01*
X8526786Y-17043357D01*
X8541071Y-17100500D01*
X8541071Y-17171929D01*
X8526786Y-17229072D01*
X8512500Y-17257643D01*
X8498214Y-17271929D01*
X8469643Y-17286214D01*
X8441071Y-17286214D01*
X8412500Y-17271929D01*
X8398214Y-17257643D01*
X8383928Y-17229072D01*
X8369643Y-17171929D01*
X8369643Y-17100500D01*
X8383928Y-17043357D01*
X8398214Y-17014786D01*
X8412500Y-17000500D01*
X8441071Y-16986214D01*
X8669643Y-17257643D02*
X8683928Y-17271929D01*
X8669643Y-17286214D01*
X8655357Y-17271929D01*
X8669643Y-17257643D01*
X8669643Y-17286214D01*
X8783928Y-16986214D02*
X8983928Y-16986214D01*
X8855357Y-17286214D01*
X9241071Y-16986214D02*
X9098214Y-16986214D01*
X9083928Y-17129072D01*
X9098214Y-17114786D01*
X9126786Y-17100500D01*
X9198214Y-17100500D01*
X9226786Y-17114786D01*
X9241071Y-17129072D01*
X9255357Y-17157643D01*
X9255357Y-17229072D01*
X9241071Y-17257643D01*
X9226786Y-17271929D01*
X9198214Y-17286214D01*
X9126786Y-17286214D01*
X9098214Y-17271929D01*
X9083928Y-17257643D01*
X9383928Y-17286214D02*
X9383928Y-17086214D01*
X9383928Y-17114786D02*
X9398214Y-17100500D01*
X9426786Y-17086214D01*
X9469643Y-17086214D01*
X9498214Y-17100500D01*
X9512500Y-17129072D01*
X9512500Y-17286214D01*
X9512500Y-17129072D02*
X9526786Y-17100500D01*
X9555357Y-17086214D01*
X9598214Y-17086214D01*
X9626786Y-17100500D01*
X9641071Y-17129072D01*
X9641071Y-17286214D01*
X9783928Y-17286214D02*
X9783928Y-17086214D01*
X9783928Y-17114786D02*
X9798214Y-17100500D01*
X9826786Y-17086214D01*
X9869643Y-17086214D01*
X9898214Y-17100500D01*
X9912500Y-17129072D01*
X9912500Y-17286214D01*
X9912500Y-17129072D02*
X9926786Y-17100500D01*
X9955357Y-17086214D01*
X9998214Y-17086214D01*
X10026786Y-17100500D01*
X10041071Y-17129072D01*
X10041071Y-17286214D01*
X10626786Y-16971929D02*
X10369643Y-17357643D01*
X11012500Y-16986214D02*
X11041071Y-16986214D01*
X11069643Y-17000500D01*
X11083928Y-17014786D01*
X11098214Y-17043357D01*
X11112500Y-17100500D01*
X11112500Y-17171929D01*
X11098214Y-17229072D01*
X11083928Y-17257643D01*
X11069643Y-17271929D01*
X11041071Y-17286214D01*
X11012500Y-17286214D01*
X10983928Y-17271929D01*
X10969643Y-17257643D01*
X10955357Y-17229072D01*
X10941071Y-17171929D01*
X10941071Y-17100500D01*
X10955357Y-17043357D01*
X10969643Y-17014786D01*
X10983928Y-17000500D01*
X11012500Y-16986214D01*
X11241071Y-17257643D02*
X11255357Y-17271929D01*
X11241071Y-17286214D01*
X11226786Y-17271929D01*
X11241071Y-17257643D01*
X11241071Y-17286214D01*
X11441071Y-16986214D02*
X11469643Y-16986214D01*
X11498214Y-17000500D01*
X11512500Y-17014786D01*
X11526786Y-17043357D01*
X11541071Y-17100500D01*
X11541071Y-17171929D01*
X11526786Y-17229072D01*
X11512500Y-17257643D01*
X11498214Y-17271929D01*
X11469643Y-17286214D01*
X11441071Y-17286214D01*
X11412500Y-17271929D01*
X11398214Y-17257643D01*
X11383928Y-17229072D01*
X11369643Y-17171929D01*
X11369643Y-17100500D01*
X11383928Y-17043357D01*
X11398214Y-17014786D01*
X11412500Y-17000500D01*
X11441071Y-16986214D01*
X11641071Y-16986214D02*
X11826786Y-16986214D01*
X11726786Y-17100500D01*
X11769643Y-17100500D01*
X11798214Y-17114786D01*
X11812500Y-17129072D01*
X11826786Y-17157643D01*
X11826786Y-17229072D01*
X11812500Y-17257643D01*
X11798214Y-17271929D01*
X11769643Y-17286214D01*
X11683928Y-17286214D01*
X11655357Y-17271929D01*
X11641071Y-17257643D01*
X12012500Y-16986214D02*
X12041071Y-16986214D01*
X12069643Y-17000500D01*
X12083928Y-17014786D01*
X12098214Y-17043357D01*
X12112500Y-17100500D01*
X12112500Y-17171929D01*
X12098214Y-17229072D01*
X12083928Y-17257643D01*
X12069643Y-17271929D01*
X12041071Y-17286214D01*
X12012500Y-17286214D01*
X11983928Y-17271929D01*
X11969643Y-17257643D01*
X11955357Y-17229072D01*
X11941071Y-17171929D01*
X11941071Y-17100500D01*
X11955357Y-17043357D01*
X11969643Y-17014786D01*
X11983928Y-17000500D01*
X12012500Y-16986214D01*
X12226786Y-16986214D02*
X12226786Y-17043357D01*
X12341071Y-16986214D02*
X12341071Y-17043357D01*
X12783928Y-17400500D02*
X12769643Y-17386214D01*
X12741071Y-17343357D01*
X12726786Y-17314786D01*
X12712500Y-17271929D01*
X12698214Y-17200500D01*
X12698214Y-17143357D01*
X12712500Y-17071929D01*
X12726786Y-17029072D01*
X12741071Y-17000500D01*
X12769643Y-16957643D01*
X12783928Y-16943357D01*
X12912500Y-17286214D02*
X12969643Y-17286214D01*
X12998214Y-17271929D01*
X13012500Y-17257643D01*
X13041071Y-17214786D01*
X13055357Y-17157643D01*
X13055357Y-17043357D01*
X13041071Y-17014786D01*
X13026786Y-17000500D01*
X12998214Y-16986214D01*
X12941071Y-16986214D01*
X12912500Y-17000500D01*
X12898214Y-17014786D01*
X12883928Y-17043357D01*
X12883928Y-17114786D01*
X12898214Y-17143357D01*
X12912500Y-17157643D01*
X12941071Y-17171929D01*
X12998214Y-17171929D01*
X13026786Y-17157643D01*
X13041071Y-17143357D01*
X13055357Y-17114786D01*
X13412500Y-17286214D02*
X13412500Y-16986214D01*
X13541071Y-17286214D02*
X13541071Y-17129072D01*
X13526786Y-17100500D01*
X13498214Y-17086214D01*
X13455357Y-17086214D01*
X13426786Y-17100500D01*
X13412500Y-17114786D01*
X13726786Y-17286214D02*
X13698214Y-17271929D01*
X13683928Y-17257643D01*
X13669643Y-17229072D01*
X13669643Y-17143357D01*
X13683928Y-17114786D01*
X13698214Y-17100500D01*
X13726786Y-17086214D01*
X13769643Y-17086214D01*
X13798214Y-17100500D01*
X13812500Y-17114786D01*
X13826786Y-17143357D01*
X13826786Y-17229072D01*
X13812500Y-17257643D01*
X13798214Y-17271929D01*
X13769643Y-17286214D01*
X13726786Y-17286214D01*
X13998214Y-17286214D02*
X13969643Y-17271929D01*
X13955357Y-17243357D01*
X13955357Y-16986214D01*
X14226786Y-17271929D02*
X14198214Y-17286214D01*
X14141071Y-17286214D01*
X14112500Y-17271929D01*
X14098214Y-17243357D01*
X14098214Y-17129072D01*
X14112500Y-17100500D01*
X14141071Y-17086214D01*
X14198214Y-17086214D01*
X14226786Y-17100500D01*
X14241071Y-17129072D01*
X14241071Y-17157643D01*
X14098214Y-17186214D01*
X14355357Y-17271929D02*
X14383928Y-17286214D01*
X14441071Y-17286214D01*
X14469643Y-17271929D01*
X14483928Y-17243357D01*
X14483928Y-17229072D01*
X14469643Y-17200500D01*
X14441071Y-17186214D01*
X14398214Y-17186214D01*
X14369643Y-17171929D01*
X14355357Y-17143357D01*
X14355357Y-17129072D01*
X14369643Y-17100500D01*
X14398214Y-17086214D01*
X14441071Y-17086214D01*
X14469643Y-17100500D01*
X14583928Y-17400500D02*
X14598214Y-17386214D01*
X14626786Y-17343357D01*
X14641071Y-17314786D01*
X14655357Y-17271929D01*
X14669643Y-17200500D01*
X14669643Y-17143357D01*
X14655357Y-17071929D01*
X14641071Y-17029072D01*
X14626786Y-17000500D01*
X14598214Y-16957643D01*
X14583928Y-16943357D01*
X8057500Y-17586500D02*
X8097500Y-17546500D01*
X8057500Y-17506500D01*
X8017500Y-17546500D01*
X8057500Y-17586500D01*
X8441071Y-17382214D02*
X8469643Y-17382214D01*
X8498214Y-17396500D01*
X8512500Y-17410786D01*
X8526786Y-17439357D01*
X8541071Y-17496500D01*
X8541071Y-17567929D01*
X8526786Y-17625072D01*
X8512500Y-17653643D01*
X8498214Y-17667929D01*
X8469643Y-17682214D01*
X8441071Y-17682214D01*
X8412500Y-17667929D01*
X8398214Y-17653643D01*
X8383928Y-17625072D01*
X8369643Y-17567929D01*
X8369643Y-17496500D01*
X8383928Y-17439357D01*
X8398214Y-17410786D01*
X8412500Y-17396500D01*
X8441071Y-17382214D01*
X8669643Y-17653643D02*
X8683928Y-17667929D01*
X8669643Y-17682214D01*
X8655357Y-17667929D01*
X8669643Y-17653643D01*
X8669643Y-17682214D01*
X8855357Y-17510786D02*
X8826786Y-17496500D01*
X8812500Y-17482214D01*
X8798214Y-17453643D01*
X8798214Y-17439357D01*
X8812500Y-17410786D01*
X8826786Y-17396500D01*
X8855357Y-17382214D01*
X8912500Y-17382214D01*
X8941071Y-17396500D01*
X8955357Y-17410786D01*
X8969643Y-17439357D01*
X8969643Y-17453643D01*
X8955357Y-17482214D01*
X8941071Y-17496500D01*
X8912500Y-17510786D01*
X8855357Y-17510786D01*
X8826786Y-17525072D01*
X8812500Y-17539357D01*
X8798214Y-17567929D01*
X8798214Y-17625072D01*
X8812500Y-17653643D01*
X8826786Y-17667929D01*
X8855357Y-17682214D01*
X8912500Y-17682214D01*
X8941071Y-17667929D01*
X8955357Y-17653643D01*
X8969643Y-17625072D01*
X8969643Y-17567929D01*
X8955357Y-17539357D01*
X8941071Y-17525072D01*
X8912500Y-17510786D01*
X9155357Y-17382214D02*
X9183928Y-17382214D01*
X9212500Y-17396500D01*
X9226786Y-17410786D01*
X9241071Y-17439357D01*
X9255357Y-17496500D01*
X9255357Y-17567929D01*
X9241071Y-17625072D01*
X9226786Y-17653643D01*
X9212500Y-17667929D01*
X9183928Y-17682214D01*
X9155357Y-17682214D01*
X9126786Y-17667929D01*
X9112500Y-17653643D01*
X9098214Y-17625072D01*
X9083928Y-17567929D01*
X9083928Y-17496500D01*
X9098214Y-17439357D01*
X9112500Y-17410786D01*
X9126786Y-17396500D01*
X9155357Y-17382214D01*
X9383928Y-17682214D02*
X9383928Y-17482214D01*
X9383928Y-17510786D02*
X9398214Y-17496500D01*
X9426786Y-17482214D01*
X9469643Y-17482214D01*
X9498214Y-17496500D01*
X9512500Y-17525072D01*
X9512500Y-17682214D01*
X9512500Y-17525072D02*
X9526786Y-17496500D01*
X9555357Y-17482214D01*
X9598214Y-17482214D01*
X9626786Y-17496500D01*
X9641071Y-17525072D01*
X9641071Y-17682214D01*
X9783928Y-17682214D02*
X9783928Y-17482214D01*
X9783928Y-17510786D02*
X9798214Y-17496500D01*
X9826786Y-17482214D01*
X9869643Y-17482214D01*
X9898214Y-17496500D01*
X9912500Y-17525072D01*
X9912500Y-17682214D01*
X9912500Y-17525072D02*
X9926786Y-17496500D01*
X9955357Y-17482214D01*
X9998214Y-17482214D01*
X10026786Y-17496500D01*
X10041071Y-17525072D01*
X10041071Y-17682214D01*
X10626786Y-17367929D02*
X10369643Y-17753643D01*
X11012500Y-17382214D02*
X11041071Y-17382214D01*
X11069643Y-17396500D01*
X11083928Y-17410786D01*
X11098214Y-17439357D01*
X11112500Y-17496500D01*
X11112500Y-17567929D01*
X11098214Y-17625072D01*
X11083928Y-17653643D01*
X11069643Y-17667929D01*
X11041071Y-17682214D01*
X11012500Y-17682214D01*
X10983928Y-17667929D01*
X10969643Y-17653643D01*
X10955357Y-17625072D01*
X10941071Y-17567929D01*
X10941071Y-17496500D01*
X10955357Y-17439357D01*
X10969643Y-17410786D01*
X10983928Y-17396500D01*
X11012500Y-17382214D01*
X11241071Y-17653643D02*
X11255357Y-17667929D01*
X11241071Y-17682214D01*
X11226786Y-17667929D01*
X11241071Y-17653643D01*
X11241071Y-17682214D01*
X11441071Y-17382214D02*
X11469643Y-17382214D01*
X11498214Y-17396500D01*
X11512500Y-17410786D01*
X11526786Y-17439357D01*
X11541071Y-17496500D01*
X11541071Y-17567929D01*
X11526786Y-17625072D01*
X11512500Y-17653643D01*
X11498214Y-17667929D01*
X11469643Y-17682214D01*
X11441071Y-17682214D01*
X11412500Y-17667929D01*
X11398214Y-17653643D01*
X11383928Y-17625072D01*
X11369643Y-17567929D01*
X11369643Y-17496500D01*
X11383928Y-17439357D01*
X11398214Y-17410786D01*
X11412500Y-17396500D01*
X11441071Y-17382214D01*
X11641071Y-17382214D02*
X11826786Y-17382214D01*
X11726786Y-17496500D01*
X11769643Y-17496500D01*
X11798214Y-17510786D01*
X11812500Y-17525072D01*
X11826786Y-17553643D01*
X11826786Y-17625072D01*
X11812500Y-17653643D01*
X11798214Y-17667929D01*
X11769643Y-17682214D01*
X11683928Y-17682214D01*
X11655357Y-17667929D01*
X11641071Y-17653643D01*
X12112500Y-17682214D02*
X11941071Y-17682214D01*
X12026786Y-17682214D02*
X12026786Y-17382214D01*
X11998214Y-17425072D01*
X11969643Y-17453643D01*
X11941071Y-17467929D01*
X12226786Y-17382214D02*
X12226786Y-17439357D01*
X12341071Y-17382214D02*
X12341071Y-17439357D01*
X12783928Y-17796500D02*
X12769643Y-17782214D01*
X12741071Y-17739357D01*
X12726786Y-17710786D01*
X12712500Y-17667929D01*
X12698214Y-17596500D01*
X12698214Y-17539357D01*
X12712500Y-17467929D01*
X12726786Y-17425072D01*
X12741071Y-17396500D01*
X12769643Y-17353643D01*
X12783928Y-17339357D01*
X12883928Y-17410786D02*
X12898214Y-17396500D01*
X12926786Y-17382214D01*
X12998214Y-17382214D01*
X13026786Y-17396500D01*
X13041071Y-17410786D01*
X13055357Y-17439357D01*
X13055357Y-17467929D01*
X13041071Y-17510786D01*
X12869643Y-17682214D01*
X13055357Y-17682214D01*
X13412500Y-17682214D02*
X13412500Y-17382214D01*
X13541071Y-17682214D02*
X13541071Y-17525072D01*
X13526786Y-17496500D01*
X13498214Y-17482214D01*
X13455357Y-17482214D01*
X13426786Y-17496500D01*
X13412500Y-17510786D01*
X13726786Y-17682214D02*
X13698214Y-17667929D01*
X13683928Y-17653643D01*
X13669643Y-17625072D01*
X13669643Y-17539357D01*
X13683928Y-17510786D01*
X13698214Y-17496500D01*
X13726786Y-17482214D01*
X13769643Y-17482214D01*
X13798214Y-17496500D01*
X13812500Y-17510786D01*
X13826786Y-17539357D01*
X13826786Y-17625072D01*
X13812500Y-17653643D01*
X13798214Y-17667929D01*
X13769643Y-17682214D01*
X13726786Y-17682214D01*
X13998214Y-17682214D02*
X13969643Y-17667929D01*
X13955357Y-17639357D01*
X13955357Y-17382214D01*
X14226786Y-17667929D02*
X14198214Y-17682214D01*
X14141071Y-17682214D01*
X14112500Y-17667929D01*
X14098214Y-17639357D01*
X14098214Y-17525072D01*
X14112500Y-17496500D01*
X14141071Y-17482214D01*
X14198214Y-17482214D01*
X14226786Y-17496500D01*
X14241071Y-17525072D01*
X14241071Y-17553643D01*
X14098214Y-17582214D01*
X14355357Y-17667929D02*
X14383928Y-17682214D01*
X14441071Y-17682214D01*
X14469643Y-17667929D01*
X14483928Y-17639357D01*
X14483928Y-17625072D01*
X14469643Y-17596500D01*
X14441071Y-17582214D01*
X14398214Y-17582214D01*
X14369643Y-17567929D01*
X14355357Y-17539357D01*
X14355357Y-17525072D01*
X14369643Y-17496500D01*
X14398214Y-17482214D01*
X14441071Y-17482214D01*
X14469643Y-17496500D01*
X14583928Y-17796500D02*
X14598214Y-17782214D01*
X14626786Y-17739357D01*
X14641071Y-17710786D01*
X14655357Y-17667929D01*
X14669643Y-17596500D01*
X14669643Y-17539357D01*
X14655357Y-17467929D01*
X14641071Y-17425072D01*
X14626786Y-17396500D01*
X14598214Y-17353643D01*
X14583928Y-17339357D01*
X8007500Y-17897500D02*
X8097500Y-17987500D01*
X8097500Y-17897500D02*
X8007500Y-17987500D01*
X8097500Y-17942500D02*
G75*
G03*
X8097500Y-17942500I-45000J0D01*
G01*
X8441071Y-17778214D02*
X8469643Y-17778214D01*
X8498214Y-17792500D01*
X8512500Y-17806786D01*
X8526786Y-17835357D01*
X8541071Y-17892500D01*
X8541071Y-17963929D01*
X8526786Y-18021072D01*
X8512500Y-18049643D01*
X8498214Y-18063929D01*
X8469643Y-18078214D01*
X8441071Y-18078214D01*
X8412500Y-18063929D01*
X8398214Y-18049643D01*
X8383928Y-18021072D01*
X8369643Y-17963929D01*
X8369643Y-17892500D01*
X8383928Y-17835357D01*
X8398214Y-17806786D01*
X8412500Y-17792500D01*
X8441071Y-17778214D01*
X8669643Y-18049643D02*
X8683928Y-18063929D01*
X8669643Y-18078214D01*
X8655357Y-18063929D01*
X8669643Y-18049643D01*
X8669643Y-18078214D01*
X8826786Y-18078214D02*
X8883928Y-18078214D01*
X8912500Y-18063929D01*
X8926786Y-18049643D01*
X8955357Y-18006786D01*
X8969643Y-17949643D01*
X8969643Y-17835357D01*
X8955357Y-17806786D01*
X8941071Y-17792500D01*
X8912500Y-17778214D01*
X8855357Y-17778214D01*
X8826786Y-17792500D01*
X8812500Y-17806786D01*
X8798214Y-17835357D01*
X8798214Y-17906786D01*
X8812500Y-17935357D01*
X8826786Y-17949643D01*
X8855357Y-17963929D01*
X8912500Y-17963929D01*
X8941071Y-17949643D01*
X8955357Y-17935357D01*
X8969643Y-17906786D01*
X9155357Y-17778214D02*
X9183928Y-17778214D01*
X9212500Y-17792500D01*
X9226786Y-17806786D01*
X9241071Y-17835357D01*
X9255357Y-17892500D01*
X9255357Y-17963929D01*
X9241071Y-18021072D01*
X9226786Y-18049643D01*
X9212500Y-18063929D01*
X9183928Y-18078214D01*
X9155357Y-18078214D01*
X9126786Y-18063929D01*
X9112500Y-18049643D01*
X9098214Y-18021072D01*
X9083928Y-17963929D01*
X9083928Y-17892500D01*
X9098214Y-17835357D01*
X9112500Y-17806786D01*
X9126786Y-17792500D01*
X9155357Y-17778214D01*
X9383928Y-18078214D02*
X9383928Y-17878214D01*
X9383928Y-17906786D02*
X9398214Y-17892500D01*
X9426786Y-17878214D01*
X9469643Y-17878214D01*
X9498214Y-17892500D01*
X9512500Y-17921072D01*
X9512500Y-18078214D01*
X9512500Y-17921072D02*
X9526786Y-17892500D01*
X9555357Y-17878214D01*
X9598214Y-17878214D01*
X9626786Y-17892500D01*
X9641071Y-17921072D01*
X9641071Y-18078214D01*
X9783928Y-18078214D02*
X9783928Y-17878214D01*
X9783928Y-17906786D02*
X9798214Y-17892500D01*
X9826786Y-17878214D01*
X9869643Y-17878214D01*
X9898214Y-17892500D01*
X9912500Y-17921072D01*
X9912500Y-18078214D01*
X9912500Y-17921072D02*
X9926786Y-17892500D01*
X9955357Y-17878214D01*
X9998214Y-17878214D01*
X10026786Y-17892500D01*
X10041071Y-17921072D01*
X10041071Y-18078214D01*
X10626786Y-17763929D02*
X10369643Y-18149643D01*
X11012500Y-17778214D02*
X11041071Y-17778214D01*
X11069643Y-17792500D01*
X11083928Y-17806786D01*
X11098214Y-17835357D01*
X11112500Y-17892500D01*
X11112500Y-17963929D01*
X11098214Y-18021072D01*
X11083928Y-18049643D01*
X11069643Y-18063929D01*
X11041071Y-18078214D01*
X11012500Y-18078214D01*
X10983928Y-18063929D01*
X10969643Y-18049643D01*
X10955357Y-18021072D01*
X10941071Y-17963929D01*
X10941071Y-17892500D01*
X10955357Y-17835357D01*
X10969643Y-17806786D01*
X10983928Y-17792500D01*
X11012500Y-17778214D01*
X11241071Y-18049643D02*
X11255357Y-18063929D01*
X11241071Y-18078214D01*
X11226786Y-18063929D01*
X11241071Y-18049643D01*
X11241071Y-18078214D01*
X11441071Y-17778214D02*
X11469643Y-17778214D01*
X11498214Y-17792500D01*
X11512500Y-17806786D01*
X11526786Y-17835357D01*
X11541071Y-17892500D01*
X11541071Y-17963929D01*
X11526786Y-18021072D01*
X11512500Y-18049643D01*
X11498214Y-18063929D01*
X11469643Y-18078214D01*
X11441071Y-18078214D01*
X11412500Y-18063929D01*
X11398214Y-18049643D01*
X11383928Y-18021072D01*
X11369643Y-17963929D01*
X11369643Y-17892500D01*
X11383928Y-17835357D01*
X11398214Y-17806786D01*
X11412500Y-17792500D01*
X11441071Y-17778214D01*
X11641071Y-17778214D02*
X11826786Y-17778214D01*
X11726786Y-17892500D01*
X11769643Y-17892500D01*
X11798214Y-17906786D01*
X11812500Y-17921072D01*
X11826786Y-17949643D01*
X11826786Y-18021072D01*
X11812500Y-18049643D01*
X11798214Y-18063929D01*
X11769643Y-18078214D01*
X11683928Y-18078214D01*
X11655357Y-18063929D01*
X11641071Y-18049643D01*
X12098214Y-17778214D02*
X11955357Y-17778214D01*
X11941071Y-17921072D01*
X11955357Y-17906786D01*
X11983928Y-17892500D01*
X12055357Y-17892500D01*
X12083928Y-17906786D01*
X12098214Y-17921072D01*
X12112500Y-17949643D01*
X12112500Y-18021072D01*
X12098214Y-18049643D01*
X12083928Y-18063929D01*
X12055357Y-18078214D01*
X11983928Y-18078214D01*
X11955357Y-18063929D01*
X11941071Y-18049643D01*
X12226786Y-17778214D02*
X12226786Y-17835357D01*
X12341071Y-17778214D02*
X12341071Y-17835357D01*
X12783928Y-18192500D02*
X12769643Y-18178214D01*
X12741071Y-18135357D01*
X12726786Y-18106786D01*
X12712500Y-18063929D01*
X12698214Y-17992500D01*
X12698214Y-17935357D01*
X12712500Y-17863929D01*
X12726786Y-17821072D01*
X12741071Y-17792500D01*
X12769643Y-17749643D01*
X12783928Y-17735357D01*
X13026786Y-17878214D02*
X13026786Y-18078214D01*
X12955357Y-17763929D02*
X12883928Y-17978214D01*
X13069643Y-17978214D01*
X13412500Y-18078214D02*
X13412500Y-17778214D01*
X13541071Y-18078214D02*
X13541071Y-17921072D01*
X13526786Y-17892500D01*
X13498214Y-17878214D01*
X13455357Y-17878214D01*
X13426786Y-17892500D01*
X13412500Y-17906786D01*
X13726786Y-18078214D02*
X13698214Y-18063929D01*
X13683928Y-18049643D01*
X13669643Y-18021072D01*
X13669643Y-17935357D01*
X13683928Y-17906786D01*
X13698214Y-17892500D01*
X13726786Y-17878214D01*
X13769643Y-17878214D01*
X13798214Y-17892500D01*
X13812500Y-17906786D01*
X13826786Y-17935357D01*
X13826786Y-18021072D01*
X13812500Y-18049643D01*
X13798214Y-18063929D01*
X13769643Y-18078214D01*
X13726786Y-18078214D01*
X13998214Y-18078214D02*
X13969643Y-18063929D01*
X13955357Y-18035357D01*
X13955357Y-17778214D01*
X14226786Y-18063929D02*
X14198214Y-18078214D01*
X14141071Y-18078214D01*
X14112500Y-18063929D01*
X14098214Y-18035357D01*
X14098214Y-17921072D01*
X14112500Y-17892500D01*
X14141071Y-17878214D01*
X14198214Y-17878214D01*
X14226786Y-17892500D01*
X14241071Y-17921072D01*
X14241071Y-17949643D01*
X14098214Y-17978214D01*
X14355357Y-18063929D02*
X14383928Y-18078214D01*
X14441071Y-18078214D01*
X14469643Y-18063929D01*
X14483928Y-18035357D01*
X14483928Y-18021072D01*
X14469643Y-17992500D01*
X14441071Y-17978214D01*
X14398214Y-17978214D01*
X14369643Y-17963929D01*
X14355357Y-17935357D01*
X14355357Y-17921072D01*
X14369643Y-17892500D01*
X14398214Y-17878214D01*
X14441071Y-17878214D01*
X14469643Y-17892500D01*
X14583928Y-18192500D02*
X14598214Y-18178214D01*
X14626786Y-18135357D01*
X14641071Y-18106786D01*
X14655357Y-18063929D01*
X14669643Y-17992500D01*
X14669643Y-17935357D01*
X14655357Y-17863929D01*
X14641071Y-17821072D01*
X14626786Y-17792500D01*
X14598214Y-17749643D01*
X14583928Y-17735357D01*
X7998500Y-18289000D02*
X8097500Y-18388000D01*
X8097500Y-18289000D02*
X7998500Y-18388000D01*
X8048000Y-18289000D02*
X8048000Y-18388000D01*
X7998500Y-18338500D02*
X8097500Y-18338500D01*
X8441071Y-18174214D02*
X8469643Y-18174214D01*
X8498214Y-18188500D01*
X8512500Y-18202786D01*
X8526786Y-18231357D01*
X8541071Y-18288500D01*
X8541071Y-18359929D01*
X8526786Y-18417072D01*
X8512500Y-18445643D01*
X8498214Y-18459929D01*
X8469643Y-18474214D01*
X8441071Y-18474214D01*
X8412500Y-18459929D01*
X8398214Y-18445643D01*
X8383928Y-18417072D01*
X8369643Y-18359929D01*
X8369643Y-18288500D01*
X8383928Y-18231357D01*
X8398214Y-18202786D01*
X8412500Y-18188500D01*
X8441071Y-18174214D01*
X8669643Y-18445643D02*
X8683928Y-18459929D01*
X8669643Y-18474214D01*
X8655357Y-18459929D01*
X8669643Y-18445643D01*
X8669643Y-18474214D01*
X8826786Y-18474214D02*
X8883928Y-18474214D01*
X8912500Y-18459929D01*
X8926786Y-18445643D01*
X8955357Y-18402786D01*
X8969643Y-18345643D01*
X8969643Y-18231357D01*
X8955357Y-18202786D01*
X8941071Y-18188500D01*
X8912500Y-18174214D01*
X8855357Y-18174214D01*
X8826786Y-18188500D01*
X8812500Y-18202786D01*
X8798214Y-18231357D01*
X8798214Y-18302786D01*
X8812500Y-18331357D01*
X8826786Y-18345643D01*
X8855357Y-18359929D01*
X8912500Y-18359929D01*
X8941071Y-18345643D01*
X8955357Y-18331357D01*
X8969643Y-18302786D01*
X9112500Y-18474214D02*
X9169643Y-18474214D01*
X9198214Y-18459929D01*
X9212500Y-18445643D01*
X9241071Y-18402786D01*
X9255357Y-18345643D01*
X9255357Y-18231357D01*
X9241071Y-18202786D01*
X9226786Y-18188500D01*
X9198214Y-18174214D01*
X9141071Y-18174214D01*
X9112500Y-18188500D01*
X9098214Y-18202786D01*
X9083928Y-18231357D01*
X9083928Y-18302786D01*
X9098214Y-18331357D01*
X9112500Y-18345643D01*
X9141071Y-18359929D01*
X9198214Y-18359929D01*
X9226786Y-18345643D01*
X9241071Y-18331357D01*
X9255357Y-18302786D01*
X9383928Y-18474214D02*
X9383928Y-18274214D01*
X9383928Y-18302786D02*
X9398214Y-18288500D01*
X9426786Y-18274214D01*
X9469643Y-18274214D01*
X9498214Y-18288500D01*
X9512500Y-18317072D01*
X9512500Y-18474214D01*
X9512500Y-18317072D02*
X9526786Y-18288500D01*
X9555357Y-18274214D01*
X9598214Y-18274214D01*
X9626786Y-18288500D01*
X9641071Y-18317072D01*
X9641071Y-18474214D01*
X9783928Y-18474214D02*
X9783928Y-18274214D01*
X9783928Y-18302786D02*
X9798214Y-18288500D01*
X9826786Y-18274214D01*
X9869643Y-18274214D01*
X9898214Y-18288500D01*
X9912500Y-18317072D01*
X9912500Y-18474214D01*
X9912500Y-18317072D02*
X9926786Y-18288500D01*
X9955357Y-18274214D01*
X9998214Y-18274214D01*
X10026786Y-18288500D01*
X10041071Y-18317072D01*
X10041071Y-18474214D01*
X10626786Y-18159929D02*
X10369643Y-18545643D01*
X11012500Y-18174214D02*
X11041071Y-18174214D01*
X11069643Y-18188500D01*
X11083928Y-18202786D01*
X11098214Y-18231357D01*
X11112500Y-18288500D01*
X11112500Y-18359929D01*
X11098214Y-18417072D01*
X11083928Y-18445643D01*
X11069643Y-18459929D01*
X11041071Y-18474214D01*
X11012500Y-18474214D01*
X10983928Y-18459929D01*
X10969643Y-18445643D01*
X10955357Y-18417072D01*
X10941071Y-18359929D01*
X10941071Y-18288500D01*
X10955357Y-18231357D01*
X10969643Y-18202786D01*
X10983928Y-18188500D01*
X11012500Y-18174214D01*
X11241071Y-18445643D02*
X11255357Y-18459929D01*
X11241071Y-18474214D01*
X11226786Y-18459929D01*
X11241071Y-18445643D01*
X11241071Y-18474214D01*
X11441071Y-18174214D02*
X11469643Y-18174214D01*
X11498214Y-18188500D01*
X11512500Y-18202786D01*
X11526786Y-18231357D01*
X11541071Y-18288500D01*
X11541071Y-18359929D01*
X11526786Y-18417072D01*
X11512500Y-18445643D01*
X11498214Y-18459929D01*
X11469643Y-18474214D01*
X11441071Y-18474214D01*
X11412500Y-18459929D01*
X11398214Y-18445643D01*
X11383928Y-18417072D01*
X11369643Y-18359929D01*
X11369643Y-18288500D01*
X11383928Y-18231357D01*
X11398214Y-18202786D01*
X11412500Y-18188500D01*
X11441071Y-18174214D01*
X11641071Y-18174214D02*
X11826786Y-18174214D01*
X11726786Y-18288500D01*
X11769643Y-18288500D01*
X11798214Y-18302786D01*
X11812500Y-18317072D01*
X11826786Y-18345643D01*
X11826786Y-18417072D01*
X11812500Y-18445643D01*
X11798214Y-18459929D01*
X11769643Y-18474214D01*
X11683928Y-18474214D01*
X11655357Y-18459929D01*
X11641071Y-18445643D01*
X11969643Y-18474214D02*
X12026786Y-18474214D01*
X12055357Y-18459929D01*
X12069643Y-18445643D01*
X12098214Y-18402786D01*
X12112500Y-18345643D01*
X12112500Y-18231357D01*
X12098214Y-18202786D01*
X12083928Y-18188500D01*
X12055357Y-18174214D01*
X11998214Y-18174214D01*
X11969643Y-18188500D01*
X11955357Y-18202786D01*
X11941071Y-18231357D01*
X11941071Y-18302786D01*
X11955357Y-18331357D01*
X11969643Y-18345643D01*
X11998214Y-18359929D01*
X12055357Y-18359929D01*
X12083928Y-18345643D01*
X12098214Y-18331357D01*
X12112500Y-18302786D01*
X12226786Y-18174214D02*
X12226786Y-18231357D01*
X12341071Y-18174214D02*
X12341071Y-18231357D01*
X12783928Y-18588500D02*
X12769643Y-18574214D01*
X12741071Y-18531357D01*
X12726786Y-18502786D01*
X12712500Y-18459929D01*
X12698214Y-18388500D01*
X12698214Y-18331357D01*
X12712500Y-18259929D01*
X12726786Y-18217072D01*
X12741071Y-18188500D01*
X12769643Y-18145643D01*
X12783928Y-18131357D01*
X13026786Y-18274214D02*
X13026786Y-18474214D01*
X12955357Y-18159929D02*
X12883928Y-18374214D01*
X13069643Y-18374214D01*
X13412500Y-18474214D02*
X13412500Y-18174214D01*
X13541071Y-18474214D02*
X13541071Y-18317072D01*
X13526786Y-18288500D01*
X13498214Y-18274214D01*
X13455357Y-18274214D01*
X13426786Y-18288500D01*
X13412500Y-18302786D01*
X13726786Y-18474214D02*
X13698214Y-18459929D01*
X13683928Y-18445643D01*
X13669643Y-18417072D01*
X13669643Y-18331357D01*
X13683928Y-18302786D01*
X13698214Y-18288500D01*
X13726786Y-18274214D01*
X13769643Y-18274214D01*
X13798214Y-18288500D01*
X13812500Y-18302786D01*
X13826786Y-18331357D01*
X13826786Y-18417072D01*
X13812500Y-18445643D01*
X13798214Y-18459929D01*
X13769643Y-18474214D01*
X13726786Y-18474214D01*
X13998214Y-18474214D02*
X13969643Y-18459929D01*
X13955357Y-18431357D01*
X13955357Y-18174214D01*
X14226786Y-18459929D02*
X14198214Y-18474214D01*
X14141071Y-18474214D01*
X14112500Y-18459929D01*
X14098214Y-18431357D01*
X14098214Y-18317072D01*
X14112500Y-18288500D01*
X14141071Y-18274214D01*
X14198214Y-18274214D01*
X14226786Y-18288500D01*
X14241071Y-18317072D01*
X14241071Y-18345643D01*
X14098214Y-18374214D01*
X14355357Y-18459929D02*
X14383928Y-18474214D01*
X14441071Y-18474214D01*
X14469643Y-18459929D01*
X14483928Y-18431357D01*
X14483928Y-18417072D01*
X14469643Y-18388500D01*
X14441071Y-18374214D01*
X14398214Y-18374214D01*
X14369643Y-18359929D01*
X14355357Y-18331357D01*
X14355357Y-18317072D01*
X14369643Y-18288500D01*
X14398214Y-18274214D01*
X14441071Y-18274214D01*
X14469643Y-18288500D01*
X14583928Y-18588500D02*
X14598214Y-18574214D01*
X14626786Y-18531357D01*
X14641071Y-18502786D01*
X14655357Y-18459929D01*
X14669643Y-18388500D01*
X14669643Y-18331357D01*
X14655357Y-18259929D01*
X14641071Y-18217072D01*
X14626786Y-18188500D01*
X14598214Y-18145643D01*
X14583928Y-18131357D01*
X7997500Y-18684500D02*
X8097500Y-18784500D01*
X8097500Y-18684500D02*
X7997500Y-18784500D01*
X8082856Y-18769856D02*
X8082856Y-18699144D01*
X8012144Y-18699144D01*
X8012144Y-18769856D01*
X8082856Y-18769856D01*
X8541071Y-18870214D02*
X8369643Y-18870214D01*
X8455357Y-18870214D02*
X8455357Y-18570214D01*
X8426786Y-18613072D01*
X8398214Y-18641643D01*
X8369643Y-18655929D01*
X8669643Y-18841643D02*
X8683928Y-18855929D01*
X8669643Y-18870214D01*
X8655357Y-18855929D01*
X8669643Y-18841643D01*
X8669643Y-18870214D01*
X8869643Y-18570214D02*
X8898214Y-18570214D01*
X8926786Y-18584500D01*
X8941071Y-18598786D01*
X8955357Y-18627357D01*
X8969643Y-18684500D01*
X8969643Y-18755929D01*
X8955357Y-18813072D01*
X8941071Y-18841643D01*
X8926786Y-18855929D01*
X8898214Y-18870214D01*
X8869643Y-18870214D01*
X8841071Y-18855929D01*
X8826786Y-18841643D01*
X8812500Y-18813072D01*
X8798214Y-18755929D01*
X8798214Y-18684500D01*
X8812500Y-18627357D01*
X8826786Y-18598786D01*
X8841071Y-18584500D01*
X8869643Y-18570214D01*
X9155357Y-18570214D02*
X9183928Y-18570214D01*
X9212500Y-18584500D01*
X9226786Y-18598786D01*
X9241071Y-18627357D01*
X9255357Y-18684500D01*
X9255357Y-18755929D01*
X9241071Y-18813072D01*
X9226786Y-18841643D01*
X9212500Y-18855929D01*
X9183928Y-18870214D01*
X9155357Y-18870214D01*
X9126786Y-18855929D01*
X9112500Y-18841643D01*
X9098214Y-18813072D01*
X9083928Y-18755929D01*
X9083928Y-18684500D01*
X9098214Y-18627357D01*
X9112500Y-18598786D01*
X9126786Y-18584500D01*
X9155357Y-18570214D01*
X9383928Y-18870214D02*
X9383928Y-18670214D01*
X9383928Y-18698786D02*
X9398214Y-18684500D01*
X9426786Y-18670214D01*
X9469643Y-18670214D01*
X9498214Y-18684500D01*
X9512500Y-18713072D01*
X9512500Y-18870214D01*
X9512500Y-18713072D02*
X9526786Y-18684500D01*
X9555357Y-18670214D01*
X9598214Y-18670214D01*
X9626786Y-18684500D01*
X9641071Y-18713072D01*
X9641071Y-18870214D01*
X9783928Y-18870214D02*
X9783928Y-18670214D01*
X9783928Y-18698786D02*
X9798214Y-18684500D01*
X9826786Y-18670214D01*
X9869643Y-18670214D01*
X9898214Y-18684500D01*
X9912500Y-18713072D01*
X9912500Y-18870214D01*
X9912500Y-18713072D02*
X9926786Y-18684500D01*
X9955357Y-18670214D01*
X9998214Y-18670214D01*
X10026786Y-18684500D01*
X10041071Y-18713072D01*
X10041071Y-18870214D01*
X10626786Y-18555929D02*
X10369643Y-18941643D01*
X11012500Y-18570214D02*
X11041071Y-18570214D01*
X11069643Y-18584500D01*
X11083928Y-18598786D01*
X11098214Y-18627357D01*
X11112500Y-18684500D01*
X11112500Y-18755929D01*
X11098214Y-18813072D01*
X11083928Y-18841643D01*
X11069643Y-18855929D01*
X11041071Y-18870214D01*
X11012500Y-18870214D01*
X10983928Y-18855929D01*
X10969643Y-18841643D01*
X10955357Y-18813072D01*
X10941071Y-18755929D01*
X10941071Y-18684500D01*
X10955357Y-18627357D01*
X10969643Y-18598786D01*
X10983928Y-18584500D01*
X11012500Y-18570214D01*
X11241071Y-18841643D02*
X11255357Y-18855929D01*
X11241071Y-18870214D01*
X11226786Y-18855929D01*
X11241071Y-18841643D01*
X11241071Y-18870214D01*
X11441071Y-18570214D02*
X11469643Y-18570214D01*
X11498214Y-18584500D01*
X11512500Y-18598786D01*
X11526786Y-18627357D01*
X11541071Y-18684500D01*
X11541071Y-18755929D01*
X11526786Y-18813072D01*
X11512500Y-18841643D01*
X11498214Y-18855929D01*
X11469643Y-18870214D01*
X11441071Y-18870214D01*
X11412500Y-18855929D01*
X11398214Y-18841643D01*
X11383928Y-18813072D01*
X11369643Y-18755929D01*
X11369643Y-18684500D01*
X11383928Y-18627357D01*
X11398214Y-18598786D01*
X11412500Y-18584500D01*
X11441071Y-18570214D01*
X11641071Y-18570214D02*
X11826786Y-18570214D01*
X11726786Y-18684500D01*
X11769643Y-18684500D01*
X11798214Y-18698786D01*
X11812500Y-18713072D01*
X11826786Y-18741643D01*
X11826786Y-18813072D01*
X11812500Y-18841643D01*
X11798214Y-18855929D01*
X11769643Y-18870214D01*
X11683928Y-18870214D01*
X11655357Y-18855929D01*
X11641071Y-18841643D01*
X11969643Y-18870214D02*
X12026786Y-18870214D01*
X12055357Y-18855929D01*
X12069643Y-18841643D01*
X12098214Y-18798786D01*
X12112500Y-18741643D01*
X12112500Y-18627357D01*
X12098214Y-18598786D01*
X12083928Y-18584500D01*
X12055357Y-18570214D01*
X11998214Y-18570214D01*
X11969643Y-18584500D01*
X11955357Y-18598786D01*
X11941071Y-18627357D01*
X11941071Y-18698786D01*
X11955357Y-18727357D01*
X11969643Y-18741643D01*
X11998214Y-18755929D01*
X12055357Y-18755929D01*
X12083928Y-18741643D01*
X12098214Y-18727357D01*
X12112500Y-18698786D01*
X12226786Y-18570214D02*
X12226786Y-18627357D01*
X12341071Y-18570214D02*
X12341071Y-18627357D01*
X12783928Y-18984500D02*
X12769643Y-18970214D01*
X12741071Y-18927357D01*
X12726786Y-18898786D01*
X12712500Y-18855929D01*
X12698214Y-18784500D01*
X12698214Y-18727357D01*
X12712500Y-18655929D01*
X12726786Y-18613072D01*
X12741071Y-18584500D01*
X12769643Y-18541643D01*
X12783928Y-18527357D01*
X13026786Y-18570214D02*
X12969643Y-18570214D01*
X12941071Y-18584500D01*
X12926786Y-18598786D01*
X12898214Y-18641643D01*
X12883928Y-18698786D01*
X12883928Y-18813072D01*
X12898214Y-18841643D01*
X12912500Y-18855929D01*
X12941071Y-18870214D01*
X12998214Y-18870214D01*
X13026786Y-18855929D01*
X13041071Y-18841643D01*
X13055357Y-18813072D01*
X13055357Y-18741643D01*
X13041071Y-18713072D01*
X13026786Y-18698786D01*
X12998214Y-18684500D01*
X12941071Y-18684500D01*
X12912500Y-18698786D01*
X12898214Y-18713072D01*
X12883928Y-18741643D01*
X13155357Y-18570214D02*
X13355357Y-18570214D01*
X13226786Y-18870214D01*
X13698214Y-18870214D02*
X13698214Y-18570214D01*
X13826786Y-18870214D02*
X13826786Y-18713072D01*
X13812500Y-18684500D01*
X13783928Y-18670214D01*
X13741071Y-18670214D01*
X13712500Y-18684500D01*
X13698214Y-18698786D01*
X14012500Y-18870214D02*
X13983928Y-18855929D01*
X13969643Y-18841643D01*
X13955357Y-18813072D01*
X13955357Y-18727357D01*
X13969643Y-18698786D01*
X13983928Y-18684500D01*
X14012500Y-18670214D01*
X14055357Y-18670214D01*
X14083928Y-18684500D01*
X14098214Y-18698786D01*
X14112500Y-18727357D01*
X14112500Y-18813072D01*
X14098214Y-18841643D01*
X14083928Y-18855929D01*
X14055357Y-18870214D01*
X14012500Y-18870214D01*
X14283928Y-18870214D02*
X14255357Y-18855929D01*
X14241071Y-18827357D01*
X14241071Y-18570214D01*
X14512500Y-18855929D02*
X14483928Y-18870214D01*
X14426786Y-18870214D01*
X14398214Y-18855929D01*
X14383928Y-18827357D01*
X14383928Y-18713072D01*
X14398214Y-18684500D01*
X14426786Y-18670214D01*
X14483928Y-18670214D01*
X14512500Y-18684500D01*
X14526786Y-18713072D01*
X14526786Y-18741643D01*
X14383928Y-18770214D01*
X14641071Y-18855929D02*
X14669643Y-18870214D01*
X14726786Y-18870214D01*
X14755357Y-18855929D01*
X14769643Y-18827357D01*
X14769643Y-18813072D01*
X14755357Y-18784500D01*
X14726786Y-18770214D01*
X14683928Y-18770214D01*
X14655357Y-18755929D01*
X14641071Y-18727357D01*
X14641071Y-18713072D01*
X14655357Y-18684500D01*
X14683928Y-18670214D01*
X14726786Y-18670214D01*
X14755357Y-18684500D01*
X14869643Y-18984500D02*
X14883928Y-18970214D01*
X14912500Y-18927357D01*
X14926786Y-18898786D01*
X14941071Y-18855929D01*
X14955357Y-18784500D01*
X14955357Y-18727357D01*
X14941071Y-18655929D01*
X14926786Y-18613072D01*
X14912500Y-18584500D01*
X14883928Y-18541643D01*
X14869643Y-18527357D01*
X7987500Y-19075500D02*
X8097500Y-19185500D01*
X8097500Y-19075500D02*
X7987500Y-19185500D01*
X8042500Y-19185500D02*
X8097500Y-19130500D01*
X8042500Y-19075500D01*
X7987500Y-19130500D01*
X8042500Y-19185500D01*
X8541071Y-19266214D02*
X8369643Y-19266214D01*
X8455357Y-19266214D02*
X8455357Y-18966214D01*
X8426786Y-19009072D01*
X8398214Y-19037643D01*
X8369643Y-19051929D01*
X8669643Y-19237643D02*
X8683928Y-19251929D01*
X8669643Y-19266214D01*
X8655357Y-19251929D01*
X8669643Y-19237643D01*
X8669643Y-19266214D01*
X8969643Y-19266214D02*
X8798214Y-19266214D01*
X8883928Y-19266214D02*
X8883928Y-18966214D01*
X8855357Y-19009072D01*
X8826786Y-19037643D01*
X8798214Y-19051929D01*
X9155357Y-18966214D02*
X9183928Y-18966214D01*
X9212500Y-18980500D01*
X9226786Y-18994786D01*
X9241071Y-19023357D01*
X9255357Y-19080500D01*
X9255357Y-19151929D01*
X9241071Y-19209072D01*
X9226786Y-19237643D01*
X9212500Y-19251929D01*
X9183928Y-19266214D01*
X9155357Y-19266214D01*
X9126786Y-19251929D01*
X9112500Y-19237643D01*
X9098214Y-19209072D01*
X9083928Y-19151929D01*
X9083928Y-19080500D01*
X9098214Y-19023357D01*
X9112500Y-18994786D01*
X9126786Y-18980500D01*
X9155357Y-18966214D01*
X9383928Y-19266214D02*
X9383928Y-19066214D01*
X9383928Y-19094786D02*
X9398214Y-19080500D01*
X9426786Y-19066214D01*
X9469643Y-19066214D01*
X9498214Y-19080500D01*
X9512500Y-19109072D01*
X9512500Y-19266214D01*
X9512500Y-19109072D02*
X9526786Y-19080500D01*
X9555357Y-19066214D01*
X9598214Y-19066214D01*
X9626786Y-19080500D01*
X9641071Y-19109072D01*
X9641071Y-19266214D01*
X9783928Y-19266214D02*
X9783928Y-19066214D01*
X9783928Y-19094786D02*
X9798214Y-19080500D01*
X9826786Y-19066214D01*
X9869643Y-19066214D01*
X9898214Y-19080500D01*
X9912500Y-19109072D01*
X9912500Y-19266214D01*
X9912500Y-19109072D02*
X9926786Y-19080500D01*
X9955357Y-19066214D01*
X9998214Y-19066214D01*
X10026786Y-19080500D01*
X10041071Y-19109072D01*
X10041071Y-19266214D01*
X10626786Y-18951929D02*
X10369643Y-19337643D01*
X11012500Y-18966214D02*
X11041071Y-18966214D01*
X11069643Y-18980500D01*
X11083928Y-18994786D01*
X11098214Y-19023357D01*
X11112500Y-19080500D01*
X11112500Y-19151929D01*
X11098214Y-19209072D01*
X11083928Y-19237643D01*
X11069643Y-19251929D01*
X11041071Y-19266214D01*
X11012500Y-19266214D01*
X10983928Y-19251929D01*
X10969643Y-19237643D01*
X10955357Y-19209072D01*
X10941071Y-19151929D01*
X10941071Y-19080500D01*
X10955357Y-19023357D01*
X10969643Y-18994786D01*
X10983928Y-18980500D01*
X11012500Y-18966214D01*
X11241071Y-19237643D02*
X11255357Y-19251929D01*
X11241071Y-19266214D01*
X11226786Y-19251929D01*
X11241071Y-19237643D01*
X11241071Y-19266214D01*
X11441071Y-18966214D02*
X11469643Y-18966214D01*
X11498214Y-18980500D01*
X11512500Y-18994786D01*
X11526786Y-19023357D01*
X11541071Y-19080500D01*
X11541071Y-19151929D01*
X11526786Y-19209072D01*
X11512500Y-19237643D01*
X11498214Y-19251929D01*
X11469643Y-19266214D01*
X11441071Y-19266214D01*
X11412500Y-19251929D01*
X11398214Y-19237643D01*
X11383928Y-19209072D01*
X11369643Y-19151929D01*
X11369643Y-19080500D01*
X11383928Y-19023357D01*
X11398214Y-18994786D01*
X11412500Y-18980500D01*
X11441071Y-18966214D01*
X11798214Y-19066214D02*
X11798214Y-19266214D01*
X11726786Y-18951929D02*
X11655357Y-19166214D01*
X11841071Y-19166214D01*
X11926786Y-18966214D02*
X12112500Y-18966214D01*
X12012500Y-19080500D01*
X12055357Y-19080500D01*
X12083928Y-19094786D01*
X12098214Y-19109072D01*
X12112500Y-19137643D01*
X12112500Y-19209072D01*
X12098214Y-19237643D01*
X12083928Y-19251929D01*
X12055357Y-19266214D01*
X11969643Y-19266214D01*
X11941071Y-19251929D01*
X11926786Y-19237643D01*
X12226786Y-18966214D02*
X12226786Y-19023357D01*
X12341071Y-18966214D02*
X12341071Y-19023357D01*
X12783928Y-19380500D02*
X12769643Y-19366214D01*
X12741071Y-19323357D01*
X12726786Y-19294786D01*
X12712500Y-19251929D01*
X12698214Y-19180500D01*
X12698214Y-19123357D01*
X12712500Y-19051929D01*
X12726786Y-19009072D01*
X12741071Y-18980500D01*
X12769643Y-18937643D01*
X12783928Y-18923357D01*
X13055357Y-19266214D02*
X12883928Y-19266214D01*
X12969643Y-19266214D02*
X12969643Y-18966214D01*
X12941071Y-19009072D01*
X12912500Y-19037643D01*
X12883928Y-19051929D01*
X13226786Y-19094786D02*
X13198214Y-19080500D01*
X13183928Y-19066214D01*
X13169643Y-19037643D01*
X13169643Y-19023357D01*
X13183928Y-18994786D01*
X13198214Y-18980500D01*
X13226786Y-18966214D01*
X13283928Y-18966214D01*
X13312500Y-18980500D01*
X13326786Y-18994786D01*
X13341071Y-19023357D01*
X13341071Y-19037643D01*
X13326786Y-19066214D01*
X13312500Y-19080500D01*
X13283928Y-19094786D01*
X13226786Y-19094786D01*
X13198214Y-19109072D01*
X13183928Y-19123357D01*
X13169643Y-19151929D01*
X13169643Y-19209072D01*
X13183928Y-19237643D01*
X13198214Y-19251929D01*
X13226786Y-19266214D01*
X13283928Y-19266214D01*
X13312500Y-19251929D01*
X13326786Y-19237643D01*
X13341071Y-19209072D01*
X13341071Y-19151929D01*
X13326786Y-19123357D01*
X13312500Y-19109072D01*
X13283928Y-19094786D01*
X13698214Y-19266214D02*
X13698214Y-18966214D01*
X13826786Y-19266214D02*
X13826786Y-19109072D01*
X13812500Y-19080500D01*
X13783928Y-19066214D01*
X13741071Y-19066214D01*
X13712500Y-19080500D01*
X13698214Y-19094786D01*
X14012500Y-19266214D02*
X13983928Y-19251929D01*
X13969643Y-19237643D01*
X13955357Y-19209072D01*
X13955357Y-19123357D01*
X13969643Y-19094786D01*
X13983928Y-19080500D01*
X14012500Y-19066214D01*
X14055357Y-19066214D01*
X14083928Y-19080500D01*
X14098214Y-19094786D01*
X14112500Y-19123357D01*
X14112500Y-19209072D01*
X14098214Y-19237643D01*
X14083928Y-19251929D01*
X14055357Y-19266214D01*
X14012500Y-19266214D01*
X14283928Y-19266214D02*
X14255357Y-19251929D01*
X14241071Y-19223357D01*
X14241071Y-18966214D01*
X14512500Y-19251929D02*
X14483928Y-19266214D01*
X14426786Y-19266214D01*
X14398214Y-19251929D01*
X14383928Y-19223357D01*
X14383928Y-19109072D01*
X14398214Y-19080500D01*
X14426786Y-19066214D01*
X14483928Y-19066214D01*
X14512500Y-19080500D01*
X14526786Y-19109072D01*
X14526786Y-19137643D01*
X14383928Y-19166214D01*
X14641071Y-19251929D02*
X14669643Y-19266214D01*
X14726786Y-19266214D01*
X14755357Y-19251929D01*
X14769643Y-19223357D01*
X14769643Y-19209072D01*
X14755357Y-19180500D01*
X14726786Y-19166214D01*
X14683928Y-19166214D01*
X14655357Y-19151929D01*
X14641071Y-19123357D01*
X14641071Y-19109072D01*
X14655357Y-19080500D01*
X14683928Y-19066214D01*
X14726786Y-19066214D01*
X14755357Y-19080500D01*
X14869643Y-19380500D02*
X14883928Y-19366214D01*
X14912500Y-19323357D01*
X14926786Y-19294786D01*
X14941071Y-19251929D01*
X14955357Y-19180500D01*
X14955357Y-19123357D01*
X14941071Y-19051929D01*
X14926786Y-19009072D01*
X14912500Y-18980500D01*
X14883928Y-18937643D01*
X14869643Y-18923357D01*
X8032500Y-19461500D02*
X8032500Y-19591500D01*
X7967500Y-19526500D02*
X8097500Y-19526500D01*
X8097500Y-19526500D02*
G75*
G03*
X8097500Y-19526500I-65000J0D01*
G01*
X8541071Y-19662214D02*
X8369643Y-19662214D01*
X8455357Y-19662214D02*
X8455357Y-19362214D01*
X8426786Y-19405072D01*
X8398214Y-19433643D01*
X8369643Y-19447929D01*
X8669643Y-19633643D02*
X8683928Y-19647929D01*
X8669643Y-19662214D01*
X8655357Y-19647929D01*
X8669643Y-19633643D01*
X8669643Y-19662214D01*
X8783928Y-19362214D02*
X8969643Y-19362214D01*
X8869643Y-19476500D01*
X8912500Y-19476500D01*
X8941071Y-19490786D01*
X8955357Y-19505072D01*
X8969643Y-19533643D01*
X8969643Y-19605072D01*
X8955357Y-19633643D01*
X8941071Y-19647929D01*
X8912500Y-19662214D01*
X8826786Y-19662214D01*
X8798214Y-19647929D01*
X8783928Y-19633643D01*
X9155357Y-19362214D02*
X9183928Y-19362214D01*
X9212500Y-19376500D01*
X9226786Y-19390786D01*
X9241071Y-19419357D01*
X9255357Y-19476500D01*
X9255357Y-19547929D01*
X9241071Y-19605072D01*
X9226786Y-19633643D01*
X9212500Y-19647929D01*
X9183928Y-19662214D01*
X9155357Y-19662214D01*
X9126786Y-19647929D01*
X9112500Y-19633643D01*
X9098214Y-19605072D01*
X9083928Y-19547929D01*
X9083928Y-19476500D01*
X9098214Y-19419357D01*
X9112500Y-19390786D01*
X9126786Y-19376500D01*
X9155357Y-19362214D01*
X9383928Y-19662214D02*
X9383928Y-19462214D01*
X9383928Y-19490786D02*
X9398214Y-19476500D01*
X9426786Y-19462214D01*
X9469643Y-19462214D01*
X9498214Y-19476500D01*
X9512500Y-19505072D01*
X9512500Y-19662214D01*
X9512500Y-19505072D02*
X9526786Y-19476500D01*
X9555357Y-19462214D01*
X9598214Y-19462214D01*
X9626786Y-19476500D01*
X9641071Y-19505072D01*
X9641071Y-19662214D01*
X9783928Y-19662214D02*
X9783928Y-19462214D01*
X9783928Y-19490786D02*
X9798214Y-19476500D01*
X9826786Y-19462214D01*
X9869643Y-19462214D01*
X9898214Y-19476500D01*
X9912500Y-19505072D01*
X9912500Y-19662214D01*
X9912500Y-19505072D02*
X9926786Y-19476500D01*
X9955357Y-19462214D01*
X9998214Y-19462214D01*
X10026786Y-19476500D01*
X10041071Y-19505072D01*
X10041071Y-19662214D01*
X10626786Y-19347929D02*
X10369643Y-19733643D01*
X11012500Y-19362214D02*
X11041071Y-19362214D01*
X11069643Y-19376500D01*
X11083928Y-19390786D01*
X11098214Y-19419357D01*
X11112500Y-19476500D01*
X11112500Y-19547929D01*
X11098214Y-19605072D01*
X11083928Y-19633643D01*
X11069643Y-19647929D01*
X11041071Y-19662214D01*
X11012500Y-19662214D01*
X10983928Y-19647929D01*
X10969643Y-19633643D01*
X10955357Y-19605072D01*
X10941071Y-19547929D01*
X10941071Y-19476500D01*
X10955357Y-19419357D01*
X10969643Y-19390786D01*
X10983928Y-19376500D01*
X11012500Y-19362214D01*
X11241071Y-19633643D02*
X11255357Y-19647929D01*
X11241071Y-19662214D01*
X11226786Y-19647929D01*
X11241071Y-19633643D01*
X11241071Y-19662214D01*
X11441071Y-19362214D02*
X11469643Y-19362214D01*
X11498214Y-19376500D01*
X11512500Y-19390786D01*
X11526786Y-19419357D01*
X11541071Y-19476500D01*
X11541071Y-19547929D01*
X11526786Y-19605072D01*
X11512500Y-19633643D01*
X11498214Y-19647929D01*
X11469643Y-19662214D01*
X11441071Y-19662214D01*
X11412500Y-19647929D01*
X11398214Y-19633643D01*
X11383928Y-19605072D01*
X11369643Y-19547929D01*
X11369643Y-19476500D01*
X11383928Y-19419357D01*
X11398214Y-19390786D01*
X11412500Y-19376500D01*
X11441071Y-19362214D01*
X11812500Y-19362214D02*
X11669643Y-19362214D01*
X11655357Y-19505072D01*
X11669643Y-19490786D01*
X11698214Y-19476500D01*
X11769643Y-19476500D01*
X11798214Y-19490786D01*
X11812500Y-19505072D01*
X11826786Y-19533643D01*
X11826786Y-19605072D01*
X11812500Y-19633643D01*
X11798214Y-19647929D01*
X11769643Y-19662214D01*
X11698214Y-19662214D01*
X11669643Y-19647929D01*
X11655357Y-19633643D01*
X12112500Y-19662214D02*
X11941071Y-19662214D01*
X12026786Y-19662214D02*
X12026786Y-19362214D01*
X11998214Y-19405072D01*
X11969643Y-19433643D01*
X11941071Y-19447929D01*
X12226786Y-19362214D02*
X12226786Y-19419357D01*
X12341071Y-19362214D02*
X12341071Y-19419357D01*
X12783928Y-19776500D02*
X12769643Y-19762214D01*
X12741071Y-19719357D01*
X12726786Y-19690786D01*
X12712500Y-19647929D01*
X12698214Y-19576500D01*
X12698214Y-19519357D01*
X12712500Y-19447929D01*
X12726786Y-19405072D01*
X12741071Y-19376500D01*
X12769643Y-19333643D01*
X12783928Y-19319357D01*
X13026786Y-19462214D02*
X13026786Y-19662214D01*
X12955357Y-19347929D02*
X12883928Y-19562214D01*
X13069643Y-19562214D01*
X13412500Y-19662214D02*
X13412500Y-19362214D01*
X13541071Y-19662214D02*
X13541071Y-19505072D01*
X13526786Y-19476500D01*
X13498214Y-19462214D01*
X13455357Y-19462214D01*
X13426786Y-19476500D01*
X13412500Y-19490786D01*
X13726786Y-19662214D02*
X13698214Y-19647929D01*
X13683928Y-19633643D01*
X13669643Y-19605072D01*
X13669643Y-19519357D01*
X13683928Y-19490786D01*
X13698214Y-19476500D01*
X13726786Y-19462214D01*
X13769643Y-19462214D01*
X13798214Y-19476500D01*
X13812500Y-19490786D01*
X13826786Y-19519357D01*
X13826786Y-19605072D01*
X13812500Y-19633643D01*
X13798214Y-19647929D01*
X13769643Y-19662214D01*
X13726786Y-19662214D01*
X13998214Y-19662214D02*
X13969643Y-19647929D01*
X13955357Y-19619357D01*
X13955357Y-19362214D01*
X14226786Y-19647929D02*
X14198214Y-19662214D01*
X14141071Y-19662214D01*
X14112500Y-19647929D01*
X14098214Y-19619357D01*
X14098214Y-19505072D01*
X14112500Y-19476500D01*
X14141071Y-19462214D01*
X14198214Y-19462214D01*
X14226786Y-19476500D01*
X14241071Y-19505072D01*
X14241071Y-19533643D01*
X14098214Y-19562214D01*
X14355357Y-19647929D02*
X14383928Y-19662214D01*
X14441071Y-19662214D01*
X14469643Y-19647929D01*
X14483928Y-19619357D01*
X14483928Y-19605072D01*
X14469643Y-19576500D01*
X14441071Y-19562214D01*
X14398214Y-19562214D01*
X14369643Y-19547929D01*
X14355357Y-19519357D01*
X14355357Y-19505072D01*
X14369643Y-19476500D01*
X14398214Y-19462214D01*
X14441071Y-19462214D01*
X14469643Y-19476500D01*
X14583928Y-19776500D02*
X14598214Y-19762214D01*
X14626786Y-19719357D01*
X14641071Y-19690786D01*
X14655357Y-19647929D01*
X14669643Y-19576500D01*
X14669643Y-19519357D01*
X14655357Y-19447929D01*
X14641071Y-19405072D01*
X14626786Y-19376500D01*
X14598214Y-19333643D01*
X14583928Y-19319357D01*
X8064550Y-20002050D02*
X8064550Y-19842950D01*
X7905450Y-19842950D01*
X7905450Y-20002050D01*
X8064550Y-20002050D01*
X8097500Y-19922500D02*
G75*
G03*
X8097500Y-19922500I-112500J0D01*
G01*
X8369643Y-19786786D02*
X8383928Y-19772500D01*
X8412500Y-19758214D01*
X8483928Y-19758214D01*
X8512500Y-19772500D01*
X8526786Y-19786786D01*
X8541071Y-19815357D01*
X8541071Y-19843929D01*
X8526786Y-19886786D01*
X8355357Y-20058214D01*
X8541071Y-20058214D01*
X8669643Y-20029643D02*
X8683928Y-20043929D01*
X8669643Y-20058214D01*
X8655357Y-20043929D01*
X8669643Y-20029643D01*
X8669643Y-20058214D01*
X8798214Y-19786786D02*
X8812500Y-19772500D01*
X8841071Y-19758214D01*
X8912500Y-19758214D01*
X8941071Y-19772500D01*
X8955357Y-19786786D01*
X8969643Y-19815357D01*
X8969643Y-19843929D01*
X8955357Y-19886786D01*
X8783928Y-20058214D01*
X8969643Y-20058214D01*
X9241071Y-19758214D02*
X9098214Y-19758214D01*
X9083928Y-19901072D01*
X9098214Y-19886786D01*
X9126786Y-19872500D01*
X9198214Y-19872500D01*
X9226786Y-19886786D01*
X9241071Y-19901072D01*
X9255357Y-19929643D01*
X9255357Y-20001072D01*
X9241071Y-20029643D01*
X9226786Y-20043929D01*
X9198214Y-20058214D01*
X9126786Y-20058214D01*
X9098214Y-20043929D01*
X9083928Y-20029643D01*
X9383928Y-20058214D02*
X9383928Y-19858214D01*
X9383928Y-19886786D02*
X9398214Y-19872500D01*
X9426786Y-19858214D01*
X9469643Y-19858214D01*
X9498214Y-19872500D01*
X9512500Y-19901072D01*
X9512500Y-20058214D01*
X9512500Y-19901072D02*
X9526786Y-19872500D01*
X9555357Y-19858214D01*
X9598214Y-19858214D01*
X9626786Y-19872500D01*
X9641071Y-19901072D01*
X9641071Y-20058214D01*
X9783928Y-20058214D02*
X9783928Y-19858214D01*
X9783928Y-19886786D02*
X9798214Y-19872500D01*
X9826786Y-19858214D01*
X9869643Y-19858214D01*
X9898214Y-19872500D01*
X9912500Y-19901072D01*
X9912500Y-20058214D01*
X9912500Y-19901072D02*
X9926786Y-19872500D01*
X9955357Y-19858214D01*
X9998214Y-19858214D01*
X10026786Y-19872500D01*
X10041071Y-19901072D01*
X10041071Y-20058214D01*
X10626786Y-19743929D02*
X10369643Y-20129643D01*
X11012500Y-19758214D02*
X11041071Y-19758214D01*
X11069643Y-19772500D01*
X11083928Y-19786786D01*
X11098214Y-19815357D01*
X11112500Y-19872500D01*
X11112500Y-19943929D01*
X11098214Y-20001072D01*
X11083928Y-20029643D01*
X11069643Y-20043929D01*
X11041071Y-20058214D01*
X11012500Y-20058214D01*
X10983928Y-20043929D01*
X10969643Y-20029643D01*
X10955357Y-20001072D01*
X10941071Y-19943929D01*
X10941071Y-19872500D01*
X10955357Y-19815357D01*
X10969643Y-19786786D01*
X10983928Y-19772500D01*
X11012500Y-19758214D01*
X11241071Y-20029643D02*
X11255357Y-20043929D01*
X11241071Y-20058214D01*
X11226786Y-20043929D01*
X11241071Y-20029643D01*
X11241071Y-20058214D01*
X11441071Y-19758214D02*
X11469643Y-19758214D01*
X11498214Y-19772500D01*
X11512500Y-19786786D01*
X11526786Y-19815357D01*
X11541071Y-19872500D01*
X11541071Y-19943929D01*
X11526786Y-20001072D01*
X11512500Y-20029643D01*
X11498214Y-20043929D01*
X11469643Y-20058214D01*
X11441071Y-20058214D01*
X11412500Y-20043929D01*
X11398214Y-20029643D01*
X11383928Y-20001072D01*
X11369643Y-19943929D01*
X11369643Y-19872500D01*
X11383928Y-19815357D01*
X11398214Y-19786786D01*
X11412500Y-19772500D01*
X11441071Y-19758214D01*
X11712500Y-19886786D02*
X11683928Y-19872500D01*
X11669643Y-19858214D01*
X11655357Y-19829643D01*
X11655357Y-19815357D01*
X11669643Y-19786786D01*
X11683928Y-19772500D01*
X11712500Y-19758214D01*
X11769643Y-19758214D01*
X11798214Y-19772500D01*
X11812500Y-19786786D01*
X11826786Y-19815357D01*
X11826786Y-19829643D01*
X11812500Y-19858214D01*
X11798214Y-19872500D01*
X11769643Y-19886786D01*
X11712500Y-19886786D01*
X11683928Y-19901072D01*
X11669643Y-19915357D01*
X11655357Y-19943929D01*
X11655357Y-20001072D01*
X11669643Y-20029643D01*
X11683928Y-20043929D01*
X11712500Y-20058214D01*
X11769643Y-20058214D01*
X11798214Y-20043929D01*
X11812500Y-20029643D01*
X11826786Y-20001072D01*
X11826786Y-19943929D01*
X11812500Y-19915357D01*
X11798214Y-19901072D01*
X11769643Y-19886786D01*
X11969643Y-20058214D02*
X12026786Y-20058214D01*
X12055357Y-20043929D01*
X12069643Y-20029643D01*
X12098214Y-19986786D01*
X12112500Y-19929643D01*
X12112500Y-19815357D01*
X12098214Y-19786786D01*
X12083928Y-19772500D01*
X12055357Y-19758214D01*
X11998214Y-19758214D01*
X11969643Y-19772500D01*
X11955357Y-19786786D01*
X11941071Y-19815357D01*
X11941071Y-19886786D01*
X11955357Y-19915357D01*
X11969643Y-19929643D01*
X11998214Y-19943929D01*
X12055357Y-19943929D01*
X12083928Y-19929643D01*
X12098214Y-19915357D01*
X12112500Y-19886786D01*
X12226786Y-19758214D02*
X12226786Y-19815357D01*
X12341071Y-19758214D02*
X12341071Y-19815357D01*
X12783928Y-20172500D02*
X12769643Y-20158214D01*
X12741071Y-20115357D01*
X12726786Y-20086786D01*
X12712500Y-20043929D01*
X12698214Y-19972500D01*
X12698214Y-19915357D01*
X12712500Y-19843929D01*
X12726786Y-19801072D01*
X12741071Y-19772500D01*
X12769643Y-19729643D01*
X12783928Y-19715357D01*
X12869643Y-19758214D02*
X13055357Y-19758214D01*
X12955357Y-19872500D01*
X12998214Y-19872500D01*
X13026786Y-19886786D01*
X13041071Y-19901072D01*
X13055357Y-19929643D01*
X13055357Y-20001072D01*
X13041071Y-20029643D01*
X13026786Y-20043929D01*
X12998214Y-20058214D01*
X12912500Y-20058214D01*
X12883928Y-20043929D01*
X12869643Y-20029643D01*
X13169643Y-19786786D02*
X13183928Y-19772500D01*
X13212500Y-19758214D01*
X13283928Y-19758214D01*
X13312500Y-19772500D01*
X13326786Y-19786786D01*
X13341071Y-19815357D01*
X13341071Y-19843929D01*
X13326786Y-19886786D01*
X13155357Y-20058214D01*
X13341071Y-20058214D01*
X13698214Y-20058214D02*
X13698214Y-19758214D01*
X13826786Y-20058214D02*
X13826786Y-19901072D01*
X13812500Y-19872500D01*
X13783928Y-19858214D01*
X13741071Y-19858214D01*
X13712500Y-19872500D01*
X13698214Y-19886786D01*
X14012500Y-20058214D02*
X13983928Y-20043929D01*
X13969643Y-20029643D01*
X13955357Y-20001072D01*
X13955357Y-19915357D01*
X13969643Y-19886786D01*
X13983928Y-19872500D01*
X14012500Y-19858214D01*
X14055357Y-19858214D01*
X14083928Y-19872500D01*
X14098214Y-19886786D01*
X14112500Y-19915357D01*
X14112500Y-20001072D01*
X14098214Y-20029643D01*
X14083928Y-20043929D01*
X14055357Y-20058214D01*
X14012500Y-20058214D01*
X14283928Y-20058214D02*
X14255357Y-20043929D01*
X14241071Y-20015357D01*
X14241071Y-19758214D01*
X14512500Y-20043929D02*
X14483928Y-20058214D01*
X14426786Y-20058214D01*
X14398214Y-20043929D01*
X14383928Y-20015357D01*
X14383928Y-19901072D01*
X14398214Y-19872500D01*
X14426786Y-19858214D01*
X14483928Y-19858214D01*
X14512500Y-19872500D01*
X14526786Y-19901072D01*
X14526786Y-19929643D01*
X14383928Y-19958214D01*
X14641071Y-20043929D02*
X14669643Y-20058214D01*
X14726786Y-20058214D01*
X14755357Y-20043929D01*
X14769643Y-20015357D01*
X14769643Y-20001072D01*
X14755357Y-19972500D01*
X14726786Y-19958214D01*
X14683928Y-19958214D01*
X14655357Y-19943929D01*
X14641071Y-19915357D01*
X14641071Y-19901072D01*
X14655357Y-19872500D01*
X14683928Y-19858214D01*
X14726786Y-19858214D01*
X14755357Y-19872500D01*
X14869643Y-20172500D02*
X14883928Y-20158214D01*
X14912500Y-20115357D01*
X14926786Y-20086786D01*
X14941071Y-20043929D01*
X14955357Y-19972500D01*
X14955357Y-19915357D01*
X14941071Y-19843929D01*
X14926786Y-19801072D01*
X14912500Y-19772500D01*
X14883928Y-19729643D01*
X14869643Y-19715357D01*
M02*
