%FSLAX45Y45*%
G04 Gerber Fmt 4.5, Leading zero omitted, Abs format (unit mm)*
G04 Created by KiCad (PCBNEW 5.1.8-5.1.8) date 2022-02-25 22:11:30*
%MOMM*%
%LPD*%
G01*
G04 APERTURE LIST*
%TA.AperFunction,Profile*%
%ADD10C,0.050000*%
%TD*%
%ADD11C,0.200000*%
%ADD12C,0.300000*%
G04 APERTURE END LIST*
D10*
X8100000Y-15000000D02*
X8100000Y-5000000D01*
X18100000Y-15000000D02*
X8100000Y-15000000D01*
X18100000Y-5000000D02*
X18100000Y-15000000D01*
X8100000Y-5000000D02*
X18100000Y-5000000D01*
D11*
D12*
X8383928Y-15468214D02*
X8383928Y-15168214D01*
X8455357Y-15168214D01*
X8498214Y-15182500D01*
X8526786Y-15211071D01*
X8541071Y-15239643D01*
X8555357Y-15296786D01*
X8555357Y-15339643D01*
X8541071Y-15396786D01*
X8526786Y-15425357D01*
X8498214Y-15453929D01*
X8455357Y-15468214D01*
X8383928Y-15468214D01*
X8683928Y-15468214D02*
X8683928Y-15268214D01*
X8683928Y-15325357D02*
X8698214Y-15296786D01*
X8712500Y-15282500D01*
X8741071Y-15268214D01*
X8769643Y-15268214D01*
X8869643Y-15468214D02*
X8869643Y-15268214D01*
X8869643Y-15168214D02*
X8855357Y-15182500D01*
X8869643Y-15196786D01*
X8883928Y-15182500D01*
X8869643Y-15168214D01*
X8869643Y-15196786D01*
X9055357Y-15468214D02*
X9026786Y-15453929D01*
X9012500Y-15425357D01*
X9012500Y-15168214D01*
X9212500Y-15468214D02*
X9183928Y-15453929D01*
X9169643Y-15425357D01*
X9169643Y-15168214D01*
X9555357Y-15468214D02*
X9555357Y-15168214D01*
X9655357Y-15382500D01*
X9755357Y-15168214D01*
X9755357Y-15468214D01*
X10026786Y-15468214D02*
X10026786Y-15311071D01*
X10012500Y-15282500D01*
X9983928Y-15268214D01*
X9926786Y-15268214D01*
X9898214Y-15282500D01*
X10026786Y-15453929D02*
X9998214Y-15468214D01*
X9926786Y-15468214D01*
X9898214Y-15453929D01*
X9883928Y-15425357D01*
X9883928Y-15396786D01*
X9898214Y-15368214D01*
X9926786Y-15353929D01*
X9998214Y-15353929D01*
X10026786Y-15339643D01*
X10169643Y-15268214D02*
X10169643Y-15568214D01*
X10169643Y-15282500D02*
X10198214Y-15268214D01*
X10255357Y-15268214D01*
X10283928Y-15282500D01*
X10298214Y-15296786D01*
X10312500Y-15325357D01*
X10312500Y-15411071D01*
X10298214Y-15439643D01*
X10283928Y-15453929D01*
X10255357Y-15468214D01*
X10198214Y-15468214D01*
X10169643Y-15453929D01*
X10441071Y-15439643D02*
X10455357Y-15453929D01*
X10441071Y-15468214D01*
X10426786Y-15453929D01*
X10441071Y-15439643D01*
X10441071Y-15468214D01*
X10441071Y-15282500D02*
X10455357Y-15296786D01*
X10441071Y-15311071D01*
X10426786Y-15296786D01*
X10441071Y-15282500D01*
X10441071Y-15311071D01*
M02*
