%TF.GenerationSoftware,KiCad,Pcbnew,5.1.8-5.1.8*%
%TF.CreationDate,2022-02-25T22:11:04+08:00*%
%TF.ProjectId,lcr_2,6c63725f-322e-46b6-9963-61645f706362,rev?*%
%TF.SameCoordinates,Original*%
%TF.FileFunction,Legend,Top*%
%TF.FilePolarity,Positive*%
%FSLAX46Y46*%
G04 Gerber Fmt 4.6, Leading zero omitted, Abs format (unit mm)*
G04 Created by KiCad (PCBNEW 5.1.8-5.1.8) date 2022-02-25 22:11:04*
%MOMM*%
%LPD*%
G01*
G04 APERTURE LIST*
%ADD10C,0.150000*%
%ADD11C,0.120000*%
G04 APERTURE END LIST*
D10*
X156834333Y-103578380D02*
X156834333Y-102578380D01*
X157215285Y-102578380D01*
X157310523Y-102626000D01*
X157358142Y-102673619D01*
X157405761Y-102768857D01*
X157405761Y-102911714D01*
X157358142Y-103006952D01*
X157310523Y-103054571D01*
X157215285Y-103102190D01*
X156834333Y-103102190D01*
X157786714Y-103292666D02*
X158262904Y-103292666D01*
X157691476Y-103578380D02*
X158024809Y-102578380D01*
X158358142Y-103578380D01*
X158596238Y-102578380D02*
X159215285Y-102578380D01*
X158881952Y-102959333D01*
X159024809Y-102959333D01*
X159120047Y-103006952D01*
X159167666Y-103054571D01*
X159215285Y-103149809D01*
X159215285Y-103387904D01*
X159167666Y-103483142D01*
X159120047Y-103530761D01*
X159024809Y-103578380D01*
X158739095Y-103578380D01*
X158643857Y-103530761D01*
X158596238Y-103483142D01*
X162434380Y-102132666D02*
X161434380Y-102132666D01*
X161434380Y-101751714D01*
X161482000Y-101656476D01*
X161529619Y-101608857D01*
X161624857Y-101561238D01*
X161767714Y-101561238D01*
X161862952Y-101608857D01*
X161910571Y-101656476D01*
X161958190Y-101751714D01*
X161958190Y-102132666D01*
X162148666Y-101180285D02*
X162148666Y-100704095D01*
X162434380Y-101275523D02*
X161434380Y-100942190D01*
X162434380Y-100608857D01*
X161529619Y-100323142D02*
X161482000Y-100275523D01*
X161434380Y-100180285D01*
X161434380Y-99942190D01*
X161482000Y-99846952D01*
X161529619Y-99799333D01*
X161624857Y-99751714D01*
X161720095Y-99751714D01*
X161862952Y-99799333D01*
X162434380Y-100370761D01*
X162434380Y-99751714D01*
X159958333Y-97101380D02*
X159958333Y-96101380D01*
X160339285Y-96101380D01*
X160434523Y-96149000D01*
X160482142Y-96196619D01*
X160529761Y-96291857D01*
X160529761Y-96434714D01*
X160482142Y-96529952D01*
X160434523Y-96577571D01*
X160339285Y-96625190D01*
X159958333Y-96625190D01*
X160910714Y-96815666D02*
X161386904Y-96815666D01*
X160815476Y-97101380D02*
X161148809Y-96101380D01*
X161482142Y-97101380D01*
X162339285Y-97101380D02*
X161767857Y-97101380D01*
X162053571Y-97101380D02*
X162053571Y-96101380D01*
X161958333Y-96244238D01*
X161863095Y-96339476D01*
X161767857Y-96387095D01*
X104018523Y-108881380D02*
X103542333Y-108881380D01*
X103542333Y-107881380D01*
X104351857Y-108881380D02*
X104351857Y-107881380D01*
X104732809Y-107881380D01*
X104828047Y-107929000D01*
X104875666Y-107976619D01*
X104923285Y-108071857D01*
X104923285Y-108214714D01*
X104875666Y-108309952D01*
X104828047Y-108357571D01*
X104732809Y-108405190D01*
X104351857Y-108405190D01*
X104380523Y-106543380D02*
X103904333Y-106543380D01*
X103904333Y-105543380D01*
X105285285Y-106448142D02*
X105237666Y-106495761D01*
X105094809Y-106543380D01*
X104999571Y-106543380D01*
X104856714Y-106495761D01*
X104761476Y-106400523D01*
X104713857Y-106305285D01*
X104666238Y-106114809D01*
X104666238Y-105971952D01*
X104713857Y-105781476D01*
X104761476Y-105686238D01*
X104856714Y-105591000D01*
X104999571Y-105543380D01*
X105094809Y-105543380D01*
X105237666Y-105591000D01*
X105285285Y-105638619D01*
X103812285Y-104188380D02*
X103812285Y-103188380D01*
X103812285Y-103664571D02*
X104383714Y-103664571D01*
X104383714Y-104188380D02*
X104383714Y-103188380D01*
X104859904Y-104188380D02*
X104859904Y-103188380D01*
X105240857Y-103188380D01*
X105336095Y-103236000D01*
X105383714Y-103283619D01*
X105431333Y-103378857D01*
X105431333Y-103521714D01*
X105383714Y-103616952D01*
X105336095Y-103664571D01*
X105240857Y-103712190D01*
X104859904Y-103712190D01*
X103812285Y-101728380D02*
X103812285Y-100728380D01*
X103812285Y-101204571D02*
X104383714Y-101204571D01*
X104383714Y-101728380D02*
X104383714Y-100728380D01*
X105431333Y-101633142D02*
X105383714Y-101680761D01*
X105240857Y-101728380D01*
X105145619Y-101728380D01*
X105002761Y-101680761D01*
X104907523Y-101585523D01*
X104859904Y-101490285D01*
X104812285Y-101299809D01*
X104812285Y-101156952D01*
X104859904Y-100966476D01*
X104907523Y-100871238D01*
X105002761Y-100776000D01*
X105145619Y-100728380D01*
X105240857Y-100728380D01*
X105383714Y-100776000D01*
X105431333Y-100823619D01*
X133280285Y-85438428D02*
X134042190Y-85438428D01*
X134994571Y-84819380D02*
X134518380Y-84819380D01*
X134470761Y-85295571D01*
X134518380Y-85247952D01*
X134613619Y-85200333D01*
X134851714Y-85200333D01*
X134946952Y-85247952D01*
X134994571Y-85295571D01*
X135042190Y-85390809D01*
X135042190Y-85628904D01*
X134994571Y-85724142D01*
X134946952Y-85771761D01*
X134851714Y-85819380D01*
X134613619Y-85819380D01*
X134518380Y-85771761D01*
X134470761Y-85724142D01*
X135327904Y-84819380D02*
X135661238Y-85819380D01*
X135994571Y-84819380D01*
X167050047Y-69681428D02*
X167811952Y-69681428D01*
X166927047Y-67074428D02*
X167688952Y-67074428D01*
X167308000Y-67455380D02*
X167308000Y-66693476D01*
X177404428Y-59066904D02*
X177404428Y-58305000D01*
X177785380Y-58685952D02*
X177023476Y-58685952D01*
X177785380Y-57305000D02*
X177785380Y-57876428D01*
X177785380Y-57590714D02*
X176785380Y-57590714D01*
X176928238Y-57685952D01*
X177023476Y-57781190D01*
X177071095Y-57876428D01*
X176880619Y-56924047D02*
X176833000Y-56876428D01*
X176785380Y-56781190D01*
X176785380Y-56543095D01*
X176833000Y-56447857D01*
X176880619Y-56400238D01*
X176975857Y-56352619D01*
X177071095Y-56352619D01*
X177213952Y-56400238D01*
X177785380Y-56971666D01*
X177785380Y-56352619D01*
X176785380Y-56066904D02*
X177785380Y-55733571D01*
X176785380Y-55400238D01*
X134021809Y-73904380D02*
X134640857Y-73904380D01*
X134307523Y-74285333D01*
X134450380Y-74285333D01*
X134545619Y-74332952D01*
X134593238Y-74380571D01*
X134640857Y-74475809D01*
X134640857Y-74713904D01*
X134593238Y-74809142D01*
X134545619Y-74856761D01*
X134450380Y-74904380D01*
X134164666Y-74904380D01*
X134069428Y-74856761D01*
X134021809Y-74809142D01*
X135069428Y-74809142D02*
X135117047Y-74856761D01*
X135069428Y-74904380D01*
X135021809Y-74856761D01*
X135069428Y-74809142D01*
X135069428Y-74904380D01*
X135450380Y-73904380D02*
X136069428Y-73904380D01*
X135736095Y-74285333D01*
X135878952Y-74285333D01*
X135974190Y-74332952D01*
X136021809Y-74380571D01*
X136069428Y-74475809D01*
X136069428Y-74713904D01*
X136021809Y-74809142D01*
X135974190Y-74856761D01*
X135878952Y-74904380D01*
X135593238Y-74904380D01*
X135498000Y-74856761D01*
X135450380Y-74809142D01*
X136355142Y-73904380D02*
X136688476Y-74904380D01*
X137021809Y-73904380D01*
X149681428Y-55158714D02*
X149681428Y-54396809D01*
X150062380Y-54777761D02*
X149300476Y-54777761D01*
X149062380Y-53444428D02*
X149062380Y-53920619D01*
X149538571Y-53968238D01*
X149490952Y-53920619D01*
X149443333Y-53825380D01*
X149443333Y-53587285D01*
X149490952Y-53492047D01*
X149538571Y-53444428D01*
X149633809Y-53396809D01*
X149871904Y-53396809D01*
X149967142Y-53444428D01*
X150014761Y-53492047D01*
X150062380Y-53587285D01*
X150062380Y-53825380D01*
X150014761Y-53920619D01*
X149967142Y-53968238D01*
X149062380Y-53111095D02*
X150062380Y-52777761D01*
X149062380Y-52444428D01*
X113923095Y-83846000D02*
X113827857Y-83798380D01*
X113685000Y-83798380D01*
X113542142Y-83846000D01*
X113446904Y-83941238D01*
X113399285Y-84036476D01*
X113351666Y-84226952D01*
X113351666Y-84369809D01*
X113399285Y-84560285D01*
X113446904Y-84655523D01*
X113542142Y-84750761D01*
X113685000Y-84798380D01*
X113780238Y-84798380D01*
X113923095Y-84750761D01*
X113970714Y-84703142D01*
X113970714Y-84369809D01*
X113780238Y-84369809D01*
X114399285Y-84798380D02*
X114399285Y-83798380D01*
X114970714Y-84798380D01*
X114970714Y-83798380D01*
X115446904Y-84798380D02*
X115446904Y-83798380D01*
X115685000Y-83798380D01*
X115827857Y-83846000D01*
X115923095Y-83941238D01*
X115970714Y-84036476D01*
X116018333Y-84226952D01*
X116018333Y-84369809D01*
X115970714Y-84560285D01*
X115923095Y-84655523D01*
X115827857Y-84750761D01*
X115685000Y-84798380D01*
X115446904Y-84798380D01*
X115008857Y-86391761D02*
X115151714Y-86439380D01*
X115389809Y-86439380D01*
X115485047Y-86391761D01*
X115532666Y-86344142D01*
X115580285Y-86248904D01*
X115580285Y-86153666D01*
X115532666Y-86058428D01*
X115485047Y-86010809D01*
X115389809Y-85963190D01*
X115199333Y-85915571D01*
X115104095Y-85867952D01*
X115056476Y-85820333D01*
X115008857Y-85725095D01*
X115008857Y-85629857D01*
X115056476Y-85534619D01*
X115104095Y-85487000D01*
X115199333Y-85439380D01*
X115437428Y-85439380D01*
X115580285Y-85487000D01*
X115913619Y-85439380D02*
X116151714Y-86439380D01*
X116342190Y-85725095D01*
X116532666Y-86439380D01*
X116770761Y-85439380D01*
X117151714Y-86439380D02*
X117151714Y-85439380D01*
X117389809Y-85439380D01*
X117532666Y-85487000D01*
X117627904Y-85582238D01*
X117675523Y-85677476D01*
X117723142Y-85867952D01*
X117723142Y-86010809D01*
X117675523Y-86201285D01*
X117627904Y-86296523D01*
X117532666Y-86391761D01*
X117389809Y-86439380D01*
X117151714Y-86439380D01*
X130860333Y-70153380D02*
X130860333Y-69153380D01*
X131241285Y-69153380D01*
X131336523Y-69201000D01*
X131384142Y-69248619D01*
X131431761Y-69343857D01*
X131431761Y-69486714D01*
X131384142Y-69581952D01*
X131336523Y-69629571D01*
X131241285Y-69677190D01*
X130860333Y-69677190D01*
X131812714Y-69867666D02*
X132288904Y-69867666D01*
X131717476Y-70153380D02*
X132050809Y-69153380D01*
X132384142Y-70153380D01*
X133146047Y-69153380D02*
X132955571Y-69153380D01*
X132860333Y-69201000D01*
X132812714Y-69248619D01*
X132717476Y-69391476D01*
X132669857Y-69581952D01*
X132669857Y-69962904D01*
X132717476Y-70058142D01*
X132765095Y-70105761D01*
X132860333Y-70153380D01*
X133050809Y-70153380D01*
X133146047Y-70105761D01*
X133193666Y-70058142D01*
X133241285Y-69962904D01*
X133241285Y-69724809D01*
X133193666Y-69629571D01*
X133146047Y-69581952D01*
X133050809Y-69534333D01*
X132860333Y-69534333D01*
X132765095Y-69581952D01*
X132717476Y-69629571D01*
X132669857Y-69724809D01*
X126710904Y-68700380D02*
X126710904Y-67700380D01*
X127091857Y-67700380D01*
X127187095Y-67748000D01*
X127234714Y-67795619D01*
X127282333Y-67890857D01*
X127282333Y-68033714D01*
X127234714Y-68128952D01*
X127187095Y-68176571D01*
X127091857Y-68224190D01*
X126710904Y-68224190D01*
X128044238Y-68176571D02*
X128187095Y-68224190D01*
X128234714Y-68271809D01*
X128282333Y-68367047D01*
X128282333Y-68509904D01*
X128234714Y-68605142D01*
X128187095Y-68652761D01*
X128091857Y-68700380D01*
X127710904Y-68700380D01*
X127710904Y-67700380D01*
X128044238Y-67700380D01*
X128139476Y-67748000D01*
X128187095Y-67795619D01*
X128234714Y-67890857D01*
X128234714Y-67986095D01*
X128187095Y-68081333D01*
X128139476Y-68128952D01*
X128044238Y-68176571D01*
X127710904Y-68176571D01*
X129234714Y-68700380D02*
X128663285Y-68700380D01*
X128949000Y-68700380D02*
X128949000Y-67700380D01*
X128853761Y-67843238D01*
X128758523Y-67938476D01*
X128663285Y-67986095D01*
X121647809Y-69332380D02*
X122266857Y-69332380D01*
X121933523Y-69713333D01*
X122076380Y-69713333D01*
X122171619Y-69760952D01*
X122219238Y-69808571D01*
X122266857Y-69903809D01*
X122266857Y-70141904D01*
X122219238Y-70237142D01*
X122171619Y-70284761D01*
X122076380Y-70332380D01*
X121790666Y-70332380D01*
X121695428Y-70284761D01*
X121647809Y-70237142D01*
X122695428Y-70237142D02*
X122743047Y-70284761D01*
X122695428Y-70332380D01*
X122647809Y-70284761D01*
X122695428Y-70237142D01*
X122695428Y-70332380D01*
X123076380Y-69332380D02*
X123695428Y-69332380D01*
X123362095Y-69713333D01*
X123504952Y-69713333D01*
X123600190Y-69760952D01*
X123647809Y-69808571D01*
X123695428Y-69903809D01*
X123695428Y-70141904D01*
X123647809Y-70237142D01*
X123600190Y-70284761D01*
X123504952Y-70332380D01*
X123219238Y-70332380D01*
X123124000Y-70284761D01*
X123076380Y-70237142D01*
X123981142Y-69332380D02*
X124314476Y-70332380D01*
X124647809Y-69332380D01*
X125101333Y-65590380D02*
X125101333Y-64590380D01*
X125482285Y-64590380D01*
X125577523Y-64638000D01*
X125625142Y-64685619D01*
X125672761Y-64780857D01*
X125672761Y-64923714D01*
X125625142Y-65018952D01*
X125577523Y-65066571D01*
X125482285Y-65114190D01*
X125101333Y-65114190D01*
X126053714Y-65304666D02*
X126529904Y-65304666D01*
X125958476Y-65590380D02*
X126291809Y-64590380D01*
X126625142Y-65590380D01*
X127006095Y-65590380D02*
X127196571Y-65590380D01*
X127291809Y-65542761D01*
X127339428Y-65495142D01*
X127434666Y-65352285D01*
X127482285Y-65161809D01*
X127482285Y-64780857D01*
X127434666Y-64685619D01*
X127387047Y-64638000D01*
X127291809Y-64590380D01*
X127101333Y-64590380D01*
X127006095Y-64638000D01*
X126958476Y-64685619D01*
X126910857Y-64780857D01*
X126910857Y-65018952D01*
X126958476Y-65114190D01*
X127006095Y-65161809D01*
X127101333Y-65209428D01*
X127291809Y-65209428D01*
X127387047Y-65161809D01*
X127434666Y-65114190D01*
X127482285Y-65018952D01*
X113869761Y-82073142D02*
X113822142Y-82120761D01*
X113679285Y-82168380D01*
X113584047Y-82168380D01*
X113441190Y-82120761D01*
X113345952Y-82025523D01*
X113298333Y-81930285D01*
X113250714Y-81739809D01*
X113250714Y-81596952D01*
X113298333Y-81406476D01*
X113345952Y-81311238D01*
X113441190Y-81216000D01*
X113584047Y-81168380D01*
X113679285Y-81168380D01*
X113822142Y-81216000D01*
X113869761Y-81263619D01*
X114774523Y-82168380D02*
X114298333Y-82168380D01*
X114298333Y-81168380D01*
X115107857Y-82168380D02*
X115107857Y-81168380D01*
X115679285Y-82168380D02*
X115250714Y-81596952D01*
X115679285Y-81168380D02*
X115107857Y-81739809D01*
X110283190Y-77877380D02*
X110283190Y-76877380D01*
X110521285Y-76877380D01*
X110664142Y-76925000D01*
X110759380Y-77020238D01*
X110807000Y-77115476D01*
X110854619Y-77305952D01*
X110854619Y-77448809D01*
X110807000Y-77639285D01*
X110759380Y-77734523D01*
X110664142Y-77829761D01*
X110521285Y-77877380D01*
X110283190Y-77877380D01*
X111283190Y-77877380D02*
X111283190Y-76877380D01*
X111949857Y-76877380D02*
X112140333Y-76877380D01*
X112235571Y-76925000D01*
X112330809Y-77020238D01*
X112378428Y-77210714D01*
X112378428Y-77544047D01*
X112330809Y-77734523D01*
X112235571Y-77829761D01*
X112140333Y-77877380D01*
X111949857Y-77877380D01*
X111854619Y-77829761D01*
X111759380Y-77734523D01*
X111711761Y-77544047D01*
X111711761Y-77210714D01*
X111759380Y-77020238D01*
X111854619Y-76925000D01*
X111949857Y-76877380D01*
X106110380Y-82976761D02*
X106253238Y-83024380D01*
X106491333Y-83024380D01*
X106586571Y-82976761D01*
X106634190Y-82929142D01*
X106681809Y-82833904D01*
X106681809Y-82738666D01*
X106634190Y-82643428D01*
X106586571Y-82595809D01*
X106491333Y-82548190D01*
X106300857Y-82500571D01*
X106205619Y-82452952D01*
X106158000Y-82405333D01*
X106110380Y-82310095D01*
X106110380Y-82214857D01*
X106158000Y-82119619D01*
X106205619Y-82072000D01*
X106300857Y-82024380D01*
X106538952Y-82024380D01*
X106681809Y-82072000D01*
X107110380Y-83024380D02*
X107110380Y-82024380D01*
X107586571Y-83024380D02*
X107586571Y-82024380D01*
X108158000Y-83024380D01*
X108158000Y-82024380D01*
X108731380Y-89766761D02*
X108874238Y-89814380D01*
X109112333Y-89814380D01*
X109207571Y-89766761D01*
X109255190Y-89719142D01*
X109302809Y-89623904D01*
X109302809Y-89528666D01*
X109255190Y-89433428D01*
X109207571Y-89385809D01*
X109112333Y-89338190D01*
X108921857Y-89290571D01*
X108826619Y-89242952D01*
X108779000Y-89195333D01*
X108731380Y-89100095D01*
X108731380Y-89004857D01*
X108779000Y-88909619D01*
X108826619Y-88862000D01*
X108921857Y-88814380D01*
X109159952Y-88814380D01*
X109302809Y-88862000D01*
X109731380Y-89814380D02*
X109731380Y-88814380D01*
X110207571Y-89814380D02*
X110207571Y-88814380D01*
X110779000Y-89814380D01*
X110779000Y-88814380D01*
X119468333Y-109023380D02*
X119468333Y-108023380D01*
X119849285Y-108023380D01*
X119944523Y-108071000D01*
X119992142Y-108118619D01*
X120039761Y-108213857D01*
X120039761Y-108356714D01*
X119992142Y-108451952D01*
X119944523Y-108499571D01*
X119849285Y-108547190D01*
X119468333Y-108547190D01*
X120420714Y-108737666D02*
X120896904Y-108737666D01*
X120325476Y-109023380D02*
X120658809Y-108023380D01*
X120992142Y-109023380D01*
X121754047Y-108023380D02*
X121563571Y-108023380D01*
X121468333Y-108071000D01*
X121420714Y-108118619D01*
X121325476Y-108261476D01*
X121277857Y-108451952D01*
X121277857Y-108832904D01*
X121325476Y-108928142D01*
X121373095Y-108975761D01*
X121468333Y-109023380D01*
X121658809Y-109023380D01*
X121754047Y-108975761D01*
X121801666Y-108928142D01*
X121849285Y-108832904D01*
X121849285Y-108594809D01*
X121801666Y-108499571D01*
X121754047Y-108451952D01*
X121658809Y-108404333D01*
X121468333Y-108404333D01*
X121373095Y-108451952D01*
X121325476Y-108499571D01*
X121277857Y-108594809D01*
X112509333Y-111667380D02*
X112509333Y-110667380D01*
X112890285Y-110667380D01*
X112985523Y-110715000D01*
X113033142Y-110762619D01*
X113080761Y-110857857D01*
X113080761Y-111000714D01*
X113033142Y-111095952D01*
X112985523Y-111143571D01*
X112890285Y-111191190D01*
X112509333Y-111191190D01*
X113461714Y-111381666D02*
X113937904Y-111381666D01*
X113366476Y-111667380D02*
X113699809Y-110667380D01*
X114033142Y-111667380D01*
X114414095Y-111667380D02*
X114604571Y-111667380D01*
X114699809Y-111619761D01*
X114747428Y-111572142D01*
X114842666Y-111429285D01*
X114890285Y-111238809D01*
X114890285Y-110857857D01*
X114842666Y-110762619D01*
X114795047Y-110715000D01*
X114699809Y-110667380D01*
X114509333Y-110667380D01*
X114414095Y-110715000D01*
X114366476Y-110762619D01*
X114318857Y-110857857D01*
X114318857Y-111095952D01*
X114366476Y-111191190D01*
X114414095Y-111238809D01*
X114509333Y-111286428D01*
X114699809Y-111286428D01*
X114795047Y-111238809D01*
X114842666Y-111191190D01*
X114890285Y-111095952D01*
X109533904Y-121839380D02*
X109533904Y-120839380D01*
X109914857Y-120839380D01*
X110010095Y-120887000D01*
X110057714Y-120934619D01*
X110105333Y-121029857D01*
X110105333Y-121172714D01*
X110057714Y-121267952D01*
X110010095Y-121315571D01*
X109914857Y-121363190D01*
X109533904Y-121363190D01*
X110867238Y-121315571D02*
X111010095Y-121363190D01*
X111057714Y-121410809D01*
X111105333Y-121506047D01*
X111105333Y-121648904D01*
X111057714Y-121744142D01*
X111010095Y-121791761D01*
X110914857Y-121839380D01*
X110533904Y-121839380D01*
X110533904Y-120839380D01*
X110867238Y-120839380D01*
X110962476Y-120887000D01*
X111010095Y-120934619D01*
X111057714Y-121029857D01*
X111057714Y-121125095D01*
X111010095Y-121220333D01*
X110962476Y-121267952D01*
X110867238Y-121315571D01*
X110533904Y-121315571D01*
X112057714Y-121839380D02*
X111486285Y-121839380D01*
X111772000Y-121839380D02*
X111772000Y-120839380D01*
X111676761Y-120982238D01*
X111581523Y-121077476D01*
X111486285Y-121125095D01*
X89550285Y-98430428D02*
X90312190Y-98430428D01*
X91264571Y-97811380D02*
X90788380Y-97811380D01*
X90740761Y-98287571D01*
X90788380Y-98239952D01*
X90883619Y-98192333D01*
X91121714Y-98192333D01*
X91216952Y-98239952D01*
X91264571Y-98287571D01*
X91312190Y-98382809D01*
X91312190Y-98620904D01*
X91264571Y-98716142D01*
X91216952Y-98763761D01*
X91121714Y-98811380D01*
X90883619Y-98811380D01*
X90788380Y-98763761D01*
X90740761Y-98716142D01*
X91597904Y-97811380D02*
X91931238Y-98811380D01*
X92264571Y-97811380D01*
X90238285Y-115080428D02*
X91000190Y-115080428D01*
X90619238Y-115461380D02*
X90619238Y-114699476D01*
X91952571Y-114461380D02*
X91476380Y-114461380D01*
X91428761Y-114937571D01*
X91476380Y-114889952D01*
X91571619Y-114842333D01*
X91809714Y-114842333D01*
X91904952Y-114889952D01*
X91952571Y-114937571D01*
X92000190Y-115032809D01*
X92000190Y-115270904D01*
X91952571Y-115366142D01*
X91904952Y-115413761D01*
X91809714Y-115461380D01*
X91571619Y-115461380D01*
X91476380Y-115413761D01*
X91428761Y-115366142D01*
X92285904Y-114461380D02*
X92619238Y-115461380D01*
X92952571Y-114461380D01*
X171278190Y-121236380D02*
X171278190Y-120236380D01*
X171516285Y-120236380D01*
X171659142Y-120284000D01*
X171754380Y-120379238D01*
X171802000Y-120474476D01*
X171849619Y-120664952D01*
X171849619Y-120807809D01*
X171802000Y-120998285D01*
X171754380Y-121093523D01*
X171659142Y-121188761D01*
X171516285Y-121236380D01*
X171278190Y-121236380D01*
X172278190Y-121236380D02*
X172278190Y-120236380D01*
X172944857Y-120236380D02*
X173135333Y-120236380D01*
X173230571Y-120284000D01*
X173325809Y-120379238D01*
X173373428Y-120569714D01*
X173373428Y-120903047D01*
X173325809Y-121093523D01*
X173230571Y-121188761D01*
X173135333Y-121236380D01*
X172944857Y-121236380D01*
X172849619Y-121188761D01*
X172754380Y-121093523D01*
X172706761Y-120903047D01*
X172706761Y-120569714D01*
X172754380Y-120379238D01*
X172849619Y-120284000D01*
X172944857Y-120236380D01*
X172007761Y-90553142D02*
X171960142Y-90600761D01*
X171817285Y-90648380D01*
X171722047Y-90648380D01*
X171579190Y-90600761D01*
X171483952Y-90505523D01*
X171436333Y-90410285D01*
X171388714Y-90219809D01*
X171388714Y-90076952D01*
X171436333Y-89886476D01*
X171483952Y-89791238D01*
X171579190Y-89696000D01*
X171722047Y-89648380D01*
X171817285Y-89648380D01*
X171960142Y-89696000D01*
X172007761Y-89743619D01*
X172912523Y-90648380D02*
X172436333Y-90648380D01*
X172436333Y-89648380D01*
X173245857Y-90648380D02*
X173245857Y-89648380D01*
X173817285Y-90648380D02*
X173388714Y-90076952D01*
X173817285Y-89648380D02*
X173245857Y-90219809D01*
X153976904Y-119948666D02*
X154453095Y-119948666D01*
X153881666Y-120234380D02*
X154215000Y-119234380D01*
X154548333Y-120234380D01*
X154881666Y-120234380D02*
X154881666Y-119234380D01*
X155119761Y-119234380D01*
X155262619Y-119282000D01*
X155357857Y-119377238D01*
X155405476Y-119472476D01*
X155453095Y-119662952D01*
X155453095Y-119805809D01*
X155405476Y-119996285D01*
X155357857Y-120091523D01*
X155262619Y-120186761D01*
X155119761Y-120234380D01*
X154881666Y-120234380D01*
X156453095Y-120139142D02*
X156405476Y-120186761D01*
X156262619Y-120234380D01*
X156167380Y-120234380D01*
X156024523Y-120186761D01*
X155929285Y-120091523D01*
X155881666Y-119996285D01*
X155834047Y-119805809D01*
X155834047Y-119662952D01*
X155881666Y-119472476D01*
X155929285Y-119377238D01*
X156024523Y-119282000D01*
X156167380Y-119234380D01*
X156262619Y-119234380D01*
X156405476Y-119282000D01*
X156453095Y-119329619D01*
X140510000Y-121158428D02*
X141271904Y-121158428D01*
X140890952Y-121539380D02*
X140890952Y-120777476D01*
X141652857Y-120539380D02*
X142271904Y-120539380D01*
X141938571Y-120920333D01*
X142081428Y-120920333D01*
X142176666Y-120967952D01*
X142224285Y-121015571D01*
X142271904Y-121110809D01*
X142271904Y-121348904D01*
X142224285Y-121444142D01*
X142176666Y-121491761D01*
X142081428Y-121539380D01*
X141795714Y-121539380D01*
X141700476Y-121491761D01*
X141652857Y-121444142D01*
X142700476Y-121444142D02*
X142748095Y-121491761D01*
X142700476Y-121539380D01*
X142652857Y-121491761D01*
X142700476Y-121444142D01*
X142700476Y-121539380D01*
X143081428Y-120539380D02*
X143700476Y-120539380D01*
X143367142Y-120920333D01*
X143510000Y-120920333D01*
X143605238Y-120967952D01*
X143652857Y-121015571D01*
X143700476Y-121110809D01*
X143700476Y-121348904D01*
X143652857Y-121444142D01*
X143605238Y-121491761D01*
X143510000Y-121539380D01*
X143224285Y-121539380D01*
X143129047Y-121491761D01*
X143081428Y-121444142D01*
X143986190Y-120539380D02*
X144319523Y-121539380D01*
X144652857Y-120539380D01*
X125823285Y-96766428D02*
X126585190Y-96766428D01*
X127537571Y-96147380D02*
X127061380Y-96147380D01*
X127013761Y-96623571D01*
X127061380Y-96575952D01*
X127156619Y-96528333D01*
X127394714Y-96528333D01*
X127489952Y-96575952D01*
X127537571Y-96623571D01*
X127585190Y-96718809D01*
X127585190Y-96956904D01*
X127537571Y-97052142D01*
X127489952Y-97099761D01*
X127394714Y-97147380D01*
X127156619Y-97147380D01*
X127061380Y-97099761D01*
X127013761Y-97052142D01*
X127870904Y-96147380D02*
X128204238Y-97147380D01*
X128537571Y-96147380D01*
X124457285Y-105470428D02*
X125219190Y-105470428D01*
X124838238Y-105851380D02*
X124838238Y-105089476D01*
X126171571Y-104851380D02*
X125695380Y-104851380D01*
X125647761Y-105327571D01*
X125695380Y-105279952D01*
X125790619Y-105232333D01*
X126028714Y-105232333D01*
X126123952Y-105279952D01*
X126171571Y-105327571D01*
X126219190Y-105422809D01*
X126219190Y-105660904D01*
X126171571Y-105756142D01*
X126123952Y-105803761D01*
X126028714Y-105851380D01*
X125790619Y-105851380D01*
X125695380Y-105803761D01*
X125647761Y-105756142D01*
X126504904Y-104851380D02*
X126838238Y-105851380D01*
X127171571Y-104851380D01*
X121768809Y-78776380D02*
X122387857Y-78776380D01*
X122054523Y-79157333D01*
X122197380Y-79157333D01*
X122292619Y-79204952D01*
X122340238Y-79252571D01*
X122387857Y-79347809D01*
X122387857Y-79585904D01*
X122340238Y-79681142D01*
X122292619Y-79728761D01*
X122197380Y-79776380D01*
X121911666Y-79776380D01*
X121816428Y-79728761D01*
X121768809Y-79681142D01*
X122816428Y-79681142D02*
X122864047Y-79728761D01*
X122816428Y-79776380D01*
X122768809Y-79728761D01*
X122816428Y-79681142D01*
X122816428Y-79776380D01*
X123197380Y-78776380D02*
X123816428Y-78776380D01*
X123483095Y-79157333D01*
X123625952Y-79157333D01*
X123721190Y-79204952D01*
X123768809Y-79252571D01*
X123816428Y-79347809D01*
X123816428Y-79585904D01*
X123768809Y-79681142D01*
X123721190Y-79728761D01*
X123625952Y-79776380D01*
X123340238Y-79776380D01*
X123245000Y-79728761D01*
X123197380Y-79681142D01*
X124102142Y-78776380D02*
X124435476Y-79776380D01*
X124768809Y-78776380D01*
X131087904Y-82974666D02*
X131564095Y-82974666D01*
X130992666Y-83260380D02*
X131326000Y-82260380D01*
X131659333Y-83260380D01*
X131992666Y-83260380D02*
X131992666Y-82260380D01*
X132230761Y-82260380D01*
X132373619Y-82308000D01*
X132468857Y-82403238D01*
X132516476Y-82498476D01*
X132564095Y-82688952D01*
X132564095Y-82831809D01*
X132516476Y-83022285D01*
X132468857Y-83117523D01*
X132373619Y-83212761D01*
X132230761Y-83260380D01*
X131992666Y-83260380D01*
X133564095Y-83165142D02*
X133516476Y-83212761D01*
X133373619Y-83260380D01*
X133278380Y-83260380D01*
X133135523Y-83212761D01*
X133040285Y-83117523D01*
X132992666Y-83022285D01*
X132945047Y-82831809D01*
X132945047Y-82688952D01*
X132992666Y-82498476D01*
X133040285Y-82403238D01*
X133135523Y-82308000D01*
X133278380Y-82260380D01*
X133373619Y-82260380D01*
X133516476Y-82308000D01*
X133564095Y-82355619D01*
X132535380Y-79168666D02*
X131535380Y-79168666D01*
X131535380Y-78787714D01*
X131583000Y-78692476D01*
X131630619Y-78644857D01*
X131725857Y-78597238D01*
X131868714Y-78597238D01*
X131963952Y-78644857D01*
X132011571Y-78692476D01*
X132059190Y-78787714D01*
X132059190Y-79168666D01*
X132249666Y-78216285D02*
X132249666Y-77740095D01*
X132535380Y-78311523D02*
X131535380Y-77978190D01*
X132535380Y-77644857D01*
X131535380Y-77406761D02*
X131535380Y-76787714D01*
X131916333Y-77121047D01*
X131916333Y-76978190D01*
X131963952Y-76882952D01*
X132011571Y-76835333D01*
X132106809Y-76787714D01*
X132344904Y-76787714D01*
X132440142Y-76835333D01*
X132487761Y-76882952D01*
X132535380Y-76978190D01*
X132535380Y-77263904D01*
X132487761Y-77359142D01*
X132440142Y-77406761D01*
X130596380Y-79311666D02*
X129596380Y-79311666D01*
X129596380Y-78930714D01*
X129644000Y-78835476D01*
X129691619Y-78787857D01*
X129786857Y-78740238D01*
X129929714Y-78740238D01*
X130024952Y-78787857D01*
X130072571Y-78835476D01*
X130120190Y-78930714D01*
X130120190Y-79311666D01*
X130310666Y-78359285D02*
X130310666Y-77883095D01*
X130596380Y-78454523D02*
X129596380Y-78121190D01*
X130596380Y-77787857D01*
X129691619Y-77502142D02*
X129644000Y-77454523D01*
X129596380Y-77359285D01*
X129596380Y-77121190D01*
X129644000Y-77025952D01*
X129691619Y-76978333D01*
X129786857Y-76930714D01*
X129882095Y-76930714D01*
X130024952Y-76978333D01*
X130596380Y-77549761D01*
X130596380Y-76930714D01*
X126707333Y-79554380D02*
X126707333Y-78554380D01*
X127088285Y-78554380D01*
X127183523Y-78602000D01*
X127231142Y-78649619D01*
X127278761Y-78744857D01*
X127278761Y-78887714D01*
X127231142Y-78982952D01*
X127183523Y-79030571D01*
X127088285Y-79078190D01*
X126707333Y-79078190D01*
X127659714Y-79268666D02*
X128135904Y-79268666D01*
X127564476Y-79554380D02*
X127897809Y-78554380D01*
X128231142Y-79554380D01*
X129088285Y-79554380D02*
X128516857Y-79554380D01*
X128802571Y-79554380D02*
X128802571Y-78554380D01*
X128707333Y-78697238D01*
X128612095Y-78792476D01*
X128516857Y-78840095D01*
D11*
X100463000Y-123349000D02*
X180995000Y-123349000D01*
X100471000Y-123295000D02*
X100439000Y-86537000D01*
X80986000Y-123978000D02*
X180986000Y-123978000D01*
X80986000Y-130478000D02*
X80986000Y-124478000D01*
X175011000Y-130477000D02*
X80984000Y-130480000D01*
X80986000Y-130478000D02*
X80986000Y-123978000D01*
X81026000Y-125088000D02*
X89526000Y-123998000D01*
X180991000Y-126282000D02*
X175011000Y-130477000D01*
X81039000Y-130491000D02*
X181039000Y-130491000D01*
X175064000Y-136990000D02*
X81037000Y-136993000D01*
X81039000Y-136991000D02*
X81039000Y-130491000D01*
X81039000Y-136991000D02*
X81039000Y-130991000D01*
X81079000Y-131601000D02*
X89579000Y-130511000D01*
X181044000Y-132795000D02*
X175064000Y-136990000D01*
X175044000Y-143493000D02*
X81017000Y-143496000D01*
X181024000Y-139298000D02*
X175044000Y-143493000D01*
X81019000Y-143494000D02*
X81019000Y-136994000D01*
X81019000Y-136994000D02*
X181019000Y-136994000D01*
X81019000Y-143494000D02*
X81019000Y-137494000D01*
X81059000Y-138104000D02*
X89559000Y-137014000D01*
X175025000Y-149999000D02*
X80998000Y-150002000D01*
X181005000Y-145804000D02*
X175025000Y-149999000D01*
X81040000Y-144610000D02*
X89540000Y-143520000D01*
X81000000Y-87000000D02*
X81000000Y-105000000D01*
X81000000Y-68000000D02*
X100500000Y-68000000D01*
X81000000Y-50000000D02*
X81000000Y-68000000D01*
X81000000Y-130500000D02*
X181000000Y-130500000D01*
X81000000Y-137000000D02*
X81000000Y-130500000D01*
X181000000Y-137000000D02*
X81000000Y-137000000D01*
X181000000Y-143500000D02*
X181000000Y-137000000D01*
X81000000Y-143500000D02*
X181000000Y-143500000D01*
X81000000Y-150000000D02*
X81000000Y-143500000D01*
X81000000Y-150000000D02*
X81000000Y-144000000D01*
X100423000Y-123393000D02*
X81012000Y-123393000D01*
X100560000Y-87004000D02*
X81027000Y-87004000D01*
X100435000Y-86767000D02*
X81015000Y-86770000D01*
X100419000Y-86823000D02*
X180951000Y-86823000D01*
X100430000Y-86755000D02*
X100409000Y-124001000D01*
X81000000Y-124000000D02*
X181000000Y-124000000D01*
X81000000Y-150000000D02*
X81000000Y-124000000D01*
X100427000Y-86769000D02*
X100395000Y-50011000D01*
X180978000Y-50265000D02*
X100406000Y-50198000D01*
%TO.C,REF\u002A\u002A*%
X168469000Y-102170000D02*
G75*
G03*
X168469000Y-102170000I-950000J0D01*
G01*
X164954000Y-101168000D02*
G75*
G03*
X164954000Y-101168000I-950000J0D01*
G01*
X171434000Y-103616000D02*
G75*
G03*
X171434000Y-103616000I-950000J0D01*
G01*
X155771000Y-106643000D02*
G75*
G03*
X155771000Y-106643000I-950000J0D01*
G01*
X132536000Y-57260000D02*
G75*
G03*
X132536000Y-57260000I-950000J0D01*
G01*
X142560000Y-66903000D02*
G75*
G03*
X142560000Y-66903000I-950000J0D01*
G01*
X139357000Y-64922000D02*
G75*
G03*
X139357000Y-64922000I-950000J0D01*
G01*
X134959000Y-65407000D02*
G75*
G03*
X134959000Y-65407000I-950000J0D01*
G01*
%TO.C,J1*%
X124335000Y-106713000D02*
X125665000Y-106713000D01*
X124335000Y-108043000D02*
X124335000Y-106713000D01*
X124335000Y-109313000D02*
X126995000Y-109313000D01*
X126995000Y-109313000D02*
X126995000Y-109373000D01*
X124335000Y-109313000D02*
X124335000Y-109373000D01*
X124335000Y-109373000D02*
X126995000Y-109373000D01*
%TO.C,J2*%
X126103000Y-97467000D02*
X127433000Y-97467000D01*
X126103000Y-98797000D02*
X126103000Y-97467000D01*
X126103000Y-100067000D02*
X128763000Y-100067000D01*
X128763000Y-100067000D02*
X128763000Y-100127000D01*
X126103000Y-100067000D02*
X126103000Y-100127000D01*
X126103000Y-100127000D02*
X128763000Y-100127000D01*
%TO.C,REF\u002A\u002A*%
X173245000Y-117845000D02*
X171395000Y-117845000D01*
X173245000Y-117895000D02*
X173245000Y-117845000D01*
X173245000Y-119745000D02*
X173245000Y-117895000D01*
X171395000Y-119745000D02*
X173245000Y-119745000D01*
X171395000Y-117845000D02*
X171395000Y-119745000D01*
X173549000Y-91421000D02*
X171699000Y-91421000D01*
X173549000Y-91471000D02*
X173549000Y-91421000D01*
X173549000Y-93321000D02*
X173549000Y-91471000D01*
X171699000Y-93321000D02*
X173549000Y-93321000D01*
X171699000Y-91421000D02*
X171699000Y-93321000D01*
X142600000Y-117959000D02*
X142600000Y-119859000D01*
X142600000Y-119859000D02*
X144450000Y-119859000D01*
X144450000Y-119859000D02*
X144450000Y-118009000D01*
X144450000Y-118009000D02*
X144450000Y-117959000D01*
X144450000Y-117959000D02*
X142600000Y-117959000D01*
X155775000Y-116753000D02*
X153925000Y-116753000D01*
X155775000Y-116803000D02*
X155775000Y-116753000D01*
X155775000Y-118653000D02*
X155775000Y-116803000D01*
X153925000Y-118653000D02*
X155775000Y-118653000D01*
X153925000Y-116753000D02*
X153925000Y-118653000D01*
X161621000Y-97649000D02*
X159771000Y-97649000D01*
X161621000Y-97699000D02*
X161621000Y-97649000D01*
X161621000Y-99549000D02*
X161621000Y-97699000D01*
X159771000Y-99549000D02*
X161621000Y-99549000D01*
X159771000Y-97649000D02*
X159771000Y-99549000D01*
X158960000Y-100087000D02*
X158960000Y-101987000D01*
X158960000Y-101987000D02*
X160810000Y-101987000D01*
X160810000Y-101987000D02*
X160810000Y-100137000D01*
X160810000Y-100137000D02*
X160810000Y-100087000D01*
X160810000Y-100087000D02*
X158960000Y-100087000D01*
X158030000Y-100302000D02*
X156180000Y-100302000D01*
X158030000Y-100352000D02*
X158030000Y-100302000D01*
X158030000Y-102202000D02*
X158030000Y-100352000D01*
X156180000Y-102202000D02*
X158030000Y-102202000D01*
X156180000Y-100302000D02*
X156180000Y-102202000D01*
X149556000Y-100752000D02*
G75*
G03*
X149556000Y-100752000I-950000J0D01*
G01*
X148878000Y-96920000D02*
G75*
G03*
X148878000Y-96920000I-950000J0D01*
G01*
X150561000Y-95655000D02*
G75*
G03*
X150561000Y-95655000I-950000J0D01*
G01*
X150508000Y-93398000D02*
G75*
G03*
X150508000Y-93398000I-950000J0D01*
G01*
X153435000Y-92293000D02*
G75*
G03*
X153435000Y-92293000I-950000J0D01*
G01*
X131921000Y-120452000D02*
G75*
G03*
X131921000Y-120452000I-950000J0D01*
G01*
X131456000Y-115835000D02*
G75*
G03*
X131456000Y-115835000I-950000J0D01*
G01*
X114114000Y-120397000D02*
X112264000Y-120397000D01*
X114114000Y-120447000D02*
X114114000Y-120397000D01*
X114114000Y-122297000D02*
X114114000Y-120447000D01*
X112264000Y-122297000D02*
X114114000Y-122297000D01*
X112264000Y-120397000D02*
X112264000Y-122297000D01*
X117621000Y-111419000D02*
G75*
G03*
X117621000Y-111419000I-950000J0D01*
G01*
X107535000Y-113067000D02*
G75*
G03*
X107535000Y-113067000I-950000J0D01*
G01*
X107812000Y-116672000D02*
G75*
G03*
X107812000Y-116672000I-950000J0D01*
G01*
X119815000Y-112214000D02*
G75*
G03*
X119815000Y-112214000I-950000J0D01*
G01*
X121819000Y-106835000D02*
G75*
G03*
X121819000Y-106835000I-950000J0D01*
G01*
X117337000Y-108589000D02*
X117337000Y-110439000D01*
X117387000Y-108589000D02*
X117337000Y-108589000D01*
X119237000Y-108589000D02*
X117387000Y-108589000D01*
X119237000Y-110439000D02*
X119237000Y-108589000D01*
X117337000Y-110439000D02*
X119237000Y-110439000D01*
X116476000Y-108523000D02*
X114626000Y-108523000D01*
X116476000Y-108573000D02*
X116476000Y-108523000D01*
X116476000Y-110423000D02*
X116476000Y-108573000D01*
X114626000Y-110423000D02*
X116476000Y-110423000D01*
X114626000Y-108523000D02*
X114626000Y-110423000D01*
%TO.C,D1*%
X93857000Y-104699000D02*
X93857000Y-99299000D01*
X97157000Y-104699000D02*
X97157000Y-99299000D01*
X93857000Y-104699000D02*
X97157000Y-104699000D01*
%TO.C,REF\u002A\u002A*%
X118465000Y-100990000D02*
G75*
G03*
X118465000Y-100990000I-950000J0D01*
G01*
X119077000Y-95502000D02*
G75*
G03*
X119077000Y-95502000I-950000J0D01*
G01*
X114818000Y-90849000D02*
X114818000Y-88449000D01*
X117218000Y-90849000D02*
X114818000Y-90849000D01*
X117218000Y-88449000D02*
X117218000Y-90849000D01*
X114818000Y-88449000D02*
X117218000Y-88449000D01*
X109382000Y-98967000D02*
X109382000Y-96567000D01*
X111782000Y-98967000D02*
X109382000Y-98967000D01*
X111782000Y-96567000D02*
X111782000Y-98967000D01*
X109382000Y-96567000D02*
X111782000Y-96567000D01*
%TO.C,J7*%
X111442000Y-88045000D02*
X112772000Y-88045000D01*
X111442000Y-89375000D02*
X111442000Y-88045000D01*
X111442000Y-90645000D02*
X114102000Y-90645000D01*
X114102000Y-90645000D02*
X114102000Y-90705000D01*
X111442000Y-90645000D02*
X111442000Y-90705000D01*
X111442000Y-90705000D02*
X114102000Y-90705000D01*
%TO.C,REF\u002A\u002A*%
X100682000Y-99813000D02*
X102012000Y-99813000D01*
X100682000Y-101143000D02*
X100682000Y-99813000D01*
X100682000Y-102413000D02*
X103342000Y-102413000D01*
X103342000Y-102413000D02*
X103342000Y-110093000D01*
X100682000Y-102413000D02*
X100682000Y-110093000D01*
X100682000Y-110093000D02*
X103342000Y-110093000D01*
X132883000Y-83523000D02*
X131033000Y-83523000D01*
X132883000Y-83573000D02*
X132883000Y-83523000D01*
X132883000Y-85423000D02*
X132883000Y-83573000D01*
X131033000Y-85423000D02*
X132883000Y-85423000D01*
X131033000Y-83523000D02*
X131033000Y-85423000D01*
X130724000Y-79563000D02*
X130724000Y-81463000D01*
X130724000Y-81463000D02*
X132574000Y-81463000D01*
X132574000Y-81463000D02*
X132574000Y-79613000D01*
X132574000Y-79613000D02*
X132574000Y-79563000D01*
X132574000Y-79563000D02*
X130724000Y-79563000D01*
X130739000Y-79543000D02*
X128889000Y-79543000D01*
X130739000Y-79593000D02*
X130739000Y-79543000D01*
X130739000Y-81443000D02*
X130739000Y-79593000D01*
X128889000Y-81443000D02*
X130739000Y-81443000D01*
X128889000Y-79543000D02*
X128889000Y-81443000D01*
X126991000Y-79543000D02*
X126991000Y-81443000D01*
X126991000Y-81443000D02*
X128841000Y-81443000D01*
X128841000Y-81443000D02*
X128841000Y-79593000D01*
X128841000Y-79593000D02*
X128841000Y-79543000D01*
X128841000Y-79543000D02*
X126991000Y-79543000D01*
X126958000Y-65818000D02*
X125108000Y-65818000D01*
X126958000Y-65868000D02*
X126958000Y-65818000D01*
X126958000Y-67718000D02*
X126958000Y-65868000D01*
X125108000Y-67718000D02*
X126958000Y-67718000D01*
X125108000Y-65818000D02*
X125108000Y-67718000D01*
X126914000Y-68750000D02*
X126914000Y-70650000D01*
X126914000Y-70650000D02*
X128764000Y-70650000D01*
X128764000Y-70650000D02*
X128764000Y-68800000D01*
X128764000Y-68800000D02*
X128764000Y-68750000D01*
X128764000Y-68750000D02*
X126914000Y-68750000D01*
X130599000Y-68766000D02*
X128749000Y-68766000D01*
X130599000Y-68816000D02*
X130599000Y-68766000D01*
X130599000Y-70666000D02*
X130599000Y-68816000D01*
X128749000Y-70666000D02*
X130599000Y-70666000D01*
X128749000Y-68766000D02*
X128749000Y-70666000D01*
X126146000Y-79081000D02*
X124296000Y-79081000D01*
X126146000Y-79131000D02*
X126146000Y-79081000D01*
X126146000Y-80981000D02*
X126146000Y-79131000D01*
X124296000Y-80981000D02*
X126146000Y-80981000D01*
X124296000Y-79081000D02*
X124296000Y-80981000D01*
X125122000Y-68727000D02*
X125122000Y-70627000D01*
X125122000Y-70627000D02*
X126972000Y-70627000D01*
X126972000Y-70627000D02*
X126972000Y-68777000D01*
X126972000Y-68777000D02*
X126972000Y-68727000D01*
X126972000Y-68727000D02*
X125122000Y-68727000D01*
%TO.C,D14*%
X104695634Y-72381551D02*
G75*
G02*
X106963000Y-72441153I1167366J1251551D01*
G01*
%TO.C,D13*%
X103401366Y-72147449D02*
G75*
G02*
X101134000Y-72087847I-1167366J-1251551D01*
G01*
%TO.C,D12*%
X106951366Y-78241449D02*
G75*
G02*
X104684000Y-78181847I-1167366J-1251551D01*
G01*
%TO.C,D11*%
X101095634Y-78299551D02*
G75*
G02*
X103363000Y-78359153I1167366J1251551D01*
G01*
%TO.C,D10*%
X145395551Y-78417366D02*
G75*
G02*
X145455153Y-76150000I-1251551J1167366D01*
G01*
%TO.C,D9*%
X172036634Y-62310551D02*
G75*
G02*
X174304000Y-62370153I1167366J1251551D01*
G01*
%TO.C,D8*%
X180368366Y-58493449D02*
G75*
G02*
X178101000Y-58433847I-1167366J-1251551D01*
G01*
%TO.C,D7*%
X172685551Y-53562366D02*
G75*
G02*
X172745153Y-51295000I-1251551J1167366D01*
G01*
%TO.C,D5*%
X170966551Y-57227366D02*
G75*
G02*
X171026153Y-54960000I-1251551J1167366D01*
G01*
%TO.C,DS1*%
X148131000Y-54305000D02*
X148131000Y-51645000D01*
X109971000Y-54305000D02*
X148131000Y-54305000D01*
X109971000Y-51645000D02*
X148131000Y-51645000D01*
X109971000Y-54305000D02*
X109971000Y-51645000D01*
X108701000Y-54305000D02*
X107371000Y-54305000D01*
X107371000Y-54305000D02*
X107371000Y-52975000D01*
%TO.C,REF\u002A\u002A*%
X147749000Y-125731000D02*
X149079000Y-125731000D01*
X147749000Y-127061000D02*
X147749000Y-125731000D01*
X147749000Y-128331000D02*
X150409000Y-128331000D01*
X150409000Y-128331000D02*
X150409000Y-128391000D01*
X147749000Y-128331000D02*
X147749000Y-128391000D01*
X147749000Y-128391000D02*
X150409000Y-128391000D01*
X117214000Y-128538000D02*
X119874000Y-128538000D01*
X117214000Y-128478000D02*
X117214000Y-128538000D01*
X119874000Y-128478000D02*
X119874000Y-128538000D01*
X117214000Y-128478000D02*
X119874000Y-128478000D01*
X117214000Y-127208000D02*
X117214000Y-125878000D01*
X117214000Y-125878000D02*
X118544000Y-125878000D01*
X127984000Y-125846000D02*
X129314000Y-125846000D01*
X127984000Y-127176000D02*
X127984000Y-125846000D01*
X127984000Y-128446000D02*
X130644000Y-128446000D01*
X130644000Y-128446000D02*
X130644000Y-128506000D01*
X127984000Y-128446000D02*
X127984000Y-128506000D01*
X127984000Y-128506000D02*
X130644000Y-128506000D01*
X178498000Y-124004000D02*
X178498000Y-125704000D01*
X178498000Y-125704000D02*
X178498000Y-126204000D01*
X178498000Y-126204000D02*
X181098000Y-126204000D01*
X181098000Y-126204000D02*
X181098000Y-124004000D01*
X181098000Y-124004000D02*
X178498000Y-124004000D01*
X106956000Y-125950000D02*
X108286000Y-125950000D01*
X106956000Y-127280000D02*
X106956000Y-125950000D01*
X106956000Y-128550000D02*
X109616000Y-128550000D01*
X109616000Y-128550000D02*
X109616000Y-128610000D01*
X106956000Y-128550000D02*
X106956000Y-128610000D01*
X106956000Y-128610000D02*
X109616000Y-128610000D01*
X157964000Y-128524000D02*
X160624000Y-128524000D01*
X157964000Y-128464000D02*
X157964000Y-128524000D01*
X160624000Y-128464000D02*
X160624000Y-128524000D01*
X157964000Y-128464000D02*
X160624000Y-128464000D01*
X157964000Y-127194000D02*
X157964000Y-125864000D01*
X157964000Y-125864000D02*
X159294000Y-125864000D01*
X137491000Y-128463000D02*
X140151000Y-128463000D01*
X137491000Y-128403000D02*
X137491000Y-128463000D01*
X140151000Y-128403000D02*
X140151000Y-128463000D01*
X137491000Y-128403000D02*
X140151000Y-128403000D01*
X137491000Y-127133000D02*
X137491000Y-125803000D01*
X137491000Y-125803000D02*
X138821000Y-125803000D01*
X97449000Y-128653000D02*
X100109000Y-128653000D01*
X97449000Y-128593000D02*
X97449000Y-128653000D01*
X100109000Y-128593000D02*
X100109000Y-128653000D01*
X97449000Y-128593000D02*
X100109000Y-128593000D01*
X97449000Y-127323000D02*
X97449000Y-125993000D01*
X97449000Y-125993000D02*
X98779000Y-125993000D01*
X97502000Y-132506000D02*
X98832000Y-132506000D01*
X97502000Y-133836000D02*
X97502000Y-132506000D01*
X97502000Y-135106000D02*
X100162000Y-135106000D01*
X100162000Y-135106000D02*
X100162000Y-135166000D01*
X97502000Y-135106000D02*
X97502000Y-135166000D01*
X97502000Y-135166000D02*
X100162000Y-135166000D01*
X158017000Y-132377000D02*
X159347000Y-132377000D01*
X158017000Y-133707000D02*
X158017000Y-132377000D01*
X158017000Y-134977000D02*
X160677000Y-134977000D01*
X160677000Y-134977000D02*
X160677000Y-135037000D01*
X158017000Y-134977000D02*
X158017000Y-135037000D01*
X158017000Y-135037000D02*
X160677000Y-135037000D01*
X117267000Y-132391000D02*
X118597000Y-132391000D01*
X117267000Y-133721000D02*
X117267000Y-132391000D01*
X117267000Y-134991000D02*
X119927000Y-134991000D01*
X119927000Y-134991000D02*
X119927000Y-135051000D01*
X117267000Y-134991000D02*
X117267000Y-135051000D01*
X117267000Y-135051000D02*
X119927000Y-135051000D01*
X107009000Y-135123000D02*
X109669000Y-135123000D01*
X107009000Y-135063000D02*
X107009000Y-135123000D01*
X109669000Y-135063000D02*
X109669000Y-135123000D01*
X107009000Y-135063000D02*
X109669000Y-135063000D01*
X107009000Y-133793000D02*
X107009000Y-132463000D01*
X107009000Y-132463000D02*
X108339000Y-132463000D01*
X181151000Y-130517000D02*
X178551000Y-130517000D01*
X181151000Y-132717000D02*
X181151000Y-130517000D01*
X178551000Y-132717000D02*
X181151000Y-132717000D01*
X178551000Y-132217000D02*
X178551000Y-132717000D01*
X178551000Y-130517000D02*
X178551000Y-132217000D01*
X147802000Y-134904000D02*
X150462000Y-134904000D01*
X147802000Y-134844000D02*
X147802000Y-134904000D01*
X150462000Y-134844000D02*
X150462000Y-134904000D01*
X147802000Y-134844000D02*
X150462000Y-134844000D01*
X147802000Y-133574000D02*
X147802000Y-132244000D01*
X147802000Y-132244000D02*
X149132000Y-132244000D01*
X128037000Y-135019000D02*
X130697000Y-135019000D01*
X128037000Y-134959000D02*
X128037000Y-135019000D01*
X130697000Y-134959000D02*
X130697000Y-135019000D01*
X128037000Y-134959000D02*
X130697000Y-134959000D01*
X128037000Y-133689000D02*
X128037000Y-132359000D01*
X128037000Y-132359000D02*
X129367000Y-132359000D01*
X137544000Y-132316000D02*
X138874000Y-132316000D01*
X137544000Y-133646000D02*
X137544000Y-132316000D01*
X137544000Y-134916000D02*
X140204000Y-134916000D01*
X140204000Y-134916000D02*
X140204000Y-134976000D01*
X137544000Y-134916000D02*
X137544000Y-134976000D01*
X137544000Y-134976000D02*
X140204000Y-134976000D01*
X117247000Y-141554000D02*
X119907000Y-141554000D01*
X117247000Y-141494000D02*
X117247000Y-141554000D01*
X119907000Y-141494000D02*
X119907000Y-141554000D01*
X117247000Y-141494000D02*
X119907000Y-141494000D01*
X117247000Y-140224000D02*
X117247000Y-138894000D01*
X117247000Y-138894000D02*
X118577000Y-138894000D01*
X137524000Y-141479000D02*
X140184000Y-141479000D01*
X137524000Y-141419000D02*
X137524000Y-141479000D01*
X140184000Y-141419000D02*
X140184000Y-141479000D01*
X137524000Y-141419000D02*
X140184000Y-141419000D01*
X137524000Y-140149000D02*
X137524000Y-138819000D01*
X137524000Y-138819000D02*
X138854000Y-138819000D01*
X97482000Y-141669000D02*
X100142000Y-141669000D01*
X97482000Y-141609000D02*
X97482000Y-141669000D01*
X100142000Y-141609000D02*
X100142000Y-141669000D01*
X97482000Y-141609000D02*
X100142000Y-141609000D01*
X97482000Y-140339000D02*
X97482000Y-139009000D01*
X97482000Y-139009000D02*
X98812000Y-139009000D01*
X128017000Y-138862000D02*
X129347000Y-138862000D01*
X128017000Y-140192000D02*
X128017000Y-138862000D01*
X128017000Y-141462000D02*
X130677000Y-141462000D01*
X130677000Y-141462000D02*
X130677000Y-141522000D01*
X128017000Y-141462000D02*
X128017000Y-141522000D01*
X128017000Y-141522000D02*
X130677000Y-141522000D01*
X106989000Y-138966000D02*
X108319000Y-138966000D01*
X106989000Y-140296000D02*
X106989000Y-138966000D01*
X106989000Y-141566000D02*
X109649000Y-141566000D01*
X109649000Y-141566000D02*
X109649000Y-141626000D01*
X106989000Y-141566000D02*
X106989000Y-141626000D01*
X106989000Y-141626000D02*
X109649000Y-141626000D01*
X157997000Y-141540000D02*
X160657000Y-141540000D01*
X157997000Y-141480000D02*
X157997000Y-141540000D01*
X160657000Y-141480000D02*
X160657000Y-141540000D01*
X157997000Y-141480000D02*
X160657000Y-141480000D01*
X157997000Y-140210000D02*
X157997000Y-138880000D01*
X157997000Y-138880000D02*
X159327000Y-138880000D01*
X147782000Y-138747000D02*
X149112000Y-138747000D01*
X147782000Y-140077000D02*
X147782000Y-138747000D01*
X147782000Y-141347000D02*
X150442000Y-141347000D01*
X150442000Y-141347000D02*
X150442000Y-141407000D01*
X147782000Y-141347000D02*
X147782000Y-141407000D01*
X147782000Y-141407000D02*
X150442000Y-141407000D01*
X178531000Y-137020000D02*
X178531000Y-138720000D01*
X178531000Y-138720000D02*
X178531000Y-139220000D01*
X178531000Y-139220000D02*
X181131000Y-139220000D01*
X181131000Y-139220000D02*
X181131000Y-137020000D01*
X181131000Y-137020000D02*
X178531000Y-137020000D01*
X157978000Y-148046000D02*
X160638000Y-148046000D01*
X157978000Y-147986000D02*
X157978000Y-148046000D01*
X160638000Y-147986000D02*
X160638000Y-148046000D01*
X157978000Y-147986000D02*
X160638000Y-147986000D01*
X157978000Y-146716000D02*
X157978000Y-145386000D01*
X157978000Y-145386000D02*
X159308000Y-145386000D01*
X127998000Y-145368000D02*
X129328000Y-145368000D01*
X127998000Y-146698000D02*
X127998000Y-145368000D01*
X127998000Y-147968000D02*
X130658000Y-147968000D01*
X130658000Y-147968000D02*
X130658000Y-148028000D01*
X127998000Y-147968000D02*
X127998000Y-148028000D01*
X127998000Y-148028000D02*
X130658000Y-148028000D01*
X147763000Y-145253000D02*
X149093000Y-145253000D01*
X147763000Y-146583000D02*
X147763000Y-145253000D01*
X147763000Y-147853000D02*
X150423000Y-147853000D01*
X150423000Y-147853000D02*
X150423000Y-147913000D01*
X147763000Y-147853000D02*
X147763000Y-147913000D01*
X147763000Y-147913000D02*
X150423000Y-147913000D01*
X137505000Y-147985000D02*
X140165000Y-147985000D01*
X137505000Y-147925000D02*
X137505000Y-147985000D01*
X140165000Y-147925000D02*
X140165000Y-147985000D01*
X137505000Y-147925000D02*
X140165000Y-147925000D01*
X137505000Y-146655000D02*
X137505000Y-145325000D01*
X137505000Y-145325000D02*
X138835000Y-145325000D01*
X117228000Y-148060000D02*
X119888000Y-148060000D01*
X117228000Y-148000000D02*
X117228000Y-148060000D01*
X119888000Y-148000000D02*
X119888000Y-148060000D01*
X117228000Y-148000000D02*
X119888000Y-148000000D01*
X117228000Y-146730000D02*
X117228000Y-145400000D01*
X117228000Y-145400000D02*
X118558000Y-145400000D01*
X106970000Y-145472000D02*
X108300000Y-145472000D01*
X106970000Y-146802000D02*
X106970000Y-145472000D01*
X106970000Y-148072000D02*
X109630000Y-148072000D01*
X109630000Y-148072000D02*
X109630000Y-148132000D01*
X106970000Y-148072000D02*
X106970000Y-148132000D01*
X106970000Y-148132000D02*
X109630000Y-148132000D01*
X178512000Y-143526000D02*
X178512000Y-145226000D01*
X178512000Y-145226000D02*
X178512000Y-145726000D01*
X178512000Y-145726000D02*
X181112000Y-145726000D01*
X181112000Y-145726000D02*
X181112000Y-143526000D01*
X181112000Y-143526000D02*
X178512000Y-143526000D01*
X97463000Y-148175000D02*
X100123000Y-148175000D01*
X97463000Y-148115000D02*
X97463000Y-148175000D01*
X100123000Y-148115000D02*
X100123000Y-148175000D01*
X97463000Y-148115000D02*
X100123000Y-148115000D01*
X97463000Y-146845000D02*
X97463000Y-145515000D01*
X97463000Y-145515000D02*
X98793000Y-145515000D01*
%TO.C,Y1*%
X122003000Y-71369000D02*
X122003000Y-77769000D01*
X116953000Y-71369000D02*
X116953000Y-77769000D01*
X116953000Y-77769000D02*
G75*
G03*
X122003000Y-77769000I2525000J0D01*
G01*
X116953000Y-71369000D02*
G75*
G02*
X122003000Y-71369000I2525000J0D01*
G01*
%TO.C,U13*%
X178986000Y-70878000D02*
X178986000Y-69378000D01*
X178986000Y-69378000D02*
X177176000Y-69378000D01*
X177176000Y-69378000D02*
X177176000Y-64253000D01*
X168586000Y-70878000D02*
X168586000Y-69378000D01*
X168586000Y-69378000D02*
X170396000Y-69378000D01*
X170396000Y-69378000D02*
X170396000Y-68278000D01*
%TO.C,U12*%
X129296000Y-74677000D02*
X129296000Y-72477000D01*
X129296000Y-74677000D02*
X129296000Y-76877000D01*
X122526000Y-74677000D02*
X122526000Y-72477000D01*
X122526000Y-74677000D02*
X122526000Y-78277000D01*
%TO.C,U11*%
X137065000Y-61497000D02*
X139265000Y-61497000D01*
X137065000Y-61497000D02*
X134865000Y-61497000D01*
X137065000Y-56027000D02*
X139265000Y-56027000D01*
X137065000Y-56027000D02*
X133465000Y-56027000D01*
%TO.C,U10*%
X161130000Y-111492000D02*
X159180000Y-111492000D01*
X161130000Y-111492000D02*
X163080000Y-111492000D01*
X161130000Y-116612000D02*
X159180000Y-116612000D01*
X161130000Y-116612000D02*
X164580000Y-116612000D01*
%TO.C,U9*%
X155059000Y-99929000D02*
X157259000Y-99929000D01*
X155059000Y-99929000D02*
X152859000Y-99929000D01*
X155059000Y-94459000D02*
X157259000Y-94459000D01*
X155059000Y-94459000D02*
X151459000Y-94459000D01*
%TO.C,U8*%
X139037000Y-68403000D02*
X139037000Y-69663000D01*
X139037000Y-75223000D02*
X139037000Y-73963000D01*
X142797000Y-68403000D02*
X139037000Y-68403000D01*
X145047000Y-75223000D02*
X139037000Y-75223000D01*
%TO.C,U7*%
X136160000Y-98392000D02*
X136160000Y-100342000D01*
X136160000Y-98392000D02*
X136160000Y-96442000D01*
X141280000Y-98392000D02*
X141280000Y-100342000D01*
X141280000Y-98392000D02*
X141280000Y-94942000D01*
%TO.C,U6*%
X160719000Y-64011000D02*
X162219000Y-64011000D01*
X162219000Y-64011000D02*
X162219000Y-62201000D01*
X162219000Y-62201000D02*
X167344000Y-62201000D01*
X160719000Y-53611000D02*
X162219000Y-53611000D01*
X162219000Y-53611000D02*
X162219000Y-55421000D01*
X162219000Y-55421000D02*
X163319000Y-55421000D01*
%TO.C,U5*%
X158851000Y-74925000D02*
X158851000Y-73425000D01*
X158851000Y-73425000D02*
X157901000Y-73425000D01*
X157901000Y-73425000D02*
X157901000Y-68300000D01*
X148451000Y-74925000D02*
X148451000Y-73425000D01*
X148451000Y-73425000D02*
X149401000Y-73425000D01*
X149401000Y-73425000D02*
X149401000Y-72325000D01*
%TO.C,U4*%
X136894028Y-115026348D02*
X138844028Y-115026348D01*
X136894028Y-115026348D02*
X134944028Y-115026348D01*
X136894028Y-109906348D02*
X138844028Y-109906348D01*
X136894028Y-109906348D02*
X133444028Y-109906348D01*
%TO.C,U3*%
X115262000Y-107989000D02*
X117462000Y-107989000D01*
X115262000Y-107989000D02*
X113062000Y-107989000D01*
X115262000Y-102519000D02*
X117462000Y-102519000D01*
X115262000Y-102519000D02*
X111662000Y-102519000D01*
%TO.C,U2*%
X112451000Y-116820000D02*
X112451000Y-119020000D01*
X112451000Y-116820000D02*
X112451000Y-114620000D01*
X117921000Y-116820000D02*
X117921000Y-119020000D01*
X117921000Y-116820000D02*
X117921000Y-113220000D01*
%TO.C,U1*%
X113121000Y-96265000D02*
X115071000Y-96265000D01*
X113121000Y-96265000D02*
X111171000Y-96265000D01*
X113121000Y-91145000D02*
X115071000Y-91145000D01*
X113121000Y-91145000D02*
X109671000Y-91145000D01*
%TO.C,SW3*%
X170982000Y-58486000D02*
X168322000Y-58486000D01*
X170982000Y-61086000D02*
X170982000Y-58486000D01*
X168322000Y-61086000D02*
X168322000Y-58486000D01*
X170982000Y-61086000D02*
X168322000Y-61086000D01*
X170982000Y-62356000D02*
X170982000Y-63686000D01*
X170982000Y-63686000D02*
X169652000Y-63686000D01*
%TO.C,SW2*%
X177211000Y-95172000D02*
X176981000Y-95172000D01*
X180881000Y-94652000D02*
X180881000Y-102372000D01*
X180881000Y-102372000D02*
X176981000Y-102372000D01*
X173871000Y-94652000D02*
X173871000Y-95172000D01*
X180881000Y-94652000D02*
X176981000Y-94652000D01*
X177211000Y-101852000D02*
X176981000Y-101852000D01*
X174381000Y-95172000D02*
X173871000Y-95172000D01*
X174381000Y-94652000D02*
X173871000Y-94652000D01*
X177211000Y-101312000D02*
X177211000Y-101852000D01*
X174381000Y-101852000D02*
X173871000Y-101852000D01*
X173871000Y-101852000D02*
X173871000Y-102372000D01*
X174381000Y-102372000D02*
X173871000Y-102372000D01*
X177211000Y-95172000D02*
X177211000Y-95712000D01*
X177211000Y-96812000D02*
X177211000Y-100212000D01*
%TO.C,SW1*%
X177319000Y-108605000D02*
X177089000Y-108605000D01*
X180989000Y-108085000D02*
X180989000Y-115805000D01*
X180989000Y-115805000D02*
X177089000Y-115805000D01*
X173979000Y-108085000D02*
X173979000Y-108605000D01*
X180989000Y-108085000D02*
X177089000Y-108085000D01*
X177319000Y-115285000D02*
X177089000Y-115285000D01*
X174489000Y-108605000D02*
X173979000Y-108605000D01*
X174489000Y-108085000D02*
X173979000Y-108085000D01*
X177319000Y-114745000D02*
X177319000Y-115285000D01*
X174489000Y-115285000D02*
X173979000Y-115285000D01*
X173979000Y-115285000D02*
X173979000Y-115805000D01*
X174489000Y-115805000D02*
X173979000Y-115805000D01*
X177319000Y-108605000D02*
X177319000Y-109145000D01*
X177319000Y-110245000D02*
X177319000Y-113645000D01*
%TO.C,R57*%
X98368000Y-107637064D02*
X98368000Y-107182936D01*
X99838000Y-107637064D02*
X99838000Y-107182936D01*
%TO.C,R56*%
X99895000Y-102185936D02*
X99895000Y-102640064D01*
X98425000Y-102185936D02*
X98425000Y-102640064D01*
%TO.C,R55*%
X168376936Y-107589000D02*
X168831064Y-107589000D01*
X168376936Y-109059000D02*
X168831064Y-109059000D01*
%TO.C,R54*%
X166919000Y-111619064D02*
X166919000Y-111164936D01*
X168389000Y-111619064D02*
X168389000Y-111164936D01*
%TO.C,R53*%
X161044064Y-107001000D02*
X160589936Y-107001000D01*
X161044064Y-105531000D02*
X160589936Y-105531000D01*
%TO.C,R52*%
X143771936Y-54642000D02*
X144226064Y-54642000D01*
X143771936Y-56112000D02*
X144226064Y-56112000D01*
%TO.C,R51*%
X110562936Y-54886000D02*
X111017064Y-54886000D01*
X110562936Y-56356000D02*
X111017064Y-56356000D01*
%TO.C,R50*%
X171609000Y-116011064D02*
X171609000Y-115556936D01*
X173079000Y-116011064D02*
X173079000Y-115556936D01*
%TO.C,R49*%
X173356000Y-95375936D02*
X173356000Y-95830064D01*
X171886000Y-95375936D02*
X171886000Y-95830064D01*
%TO.C,R48*%
X119979064Y-82506000D02*
X119524936Y-82506000D01*
X119979064Y-81036000D02*
X119524936Y-81036000D01*
%TO.C,R47*%
X145738064Y-58415000D02*
X145283936Y-58415000D01*
X145738064Y-56945000D02*
X145283936Y-56945000D01*
%TO.C,R46*%
X143815064Y-63687000D02*
X143360936Y-63687000D01*
X143815064Y-62217000D02*
X143360936Y-62217000D01*
%TO.C,R45*%
X144296064Y-60989000D02*
X143841936Y-60989000D01*
X144296064Y-59519000D02*
X143841936Y-59519000D01*
%TO.C,R44*%
X146594936Y-115904000D02*
X147049064Y-115904000D01*
X146594936Y-117374000D02*
X147049064Y-117374000D01*
%TO.C,R43*%
X150377936Y-115902000D02*
X150832064Y-115902000D01*
X150377936Y-117372000D02*
X150832064Y-117372000D01*
%TO.C,R42*%
X130244000Y-83688936D02*
X130244000Y-84143064D01*
X128774000Y-83688936D02*
X128774000Y-84143064D01*
%TO.C,R41*%
X144346000Y-91308064D02*
X144346000Y-90853936D01*
X145816000Y-91308064D02*
X145816000Y-90853936D01*
%TO.C,R40*%
X142400064Y-90451000D02*
X141945936Y-90451000D01*
X142400064Y-88981000D02*
X141945936Y-88981000D01*
%TO.C,R39*%
X145569000Y-104034936D02*
X145569000Y-104489064D01*
X144099000Y-104034936D02*
X144099000Y-104489064D01*
%TO.C,R38*%
X145572000Y-100208936D02*
X145572000Y-100663064D01*
X144102000Y-100208936D02*
X144102000Y-100663064D01*
%TO.C,R37*%
X166591000Y-115104936D02*
X166591000Y-115559064D01*
X165121000Y-115104936D02*
X165121000Y-115559064D01*
%TO.C,R36*%
X142387028Y-112364283D02*
X142387028Y-112818411D01*
X140917028Y-112364283D02*
X140917028Y-112818411D01*
%TO.C,R35*%
X164436000Y-118903936D02*
X164436000Y-119358064D01*
X162966000Y-118903936D02*
X162966000Y-119358064D01*
%TO.C,R34*%
X132855028Y-110924284D02*
X132855028Y-111378412D01*
X131385028Y-110924284D02*
X131385028Y-111378412D01*
%TO.C,R33*%
X137034092Y-117215348D02*
X136579964Y-117215348D01*
X137034092Y-115745348D02*
X136579964Y-115745348D01*
%TO.C,R32*%
X140259064Y-94208000D02*
X139804936Y-94208000D01*
X140259064Y-92738000D02*
X139804936Y-92738000D01*
%TO.C,R31*%
X120306000Y-111349064D02*
X120306000Y-110894936D01*
X121776000Y-111349064D02*
X121776000Y-110894936D01*
%TO.C,R30*%
X139885000Y-90304936D02*
X139885000Y-90759064D01*
X138415000Y-90304936D02*
X138415000Y-90759064D01*
%TO.C,R29*%
X104312000Y-110632064D02*
X104312000Y-110177936D01*
X105782000Y-110632064D02*
X105782000Y-110177936D01*
%TO.C,R28*%
X155548000Y-114229064D02*
X155548000Y-113774936D01*
X157018000Y-114229064D02*
X157018000Y-113774936D01*
%TO.C,R27*%
X138941064Y-103951000D02*
X138486936Y-103951000D01*
X138941064Y-102481000D02*
X138486936Y-102481000D01*
%TO.C,R26*%
X133265936Y-100525000D02*
X133720064Y-100525000D01*
X133265936Y-101995000D02*
X133720064Y-101995000D01*
%TO.C,R25*%
X130316064Y-60162000D02*
X129861936Y-60162000D01*
X130316064Y-58692000D02*
X129861936Y-58692000D01*
%TO.C,R24*%
X138581000Y-107083936D02*
X138581000Y-107538064D01*
X137111000Y-107083936D02*
X137111000Y-107538064D01*
%TO.C,R23*%
X132841000Y-107042936D02*
X132841000Y-107497064D01*
X131371000Y-107042936D02*
X131371000Y-107497064D01*
%TO.C,R22*%
X122971000Y-66430064D02*
X122971000Y-65975936D01*
X124441000Y-66430064D02*
X124441000Y-65975936D01*
%TO.C,R21*%
X153578064Y-113857000D02*
X153123936Y-113857000D01*
X153578064Y-112387000D02*
X153123936Y-112387000D01*
%TO.C,R20*%
X114664936Y-59277000D02*
X115119064Y-59277000D01*
X114664936Y-60747000D02*
X115119064Y-60747000D01*
%TO.C,R19*%
X115407064Y-63805000D02*
X114952936Y-63805000D01*
X115407064Y-62335000D02*
X114952936Y-62335000D01*
%TO.C,R18*%
X153609064Y-111861000D02*
X153154936Y-111861000D01*
X153609064Y-110391000D02*
X153154936Y-110391000D01*
%TO.C,R17*%
X142066000Y-96569064D02*
X142066000Y-96114936D01*
X143536000Y-96569064D02*
X143536000Y-96114936D01*
%TO.C,R16*%
X147569000Y-71120936D02*
X147569000Y-71575064D01*
X146099000Y-71120936D02*
X146099000Y-71575064D01*
%TO.C,R15*%
X114638936Y-57049000D02*
X115093064Y-57049000D01*
X114638936Y-58519000D02*
X115093064Y-58519000D01*
%TO.C,R14*%
X108635064Y-68758000D02*
X108180936Y-68758000D01*
X108635064Y-67288000D02*
X108180936Y-67288000D01*
%TO.C,R13*%
X149262936Y-65335000D02*
X149717064Y-65335000D01*
X149262936Y-66805000D02*
X149717064Y-66805000D01*
%TO.C,R12*%
X127319936Y-62389000D02*
X127774064Y-62389000D01*
X127319936Y-63859000D02*
X127774064Y-63859000D01*
%TO.C,R11*%
X112216064Y-101060000D02*
X111761936Y-101060000D01*
X112216064Y-99590000D02*
X111761936Y-99590000D01*
%TO.C,R10*%
X109909936Y-74846000D02*
X110364064Y-74846000D01*
X109909936Y-76316000D02*
X110364064Y-76316000D01*
%TO.C,R9*%
X107928936Y-104619000D02*
X108383064Y-104619000D01*
X107928936Y-106089000D02*
X108383064Y-106089000D01*
%TO.C,R8*%
X107926936Y-102639000D02*
X108381064Y-102639000D01*
X107926936Y-104109000D02*
X108381064Y-104109000D01*
%TO.C,R7*%
X107506064Y-96229000D02*
X107051936Y-96229000D01*
X107506064Y-94759000D02*
X107051936Y-94759000D01*
%TO.C,R6*%
X108871064Y-112036000D02*
X108416936Y-112036000D01*
X108871064Y-110566000D02*
X108416936Y-110566000D01*
%TO.C,R5*%
X103838064Y-115311000D02*
X103383936Y-115311000D01*
X103838064Y-113841000D02*
X103383936Y-113841000D01*
%TO.C,R4*%
X107952936Y-106599000D02*
X108407064Y-106599000D01*
X107952936Y-108069000D02*
X108407064Y-108069000D01*
%TO.C,R3*%
X107427000Y-92762064D02*
X107427000Y-92307936D01*
X108897000Y-92762064D02*
X108897000Y-92307936D01*
%TO.C,R2*%
X107947936Y-100670000D02*
X108402064Y-100670000D01*
X107947936Y-102140000D02*
X108402064Y-102140000D01*
%TO.C,R1*%
X102827000Y-96854936D02*
X102827000Y-97309064D01*
X101357000Y-96854936D02*
X101357000Y-97309064D01*
%TO.C,Q3*%
X125934000Y-61221000D02*
X125934000Y-57621000D01*
X125922478Y-57582522D02*
G75*
G03*
X121484000Y-59421000I-1838478J-1838478D01*
G01*
X125922478Y-61259478D02*
G75*
G02*
X121484000Y-59421000I-1838478J1838478D01*
G01*
%TO.C,Q2*%
X112021000Y-61836000D02*
X112021000Y-58236000D01*
X112009478Y-58197522D02*
G75*
G03*
X107571000Y-60036000I-1838478J-1838478D01*
G01*
X112009478Y-61874478D02*
G75*
G02*
X107571000Y-60036000I-1838478J1838478D01*
G01*
%TO.C,Q1*%
X105589000Y-62621000D02*
X105589000Y-59021000D01*
X105577478Y-58982522D02*
G75*
G03*
X101139000Y-60821000I-1838478J-1838478D01*
G01*
X105577478Y-62659478D02*
G75*
G02*
X101139000Y-60821000I-1838478J1838478D01*
G01*
%TO.C,L1*%
X160794740Y-73878000D02*
G75*
G02*
X166503260Y-73878000I2854260J-1260000D01*
G01*
X160794740Y-76398000D02*
G75*
G03*
X166503260Y-76398000I2854260J1260000D01*
G01*
%TO.C,J7*%
X106634000Y-86509000D02*
X109294000Y-86509000D01*
X106634000Y-86449000D02*
X106634000Y-86509000D01*
X109294000Y-86449000D02*
X109294000Y-86509000D01*
X106634000Y-86449000D02*
X109294000Y-86449000D01*
X106634000Y-85179000D02*
X106634000Y-83849000D01*
X106634000Y-83849000D02*
X107964000Y-83849000D01*
%TO.C,J3*%
X136279000Y-77827000D02*
X138939000Y-77827000D01*
X136279000Y-77767000D02*
X136279000Y-77827000D01*
X138939000Y-77767000D02*
X138939000Y-77827000D01*
X136279000Y-77767000D02*
X138939000Y-77767000D01*
X136279000Y-76497000D02*
X136279000Y-75167000D01*
X136279000Y-75167000D02*
X137609000Y-75167000D01*
%TO.C,J2*%
X136154000Y-86608000D02*
X138814000Y-86608000D01*
X136154000Y-86548000D02*
X136154000Y-86608000D01*
X138814000Y-86548000D02*
X138814000Y-86608000D01*
X136154000Y-86548000D02*
X138814000Y-86548000D01*
X136154000Y-85278000D02*
X136154000Y-83948000D01*
X136154000Y-83948000D02*
X137484000Y-83948000D01*
%TO.C,J1*%
X147699000Y-57684000D02*
X150359000Y-57684000D01*
X147699000Y-57624000D02*
X147699000Y-57684000D01*
X150359000Y-57624000D02*
X150359000Y-57684000D01*
X147699000Y-57624000D02*
X150359000Y-57624000D01*
X147699000Y-56354000D02*
X147699000Y-55024000D01*
X147699000Y-55024000D02*
X149029000Y-55024000D01*
%TO.C,D6*%
X165393000Y-79363000D02*
X162093000Y-79363000D01*
X162093000Y-79363000D02*
X162093000Y-84763000D01*
X165393000Y-79363000D02*
X165393000Y-84763000D01*
%TO.C,D4*%
X89802000Y-113941000D02*
X93102000Y-113941000D01*
X93102000Y-113941000D02*
X93102000Y-108541000D01*
X89802000Y-113941000D02*
X89802000Y-108541000D01*
%TO.C,D3*%
X94002000Y-112000000D02*
X97302000Y-112000000D01*
X97302000Y-112000000D02*
X97302000Y-106600000D01*
X94002000Y-112000000D02*
X94002000Y-106600000D01*
%TO.C,D2*%
X89788000Y-106609000D02*
X93088000Y-106609000D01*
X93088000Y-106609000D02*
X93088000Y-101209000D01*
X89788000Y-106609000D02*
X89788000Y-101209000D01*
%TO.C,C48*%
X163152000Y-105501752D02*
X163152000Y-104979248D01*
X164622000Y-105501752D02*
X164622000Y-104979248D01*
%TO.C,C47*%
X115678748Y-98293000D02*
X116201252Y-98293000D01*
X115678748Y-99763000D02*
X116201252Y-99763000D01*
%TO.C,C46*%
X146515748Y-117926000D02*
X147038252Y-117926000D01*
X146515748Y-119396000D02*
X147038252Y-119396000D01*
%TO.C,C45*%
X128109000Y-66381252D02*
X128109000Y-65858748D01*
X129579000Y-66381252D02*
X129579000Y-65858748D01*
%TO.C,C44*%
X146542748Y-120006000D02*
X147065252Y-120006000D01*
X146542748Y-121476000D02*
X147065252Y-121476000D01*
%TO.C,C43*%
X123712000Y-81397748D02*
X123712000Y-81920252D01*
X122242000Y-81397748D02*
X122242000Y-81920252D01*
%TO.C,C42*%
X114762000Y-71189252D02*
X114762000Y-70666748D01*
X116232000Y-71189252D02*
X116232000Y-70666748D01*
%TO.C,C41*%
X114737000Y-78207252D02*
X114737000Y-77684748D01*
X116207000Y-78207252D02*
X116207000Y-77684748D01*
%TO.C,C40*%
X128099000Y-83633748D02*
X128099000Y-84156252D01*
X126629000Y-83633748D02*
X126629000Y-84156252D01*
%TO.C,C39*%
X150383748Y-117924000D02*
X150906252Y-117924000D01*
X150383748Y-119394000D02*
X150906252Y-119394000D01*
%TO.C,C38*%
X163180000Y-109502252D02*
X163180000Y-108979748D01*
X164650000Y-109502252D02*
X164650000Y-108979748D01*
%TO.C,C37*%
X159066000Y-118590748D02*
X159066000Y-119113252D01*
X157596000Y-118590748D02*
X157596000Y-119113252D01*
%TO.C,C36*%
X150434748Y-120020000D02*
X150957252Y-120020000D01*
X150434748Y-121490000D02*
X150957252Y-121490000D01*
%TO.C,C35*%
X125925000Y-82738748D02*
X125925000Y-83261252D01*
X124455000Y-82738748D02*
X124455000Y-83261252D01*
%TO.C,C34*%
X133980252Y-96482000D02*
X133457748Y-96482000D01*
X133980252Y-95012000D02*
X133457748Y-95012000D01*
%TO.C,C33*%
X142716000Y-104036748D02*
X142716000Y-104559252D01*
X141246000Y-104036748D02*
X141246000Y-104559252D01*
%TO.C,C32*%
X158777000Y-91961248D02*
X158777000Y-92483752D01*
X157307000Y-91961248D02*
X157307000Y-92483752D01*
%TO.C,C31*%
X141387000Y-83086252D02*
X141387000Y-82563748D01*
X142857000Y-83086252D02*
X142857000Y-82563748D01*
%TO.C,C30*%
X134689000Y-116538748D02*
X134689000Y-117061252D01*
X133219000Y-116538748D02*
X133219000Y-117061252D01*
%TO.C,C29*%
X142331748Y-108801000D02*
X142854252Y-108801000D01*
X142331748Y-110271000D02*
X142854252Y-110271000D01*
%TO.C,C27*%
X143457000Y-83083252D02*
X143457000Y-82560748D01*
X144927000Y-83083252D02*
X144927000Y-82560748D01*
%TO.C,C26*%
X107523752Y-98476000D02*
X107001248Y-98476000D01*
X107523752Y-97006000D02*
X107001248Y-97006000D01*
%TO.C,C25*%
X118645748Y-90109000D02*
X119168252Y-90109000D01*
X118645748Y-91579000D02*
X119168252Y-91579000D01*
%TO.C,C24*%
X152813000Y-102016748D02*
X152813000Y-102539252D01*
X151343000Y-102016748D02*
X151343000Y-102539252D01*
%TO.C,C22*%
X145516000Y-83066252D02*
X145516000Y-82543748D01*
X146986000Y-83066252D02*
X146986000Y-82543748D01*
%TO.C,C21*%
X150434000Y-60435748D02*
X150434000Y-60958252D01*
X148964000Y-60435748D02*
X148964000Y-60958252D01*
%TO.C,C20*%
X163150000Y-69359748D02*
X163150000Y-69882252D01*
X161680000Y-69359748D02*
X161680000Y-69882252D01*
%TO.C,C19*%
X169471000Y-67007748D02*
X169471000Y-67530252D01*
X168001000Y-67007748D02*
X168001000Y-67530252D01*
%TO.C,C18*%
X148366000Y-60436748D02*
X148366000Y-60959252D01*
X146896000Y-60436748D02*
X146896000Y-60959252D01*
%TO.C,C17*%
X139326000Y-83098252D02*
X139326000Y-82575748D01*
X140796000Y-83098252D02*
X140796000Y-82575748D01*
%TO.C,C16*%
X117646000Y-63382252D02*
X117646000Y-62859748D01*
X119116000Y-63382252D02*
X119116000Y-62859748D01*
%TO.C,C15*%
X155591000Y-110312252D02*
X155591000Y-109789748D01*
X157061000Y-110312252D02*
X157061000Y-109789748D01*
%TO.C,C14*%
X145507748Y-96499000D02*
X146030252Y-96499000D01*
X145507748Y-97969000D02*
X146030252Y-97969000D01*
%TO.C,C13*%
X110677000Y-65188252D02*
X110677000Y-64665748D01*
X112147000Y-65188252D02*
X112147000Y-64665748D01*
%TO.C,C12*%
X107638000Y-65264252D02*
X107638000Y-64741748D01*
X109108000Y-65264252D02*
X109108000Y-64741748D01*
%TO.C,C11*%
X118582000Y-121483252D02*
X118582000Y-120960748D01*
X120052000Y-121483252D02*
X120052000Y-120960748D01*
%TO.C,C10*%
X103846000Y-66438252D02*
X103846000Y-65915748D01*
X105316000Y-66438252D02*
X105316000Y-65915748D01*
%TO.C,C9*%
X154304748Y-65218000D02*
X154827252Y-65218000D01*
X154304748Y-66688000D02*
X154827252Y-66688000D01*
%TO.C,C8*%
X161092000Y-69359748D02*
X161092000Y-69882252D01*
X159622000Y-69359748D02*
X159622000Y-69882252D01*
%TO.C,C7*%
X112310252Y-110157000D02*
X111787748Y-110157000D01*
X112310252Y-108687000D02*
X111787748Y-108687000D01*
%TO.C,C6*%
X110309752Y-115211000D02*
X109787248Y-115211000D01*
X110309752Y-113741000D02*
X109787248Y-113741000D01*
%TO.C,C5*%
X101056000Y-66433252D02*
X101056000Y-65910748D01*
X102526000Y-66433252D02*
X102526000Y-65910748D01*
%TO.C,C4*%
X175378000Y-59394252D02*
X175378000Y-58871748D01*
X176848000Y-59394252D02*
X176848000Y-58871748D01*
%TO.C,C3*%
X111007000Y-71400748D02*
X111007000Y-71923252D01*
X109537000Y-71400748D02*
X109537000Y-71923252D01*
%TO.C,C2*%
X120297000Y-63321252D02*
X120297000Y-62798748D01*
X121767000Y-63321252D02*
X121767000Y-62798748D01*
%TO.C,C1*%
X120841748Y-101590000D02*
X121364252Y-101590000D01*
X120841748Y-103060000D02*
X121364252Y-103060000D01*
%TO.C,BT1*%
X164066000Y-71066000D02*
X166726000Y-71066000D01*
X164066000Y-68466000D02*
X164066000Y-71066000D01*
X166726000Y-68466000D02*
X166726000Y-71066000D01*
X164066000Y-68466000D02*
X166726000Y-68466000D01*
X164066000Y-67196000D02*
X164066000Y-65866000D01*
X164066000Y-65866000D02*
X165396000Y-65866000D01*
%TO.C,D1*%
D10*
X95973380Y-97339095D02*
X94973380Y-97339095D01*
X94973380Y-97101000D01*
X95021000Y-96958142D01*
X95116238Y-96862904D01*
X95211476Y-96815285D01*
X95401952Y-96767666D01*
X95544809Y-96767666D01*
X95735285Y-96815285D01*
X95830523Y-96862904D01*
X95925761Y-96958142D01*
X95973380Y-97101000D01*
X95973380Y-97339095D01*
X95973380Y-95815285D02*
X95973380Y-96386714D01*
X95973380Y-96101000D02*
X94973380Y-96101000D01*
X95116238Y-96196238D01*
X95211476Y-96291476D01*
X95259095Y-96386714D01*
%TO.C,D14*%
X108442380Y-74437285D02*
X107442380Y-74437285D01*
X107442380Y-74199190D01*
X107490000Y-74056333D01*
X107585238Y-73961095D01*
X107680476Y-73913476D01*
X107870952Y-73865857D01*
X108013809Y-73865857D01*
X108204285Y-73913476D01*
X108299523Y-73961095D01*
X108394761Y-74056333D01*
X108442380Y-74199190D01*
X108442380Y-74437285D01*
X108442380Y-72913476D02*
X108442380Y-73484904D01*
X108442380Y-73199190D02*
X107442380Y-73199190D01*
X107585238Y-73294428D01*
X107680476Y-73389666D01*
X107728095Y-73484904D01*
X107775714Y-72056333D02*
X108442380Y-72056333D01*
X107394761Y-72294428D02*
X108109047Y-72532523D01*
X108109047Y-71913476D01*
%TO.C,D13*%
X104480380Y-73512285D02*
X103480380Y-73512285D01*
X103480380Y-73274190D01*
X103528000Y-73131333D01*
X103623238Y-73036095D01*
X103718476Y-72988476D01*
X103908952Y-72940857D01*
X104051809Y-72940857D01*
X104242285Y-72988476D01*
X104337523Y-73036095D01*
X104432761Y-73131333D01*
X104480380Y-73274190D01*
X104480380Y-73512285D01*
X104480380Y-71988476D02*
X104480380Y-72559904D01*
X104480380Y-72274190D02*
X103480380Y-72274190D01*
X103623238Y-72369428D01*
X103718476Y-72464666D01*
X103766095Y-72559904D01*
X103480380Y-71655142D02*
X103480380Y-71036095D01*
X103861333Y-71369428D01*
X103861333Y-71226571D01*
X103908952Y-71131333D01*
X103956571Y-71083714D01*
X104051809Y-71036095D01*
X104289904Y-71036095D01*
X104385142Y-71083714D01*
X104432761Y-71131333D01*
X104480380Y-71226571D01*
X104480380Y-71512285D01*
X104432761Y-71607523D01*
X104385142Y-71655142D01*
%TO.C,D12*%
X108510380Y-79713285D02*
X107510380Y-79713285D01*
X107510380Y-79475190D01*
X107558000Y-79332333D01*
X107653238Y-79237095D01*
X107748476Y-79189476D01*
X107938952Y-79141857D01*
X108081809Y-79141857D01*
X108272285Y-79189476D01*
X108367523Y-79237095D01*
X108462761Y-79332333D01*
X108510380Y-79475190D01*
X108510380Y-79713285D01*
X108510380Y-78189476D02*
X108510380Y-78760904D01*
X108510380Y-78475190D02*
X107510380Y-78475190D01*
X107653238Y-78570428D01*
X107748476Y-78665666D01*
X107796095Y-78760904D01*
X107605619Y-77808523D02*
X107558000Y-77760904D01*
X107510380Y-77665666D01*
X107510380Y-77427571D01*
X107558000Y-77332333D01*
X107605619Y-77284714D01*
X107700857Y-77237095D01*
X107796095Y-77237095D01*
X107938952Y-77284714D01*
X108510380Y-77856142D01*
X108510380Y-77237095D01*
%TO.C,D11*%
X104498380Y-79309285D02*
X103498380Y-79309285D01*
X103498380Y-79071190D01*
X103546000Y-78928333D01*
X103641238Y-78833095D01*
X103736476Y-78785476D01*
X103926952Y-78737857D01*
X104069809Y-78737857D01*
X104260285Y-78785476D01*
X104355523Y-78833095D01*
X104450761Y-78928333D01*
X104498380Y-79071190D01*
X104498380Y-79309285D01*
X104498380Y-77785476D02*
X104498380Y-78356904D01*
X104498380Y-78071190D02*
X103498380Y-78071190D01*
X103641238Y-78166428D01*
X103736476Y-78261666D01*
X103784095Y-78356904D01*
X104498380Y-76833095D02*
X104498380Y-77404523D01*
X104498380Y-77118809D02*
X103498380Y-77118809D01*
X103641238Y-77214047D01*
X103736476Y-77309285D01*
X103784095Y-77404523D01*
%TO.C,D10*%
X145456714Y-75148380D02*
X145456714Y-74148380D01*
X145694809Y-74148380D01*
X145837666Y-74196000D01*
X145932904Y-74291238D01*
X145980523Y-74386476D01*
X146028142Y-74576952D01*
X146028142Y-74719809D01*
X145980523Y-74910285D01*
X145932904Y-75005523D01*
X145837666Y-75100761D01*
X145694809Y-75148380D01*
X145456714Y-75148380D01*
X146980523Y-75148380D02*
X146409095Y-75148380D01*
X146694809Y-75148380D02*
X146694809Y-74148380D01*
X146599571Y-74291238D01*
X146504333Y-74386476D01*
X146409095Y-74434095D01*
X147599571Y-74148380D02*
X147694809Y-74148380D01*
X147790047Y-74196000D01*
X147837666Y-74243619D01*
X147885285Y-74338857D01*
X147932904Y-74529333D01*
X147932904Y-74767428D01*
X147885285Y-74957904D01*
X147837666Y-75053142D01*
X147790047Y-75100761D01*
X147694809Y-75148380D01*
X147599571Y-75148380D01*
X147504333Y-75100761D01*
X147456714Y-75053142D01*
X147409095Y-74957904D01*
X147361476Y-74767428D01*
X147361476Y-74529333D01*
X147409095Y-74338857D01*
X147456714Y-74243619D01*
X147504333Y-74196000D01*
X147599571Y-74148380D01*
%TO.C,D9*%
X173931380Y-66797095D02*
X172931380Y-66797095D01*
X172931380Y-66559000D01*
X172979000Y-66416142D01*
X173074238Y-66320904D01*
X173169476Y-66273285D01*
X173359952Y-66225666D01*
X173502809Y-66225666D01*
X173693285Y-66273285D01*
X173788523Y-66320904D01*
X173883761Y-66416142D01*
X173931380Y-66559000D01*
X173931380Y-66797095D01*
X173931380Y-65749476D02*
X173931380Y-65559000D01*
X173883761Y-65463761D01*
X173836142Y-65416142D01*
X173693285Y-65320904D01*
X173502809Y-65273285D01*
X173121857Y-65273285D01*
X173026619Y-65320904D01*
X172979000Y-65368523D01*
X172931380Y-65463761D01*
X172931380Y-65654238D01*
X172979000Y-65749476D01*
X173026619Y-65797095D01*
X173121857Y-65844714D01*
X173359952Y-65844714D01*
X173455190Y-65797095D01*
X173502809Y-65749476D01*
X173550428Y-65654238D01*
X173550428Y-65463761D01*
X173502809Y-65368523D01*
X173455190Y-65320904D01*
X173359952Y-65273285D01*
%TO.C,D8*%
X179741380Y-63267095D02*
X178741380Y-63267095D01*
X178741380Y-63029000D01*
X178789000Y-62886142D01*
X178884238Y-62790904D01*
X178979476Y-62743285D01*
X179169952Y-62695666D01*
X179312809Y-62695666D01*
X179503285Y-62743285D01*
X179598523Y-62790904D01*
X179693761Y-62886142D01*
X179741380Y-63029000D01*
X179741380Y-63267095D01*
X179169952Y-62124238D02*
X179122333Y-62219476D01*
X179074714Y-62267095D01*
X178979476Y-62314714D01*
X178931857Y-62314714D01*
X178836619Y-62267095D01*
X178789000Y-62219476D01*
X178741380Y-62124238D01*
X178741380Y-61933761D01*
X178789000Y-61838523D01*
X178836619Y-61790904D01*
X178931857Y-61743285D01*
X178979476Y-61743285D01*
X179074714Y-61790904D01*
X179122333Y-61838523D01*
X179169952Y-61933761D01*
X179169952Y-62124238D01*
X179217571Y-62219476D01*
X179265190Y-62267095D01*
X179360428Y-62314714D01*
X179550904Y-62314714D01*
X179646142Y-62267095D01*
X179693761Y-62219476D01*
X179741380Y-62124238D01*
X179741380Y-61933761D01*
X179693761Y-61838523D01*
X179646142Y-61790904D01*
X179550904Y-61743285D01*
X179360428Y-61743285D01*
X179265190Y-61790904D01*
X179217571Y-61838523D01*
X179169952Y-61933761D01*
%TO.C,D7*%
X167748904Y-52650380D02*
X167748904Y-51650380D01*
X167987000Y-51650380D01*
X168129857Y-51698000D01*
X168225095Y-51793238D01*
X168272714Y-51888476D01*
X168320333Y-52078952D01*
X168320333Y-52221809D01*
X168272714Y-52412285D01*
X168225095Y-52507523D01*
X168129857Y-52602761D01*
X167987000Y-52650380D01*
X167748904Y-52650380D01*
X168653666Y-51650380D02*
X169320333Y-51650380D01*
X168891761Y-52650380D01*
%TO.C,D5*%
X173781904Y-56267380D02*
X173781904Y-55267380D01*
X174020000Y-55267380D01*
X174162857Y-55315000D01*
X174258095Y-55410238D01*
X174305714Y-55505476D01*
X174353333Y-55695952D01*
X174353333Y-55838809D01*
X174305714Y-56029285D01*
X174258095Y-56124523D01*
X174162857Y-56219761D01*
X174020000Y-56267380D01*
X173781904Y-56267380D01*
X175258095Y-55267380D02*
X174781904Y-55267380D01*
X174734285Y-55743571D01*
X174781904Y-55695952D01*
X174877142Y-55648333D01*
X175115238Y-55648333D01*
X175210476Y-55695952D01*
X175258095Y-55743571D01*
X175305714Y-55838809D01*
X175305714Y-56076904D01*
X175258095Y-56172142D01*
X175210476Y-56219761D01*
X175115238Y-56267380D01*
X174877142Y-56267380D01*
X174781904Y-56219761D01*
X174734285Y-56172142D01*
%TO.C,DS1*%
X106823380Y-54189285D02*
X105823380Y-54189285D01*
X105823380Y-53951190D01*
X105871000Y-53808333D01*
X105966238Y-53713095D01*
X106061476Y-53665476D01*
X106251952Y-53617857D01*
X106394809Y-53617857D01*
X106585285Y-53665476D01*
X106680523Y-53713095D01*
X106775761Y-53808333D01*
X106823380Y-53951190D01*
X106823380Y-54189285D01*
X106775761Y-53236904D02*
X106823380Y-53094047D01*
X106823380Y-52855952D01*
X106775761Y-52760714D01*
X106728142Y-52713095D01*
X106632904Y-52665476D01*
X106537666Y-52665476D01*
X106442428Y-52713095D01*
X106394809Y-52760714D01*
X106347190Y-52855952D01*
X106299571Y-53046428D01*
X106251952Y-53141666D01*
X106204333Y-53189285D01*
X106109095Y-53236904D01*
X106013857Y-53236904D01*
X105918619Y-53189285D01*
X105871000Y-53141666D01*
X105823380Y-53046428D01*
X105823380Y-52808333D01*
X105871000Y-52665476D01*
X106823380Y-51713095D02*
X106823380Y-52284523D01*
X106823380Y-51998809D02*
X105823380Y-51998809D01*
X105966238Y-52094047D01*
X106061476Y-52189285D01*
X106109095Y-52284523D01*
%TO.C,Y1*%
X115992190Y-74885190D02*
X116468380Y-74885190D01*
X115468380Y-75218523D02*
X115992190Y-74885190D01*
X115468380Y-74551857D01*
X116468380Y-73694714D02*
X116468380Y-74266142D01*
X116468380Y-73980428D02*
X115468380Y-73980428D01*
X115611238Y-74075666D01*
X115706476Y-74170904D01*
X115754095Y-74266142D01*
%TO.C,U13*%
X179701380Y-75043095D02*
X180510904Y-75043095D01*
X180606142Y-74995476D01*
X180653761Y-74947857D01*
X180701380Y-74852619D01*
X180701380Y-74662142D01*
X180653761Y-74566904D01*
X180606142Y-74519285D01*
X180510904Y-74471666D01*
X179701380Y-74471666D01*
X180701380Y-73471666D02*
X180701380Y-74043095D01*
X180701380Y-73757380D02*
X179701380Y-73757380D01*
X179844238Y-73852619D01*
X179939476Y-73947857D01*
X179987095Y-74043095D01*
X179701380Y-73138333D02*
X179701380Y-72519285D01*
X180082333Y-72852619D01*
X180082333Y-72709761D01*
X180129952Y-72614523D01*
X180177571Y-72566904D01*
X180272809Y-72519285D01*
X180510904Y-72519285D01*
X180606142Y-72566904D01*
X180653761Y-72614523D01*
X180701380Y-72709761D01*
X180701380Y-72995476D01*
X180653761Y-73090714D01*
X180606142Y-73138333D01*
%TO.C,U12*%
X129756380Y-74762095D02*
X130565904Y-74762095D01*
X130661142Y-74714476D01*
X130708761Y-74666857D01*
X130756380Y-74571619D01*
X130756380Y-74381142D01*
X130708761Y-74285904D01*
X130661142Y-74238285D01*
X130565904Y-74190666D01*
X129756380Y-74190666D01*
X130756380Y-73190666D02*
X130756380Y-73762095D01*
X130756380Y-73476380D02*
X129756380Y-73476380D01*
X129899238Y-73571619D01*
X129994476Y-73666857D01*
X130042095Y-73762095D01*
X129851619Y-72809714D02*
X129804000Y-72762095D01*
X129756380Y-72666857D01*
X129756380Y-72428761D01*
X129804000Y-72333523D01*
X129851619Y-72285904D01*
X129946857Y-72238285D01*
X130042095Y-72238285D01*
X130184952Y-72285904D01*
X130756380Y-72857333D01*
X130756380Y-72238285D01*
%TO.C,U11*%
X135826904Y-54764380D02*
X135826904Y-55573904D01*
X135874523Y-55669142D01*
X135922142Y-55716761D01*
X136017380Y-55764380D01*
X136207857Y-55764380D01*
X136303095Y-55716761D01*
X136350714Y-55669142D01*
X136398333Y-55573904D01*
X136398333Y-54764380D01*
X137398333Y-55764380D02*
X136826904Y-55764380D01*
X137112619Y-55764380D02*
X137112619Y-54764380D01*
X137017380Y-54907238D01*
X136922142Y-55002476D01*
X136826904Y-55050095D01*
X138350714Y-55764380D02*
X137779285Y-55764380D01*
X138065000Y-55764380D02*
X138065000Y-54764380D01*
X137969761Y-54907238D01*
X137874523Y-55002476D01*
X137779285Y-55050095D01*
%TO.C,U10*%
X159891904Y-116904380D02*
X159891904Y-117713904D01*
X159939523Y-117809142D01*
X159987142Y-117856761D01*
X160082380Y-117904380D01*
X160272857Y-117904380D01*
X160368095Y-117856761D01*
X160415714Y-117809142D01*
X160463333Y-117713904D01*
X160463333Y-116904380D01*
X161463333Y-117904380D02*
X160891904Y-117904380D01*
X161177619Y-117904380D02*
X161177619Y-116904380D01*
X161082380Y-117047238D01*
X160987142Y-117142476D01*
X160891904Y-117190095D01*
X162082380Y-116904380D02*
X162177619Y-116904380D01*
X162272857Y-116952000D01*
X162320476Y-116999619D01*
X162368095Y-117094857D01*
X162415714Y-117285333D01*
X162415714Y-117523428D01*
X162368095Y-117713904D01*
X162320476Y-117809142D01*
X162272857Y-117856761D01*
X162177619Y-117904380D01*
X162082380Y-117904380D01*
X161987142Y-117856761D01*
X161939523Y-117809142D01*
X161891904Y-117713904D01*
X161844285Y-117523428D01*
X161844285Y-117285333D01*
X161891904Y-117094857D01*
X161939523Y-116999619D01*
X161987142Y-116952000D01*
X162082380Y-116904380D01*
%TO.C,U9*%
X154297095Y-93196380D02*
X154297095Y-94005904D01*
X154344714Y-94101142D01*
X154392333Y-94148761D01*
X154487571Y-94196380D01*
X154678047Y-94196380D01*
X154773285Y-94148761D01*
X154820904Y-94101142D01*
X154868523Y-94005904D01*
X154868523Y-93196380D01*
X155392333Y-94196380D02*
X155582809Y-94196380D01*
X155678047Y-94148761D01*
X155725666Y-94101142D01*
X155820904Y-93958285D01*
X155868523Y-93767809D01*
X155868523Y-93386857D01*
X155820904Y-93291619D01*
X155773285Y-93244000D01*
X155678047Y-93196380D01*
X155487571Y-93196380D01*
X155392333Y-93244000D01*
X155344714Y-93291619D01*
X155297095Y-93386857D01*
X155297095Y-93624952D01*
X155344714Y-93720190D01*
X155392333Y-93767809D01*
X155487571Y-93815428D01*
X155678047Y-93815428D01*
X155773285Y-93767809D01*
X155820904Y-93720190D01*
X155868523Y-93624952D01*
%TO.C,U8*%
X140185095Y-75765380D02*
X140185095Y-76574904D01*
X140232714Y-76670142D01*
X140280333Y-76717761D01*
X140375571Y-76765380D01*
X140566047Y-76765380D01*
X140661285Y-76717761D01*
X140708904Y-76670142D01*
X140756523Y-76574904D01*
X140756523Y-75765380D01*
X141375571Y-76193952D02*
X141280333Y-76146333D01*
X141232714Y-76098714D01*
X141185095Y-76003476D01*
X141185095Y-75955857D01*
X141232714Y-75860619D01*
X141280333Y-75813000D01*
X141375571Y-75765380D01*
X141566047Y-75765380D01*
X141661285Y-75813000D01*
X141708904Y-75860619D01*
X141756523Y-75955857D01*
X141756523Y-76003476D01*
X141708904Y-76098714D01*
X141661285Y-76146333D01*
X141566047Y-76193952D01*
X141375571Y-76193952D01*
X141280333Y-76241571D01*
X141232714Y-76289190D01*
X141185095Y-76384428D01*
X141185095Y-76574904D01*
X141232714Y-76670142D01*
X141280333Y-76717761D01*
X141375571Y-76765380D01*
X141566047Y-76765380D01*
X141661285Y-76717761D01*
X141708904Y-76670142D01*
X141756523Y-76574904D01*
X141756523Y-76384428D01*
X141708904Y-76289190D01*
X141661285Y-76241571D01*
X141566047Y-76193952D01*
%TO.C,U7*%
X141572380Y-99153904D02*
X142381904Y-99153904D01*
X142477142Y-99106285D01*
X142524761Y-99058666D01*
X142572380Y-98963428D01*
X142572380Y-98772952D01*
X142524761Y-98677714D01*
X142477142Y-98630095D01*
X142381904Y-98582476D01*
X141572380Y-98582476D01*
X141572380Y-98201523D02*
X141572380Y-97534857D01*
X142572380Y-97963428D01*
%TO.C,U6*%
X157005095Y-64711380D02*
X157005095Y-65520904D01*
X157052714Y-65616142D01*
X157100333Y-65663761D01*
X157195571Y-65711380D01*
X157386047Y-65711380D01*
X157481285Y-65663761D01*
X157528904Y-65616142D01*
X157576523Y-65520904D01*
X157576523Y-64711380D01*
X158481285Y-64711380D02*
X158290809Y-64711380D01*
X158195571Y-64759000D01*
X158147952Y-64806619D01*
X158052714Y-64949476D01*
X158005095Y-65139952D01*
X158005095Y-65520904D01*
X158052714Y-65616142D01*
X158100333Y-65663761D01*
X158195571Y-65711380D01*
X158386047Y-65711380D01*
X158481285Y-65663761D01*
X158528904Y-65616142D01*
X158576523Y-65520904D01*
X158576523Y-65282809D01*
X158528904Y-65187571D01*
X158481285Y-65139952D01*
X158386047Y-65092333D01*
X158195571Y-65092333D01*
X158100333Y-65139952D01*
X158052714Y-65187571D01*
X158005095Y-65282809D01*
%TO.C,U5*%
X159700380Y-81830904D02*
X160509904Y-81830904D01*
X160605142Y-81783285D01*
X160652761Y-81735666D01*
X160700380Y-81640428D01*
X160700380Y-81449952D01*
X160652761Y-81354714D01*
X160605142Y-81307095D01*
X160509904Y-81259476D01*
X159700380Y-81259476D01*
X159700380Y-80307095D02*
X159700380Y-80783285D01*
X160176571Y-80830904D01*
X160128952Y-80783285D01*
X160081333Y-80688047D01*
X160081333Y-80449952D01*
X160128952Y-80354714D01*
X160176571Y-80307095D01*
X160271809Y-80259476D01*
X160509904Y-80259476D01*
X160605142Y-80307095D01*
X160652761Y-80354714D01*
X160700380Y-80449952D01*
X160700380Y-80688047D01*
X160652761Y-80783285D01*
X160605142Y-80830904D01*
%TO.C,U4*%
X134503095Y-108657380D02*
X134503095Y-109466904D01*
X134550714Y-109562142D01*
X134598333Y-109609761D01*
X134693571Y-109657380D01*
X134884047Y-109657380D01*
X134979285Y-109609761D01*
X135026904Y-109562142D01*
X135074523Y-109466904D01*
X135074523Y-108657380D01*
X135979285Y-108990714D02*
X135979285Y-109657380D01*
X135741190Y-108609761D02*
X135503095Y-109324047D01*
X136122142Y-109324047D01*
%TO.C,U3*%
X114759095Y-101299380D02*
X114759095Y-102108904D01*
X114806714Y-102204142D01*
X114854333Y-102251761D01*
X114949571Y-102299380D01*
X115140047Y-102299380D01*
X115235285Y-102251761D01*
X115282904Y-102204142D01*
X115330523Y-102108904D01*
X115330523Y-101299380D01*
X115711476Y-101299380D02*
X116330523Y-101299380D01*
X115997190Y-101680333D01*
X116140047Y-101680333D01*
X116235285Y-101727952D01*
X116282904Y-101775571D01*
X116330523Y-101870809D01*
X116330523Y-102108904D01*
X116282904Y-102204142D01*
X116235285Y-102251761D01*
X116140047Y-102299380D01*
X115854333Y-102299380D01*
X115759095Y-102251761D01*
X115711476Y-102204142D01*
%TO.C,U2*%
X118088380Y-117581904D02*
X118897904Y-117581904D01*
X118993142Y-117534285D01*
X119040761Y-117486666D01*
X119088380Y-117391428D01*
X119088380Y-117200952D01*
X119040761Y-117105714D01*
X118993142Y-117058095D01*
X118897904Y-117010476D01*
X118088380Y-117010476D01*
X118183619Y-116581904D02*
X118136000Y-116534285D01*
X118088380Y-116439047D01*
X118088380Y-116200952D01*
X118136000Y-116105714D01*
X118183619Y-116058095D01*
X118278857Y-116010476D01*
X118374095Y-116010476D01*
X118516952Y-116058095D01*
X119088380Y-116629523D01*
X119088380Y-116010476D01*
%TO.C,U1*%
X112526095Y-96609380D02*
X112526095Y-97418904D01*
X112573714Y-97514142D01*
X112621333Y-97561761D01*
X112716571Y-97609380D01*
X112907047Y-97609380D01*
X113002285Y-97561761D01*
X113049904Y-97514142D01*
X113097523Y-97418904D01*
X113097523Y-96609380D01*
X114097523Y-97609380D02*
X113526095Y-97609380D01*
X113811809Y-97609380D02*
X113811809Y-96609380D01*
X113716571Y-96752238D01*
X113621333Y-96847476D01*
X113526095Y-96895095D01*
%TO.C,SW3*%
X165118666Y-59593761D02*
X165261523Y-59641380D01*
X165499619Y-59641380D01*
X165594857Y-59593761D01*
X165642476Y-59546142D01*
X165690095Y-59450904D01*
X165690095Y-59355666D01*
X165642476Y-59260428D01*
X165594857Y-59212809D01*
X165499619Y-59165190D01*
X165309142Y-59117571D01*
X165213904Y-59069952D01*
X165166285Y-59022333D01*
X165118666Y-58927095D01*
X165118666Y-58831857D01*
X165166285Y-58736619D01*
X165213904Y-58689000D01*
X165309142Y-58641380D01*
X165547238Y-58641380D01*
X165690095Y-58689000D01*
X166023428Y-58641380D02*
X166261523Y-59641380D01*
X166452000Y-58927095D01*
X166642476Y-59641380D01*
X166880571Y-58641380D01*
X167166285Y-58641380D02*
X167785333Y-58641380D01*
X167452000Y-59022333D01*
X167594857Y-59022333D01*
X167690095Y-59069952D01*
X167737714Y-59117571D01*
X167785333Y-59212809D01*
X167785333Y-59450904D01*
X167737714Y-59546142D01*
X167690095Y-59593761D01*
X167594857Y-59641380D01*
X167309142Y-59641380D01*
X167213904Y-59593761D01*
X167166285Y-59546142D01*
%TO.C,SW2*%
X176905761Y-99845333D02*
X176953380Y-99702476D01*
X176953380Y-99464380D01*
X176905761Y-99369142D01*
X176858142Y-99321523D01*
X176762904Y-99273904D01*
X176667666Y-99273904D01*
X176572428Y-99321523D01*
X176524809Y-99369142D01*
X176477190Y-99464380D01*
X176429571Y-99654857D01*
X176381952Y-99750095D01*
X176334333Y-99797714D01*
X176239095Y-99845333D01*
X176143857Y-99845333D01*
X176048619Y-99797714D01*
X176001000Y-99750095D01*
X175953380Y-99654857D01*
X175953380Y-99416761D01*
X176001000Y-99273904D01*
X175953380Y-98940571D02*
X176953380Y-98702476D01*
X176239095Y-98512000D01*
X176953380Y-98321523D01*
X175953380Y-98083428D01*
X176048619Y-97750095D02*
X176001000Y-97702476D01*
X175953380Y-97607238D01*
X175953380Y-97369142D01*
X176001000Y-97273904D01*
X176048619Y-97226285D01*
X176143857Y-97178666D01*
X176239095Y-97178666D01*
X176381952Y-97226285D01*
X176953380Y-97797714D01*
X176953380Y-97178666D01*
%TO.C,SW1*%
X177013761Y-113278333D02*
X177061380Y-113135476D01*
X177061380Y-112897380D01*
X177013761Y-112802142D01*
X176966142Y-112754523D01*
X176870904Y-112706904D01*
X176775666Y-112706904D01*
X176680428Y-112754523D01*
X176632809Y-112802142D01*
X176585190Y-112897380D01*
X176537571Y-113087857D01*
X176489952Y-113183095D01*
X176442333Y-113230714D01*
X176347095Y-113278333D01*
X176251857Y-113278333D01*
X176156619Y-113230714D01*
X176109000Y-113183095D01*
X176061380Y-113087857D01*
X176061380Y-112849761D01*
X176109000Y-112706904D01*
X176061380Y-112373571D02*
X177061380Y-112135476D01*
X176347095Y-111945000D01*
X177061380Y-111754523D01*
X176061380Y-111516428D01*
X177061380Y-110611666D02*
X177061380Y-111183095D01*
X177061380Y-110897380D02*
X176061380Y-110897380D01*
X176204238Y-110992619D01*
X176299476Y-111087857D01*
X176347095Y-111183095D01*
%TO.C,R57*%
X99409380Y-111406857D02*
X98933190Y-111740190D01*
X99409380Y-111978285D02*
X98409380Y-111978285D01*
X98409380Y-111597333D01*
X98457000Y-111502095D01*
X98504619Y-111454476D01*
X98599857Y-111406857D01*
X98742714Y-111406857D01*
X98837952Y-111454476D01*
X98885571Y-111502095D01*
X98933190Y-111597333D01*
X98933190Y-111978285D01*
X98409380Y-110502095D02*
X98409380Y-110978285D01*
X98885571Y-111025904D01*
X98837952Y-110978285D01*
X98790333Y-110883047D01*
X98790333Y-110644952D01*
X98837952Y-110549714D01*
X98885571Y-110502095D01*
X98980809Y-110454476D01*
X99218904Y-110454476D01*
X99314142Y-110502095D01*
X99361761Y-110549714D01*
X99409380Y-110644952D01*
X99409380Y-110883047D01*
X99361761Y-110978285D01*
X99314142Y-111025904D01*
X98409380Y-110121142D02*
X98409380Y-109454476D01*
X99409380Y-109883047D01*
%TO.C,R56*%
X98140142Y-100335380D02*
X97806809Y-99859190D01*
X97568714Y-100335380D02*
X97568714Y-99335380D01*
X97949666Y-99335380D01*
X98044904Y-99383000D01*
X98092523Y-99430619D01*
X98140142Y-99525857D01*
X98140142Y-99668714D01*
X98092523Y-99763952D01*
X98044904Y-99811571D01*
X97949666Y-99859190D01*
X97568714Y-99859190D01*
X99044904Y-99335380D02*
X98568714Y-99335380D01*
X98521095Y-99811571D01*
X98568714Y-99763952D01*
X98663952Y-99716333D01*
X98902047Y-99716333D01*
X98997285Y-99763952D01*
X99044904Y-99811571D01*
X99092523Y-99906809D01*
X99092523Y-100144904D01*
X99044904Y-100240142D01*
X98997285Y-100287761D01*
X98902047Y-100335380D01*
X98663952Y-100335380D01*
X98568714Y-100287761D01*
X98521095Y-100240142D01*
X99949666Y-99335380D02*
X99759190Y-99335380D01*
X99663952Y-99383000D01*
X99616333Y-99430619D01*
X99521095Y-99573476D01*
X99473476Y-99763952D01*
X99473476Y-100144904D01*
X99521095Y-100240142D01*
X99568714Y-100287761D01*
X99663952Y-100335380D01*
X99854428Y-100335380D01*
X99949666Y-100287761D01*
X99997285Y-100240142D01*
X100044904Y-100144904D01*
X100044904Y-99906809D01*
X99997285Y-99811571D01*
X99949666Y-99763952D01*
X99854428Y-99716333D01*
X99663952Y-99716333D01*
X99568714Y-99763952D01*
X99521095Y-99811571D01*
X99473476Y-99906809D01*
%TO.C,R55*%
X166679142Y-107138380D02*
X166345809Y-106662190D01*
X166107714Y-107138380D02*
X166107714Y-106138380D01*
X166488666Y-106138380D01*
X166583904Y-106186000D01*
X166631523Y-106233619D01*
X166679142Y-106328857D01*
X166679142Y-106471714D01*
X166631523Y-106566952D01*
X166583904Y-106614571D01*
X166488666Y-106662190D01*
X166107714Y-106662190D01*
X167583904Y-106138380D02*
X167107714Y-106138380D01*
X167060095Y-106614571D01*
X167107714Y-106566952D01*
X167202952Y-106519333D01*
X167441047Y-106519333D01*
X167536285Y-106566952D01*
X167583904Y-106614571D01*
X167631523Y-106709809D01*
X167631523Y-106947904D01*
X167583904Y-107043142D01*
X167536285Y-107090761D01*
X167441047Y-107138380D01*
X167202952Y-107138380D01*
X167107714Y-107090761D01*
X167060095Y-107043142D01*
X168536285Y-106138380D02*
X168060095Y-106138380D01*
X168012476Y-106614571D01*
X168060095Y-106566952D01*
X168155333Y-106519333D01*
X168393428Y-106519333D01*
X168488666Y-106566952D01*
X168536285Y-106614571D01*
X168583904Y-106709809D01*
X168583904Y-106947904D01*
X168536285Y-107043142D01*
X168488666Y-107090761D01*
X168393428Y-107138380D01*
X168155333Y-107138380D01*
X168060095Y-107090761D01*
X168012476Y-107043142D01*
%TO.C,R54*%
X166456380Y-112034857D02*
X165980190Y-112368190D01*
X166456380Y-112606285D02*
X165456380Y-112606285D01*
X165456380Y-112225333D01*
X165504000Y-112130095D01*
X165551619Y-112082476D01*
X165646857Y-112034857D01*
X165789714Y-112034857D01*
X165884952Y-112082476D01*
X165932571Y-112130095D01*
X165980190Y-112225333D01*
X165980190Y-112606285D01*
X165456380Y-111130095D02*
X165456380Y-111606285D01*
X165932571Y-111653904D01*
X165884952Y-111606285D01*
X165837333Y-111511047D01*
X165837333Y-111272952D01*
X165884952Y-111177714D01*
X165932571Y-111130095D01*
X166027809Y-111082476D01*
X166265904Y-111082476D01*
X166361142Y-111130095D01*
X166408761Y-111177714D01*
X166456380Y-111272952D01*
X166456380Y-111511047D01*
X166408761Y-111606285D01*
X166361142Y-111653904D01*
X165789714Y-110225333D02*
X166456380Y-110225333D01*
X165408761Y-110463428D02*
X166123047Y-110701523D01*
X166123047Y-110082476D01*
%TO.C,R53*%
X159015142Y-105329380D02*
X158681809Y-104853190D01*
X158443714Y-105329380D02*
X158443714Y-104329380D01*
X158824666Y-104329380D01*
X158919904Y-104377000D01*
X158967523Y-104424619D01*
X159015142Y-104519857D01*
X159015142Y-104662714D01*
X158967523Y-104757952D01*
X158919904Y-104805571D01*
X158824666Y-104853190D01*
X158443714Y-104853190D01*
X159919904Y-104329380D02*
X159443714Y-104329380D01*
X159396095Y-104805571D01*
X159443714Y-104757952D01*
X159538952Y-104710333D01*
X159777047Y-104710333D01*
X159872285Y-104757952D01*
X159919904Y-104805571D01*
X159967523Y-104900809D01*
X159967523Y-105138904D01*
X159919904Y-105234142D01*
X159872285Y-105281761D01*
X159777047Y-105329380D01*
X159538952Y-105329380D01*
X159443714Y-105281761D01*
X159396095Y-105234142D01*
X160300857Y-104329380D02*
X160919904Y-104329380D01*
X160586571Y-104710333D01*
X160729428Y-104710333D01*
X160824666Y-104757952D01*
X160872285Y-104805571D01*
X160919904Y-104900809D01*
X160919904Y-105138904D01*
X160872285Y-105234142D01*
X160824666Y-105281761D01*
X160729428Y-105329380D01*
X160443714Y-105329380D01*
X160348476Y-105281761D01*
X160300857Y-105234142D01*
%TO.C,R52*%
X145958142Y-55042380D02*
X145624809Y-54566190D01*
X145386714Y-55042380D02*
X145386714Y-54042380D01*
X145767666Y-54042380D01*
X145862904Y-54090000D01*
X145910523Y-54137619D01*
X145958142Y-54232857D01*
X145958142Y-54375714D01*
X145910523Y-54470952D01*
X145862904Y-54518571D01*
X145767666Y-54566190D01*
X145386714Y-54566190D01*
X146862904Y-54042380D02*
X146386714Y-54042380D01*
X146339095Y-54518571D01*
X146386714Y-54470952D01*
X146481952Y-54423333D01*
X146720047Y-54423333D01*
X146815285Y-54470952D01*
X146862904Y-54518571D01*
X146910523Y-54613809D01*
X146910523Y-54851904D01*
X146862904Y-54947142D01*
X146815285Y-54994761D01*
X146720047Y-55042380D01*
X146481952Y-55042380D01*
X146386714Y-54994761D01*
X146339095Y-54947142D01*
X147291476Y-54137619D02*
X147339095Y-54090000D01*
X147434333Y-54042380D01*
X147672428Y-54042380D01*
X147767666Y-54090000D01*
X147815285Y-54137619D01*
X147862904Y-54232857D01*
X147862904Y-54328095D01*
X147815285Y-54470952D01*
X147243857Y-55042380D01*
X147862904Y-55042380D01*
%TO.C,R51*%
X106893142Y-56282380D02*
X106559809Y-55806190D01*
X106321714Y-56282380D02*
X106321714Y-55282380D01*
X106702666Y-55282380D01*
X106797904Y-55330000D01*
X106845523Y-55377619D01*
X106893142Y-55472857D01*
X106893142Y-55615714D01*
X106845523Y-55710952D01*
X106797904Y-55758571D01*
X106702666Y-55806190D01*
X106321714Y-55806190D01*
X107797904Y-55282380D02*
X107321714Y-55282380D01*
X107274095Y-55758571D01*
X107321714Y-55710952D01*
X107416952Y-55663333D01*
X107655047Y-55663333D01*
X107750285Y-55710952D01*
X107797904Y-55758571D01*
X107845523Y-55853809D01*
X107845523Y-56091904D01*
X107797904Y-56187142D01*
X107750285Y-56234761D01*
X107655047Y-56282380D01*
X107416952Y-56282380D01*
X107321714Y-56234761D01*
X107274095Y-56187142D01*
X108797904Y-56282380D02*
X108226476Y-56282380D01*
X108512190Y-56282380D02*
X108512190Y-55282380D01*
X108416952Y-55425238D01*
X108321714Y-55520476D01*
X108226476Y-55568095D01*
%TO.C,R50*%
X171146380Y-116426857D02*
X170670190Y-116760190D01*
X171146380Y-116998285D02*
X170146380Y-116998285D01*
X170146380Y-116617333D01*
X170194000Y-116522095D01*
X170241619Y-116474476D01*
X170336857Y-116426857D01*
X170479714Y-116426857D01*
X170574952Y-116474476D01*
X170622571Y-116522095D01*
X170670190Y-116617333D01*
X170670190Y-116998285D01*
X170146380Y-115522095D02*
X170146380Y-115998285D01*
X170622571Y-116045904D01*
X170574952Y-115998285D01*
X170527333Y-115903047D01*
X170527333Y-115664952D01*
X170574952Y-115569714D01*
X170622571Y-115522095D01*
X170717809Y-115474476D01*
X170955904Y-115474476D01*
X171051142Y-115522095D01*
X171098761Y-115569714D01*
X171146380Y-115664952D01*
X171146380Y-115903047D01*
X171098761Y-115998285D01*
X171051142Y-116045904D01*
X170146380Y-114855428D02*
X170146380Y-114760190D01*
X170194000Y-114664952D01*
X170241619Y-114617333D01*
X170336857Y-114569714D01*
X170527333Y-114522095D01*
X170765428Y-114522095D01*
X170955904Y-114569714D01*
X171051142Y-114617333D01*
X171098761Y-114664952D01*
X171146380Y-114760190D01*
X171146380Y-114855428D01*
X171098761Y-114950666D01*
X171051142Y-114998285D01*
X170955904Y-115045904D01*
X170765428Y-115093523D01*
X170527333Y-115093523D01*
X170336857Y-115045904D01*
X170241619Y-114998285D01*
X170194000Y-114950666D01*
X170146380Y-114855428D01*
%TO.C,R49*%
X174723380Y-96245857D02*
X174247190Y-96579190D01*
X174723380Y-96817285D02*
X173723380Y-96817285D01*
X173723380Y-96436333D01*
X173771000Y-96341095D01*
X173818619Y-96293476D01*
X173913857Y-96245857D01*
X174056714Y-96245857D01*
X174151952Y-96293476D01*
X174199571Y-96341095D01*
X174247190Y-96436333D01*
X174247190Y-96817285D01*
X174056714Y-95388714D02*
X174723380Y-95388714D01*
X173675761Y-95626809D02*
X174390047Y-95864904D01*
X174390047Y-95245857D01*
X174723380Y-94817285D02*
X174723380Y-94626809D01*
X174675761Y-94531571D01*
X174628142Y-94483952D01*
X174485285Y-94388714D01*
X174294809Y-94341095D01*
X173913857Y-94341095D01*
X173818619Y-94388714D01*
X173771000Y-94436333D01*
X173723380Y-94531571D01*
X173723380Y-94722047D01*
X173771000Y-94817285D01*
X173818619Y-94864904D01*
X173913857Y-94912523D01*
X174151952Y-94912523D01*
X174247190Y-94864904D01*
X174294809Y-94817285D01*
X174342428Y-94722047D01*
X174342428Y-94531571D01*
X174294809Y-94436333D01*
X174247190Y-94388714D01*
X174151952Y-94341095D01*
%TO.C,R48*%
X119109142Y-83873380D02*
X118775809Y-83397190D01*
X118537714Y-83873380D02*
X118537714Y-82873380D01*
X118918666Y-82873380D01*
X119013904Y-82921000D01*
X119061523Y-82968619D01*
X119109142Y-83063857D01*
X119109142Y-83206714D01*
X119061523Y-83301952D01*
X119013904Y-83349571D01*
X118918666Y-83397190D01*
X118537714Y-83397190D01*
X119966285Y-83206714D02*
X119966285Y-83873380D01*
X119728190Y-82825761D02*
X119490095Y-83540047D01*
X120109142Y-83540047D01*
X120632952Y-83301952D02*
X120537714Y-83254333D01*
X120490095Y-83206714D01*
X120442476Y-83111476D01*
X120442476Y-83063857D01*
X120490095Y-82968619D01*
X120537714Y-82921000D01*
X120632952Y-82873380D01*
X120823428Y-82873380D01*
X120918666Y-82921000D01*
X120966285Y-82968619D01*
X121013904Y-83063857D01*
X121013904Y-83111476D01*
X120966285Y-83206714D01*
X120918666Y-83254333D01*
X120823428Y-83301952D01*
X120632952Y-83301952D01*
X120537714Y-83349571D01*
X120490095Y-83397190D01*
X120442476Y-83492428D01*
X120442476Y-83682904D01*
X120490095Y-83778142D01*
X120537714Y-83825761D01*
X120632952Y-83873380D01*
X120823428Y-83873380D01*
X120918666Y-83825761D01*
X120966285Y-83778142D01*
X121013904Y-83682904D01*
X121013904Y-83492428D01*
X120966285Y-83397190D01*
X120918666Y-83349571D01*
X120823428Y-83301952D01*
%TO.C,R47*%
X145819142Y-57082380D02*
X145485809Y-56606190D01*
X145247714Y-57082380D02*
X145247714Y-56082380D01*
X145628666Y-56082380D01*
X145723904Y-56130000D01*
X145771523Y-56177619D01*
X145819142Y-56272857D01*
X145819142Y-56415714D01*
X145771523Y-56510952D01*
X145723904Y-56558571D01*
X145628666Y-56606190D01*
X145247714Y-56606190D01*
X146676285Y-56415714D02*
X146676285Y-57082380D01*
X146438190Y-56034761D02*
X146200095Y-56749047D01*
X146819142Y-56749047D01*
X147104857Y-56082380D02*
X147771523Y-56082380D01*
X147342952Y-57082380D01*
%TO.C,R46*%
X142945142Y-65054380D02*
X142611809Y-64578190D01*
X142373714Y-65054380D02*
X142373714Y-64054380D01*
X142754666Y-64054380D01*
X142849904Y-64102000D01*
X142897523Y-64149619D01*
X142945142Y-64244857D01*
X142945142Y-64387714D01*
X142897523Y-64482952D01*
X142849904Y-64530571D01*
X142754666Y-64578190D01*
X142373714Y-64578190D01*
X143802285Y-64387714D02*
X143802285Y-65054380D01*
X143564190Y-64006761D02*
X143326095Y-64721047D01*
X143945142Y-64721047D01*
X144754666Y-64054380D02*
X144564190Y-64054380D01*
X144468952Y-64102000D01*
X144421333Y-64149619D01*
X144326095Y-64292476D01*
X144278476Y-64482952D01*
X144278476Y-64863904D01*
X144326095Y-64959142D01*
X144373714Y-65006761D01*
X144468952Y-65054380D01*
X144659428Y-65054380D01*
X144754666Y-65006761D01*
X144802285Y-64959142D01*
X144849904Y-64863904D01*
X144849904Y-64625809D01*
X144802285Y-64530571D01*
X144754666Y-64482952D01*
X144659428Y-64435333D01*
X144468952Y-64435333D01*
X144373714Y-64482952D01*
X144326095Y-64530571D01*
X144278476Y-64625809D01*
%TO.C,R45*%
X143434142Y-59621380D02*
X143100809Y-59145190D01*
X142862714Y-59621380D02*
X142862714Y-58621380D01*
X143243666Y-58621380D01*
X143338904Y-58669000D01*
X143386523Y-58716619D01*
X143434142Y-58811857D01*
X143434142Y-58954714D01*
X143386523Y-59049952D01*
X143338904Y-59097571D01*
X143243666Y-59145190D01*
X142862714Y-59145190D01*
X144291285Y-58954714D02*
X144291285Y-59621380D01*
X144053190Y-58573761D02*
X143815095Y-59288047D01*
X144434142Y-59288047D01*
X145291285Y-58621380D02*
X144815095Y-58621380D01*
X144767476Y-59097571D01*
X144815095Y-59049952D01*
X144910333Y-59002333D01*
X145148428Y-59002333D01*
X145243666Y-59049952D01*
X145291285Y-59097571D01*
X145338904Y-59192809D01*
X145338904Y-59430904D01*
X145291285Y-59526142D01*
X145243666Y-59573761D01*
X145148428Y-59621380D01*
X144910333Y-59621380D01*
X144815095Y-59573761D01*
X144767476Y-59526142D01*
%TO.C,R44*%
X146179142Y-115441380D02*
X145845809Y-114965190D01*
X145607714Y-115441380D02*
X145607714Y-114441380D01*
X145988666Y-114441380D01*
X146083904Y-114489000D01*
X146131523Y-114536619D01*
X146179142Y-114631857D01*
X146179142Y-114774714D01*
X146131523Y-114869952D01*
X146083904Y-114917571D01*
X145988666Y-114965190D01*
X145607714Y-114965190D01*
X147036285Y-114774714D02*
X147036285Y-115441380D01*
X146798190Y-114393761D02*
X146560095Y-115108047D01*
X147179142Y-115108047D01*
X147988666Y-114774714D02*
X147988666Y-115441380D01*
X147750571Y-114393761D02*
X147512476Y-115108047D01*
X148131523Y-115108047D01*
%TO.C,R43*%
X149962142Y-115439380D02*
X149628809Y-114963190D01*
X149390714Y-115439380D02*
X149390714Y-114439380D01*
X149771666Y-114439380D01*
X149866904Y-114487000D01*
X149914523Y-114534619D01*
X149962142Y-114629857D01*
X149962142Y-114772714D01*
X149914523Y-114867952D01*
X149866904Y-114915571D01*
X149771666Y-114963190D01*
X149390714Y-114963190D01*
X150819285Y-114772714D02*
X150819285Y-115439380D01*
X150581190Y-114391761D02*
X150343095Y-115106047D01*
X150962142Y-115106047D01*
X151247857Y-114439380D02*
X151866904Y-114439380D01*
X151533571Y-114820333D01*
X151676428Y-114820333D01*
X151771666Y-114867952D01*
X151819285Y-114915571D01*
X151866904Y-115010809D01*
X151866904Y-115248904D01*
X151819285Y-115344142D01*
X151771666Y-115391761D01*
X151676428Y-115439380D01*
X151390714Y-115439380D01*
X151295476Y-115391761D01*
X151247857Y-115344142D01*
%TO.C,R42*%
X129356142Y-86669380D02*
X129022809Y-86193190D01*
X128784714Y-86669380D02*
X128784714Y-85669380D01*
X129165666Y-85669380D01*
X129260904Y-85717000D01*
X129308523Y-85764619D01*
X129356142Y-85859857D01*
X129356142Y-86002714D01*
X129308523Y-86097952D01*
X129260904Y-86145571D01*
X129165666Y-86193190D01*
X128784714Y-86193190D01*
X130213285Y-86002714D02*
X130213285Y-86669380D01*
X129975190Y-85621761D02*
X129737095Y-86336047D01*
X130356142Y-86336047D01*
X130689476Y-85764619D02*
X130737095Y-85717000D01*
X130832333Y-85669380D01*
X131070428Y-85669380D01*
X131165666Y-85717000D01*
X131213285Y-85764619D01*
X131260904Y-85859857D01*
X131260904Y-85955095D01*
X131213285Y-86097952D01*
X130641857Y-86669380D01*
X131260904Y-86669380D01*
%TO.C,R41*%
X145669142Y-89295380D02*
X145335809Y-88819190D01*
X145097714Y-89295380D02*
X145097714Y-88295380D01*
X145478666Y-88295380D01*
X145573904Y-88343000D01*
X145621523Y-88390619D01*
X145669142Y-88485857D01*
X145669142Y-88628714D01*
X145621523Y-88723952D01*
X145573904Y-88771571D01*
X145478666Y-88819190D01*
X145097714Y-88819190D01*
X146526285Y-88628714D02*
X146526285Y-89295380D01*
X146288190Y-88247761D02*
X146050095Y-88962047D01*
X146669142Y-88962047D01*
X147573904Y-89295380D02*
X147002476Y-89295380D01*
X147288190Y-89295380D02*
X147288190Y-88295380D01*
X147192952Y-88438238D01*
X147097714Y-88533476D01*
X147002476Y-88581095D01*
%TO.C,R40*%
X142346142Y-88641380D02*
X142012809Y-88165190D01*
X141774714Y-88641380D02*
X141774714Y-87641380D01*
X142155666Y-87641380D01*
X142250904Y-87689000D01*
X142298523Y-87736619D01*
X142346142Y-87831857D01*
X142346142Y-87974714D01*
X142298523Y-88069952D01*
X142250904Y-88117571D01*
X142155666Y-88165190D01*
X141774714Y-88165190D01*
X143203285Y-87974714D02*
X143203285Y-88641380D01*
X142965190Y-87593761D02*
X142727095Y-88308047D01*
X143346142Y-88308047D01*
X143917571Y-87641380D02*
X144012809Y-87641380D01*
X144108047Y-87689000D01*
X144155666Y-87736619D01*
X144203285Y-87831857D01*
X144250904Y-88022333D01*
X144250904Y-88260428D01*
X144203285Y-88450904D01*
X144155666Y-88546142D01*
X144108047Y-88593761D01*
X144012809Y-88641380D01*
X143917571Y-88641380D01*
X143822333Y-88593761D01*
X143774714Y-88546142D01*
X143727095Y-88450904D01*
X143679476Y-88260428D01*
X143679476Y-88022333D01*
X143727095Y-87831857D01*
X143774714Y-87736619D01*
X143822333Y-87689000D01*
X143917571Y-87641380D01*
%TO.C,R39*%
X146936380Y-104904857D02*
X146460190Y-105238190D01*
X146936380Y-105476285D02*
X145936380Y-105476285D01*
X145936380Y-105095333D01*
X145984000Y-105000095D01*
X146031619Y-104952476D01*
X146126857Y-104904857D01*
X146269714Y-104904857D01*
X146364952Y-104952476D01*
X146412571Y-105000095D01*
X146460190Y-105095333D01*
X146460190Y-105476285D01*
X145936380Y-104571523D02*
X145936380Y-103952476D01*
X146317333Y-104285809D01*
X146317333Y-104142952D01*
X146364952Y-104047714D01*
X146412571Y-104000095D01*
X146507809Y-103952476D01*
X146745904Y-103952476D01*
X146841142Y-104000095D01*
X146888761Y-104047714D01*
X146936380Y-104142952D01*
X146936380Y-104428666D01*
X146888761Y-104523904D01*
X146841142Y-104571523D01*
X146936380Y-103476285D02*
X146936380Y-103285809D01*
X146888761Y-103190571D01*
X146841142Y-103142952D01*
X146698285Y-103047714D01*
X146507809Y-103000095D01*
X146126857Y-103000095D01*
X146031619Y-103047714D01*
X145984000Y-103095333D01*
X145936380Y-103190571D01*
X145936380Y-103381047D01*
X145984000Y-103476285D01*
X146031619Y-103523904D01*
X146126857Y-103571523D01*
X146364952Y-103571523D01*
X146460190Y-103523904D01*
X146507809Y-103476285D01*
X146555428Y-103381047D01*
X146555428Y-103190571D01*
X146507809Y-103095333D01*
X146460190Y-103047714D01*
X146364952Y-103000095D01*
%TO.C,R38*%
X146939380Y-101078857D02*
X146463190Y-101412190D01*
X146939380Y-101650285D02*
X145939380Y-101650285D01*
X145939380Y-101269333D01*
X145987000Y-101174095D01*
X146034619Y-101126476D01*
X146129857Y-101078857D01*
X146272714Y-101078857D01*
X146367952Y-101126476D01*
X146415571Y-101174095D01*
X146463190Y-101269333D01*
X146463190Y-101650285D01*
X145939380Y-100745523D02*
X145939380Y-100126476D01*
X146320333Y-100459809D01*
X146320333Y-100316952D01*
X146367952Y-100221714D01*
X146415571Y-100174095D01*
X146510809Y-100126476D01*
X146748904Y-100126476D01*
X146844142Y-100174095D01*
X146891761Y-100221714D01*
X146939380Y-100316952D01*
X146939380Y-100602666D01*
X146891761Y-100697904D01*
X146844142Y-100745523D01*
X146367952Y-99555047D02*
X146320333Y-99650285D01*
X146272714Y-99697904D01*
X146177476Y-99745523D01*
X146129857Y-99745523D01*
X146034619Y-99697904D01*
X145987000Y-99650285D01*
X145939380Y-99555047D01*
X145939380Y-99364571D01*
X145987000Y-99269333D01*
X146034619Y-99221714D01*
X146129857Y-99174095D01*
X146177476Y-99174095D01*
X146272714Y-99221714D01*
X146320333Y-99269333D01*
X146367952Y-99364571D01*
X146367952Y-99555047D01*
X146415571Y-99650285D01*
X146463190Y-99697904D01*
X146558428Y-99745523D01*
X146748904Y-99745523D01*
X146844142Y-99697904D01*
X146891761Y-99650285D01*
X146939380Y-99555047D01*
X146939380Y-99364571D01*
X146891761Y-99269333D01*
X146844142Y-99221714D01*
X146748904Y-99174095D01*
X146558428Y-99174095D01*
X146463190Y-99221714D01*
X146415571Y-99269333D01*
X146367952Y-99364571D01*
%TO.C,R37*%
X167958380Y-115974857D02*
X167482190Y-116308190D01*
X167958380Y-116546285D02*
X166958380Y-116546285D01*
X166958380Y-116165333D01*
X167006000Y-116070095D01*
X167053619Y-116022476D01*
X167148857Y-115974857D01*
X167291714Y-115974857D01*
X167386952Y-116022476D01*
X167434571Y-116070095D01*
X167482190Y-116165333D01*
X167482190Y-116546285D01*
X166958380Y-115641523D02*
X166958380Y-115022476D01*
X167339333Y-115355809D01*
X167339333Y-115212952D01*
X167386952Y-115117714D01*
X167434571Y-115070095D01*
X167529809Y-115022476D01*
X167767904Y-115022476D01*
X167863142Y-115070095D01*
X167910761Y-115117714D01*
X167958380Y-115212952D01*
X167958380Y-115498666D01*
X167910761Y-115593904D01*
X167863142Y-115641523D01*
X166958380Y-114689142D02*
X166958380Y-114022476D01*
X167958380Y-114451047D01*
%TO.C,R36*%
X143754408Y-113234204D02*
X143278218Y-113567537D01*
X143754408Y-113805632D02*
X142754408Y-113805632D01*
X142754408Y-113424680D01*
X142802028Y-113329442D01*
X142849647Y-113281823D01*
X142944885Y-113234204D01*
X143087742Y-113234204D01*
X143182980Y-113281823D01*
X143230599Y-113329442D01*
X143278218Y-113424680D01*
X143278218Y-113805632D01*
X142754408Y-112900870D02*
X142754408Y-112281823D01*
X143135361Y-112615156D01*
X143135361Y-112472299D01*
X143182980Y-112377061D01*
X143230599Y-112329442D01*
X143325837Y-112281823D01*
X143563932Y-112281823D01*
X143659170Y-112329442D01*
X143706789Y-112377061D01*
X143754408Y-112472299D01*
X143754408Y-112758013D01*
X143706789Y-112853251D01*
X143659170Y-112900870D01*
X142754408Y-111424680D02*
X142754408Y-111615156D01*
X142802028Y-111710394D01*
X142849647Y-111758013D01*
X142992504Y-111853251D01*
X143182980Y-111900870D01*
X143563932Y-111900870D01*
X143659170Y-111853251D01*
X143706789Y-111805632D01*
X143754408Y-111710394D01*
X143754408Y-111519918D01*
X143706789Y-111424680D01*
X143659170Y-111377061D01*
X143563932Y-111329442D01*
X143325837Y-111329442D01*
X143230599Y-111377061D01*
X143182980Y-111424680D01*
X143135361Y-111519918D01*
X143135361Y-111710394D01*
X143182980Y-111805632D01*
X143230599Y-111853251D01*
X143325837Y-111900870D01*
%TO.C,R35*%
X165803380Y-119773857D02*
X165327190Y-120107190D01*
X165803380Y-120345285D02*
X164803380Y-120345285D01*
X164803380Y-119964333D01*
X164851000Y-119869095D01*
X164898619Y-119821476D01*
X164993857Y-119773857D01*
X165136714Y-119773857D01*
X165231952Y-119821476D01*
X165279571Y-119869095D01*
X165327190Y-119964333D01*
X165327190Y-120345285D01*
X164803380Y-119440523D02*
X164803380Y-118821476D01*
X165184333Y-119154809D01*
X165184333Y-119011952D01*
X165231952Y-118916714D01*
X165279571Y-118869095D01*
X165374809Y-118821476D01*
X165612904Y-118821476D01*
X165708142Y-118869095D01*
X165755761Y-118916714D01*
X165803380Y-119011952D01*
X165803380Y-119297666D01*
X165755761Y-119392904D01*
X165708142Y-119440523D01*
X164803380Y-117916714D02*
X164803380Y-118392904D01*
X165279571Y-118440523D01*
X165231952Y-118392904D01*
X165184333Y-118297666D01*
X165184333Y-118059571D01*
X165231952Y-117964333D01*
X165279571Y-117916714D01*
X165374809Y-117869095D01*
X165612904Y-117869095D01*
X165708142Y-117916714D01*
X165755761Y-117964333D01*
X165803380Y-118059571D01*
X165803380Y-118297666D01*
X165755761Y-118392904D01*
X165708142Y-118440523D01*
%TO.C,R34*%
X131020380Y-111713857D02*
X130544190Y-112047190D01*
X131020380Y-112285285D02*
X130020380Y-112285285D01*
X130020380Y-111904333D01*
X130068000Y-111809095D01*
X130115619Y-111761476D01*
X130210857Y-111713857D01*
X130353714Y-111713857D01*
X130448952Y-111761476D01*
X130496571Y-111809095D01*
X130544190Y-111904333D01*
X130544190Y-112285285D01*
X130020380Y-111380523D02*
X130020380Y-110761476D01*
X130401333Y-111094809D01*
X130401333Y-110951952D01*
X130448952Y-110856714D01*
X130496571Y-110809095D01*
X130591809Y-110761476D01*
X130829904Y-110761476D01*
X130925142Y-110809095D01*
X130972761Y-110856714D01*
X131020380Y-110951952D01*
X131020380Y-111237666D01*
X130972761Y-111332904D01*
X130925142Y-111380523D01*
X130353714Y-109904333D02*
X131020380Y-109904333D01*
X129972761Y-110142428D02*
X130687047Y-110380523D01*
X130687047Y-109761476D01*
%TO.C,R33*%
X137446380Y-119326857D02*
X136970190Y-119660190D01*
X137446380Y-119898285D02*
X136446380Y-119898285D01*
X136446380Y-119517333D01*
X136494000Y-119422095D01*
X136541619Y-119374476D01*
X136636857Y-119326857D01*
X136779714Y-119326857D01*
X136874952Y-119374476D01*
X136922571Y-119422095D01*
X136970190Y-119517333D01*
X136970190Y-119898285D01*
X136446380Y-118993523D02*
X136446380Y-118374476D01*
X136827333Y-118707809D01*
X136827333Y-118564952D01*
X136874952Y-118469714D01*
X136922571Y-118422095D01*
X137017809Y-118374476D01*
X137255904Y-118374476D01*
X137351142Y-118422095D01*
X137398761Y-118469714D01*
X137446380Y-118564952D01*
X137446380Y-118850666D01*
X137398761Y-118945904D01*
X137351142Y-118993523D01*
X136446380Y-118041142D02*
X136446380Y-117422095D01*
X136827333Y-117755428D01*
X136827333Y-117612571D01*
X136874952Y-117517333D01*
X136922571Y-117469714D01*
X137017809Y-117422095D01*
X137255904Y-117422095D01*
X137351142Y-117469714D01*
X137398761Y-117517333D01*
X137446380Y-117612571D01*
X137446380Y-117898285D01*
X137398761Y-117993523D01*
X137351142Y-118041142D01*
%TO.C,R32*%
X136465142Y-93929380D02*
X136131809Y-93453190D01*
X135893714Y-93929380D02*
X135893714Y-92929380D01*
X136274666Y-92929380D01*
X136369904Y-92977000D01*
X136417523Y-93024619D01*
X136465142Y-93119857D01*
X136465142Y-93262714D01*
X136417523Y-93357952D01*
X136369904Y-93405571D01*
X136274666Y-93453190D01*
X135893714Y-93453190D01*
X136798476Y-92929380D02*
X137417523Y-92929380D01*
X137084190Y-93310333D01*
X137227047Y-93310333D01*
X137322285Y-93357952D01*
X137369904Y-93405571D01*
X137417523Y-93500809D01*
X137417523Y-93738904D01*
X137369904Y-93834142D01*
X137322285Y-93881761D01*
X137227047Y-93929380D01*
X136941333Y-93929380D01*
X136846095Y-93881761D01*
X136798476Y-93834142D01*
X137798476Y-93024619D02*
X137846095Y-92977000D01*
X137941333Y-92929380D01*
X138179428Y-92929380D01*
X138274666Y-92977000D01*
X138322285Y-93024619D01*
X138369904Y-93119857D01*
X138369904Y-93215095D01*
X138322285Y-93357952D01*
X137750857Y-93929380D01*
X138369904Y-93929380D01*
%TO.C,R31*%
X123105380Y-111731857D02*
X122629190Y-112065190D01*
X123105380Y-112303285D02*
X122105380Y-112303285D01*
X122105380Y-111922333D01*
X122153000Y-111827095D01*
X122200619Y-111779476D01*
X122295857Y-111731857D01*
X122438714Y-111731857D01*
X122533952Y-111779476D01*
X122581571Y-111827095D01*
X122629190Y-111922333D01*
X122629190Y-112303285D01*
X122105380Y-111398523D02*
X122105380Y-110779476D01*
X122486333Y-111112809D01*
X122486333Y-110969952D01*
X122533952Y-110874714D01*
X122581571Y-110827095D01*
X122676809Y-110779476D01*
X122914904Y-110779476D01*
X123010142Y-110827095D01*
X123057761Y-110874714D01*
X123105380Y-110969952D01*
X123105380Y-111255666D01*
X123057761Y-111350904D01*
X123010142Y-111398523D01*
X123105380Y-109827095D02*
X123105380Y-110398523D01*
X123105380Y-110112809D02*
X122105380Y-110112809D01*
X122248238Y-110208047D01*
X122343476Y-110303285D01*
X122391095Y-110398523D01*
%TO.C,R30*%
X137265142Y-88485380D02*
X136931809Y-88009190D01*
X136693714Y-88485380D02*
X136693714Y-87485380D01*
X137074666Y-87485380D01*
X137169904Y-87533000D01*
X137217523Y-87580619D01*
X137265142Y-87675857D01*
X137265142Y-87818714D01*
X137217523Y-87913952D01*
X137169904Y-87961571D01*
X137074666Y-88009190D01*
X136693714Y-88009190D01*
X137598476Y-87485380D02*
X138217523Y-87485380D01*
X137884190Y-87866333D01*
X138027047Y-87866333D01*
X138122285Y-87913952D01*
X138169904Y-87961571D01*
X138217523Y-88056809D01*
X138217523Y-88294904D01*
X138169904Y-88390142D01*
X138122285Y-88437761D01*
X138027047Y-88485380D01*
X137741333Y-88485380D01*
X137646095Y-88437761D01*
X137598476Y-88390142D01*
X138836571Y-87485380D02*
X138931809Y-87485380D01*
X139027047Y-87533000D01*
X139074666Y-87580619D01*
X139122285Y-87675857D01*
X139169904Y-87866333D01*
X139169904Y-88104428D01*
X139122285Y-88294904D01*
X139074666Y-88390142D01*
X139027047Y-88437761D01*
X138931809Y-88485380D01*
X138836571Y-88485380D01*
X138741333Y-88437761D01*
X138693714Y-88390142D01*
X138646095Y-88294904D01*
X138598476Y-88104428D01*
X138598476Y-87866333D01*
X138646095Y-87675857D01*
X138693714Y-87580619D01*
X138741333Y-87533000D01*
X138836571Y-87485380D01*
%TO.C,R29*%
X103977380Y-111696857D02*
X103501190Y-112030190D01*
X103977380Y-112268285D02*
X102977380Y-112268285D01*
X102977380Y-111887333D01*
X103025000Y-111792095D01*
X103072619Y-111744476D01*
X103167857Y-111696857D01*
X103310714Y-111696857D01*
X103405952Y-111744476D01*
X103453571Y-111792095D01*
X103501190Y-111887333D01*
X103501190Y-112268285D01*
X103072619Y-111315904D02*
X103025000Y-111268285D01*
X102977380Y-111173047D01*
X102977380Y-110934952D01*
X103025000Y-110839714D01*
X103072619Y-110792095D01*
X103167857Y-110744476D01*
X103263095Y-110744476D01*
X103405952Y-110792095D01*
X103977380Y-111363523D01*
X103977380Y-110744476D01*
X103977380Y-110268285D02*
X103977380Y-110077809D01*
X103929761Y-109982571D01*
X103882142Y-109934952D01*
X103739285Y-109839714D01*
X103548809Y-109792095D01*
X103167857Y-109792095D01*
X103072619Y-109839714D01*
X103025000Y-109887333D01*
X102977380Y-109982571D01*
X102977380Y-110173047D01*
X103025000Y-110268285D01*
X103072619Y-110315904D01*
X103167857Y-110363523D01*
X103405952Y-110363523D01*
X103501190Y-110315904D01*
X103548809Y-110268285D01*
X103596428Y-110173047D01*
X103596428Y-109982571D01*
X103548809Y-109887333D01*
X103501190Y-109839714D01*
X103405952Y-109792095D01*
%TO.C,R28*%
X155119380Y-115759857D02*
X154643190Y-116093190D01*
X155119380Y-116331285D02*
X154119380Y-116331285D01*
X154119380Y-115950333D01*
X154167000Y-115855095D01*
X154214619Y-115807476D01*
X154309857Y-115759857D01*
X154452714Y-115759857D01*
X154547952Y-115807476D01*
X154595571Y-115855095D01*
X154643190Y-115950333D01*
X154643190Y-116331285D01*
X154214619Y-115378904D02*
X154167000Y-115331285D01*
X154119380Y-115236047D01*
X154119380Y-114997952D01*
X154167000Y-114902714D01*
X154214619Y-114855095D01*
X154309857Y-114807476D01*
X154405095Y-114807476D01*
X154547952Y-114855095D01*
X155119380Y-115426523D01*
X155119380Y-114807476D01*
X154547952Y-114236047D02*
X154500333Y-114331285D01*
X154452714Y-114378904D01*
X154357476Y-114426523D01*
X154309857Y-114426523D01*
X154214619Y-114378904D01*
X154167000Y-114331285D01*
X154119380Y-114236047D01*
X154119380Y-114045571D01*
X154167000Y-113950333D01*
X154214619Y-113902714D01*
X154309857Y-113855095D01*
X154357476Y-113855095D01*
X154452714Y-113902714D01*
X154500333Y-113950333D01*
X154547952Y-114045571D01*
X154547952Y-114236047D01*
X154595571Y-114331285D01*
X154643190Y-114378904D01*
X154738428Y-114426523D01*
X154928904Y-114426523D01*
X155024142Y-114378904D01*
X155071761Y-114331285D01*
X155119380Y-114236047D01*
X155119380Y-114045571D01*
X155071761Y-113950333D01*
X155024142Y-113902714D01*
X154928904Y-113855095D01*
X154738428Y-113855095D01*
X154643190Y-113902714D01*
X154595571Y-113950333D01*
X154547952Y-114045571D01*
%TO.C,R27*%
X135188142Y-104961380D02*
X134854809Y-104485190D01*
X134616714Y-104961380D02*
X134616714Y-103961380D01*
X134997666Y-103961380D01*
X135092904Y-104009000D01*
X135140523Y-104056619D01*
X135188142Y-104151857D01*
X135188142Y-104294714D01*
X135140523Y-104389952D01*
X135092904Y-104437571D01*
X134997666Y-104485190D01*
X134616714Y-104485190D01*
X135569095Y-104056619D02*
X135616714Y-104009000D01*
X135711952Y-103961380D01*
X135950047Y-103961380D01*
X136045285Y-104009000D01*
X136092904Y-104056619D01*
X136140523Y-104151857D01*
X136140523Y-104247095D01*
X136092904Y-104389952D01*
X135521476Y-104961380D01*
X136140523Y-104961380D01*
X136473857Y-103961380D02*
X137140523Y-103961380D01*
X136711952Y-104961380D01*
%TO.C,R26*%
X132850142Y-100062380D02*
X132516809Y-99586190D01*
X132278714Y-100062380D02*
X132278714Y-99062380D01*
X132659666Y-99062380D01*
X132754904Y-99110000D01*
X132802523Y-99157619D01*
X132850142Y-99252857D01*
X132850142Y-99395714D01*
X132802523Y-99490952D01*
X132754904Y-99538571D01*
X132659666Y-99586190D01*
X132278714Y-99586190D01*
X133231095Y-99157619D02*
X133278714Y-99110000D01*
X133373952Y-99062380D01*
X133612047Y-99062380D01*
X133707285Y-99110000D01*
X133754904Y-99157619D01*
X133802523Y-99252857D01*
X133802523Y-99348095D01*
X133754904Y-99490952D01*
X133183476Y-100062380D01*
X133802523Y-100062380D01*
X134659666Y-99062380D02*
X134469190Y-99062380D01*
X134373952Y-99110000D01*
X134326333Y-99157619D01*
X134231095Y-99300476D01*
X134183476Y-99490952D01*
X134183476Y-99871904D01*
X134231095Y-99967142D01*
X134278714Y-100014761D01*
X134373952Y-100062380D01*
X134564428Y-100062380D01*
X134659666Y-100014761D01*
X134707285Y-99967142D01*
X134754904Y-99871904D01*
X134754904Y-99633809D01*
X134707285Y-99538571D01*
X134659666Y-99490952D01*
X134564428Y-99443333D01*
X134373952Y-99443333D01*
X134278714Y-99490952D01*
X134231095Y-99538571D01*
X134183476Y-99633809D01*
%TO.C,R25*%
X129446142Y-61529380D02*
X129112809Y-61053190D01*
X128874714Y-61529380D02*
X128874714Y-60529380D01*
X129255666Y-60529380D01*
X129350904Y-60577000D01*
X129398523Y-60624619D01*
X129446142Y-60719857D01*
X129446142Y-60862714D01*
X129398523Y-60957952D01*
X129350904Y-61005571D01*
X129255666Y-61053190D01*
X128874714Y-61053190D01*
X129827095Y-60624619D02*
X129874714Y-60577000D01*
X129969952Y-60529380D01*
X130208047Y-60529380D01*
X130303285Y-60577000D01*
X130350904Y-60624619D01*
X130398523Y-60719857D01*
X130398523Y-60815095D01*
X130350904Y-60957952D01*
X129779476Y-61529380D01*
X130398523Y-61529380D01*
X131303285Y-60529380D02*
X130827095Y-60529380D01*
X130779476Y-61005571D01*
X130827095Y-60957952D01*
X130922333Y-60910333D01*
X131160428Y-60910333D01*
X131255666Y-60957952D01*
X131303285Y-61005571D01*
X131350904Y-61100809D01*
X131350904Y-61338904D01*
X131303285Y-61434142D01*
X131255666Y-61481761D01*
X131160428Y-61529380D01*
X130922333Y-61529380D01*
X130827095Y-61481761D01*
X130779476Y-61434142D01*
%TO.C,R24*%
X139948380Y-107953857D02*
X139472190Y-108287190D01*
X139948380Y-108525285D02*
X138948380Y-108525285D01*
X138948380Y-108144333D01*
X138996000Y-108049095D01*
X139043619Y-108001476D01*
X139138857Y-107953857D01*
X139281714Y-107953857D01*
X139376952Y-108001476D01*
X139424571Y-108049095D01*
X139472190Y-108144333D01*
X139472190Y-108525285D01*
X139043619Y-107572904D02*
X138996000Y-107525285D01*
X138948380Y-107430047D01*
X138948380Y-107191952D01*
X138996000Y-107096714D01*
X139043619Y-107049095D01*
X139138857Y-107001476D01*
X139234095Y-107001476D01*
X139376952Y-107049095D01*
X139948380Y-107620523D01*
X139948380Y-107001476D01*
X139281714Y-106144333D02*
X139948380Y-106144333D01*
X138900761Y-106382428D02*
X139615047Y-106620523D01*
X139615047Y-106001476D01*
%TO.C,R23*%
X134208380Y-107912857D02*
X133732190Y-108246190D01*
X134208380Y-108484285D02*
X133208380Y-108484285D01*
X133208380Y-108103333D01*
X133256000Y-108008095D01*
X133303619Y-107960476D01*
X133398857Y-107912857D01*
X133541714Y-107912857D01*
X133636952Y-107960476D01*
X133684571Y-108008095D01*
X133732190Y-108103333D01*
X133732190Y-108484285D01*
X133303619Y-107531904D02*
X133256000Y-107484285D01*
X133208380Y-107389047D01*
X133208380Y-107150952D01*
X133256000Y-107055714D01*
X133303619Y-107008095D01*
X133398857Y-106960476D01*
X133494095Y-106960476D01*
X133636952Y-107008095D01*
X134208380Y-107579523D01*
X134208380Y-106960476D01*
X133208380Y-106627142D02*
X133208380Y-106008095D01*
X133589333Y-106341428D01*
X133589333Y-106198571D01*
X133636952Y-106103333D01*
X133684571Y-106055714D01*
X133779809Y-106008095D01*
X134017904Y-106008095D01*
X134113142Y-106055714D01*
X134160761Y-106103333D01*
X134208380Y-106198571D01*
X134208380Y-106484285D01*
X134160761Y-106579523D01*
X134113142Y-106627142D01*
%TO.C,R22*%
X122508380Y-66845857D02*
X122032190Y-67179190D01*
X122508380Y-67417285D02*
X121508380Y-67417285D01*
X121508380Y-67036333D01*
X121556000Y-66941095D01*
X121603619Y-66893476D01*
X121698857Y-66845857D01*
X121841714Y-66845857D01*
X121936952Y-66893476D01*
X121984571Y-66941095D01*
X122032190Y-67036333D01*
X122032190Y-67417285D01*
X121603619Y-66464904D02*
X121556000Y-66417285D01*
X121508380Y-66322047D01*
X121508380Y-66083952D01*
X121556000Y-65988714D01*
X121603619Y-65941095D01*
X121698857Y-65893476D01*
X121794095Y-65893476D01*
X121936952Y-65941095D01*
X122508380Y-66512523D01*
X122508380Y-65893476D01*
X121603619Y-65512523D02*
X121556000Y-65464904D01*
X121508380Y-65369666D01*
X121508380Y-65131571D01*
X121556000Y-65036333D01*
X121603619Y-64988714D01*
X121698857Y-64941095D01*
X121794095Y-64941095D01*
X121936952Y-64988714D01*
X122508380Y-65560142D01*
X122508380Y-64941095D01*
%TO.C,R21*%
X149717142Y-113450380D02*
X149383809Y-112974190D01*
X149145714Y-113450380D02*
X149145714Y-112450380D01*
X149526666Y-112450380D01*
X149621904Y-112498000D01*
X149669523Y-112545619D01*
X149717142Y-112640857D01*
X149717142Y-112783714D01*
X149669523Y-112878952D01*
X149621904Y-112926571D01*
X149526666Y-112974190D01*
X149145714Y-112974190D01*
X150098095Y-112545619D02*
X150145714Y-112498000D01*
X150240952Y-112450380D01*
X150479047Y-112450380D01*
X150574285Y-112498000D01*
X150621904Y-112545619D01*
X150669523Y-112640857D01*
X150669523Y-112736095D01*
X150621904Y-112878952D01*
X150050476Y-113450380D01*
X150669523Y-113450380D01*
X151621904Y-113450380D02*
X151050476Y-113450380D01*
X151336190Y-113450380D02*
X151336190Y-112450380D01*
X151240952Y-112593238D01*
X151145714Y-112688476D01*
X151050476Y-112736095D01*
%TO.C,R20*%
X117243142Y-59977380D02*
X116909809Y-59501190D01*
X116671714Y-59977380D02*
X116671714Y-58977380D01*
X117052666Y-58977380D01*
X117147904Y-59025000D01*
X117195523Y-59072619D01*
X117243142Y-59167857D01*
X117243142Y-59310714D01*
X117195523Y-59405952D01*
X117147904Y-59453571D01*
X117052666Y-59501190D01*
X116671714Y-59501190D01*
X117624095Y-59072619D02*
X117671714Y-59025000D01*
X117766952Y-58977380D01*
X118005047Y-58977380D01*
X118100285Y-59025000D01*
X118147904Y-59072619D01*
X118195523Y-59167857D01*
X118195523Y-59263095D01*
X118147904Y-59405952D01*
X117576476Y-59977380D01*
X118195523Y-59977380D01*
X118814571Y-58977380D02*
X118909809Y-58977380D01*
X119005047Y-59025000D01*
X119052666Y-59072619D01*
X119100285Y-59167857D01*
X119147904Y-59358333D01*
X119147904Y-59596428D01*
X119100285Y-59786904D01*
X119052666Y-59882142D01*
X119005047Y-59929761D01*
X118909809Y-59977380D01*
X118814571Y-59977380D01*
X118719333Y-59929761D01*
X118671714Y-59882142D01*
X118624095Y-59786904D01*
X118576476Y-59596428D01*
X118576476Y-59358333D01*
X118624095Y-59167857D01*
X118671714Y-59072619D01*
X118719333Y-59025000D01*
X118814571Y-58977380D01*
%TO.C,R19*%
X114537142Y-65172380D02*
X114203809Y-64696190D01*
X113965714Y-65172380D02*
X113965714Y-64172380D01*
X114346666Y-64172380D01*
X114441904Y-64220000D01*
X114489523Y-64267619D01*
X114537142Y-64362857D01*
X114537142Y-64505714D01*
X114489523Y-64600952D01*
X114441904Y-64648571D01*
X114346666Y-64696190D01*
X113965714Y-64696190D01*
X115489523Y-65172380D02*
X114918095Y-65172380D01*
X115203809Y-65172380D02*
X115203809Y-64172380D01*
X115108571Y-64315238D01*
X115013333Y-64410476D01*
X114918095Y-64458095D01*
X115965714Y-65172380D02*
X116156190Y-65172380D01*
X116251428Y-65124761D01*
X116299047Y-65077142D01*
X116394285Y-64934285D01*
X116441904Y-64743809D01*
X116441904Y-64362857D01*
X116394285Y-64267619D01*
X116346666Y-64220000D01*
X116251428Y-64172380D01*
X116060952Y-64172380D01*
X115965714Y-64220000D01*
X115918095Y-64267619D01*
X115870476Y-64362857D01*
X115870476Y-64600952D01*
X115918095Y-64696190D01*
X115965714Y-64743809D01*
X116060952Y-64791428D01*
X116251428Y-64791428D01*
X116346666Y-64743809D01*
X116394285Y-64696190D01*
X116441904Y-64600952D01*
%TO.C,R18*%
X151791142Y-110232380D02*
X151457809Y-109756190D01*
X151219714Y-110232380D02*
X151219714Y-109232380D01*
X151600666Y-109232380D01*
X151695904Y-109280000D01*
X151743523Y-109327619D01*
X151791142Y-109422857D01*
X151791142Y-109565714D01*
X151743523Y-109660952D01*
X151695904Y-109708571D01*
X151600666Y-109756190D01*
X151219714Y-109756190D01*
X152743523Y-110232380D02*
X152172095Y-110232380D01*
X152457809Y-110232380D02*
X152457809Y-109232380D01*
X152362571Y-109375238D01*
X152267333Y-109470476D01*
X152172095Y-109518095D01*
X153314952Y-109660952D02*
X153219714Y-109613333D01*
X153172095Y-109565714D01*
X153124476Y-109470476D01*
X153124476Y-109422857D01*
X153172095Y-109327619D01*
X153219714Y-109280000D01*
X153314952Y-109232380D01*
X153505428Y-109232380D01*
X153600666Y-109280000D01*
X153648285Y-109327619D01*
X153695904Y-109422857D01*
X153695904Y-109470476D01*
X153648285Y-109565714D01*
X153600666Y-109613333D01*
X153505428Y-109660952D01*
X153314952Y-109660952D01*
X153219714Y-109708571D01*
X153172095Y-109756190D01*
X153124476Y-109851428D01*
X153124476Y-110041904D01*
X153172095Y-110137142D01*
X153219714Y-110184761D01*
X153314952Y-110232380D01*
X153505428Y-110232380D01*
X153600666Y-110184761D01*
X153648285Y-110137142D01*
X153695904Y-110041904D01*
X153695904Y-109851428D01*
X153648285Y-109756190D01*
X153600666Y-109708571D01*
X153505428Y-109660952D01*
%TO.C,R17*%
X144472380Y-94641857D02*
X143996190Y-94975190D01*
X144472380Y-95213285D02*
X143472380Y-95213285D01*
X143472380Y-94832333D01*
X143520000Y-94737095D01*
X143567619Y-94689476D01*
X143662857Y-94641857D01*
X143805714Y-94641857D01*
X143900952Y-94689476D01*
X143948571Y-94737095D01*
X143996190Y-94832333D01*
X143996190Y-95213285D01*
X144472380Y-93689476D02*
X144472380Y-94260904D01*
X144472380Y-93975190D02*
X143472380Y-93975190D01*
X143615238Y-94070428D01*
X143710476Y-94165666D01*
X143758095Y-94260904D01*
X143472380Y-93356142D02*
X143472380Y-92689476D01*
X144472380Y-93118047D01*
%TO.C,R16*%
X148936380Y-71990857D02*
X148460190Y-72324190D01*
X148936380Y-72562285D02*
X147936380Y-72562285D01*
X147936380Y-72181333D01*
X147984000Y-72086095D01*
X148031619Y-72038476D01*
X148126857Y-71990857D01*
X148269714Y-71990857D01*
X148364952Y-72038476D01*
X148412571Y-72086095D01*
X148460190Y-72181333D01*
X148460190Y-72562285D01*
X148936380Y-71038476D02*
X148936380Y-71609904D01*
X148936380Y-71324190D02*
X147936380Y-71324190D01*
X148079238Y-71419428D01*
X148174476Y-71514666D01*
X148222095Y-71609904D01*
X147936380Y-70181333D02*
X147936380Y-70371809D01*
X147984000Y-70467047D01*
X148031619Y-70514666D01*
X148174476Y-70609904D01*
X148364952Y-70657523D01*
X148745904Y-70657523D01*
X148841142Y-70609904D01*
X148888761Y-70562285D01*
X148936380Y-70467047D01*
X148936380Y-70276571D01*
X148888761Y-70181333D01*
X148841142Y-70133714D01*
X148745904Y-70086095D01*
X148507809Y-70086095D01*
X148412571Y-70133714D01*
X148364952Y-70181333D01*
X148317333Y-70276571D01*
X148317333Y-70467047D01*
X148364952Y-70562285D01*
X148412571Y-70609904D01*
X148507809Y-70657523D01*
%TO.C,R15*%
X114223142Y-56586380D02*
X113889809Y-56110190D01*
X113651714Y-56586380D02*
X113651714Y-55586380D01*
X114032666Y-55586380D01*
X114127904Y-55634000D01*
X114175523Y-55681619D01*
X114223142Y-55776857D01*
X114223142Y-55919714D01*
X114175523Y-56014952D01*
X114127904Y-56062571D01*
X114032666Y-56110190D01*
X113651714Y-56110190D01*
X115175523Y-56586380D02*
X114604095Y-56586380D01*
X114889809Y-56586380D02*
X114889809Y-55586380D01*
X114794571Y-55729238D01*
X114699333Y-55824476D01*
X114604095Y-55872095D01*
X116080285Y-55586380D02*
X115604095Y-55586380D01*
X115556476Y-56062571D01*
X115604095Y-56014952D01*
X115699333Y-55967333D01*
X115937428Y-55967333D01*
X116032666Y-56014952D01*
X116080285Y-56062571D01*
X116127904Y-56157809D01*
X116127904Y-56395904D01*
X116080285Y-56491142D01*
X116032666Y-56538761D01*
X115937428Y-56586380D01*
X115699333Y-56586380D01*
X115604095Y-56538761D01*
X115556476Y-56491142D01*
%TO.C,R14*%
X107765142Y-70125380D02*
X107431809Y-69649190D01*
X107193714Y-70125380D02*
X107193714Y-69125380D01*
X107574666Y-69125380D01*
X107669904Y-69173000D01*
X107717523Y-69220619D01*
X107765142Y-69315857D01*
X107765142Y-69458714D01*
X107717523Y-69553952D01*
X107669904Y-69601571D01*
X107574666Y-69649190D01*
X107193714Y-69649190D01*
X108717523Y-70125380D02*
X108146095Y-70125380D01*
X108431809Y-70125380D02*
X108431809Y-69125380D01*
X108336571Y-69268238D01*
X108241333Y-69363476D01*
X108146095Y-69411095D01*
X109574666Y-69458714D02*
X109574666Y-70125380D01*
X109336571Y-69077761D02*
X109098476Y-69792047D01*
X109717523Y-69792047D01*
%TO.C,R13*%
X147274142Y-65090380D02*
X146940809Y-64614190D01*
X146702714Y-65090380D02*
X146702714Y-64090380D01*
X147083666Y-64090380D01*
X147178904Y-64138000D01*
X147226523Y-64185619D01*
X147274142Y-64280857D01*
X147274142Y-64423714D01*
X147226523Y-64518952D01*
X147178904Y-64566571D01*
X147083666Y-64614190D01*
X146702714Y-64614190D01*
X148226523Y-65090380D02*
X147655095Y-65090380D01*
X147940809Y-65090380D02*
X147940809Y-64090380D01*
X147845571Y-64233238D01*
X147750333Y-64328476D01*
X147655095Y-64376095D01*
X148559857Y-64090380D02*
X149178904Y-64090380D01*
X148845571Y-64471333D01*
X148988428Y-64471333D01*
X149083666Y-64518952D01*
X149131285Y-64566571D01*
X149178904Y-64661809D01*
X149178904Y-64899904D01*
X149131285Y-64995142D01*
X149083666Y-65042761D01*
X148988428Y-65090380D01*
X148702714Y-65090380D01*
X148607476Y-65042761D01*
X148559857Y-64995142D01*
%TO.C,R12*%
X129988142Y-63016380D02*
X129654809Y-62540190D01*
X129416714Y-63016380D02*
X129416714Y-62016380D01*
X129797666Y-62016380D01*
X129892904Y-62064000D01*
X129940523Y-62111619D01*
X129988142Y-62206857D01*
X129988142Y-62349714D01*
X129940523Y-62444952D01*
X129892904Y-62492571D01*
X129797666Y-62540190D01*
X129416714Y-62540190D01*
X130940523Y-63016380D02*
X130369095Y-63016380D01*
X130654809Y-63016380D02*
X130654809Y-62016380D01*
X130559571Y-62159238D01*
X130464333Y-62254476D01*
X130369095Y-62302095D01*
X131321476Y-62111619D02*
X131369095Y-62064000D01*
X131464333Y-62016380D01*
X131702428Y-62016380D01*
X131797666Y-62064000D01*
X131845285Y-62111619D01*
X131892904Y-62206857D01*
X131892904Y-62302095D01*
X131845285Y-62444952D01*
X131273857Y-63016380D01*
X131892904Y-63016380D01*
%TO.C,R11*%
X114320142Y-100967380D02*
X113986809Y-100491190D01*
X113748714Y-100967380D02*
X113748714Y-99967380D01*
X114129666Y-99967380D01*
X114224904Y-100015000D01*
X114272523Y-100062619D01*
X114320142Y-100157857D01*
X114320142Y-100300714D01*
X114272523Y-100395952D01*
X114224904Y-100443571D01*
X114129666Y-100491190D01*
X113748714Y-100491190D01*
X115272523Y-100967380D02*
X114701095Y-100967380D01*
X114986809Y-100967380D02*
X114986809Y-99967380D01*
X114891571Y-100110238D01*
X114796333Y-100205476D01*
X114701095Y-100253095D01*
X116224904Y-100967380D02*
X115653476Y-100967380D01*
X115939190Y-100967380D02*
X115939190Y-99967380D01*
X115843952Y-100110238D01*
X115748714Y-100205476D01*
X115653476Y-100253095D01*
%TO.C,R10*%
X109494142Y-74383380D02*
X109160809Y-73907190D01*
X108922714Y-74383380D02*
X108922714Y-73383380D01*
X109303666Y-73383380D01*
X109398904Y-73431000D01*
X109446523Y-73478619D01*
X109494142Y-73573857D01*
X109494142Y-73716714D01*
X109446523Y-73811952D01*
X109398904Y-73859571D01*
X109303666Y-73907190D01*
X108922714Y-73907190D01*
X110446523Y-74383380D02*
X109875095Y-74383380D01*
X110160809Y-74383380D02*
X110160809Y-73383380D01*
X110065571Y-73526238D01*
X109970333Y-73621476D01*
X109875095Y-73669095D01*
X111065571Y-73383380D02*
X111160809Y-73383380D01*
X111256047Y-73431000D01*
X111303666Y-73478619D01*
X111351285Y-73573857D01*
X111398904Y-73764333D01*
X111398904Y-74002428D01*
X111351285Y-74192904D01*
X111303666Y-74288142D01*
X111256047Y-74335761D01*
X111160809Y-74383380D01*
X111065571Y-74383380D01*
X110970333Y-74335761D01*
X110922714Y-74288142D01*
X110875095Y-74192904D01*
X110827476Y-74002428D01*
X110827476Y-73764333D01*
X110875095Y-73573857D01*
X110922714Y-73478619D01*
X110970333Y-73431000D01*
X111065571Y-73383380D01*
%TO.C,R9*%
X110511333Y-105918380D02*
X110178000Y-105442190D01*
X109939904Y-105918380D02*
X109939904Y-104918380D01*
X110320857Y-104918380D01*
X110416095Y-104966000D01*
X110463714Y-105013619D01*
X110511333Y-105108857D01*
X110511333Y-105251714D01*
X110463714Y-105346952D01*
X110416095Y-105394571D01*
X110320857Y-105442190D01*
X109939904Y-105442190D01*
X110987523Y-105918380D02*
X111178000Y-105918380D01*
X111273238Y-105870761D01*
X111320857Y-105823142D01*
X111416095Y-105680285D01*
X111463714Y-105489809D01*
X111463714Y-105108857D01*
X111416095Y-105013619D01*
X111368476Y-104966000D01*
X111273238Y-104918380D01*
X111082761Y-104918380D01*
X110987523Y-104966000D01*
X110939904Y-105013619D01*
X110892285Y-105108857D01*
X110892285Y-105346952D01*
X110939904Y-105442190D01*
X110987523Y-105489809D01*
X111082761Y-105537428D01*
X111273238Y-105537428D01*
X111368476Y-105489809D01*
X111416095Y-105442190D01*
X111463714Y-105346952D01*
%TO.C,R8*%
X110501333Y-103908380D02*
X110168000Y-103432190D01*
X109929904Y-103908380D02*
X109929904Y-102908380D01*
X110310857Y-102908380D01*
X110406095Y-102956000D01*
X110453714Y-103003619D01*
X110501333Y-103098857D01*
X110501333Y-103241714D01*
X110453714Y-103336952D01*
X110406095Y-103384571D01*
X110310857Y-103432190D01*
X109929904Y-103432190D01*
X111072761Y-103336952D02*
X110977523Y-103289333D01*
X110929904Y-103241714D01*
X110882285Y-103146476D01*
X110882285Y-103098857D01*
X110929904Y-103003619D01*
X110977523Y-102956000D01*
X111072761Y-102908380D01*
X111263238Y-102908380D01*
X111358476Y-102956000D01*
X111406095Y-103003619D01*
X111453714Y-103098857D01*
X111453714Y-103146476D01*
X111406095Y-103241714D01*
X111358476Y-103289333D01*
X111263238Y-103336952D01*
X111072761Y-103336952D01*
X110977523Y-103384571D01*
X110929904Y-103432190D01*
X110882285Y-103527428D01*
X110882285Y-103717904D01*
X110929904Y-103813142D01*
X110977523Y-103860761D01*
X111072761Y-103908380D01*
X111263238Y-103908380D01*
X111358476Y-103860761D01*
X111406095Y-103813142D01*
X111453714Y-103717904D01*
X111453714Y-103527428D01*
X111406095Y-103432190D01*
X111358476Y-103384571D01*
X111263238Y-103336952D01*
%TO.C,R7*%
X106069333Y-94540380D02*
X105736000Y-94064190D01*
X105497904Y-94540380D02*
X105497904Y-93540380D01*
X105878857Y-93540380D01*
X105974095Y-93588000D01*
X106021714Y-93635619D01*
X106069333Y-93730857D01*
X106069333Y-93873714D01*
X106021714Y-93968952D01*
X105974095Y-94016571D01*
X105878857Y-94064190D01*
X105497904Y-94064190D01*
X106402666Y-93540380D02*
X107069333Y-93540380D01*
X106640761Y-94540380D01*
%TO.C,R6*%
X108799333Y-113357380D02*
X108466000Y-112881190D01*
X108227904Y-113357380D02*
X108227904Y-112357380D01*
X108608857Y-112357380D01*
X108704095Y-112405000D01*
X108751714Y-112452619D01*
X108799333Y-112547857D01*
X108799333Y-112690714D01*
X108751714Y-112785952D01*
X108704095Y-112833571D01*
X108608857Y-112881190D01*
X108227904Y-112881190D01*
X109656476Y-112357380D02*
X109466000Y-112357380D01*
X109370761Y-112405000D01*
X109323142Y-112452619D01*
X109227904Y-112595476D01*
X109180285Y-112785952D01*
X109180285Y-113166904D01*
X109227904Y-113262142D01*
X109275523Y-113309761D01*
X109370761Y-113357380D01*
X109561238Y-113357380D01*
X109656476Y-113309761D01*
X109704095Y-113262142D01*
X109751714Y-113166904D01*
X109751714Y-112928809D01*
X109704095Y-112833571D01*
X109656476Y-112785952D01*
X109561238Y-112738333D01*
X109370761Y-112738333D01*
X109275523Y-112785952D01*
X109227904Y-112833571D01*
X109180285Y-112928809D01*
%TO.C,R5*%
X103495333Y-116709380D02*
X103162000Y-116233190D01*
X102923904Y-116709380D02*
X102923904Y-115709380D01*
X103304857Y-115709380D01*
X103400095Y-115757000D01*
X103447714Y-115804619D01*
X103495333Y-115899857D01*
X103495333Y-116042714D01*
X103447714Y-116137952D01*
X103400095Y-116185571D01*
X103304857Y-116233190D01*
X102923904Y-116233190D01*
X104400095Y-115709380D02*
X103923904Y-115709380D01*
X103876285Y-116185571D01*
X103923904Y-116137952D01*
X104019142Y-116090333D01*
X104257238Y-116090333D01*
X104352476Y-116137952D01*
X104400095Y-116185571D01*
X104447714Y-116280809D01*
X104447714Y-116518904D01*
X104400095Y-116614142D01*
X104352476Y-116661761D01*
X104257238Y-116709380D01*
X104019142Y-116709380D01*
X103923904Y-116661761D01*
X103876285Y-116614142D01*
%TO.C,R4*%
X110587333Y-107784380D02*
X110254000Y-107308190D01*
X110015904Y-107784380D02*
X110015904Y-106784380D01*
X110396857Y-106784380D01*
X110492095Y-106832000D01*
X110539714Y-106879619D01*
X110587333Y-106974857D01*
X110587333Y-107117714D01*
X110539714Y-107212952D01*
X110492095Y-107260571D01*
X110396857Y-107308190D01*
X110015904Y-107308190D01*
X111444476Y-107117714D02*
X111444476Y-107784380D01*
X111206380Y-106736761D02*
X110968285Y-107451047D01*
X111587333Y-107451047D01*
%TO.C,R3*%
X108186380Y-90215666D02*
X107710190Y-90549000D01*
X108186380Y-90787095D02*
X107186380Y-90787095D01*
X107186380Y-90406142D01*
X107234000Y-90310904D01*
X107281619Y-90263285D01*
X107376857Y-90215666D01*
X107519714Y-90215666D01*
X107614952Y-90263285D01*
X107662571Y-90310904D01*
X107710190Y-90406142D01*
X107710190Y-90787095D01*
X107186380Y-89882333D02*
X107186380Y-89263285D01*
X107567333Y-89596619D01*
X107567333Y-89453761D01*
X107614952Y-89358523D01*
X107662571Y-89310904D01*
X107757809Y-89263285D01*
X107995904Y-89263285D01*
X108091142Y-89310904D01*
X108138761Y-89358523D01*
X108186380Y-89453761D01*
X108186380Y-89739476D01*
X108138761Y-89834714D01*
X108091142Y-89882333D01*
%TO.C,R2*%
X110584333Y-102177380D02*
X110251000Y-101701190D01*
X110012904Y-102177380D02*
X110012904Y-101177380D01*
X110393857Y-101177380D01*
X110489095Y-101225000D01*
X110536714Y-101272619D01*
X110584333Y-101367857D01*
X110584333Y-101510714D01*
X110536714Y-101605952D01*
X110489095Y-101653571D01*
X110393857Y-101701190D01*
X110012904Y-101701190D01*
X110965285Y-101272619D02*
X111012904Y-101225000D01*
X111108142Y-101177380D01*
X111346238Y-101177380D01*
X111441476Y-101225000D01*
X111489095Y-101272619D01*
X111536714Y-101367857D01*
X111536714Y-101463095D01*
X111489095Y-101605952D01*
X110917666Y-102177380D01*
X111536714Y-102177380D01*
%TO.C,R1*%
X102200380Y-94440666D02*
X101724190Y-94774000D01*
X102200380Y-95012095D02*
X101200380Y-95012095D01*
X101200380Y-94631142D01*
X101248000Y-94535904D01*
X101295619Y-94488285D01*
X101390857Y-94440666D01*
X101533714Y-94440666D01*
X101628952Y-94488285D01*
X101676571Y-94535904D01*
X101724190Y-94631142D01*
X101724190Y-95012095D01*
X102200380Y-93488285D02*
X102200380Y-94059714D01*
X102200380Y-93774000D02*
X101200380Y-93774000D01*
X101343238Y-93869238D01*
X101438476Y-93964476D01*
X101486095Y-94059714D01*
%TO.C,Q3*%
X121071619Y-59516238D02*
X121024000Y-59611476D01*
X120928761Y-59706714D01*
X120785904Y-59849571D01*
X120738285Y-59944809D01*
X120738285Y-60040047D01*
X120976380Y-59992428D02*
X120928761Y-60087666D01*
X120833523Y-60182904D01*
X120643047Y-60230523D01*
X120309714Y-60230523D01*
X120119238Y-60182904D01*
X120024000Y-60087666D01*
X119976380Y-59992428D01*
X119976380Y-59801952D01*
X120024000Y-59706714D01*
X120119238Y-59611476D01*
X120309714Y-59563857D01*
X120643047Y-59563857D01*
X120833523Y-59611476D01*
X120928761Y-59706714D01*
X120976380Y-59801952D01*
X120976380Y-59992428D01*
X119976380Y-59230523D02*
X119976380Y-58611476D01*
X120357333Y-58944809D01*
X120357333Y-58801952D01*
X120404952Y-58706714D01*
X120452571Y-58659095D01*
X120547809Y-58611476D01*
X120785904Y-58611476D01*
X120881142Y-58659095D01*
X120928761Y-58706714D01*
X120976380Y-58801952D01*
X120976380Y-59087666D01*
X120928761Y-59182904D01*
X120881142Y-59230523D01*
%TO.C,Q2*%
X107158619Y-60131238D02*
X107111000Y-60226476D01*
X107015761Y-60321714D01*
X106872904Y-60464571D01*
X106825285Y-60559809D01*
X106825285Y-60655047D01*
X107063380Y-60607428D02*
X107015761Y-60702666D01*
X106920523Y-60797904D01*
X106730047Y-60845523D01*
X106396714Y-60845523D01*
X106206238Y-60797904D01*
X106111000Y-60702666D01*
X106063380Y-60607428D01*
X106063380Y-60416952D01*
X106111000Y-60321714D01*
X106206238Y-60226476D01*
X106396714Y-60178857D01*
X106730047Y-60178857D01*
X106920523Y-60226476D01*
X107015761Y-60321714D01*
X107063380Y-60416952D01*
X107063380Y-60607428D01*
X106158619Y-59797904D02*
X106111000Y-59750285D01*
X106063380Y-59655047D01*
X106063380Y-59416952D01*
X106111000Y-59321714D01*
X106158619Y-59274095D01*
X106253857Y-59226476D01*
X106349095Y-59226476D01*
X106491952Y-59274095D01*
X107063380Y-59845523D01*
X107063380Y-59226476D01*
%TO.C,Q1*%
X100726619Y-60916238D02*
X100679000Y-61011476D01*
X100583761Y-61106714D01*
X100440904Y-61249571D01*
X100393285Y-61344809D01*
X100393285Y-61440047D01*
X100631380Y-61392428D02*
X100583761Y-61487666D01*
X100488523Y-61582904D01*
X100298047Y-61630523D01*
X99964714Y-61630523D01*
X99774238Y-61582904D01*
X99679000Y-61487666D01*
X99631380Y-61392428D01*
X99631380Y-61201952D01*
X99679000Y-61106714D01*
X99774238Y-61011476D01*
X99964714Y-60963857D01*
X100298047Y-60963857D01*
X100488523Y-61011476D01*
X100583761Y-61106714D01*
X100631380Y-61201952D01*
X100631380Y-61392428D01*
X100631380Y-60011476D02*
X100631380Y-60582904D01*
X100631380Y-60297190D02*
X99631380Y-60297190D01*
X99774238Y-60392428D01*
X99869476Y-60487666D01*
X99917095Y-60582904D01*
%TO.C,L1*%
X166609333Y-78925380D02*
X166133142Y-78925380D01*
X166133142Y-77925380D01*
X167466476Y-78925380D02*
X166895047Y-78925380D01*
X167180761Y-78925380D02*
X167180761Y-77925380D01*
X167085523Y-78068238D01*
X166990285Y-78163476D01*
X166895047Y-78211095D01*
%TO.C,D6*%
X166695380Y-83501095D02*
X165695380Y-83501095D01*
X165695380Y-83263000D01*
X165743000Y-83120142D01*
X165838238Y-83024904D01*
X165933476Y-82977285D01*
X166123952Y-82929666D01*
X166266809Y-82929666D01*
X166457285Y-82977285D01*
X166552523Y-83024904D01*
X166647761Y-83120142D01*
X166695380Y-83263000D01*
X166695380Y-83501095D01*
X165695380Y-82072523D02*
X165695380Y-82263000D01*
X165743000Y-82358238D01*
X165790619Y-82405857D01*
X165933476Y-82501095D01*
X166123952Y-82548714D01*
X166504904Y-82548714D01*
X166600142Y-82501095D01*
X166647761Y-82453476D01*
X166695380Y-82358238D01*
X166695380Y-82167761D01*
X166647761Y-82072523D01*
X166600142Y-82024904D01*
X166504904Y-81977285D01*
X166266809Y-81977285D01*
X166171571Y-82024904D01*
X166123952Y-82072523D01*
X166076333Y-82167761D01*
X166076333Y-82358238D01*
X166123952Y-82453476D01*
X166171571Y-82501095D01*
X166266809Y-82548714D01*
%TO.C,D4*%
X89404380Y-111279095D02*
X88404380Y-111279095D01*
X88404380Y-111041000D01*
X88452000Y-110898142D01*
X88547238Y-110802904D01*
X88642476Y-110755285D01*
X88832952Y-110707666D01*
X88975809Y-110707666D01*
X89166285Y-110755285D01*
X89261523Y-110802904D01*
X89356761Y-110898142D01*
X89404380Y-111041000D01*
X89404380Y-111279095D01*
X88737714Y-109850523D02*
X89404380Y-109850523D01*
X88356761Y-110088619D02*
X89071047Y-110326714D01*
X89071047Y-109707666D01*
%TO.C,D3*%
X96477380Y-113798095D02*
X95477380Y-113798095D01*
X95477380Y-113560000D01*
X95525000Y-113417142D01*
X95620238Y-113321904D01*
X95715476Y-113274285D01*
X95905952Y-113226666D01*
X96048809Y-113226666D01*
X96239285Y-113274285D01*
X96334523Y-113321904D01*
X96429761Y-113417142D01*
X96477380Y-113560000D01*
X96477380Y-113798095D01*
X95477380Y-112893333D02*
X95477380Y-112274285D01*
X95858333Y-112607619D01*
X95858333Y-112464761D01*
X95905952Y-112369523D01*
X95953571Y-112321904D01*
X96048809Y-112274285D01*
X96286904Y-112274285D01*
X96382142Y-112321904D01*
X96429761Y-112369523D01*
X96477380Y-112464761D01*
X96477380Y-112750476D01*
X96429761Y-112845714D01*
X96382142Y-112893333D01*
%TO.C,D2*%
X89390380Y-103947095D02*
X88390380Y-103947095D01*
X88390380Y-103709000D01*
X88438000Y-103566142D01*
X88533238Y-103470904D01*
X88628476Y-103423285D01*
X88818952Y-103375666D01*
X88961809Y-103375666D01*
X89152285Y-103423285D01*
X89247523Y-103470904D01*
X89342761Y-103566142D01*
X89390380Y-103709000D01*
X89390380Y-103947095D01*
X88485619Y-102994714D02*
X88438000Y-102947095D01*
X88390380Y-102851857D01*
X88390380Y-102613761D01*
X88438000Y-102518523D01*
X88485619Y-102470904D01*
X88580857Y-102423285D01*
X88676095Y-102423285D01*
X88818952Y-102470904D01*
X89390380Y-103042333D01*
X89390380Y-102423285D01*
%TO.C,C48*%
X162874142Y-104673857D02*
X162921761Y-104721476D01*
X162969380Y-104864333D01*
X162969380Y-104959571D01*
X162921761Y-105102428D01*
X162826523Y-105197666D01*
X162731285Y-105245285D01*
X162540809Y-105292904D01*
X162397952Y-105292904D01*
X162207476Y-105245285D01*
X162112238Y-105197666D01*
X162017000Y-105102428D01*
X161969380Y-104959571D01*
X161969380Y-104864333D01*
X162017000Y-104721476D01*
X162064619Y-104673857D01*
X162302714Y-103816714D02*
X162969380Y-103816714D01*
X161921761Y-104054809D02*
X162636047Y-104292904D01*
X162636047Y-103673857D01*
X162397952Y-103150047D02*
X162350333Y-103245285D01*
X162302714Y-103292904D01*
X162207476Y-103340523D01*
X162159857Y-103340523D01*
X162064619Y-103292904D01*
X162017000Y-103245285D01*
X161969380Y-103150047D01*
X161969380Y-102959571D01*
X162017000Y-102864333D01*
X162064619Y-102816714D01*
X162159857Y-102769095D01*
X162207476Y-102769095D01*
X162302714Y-102816714D01*
X162350333Y-102864333D01*
X162397952Y-102959571D01*
X162397952Y-103150047D01*
X162445571Y-103245285D01*
X162493190Y-103292904D01*
X162588428Y-103340523D01*
X162778904Y-103340523D01*
X162874142Y-103292904D01*
X162921761Y-103245285D01*
X162969380Y-103150047D01*
X162969380Y-102959571D01*
X162921761Y-102864333D01*
X162874142Y-102816714D01*
X162778904Y-102769095D01*
X162588428Y-102769095D01*
X162493190Y-102816714D01*
X162445571Y-102864333D01*
X162397952Y-102959571D01*
%TO.C,C47*%
X118428142Y-99279142D02*
X118380523Y-99326761D01*
X118237666Y-99374380D01*
X118142428Y-99374380D01*
X117999571Y-99326761D01*
X117904333Y-99231523D01*
X117856714Y-99136285D01*
X117809095Y-98945809D01*
X117809095Y-98802952D01*
X117856714Y-98612476D01*
X117904333Y-98517238D01*
X117999571Y-98422000D01*
X118142428Y-98374380D01*
X118237666Y-98374380D01*
X118380523Y-98422000D01*
X118428142Y-98469619D01*
X119285285Y-98707714D02*
X119285285Y-99374380D01*
X119047190Y-98326761D02*
X118809095Y-99041047D01*
X119428142Y-99041047D01*
X119713857Y-98374380D02*
X120380523Y-98374380D01*
X119951952Y-99374380D01*
%TO.C,C46*%
X143187142Y-118224142D02*
X143139523Y-118271761D01*
X142996666Y-118319380D01*
X142901428Y-118319380D01*
X142758571Y-118271761D01*
X142663333Y-118176523D01*
X142615714Y-118081285D01*
X142568095Y-117890809D01*
X142568095Y-117747952D01*
X142615714Y-117557476D01*
X142663333Y-117462238D01*
X142758571Y-117367000D01*
X142901428Y-117319380D01*
X142996666Y-117319380D01*
X143139523Y-117367000D01*
X143187142Y-117414619D01*
X144044285Y-117652714D02*
X144044285Y-118319380D01*
X143806190Y-117271761D02*
X143568095Y-117986047D01*
X144187142Y-117986047D01*
X144996666Y-117319380D02*
X144806190Y-117319380D01*
X144710952Y-117367000D01*
X144663333Y-117414619D01*
X144568095Y-117557476D01*
X144520476Y-117747952D01*
X144520476Y-118128904D01*
X144568095Y-118224142D01*
X144615714Y-118271761D01*
X144710952Y-118319380D01*
X144901428Y-118319380D01*
X144996666Y-118271761D01*
X145044285Y-118224142D01*
X145091904Y-118128904D01*
X145091904Y-117890809D01*
X145044285Y-117795571D01*
X144996666Y-117747952D01*
X144901428Y-117700333D01*
X144710952Y-117700333D01*
X144615714Y-117747952D01*
X144568095Y-117795571D01*
X144520476Y-117890809D01*
%TO.C,C45*%
X131051142Y-66828857D02*
X131098761Y-66876476D01*
X131146380Y-67019333D01*
X131146380Y-67114571D01*
X131098761Y-67257428D01*
X131003523Y-67352666D01*
X130908285Y-67400285D01*
X130717809Y-67447904D01*
X130574952Y-67447904D01*
X130384476Y-67400285D01*
X130289238Y-67352666D01*
X130194000Y-67257428D01*
X130146380Y-67114571D01*
X130146380Y-67019333D01*
X130194000Y-66876476D01*
X130241619Y-66828857D01*
X130479714Y-65971714D02*
X131146380Y-65971714D01*
X130098761Y-66209809D02*
X130813047Y-66447904D01*
X130813047Y-65828857D01*
X130146380Y-64971714D02*
X130146380Y-65447904D01*
X130622571Y-65495523D01*
X130574952Y-65447904D01*
X130527333Y-65352666D01*
X130527333Y-65114571D01*
X130574952Y-65019333D01*
X130622571Y-64971714D01*
X130717809Y-64924095D01*
X130955904Y-64924095D01*
X131051142Y-64971714D01*
X131098761Y-65019333D01*
X131146380Y-65114571D01*
X131146380Y-65352666D01*
X131098761Y-65447904D01*
X131051142Y-65495523D01*
%TO.C,C44*%
X146071142Y-122624142D02*
X146023523Y-122671761D01*
X145880666Y-122719380D01*
X145785428Y-122719380D01*
X145642571Y-122671761D01*
X145547333Y-122576523D01*
X145499714Y-122481285D01*
X145452095Y-122290809D01*
X145452095Y-122147952D01*
X145499714Y-121957476D01*
X145547333Y-121862238D01*
X145642571Y-121767000D01*
X145785428Y-121719380D01*
X145880666Y-121719380D01*
X146023523Y-121767000D01*
X146071142Y-121814619D01*
X146928285Y-122052714D02*
X146928285Y-122719380D01*
X146690190Y-121671761D02*
X146452095Y-122386047D01*
X147071142Y-122386047D01*
X147880666Y-122052714D02*
X147880666Y-122719380D01*
X147642571Y-121671761D02*
X147404476Y-122386047D01*
X148023523Y-122386047D01*
%TO.C,C43*%
X122035142Y-85157857D02*
X122082761Y-85205476D01*
X122130380Y-85348333D01*
X122130380Y-85443571D01*
X122082761Y-85586428D01*
X121987523Y-85681666D01*
X121892285Y-85729285D01*
X121701809Y-85776904D01*
X121558952Y-85776904D01*
X121368476Y-85729285D01*
X121273238Y-85681666D01*
X121178000Y-85586428D01*
X121130380Y-85443571D01*
X121130380Y-85348333D01*
X121178000Y-85205476D01*
X121225619Y-85157857D01*
X121463714Y-84300714D02*
X122130380Y-84300714D01*
X121082761Y-84538809D02*
X121797047Y-84776904D01*
X121797047Y-84157857D01*
X121130380Y-83872142D02*
X121130380Y-83253095D01*
X121511333Y-83586428D01*
X121511333Y-83443571D01*
X121558952Y-83348333D01*
X121606571Y-83300714D01*
X121701809Y-83253095D01*
X121939904Y-83253095D01*
X122035142Y-83300714D01*
X122082761Y-83348333D01*
X122130380Y-83443571D01*
X122130380Y-83729285D01*
X122082761Y-83824523D01*
X122035142Y-83872142D01*
%TO.C,C42*%
X114174142Y-71570857D02*
X114221761Y-71618476D01*
X114269380Y-71761333D01*
X114269380Y-71856571D01*
X114221761Y-71999428D01*
X114126523Y-72094666D01*
X114031285Y-72142285D01*
X113840809Y-72189904D01*
X113697952Y-72189904D01*
X113507476Y-72142285D01*
X113412238Y-72094666D01*
X113317000Y-71999428D01*
X113269380Y-71856571D01*
X113269380Y-71761333D01*
X113317000Y-71618476D01*
X113364619Y-71570857D01*
X113602714Y-70713714D02*
X114269380Y-70713714D01*
X113221761Y-70951809D02*
X113936047Y-71189904D01*
X113936047Y-70570857D01*
X113364619Y-70237523D02*
X113317000Y-70189904D01*
X113269380Y-70094666D01*
X113269380Y-69856571D01*
X113317000Y-69761333D01*
X113364619Y-69713714D01*
X113459857Y-69666095D01*
X113555095Y-69666095D01*
X113697952Y-69713714D01*
X114269380Y-70285142D01*
X114269380Y-69666095D01*
%TO.C,C41*%
X114149142Y-78588857D02*
X114196761Y-78636476D01*
X114244380Y-78779333D01*
X114244380Y-78874571D01*
X114196761Y-79017428D01*
X114101523Y-79112666D01*
X114006285Y-79160285D01*
X113815809Y-79207904D01*
X113672952Y-79207904D01*
X113482476Y-79160285D01*
X113387238Y-79112666D01*
X113292000Y-79017428D01*
X113244380Y-78874571D01*
X113244380Y-78779333D01*
X113292000Y-78636476D01*
X113339619Y-78588857D01*
X113577714Y-77731714D02*
X114244380Y-77731714D01*
X113196761Y-77969809D02*
X113911047Y-78207904D01*
X113911047Y-77588857D01*
X114244380Y-76684095D02*
X114244380Y-77255523D01*
X114244380Y-76969809D02*
X113244380Y-76969809D01*
X113387238Y-77065047D01*
X113482476Y-77160285D01*
X113530095Y-77255523D01*
%TO.C,C40*%
X126092142Y-86541142D02*
X126044523Y-86588761D01*
X125901666Y-86636380D01*
X125806428Y-86636380D01*
X125663571Y-86588761D01*
X125568333Y-86493523D01*
X125520714Y-86398285D01*
X125473095Y-86207809D01*
X125473095Y-86064952D01*
X125520714Y-85874476D01*
X125568333Y-85779238D01*
X125663571Y-85684000D01*
X125806428Y-85636380D01*
X125901666Y-85636380D01*
X126044523Y-85684000D01*
X126092142Y-85731619D01*
X126949285Y-85969714D02*
X126949285Y-86636380D01*
X126711190Y-85588761D02*
X126473095Y-86303047D01*
X127092142Y-86303047D01*
X127663571Y-85636380D02*
X127758809Y-85636380D01*
X127854047Y-85684000D01*
X127901666Y-85731619D01*
X127949285Y-85826857D01*
X127996904Y-86017333D01*
X127996904Y-86255428D01*
X127949285Y-86445904D01*
X127901666Y-86541142D01*
X127854047Y-86588761D01*
X127758809Y-86636380D01*
X127663571Y-86636380D01*
X127568333Y-86588761D01*
X127520714Y-86541142D01*
X127473095Y-86445904D01*
X127425476Y-86255428D01*
X127425476Y-86017333D01*
X127473095Y-85826857D01*
X127520714Y-85731619D01*
X127568333Y-85684000D01*
X127663571Y-85636380D01*
%TO.C,C39*%
X153195142Y-119111857D02*
X153242761Y-119159476D01*
X153290380Y-119302333D01*
X153290380Y-119397571D01*
X153242761Y-119540428D01*
X153147523Y-119635666D01*
X153052285Y-119683285D01*
X152861809Y-119730904D01*
X152718952Y-119730904D01*
X152528476Y-119683285D01*
X152433238Y-119635666D01*
X152338000Y-119540428D01*
X152290380Y-119397571D01*
X152290380Y-119302333D01*
X152338000Y-119159476D01*
X152385619Y-119111857D01*
X152290380Y-118778523D02*
X152290380Y-118159476D01*
X152671333Y-118492809D01*
X152671333Y-118349952D01*
X152718952Y-118254714D01*
X152766571Y-118207095D01*
X152861809Y-118159476D01*
X153099904Y-118159476D01*
X153195142Y-118207095D01*
X153242761Y-118254714D01*
X153290380Y-118349952D01*
X153290380Y-118635666D01*
X153242761Y-118730904D01*
X153195142Y-118778523D01*
X153290380Y-117683285D02*
X153290380Y-117492809D01*
X153242761Y-117397571D01*
X153195142Y-117349952D01*
X153052285Y-117254714D01*
X152861809Y-117207095D01*
X152480857Y-117207095D01*
X152385619Y-117254714D01*
X152338000Y-117302333D01*
X152290380Y-117397571D01*
X152290380Y-117588047D01*
X152338000Y-117683285D01*
X152385619Y-117730904D01*
X152480857Y-117778523D01*
X152718952Y-117778523D01*
X152814190Y-117730904D01*
X152861809Y-117683285D01*
X152909428Y-117588047D01*
X152909428Y-117397571D01*
X152861809Y-117302333D01*
X152814190Y-117254714D01*
X152718952Y-117207095D01*
%TO.C,C38*%
X161114142Y-109199142D02*
X161066523Y-109246761D01*
X160923666Y-109294380D01*
X160828428Y-109294380D01*
X160685571Y-109246761D01*
X160590333Y-109151523D01*
X160542714Y-109056285D01*
X160495095Y-108865809D01*
X160495095Y-108722952D01*
X160542714Y-108532476D01*
X160590333Y-108437238D01*
X160685571Y-108342000D01*
X160828428Y-108294380D01*
X160923666Y-108294380D01*
X161066523Y-108342000D01*
X161114142Y-108389619D01*
X161447476Y-108294380D02*
X162066523Y-108294380D01*
X161733190Y-108675333D01*
X161876047Y-108675333D01*
X161971285Y-108722952D01*
X162018904Y-108770571D01*
X162066523Y-108865809D01*
X162066523Y-109103904D01*
X162018904Y-109199142D01*
X161971285Y-109246761D01*
X161876047Y-109294380D01*
X161590333Y-109294380D01*
X161495095Y-109246761D01*
X161447476Y-109199142D01*
X162637952Y-108722952D02*
X162542714Y-108675333D01*
X162495095Y-108627714D01*
X162447476Y-108532476D01*
X162447476Y-108484857D01*
X162495095Y-108389619D01*
X162542714Y-108342000D01*
X162637952Y-108294380D01*
X162828428Y-108294380D01*
X162923666Y-108342000D01*
X162971285Y-108389619D01*
X163018904Y-108484857D01*
X163018904Y-108532476D01*
X162971285Y-108627714D01*
X162923666Y-108675333D01*
X162828428Y-108722952D01*
X162637952Y-108722952D01*
X162542714Y-108770571D01*
X162495095Y-108818190D01*
X162447476Y-108913428D01*
X162447476Y-109103904D01*
X162495095Y-109199142D01*
X162542714Y-109246761D01*
X162637952Y-109294380D01*
X162828428Y-109294380D01*
X162923666Y-109246761D01*
X162971285Y-109199142D01*
X163018904Y-109103904D01*
X163018904Y-108913428D01*
X162971285Y-108818190D01*
X162923666Y-108770571D01*
X162828428Y-108722952D01*
%TO.C,C37*%
X160331142Y-120230857D02*
X160378761Y-120278476D01*
X160426380Y-120421333D01*
X160426380Y-120516571D01*
X160378761Y-120659428D01*
X160283523Y-120754666D01*
X160188285Y-120802285D01*
X159997809Y-120849904D01*
X159854952Y-120849904D01*
X159664476Y-120802285D01*
X159569238Y-120754666D01*
X159474000Y-120659428D01*
X159426380Y-120516571D01*
X159426380Y-120421333D01*
X159474000Y-120278476D01*
X159521619Y-120230857D01*
X159426380Y-119897523D02*
X159426380Y-119278476D01*
X159807333Y-119611809D01*
X159807333Y-119468952D01*
X159854952Y-119373714D01*
X159902571Y-119326095D01*
X159997809Y-119278476D01*
X160235904Y-119278476D01*
X160331142Y-119326095D01*
X160378761Y-119373714D01*
X160426380Y-119468952D01*
X160426380Y-119754666D01*
X160378761Y-119849904D01*
X160331142Y-119897523D01*
X159426380Y-118945142D02*
X159426380Y-118278476D01*
X160426380Y-118707047D01*
%TO.C,C36*%
X150227142Y-122686142D02*
X150179523Y-122733761D01*
X150036666Y-122781380D01*
X149941428Y-122781380D01*
X149798571Y-122733761D01*
X149703333Y-122638523D01*
X149655714Y-122543285D01*
X149608095Y-122352809D01*
X149608095Y-122209952D01*
X149655714Y-122019476D01*
X149703333Y-121924238D01*
X149798571Y-121829000D01*
X149941428Y-121781380D01*
X150036666Y-121781380D01*
X150179523Y-121829000D01*
X150227142Y-121876619D01*
X150560476Y-121781380D02*
X151179523Y-121781380D01*
X150846190Y-122162333D01*
X150989047Y-122162333D01*
X151084285Y-122209952D01*
X151131904Y-122257571D01*
X151179523Y-122352809D01*
X151179523Y-122590904D01*
X151131904Y-122686142D01*
X151084285Y-122733761D01*
X150989047Y-122781380D01*
X150703333Y-122781380D01*
X150608095Y-122733761D01*
X150560476Y-122686142D01*
X152036666Y-121781380D02*
X151846190Y-121781380D01*
X151750952Y-121829000D01*
X151703333Y-121876619D01*
X151608095Y-122019476D01*
X151560476Y-122209952D01*
X151560476Y-122590904D01*
X151608095Y-122686142D01*
X151655714Y-122733761D01*
X151750952Y-122781380D01*
X151941428Y-122781380D01*
X152036666Y-122733761D01*
X152084285Y-122686142D01*
X152131904Y-122590904D01*
X152131904Y-122352809D01*
X152084285Y-122257571D01*
X152036666Y-122209952D01*
X151941428Y-122162333D01*
X151750952Y-122162333D01*
X151655714Y-122209952D01*
X151608095Y-122257571D01*
X151560476Y-122352809D01*
%TO.C,C35*%
X124573142Y-86029857D02*
X124620761Y-86077476D01*
X124668380Y-86220333D01*
X124668380Y-86315571D01*
X124620761Y-86458428D01*
X124525523Y-86553666D01*
X124430285Y-86601285D01*
X124239809Y-86648904D01*
X124096952Y-86648904D01*
X123906476Y-86601285D01*
X123811238Y-86553666D01*
X123716000Y-86458428D01*
X123668380Y-86315571D01*
X123668380Y-86220333D01*
X123716000Y-86077476D01*
X123763619Y-86029857D01*
X123668380Y-85696523D02*
X123668380Y-85077476D01*
X124049333Y-85410809D01*
X124049333Y-85267952D01*
X124096952Y-85172714D01*
X124144571Y-85125095D01*
X124239809Y-85077476D01*
X124477904Y-85077476D01*
X124573142Y-85125095D01*
X124620761Y-85172714D01*
X124668380Y-85267952D01*
X124668380Y-85553666D01*
X124620761Y-85648904D01*
X124573142Y-85696523D01*
X123668380Y-84172714D02*
X123668380Y-84648904D01*
X124144571Y-84696523D01*
X124096952Y-84648904D01*
X124049333Y-84553666D01*
X124049333Y-84315571D01*
X124096952Y-84220333D01*
X124144571Y-84172714D01*
X124239809Y-84125095D01*
X124477904Y-84125095D01*
X124573142Y-84172714D01*
X124620761Y-84220333D01*
X124668380Y-84315571D01*
X124668380Y-84553666D01*
X124620761Y-84648904D01*
X124573142Y-84696523D01*
%TO.C,C34*%
X131796142Y-94362142D02*
X131748523Y-94409761D01*
X131605666Y-94457380D01*
X131510428Y-94457380D01*
X131367571Y-94409761D01*
X131272333Y-94314523D01*
X131224714Y-94219285D01*
X131177095Y-94028809D01*
X131177095Y-93885952D01*
X131224714Y-93695476D01*
X131272333Y-93600238D01*
X131367571Y-93505000D01*
X131510428Y-93457380D01*
X131605666Y-93457380D01*
X131748523Y-93505000D01*
X131796142Y-93552619D01*
X132129476Y-93457380D02*
X132748523Y-93457380D01*
X132415190Y-93838333D01*
X132558047Y-93838333D01*
X132653285Y-93885952D01*
X132700904Y-93933571D01*
X132748523Y-94028809D01*
X132748523Y-94266904D01*
X132700904Y-94362142D01*
X132653285Y-94409761D01*
X132558047Y-94457380D01*
X132272333Y-94457380D01*
X132177095Y-94409761D01*
X132129476Y-94362142D01*
X133605666Y-93790714D02*
X133605666Y-94457380D01*
X133367571Y-93409761D02*
X133129476Y-94124047D01*
X133748523Y-94124047D01*
%TO.C,C33*%
X144018142Y-104940857D02*
X144065761Y-104988476D01*
X144113380Y-105131333D01*
X144113380Y-105226571D01*
X144065761Y-105369428D01*
X143970523Y-105464666D01*
X143875285Y-105512285D01*
X143684809Y-105559904D01*
X143541952Y-105559904D01*
X143351476Y-105512285D01*
X143256238Y-105464666D01*
X143161000Y-105369428D01*
X143113380Y-105226571D01*
X143113380Y-105131333D01*
X143161000Y-104988476D01*
X143208619Y-104940857D01*
X143113380Y-104607523D02*
X143113380Y-103988476D01*
X143494333Y-104321809D01*
X143494333Y-104178952D01*
X143541952Y-104083714D01*
X143589571Y-104036095D01*
X143684809Y-103988476D01*
X143922904Y-103988476D01*
X144018142Y-104036095D01*
X144065761Y-104083714D01*
X144113380Y-104178952D01*
X144113380Y-104464666D01*
X144065761Y-104559904D01*
X144018142Y-104607523D01*
X143113380Y-103655142D02*
X143113380Y-103036095D01*
X143494333Y-103369428D01*
X143494333Y-103226571D01*
X143541952Y-103131333D01*
X143589571Y-103083714D01*
X143684809Y-103036095D01*
X143922904Y-103036095D01*
X144018142Y-103083714D01*
X144065761Y-103131333D01*
X144113380Y-103226571D01*
X144113380Y-103512285D01*
X144065761Y-103607523D01*
X144018142Y-103655142D01*
%TO.C,C32*%
X160272142Y-93854857D02*
X160319761Y-93902476D01*
X160367380Y-94045333D01*
X160367380Y-94140571D01*
X160319761Y-94283428D01*
X160224523Y-94378666D01*
X160129285Y-94426285D01*
X159938809Y-94473904D01*
X159795952Y-94473904D01*
X159605476Y-94426285D01*
X159510238Y-94378666D01*
X159415000Y-94283428D01*
X159367380Y-94140571D01*
X159367380Y-94045333D01*
X159415000Y-93902476D01*
X159462619Y-93854857D01*
X159367380Y-93521523D02*
X159367380Y-92902476D01*
X159748333Y-93235809D01*
X159748333Y-93092952D01*
X159795952Y-92997714D01*
X159843571Y-92950095D01*
X159938809Y-92902476D01*
X160176904Y-92902476D01*
X160272142Y-92950095D01*
X160319761Y-92997714D01*
X160367380Y-93092952D01*
X160367380Y-93378666D01*
X160319761Y-93473904D01*
X160272142Y-93521523D01*
X159462619Y-92521523D02*
X159415000Y-92473904D01*
X159367380Y-92378666D01*
X159367380Y-92140571D01*
X159415000Y-92045333D01*
X159462619Y-91997714D01*
X159557857Y-91950095D01*
X159653095Y-91950095D01*
X159795952Y-91997714D01*
X160367380Y-92569142D01*
X160367380Y-91950095D01*
%TO.C,C31*%
X142369142Y-80458857D02*
X142416761Y-80506476D01*
X142464380Y-80649333D01*
X142464380Y-80744571D01*
X142416761Y-80887428D01*
X142321523Y-80982666D01*
X142226285Y-81030285D01*
X142035809Y-81077904D01*
X141892952Y-81077904D01*
X141702476Y-81030285D01*
X141607238Y-80982666D01*
X141512000Y-80887428D01*
X141464380Y-80744571D01*
X141464380Y-80649333D01*
X141512000Y-80506476D01*
X141559619Y-80458857D01*
X141464380Y-80125523D02*
X141464380Y-79506476D01*
X141845333Y-79839809D01*
X141845333Y-79696952D01*
X141892952Y-79601714D01*
X141940571Y-79554095D01*
X142035809Y-79506476D01*
X142273904Y-79506476D01*
X142369142Y-79554095D01*
X142416761Y-79601714D01*
X142464380Y-79696952D01*
X142464380Y-79982666D01*
X142416761Y-80077904D01*
X142369142Y-80125523D01*
X142464380Y-78554095D02*
X142464380Y-79125523D01*
X142464380Y-78839809D02*
X141464380Y-78839809D01*
X141607238Y-78935047D01*
X141702476Y-79030285D01*
X141750095Y-79125523D01*
%TO.C,C30*%
X132813142Y-118572857D02*
X132860761Y-118620476D01*
X132908380Y-118763333D01*
X132908380Y-118858571D01*
X132860761Y-119001428D01*
X132765523Y-119096666D01*
X132670285Y-119144285D01*
X132479809Y-119191904D01*
X132336952Y-119191904D01*
X132146476Y-119144285D01*
X132051238Y-119096666D01*
X131956000Y-119001428D01*
X131908380Y-118858571D01*
X131908380Y-118763333D01*
X131956000Y-118620476D01*
X132003619Y-118572857D01*
X131908380Y-118239523D02*
X131908380Y-117620476D01*
X132289333Y-117953809D01*
X132289333Y-117810952D01*
X132336952Y-117715714D01*
X132384571Y-117668095D01*
X132479809Y-117620476D01*
X132717904Y-117620476D01*
X132813142Y-117668095D01*
X132860761Y-117715714D01*
X132908380Y-117810952D01*
X132908380Y-118096666D01*
X132860761Y-118191904D01*
X132813142Y-118239523D01*
X131908380Y-117001428D02*
X131908380Y-116906190D01*
X131956000Y-116810952D01*
X132003619Y-116763333D01*
X132098857Y-116715714D01*
X132289333Y-116668095D01*
X132527428Y-116668095D01*
X132717904Y-116715714D01*
X132813142Y-116763333D01*
X132860761Y-116810952D01*
X132908380Y-116906190D01*
X132908380Y-117001428D01*
X132860761Y-117096666D01*
X132813142Y-117144285D01*
X132717904Y-117191904D01*
X132527428Y-117239523D01*
X132289333Y-117239523D01*
X132098857Y-117191904D01*
X132003619Y-117144285D01*
X131956000Y-117096666D01*
X131908380Y-117001428D01*
%TO.C,C29*%
X141950142Y-108213142D02*
X141902523Y-108260761D01*
X141759666Y-108308380D01*
X141664428Y-108308380D01*
X141521571Y-108260761D01*
X141426333Y-108165523D01*
X141378714Y-108070285D01*
X141331095Y-107879809D01*
X141331095Y-107736952D01*
X141378714Y-107546476D01*
X141426333Y-107451238D01*
X141521571Y-107356000D01*
X141664428Y-107308380D01*
X141759666Y-107308380D01*
X141902523Y-107356000D01*
X141950142Y-107403619D01*
X142331095Y-107403619D02*
X142378714Y-107356000D01*
X142473952Y-107308380D01*
X142712047Y-107308380D01*
X142807285Y-107356000D01*
X142854904Y-107403619D01*
X142902523Y-107498857D01*
X142902523Y-107594095D01*
X142854904Y-107736952D01*
X142283476Y-108308380D01*
X142902523Y-108308380D01*
X143378714Y-108308380D02*
X143569190Y-108308380D01*
X143664428Y-108260761D01*
X143712047Y-108213142D01*
X143807285Y-108070285D01*
X143854904Y-107879809D01*
X143854904Y-107498857D01*
X143807285Y-107403619D01*
X143759666Y-107356000D01*
X143664428Y-107308380D01*
X143473952Y-107308380D01*
X143378714Y-107356000D01*
X143331095Y-107403619D01*
X143283476Y-107498857D01*
X143283476Y-107736952D01*
X143331095Y-107832190D01*
X143378714Y-107879809D01*
X143473952Y-107927428D01*
X143664428Y-107927428D01*
X143759666Y-107879809D01*
X143807285Y-107832190D01*
X143854904Y-107736952D01*
%TO.C,C27*%
X144658142Y-80809857D02*
X144705761Y-80857476D01*
X144753380Y-81000333D01*
X144753380Y-81095571D01*
X144705761Y-81238428D01*
X144610523Y-81333666D01*
X144515285Y-81381285D01*
X144324809Y-81428904D01*
X144181952Y-81428904D01*
X143991476Y-81381285D01*
X143896238Y-81333666D01*
X143801000Y-81238428D01*
X143753380Y-81095571D01*
X143753380Y-81000333D01*
X143801000Y-80857476D01*
X143848619Y-80809857D01*
X143848619Y-80428904D02*
X143801000Y-80381285D01*
X143753380Y-80286047D01*
X143753380Y-80047952D01*
X143801000Y-79952714D01*
X143848619Y-79905095D01*
X143943857Y-79857476D01*
X144039095Y-79857476D01*
X144181952Y-79905095D01*
X144753380Y-80476523D01*
X144753380Y-79857476D01*
X143753380Y-79524142D02*
X143753380Y-78857476D01*
X144753380Y-79286047D01*
%TO.C,C26*%
X104909142Y-99514142D02*
X104861523Y-99561761D01*
X104718666Y-99609380D01*
X104623428Y-99609380D01*
X104480571Y-99561761D01*
X104385333Y-99466523D01*
X104337714Y-99371285D01*
X104290095Y-99180809D01*
X104290095Y-99037952D01*
X104337714Y-98847476D01*
X104385333Y-98752238D01*
X104480571Y-98657000D01*
X104623428Y-98609380D01*
X104718666Y-98609380D01*
X104861523Y-98657000D01*
X104909142Y-98704619D01*
X105290095Y-98704619D02*
X105337714Y-98657000D01*
X105432952Y-98609380D01*
X105671047Y-98609380D01*
X105766285Y-98657000D01*
X105813904Y-98704619D01*
X105861523Y-98799857D01*
X105861523Y-98895095D01*
X105813904Y-99037952D01*
X105242476Y-99609380D01*
X105861523Y-99609380D01*
X106718666Y-98609380D02*
X106528190Y-98609380D01*
X106432952Y-98657000D01*
X106385333Y-98704619D01*
X106290095Y-98847476D01*
X106242476Y-99037952D01*
X106242476Y-99418904D01*
X106290095Y-99514142D01*
X106337714Y-99561761D01*
X106432952Y-99609380D01*
X106623428Y-99609380D01*
X106718666Y-99561761D01*
X106766285Y-99514142D01*
X106813904Y-99418904D01*
X106813904Y-99180809D01*
X106766285Y-99085571D01*
X106718666Y-99037952D01*
X106623428Y-98990333D01*
X106432952Y-98990333D01*
X106337714Y-99037952D01*
X106290095Y-99085571D01*
X106242476Y-99180809D01*
%TO.C,C25*%
X118264142Y-89521142D02*
X118216523Y-89568761D01*
X118073666Y-89616380D01*
X117978428Y-89616380D01*
X117835571Y-89568761D01*
X117740333Y-89473523D01*
X117692714Y-89378285D01*
X117645095Y-89187809D01*
X117645095Y-89044952D01*
X117692714Y-88854476D01*
X117740333Y-88759238D01*
X117835571Y-88664000D01*
X117978428Y-88616380D01*
X118073666Y-88616380D01*
X118216523Y-88664000D01*
X118264142Y-88711619D01*
X118645095Y-88711619D02*
X118692714Y-88664000D01*
X118787952Y-88616380D01*
X119026047Y-88616380D01*
X119121285Y-88664000D01*
X119168904Y-88711619D01*
X119216523Y-88806857D01*
X119216523Y-88902095D01*
X119168904Y-89044952D01*
X118597476Y-89616380D01*
X119216523Y-89616380D01*
X120121285Y-88616380D02*
X119645095Y-88616380D01*
X119597476Y-89092571D01*
X119645095Y-89044952D01*
X119740333Y-88997333D01*
X119978428Y-88997333D01*
X120073666Y-89044952D01*
X120121285Y-89092571D01*
X120168904Y-89187809D01*
X120168904Y-89425904D01*
X120121285Y-89521142D01*
X120073666Y-89568761D01*
X119978428Y-89616380D01*
X119740333Y-89616380D01*
X119645095Y-89568761D01*
X119597476Y-89521142D01*
%TO.C,C24*%
X151266142Y-105097142D02*
X151218523Y-105144761D01*
X151075666Y-105192380D01*
X150980428Y-105192380D01*
X150837571Y-105144761D01*
X150742333Y-105049523D01*
X150694714Y-104954285D01*
X150647095Y-104763809D01*
X150647095Y-104620952D01*
X150694714Y-104430476D01*
X150742333Y-104335238D01*
X150837571Y-104240000D01*
X150980428Y-104192380D01*
X151075666Y-104192380D01*
X151218523Y-104240000D01*
X151266142Y-104287619D01*
X151647095Y-104287619D02*
X151694714Y-104240000D01*
X151789952Y-104192380D01*
X152028047Y-104192380D01*
X152123285Y-104240000D01*
X152170904Y-104287619D01*
X152218523Y-104382857D01*
X152218523Y-104478095D01*
X152170904Y-104620952D01*
X151599476Y-105192380D01*
X152218523Y-105192380D01*
X153075666Y-104525714D02*
X153075666Y-105192380D01*
X152837571Y-104144761D02*
X152599476Y-104859047D01*
X153218523Y-104859047D01*
%TO.C,C22*%
X146608142Y-80477857D02*
X146655761Y-80525476D01*
X146703380Y-80668333D01*
X146703380Y-80763571D01*
X146655761Y-80906428D01*
X146560523Y-81001666D01*
X146465285Y-81049285D01*
X146274809Y-81096904D01*
X146131952Y-81096904D01*
X145941476Y-81049285D01*
X145846238Y-81001666D01*
X145751000Y-80906428D01*
X145703380Y-80763571D01*
X145703380Y-80668333D01*
X145751000Y-80525476D01*
X145798619Y-80477857D01*
X145798619Y-80096904D02*
X145751000Y-80049285D01*
X145703380Y-79954047D01*
X145703380Y-79715952D01*
X145751000Y-79620714D01*
X145798619Y-79573095D01*
X145893857Y-79525476D01*
X145989095Y-79525476D01*
X146131952Y-79573095D01*
X146703380Y-80144523D01*
X146703380Y-79525476D01*
X145798619Y-79144523D02*
X145751000Y-79096904D01*
X145703380Y-79001666D01*
X145703380Y-78763571D01*
X145751000Y-78668333D01*
X145798619Y-78620714D01*
X145893857Y-78573095D01*
X145989095Y-78573095D01*
X146131952Y-78620714D01*
X146703380Y-79192142D01*
X146703380Y-78573095D01*
%TO.C,C21*%
X148955142Y-58779142D02*
X148907523Y-58826761D01*
X148764666Y-58874380D01*
X148669428Y-58874380D01*
X148526571Y-58826761D01*
X148431333Y-58731523D01*
X148383714Y-58636285D01*
X148336095Y-58445809D01*
X148336095Y-58302952D01*
X148383714Y-58112476D01*
X148431333Y-58017238D01*
X148526571Y-57922000D01*
X148669428Y-57874380D01*
X148764666Y-57874380D01*
X148907523Y-57922000D01*
X148955142Y-57969619D01*
X149336095Y-57969619D02*
X149383714Y-57922000D01*
X149478952Y-57874380D01*
X149717047Y-57874380D01*
X149812285Y-57922000D01*
X149859904Y-57969619D01*
X149907523Y-58064857D01*
X149907523Y-58160095D01*
X149859904Y-58302952D01*
X149288476Y-58874380D01*
X149907523Y-58874380D01*
X150859904Y-58874380D02*
X150288476Y-58874380D01*
X150574190Y-58874380D02*
X150574190Y-57874380D01*
X150478952Y-58017238D01*
X150383714Y-58112476D01*
X150288476Y-58160095D01*
%TO.C,C20*%
X162920142Y-67026857D02*
X162967761Y-67074476D01*
X163015380Y-67217333D01*
X163015380Y-67312571D01*
X162967761Y-67455428D01*
X162872523Y-67550666D01*
X162777285Y-67598285D01*
X162586809Y-67645904D01*
X162443952Y-67645904D01*
X162253476Y-67598285D01*
X162158238Y-67550666D01*
X162063000Y-67455428D01*
X162015380Y-67312571D01*
X162015380Y-67217333D01*
X162063000Y-67074476D01*
X162110619Y-67026857D01*
X162110619Y-66645904D02*
X162063000Y-66598285D01*
X162015380Y-66503047D01*
X162015380Y-66264952D01*
X162063000Y-66169714D01*
X162110619Y-66122095D01*
X162205857Y-66074476D01*
X162301095Y-66074476D01*
X162443952Y-66122095D01*
X163015380Y-66693523D01*
X163015380Y-66074476D01*
X162015380Y-65455428D02*
X162015380Y-65360190D01*
X162063000Y-65264952D01*
X162110619Y-65217333D01*
X162205857Y-65169714D01*
X162396333Y-65122095D01*
X162634428Y-65122095D01*
X162824904Y-65169714D01*
X162920142Y-65217333D01*
X162967761Y-65264952D01*
X163015380Y-65360190D01*
X163015380Y-65455428D01*
X162967761Y-65550666D01*
X162920142Y-65598285D01*
X162824904Y-65645904D01*
X162634428Y-65693523D01*
X162396333Y-65693523D01*
X162205857Y-65645904D01*
X162110619Y-65598285D01*
X162063000Y-65550666D01*
X162015380Y-65455428D01*
%TO.C,C19*%
X168416142Y-65049142D02*
X168368523Y-65096761D01*
X168225666Y-65144380D01*
X168130428Y-65144380D01*
X167987571Y-65096761D01*
X167892333Y-65001523D01*
X167844714Y-64906285D01*
X167797095Y-64715809D01*
X167797095Y-64572952D01*
X167844714Y-64382476D01*
X167892333Y-64287238D01*
X167987571Y-64192000D01*
X168130428Y-64144380D01*
X168225666Y-64144380D01*
X168368523Y-64192000D01*
X168416142Y-64239619D01*
X169368523Y-65144380D02*
X168797095Y-65144380D01*
X169082809Y-65144380D02*
X169082809Y-64144380D01*
X168987571Y-64287238D01*
X168892333Y-64382476D01*
X168797095Y-64430095D01*
X169844714Y-65144380D02*
X170035190Y-65144380D01*
X170130428Y-65096761D01*
X170178047Y-65049142D01*
X170273285Y-64906285D01*
X170320904Y-64715809D01*
X170320904Y-64334857D01*
X170273285Y-64239619D01*
X170225666Y-64192000D01*
X170130428Y-64144380D01*
X169939952Y-64144380D01*
X169844714Y-64192000D01*
X169797095Y-64239619D01*
X169749476Y-64334857D01*
X169749476Y-64572952D01*
X169797095Y-64668190D01*
X169844714Y-64715809D01*
X169939952Y-64763428D01*
X170130428Y-64763428D01*
X170225666Y-64715809D01*
X170273285Y-64668190D01*
X170320904Y-64572952D01*
%TO.C,C18*%
X146639142Y-61662857D02*
X146686761Y-61710476D01*
X146734380Y-61853333D01*
X146734380Y-61948571D01*
X146686761Y-62091428D01*
X146591523Y-62186666D01*
X146496285Y-62234285D01*
X146305809Y-62281904D01*
X146162952Y-62281904D01*
X145972476Y-62234285D01*
X145877238Y-62186666D01*
X145782000Y-62091428D01*
X145734380Y-61948571D01*
X145734380Y-61853333D01*
X145782000Y-61710476D01*
X145829619Y-61662857D01*
X146734380Y-60710476D02*
X146734380Y-61281904D01*
X146734380Y-60996190D02*
X145734380Y-60996190D01*
X145877238Y-61091428D01*
X145972476Y-61186666D01*
X146020095Y-61281904D01*
X146162952Y-60139047D02*
X146115333Y-60234285D01*
X146067714Y-60281904D01*
X145972476Y-60329523D01*
X145924857Y-60329523D01*
X145829619Y-60281904D01*
X145782000Y-60234285D01*
X145734380Y-60139047D01*
X145734380Y-59948571D01*
X145782000Y-59853333D01*
X145829619Y-59805714D01*
X145924857Y-59758095D01*
X145972476Y-59758095D01*
X146067714Y-59805714D01*
X146115333Y-59853333D01*
X146162952Y-59948571D01*
X146162952Y-60139047D01*
X146210571Y-60234285D01*
X146258190Y-60281904D01*
X146353428Y-60329523D01*
X146543904Y-60329523D01*
X146639142Y-60281904D01*
X146686761Y-60234285D01*
X146734380Y-60139047D01*
X146734380Y-59948571D01*
X146686761Y-59853333D01*
X146639142Y-59805714D01*
X146543904Y-59758095D01*
X146353428Y-59758095D01*
X146258190Y-59805714D01*
X146210571Y-59853333D01*
X146162952Y-59948571D01*
%TO.C,C17*%
X140447142Y-80393857D02*
X140494761Y-80441476D01*
X140542380Y-80584333D01*
X140542380Y-80679571D01*
X140494761Y-80822428D01*
X140399523Y-80917666D01*
X140304285Y-80965285D01*
X140113809Y-81012904D01*
X139970952Y-81012904D01*
X139780476Y-80965285D01*
X139685238Y-80917666D01*
X139590000Y-80822428D01*
X139542380Y-80679571D01*
X139542380Y-80584333D01*
X139590000Y-80441476D01*
X139637619Y-80393857D01*
X140542380Y-79441476D02*
X140542380Y-80012904D01*
X140542380Y-79727190D02*
X139542380Y-79727190D01*
X139685238Y-79822428D01*
X139780476Y-79917666D01*
X139828095Y-80012904D01*
X139542380Y-79108142D02*
X139542380Y-78441476D01*
X140542380Y-78870047D01*
%TO.C,C16*%
X120114142Y-63835857D02*
X120161761Y-63883476D01*
X120209380Y-64026333D01*
X120209380Y-64121571D01*
X120161761Y-64264428D01*
X120066523Y-64359666D01*
X119971285Y-64407285D01*
X119780809Y-64454904D01*
X119637952Y-64454904D01*
X119447476Y-64407285D01*
X119352238Y-64359666D01*
X119257000Y-64264428D01*
X119209380Y-64121571D01*
X119209380Y-64026333D01*
X119257000Y-63883476D01*
X119304619Y-63835857D01*
X120209380Y-62883476D02*
X120209380Y-63454904D01*
X120209380Y-63169190D02*
X119209380Y-63169190D01*
X119352238Y-63264428D01*
X119447476Y-63359666D01*
X119495095Y-63454904D01*
X119209380Y-62026333D02*
X119209380Y-62216809D01*
X119257000Y-62312047D01*
X119304619Y-62359666D01*
X119447476Y-62454904D01*
X119637952Y-62502523D01*
X120018904Y-62502523D01*
X120114142Y-62454904D01*
X120161761Y-62407285D01*
X120209380Y-62312047D01*
X120209380Y-62121571D01*
X120161761Y-62026333D01*
X120114142Y-61978714D01*
X120018904Y-61931095D01*
X119780809Y-61931095D01*
X119685571Y-61978714D01*
X119637952Y-62026333D01*
X119590333Y-62121571D01*
X119590333Y-62312047D01*
X119637952Y-62407285D01*
X119685571Y-62454904D01*
X119780809Y-62502523D01*
%TO.C,C15*%
X158309142Y-110132857D02*
X158356761Y-110180476D01*
X158404380Y-110323333D01*
X158404380Y-110418571D01*
X158356761Y-110561428D01*
X158261523Y-110656666D01*
X158166285Y-110704285D01*
X157975809Y-110751904D01*
X157832952Y-110751904D01*
X157642476Y-110704285D01*
X157547238Y-110656666D01*
X157452000Y-110561428D01*
X157404380Y-110418571D01*
X157404380Y-110323333D01*
X157452000Y-110180476D01*
X157499619Y-110132857D01*
X158404380Y-109180476D02*
X158404380Y-109751904D01*
X158404380Y-109466190D02*
X157404380Y-109466190D01*
X157547238Y-109561428D01*
X157642476Y-109656666D01*
X157690095Y-109751904D01*
X157404380Y-108275714D02*
X157404380Y-108751904D01*
X157880571Y-108799523D01*
X157832952Y-108751904D01*
X157785333Y-108656666D01*
X157785333Y-108418571D01*
X157832952Y-108323333D01*
X157880571Y-108275714D01*
X157975809Y-108228095D01*
X158213904Y-108228095D01*
X158309142Y-108275714D01*
X158356761Y-108323333D01*
X158404380Y-108418571D01*
X158404380Y-108656666D01*
X158356761Y-108751904D01*
X158309142Y-108799523D01*
%TO.C,C14*%
X145126142Y-95911142D02*
X145078523Y-95958761D01*
X144935666Y-96006380D01*
X144840428Y-96006380D01*
X144697571Y-95958761D01*
X144602333Y-95863523D01*
X144554714Y-95768285D01*
X144507095Y-95577809D01*
X144507095Y-95434952D01*
X144554714Y-95244476D01*
X144602333Y-95149238D01*
X144697571Y-95054000D01*
X144840428Y-95006380D01*
X144935666Y-95006380D01*
X145078523Y-95054000D01*
X145126142Y-95101619D01*
X146078523Y-96006380D02*
X145507095Y-96006380D01*
X145792809Y-96006380D02*
X145792809Y-95006380D01*
X145697571Y-95149238D01*
X145602333Y-95244476D01*
X145507095Y-95292095D01*
X146935666Y-95339714D02*
X146935666Y-96006380D01*
X146697571Y-94958761D02*
X146459476Y-95673047D01*
X147078523Y-95673047D01*
%TO.C,C13*%
X113578142Y-66874857D02*
X113625761Y-66922476D01*
X113673380Y-67065333D01*
X113673380Y-67160571D01*
X113625761Y-67303428D01*
X113530523Y-67398666D01*
X113435285Y-67446285D01*
X113244809Y-67493904D01*
X113101952Y-67493904D01*
X112911476Y-67446285D01*
X112816238Y-67398666D01*
X112721000Y-67303428D01*
X112673380Y-67160571D01*
X112673380Y-67065333D01*
X112721000Y-66922476D01*
X112768619Y-66874857D01*
X113673380Y-65922476D02*
X113673380Y-66493904D01*
X113673380Y-66208190D02*
X112673380Y-66208190D01*
X112816238Y-66303428D01*
X112911476Y-66398666D01*
X112959095Y-66493904D01*
X112673380Y-65589142D02*
X112673380Y-64970095D01*
X113054333Y-65303428D01*
X113054333Y-65160571D01*
X113101952Y-65065333D01*
X113149571Y-65017714D01*
X113244809Y-64970095D01*
X113482904Y-64970095D01*
X113578142Y-65017714D01*
X113625761Y-65065333D01*
X113673380Y-65160571D01*
X113673380Y-65446285D01*
X113625761Y-65541523D01*
X113578142Y-65589142D01*
%TO.C,C12*%
X107050142Y-65645857D02*
X107097761Y-65693476D01*
X107145380Y-65836333D01*
X107145380Y-65931571D01*
X107097761Y-66074428D01*
X107002523Y-66169666D01*
X106907285Y-66217285D01*
X106716809Y-66264904D01*
X106573952Y-66264904D01*
X106383476Y-66217285D01*
X106288238Y-66169666D01*
X106193000Y-66074428D01*
X106145380Y-65931571D01*
X106145380Y-65836333D01*
X106193000Y-65693476D01*
X106240619Y-65645857D01*
X107145380Y-64693476D02*
X107145380Y-65264904D01*
X107145380Y-64979190D02*
X106145380Y-64979190D01*
X106288238Y-65074428D01*
X106383476Y-65169666D01*
X106431095Y-65264904D01*
X106240619Y-64312523D02*
X106193000Y-64264904D01*
X106145380Y-64169666D01*
X106145380Y-63931571D01*
X106193000Y-63836333D01*
X106240619Y-63788714D01*
X106335857Y-63741095D01*
X106431095Y-63741095D01*
X106573952Y-63788714D01*
X107145380Y-64360142D01*
X107145380Y-63741095D01*
%TO.C,C11*%
X117994142Y-121864857D02*
X118041761Y-121912476D01*
X118089380Y-122055333D01*
X118089380Y-122150571D01*
X118041761Y-122293428D01*
X117946523Y-122388666D01*
X117851285Y-122436285D01*
X117660809Y-122483904D01*
X117517952Y-122483904D01*
X117327476Y-122436285D01*
X117232238Y-122388666D01*
X117137000Y-122293428D01*
X117089380Y-122150571D01*
X117089380Y-122055333D01*
X117137000Y-121912476D01*
X117184619Y-121864857D01*
X118089380Y-120912476D02*
X118089380Y-121483904D01*
X118089380Y-121198190D02*
X117089380Y-121198190D01*
X117232238Y-121293428D01*
X117327476Y-121388666D01*
X117375095Y-121483904D01*
X118089380Y-119960095D02*
X118089380Y-120531523D01*
X118089380Y-120245809D02*
X117089380Y-120245809D01*
X117232238Y-120341047D01*
X117327476Y-120436285D01*
X117375095Y-120531523D01*
%TO.C,C10*%
X103598142Y-66796857D02*
X103645761Y-66844476D01*
X103693380Y-66987333D01*
X103693380Y-67082571D01*
X103645761Y-67225428D01*
X103550523Y-67320666D01*
X103455285Y-67368285D01*
X103264809Y-67415904D01*
X103121952Y-67415904D01*
X102931476Y-67368285D01*
X102836238Y-67320666D01*
X102741000Y-67225428D01*
X102693380Y-67082571D01*
X102693380Y-66987333D01*
X102741000Y-66844476D01*
X102788619Y-66796857D01*
X103693380Y-65844476D02*
X103693380Y-66415904D01*
X103693380Y-66130190D02*
X102693380Y-66130190D01*
X102836238Y-66225428D01*
X102931476Y-66320666D01*
X102979095Y-66415904D01*
X102693380Y-65225428D02*
X102693380Y-65130190D01*
X102741000Y-65034952D01*
X102788619Y-64987333D01*
X102883857Y-64939714D01*
X103074333Y-64892095D01*
X103312428Y-64892095D01*
X103502904Y-64939714D01*
X103598142Y-64987333D01*
X103645761Y-65034952D01*
X103693380Y-65130190D01*
X103693380Y-65225428D01*
X103645761Y-65320666D01*
X103598142Y-65368285D01*
X103502904Y-65415904D01*
X103312428Y-65463523D01*
X103074333Y-65463523D01*
X102883857Y-65415904D01*
X102788619Y-65368285D01*
X102741000Y-65320666D01*
X102693380Y-65225428D01*
%TO.C,C9*%
X155163333Y-52691142D02*
X155115714Y-52738761D01*
X154972857Y-52786380D01*
X154877619Y-52786380D01*
X154734761Y-52738761D01*
X154639523Y-52643523D01*
X154591904Y-52548285D01*
X154544285Y-52357809D01*
X154544285Y-52214952D01*
X154591904Y-52024476D01*
X154639523Y-51929238D01*
X154734761Y-51834000D01*
X154877619Y-51786380D01*
X154972857Y-51786380D01*
X155115714Y-51834000D01*
X155163333Y-51881619D01*
X155639523Y-52786380D02*
X155830000Y-52786380D01*
X155925238Y-52738761D01*
X155972857Y-52691142D01*
X156068095Y-52548285D01*
X156115714Y-52357809D01*
X156115714Y-51976857D01*
X156068095Y-51881619D01*
X156020476Y-51834000D01*
X155925238Y-51786380D01*
X155734761Y-51786380D01*
X155639523Y-51834000D01*
X155591904Y-51881619D01*
X155544285Y-51976857D01*
X155544285Y-52214952D01*
X155591904Y-52310190D01*
X155639523Y-52357809D01*
X155734761Y-52405428D01*
X155925238Y-52405428D01*
X156020476Y-52357809D01*
X156068095Y-52310190D01*
X156115714Y-52214952D01*
%TO.C,C8*%
X160809142Y-66817666D02*
X160856761Y-66865285D01*
X160904380Y-67008142D01*
X160904380Y-67103380D01*
X160856761Y-67246238D01*
X160761523Y-67341476D01*
X160666285Y-67389095D01*
X160475809Y-67436714D01*
X160332952Y-67436714D01*
X160142476Y-67389095D01*
X160047238Y-67341476D01*
X159952000Y-67246238D01*
X159904380Y-67103380D01*
X159904380Y-67008142D01*
X159952000Y-66865285D01*
X159999619Y-66817666D01*
X160332952Y-66246238D02*
X160285333Y-66341476D01*
X160237714Y-66389095D01*
X160142476Y-66436714D01*
X160094857Y-66436714D01*
X159999619Y-66389095D01*
X159952000Y-66341476D01*
X159904380Y-66246238D01*
X159904380Y-66055761D01*
X159952000Y-65960523D01*
X159999619Y-65912904D01*
X160094857Y-65865285D01*
X160142476Y-65865285D01*
X160237714Y-65912904D01*
X160285333Y-65960523D01*
X160332952Y-66055761D01*
X160332952Y-66246238D01*
X160380571Y-66341476D01*
X160428190Y-66389095D01*
X160523428Y-66436714D01*
X160713904Y-66436714D01*
X160809142Y-66389095D01*
X160856761Y-66341476D01*
X160904380Y-66246238D01*
X160904380Y-66055761D01*
X160856761Y-65960523D01*
X160809142Y-65912904D01*
X160713904Y-65865285D01*
X160523428Y-65865285D01*
X160428190Y-65912904D01*
X160380571Y-65960523D01*
X160332952Y-66055761D01*
%TO.C,C7*%
X111842333Y-108750142D02*
X111794714Y-108797761D01*
X111651857Y-108845380D01*
X111556619Y-108845380D01*
X111413761Y-108797761D01*
X111318523Y-108702523D01*
X111270904Y-108607285D01*
X111223285Y-108416809D01*
X111223285Y-108273952D01*
X111270904Y-108083476D01*
X111318523Y-107988238D01*
X111413761Y-107893000D01*
X111556619Y-107845380D01*
X111651857Y-107845380D01*
X111794714Y-107893000D01*
X111842333Y-107940619D01*
X112175666Y-107845380D02*
X112842333Y-107845380D01*
X112413761Y-108845380D01*
%TO.C,C6*%
X109252333Y-116547142D02*
X109204714Y-116594761D01*
X109061857Y-116642380D01*
X108966619Y-116642380D01*
X108823761Y-116594761D01*
X108728523Y-116499523D01*
X108680904Y-116404285D01*
X108633285Y-116213809D01*
X108633285Y-116070952D01*
X108680904Y-115880476D01*
X108728523Y-115785238D01*
X108823761Y-115690000D01*
X108966619Y-115642380D01*
X109061857Y-115642380D01*
X109204714Y-115690000D01*
X109252333Y-115737619D01*
X110109476Y-115642380D02*
X109919000Y-115642380D01*
X109823761Y-115690000D01*
X109776142Y-115737619D01*
X109680904Y-115880476D01*
X109633285Y-116070952D01*
X109633285Y-116451904D01*
X109680904Y-116547142D01*
X109728523Y-116594761D01*
X109823761Y-116642380D01*
X110014238Y-116642380D01*
X110109476Y-116594761D01*
X110157095Y-116547142D01*
X110204714Y-116451904D01*
X110204714Y-116213809D01*
X110157095Y-116118571D01*
X110109476Y-116070952D01*
X110014238Y-116023333D01*
X109823761Y-116023333D01*
X109728523Y-116070952D01*
X109680904Y-116118571D01*
X109633285Y-116213809D01*
%TO.C,C5*%
X102141142Y-68889666D02*
X102188761Y-68937285D01*
X102236380Y-69080142D01*
X102236380Y-69175380D01*
X102188761Y-69318238D01*
X102093523Y-69413476D01*
X101998285Y-69461095D01*
X101807809Y-69508714D01*
X101664952Y-69508714D01*
X101474476Y-69461095D01*
X101379238Y-69413476D01*
X101284000Y-69318238D01*
X101236380Y-69175380D01*
X101236380Y-69080142D01*
X101284000Y-68937285D01*
X101331619Y-68889666D01*
X101236380Y-67984904D02*
X101236380Y-68461095D01*
X101712571Y-68508714D01*
X101664952Y-68461095D01*
X101617333Y-68365857D01*
X101617333Y-68127761D01*
X101664952Y-68032523D01*
X101712571Y-67984904D01*
X101807809Y-67937285D01*
X102045904Y-67937285D01*
X102141142Y-67984904D01*
X102188761Y-68032523D01*
X102236380Y-68127761D01*
X102236380Y-68365857D01*
X102188761Y-68461095D01*
X102141142Y-68508714D01*
%TO.C,C4*%
X174884142Y-58376666D02*
X174931761Y-58424285D01*
X174979380Y-58567142D01*
X174979380Y-58662380D01*
X174931761Y-58805238D01*
X174836523Y-58900476D01*
X174741285Y-58948095D01*
X174550809Y-58995714D01*
X174407952Y-58995714D01*
X174217476Y-58948095D01*
X174122238Y-58900476D01*
X174027000Y-58805238D01*
X173979380Y-58662380D01*
X173979380Y-58567142D01*
X174027000Y-58424285D01*
X174074619Y-58376666D01*
X174312714Y-57519523D02*
X174979380Y-57519523D01*
X173931761Y-57757619D02*
X174646047Y-57995714D01*
X174646047Y-57376666D01*
%TO.C,C3*%
X112309142Y-71828666D02*
X112356761Y-71876285D01*
X112404380Y-72019142D01*
X112404380Y-72114380D01*
X112356761Y-72257238D01*
X112261523Y-72352476D01*
X112166285Y-72400095D01*
X111975809Y-72447714D01*
X111832952Y-72447714D01*
X111642476Y-72400095D01*
X111547238Y-72352476D01*
X111452000Y-72257238D01*
X111404380Y-72114380D01*
X111404380Y-72019142D01*
X111452000Y-71876285D01*
X111499619Y-71828666D01*
X111404380Y-71495333D02*
X111404380Y-70876285D01*
X111785333Y-71209619D01*
X111785333Y-71066761D01*
X111832952Y-70971523D01*
X111880571Y-70923904D01*
X111975809Y-70876285D01*
X112213904Y-70876285D01*
X112309142Y-70923904D01*
X112356761Y-70971523D01*
X112404380Y-71066761D01*
X112404380Y-71352476D01*
X112356761Y-71447714D01*
X112309142Y-71495333D01*
%TO.C,C2*%
X123178142Y-63417666D02*
X123225761Y-63465285D01*
X123273380Y-63608142D01*
X123273380Y-63703380D01*
X123225761Y-63846238D01*
X123130523Y-63941476D01*
X123035285Y-63989095D01*
X122844809Y-64036714D01*
X122701952Y-64036714D01*
X122511476Y-63989095D01*
X122416238Y-63941476D01*
X122321000Y-63846238D01*
X122273380Y-63703380D01*
X122273380Y-63608142D01*
X122321000Y-63465285D01*
X122368619Y-63417666D01*
X122368619Y-63036714D02*
X122321000Y-62989095D01*
X122273380Y-62893857D01*
X122273380Y-62655761D01*
X122321000Y-62560523D01*
X122368619Y-62512904D01*
X122463857Y-62465285D01*
X122559095Y-62465285D01*
X122701952Y-62512904D01*
X123273380Y-63084333D01*
X123273380Y-62465285D01*
%TO.C,C1*%
X120936333Y-101002142D02*
X120888714Y-101049761D01*
X120745857Y-101097380D01*
X120650619Y-101097380D01*
X120507761Y-101049761D01*
X120412523Y-100954523D01*
X120364904Y-100859285D01*
X120317285Y-100668809D01*
X120317285Y-100525952D01*
X120364904Y-100335476D01*
X120412523Y-100240238D01*
X120507761Y-100145000D01*
X120650619Y-100097380D01*
X120745857Y-100097380D01*
X120888714Y-100145000D01*
X120936333Y-100192619D01*
X121888714Y-101097380D02*
X121317285Y-101097380D01*
X121603000Y-101097380D02*
X121603000Y-100097380D01*
X121507761Y-100240238D01*
X121412523Y-100335476D01*
X121317285Y-100383095D01*
%TO.C,BT1*%
X164739285Y-64541571D02*
X164882142Y-64589190D01*
X164929761Y-64636809D01*
X164977380Y-64732047D01*
X164977380Y-64874904D01*
X164929761Y-64970142D01*
X164882142Y-65017761D01*
X164786904Y-65065380D01*
X164405952Y-65065380D01*
X164405952Y-64065380D01*
X164739285Y-64065380D01*
X164834523Y-64113000D01*
X164882142Y-64160619D01*
X164929761Y-64255857D01*
X164929761Y-64351095D01*
X164882142Y-64446333D01*
X164834523Y-64493952D01*
X164739285Y-64541571D01*
X164405952Y-64541571D01*
X165263095Y-64065380D02*
X165834523Y-64065380D01*
X165548809Y-65065380D02*
X165548809Y-64065380D01*
X166691666Y-65065380D02*
X166120238Y-65065380D01*
X166405952Y-65065380D02*
X166405952Y-64065380D01*
X166310714Y-64208238D01*
X166215476Y-64303476D01*
X166120238Y-64351095D01*
%TD*%
M02*
