%TF.GenerationSoftware,KiCad,Pcbnew,5.1.8-5.1.8*%
%TF.CreationDate,2022-01-30T02:40:23+08:00*%
%TF.ProjectId,lcr_2,6c63725f-322e-46b6-9963-61645f706362,rev?*%
%TF.SameCoordinates,Original*%
%TF.FileFunction,Soldermask,Bot*%
%TF.FilePolarity,Negative*%
%FSLAX46Y46*%
G04 Gerber Fmt 4.6, Leading zero omitted, Abs format (unit mm)*
G04 Created by KiCad (PCBNEW 5.1.8-5.1.8) date 2022-01-30 02:40:23*
%MOMM*%
%LPD*%
G01*
G04 APERTURE LIST*
%ADD10C,5.000000*%
%ADD11C,1.400000*%
%ADD12R,1.700000X1.700000*%
%ADD13C,2.600000*%
%ADD14C,2.100000*%
%ADD15C,1.750000*%
%ADD16O,1.700000X1.700000*%
%ADD17C,1.500000*%
%ADD18O,1.400000X1.400000*%
%ADD19R,1.500000X1.050000*%
%ADD20O,1.500000X1.050000*%
%ADD21C,2.000000*%
%ADD22O,2.200000X2.200000*%
%ADD23R,2.200000X2.200000*%
G04 APERTURE END LIST*
D10*
%TO.C,REF\u002A\u002A*%
X80580000Y-101740000D03*
%TD*%
%TO.C,REF\u002A\u002A*%
X80580000Y-85520000D03*
%TD*%
%TO.C,REF\u002A\u002A*%
X80600000Y-96240000D03*
%TD*%
%TO.C,REF\u002A\u002A*%
X94470000Y-85490000D03*
%TD*%
%TO.C,REF\u002A\u002A*%
X94480000Y-112420000D03*
%TD*%
%TO.C,REF\u002A\u002A*%
X80560000Y-112420000D03*
%TD*%
%TO.C,REF\u002A\u002A*%
X94460000Y-53500000D03*
%TD*%
%TO.C,REF\u002A\u002A*%
X80570000Y-53530000D03*
%TD*%
%TO.C,REF\u002A\u002A*%
X94470000Y-80430000D03*
%TD*%
D11*
%TO.C,REF\u002A\u002A*%
X154150000Y-64640000D03*
%TD*%
D12*
%TO.C,J1*%
X142600000Y-80590000D03*
%TD*%
%TO.C,J2*%
X142560000Y-83970000D03*
%TD*%
D13*
%TO.C,REF\u002A\u002A*%
X174590000Y-116480000D03*
%TD*%
D10*
%TO.C,REF\u002A\u002A*%
X162400000Y-121490000D03*
%TD*%
D12*
%TO.C,REF\u002A\u002A*%
X93980000Y-119480000D03*
%TD*%
%TO.C,REF\u002A\u002A*%
X102480000Y-119480000D03*
%TD*%
%TO.C,REF\u002A\u002A*%
X120980000Y-119480000D03*
%TD*%
%TO.C,REF\u002A\u002A*%
X130980000Y-119480000D03*
%TD*%
%TO.C,REF\u002A\u002A*%
X111480000Y-119480000D03*
%TD*%
%TO.C,REF\u002A\u002A*%
X141480000Y-119480000D03*
%TD*%
D10*
%TO.C,REF\u002A\u002A*%
X86190000Y-121280000D03*
%TD*%
%TO.C,REF\u002A\u002A*%
X80720000Y-121210000D03*
%TD*%
D12*
%TO.C,REF\u002A\u002A*%
X151480000Y-119480000D03*
%TD*%
%TO.C,REF\u002A\u002A*%
X111510000Y-128620000D03*
%TD*%
D10*
%TO.C,REF\u002A\u002A*%
X86220000Y-130420000D03*
%TD*%
%TO.C,REF\u002A\u002A*%
X162430000Y-130630000D03*
%TD*%
D12*
%TO.C,REF\u002A\u002A*%
X131010000Y-128620000D03*
%TD*%
%TO.C,REF\u002A\u002A*%
X151510000Y-128620000D03*
%TD*%
%TO.C,REF\u002A\u002A*%
X102510000Y-128620000D03*
%TD*%
D13*
%TO.C,REF\u002A\u002A*%
X174620000Y-125620000D03*
%TD*%
D12*
%TO.C,REF\u002A\u002A*%
X94010000Y-128620000D03*
%TD*%
%TO.C,REF\u002A\u002A*%
X121010000Y-128620000D03*
%TD*%
%TO.C,REF\u002A\u002A*%
X141510000Y-128620000D03*
%TD*%
D10*
%TO.C,REF\u002A\u002A*%
X80750000Y-130350000D03*
%TD*%
D12*
%TO.C,REF\u002A\u002A*%
X151500000Y-137500000D03*
%TD*%
D13*
%TO.C,REF\u002A\u002A*%
X174610000Y-134500000D03*
%TD*%
D12*
%TO.C,REF\u002A\u002A*%
X94000000Y-137500000D03*
%TD*%
%TO.C,REF\u002A\u002A*%
X102500000Y-137500000D03*
%TD*%
%TO.C,REF\u002A\u002A*%
X121000000Y-137500000D03*
%TD*%
D10*
%TO.C,REF\u002A\u002A*%
X80740000Y-139230000D03*
%TD*%
D12*
%TO.C,REF\u002A\u002A*%
X111500000Y-137500000D03*
%TD*%
%TO.C,REF\u002A\u002A*%
X141500000Y-137500000D03*
%TD*%
D10*
%TO.C,REF\u002A\u002A*%
X86210000Y-139300000D03*
%TD*%
%TO.C,REF\u002A\u002A*%
X162420000Y-139510000D03*
%TD*%
D12*
%TO.C,REF\u002A\u002A*%
X131000000Y-137500000D03*
%TD*%
D10*
%TO.C,REF\u002A\u002A*%
X80590000Y-64250000D03*
%TD*%
%TO.C,REF\u002A\u002A*%
X80570000Y-69750000D03*
%TD*%
%TO.C,REF\u002A\u002A*%
X80550000Y-80430000D03*
%TD*%
%TO.C,REF\u002A\u002A*%
X86210000Y-148300000D03*
%TD*%
%TO.C,REF\u002A\u002A*%
X80740000Y-148230000D03*
%TD*%
D12*
%TO.C,REF\u002A\u002A*%
X151500000Y-146500000D03*
%TD*%
%TO.C,REF\u002A\u002A*%
X141500000Y-146500000D03*
%TD*%
%TO.C,REF\u002A\u002A*%
X131000000Y-146500000D03*
%TD*%
%TO.C,REF\u002A\u002A*%
X121000000Y-146500000D03*
%TD*%
%TO.C,REF\u002A\u002A*%
X111500000Y-146500000D03*
%TD*%
%TO.C,REF\u002A\u002A*%
X102500000Y-146500000D03*
%TD*%
%TO.C,REF\u002A\u002A*%
X94000000Y-146500000D03*
%TD*%
D13*
%TO.C,REF\u002A\u002A*%
X174610000Y-143500000D03*
%TD*%
D12*
%TO.C,J3*%
X165580000Y-78270000D03*
%TD*%
D11*
%TO.C,REF\u002A\u002A*%
X154450000Y-59730000D03*
%TD*%
%TO.C,REF\u002A\u002A*%
X153980000Y-61660000D03*
%TD*%
%TO.C,REF\u002A\u002A*%
X152070000Y-61760000D03*
%TD*%
D14*
%TO.C,SW2*%
X172692000Y-60769000D03*
D15*
X175182000Y-62019000D03*
X175182000Y-66519000D03*
D14*
X172692000Y-67779000D03*
%TD*%
%TO.C,SW1*%
X172593000Y-70883000D03*
D15*
X175083000Y-72133000D03*
X175083000Y-76633000D03*
D14*
X172593000Y-77893000D03*
%TD*%
D11*
%TO.C,REF\u002A\u002A*%
X107153000Y-83863000D03*
%TD*%
%TO.C,REF\u002A\u002A*%
X118693000Y-70175000D03*
%TD*%
%TO.C,REF\u002A\u002A*%
X116780000Y-72379000D03*
%TD*%
D12*
%TO.C,J7*%
X110640000Y-52408000D03*
%TD*%
D16*
%TO.C,REF\u002A\u002A*%
X99224000Y-70929000D03*
X99224000Y-68389000D03*
X99224000Y-65849000D03*
D12*
X99224000Y-63309000D03*
%TD*%
D10*
%TO.C,REF\u002A\u002A*%
X175345000Y-89656000D03*
%TD*%
%TO.C,REF\u002A\u002A*%
X99663000Y-89619000D03*
%TD*%
%TO.C,REF\u002A\u002A*%
X99694000Y-84356000D03*
%TD*%
%TO.C,REF\u002A\u002A*%
X175344000Y-84322000D03*
%TD*%
%TO.C,REF\u002A\u002A*%
X175297000Y-53647000D03*
%TD*%
%TO.C,REF\u002A\u002A*%
X99695000Y-53659000D03*
%TD*%
%TO.C,REF\u002A\u002A*%
X162420000Y-148510000D03*
%TD*%
D13*
%TO.C,REF\u002A\u002A*%
X129121000Y-109017000D03*
%TD*%
%TO.C,C27*%
G36*
G01*
X132582000Y-111788000D02*
X131632000Y-111788000D01*
G75*
G02*
X131382000Y-111538000I0J250000D01*
G01*
X131382000Y-110863000D01*
G75*
G02*
X131632000Y-110613000I250000J0D01*
G01*
X132582000Y-110613000D01*
G75*
G02*
X132832000Y-110863000I0J-250000D01*
G01*
X132832000Y-111538000D01*
G75*
G02*
X132582000Y-111788000I-250000J0D01*
G01*
G37*
G36*
G01*
X132582000Y-113863000D02*
X131632000Y-113863000D01*
G75*
G02*
X131382000Y-113613000I0J250000D01*
G01*
X131382000Y-112938000D01*
G75*
G02*
X131632000Y-112688000I250000J0D01*
G01*
X132582000Y-112688000D01*
G75*
G02*
X132832000Y-112938000I0J-250000D01*
G01*
X132832000Y-113613000D01*
G75*
G02*
X132582000Y-113863000I-250000J0D01*
G01*
G37*
%TD*%
%TO.C,C22*%
G36*
G01*
X130468000Y-111780000D02*
X129518000Y-111780000D01*
G75*
G02*
X129268000Y-111530000I0J250000D01*
G01*
X129268000Y-110855000D01*
G75*
G02*
X129518000Y-110605000I250000J0D01*
G01*
X130468000Y-110605000D01*
G75*
G02*
X130718000Y-110855000I0J-250000D01*
G01*
X130718000Y-111530000D01*
G75*
G02*
X130468000Y-111780000I-250000J0D01*
G01*
G37*
G36*
G01*
X130468000Y-113855000D02*
X129518000Y-113855000D01*
G75*
G02*
X129268000Y-113605000I0J250000D01*
G01*
X129268000Y-112930000D01*
G75*
G02*
X129518000Y-112680000I250000J0D01*
G01*
X130468000Y-112680000D01*
G75*
G02*
X130718000Y-112930000I0J-250000D01*
G01*
X130718000Y-113605000D01*
G75*
G02*
X130468000Y-113855000I-250000J0D01*
G01*
G37*
%TD*%
%TO.C,C31*%
G36*
G01*
X128347000Y-111771000D02*
X127397000Y-111771000D01*
G75*
G02*
X127147000Y-111521000I0J250000D01*
G01*
X127147000Y-110846000D01*
G75*
G02*
X127397000Y-110596000I250000J0D01*
G01*
X128347000Y-110596000D01*
G75*
G02*
X128597000Y-110846000I0J-250000D01*
G01*
X128597000Y-111521000D01*
G75*
G02*
X128347000Y-111771000I-250000J0D01*
G01*
G37*
G36*
G01*
X128347000Y-113846000D02*
X127397000Y-113846000D01*
G75*
G02*
X127147000Y-113596000I0J250000D01*
G01*
X127147000Y-112921000D01*
G75*
G02*
X127397000Y-112671000I250000J0D01*
G01*
X128347000Y-112671000D01*
G75*
G02*
X128597000Y-112921000I0J-250000D01*
G01*
X128597000Y-113596000D01*
G75*
G02*
X128347000Y-113846000I-250000J0D01*
G01*
G37*
%TD*%
%TO.C,C17*%
G36*
G01*
X126263500Y-111923000D02*
X125788500Y-111923000D01*
G75*
G02*
X125551000Y-111685500I0J237500D01*
G01*
X125551000Y-111085500D01*
G75*
G02*
X125788500Y-110848000I237500J0D01*
G01*
X126263500Y-110848000D01*
G75*
G02*
X126501000Y-111085500I0J-237500D01*
G01*
X126501000Y-111685500D01*
G75*
G02*
X126263500Y-111923000I-237500J0D01*
G01*
G37*
G36*
G01*
X126263500Y-113648000D02*
X125788500Y-113648000D01*
G75*
G02*
X125551000Y-113410500I0J237500D01*
G01*
X125551000Y-112810500D01*
G75*
G02*
X125788500Y-112573000I237500J0D01*
G01*
X126263500Y-112573000D01*
G75*
G02*
X126501000Y-112810500I0J-237500D01*
G01*
X126501000Y-113410500D01*
G75*
G02*
X126263500Y-113648000I-237500J0D01*
G01*
G37*
%TD*%
D11*
%TO.C,REF\u002A\u002A*%
X176352000Y-104019000D03*
%TD*%
%TO.C,REF\u002A\u002A*%
X173201000Y-104001000D03*
%TD*%
%TO.C,REF\u002A\u002A*%
X170316000Y-103985000D03*
%TD*%
%TO.C,REF\u002A\u002A*%
X167447000Y-103985000D03*
%TD*%
%TO.C,REF\u002A\u002A*%
X150830000Y-108790000D03*
%TD*%
%TO.C,REF\u002A\u002A*%
X147144000Y-105098000D03*
%TD*%
%TO.C,REF\u002A\u002A*%
X167084000Y-108634000D03*
%TD*%
%TO.C,REF\u002A\u002A*%
X154450000Y-109331000D03*
%TD*%
%TO.C,REF\u002A\u002A*%
X150555000Y-113691000D03*
%TD*%
%TO.C,REF\u002A\u002A*%
X152885000Y-113712000D03*
%TD*%
%TO.C,REF\u002A\u002A*%
X155162000Y-113683000D03*
%TD*%
D12*
%TO.C,J7*%
X175945000Y-94237000D03*
%TD*%
D16*
%TO.C,DS1*%
X131660000Y-89750000D03*
X134200000Y-89750000D03*
X136740000Y-89750000D03*
X139280000Y-89750000D03*
X141820000Y-89750000D03*
X144360000Y-89750000D03*
X146900000Y-89750000D03*
X149440000Y-89750000D03*
X151980000Y-89750000D03*
X154520000Y-89750000D03*
X157060000Y-89750000D03*
X159600000Y-89750000D03*
X162140000Y-89750000D03*
X164680000Y-89750000D03*
X167220000Y-89750000D03*
D12*
X169760000Y-89750000D03*
%TD*%
%TO.C,J2*%
X130755000Y-101511000D03*
%TD*%
%TO.C,J1*%
X132641000Y-96771000D03*
%TD*%
D17*
%TO.C,Y1*%
X169797000Y-112136000D03*
X174677000Y-112136000D03*
%TD*%
D18*
%TO.C,R52*%
X134496000Y-92144000D03*
D11*
X134496000Y-94044000D03*
%TD*%
D18*
%TO.C,R51*%
X164735000Y-92467000D03*
D11*
X162835000Y-92467000D03*
%TD*%
D18*
%TO.C,R50*%
X169196000Y-74252000D03*
D11*
X169196000Y-76152000D03*
%TD*%
D18*
%TO.C,R49*%
X169090000Y-64844000D03*
D11*
X169090000Y-62944000D03*
%TD*%
D18*
%TO.C,R48*%
X161659000Y-113674000D03*
D11*
X163559000Y-113674000D03*
%TD*%
D18*
%TO.C,R47*%
X141099000Y-104415000D03*
D11*
X139199000Y-104415000D03*
%TD*%
D18*
%TO.C,R46*%
X135655000Y-99676000D03*
D11*
X133755000Y-99676000D03*
%TD*%
D18*
%TO.C,R45*%
X138518000Y-102205000D03*
D11*
X136618000Y-102205000D03*
%TD*%
D18*
%TO.C,R44*%
X162541000Y-71094000D03*
D11*
X164441000Y-71094000D03*
%TD*%
D18*
%TO.C,R43*%
X164537000Y-68901000D03*
D11*
X162637000Y-68901000D03*
%TD*%
D18*
%TO.C,R42*%
X176421000Y-106419000D03*
D11*
X174521000Y-106419000D03*
%TD*%
D18*
%TO.C,R37*%
X152553000Y-80135000D03*
D11*
X150653000Y-80135000D03*
%TD*%
D18*
%TO.C,R35*%
X146538000Y-80123000D03*
D11*
X148438000Y-80123000D03*
%TD*%
D18*
%TO.C,R32*%
X140421000Y-67254000D03*
D11*
X138521000Y-67254000D03*
%TD*%
D18*
%TO.C,R30*%
X142498000Y-67150000D03*
D11*
X144398000Y-67150000D03*
%TD*%
D18*
%TO.C,R28*%
X155920000Y-70083000D03*
D11*
X154020000Y-70083000D03*
%TD*%
D18*
%TO.C,R27*%
X135039000Y-79377000D03*
D11*
X136939000Y-79377000D03*
%TD*%
D18*
%TO.C,R26*%
X130649000Y-77970000D03*
D11*
X130649000Y-76070000D03*
%TD*%
D18*
%TO.C,R25*%
X146419000Y-99051000D03*
D11*
X144519000Y-99051000D03*
%TD*%
D18*
%TO.C,R24*%
X126242000Y-81081000D03*
D11*
X128142000Y-81081000D03*
%TD*%
D18*
%TO.C,R23*%
X126075000Y-77920000D03*
D11*
X127975000Y-77920000D03*
%TD*%
D18*
%TO.C,R22*%
X159052000Y-103353000D03*
D11*
X160952000Y-103353000D03*
%TD*%
D18*
%TO.C,R21*%
X160430000Y-70117000D03*
D11*
X158530000Y-70117000D03*
%TD*%
D18*
%TO.C,R20*%
X144434000Y-97072000D03*
D11*
X146334000Y-97072000D03*
%TD*%
D18*
%TO.C,R19*%
X157083000Y-101963000D03*
D11*
X155183000Y-101963000D03*
%TD*%
D18*
%TO.C,R18*%
X162462000Y-77153000D03*
D11*
X160562000Y-77153000D03*
%TD*%
D18*
%TO.C,R17*%
X127966000Y-71421000D03*
D11*
X129866000Y-71421000D03*
%TD*%
D18*
%TO.C,R16*%
X116185000Y-106839000D03*
D11*
X114285000Y-106839000D03*
%TD*%
D18*
%TO.C,R15*%
X144420000Y-95123000D03*
D11*
X146320000Y-95123000D03*
%TD*%
D18*
%TO.C,R14*%
X167042000Y-101643000D03*
D11*
X165142000Y-101643000D03*
%TD*%
D18*
%TO.C,R13*%
X116198000Y-104657000D03*
D11*
X114298000Y-104657000D03*
%TD*%
D18*
%TO.C,R12*%
X153862000Y-98013000D03*
D11*
X153862000Y-99913000D03*
%TD*%
D18*
%TO.C,R11*%
X105852000Y-62644000D03*
D11*
X107752000Y-62644000D03*
%TD*%
D18*
%TO.C,R10*%
X175928000Y-96976000D03*
D11*
X175928000Y-98876000D03*
%TD*%
D18*
%TO.C,R9*%
X107887000Y-69173000D03*
D11*
X105987000Y-69173000D03*
%TD*%
D18*
%TO.C,R8*%
X107884000Y-66981000D03*
D11*
X105984000Y-66981000D03*
%TD*%
D18*
%TO.C,R7*%
X104844000Y-60443000D03*
D11*
X104844000Y-58543000D03*
%TD*%
D18*
%TO.C,R4*%
X107892000Y-71363000D03*
D11*
X105992000Y-71363000D03*
%TD*%
D18*
%TO.C,R3*%
X104844000Y-54461000D03*
D11*
X104844000Y-56361000D03*
%TD*%
D18*
%TO.C,R2*%
X107864000Y-64830000D03*
D11*
X105964000Y-64830000D03*
%TD*%
D18*
%TO.C,R1*%
X99606000Y-58775000D03*
D11*
X101506000Y-58775000D03*
%TD*%
D19*
%TO.C,Q3*%
X150704000Y-99813000D03*
D20*
X150704000Y-97273000D03*
X150704000Y-98543000D03*
%TD*%
D19*
%TO.C,Q2*%
X159468000Y-99748000D03*
D20*
X159468000Y-97208000D03*
X159468000Y-98478000D03*
%TD*%
D19*
%TO.C,Q1*%
X168296000Y-99110000D03*
D20*
X168296000Y-96570000D03*
X168296000Y-97840000D03*
%TD*%
D21*
%TO.C,L1*%
X111836000Y-111011000D03*
X115836000Y-111011000D03*
%TD*%
D12*
%TO.C,J3*%
X136742000Y-110649000D03*
%TD*%
D22*
%TO.C,D7*%
X127600000Y-88363000D03*
D23*
X127600000Y-90903000D03*
%TD*%
D22*
%TO.C,D5*%
X127665000Y-93877000D03*
D23*
X127665000Y-96417000D03*
%TD*%
D16*
%TO.C,SW3*%
X111612000Y-102044000D03*
D12*
X111612000Y-104584000D03*
%TD*%
D22*
%TO.C,D10*%
X128441000Y-99745000D03*
D23*
X125901000Y-99745000D03*
%TD*%
D22*
%TO.C,D9*%
X107877000Y-106544000D03*
D23*
X107877000Y-109084000D03*
%TD*%
D22*
%TO.C,D8*%
X98939000Y-113172000D03*
D23*
X98939000Y-110632000D03*
%TD*%
D16*
%TO.C,BT1*%
X107116000Y-112801000D03*
D12*
X104576000Y-112801000D03*
%TD*%
M02*
