%TF.GenerationSoftware,KiCad,Pcbnew,5.1.8-5.1.8*%
%TF.CreationDate,2022-01-30T02:40:23+08:00*%
%TF.ProjectId,lcr_2,6c63725f-322e-46b6-9963-61645f706362,rev?*%
%TF.SameCoordinates,Original*%
%TF.FileFunction,Paste,Bot*%
%TF.FilePolarity,Positive*%
%FSLAX46Y46*%
G04 Gerber Fmt 4.6, Leading zero omitted, Abs format (unit mm)*
G04 Created by KiCad (PCBNEW 5.1.8-5.1.8) date 2022-01-30 02:40:23*
%MOMM*%
%LPD*%
G01*
G04 APERTURE LIST*
G04 APERTURE END LIST*
%TO.C,C27*%
G36*
G01*
X132582000Y-111788000D02*
X131632000Y-111788000D01*
G75*
G02*
X131382000Y-111538000I0J250000D01*
G01*
X131382000Y-110863000D01*
G75*
G02*
X131632000Y-110613000I250000J0D01*
G01*
X132582000Y-110613000D01*
G75*
G02*
X132832000Y-110863000I0J-250000D01*
G01*
X132832000Y-111538000D01*
G75*
G02*
X132582000Y-111788000I-250000J0D01*
G01*
G37*
G36*
G01*
X132582000Y-113863000D02*
X131632000Y-113863000D01*
G75*
G02*
X131382000Y-113613000I0J250000D01*
G01*
X131382000Y-112938000D01*
G75*
G02*
X131632000Y-112688000I250000J0D01*
G01*
X132582000Y-112688000D01*
G75*
G02*
X132832000Y-112938000I0J-250000D01*
G01*
X132832000Y-113613000D01*
G75*
G02*
X132582000Y-113863000I-250000J0D01*
G01*
G37*
%TD*%
%TO.C,C22*%
G36*
G01*
X130468000Y-111780000D02*
X129518000Y-111780000D01*
G75*
G02*
X129268000Y-111530000I0J250000D01*
G01*
X129268000Y-110855000D01*
G75*
G02*
X129518000Y-110605000I250000J0D01*
G01*
X130468000Y-110605000D01*
G75*
G02*
X130718000Y-110855000I0J-250000D01*
G01*
X130718000Y-111530000D01*
G75*
G02*
X130468000Y-111780000I-250000J0D01*
G01*
G37*
G36*
G01*
X130468000Y-113855000D02*
X129518000Y-113855000D01*
G75*
G02*
X129268000Y-113605000I0J250000D01*
G01*
X129268000Y-112930000D01*
G75*
G02*
X129518000Y-112680000I250000J0D01*
G01*
X130468000Y-112680000D01*
G75*
G02*
X130718000Y-112930000I0J-250000D01*
G01*
X130718000Y-113605000D01*
G75*
G02*
X130468000Y-113855000I-250000J0D01*
G01*
G37*
%TD*%
%TO.C,C31*%
G36*
G01*
X128347000Y-111771000D02*
X127397000Y-111771000D01*
G75*
G02*
X127147000Y-111521000I0J250000D01*
G01*
X127147000Y-110846000D01*
G75*
G02*
X127397000Y-110596000I250000J0D01*
G01*
X128347000Y-110596000D01*
G75*
G02*
X128597000Y-110846000I0J-250000D01*
G01*
X128597000Y-111521000D01*
G75*
G02*
X128347000Y-111771000I-250000J0D01*
G01*
G37*
G36*
G01*
X128347000Y-113846000D02*
X127397000Y-113846000D01*
G75*
G02*
X127147000Y-113596000I0J250000D01*
G01*
X127147000Y-112921000D01*
G75*
G02*
X127397000Y-112671000I250000J0D01*
G01*
X128347000Y-112671000D01*
G75*
G02*
X128597000Y-112921000I0J-250000D01*
G01*
X128597000Y-113596000D01*
G75*
G02*
X128347000Y-113846000I-250000J0D01*
G01*
G37*
%TD*%
%TO.C,C17*%
G36*
G01*
X126263500Y-111923000D02*
X125788500Y-111923000D01*
G75*
G02*
X125551000Y-111685500I0J237500D01*
G01*
X125551000Y-111085500D01*
G75*
G02*
X125788500Y-110848000I237500J0D01*
G01*
X126263500Y-110848000D01*
G75*
G02*
X126501000Y-111085500I0J-237500D01*
G01*
X126501000Y-111685500D01*
G75*
G02*
X126263500Y-111923000I-237500J0D01*
G01*
G37*
G36*
G01*
X126263500Y-113648000D02*
X125788500Y-113648000D01*
G75*
G02*
X125551000Y-113410500I0J237500D01*
G01*
X125551000Y-112810500D01*
G75*
G02*
X125788500Y-112573000I237500J0D01*
G01*
X126263500Y-112573000D01*
G75*
G02*
X126501000Y-112810500I0J-237500D01*
G01*
X126501000Y-113410500D01*
G75*
G02*
X126263500Y-113648000I-237500J0D01*
G01*
G37*
%TD*%
M02*
