%FSLAX45Y45*%
G04 Gerber Fmt 4.5, Leading zero omitted, Abs format (unit mm)*
G04 Created by KiCad (PCBNEW 5.1.8-5.1.8) date 2022-01-30 02:40:53*
%MOMM*%
%LPD*%
G01*
G04 APERTURE LIST*
%TA.AperFunction,Profile*%
%ADD10C,0.050000*%
%TD*%
%ADD11C,0.200000*%
%ADD12C,0.300000*%
G04 APERTURE END LIST*
D10*
X7800000Y-15100000D02*
X7800000Y-5100000D01*
X17800000Y-15100000D02*
X7800000Y-15100000D01*
X17800000Y-5100000D02*
X17800000Y-15100000D01*
X7800000Y-5100000D02*
X17800000Y-5100000D01*
D11*
D12*
X8083928Y-15568214D02*
X8083928Y-15268214D01*
X8155357Y-15268214D01*
X8198214Y-15282500D01*
X8226786Y-15311071D01*
X8241071Y-15339643D01*
X8255357Y-15396786D01*
X8255357Y-15439643D01*
X8241071Y-15496786D01*
X8226786Y-15525357D01*
X8198214Y-15553929D01*
X8155357Y-15568214D01*
X8083928Y-15568214D01*
X8383928Y-15568214D02*
X8383928Y-15368214D01*
X8383928Y-15425357D02*
X8398214Y-15396786D01*
X8412500Y-15382500D01*
X8441071Y-15368214D01*
X8469643Y-15368214D01*
X8569643Y-15568214D02*
X8569643Y-15368214D01*
X8569643Y-15268214D02*
X8555357Y-15282500D01*
X8569643Y-15296786D01*
X8583928Y-15282500D01*
X8569643Y-15268214D01*
X8569643Y-15296786D01*
X8755357Y-15568214D02*
X8726786Y-15553929D01*
X8712500Y-15525357D01*
X8712500Y-15268214D01*
X8912500Y-15568214D02*
X8883928Y-15553929D01*
X8869643Y-15525357D01*
X8869643Y-15268214D01*
X9255357Y-15568214D02*
X9255357Y-15268214D01*
X9355357Y-15482500D01*
X9455357Y-15268214D01*
X9455357Y-15568214D01*
X9726786Y-15568214D02*
X9726786Y-15411071D01*
X9712500Y-15382500D01*
X9683928Y-15368214D01*
X9626786Y-15368214D01*
X9598214Y-15382500D01*
X9726786Y-15553929D02*
X9698214Y-15568214D01*
X9626786Y-15568214D01*
X9598214Y-15553929D01*
X9583928Y-15525357D01*
X9583928Y-15496786D01*
X9598214Y-15468214D01*
X9626786Y-15453929D01*
X9698214Y-15453929D01*
X9726786Y-15439643D01*
X9869643Y-15368214D02*
X9869643Y-15668214D01*
X9869643Y-15382500D02*
X9898214Y-15368214D01*
X9955357Y-15368214D01*
X9983928Y-15382500D01*
X9998214Y-15396786D01*
X10012500Y-15425357D01*
X10012500Y-15511071D01*
X9998214Y-15539643D01*
X9983928Y-15553929D01*
X9955357Y-15568214D01*
X9898214Y-15568214D01*
X9869643Y-15553929D01*
X10141071Y-15539643D02*
X10155357Y-15553929D01*
X10141071Y-15568214D01*
X10126786Y-15553929D01*
X10141071Y-15539643D01*
X10141071Y-15568214D01*
X10141071Y-15382500D02*
X10155357Y-15396786D01*
X10141071Y-15411071D01*
X10126786Y-15396786D01*
X10141071Y-15382500D01*
X10141071Y-15411071D01*
M02*
