M48
; DRILL file {KiCad 5.1.8-5.1.8} date Sun Jan 30 02:40:52 2022
; FORMAT={-:-/ absolute / metric / decimal}
; #@! TF.CreationDate,2022-01-30T02:40:52+08:00
; #@! TF.GenerationSoftware,Kicad,Pcbnew,5.1.8-5.1.8
; #@! TF.FileFunction,Plated,1,2,PTH
FMAT,2
METRIC
T1C0.400
T2C0.500
T3C0.700
T4C0.750
T5C0.800
T6C0.990
T7C1.000
T8C1.100
T9C1.300
T10C2.250
%
G90
G05
T1
X112.346Y-66.973
X112.517Y-69.024
X113.111Y-66.133
X113.996Y-67.772
X114.875Y-65.756
X115.135Y-67.565
X140.05Y-101.206
X142.178Y-95.534
X142.296Y-96.66
T2
X102.114Y-69.472
X103.767Y-76.085
X106.38Y-73.682
X106.486Y-77.861
X108.086Y-77.922
X109.647Y-61.169
X110.307Y-72.756
X112.584Y-84.937
X113.294Y-73.895
X113.427Y-76.116
X114.026Y-51.983
X114.998Y-78.65
X115.817Y-81.037
X117.607Y-75.825
X117.745Y-61.649
X118.448Y-85.704
X119.0Y-59.0
X120.0Y-57.0
X120.532Y-64.867
X121.203Y-61.621
X121.916Y-85.316
X123.0Y-57.0
X123.534Y-81.597
X123.685Y-75.144
X123.754Y-62.868
X125.0Y-73.0
X126.0Y-68.0
X127.0Y-62.0
X130.0Y-59.0
X132.492Y-65.925
X133.0Y-82.0
X134.0Y-64.0
X135.0Y-57.0
X135.0Y-66.0
X136.52Y-92.019
X138.09Y-60.06
X139.0Y-56.0
X141.439Y-62.059
X141.688Y-73.272
X142.126Y-102.151
X143.357Y-75.65
X144.057Y-60.491
X144.94Y-103.225
X145.0Y-70.0
X145.167Y-62.134
X146.001Y-75.593
X146.649Y-112.505
X147.218Y-70.647
X147.767Y-112.505
X147.767Y-114.151
X149.921Y-75.913
X152.031Y-70.483
X152.098Y-65.76
X155.2Y-74.243
X155.339Y-54.281
X157.061Y-68.082
X157.109Y-83.847
X158.32Y-79.1
X159.422Y-108.588
X160.0Y-58.0
X161.287Y-106.361
X162.0Y-56.0
X164.0Y-60.0
X165.0Y-52.0
X165.0Y-84.0
X166.0Y-56.0
X166.392Y-114.026
X172.537Y-108.638
X173.578Y-108.638
T3
X105.987Y-69.173
X107.887Y-69.173
X162.637Y-68.901
X164.537Y-68.901
X105.984Y-66.981
X107.884Y-66.981
X153.98Y-61.66
X150.555Y-113.691
X104.844Y-58.543
X104.844Y-60.443
X162.541Y-71.094
X164.441Y-71.094
X130.649Y-76.07
X130.649Y-77.97
X150.83Y-108.79
X138.521Y-67.254
X140.421Y-67.254
X99.606Y-58.775
X101.506Y-58.775
X146.538Y-80.123
X148.438Y-80.123
X161.659Y-113.674
X163.559Y-113.674
X170.316Y-103.985
X152.07Y-61.76
X107.153Y-83.863
X135.039Y-79.377
X136.939Y-79.377
X144.434Y-97.072
X146.334Y-97.072
X154.02Y-70.083
X155.92Y-70.083
X116.78Y-72.379
X105.964Y-64.83
X107.864Y-64.83
X150.653Y-80.135
X152.553Y-80.135
X154.45Y-109.331
X173.201Y-104.001
X155.162Y-113.683
X158.53Y-70.117
X160.43Y-70.117
X142.498Y-67.15
X144.398Y-67.15
X167.447Y-103.985
X154.15Y-64.64
X126.075Y-77.92
X127.975Y-77.92
X152.885Y-113.712
X160.562Y-77.153
X162.462Y-77.153
X159.052Y-103.353
X160.952Y-103.353
X175.928Y-96.976
X175.928Y-98.876
X126.242Y-81.081
X128.142Y-81.081
X105.852Y-62.644
X107.752Y-62.644
X144.519Y-99.051
X146.419Y-99.051
X155.183Y-101.963
X157.083Y-101.963
X127.966Y-71.421
X129.866Y-71.421
X176.352Y-104.019
X147.144Y-105.098
X162.835Y-92.467
X164.735Y-92.467
X153.862Y-98.013
X153.862Y-99.913
X134.496Y-92.144
X134.496Y-94.044
X118.693Y-70.175
X114.298Y-104.657
X116.198Y-104.657
X154.45Y-59.73
X139.199Y-104.415
X141.099Y-104.415
X114.285Y-106.839
X116.185Y-106.839
X104.844Y-54.461
X104.844Y-56.361
X165.142Y-101.643
X167.042Y-101.643
X144.42Y-95.123
X146.32Y-95.123
X133.755Y-99.676
X135.655Y-99.676
X169.196Y-74.252
X169.196Y-76.152
X174.521Y-106.419
X176.421Y-106.419
X105.992Y-71.363
X107.892Y-71.363
X136.618Y-102.205
X138.518Y-102.205
X167.084Y-108.634
X169.09Y-62.944
X169.09Y-64.844
T4
X159.468Y-97.208
X159.468Y-98.478
X159.468Y-99.748
X150.704Y-97.273
X150.704Y-98.543
X150.704Y-99.813
X168.296Y-96.57
X168.296Y-97.84
X168.296Y-99.11
T5
X169.797Y-112.136
X174.677Y-112.136
T6
X175.182Y-62.019
X175.182Y-66.519
X175.083Y-72.133
X175.083Y-76.633
T7
X113.403Y-60.219
X102.48Y-119.48
X121.0Y-146.5
X132.641Y-96.771
X94.0Y-146.5
X102.5Y-137.5
X120.98Y-119.48
X121.0Y-137.5
X165.58Y-78.27
X121.01Y-128.62
X151.5Y-137.5
X141.5Y-137.5
X94.01Y-128.62
X93.98Y-119.48
X111.836Y-111.011
X115.836Y-111.011
X142.6Y-80.59
X131.66Y-89.75
X134.2Y-89.75
X136.74Y-89.75
X139.28Y-89.75
X141.82Y-89.75
X144.36Y-89.75
X146.9Y-89.75
X149.44Y-89.75
X151.98Y-89.75
X154.52Y-89.75
X157.06Y-89.75
X159.6Y-89.75
X162.14Y-89.75
X164.68Y-89.75
X167.22Y-89.75
X169.76Y-89.75
X99.224Y-63.309
X99.224Y-65.849
X99.224Y-68.389
X99.224Y-70.929
X111.612Y-102.044
X111.612Y-104.584
X111.5Y-137.5
X94.0Y-137.5
X130.755Y-101.511
X104.576Y-112.801
X107.116Y-112.801
X141.5Y-146.5
X102.5Y-146.5
X142.56Y-83.97
X151.51Y-128.62
X175.945Y-94.237
X151.48Y-119.48
X111.51Y-128.62
X131.0Y-137.5
X131.01Y-128.62
X111.5Y-146.5
X110.64Y-52.408
X111.48Y-119.48
X151.5Y-146.5
X130.98Y-119.48
X141.48Y-119.48
X102.51Y-128.62
X141.51Y-128.62
X136.742Y-110.649
X131.0Y-146.5
T8
X127.665Y-93.877
X127.665Y-96.417
X127.6Y-88.363
X127.6Y-90.903
X125.901Y-99.745
X128.441Y-99.745
X107.877Y-106.544
X107.877Y-109.084
X98.939Y-110.632
X98.939Y-113.172
T9
X174.61Y-143.5
X172.692Y-60.769
X172.692Y-67.779
X172.593Y-70.883
X172.593Y-77.893
X174.62Y-125.62
X174.59Y-116.48
X129.121Y-109.017
X174.61Y-134.5
T10
X80.59Y-64.25
X99.694Y-84.356
X80.58Y-85.52
X94.48Y-112.42
X94.47Y-80.43
X99.695Y-53.659
X80.6Y-96.24
X162.4Y-121.49
X162.43Y-130.63
X175.344Y-84.322
X175.345Y-89.656
X94.47Y-85.49
X80.56Y-112.42
X80.58Y-101.74
X80.74Y-148.23
X80.57Y-69.75
X80.74Y-139.23
X94.46Y-53.5
X162.42Y-148.51
X80.55Y-80.43
X80.75Y-130.35
X99.663Y-89.619
X86.21Y-139.3
X162.42Y-139.51
X86.19Y-121.28
X86.21Y-148.3
X80.72Y-121.21
X86.22Y-130.42
X175.297Y-53.647
X80.57Y-53.53
T0
M30
