%TF.GenerationSoftware,KiCad,Pcbnew,5.1.8-5.1.8*%
%TF.CreationDate,2021-07-28T16:27:41+08:00*%
%TF.ProjectId,fluxgate,666c7578-6761-4746-952e-6b696361645f,rev?*%
%TF.SameCoordinates,Original*%
%TF.FileFunction,Paste,Top*%
%TF.FilePolarity,Positive*%
%FSLAX46Y46*%
G04 Gerber Fmt 4.6, Leading zero omitted, Abs format (unit mm)*
G04 Created by KiCad (PCBNEW 5.1.8-5.1.8) date 2021-07-28 16:27:41*
%MOMM*%
%LPD*%
G01*
G04 APERTURE LIST*
%ADD10R,5.250000X4.550000*%
%ADD11R,1.100000X4.600000*%
%ADD12R,2.750000X3.050000*%
%ADD13R,1.200000X2.200000*%
G04 APERTURE END LIST*
D10*
%TO.C,U2*%
X102028000Y-82254000D03*
X96478000Y-77404000D03*
X96478000Y-82254000D03*
X102028000Y-77404000D03*
D11*
X102653000Y-88979000D03*
X100953000Y-88979000D03*
X99253000Y-88979000D03*
X97553000Y-88979000D03*
X95853000Y-88979000D03*
%TD*%
D12*
%TO.C,Q10*%
X115824000Y-147955000D03*
X118874000Y-151305000D03*
X118874000Y-147955000D03*
X115824000Y-151305000D03*
D13*
X115069000Y-143330000D03*
X119629000Y-143330000D03*
%TD*%
D12*
%TO.C,Q9*%
X83946000Y-147574000D03*
X86996000Y-150924000D03*
X86996000Y-147574000D03*
X83946000Y-150924000D03*
D13*
X83191000Y-142949000D03*
X87751000Y-142949000D03*
%TD*%
D12*
%TO.C,Q8*%
X135889000Y-147110000D03*
X138939000Y-150460000D03*
X138939000Y-147110000D03*
X135889000Y-150460000D03*
D13*
X135134000Y-142485000D03*
X139694000Y-142485000D03*
%TD*%
D12*
%TO.C,Q7*%
X153416000Y-147828000D03*
X156466000Y-151178000D03*
X156466000Y-147828000D03*
X153416000Y-151178000D03*
D13*
X152661000Y-143203000D03*
X157221000Y-143203000D03*
%TD*%
%TO.C,C3*%
G36*
G01*
X94176000Y-118839000D02*
X94176000Y-117889000D01*
G75*
G02*
X94426000Y-117639000I250000J0D01*
G01*
X95101000Y-117639000D01*
G75*
G02*
X95351000Y-117889000I0J-250000D01*
G01*
X95351000Y-118839000D01*
G75*
G02*
X95101000Y-119089000I-250000J0D01*
G01*
X94426000Y-119089000D01*
G75*
G02*
X94176000Y-118839000I0J250000D01*
G01*
G37*
G36*
G01*
X92101000Y-118839000D02*
X92101000Y-117889000D01*
G75*
G02*
X92351000Y-117639000I250000J0D01*
G01*
X93026000Y-117639000D01*
G75*
G02*
X93276000Y-117889000I0J-250000D01*
G01*
X93276000Y-118839000D01*
G75*
G02*
X93026000Y-119089000I-250000J0D01*
G01*
X92351000Y-119089000D01*
G75*
G02*
X92101000Y-118839000I0J250000D01*
G01*
G37*
%TD*%
%TO.C,C1*%
G36*
G01*
X167927000Y-132784000D02*
X168877000Y-132784000D01*
G75*
G02*
X169127000Y-133034000I0J-250000D01*
G01*
X169127000Y-133709000D01*
G75*
G02*
X168877000Y-133959000I-250000J0D01*
G01*
X167927000Y-133959000D01*
G75*
G02*
X167677000Y-133709000I0J250000D01*
G01*
X167677000Y-133034000D01*
G75*
G02*
X167927000Y-132784000I250000J0D01*
G01*
G37*
G36*
G01*
X167927000Y-130709000D02*
X168877000Y-130709000D01*
G75*
G02*
X169127000Y-130959000I0J-250000D01*
G01*
X169127000Y-131634000D01*
G75*
G02*
X168877000Y-131884000I-250000J0D01*
G01*
X167927000Y-131884000D01*
G75*
G02*
X167677000Y-131634000I0J250000D01*
G01*
X167677000Y-130959000D01*
G75*
G02*
X167927000Y-130709000I250000J0D01*
G01*
G37*
%TD*%
M02*
