%FSLAX45Y45*%
G04 Gerber Fmt 4.5, Leading zero omitted, Abs format (unit mm)*
G04 Created by KiCad (PCBNEW 5.1.8-5.1.8) date 2021-07-28 16:27:36*
%MOMM*%
%LPD*%
G01*
G04 APERTURE LIST*
%TA.AperFunction,Profile*%
%ADD10C,0.100000*%
%TD*%
%ADD11C,0.200000*%
%ADD12C,0.300000*%
G04 APERTURE END LIST*
D10*
X17384000Y-15489000D02*
X17384000Y-5489000D01*
X7384000Y-15489000D02*
X17384000Y-15489000D01*
X7384000Y-5489000D02*
X7384000Y-15489000D01*
X17384000Y-5489000D02*
X7384000Y-5489000D01*
D11*
X8032500Y-14787500D02*
X8072500Y-14827500D01*
X8072500Y-14787500D02*
X8032500Y-14827500D01*
X8108000Y-15093000D02*
X8148000Y-15133000D01*
X8148000Y-15093000D02*
X8108000Y-15133000D01*
X8108000Y-15347000D02*
X8148000Y-15387000D01*
X8148000Y-15347000D02*
X8108000Y-15387000D01*
X8590600Y-13721400D02*
X8630600Y-13761400D01*
X8630600Y-13721400D02*
X8590600Y-13761400D01*
X9124000Y-14712000D02*
X9164000Y-14752000D01*
X9164000Y-14712000D02*
X9124000Y-14752000D01*
X9124000Y-14966000D02*
X9164000Y-15006000D01*
X9164000Y-14966000D02*
X9124000Y-15006000D01*
X9124000Y-15220000D02*
X9164000Y-15260000D01*
X9164000Y-15220000D02*
X9124000Y-15260000D01*
X9378000Y-14712000D02*
X9418000Y-14752000D01*
X9418000Y-14712000D02*
X9378000Y-14752000D01*
X9378000Y-14966000D02*
X9418000Y-15006000D01*
X9418000Y-14966000D02*
X9378000Y-15006000D01*
X9378000Y-15220000D02*
X9418000Y-15260000D01*
X9418000Y-15220000D02*
X9378000Y-15260000D01*
X9632000Y-14712000D02*
X9672000Y-14752000D01*
X9672000Y-14712000D02*
X9632000Y-14752000D01*
X9632000Y-14966000D02*
X9672000Y-15006000D01*
X9672000Y-14966000D02*
X9632000Y-15006000D01*
X9632000Y-15220000D02*
X9672000Y-15260000D01*
X9672000Y-15220000D02*
X9632000Y-15260000D01*
X9886000Y-14712000D02*
X9926000Y-14752000D01*
X9926000Y-14712000D02*
X9886000Y-14752000D01*
X9886000Y-14966000D02*
X9926000Y-15006000D01*
X9926000Y-14966000D02*
X9886000Y-15006000D01*
X9886000Y-15220000D02*
X9926000Y-15260000D01*
X9926000Y-15220000D02*
X9886000Y-15260000D01*
X11029000Y-14712000D02*
X11069000Y-14752000D01*
X11069000Y-14712000D02*
X11029000Y-14752000D01*
X11029000Y-15220000D02*
X11069000Y-15260000D01*
X11069000Y-15220000D02*
X11029000Y-15260000D01*
X11052000Y-14943000D02*
X11092000Y-14983000D01*
X11092000Y-14943000D02*
X11052000Y-14983000D01*
X11632250Y-11644950D02*
X11672250Y-11684950D01*
X11672250Y-11644950D02*
X11632250Y-11684950D01*
X12172000Y-14712000D02*
X12212000Y-14752000D01*
X12212000Y-14712000D02*
X12172000Y-14752000D01*
X12172000Y-14966000D02*
X12212000Y-15006000D01*
X12212000Y-14966000D02*
X12172000Y-15006000D01*
X12172000Y-15220000D02*
X12212000Y-15260000D01*
X12212000Y-15220000D02*
X12172000Y-15260000D01*
X12375200Y-9530400D02*
X12415200Y-9570400D01*
X12415200Y-9530400D02*
X12375200Y-9570400D01*
X12400600Y-9352600D02*
X12440600Y-9392600D01*
X12440600Y-9352600D02*
X12400600Y-9392600D01*
X12400600Y-9632000D02*
X12440600Y-9672000D01*
X12440600Y-9632000D02*
X12400600Y-9672000D01*
X12426000Y-14712000D02*
X12466000Y-14752000D01*
X12466000Y-14712000D02*
X12426000Y-14752000D01*
X12426000Y-14966000D02*
X12466000Y-15006000D01*
X12466000Y-14966000D02*
X12426000Y-15006000D01*
X12426000Y-15220000D02*
X12466000Y-15260000D01*
X12466000Y-15220000D02*
X12426000Y-15260000D01*
X12934000Y-14712000D02*
X12974000Y-14752000D01*
X12974000Y-14712000D02*
X12934000Y-14752000D01*
X12997500Y-9339900D02*
X13037500Y-9379900D01*
X13037500Y-9339900D02*
X12997500Y-9379900D01*
X13010200Y-9898700D02*
X13050200Y-9938700D01*
X13050200Y-9898700D02*
X13010200Y-9938700D01*
X13022900Y-10076500D02*
X13062900Y-10116500D01*
X13062900Y-10076500D02*
X13022900Y-10116500D01*
X13048300Y-10241600D02*
X13088300Y-10281600D01*
X13088300Y-10241600D02*
X13048300Y-10281600D01*
X13061000Y-15220000D02*
X13101000Y-15260000D01*
X13101000Y-15220000D02*
X13061000Y-15260000D01*
X13111800Y-9466900D02*
X13151800Y-9506900D01*
X13151800Y-9466900D02*
X13111800Y-9506900D01*
X13188000Y-14712000D02*
X13228000Y-14752000D01*
X13228000Y-14712000D02*
X13188000Y-14752000D01*
X13188000Y-15220000D02*
X13228000Y-15260000D01*
X13228000Y-15220000D02*
X13188000Y-15260000D01*
X13403900Y-11879900D02*
X13443900Y-11919900D01*
X13443900Y-11879900D02*
X13403900Y-11919900D01*
X13442000Y-9797100D02*
X13482000Y-9837100D01*
X13482000Y-9797100D02*
X13442000Y-9837100D01*
X13454700Y-10355900D02*
X13494700Y-10395900D01*
X13494700Y-10355900D02*
X13454700Y-10395900D01*
X13683300Y-11791000D02*
X13723300Y-11831000D01*
X13723300Y-11791000D02*
X13683300Y-11831000D01*
X14204000Y-15093000D02*
X14244000Y-15133000D01*
X14244000Y-15093000D02*
X14204000Y-15133000D01*
X14204000Y-15347000D02*
X14244000Y-15387000D01*
X14244000Y-15347000D02*
X14204000Y-15387000D01*
X14712000Y-14712000D02*
X14752000Y-14752000D01*
X14752000Y-14712000D02*
X14712000Y-14752000D01*
X14712000Y-14966000D02*
X14752000Y-15006000D01*
X14752000Y-14966000D02*
X14712000Y-15006000D01*
X14712000Y-15220000D02*
X14752000Y-15260000D01*
X14752000Y-15220000D02*
X14712000Y-15260000D01*
X14961500Y-14716500D02*
X15001500Y-14756500D01*
X15001500Y-14716500D02*
X14961500Y-14756500D01*
X14966000Y-14966000D02*
X15006000Y-15006000D01*
X15006000Y-14966000D02*
X14966000Y-15006000D01*
X14966000Y-15220000D02*
X15006000Y-15260000D01*
X15006000Y-15220000D02*
X14966000Y-15260000D01*
X15308900Y-14115100D02*
X15348900Y-14155100D01*
X15348900Y-14115100D02*
X15308900Y-14155100D01*
X15982000Y-14712000D02*
X16022000Y-14752000D01*
X16022000Y-14712000D02*
X15982000Y-14752000D01*
X15982000Y-14966000D02*
X16022000Y-15006000D01*
X16022000Y-14966000D02*
X15982000Y-15006000D01*
X15982000Y-15220000D02*
X16022000Y-15260000D01*
X16022000Y-15220000D02*
X15982000Y-15260000D01*
X16236000Y-14712000D02*
X16276000Y-14752000D01*
X16276000Y-14712000D02*
X16236000Y-14752000D01*
X16236000Y-14966000D02*
X16276000Y-15006000D01*
X16276000Y-14966000D02*
X16236000Y-15006000D01*
X16236000Y-15220000D02*
X16276000Y-15260000D01*
X16276000Y-15220000D02*
X16236000Y-15260000D01*
X16490000Y-14712000D02*
X16530000Y-14752000D01*
X16530000Y-14712000D02*
X16490000Y-14752000D01*
X16490000Y-14966000D02*
X16530000Y-15006000D01*
X16530000Y-14966000D02*
X16490000Y-15006000D01*
X16490000Y-15220000D02*
X16530000Y-15260000D01*
X16530000Y-15220000D02*
X16490000Y-15260000D01*
X14960000Y-9220000D02*
G75*
G03*
X14960000Y-9220000I-40000J0D01*
G01*
X15468000Y-9220000D02*
G75*
G03*
X15468000Y-9220000I-40000J0D01*
G01*
X12867000Y-7874000D02*
G75*
G03*
X12867000Y-7874000I-40000J0D01*
G01*
X12867000Y-8382000D02*
G75*
G03*
X12867000Y-8382000I-40000J0D01*
G01*
X16016600Y-12039600D02*
G75*
G03*
X16016600Y-12039600I-40000J0D01*
G01*
X16016600Y-12293600D02*
G75*
G03*
X16016600Y-12293600I-40000J0D01*
G01*
X16016600Y-12547600D02*
G75*
G03*
X16016600Y-12547600I-40000J0D01*
G01*
X11089000Y-7239000D02*
G75*
G03*
X11089000Y-7239000I-40000J0D01*
G01*
X11343000Y-7239000D02*
G75*
G03*
X11343000Y-7239000I-40000J0D01*
G01*
X11597000Y-7239000D02*
G75*
G03*
X11597000Y-7239000I-40000J0D01*
G01*
X12536800Y-13766800D02*
G75*
G03*
X12536800Y-13766800I-40000J0D01*
G01*
X12536800Y-14274800D02*
G75*
G03*
X12536800Y-14274800I-40000J0D01*
G01*
X8396600Y-11963400D02*
G75*
G03*
X8396600Y-11963400I-40000J0D01*
G01*
X8396600Y-12471400D02*
G75*
G03*
X8396600Y-12471400I-40000J0D01*
G01*
X14632300Y-8813800D02*
G75*
G03*
X14632300Y-8813800I-40000J0D01*
G01*
X15140300Y-8813800D02*
G75*
G03*
X15140300Y-8813800I-40000J0D01*
G01*
X12638400Y-13208000D02*
G75*
G03*
X12638400Y-13208000I-40000J0D01*
G01*
X12892400Y-13208000D02*
G75*
G03*
X12892400Y-13208000I-40000J0D01*
G01*
X13146400Y-13208000D02*
G75*
G03*
X13146400Y-13208000I-40000J0D01*
G01*
X16042000Y-6604000D02*
G75*
G03*
X16042000Y-6604000I-40000J0D01*
G01*
X16296000Y-6604000D02*
G75*
G03*
X16296000Y-6604000I-40000J0D01*
G01*
X16550000Y-6604000D02*
G75*
G03*
X16550000Y-6604000I-40000J0D01*
G01*
X12790000Y-12072000D02*
G75*
G03*
X12790000Y-12072000I-40000J0D01*
G01*
X12790000Y-12580000D02*
G75*
G03*
X12790000Y-12580000I-40000J0D01*
G01*
X15381600Y-13881100D02*
G75*
G03*
X15381600Y-13881100I-40000J0D01*
G01*
X16143600Y-13881100D02*
G75*
G03*
X16143600Y-13881100I-40000J0D01*
G01*
X7914000Y-7747000D02*
G75*
G03*
X7914000Y-7747000I-40000J0D01*
G01*
X8164000Y-7747000D02*
G75*
G03*
X8164000Y-7747000I-40000J0D01*
G01*
X15026000Y-7239000D02*
G75*
G03*
X15026000Y-7239000I-40000J0D01*
G01*
X15026000Y-7747000D02*
G75*
G03*
X15026000Y-7747000I-40000J0D01*
G01*
X11114400Y-12509500D02*
G75*
G03*
X11114400Y-12509500I-40000J0D01*
G01*
X11622400Y-12509500D02*
G75*
G03*
X11622400Y-12509500I-40000J0D01*
G01*
X13375000Y-6223000D02*
G75*
G03*
X13375000Y-6223000I-40000J0D01*
G01*
X13883000Y-6223000D02*
G75*
G03*
X13883000Y-6223000I-40000J0D01*
G01*
X15534000Y-7366000D02*
G75*
G03*
X15534000Y-7366000I-40000J0D01*
G01*
X15534000Y-7620000D02*
G75*
G03*
X15534000Y-7620000I-40000J0D01*
G01*
X15534000Y-7874000D02*
G75*
G03*
X15534000Y-7874000I-40000J0D01*
G01*
X15534000Y-8128000D02*
G75*
G03*
X15534000Y-8128000I-40000J0D01*
G01*
X16296000Y-7366000D02*
G75*
G03*
X16296000Y-7366000I-40000J0D01*
G01*
X16296000Y-7620000D02*
G75*
G03*
X16296000Y-7620000I-40000J0D01*
G01*
X16296000Y-7874000D02*
G75*
G03*
X16296000Y-7874000I-40000J0D01*
G01*
X16296000Y-8128000D02*
G75*
G03*
X16296000Y-8128000I-40000J0D01*
G01*
X15724500Y-8458200D02*
G75*
G03*
X15724500Y-8458200I-40000J0D01*
G01*
X16232500Y-8458200D02*
G75*
G03*
X16232500Y-8458200I-40000J0D01*
G01*
X16042000Y-5969000D02*
G75*
G03*
X16042000Y-5969000I-40000J0D01*
G01*
X16296000Y-5969000D02*
G75*
G03*
X16296000Y-5969000I-40000J0D01*
G01*
X16550000Y-5969000D02*
G75*
G03*
X16550000Y-5969000I-40000J0D01*
G01*
X15280000Y-12065000D02*
G75*
G03*
X15280000Y-12065000I-40000J0D01*
G01*
X15280000Y-12573000D02*
G75*
G03*
X15280000Y-12573000I-40000J0D01*
G01*
X14331500Y-10858500D02*
G75*
G03*
X14331500Y-10858500I-40000J0D01*
G01*
X14581500Y-10858500D02*
G75*
G03*
X14581500Y-10858500I-40000J0D01*
G01*
X14657700Y-11408600D02*
G75*
G03*
X14657700Y-11408600I-40000J0D01*
G01*
X14657700Y-11658600D02*
G75*
G03*
X14657700Y-11658600I-40000J0D01*
G01*
X8333100Y-13487400D02*
G75*
G03*
X8333100Y-13487400I-40000J0D01*
G01*
X9095100Y-13487400D02*
G75*
G03*
X9095100Y-13487400I-40000J0D01*
G01*
X11343000Y-7747000D02*
G75*
G03*
X11343000Y-7747000I-40000J0D01*
G01*
X11343000Y-8255000D02*
G75*
G03*
X11343000Y-8255000I-40000J0D01*
G01*
X16067400Y-11722100D02*
G75*
G03*
X16067400Y-11722100I-40000J0D01*
G01*
X16575400Y-11722100D02*
G75*
G03*
X16575400Y-11722100I-40000J0D01*
G01*
X14200500Y-9842500D02*
G75*
G03*
X14200500Y-9842500I-40000J0D01*
G01*
X14708500Y-9842500D02*
G75*
G03*
X14708500Y-9842500I-40000J0D01*
G01*
X8045000Y-9652000D02*
G75*
G03*
X8045000Y-9652000I-40000J0D01*
G01*
X8295000Y-9652000D02*
G75*
G03*
X8295000Y-9652000I-40000J0D01*
G01*
X8841100Y-13931900D02*
G75*
G03*
X8841100Y-13931900I-40000J0D01*
G01*
X9349100Y-13931900D02*
G75*
G03*
X9349100Y-13931900I-40000J0D01*
G01*
X16334100Y-12293600D02*
G75*
G03*
X16334100Y-12293600I-40000J0D01*
G01*
X16588100Y-12293600D02*
G75*
G03*
X16588100Y-12293600I-40000J0D01*
G01*
X16842100Y-12293600D02*
G75*
G03*
X16842100Y-12293600I-40000J0D01*
G01*
X13375000Y-6731000D02*
G75*
G03*
X13375000Y-6731000I-40000J0D01*
G01*
X13883000Y-6731000D02*
G75*
G03*
X13883000Y-6731000I-40000J0D01*
G01*
X14949800Y-10858500D02*
G75*
G03*
X14949800Y-10858500I-40000J0D01*
G01*
X14949800Y-11366500D02*
G75*
G03*
X14949800Y-11366500I-40000J0D01*
G01*
X13375000Y-7239000D02*
G75*
G03*
X13375000Y-7239000I-40000J0D01*
G01*
X13883000Y-7239000D02*
G75*
G03*
X13883000Y-7239000I-40000J0D01*
G01*
X11495400Y-13843000D02*
G75*
G03*
X11495400Y-13843000I-40000J0D01*
G01*
X12003400Y-13843000D02*
G75*
G03*
X12003400Y-13843000I-40000J0D01*
G01*
X15407000Y-10858500D02*
G75*
G03*
X15407000Y-10858500I-40000J0D01*
G01*
X15407000Y-11366500D02*
G75*
G03*
X15407000Y-11366500I-40000J0D01*
G01*
X13197200Y-8382000D02*
G75*
G03*
X13197200Y-8382000I-40000J0D01*
G01*
X13705200Y-8382000D02*
G75*
G03*
X13705200Y-8382000I-40000J0D01*
G01*
X15820000Y-13500000D02*
G75*
G03*
X15820000Y-13500000I-40000J0D01*
G01*
X16328000Y-13500000D02*
G75*
G03*
X16328000Y-13500000I-40000J0D01*
G01*
X16359500Y-9144000D02*
G75*
G03*
X16359500Y-9144000I-40000J0D01*
G01*
X16867500Y-9144000D02*
G75*
G03*
X16867500Y-9144000I-40000J0D01*
G01*
X10238100Y-12407900D02*
G75*
G03*
X10238100Y-12407900I-40000J0D01*
G01*
X10238100Y-12915900D02*
G75*
G03*
X10238100Y-12915900I-40000J0D01*
G01*
X14200568Y-10207726D02*
G75*
G03*
X14200568Y-10207726I-40000J0D01*
G01*
X14708568Y-10207726D02*
G75*
G03*
X14708568Y-10207726I-40000J0D01*
G01*
X13857600Y-8940800D02*
G75*
G03*
X13857600Y-8940800I-40000J0D01*
G01*
X14365600Y-8940800D02*
G75*
G03*
X14365600Y-8940800I-40000J0D01*
G01*
X16392000Y-10570000D02*
G75*
G03*
X16392000Y-10570000I-40000J0D01*
G01*
X16900000Y-10570000D02*
G75*
G03*
X16900000Y-10570000I-40000J0D01*
G01*
X14839500Y-8369300D02*
G75*
G03*
X14839500Y-8369300I-40000J0D01*
G01*
X15089500Y-8369300D02*
G75*
G03*
X15089500Y-8369300I-40000J0D01*
G01*
X9857100Y-11201400D02*
G75*
G03*
X9857100Y-11201400I-40000J0D01*
G01*
X9857100Y-11709400D02*
G75*
G03*
X9857100Y-11709400I-40000J0D01*
G01*
X13146400Y-12573000D02*
G75*
G03*
X13146400Y-12573000I-40000J0D01*
G01*
X13654400Y-12573000D02*
G75*
G03*
X13654400Y-12573000I-40000J0D01*
G01*
X10606400Y-13208000D02*
G75*
G03*
X10606400Y-13208000I-40000J0D01*
G01*
X10860400Y-13208000D02*
G75*
G03*
X10860400Y-13208000I-40000J0D01*
G01*
X11114400Y-13208000D02*
G75*
G03*
X11114400Y-13208000I-40000J0D01*
G01*
X11089000Y-6096000D02*
G75*
G03*
X11089000Y-6096000I-40000J0D01*
G01*
X11089000Y-6858000D02*
G75*
G03*
X11089000Y-6858000I-40000J0D01*
G01*
X11343000Y-6096000D02*
G75*
G03*
X11343000Y-6096000I-40000J0D01*
G01*
X11343000Y-6858000D02*
G75*
G03*
X11343000Y-6858000I-40000J0D01*
G01*
X11597000Y-6096000D02*
G75*
G03*
X11597000Y-6096000I-40000J0D01*
G01*
X11597000Y-6858000D02*
G75*
G03*
X11597000Y-6858000I-40000J0D01*
G01*
X11851000Y-6096000D02*
G75*
G03*
X11851000Y-6096000I-40000J0D01*
G01*
X11851000Y-6858000D02*
G75*
G03*
X11851000Y-6858000I-40000J0D01*
G01*
X12105000Y-6096000D02*
G75*
G03*
X12105000Y-6096000I-40000J0D01*
G01*
X12105000Y-6858000D02*
G75*
G03*
X12105000Y-6858000I-40000J0D01*
G01*
X12359000Y-6096000D02*
G75*
G03*
X12359000Y-6096000I-40000J0D01*
G01*
X12359000Y-6858000D02*
G75*
G03*
X12359000Y-6858000I-40000J0D01*
G01*
X12613000Y-6096000D02*
G75*
G03*
X12613000Y-6096000I-40000J0D01*
G01*
X12613000Y-6858000D02*
G75*
G03*
X12613000Y-6858000I-40000J0D01*
G01*
X12867000Y-6096000D02*
G75*
G03*
X12867000Y-6096000I-40000J0D01*
G01*
X12867000Y-6858000D02*
G75*
G03*
X12867000Y-6858000I-40000J0D01*
G01*
X14137000Y-9334500D02*
G75*
G03*
X14137000Y-9334500I-40000J0D01*
G01*
X14645000Y-9334500D02*
G75*
G03*
X14645000Y-9334500I-40000J0D01*
G01*
X9620000Y-13487400D02*
G75*
G03*
X9620000Y-13487400I-40000J0D01*
G01*
X9620000Y-13995400D02*
G75*
G03*
X9620000Y-13995400I-40000J0D01*
G01*
X12613000Y-11176000D02*
G75*
G03*
X12613000Y-11176000I-40000J0D01*
G01*
X13121000Y-11176000D02*
G75*
G03*
X13121000Y-11176000I-40000J0D01*
G01*
X16588100Y-12674600D02*
G75*
G03*
X16588100Y-12674600I-40000J0D01*
G01*
X16588100Y-13182600D02*
G75*
G03*
X16588100Y-13182600I-40000J0D01*
G01*
X9476100Y-12344400D02*
G75*
G03*
X9476100Y-12344400I-40000J0D01*
G01*
X9730100Y-12344400D02*
G75*
G03*
X9730100Y-12344400I-40000J0D01*
G01*
X9984100Y-12344400D02*
G75*
G03*
X9984100Y-12344400I-40000J0D01*
G01*
X10840000Y-11811000D02*
G75*
G03*
X10840000Y-11811000I-40000J0D01*
G01*
X10840000Y-12319000D02*
G75*
G03*
X10840000Y-12319000I-40000J0D01*
G01*
X14115600Y-8343900D02*
G75*
G03*
X14115600Y-8343900I-40000J0D01*
G01*
X14365600Y-8343900D02*
G75*
G03*
X14365600Y-8343900I-40000J0D01*
G01*
X17121500Y-9652000D02*
G75*
G03*
X17121500Y-9652000I-40000J0D01*
G01*
X17121500Y-10160000D02*
G75*
G03*
X17121500Y-10160000I-40000J0D01*
G01*
X15381600Y-12928600D02*
G75*
G03*
X15381600Y-12928600I-40000J0D01*
G01*
X15381600Y-13436600D02*
G75*
G03*
X15381600Y-13436600I-40000J0D01*
G01*
X16600000Y-7112000D02*
G75*
G03*
X16600000Y-7112000I-40000J0D01*
G01*
X17108000Y-7112000D02*
G75*
G03*
X17108000Y-7112000I-40000J0D01*
G01*
X12823500Y-10477500D02*
G75*
G03*
X12823500Y-10477500I-40000J0D01*
G01*
X13311500Y-10477500D02*
G75*
G03*
X13311500Y-10477500I-40000J0D01*
G01*
X11728000Y-9779000D02*
G75*
G03*
X11728000Y-9779000I-40000J0D01*
G01*
X11978000Y-9779000D02*
G75*
G03*
X11978000Y-9779000I-40000J0D01*
G01*
X12066900Y-12954000D02*
G75*
G03*
X12066900Y-12954000I-40000J0D01*
G01*
X12066900Y-13208000D02*
G75*
G03*
X12066900Y-13208000I-40000J0D01*
G01*
X12066900Y-13462000D02*
G75*
G03*
X12066900Y-13462000I-40000J0D01*
G01*
X13920000Y-9592500D02*
G75*
G03*
X13920000Y-9592500I-40000J0D01*
G01*
X13920000Y-9842500D02*
G75*
G03*
X13920000Y-9842500I-40000J0D01*
G01*
X14162400Y-12954000D02*
G75*
G03*
X14162400Y-12954000I-40000J0D01*
G01*
X14162400Y-13208000D02*
G75*
G03*
X14162400Y-13208000I-40000J0D01*
G01*
X14162400Y-13462000D02*
G75*
G03*
X14162400Y-13462000I-40000J0D01*
G01*
X8142600Y-12915900D02*
G75*
G03*
X8142600Y-12915900I-40000J0D01*
G01*
X8650600Y-12915900D02*
G75*
G03*
X8650600Y-12915900I-40000J0D01*
G01*
X15280000Y-6604000D02*
G75*
G03*
X15280000Y-6604000I-40000J0D01*
G01*
X15534000Y-6604000D02*
G75*
G03*
X15534000Y-6604000I-40000J0D01*
G01*
X15788000Y-6604000D02*
G75*
G03*
X15788000Y-6604000I-40000J0D01*
G01*
X12613000Y-7112000D02*
G75*
G03*
X12613000Y-7112000I-40000J0D01*
G01*
X12613000Y-7366000D02*
G75*
G03*
X12613000Y-7366000I-40000J0D01*
G01*
X12613000Y-7620000D02*
G75*
G03*
X12613000Y-7620000I-40000J0D01*
G01*
X14962500Y-10550000D02*
G75*
G03*
X14962500Y-10550000I-40000J0D01*
G01*
X15470500Y-10550000D02*
G75*
G03*
X15470500Y-10550000I-40000J0D01*
G01*
X13527400Y-13779500D02*
G75*
G03*
X13527400Y-13779500I-40000J0D01*
G01*
X14035400Y-13779500D02*
G75*
G03*
X14035400Y-13779500I-40000J0D01*
G01*
X11978000Y-7112000D02*
G75*
G03*
X11978000Y-7112000I-40000J0D01*
G01*
X11978000Y-7366000D02*
G75*
G03*
X11978000Y-7366000I-40000J0D01*
G01*
X11978000Y-7620000D02*
G75*
G03*
X11978000Y-7620000I-40000J0D01*
G01*
X11431900Y-12954000D02*
G75*
G03*
X11431900Y-12954000I-40000J0D01*
G01*
X11431900Y-13208000D02*
G75*
G03*
X11431900Y-13208000I-40000J0D01*
G01*
X11431900Y-13462000D02*
G75*
G03*
X11431900Y-13462000I-40000J0D01*
G01*
X15762600Y-12865100D02*
G75*
G03*
X15762600Y-12865100I-40000J0D01*
G01*
X16016600Y-12865100D02*
G75*
G03*
X16016600Y-12865100I-40000J0D01*
G01*
X16270600Y-12865100D02*
G75*
G03*
X16270600Y-12865100I-40000J0D01*
G01*
X12651100Y-8724900D02*
G75*
G03*
X12651100Y-8724900I-40000J0D01*
G01*
X13159100Y-8724900D02*
G75*
G03*
X13159100Y-8724900I-40000J0D01*
G01*
X17108800Y-12293600D02*
G75*
G03*
X17108800Y-12293600I-40000J0D01*
G01*
X17108800Y-12801600D02*
G75*
G03*
X17108800Y-12801600I-40000J0D01*
G01*
X13463900Y-12954000D02*
G75*
G03*
X13463900Y-12954000I-40000J0D01*
G01*
X13463900Y-13208000D02*
G75*
G03*
X13463900Y-13208000I-40000J0D01*
G01*
X13463900Y-13462000D02*
G75*
G03*
X13463900Y-13462000I-40000J0D01*
G01*
X15280000Y-5969000D02*
G75*
G03*
X15280000Y-5969000I-40000J0D01*
G01*
X15534000Y-5969000D02*
G75*
G03*
X15534000Y-5969000I-40000J0D01*
G01*
X15788000Y-5969000D02*
G75*
G03*
X15788000Y-5969000I-40000J0D01*
G01*
X15724500Y-8763000D02*
G75*
G03*
X15724500Y-8763000I-40000J0D01*
G01*
X16232500Y-8763000D02*
G75*
G03*
X16232500Y-8763000I-40000J0D01*
G01*
X11089000Y-11303000D02*
G75*
G03*
X11089000Y-11303000I-40000J0D01*
G01*
X11339000Y-11303000D02*
G75*
G03*
X11339000Y-11303000I-40000J0D01*
G01*
X8231500Y-5702300D02*
G75*
G03*
X8231500Y-5702300I-40000J0D01*
G01*
X8231500Y-6210300D02*
G75*
G03*
X8231500Y-6210300I-40000J0D01*
G01*
X14213200Y-11408600D02*
G75*
G03*
X14213200Y-11408600I-40000J0D01*
G01*
X14213200Y-11658600D02*
G75*
G03*
X14213200Y-11658600I-40000J0D01*
G01*
X12232000Y-7874000D02*
G75*
G03*
X12232000Y-7874000I-40000J0D01*
G01*
X12232000Y-8382000D02*
G75*
G03*
X12232000Y-8382000I-40000J0D01*
G01*
X8904600Y-12915900D02*
G75*
G03*
X8904600Y-12915900I-40000J0D01*
G01*
X9158600Y-12915900D02*
G75*
G03*
X9158600Y-12915900I-40000J0D01*
G01*
X9412600Y-12915900D02*
G75*
G03*
X9412600Y-12915900I-40000J0D01*
G01*
X14403700Y-13779500D02*
G75*
G03*
X14403700Y-13779500I-40000J0D01*
G01*
X14403700Y-14287500D02*
G75*
G03*
X14403700Y-14287500I-40000J0D01*
G01*
X9158600Y-12090400D02*
G75*
G03*
X9158600Y-12090400I-40000J0D01*
G01*
X9158600Y-12344400D02*
G75*
G03*
X9158600Y-12344400I-40000J0D01*
G01*
X9158600Y-12598400D02*
G75*
G03*
X9158600Y-12598400I-40000J0D01*
G01*
X15724500Y-10922000D02*
G75*
G03*
X15724500Y-10922000I-40000J0D01*
G01*
X16232500Y-10922000D02*
G75*
G03*
X16232500Y-10922000I-40000J0D01*
G01*
X13121000Y-5842000D02*
G75*
G03*
X13121000Y-5842000I-40000J0D01*
G01*
X13629000Y-5842000D02*
G75*
G03*
X13629000Y-5842000I-40000J0D01*
G01*
X15216500Y-9525000D02*
G75*
G03*
X15216500Y-9525000I-40000J0D01*
G01*
X15216500Y-10287000D02*
G75*
G03*
X15216500Y-10287000I-40000J0D01*
G01*
X15470500Y-9525000D02*
G75*
G03*
X15470500Y-9525000I-40000J0D01*
G01*
X15470500Y-10287000D02*
G75*
G03*
X15470500Y-10287000I-40000J0D01*
G01*
X15724500Y-9525000D02*
G75*
G03*
X15724500Y-9525000I-40000J0D01*
G01*
X15724500Y-10287000D02*
G75*
G03*
X15724500Y-10287000I-40000J0D01*
G01*
X15978500Y-9525000D02*
G75*
G03*
X15978500Y-9525000I-40000J0D01*
G01*
X15978500Y-10287000D02*
G75*
G03*
X15978500Y-10287000I-40000J0D01*
G01*
X16232500Y-9525000D02*
G75*
G03*
X16232500Y-9525000I-40000J0D01*
G01*
X16232500Y-10287000D02*
G75*
G03*
X16232500Y-10287000I-40000J0D01*
G01*
X16486500Y-9525000D02*
G75*
G03*
X16486500Y-9525000I-40000J0D01*
G01*
X16486500Y-10287000D02*
G75*
G03*
X16486500Y-10287000I-40000J0D01*
G01*
X16740500Y-9525000D02*
G75*
G03*
X16740500Y-9525000I-40000J0D01*
G01*
X16740500Y-10287000D02*
G75*
G03*
X16740500Y-10287000I-40000J0D01*
G01*
X14200500Y-10541000D02*
G75*
G03*
X14200500Y-10541000I-40000J0D01*
G01*
X14708500Y-10541000D02*
G75*
G03*
X14708500Y-10541000I-40000J0D01*
G01*
X13970000Y-7697000D02*
X13970000Y-7797000D01*
X13920000Y-7747000D02*
X14020000Y-7747000D01*
X14224000Y-7189000D02*
X14224000Y-7289000D01*
X14174000Y-7239000D02*
X14274000Y-7239000D01*
X7747000Y-10872000D02*
X7747000Y-10972000D01*
X7697000Y-10922000D02*
X7797000Y-10922000D01*
X7747000Y-9983000D02*
X7747000Y-10083000D01*
X7697000Y-10033000D02*
X7797000Y-10033000D01*
X17018000Y-6300000D02*
X17018000Y-6400000D01*
X16968000Y-6350000D02*
X17068000Y-6350000D01*
X13081000Y-14936000D02*
X13081000Y-15036000D01*
X13031000Y-14986000D02*
X13131000Y-14986000D01*
X7778000Y-6808000D02*
X7778000Y-6908000D01*
X7728000Y-6858000D02*
X7828000Y-6858000D01*
X8128000Y-6808000D02*
X8128000Y-6908000D01*
X8078000Y-6858000D02*
X8178000Y-6858000D01*
X14605000Y-6173000D02*
X14605000Y-6273000D01*
X14555000Y-6223000D02*
X14655000Y-6223000D01*
X11049000Y-10364000D02*
X11049000Y-10464000D01*
X10999000Y-10414000D02*
X11099000Y-10414000D01*
X11399000Y-10364000D02*
X11399000Y-10464000D01*
X11349000Y-10414000D02*
X11449000Y-10414000D01*
X8763000Y-5792000D02*
X8763000Y-5892000D01*
X8713000Y-5842000D02*
X8813000Y-5842000D01*
X9017000Y-5792000D02*
X9017000Y-5892000D01*
X8967000Y-5842000D02*
X9067000Y-5842000D01*
X9271000Y-5792000D02*
X9271000Y-5892000D01*
X9221000Y-5842000D02*
X9321000Y-5842000D01*
X9525000Y-5792000D02*
X9525000Y-5892000D01*
X9475000Y-5842000D02*
X9575000Y-5842000D01*
X9779000Y-5792000D02*
X9779000Y-5892000D01*
X9729000Y-5842000D02*
X9829000Y-5842000D01*
X10033000Y-5792000D02*
X10033000Y-5892000D01*
X9983000Y-5842000D02*
X10083000Y-5842000D01*
X10287000Y-5792000D02*
X10287000Y-5892000D01*
X10237000Y-5842000D02*
X10337000Y-5842000D01*
X10541000Y-5792000D02*
X10541000Y-5892000D01*
X10491000Y-5842000D02*
X10591000Y-5842000D01*
X10795000Y-5792000D02*
X10795000Y-5892000D01*
X10745000Y-5842000D02*
X10845000Y-5842000D01*
X11049000Y-5792000D02*
X11049000Y-5892000D01*
X10999000Y-5842000D02*
X11099000Y-5842000D01*
X11303000Y-5792000D02*
X11303000Y-5892000D01*
X11253000Y-5842000D02*
X11353000Y-5842000D01*
X11557000Y-5792000D02*
X11557000Y-5892000D01*
X11507000Y-5842000D02*
X11607000Y-5842000D01*
X11811000Y-5792000D02*
X11811000Y-5892000D01*
X11761000Y-5842000D02*
X11861000Y-5842000D01*
X12065000Y-5792000D02*
X12065000Y-5892000D01*
X12015000Y-5842000D02*
X12115000Y-5842000D01*
X12319000Y-5792000D02*
X12319000Y-5892000D01*
X12269000Y-5842000D02*
X12369000Y-5842000D01*
X12573000Y-5792000D02*
X12573000Y-5892000D01*
X12523000Y-5842000D02*
X12623000Y-5842000D01*
X8413000Y-10491000D02*
X8413000Y-10591000D01*
X8363000Y-10541000D02*
X8463000Y-10541000D01*
X8763000Y-10491000D02*
X8763000Y-10591000D01*
X8713000Y-10541000D02*
X8813000Y-10541000D01*
X12623800Y-11634000D02*
X12623800Y-11734000D01*
X12573800Y-11684000D02*
X12673800Y-11684000D01*
X12877800Y-11634000D02*
X12877800Y-11734000D01*
X12827800Y-11684000D02*
X12927800Y-11684000D01*
X13131800Y-11634000D02*
X13131800Y-11734000D01*
X13081800Y-11684000D02*
X13181800Y-11684000D01*
X17068800Y-10960900D02*
X17068800Y-11060900D01*
X17018800Y-11010900D02*
X17118800Y-11010900D01*
X10795000Y-14936000D02*
X10795000Y-15036000D01*
X10745000Y-14986000D02*
X10845000Y-14986000D01*
X17120000Y-8680000D02*
X17120000Y-8780000D01*
X17070000Y-8730000D02*
X17170000Y-8730000D01*
X8370091Y-11468891D02*
X8370091Y-11391109D01*
X8292309Y-11391109D01*
X8292309Y-11468891D01*
X8370091Y-11468891D01*
X9386091Y-11468891D02*
X9386091Y-11391109D01*
X9308309Y-11391109D01*
X9308309Y-11468891D01*
X9386091Y-11468891D01*
X8928891Y-6769891D02*
X8928891Y-6692109D01*
X8851109Y-6692109D01*
X8851109Y-6769891D01*
X8928891Y-6769891D01*
X8928891Y-7785891D02*
X8928891Y-7708109D01*
X8851109Y-7708109D01*
X8851109Y-7785891D01*
X8928891Y-7785891D01*
X7785891Y-8420891D02*
X7785891Y-8343109D01*
X7708109Y-8343109D01*
X7708109Y-8420891D01*
X7785891Y-8420891D01*
X7785891Y-8674891D02*
X7785891Y-8597109D01*
X7708109Y-8597109D01*
X7708109Y-8674891D01*
X7785891Y-8674891D01*
X7785891Y-8928891D02*
X7785891Y-8851109D01*
X7708109Y-8851109D01*
X7708109Y-8928891D01*
X7785891Y-8928891D01*
X9436891Y-10579891D02*
X9436891Y-10502109D01*
X9359109Y-10502109D01*
X9359109Y-10579891D01*
X9436891Y-10579891D01*
X10452891Y-10579891D02*
X10452891Y-10502109D01*
X10375109Y-10502109D01*
X10375109Y-10579891D01*
X10452891Y-10579891D01*
X12103891Y-10198891D02*
X12103891Y-10121109D01*
X12026109Y-10121109D01*
X12026109Y-10198891D01*
X12103891Y-10198891D01*
X12103891Y-11214891D02*
X12103891Y-11137109D01*
X12026109Y-11137109D01*
X12026109Y-11214891D01*
X12103891Y-11214891D01*
X13729491Y-12281691D02*
X13729491Y-12203909D01*
X13651709Y-12203909D01*
X13651709Y-12281691D01*
X13729491Y-12281691D01*
X14745491Y-12281691D02*
X14745491Y-12203909D01*
X14667709Y-12203909D01*
X14667709Y-12281691D01*
X14745491Y-12281691D01*
X10090000Y-9565000D02*
X10155000Y-9500000D01*
X10090000Y-9435000D01*
X10025000Y-9500000D01*
X10090000Y-9565000D01*
X10090000Y-10065000D02*
X10155000Y-10000000D01*
X10090000Y-9935000D01*
X10025000Y-10000000D01*
X10090000Y-10065000D01*
X8733800Y-8136900D02*
X8893800Y-8296900D01*
X8893800Y-8136900D02*
X8733800Y-8296900D01*
X8893800Y-8216900D02*
G75*
G03*
X8893800Y-8216900I-80000J0D01*
G01*
X8733800Y-9660900D02*
X8893800Y-9820900D01*
X8893800Y-9660900D02*
X8733800Y-9820900D01*
X8893800Y-9740900D02*
G75*
G03*
X8893800Y-9740900I-80000J0D01*
G01*
X7940000Y-14020000D02*
X8140000Y-14220000D01*
X8140000Y-14020000D02*
X7940000Y-14220000D01*
X8040000Y-14020000D02*
X8040000Y-14220000D01*
X7940000Y-14120000D02*
X8140000Y-14120000D01*
X10376000Y-14694000D02*
X10576000Y-14894000D01*
X10576000Y-14694000D02*
X10376000Y-14894000D01*
X10476000Y-14694000D02*
X10476000Y-14894000D01*
X10376000Y-14794000D02*
X10576000Y-14794000D01*
X14170000Y-14710000D02*
X14370000Y-14910000D01*
X14370000Y-14710000D02*
X14170000Y-14910000D01*
X14270000Y-14710000D02*
X14270000Y-14910000D01*
X14170000Y-14810000D02*
X14370000Y-14810000D01*
X14950300Y-14220300D02*
X15150300Y-14420300D01*
X15150300Y-14220300D02*
X14950300Y-14420300D01*
X15050300Y-14220300D02*
X15050300Y-14420300D01*
X14950300Y-14320300D02*
X15150300Y-14320300D01*
X16983000Y-5705000D02*
X17183000Y-5905000D01*
X17183000Y-5705000D02*
X16983000Y-5905000D01*
X17083000Y-5705000D02*
X17083000Y-5905000D01*
X16983000Y-5805000D02*
X17183000Y-5805000D01*
X7534000Y-5639000D02*
X7834000Y-5939000D01*
X7834000Y-5639000D02*
X7534000Y-5939000D01*
X7790067Y-5895067D02*
X7790067Y-5682933D01*
X7577933Y-5682933D01*
X7577933Y-5895067D01*
X7790067Y-5895067D01*
X7534000Y-15039000D02*
X7834000Y-15339000D01*
X7834000Y-15039000D02*
X7534000Y-15339000D01*
X7790067Y-15295067D02*
X7790067Y-15082933D01*
X7577933Y-15082933D01*
X7577933Y-15295067D01*
X7790067Y-15295067D01*
X16868000Y-14963000D02*
X17168000Y-15263000D01*
X17168000Y-14963000D02*
X16868000Y-15263000D01*
X17124067Y-15219067D02*
X17124067Y-15006933D01*
X16911933Y-15006933D01*
X16911933Y-15219067D01*
X17124067Y-15219067D01*
D12*
X7665428Y-15959714D02*
X7665428Y-15659714D01*
X7736857Y-15659714D01*
X7779714Y-15674000D01*
X7808286Y-15702571D01*
X7822571Y-15731143D01*
X7836857Y-15788286D01*
X7836857Y-15831143D01*
X7822571Y-15888286D01*
X7808286Y-15916857D01*
X7779714Y-15945429D01*
X7736857Y-15959714D01*
X7665428Y-15959714D01*
X7965428Y-15959714D02*
X7965428Y-15759714D01*
X7965428Y-15816857D02*
X7979714Y-15788286D01*
X7994000Y-15774000D01*
X8022571Y-15759714D01*
X8051143Y-15759714D01*
X8151143Y-15959714D02*
X8151143Y-15759714D01*
X8151143Y-15659714D02*
X8136857Y-15674000D01*
X8151143Y-15688286D01*
X8165428Y-15674000D01*
X8151143Y-15659714D01*
X8151143Y-15688286D01*
X8336857Y-15959714D02*
X8308286Y-15945429D01*
X8294000Y-15916857D01*
X8294000Y-15659714D01*
X8494000Y-15959714D02*
X8465428Y-15945429D01*
X8451143Y-15916857D01*
X8451143Y-15659714D01*
X8836857Y-15959714D02*
X8836857Y-15659714D01*
X8936857Y-15874000D01*
X9036857Y-15659714D01*
X9036857Y-15959714D01*
X9308286Y-15959714D02*
X9308286Y-15802571D01*
X9294000Y-15774000D01*
X9265428Y-15759714D01*
X9208286Y-15759714D01*
X9179714Y-15774000D01*
X9308286Y-15945429D02*
X9279714Y-15959714D01*
X9208286Y-15959714D01*
X9179714Y-15945429D01*
X9165428Y-15916857D01*
X9165428Y-15888286D01*
X9179714Y-15859714D01*
X9208286Y-15845429D01*
X9279714Y-15845429D01*
X9308286Y-15831143D01*
X9451143Y-15759714D02*
X9451143Y-16059714D01*
X9451143Y-15774000D02*
X9479714Y-15759714D01*
X9536857Y-15759714D01*
X9565428Y-15774000D01*
X9579714Y-15788286D01*
X9594000Y-15816857D01*
X9594000Y-15902571D01*
X9579714Y-15931143D01*
X9565428Y-15945429D01*
X9536857Y-15959714D01*
X9479714Y-15959714D01*
X9451143Y-15945429D01*
X9722571Y-15931143D02*
X9736857Y-15945429D01*
X9722571Y-15959714D01*
X9708286Y-15945429D01*
X9722571Y-15931143D01*
X9722571Y-15959714D01*
X9722571Y-15774000D02*
X9736857Y-15788286D01*
X9722571Y-15802571D01*
X9708286Y-15788286D01*
X9722571Y-15774000D01*
X9722571Y-15802571D01*
X7339000Y-16434000D02*
X7379000Y-16474000D01*
X7379000Y-16434000D02*
X7339000Y-16474000D01*
X7722571Y-16289714D02*
X7751143Y-16289714D01*
X7779714Y-16304000D01*
X7794000Y-16318286D01*
X7808286Y-16346857D01*
X7822571Y-16404000D01*
X7822571Y-16475429D01*
X7808286Y-16532571D01*
X7794000Y-16561143D01*
X7779714Y-16575429D01*
X7751143Y-16589714D01*
X7722571Y-16589714D01*
X7694000Y-16575429D01*
X7679714Y-16561143D01*
X7665428Y-16532571D01*
X7651143Y-16475429D01*
X7651143Y-16404000D01*
X7665428Y-16346857D01*
X7679714Y-16318286D01*
X7694000Y-16304000D01*
X7722571Y-16289714D01*
X7951143Y-16561143D02*
X7965428Y-16575429D01*
X7951143Y-16589714D01*
X7936857Y-16575429D01*
X7951143Y-16561143D01*
X7951143Y-16589714D01*
X8222571Y-16389714D02*
X8222571Y-16589714D01*
X8151143Y-16275429D02*
X8079714Y-16489714D01*
X8265428Y-16489714D01*
X8436857Y-16289714D02*
X8465428Y-16289714D01*
X8494000Y-16304000D01*
X8508286Y-16318286D01*
X8522571Y-16346857D01*
X8536857Y-16404000D01*
X8536857Y-16475429D01*
X8522571Y-16532571D01*
X8508286Y-16561143D01*
X8494000Y-16575429D01*
X8465428Y-16589714D01*
X8436857Y-16589714D01*
X8408286Y-16575429D01*
X8394000Y-16561143D01*
X8379714Y-16532571D01*
X8365428Y-16475429D01*
X8365428Y-16404000D01*
X8379714Y-16346857D01*
X8394000Y-16318286D01*
X8408286Y-16304000D01*
X8436857Y-16289714D01*
X8665428Y-16589714D02*
X8665428Y-16389714D01*
X8665428Y-16418286D02*
X8679714Y-16404000D01*
X8708286Y-16389714D01*
X8751143Y-16389714D01*
X8779714Y-16404000D01*
X8794000Y-16432571D01*
X8794000Y-16589714D01*
X8794000Y-16432571D02*
X8808286Y-16404000D01*
X8836857Y-16389714D01*
X8879714Y-16389714D01*
X8908286Y-16404000D01*
X8922571Y-16432571D01*
X8922571Y-16589714D01*
X9065428Y-16589714D02*
X9065428Y-16389714D01*
X9065428Y-16418286D02*
X9079714Y-16404000D01*
X9108286Y-16389714D01*
X9151143Y-16389714D01*
X9179714Y-16404000D01*
X9194000Y-16432571D01*
X9194000Y-16589714D01*
X9194000Y-16432571D02*
X9208286Y-16404000D01*
X9236857Y-16389714D01*
X9279714Y-16389714D01*
X9308286Y-16404000D01*
X9322571Y-16432571D01*
X9322571Y-16589714D01*
X9908286Y-16275429D02*
X9651143Y-16661143D01*
X10294000Y-16289714D02*
X10322571Y-16289714D01*
X10351143Y-16304000D01*
X10365428Y-16318286D01*
X10379714Y-16346857D01*
X10394000Y-16404000D01*
X10394000Y-16475429D01*
X10379714Y-16532571D01*
X10365428Y-16561143D01*
X10351143Y-16575429D01*
X10322571Y-16589714D01*
X10294000Y-16589714D01*
X10265428Y-16575429D01*
X10251143Y-16561143D01*
X10236857Y-16532571D01*
X10222571Y-16475429D01*
X10222571Y-16404000D01*
X10236857Y-16346857D01*
X10251143Y-16318286D01*
X10265428Y-16304000D01*
X10294000Y-16289714D01*
X10522571Y-16561143D02*
X10536857Y-16575429D01*
X10522571Y-16589714D01*
X10508286Y-16575429D01*
X10522571Y-16561143D01*
X10522571Y-16589714D01*
X10722571Y-16289714D02*
X10751143Y-16289714D01*
X10779714Y-16304000D01*
X10794000Y-16318286D01*
X10808286Y-16346857D01*
X10822571Y-16404000D01*
X10822571Y-16475429D01*
X10808286Y-16532571D01*
X10794000Y-16561143D01*
X10779714Y-16575429D01*
X10751143Y-16589714D01*
X10722571Y-16589714D01*
X10694000Y-16575429D01*
X10679714Y-16561143D01*
X10665428Y-16532571D01*
X10651143Y-16475429D01*
X10651143Y-16404000D01*
X10665428Y-16346857D01*
X10679714Y-16318286D01*
X10694000Y-16304000D01*
X10722571Y-16289714D01*
X11108286Y-16589714D02*
X10936857Y-16589714D01*
X11022571Y-16589714D02*
X11022571Y-16289714D01*
X10994000Y-16332571D01*
X10965428Y-16361143D01*
X10936857Y-16375429D01*
X11365428Y-16289714D02*
X11308286Y-16289714D01*
X11279714Y-16304000D01*
X11265428Y-16318286D01*
X11236857Y-16361143D01*
X11222571Y-16418286D01*
X11222571Y-16532571D01*
X11236857Y-16561143D01*
X11251143Y-16575429D01*
X11279714Y-16589714D01*
X11336857Y-16589714D01*
X11365428Y-16575429D01*
X11379714Y-16561143D01*
X11394000Y-16532571D01*
X11394000Y-16461143D01*
X11379714Y-16432571D01*
X11365428Y-16418286D01*
X11336857Y-16404000D01*
X11279714Y-16404000D01*
X11251143Y-16418286D01*
X11236857Y-16432571D01*
X11222571Y-16461143D01*
X11508286Y-16289714D02*
X11508286Y-16346857D01*
X11622571Y-16289714D02*
X11622571Y-16346857D01*
X12065428Y-16704000D02*
X12051143Y-16689714D01*
X12022571Y-16646857D01*
X12008286Y-16618286D01*
X11994000Y-16575429D01*
X11979714Y-16504000D01*
X11979714Y-16446857D01*
X11994000Y-16375429D01*
X12008286Y-16332571D01*
X12022571Y-16304000D01*
X12051143Y-16261143D01*
X12065428Y-16246857D01*
X12308286Y-16289714D02*
X12251143Y-16289714D01*
X12222571Y-16304000D01*
X12208286Y-16318286D01*
X12179714Y-16361143D01*
X12165428Y-16418286D01*
X12165428Y-16532571D01*
X12179714Y-16561143D01*
X12194000Y-16575429D01*
X12222571Y-16589714D01*
X12279714Y-16589714D01*
X12308286Y-16575429D01*
X12322571Y-16561143D01*
X12336857Y-16532571D01*
X12336857Y-16461143D01*
X12322571Y-16432571D01*
X12308286Y-16418286D01*
X12279714Y-16404000D01*
X12222571Y-16404000D01*
X12194000Y-16418286D01*
X12179714Y-16432571D01*
X12165428Y-16461143D01*
X12522571Y-16289714D02*
X12551143Y-16289714D01*
X12579714Y-16304000D01*
X12594000Y-16318286D01*
X12608286Y-16346857D01*
X12622571Y-16404000D01*
X12622571Y-16475429D01*
X12608286Y-16532571D01*
X12594000Y-16561143D01*
X12579714Y-16575429D01*
X12551143Y-16589714D01*
X12522571Y-16589714D01*
X12494000Y-16575429D01*
X12479714Y-16561143D01*
X12465428Y-16532571D01*
X12451143Y-16475429D01*
X12451143Y-16404000D01*
X12465428Y-16346857D01*
X12479714Y-16318286D01*
X12494000Y-16304000D01*
X12522571Y-16289714D01*
X12979714Y-16589714D02*
X12979714Y-16289714D01*
X13108286Y-16589714D02*
X13108286Y-16432571D01*
X13094000Y-16404000D01*
X13065428Y-16389714D01*
X13022571Y-16389714D01*
X12994000Y-16404000D01*
X12979714Y-16418286D01*
X13294000Y-16589714D02*
X13265428Y-16575429D01*
X13251143Y-16561143D01*
X13236857Y-16532571D01*
X13236857Y-16446857D01*
X13251143Y-16418286D01*
X13265428Y-16404000D01*
X13294000Y-16389714D01*
X13336857Y-16389714D01*
X13365428Y-16404000D01*
X13379714Y-16418286D01*
X13394000Y-16446857D01*
X13394000Y-16532571D01*
X13379714Y-16561143D01*
X13365428Y-16575429D01*
X13336857Y-16589714D01*
X13294000Y-16589714D01*
X13565428Y-16589714D02*
X13536857Y-16575429D01*
X13522571Y-16546857D01*
X13522571Y-16289714D01*
X13794000Y-16575429D02*
X13765428Y-16589714D01*
X13708286Y-16589714D01*
X13679714Y-16575429D01*
X13665428Y-16546857D01*
X13665428Y-16432571D01*
X13679714Y-16404000D01*
X13708286Y-16389714D01*
X13765428Y-16389714D01*
X13794000Y-16404000D01*
X13808286Y-16432571D01*
X13808286Y-16461143D01*
X13665428Y-16489714D01*
X13922571Y-16575429D02*
X13951143Y-16589714D01*
X14008286Y-16589714D01*
X14036857Y-16575429D01*
X14051143Y-16546857D01*
X14051143Y-16532571D01*
X14036857Y-16504000D01*
X14008286Y-16489714D01*
X13965428Y-16489714D01*
X13936857Y-16475429D01*
X13922571Y-16446857D01*
X13922571Y-16432571D01*
X13936857Y-16404000D01*
X13965428Y-16389714D01*
X14008286Y-16389714D01*
X14036857Y-16404000D01*
X14151143Y-16704000D02*
X14165428Y-16689714D01*
X14194000Y-16646857D01*
X14208286Y-16618286D01*
X14222571Y-16575429D01*
X14236857Y-16504000D01*
X14236857Y-16446857D01*
X14222571Y-16375429D01*
X14208286Y-16332571D01*
X14194000Y-16304000D01*
X14165428Y-16261143D01*
X14151143Y-16246857D01*
X7379000Y-16850000D02*
G75*
G03*
X7379000Y-16850000I-40000J0D01*
G01*
X7722571Y-16685714D02*
X7751143Y-16685714D01*
X7779714Y-16700000D01*
X7794000Y-16714286D01*
X7808286Y-16742857D01*
X7822571Y-16800000D01*
X7822571Y-16871429D01*
X7808286Y-16928572D01*
X7794000Y-16957143D01*
X7779714Y-16971429D01*
X7751143Y-16985714D01*
X7722571Y-16985714D01*
X7694000Y-16971429D01*
X7679714Y-16957143D01*
X7665428Y-16928572D01*
X7651143Y-16871429D01*
X7651143Y-16800000D01*
X7665428Y-16742857D01*
X7679714Y-16714286D01*
X7694000Y-16700000D01*
X7722571Y-16685714D01*
X7951143Y-16957143D02*
X7965428Y-16971429D01*
X7951143Y-16985714D01*
X7936857Y-16971429D01*
X7951143Y-16957143D01*
X7951143Y-16985714D01*
X8136857Y-16814286D02*
X8108286Y-16800000D01*
X8094000Y-16785714D01*
X8079714Y-16757143D01*
X8079714Y-16742857D01*
X8094000Y-16714286D01*
X8108286Y-16700000D01*
X8136857Y-16685714D01*
X8194000Y-16685714D01*
X8222571Y-16700000D01*
X8236857Y-16714286D01*
X8251143Y-16742857D01*
X8251143Y-16757143D01*
X8236857Y-16785714D01*
X8222571Y-16800000D01*
X8194000Y-16814286D01*
X8136857Y-16814286D01*
X8108286Y-16828572D01*
X8094000Y-16842857D01*
X8079714Y-16871429D01*
X8079714Y-16928572D01*
X8094000Y-16957143D01*
X8108286Y-16971429D01*
X8136857Y-16985714D01*
X8194000Y-16985714D01*
X8222571Y-16971429D01*
X8236857Y-16957143D01*
X8251143Y-16928572D01*
X8251143Y-16871429D01*
X8236857Y-16842857D01*
X8222571Y-16828572D01*
X8194000Y-16814286D01*
X8436857Y-16685714D02*
X8465428Y-16685714D01*
X8494000Y-16700000D01*
X8508286Y-16714286D01*
X8522571Y-16742857D01*
X8536857Y-16800000D01*
X8536857Y-16871429D01*
X8522571Y-16928572D01*
X8508286Y-16957143D01*
X8494000Y-16971429D01*
X8465428Y-16985714D01*
X8436857Y-16985714D01*
X8408286Y-16971429D01*
X8394000Y-16957143D01*
X8379714Y-16928572D01*
X8365428Y-16871429D01*
X8365428Y-16800000D01*
X8379714Y-16742857D01*
X8394000Y-16714286D01*
X8408286Y-16700000D01*
X8436857Y-16685714D01*
X8665428Y-16985714D02*
X8665428Y-16785714D01*
X8665428Y-16814286D02*
X8679714Y-16800000D01*
X8708286Y-16785714D01*
X8751143Y-16785714D01*
X8779714Y-16800000D01*
X8794000Y-16828572D01*
X8794000Y-16985714D01*
X8794000Y-16828572D02*
X8808286Y-16800000D01*
X8836857Y-16785714D01*
X8879714Y-16785714D01*
X8908286Y-16800000D01*
X8922571Y-16828572D01*
X8922571Y-16985714D01*
X9065428Y-16985714D02*
X9065428Y-16785714D01*
X9065428Y-16814286D02*
X9079714Y-16800000D01*
X9108286Y-16785714D01*
X9151143Y-16785714D01*
X9179714Y-16800000D01*
X9194000Y-16828572D01*
X9194000Y-16985714D01*
X9194000Y-16828572D02*
X9208286Y-16800000D01*
X9236857Y-16785714D01*
X9279714Y-16785714D01*
X9308286Y-16800000D01*
X9322571Y-16828572D01*
X9322571Y-16985714D01*
X9908286Y-16671429D02*
X9651143Y-17057143D01*
X10294000Y-16685714D02*
X10322571Y-16685714D01*
X10351143Y-16700000D01*
X10365428Y-16714286D01*
X10379714Y-16742857D01*
X10394000Y-16800000D01*
X10394000Y-16871429D01*
X10379714Y-16928572D01*
X10365428Y-16957143D01*
X10351143Y-16971429D01*
X10322571Y-16985714D01*
X10294000Y-16985714D01*
X10265428Y-16971429D01*
X10251143Y-16957143D01*
X10236857Y-16928572D01*
X10222571Y-16871429D01*
X10222571Y-16800000D01*
X10236857Y-16742857D01*
X10251143Y-16714286D01*
X10265428Y-16700000D01*
X10294000Y-16685714D01*
X10522571Y-16957143D02*
X10536857Y-16971429D01*
X10522571Y-16985714D01*
X10508286Y-16971429D01*
X10522571Y-16957143D01*
X10522571Y-16985714D01*
X10722571Y-16685714D02*
X10751143Y-16685714D01*
X10779714Y-16700000D01*
X10794000Y-16714286D01*
X10808286Y-16742857D01*
X10822571Y-16800000D01*
X10822571Y-16871429D01*
X10808286Y-16928572D01*
X10794000Y-16957143D01*
X10779714Y-16971429D01*
X10751143Y-16985714D01*
X10722571Y-16985714D01*
X10694000Y-16971429D01*
X10679714Y-16957143D01*
X10665428Y-16928572D01*
X10651143Y-16871429D01*
X10651143Y-16800000D01*
X10665428Y-16742857D01*
X10679714Y-16714286D01*
X10694000Y-16700000D01*
X10722571Y-16685714D01*
X10922571Y-16685714D02*
X11108286Y-16685714D01*
X11008286Y-16800000D01*
X11051143Y-16800000D01*
X11079714Y-16814286D01*
X11094000Y-16828572D01*
X11108286Y-16857143D01*
X11108286Y-16928572D01*
X11094000Y-16957143D01*
X11079714Y-16971429D01*
X11051143Y-16985714D01*
X10965428Y-16985714D01*
X10936857Y-16971429D01*
X10922571Y-16957143D01*
X11394000Y-16985714D02*
X11222571Y-16985714D01*
X11308286Y-16985714D02*
X11308286Y-16685714D01*
X11279714Y-16728571D01*
X11251143Y-16757143D01*
X11222571Y-16771429D01*
X11508286Y-16685714D02*
X11508286Y-16742857D01*
X11622571Y-16685714D02*
X11622571Y-16742857D01*
X12065428Y-17100000D02*
X12051143Y-17085714D01*
X12022571Y-17042857D01*
X12008286Y-17014286D01*
X11994000Y-16971429D01*
X11979714Y-16900000D01*
X11979714Y-16842857D01*
X11994000Y-16771429D01*
X12008286Y-16728571D01*
X12022571Y-16700000D01*
X12051143Y-16657143D01*
X12065428Y-16642857D01*
X12165428Y-16714286D02*
X12179714Y-16700000D01*
X12208286Y-16685714D01*
X12279714Y-16685714D01*
X12308286Y-16700000D01*
X12322571Y-16714286D01*
X12336857Y-16742857D01*
X12336857Y-16771429D01*
X12322571Y-16814286D01*
X12151143Y-16985714D01*
X12336857Y-16985714D01*
X12622571Y-16985714D02*
X12451143Y-16985714D01*
X12536857Y-16985714D02*
X12536857Y-16685714D01*
X12508286Y-16728571D01*
X12479714Y-16757143D01*
X12451143Y-16771429D01*
X12765428Y-16985714D02*
X12822571Y-16985714D01*
X12851143Y-16971429D01*
X12865428Y-16957143D01*
X12894000Y-16914286D01*
X12908286Y-16857143D01*
X12908286Y-16742857D01*
X12894000Y-16714286D01*
X12879714Y-16700000D01*
X12851143Y-16685714D01*
X12794000Y-16685714D01*
X12765428Y-16700000D01*
X12751143Y-16714286D01*
X12736857Y-16742857D01*
X12736857Y-16814286D01*
X12751143Y-16842857D01*
X12765428Y-16857143D01*
X12794000Y-16871429D01*
X12851143Y-16871429D01*
X12879714Y-16857143D01*
X12894000Y-16842857D01*
X12908286Y-16814286D01*
X13265428Y-16985714D02*
X13265428Y-16685714D01*
X13394000Y-16985714D02*
X13394000Y-16828572D01*
X13379714Y-16800000D01*
X13351143Y-16785714D01*
X13308286Y-16785714D01*
X13279714Y-16800000D01*
X13265428Y-16814286D01*
X13579714Y-16985714D02*
X13551143Y-16971429D01*
X13536857Y-16957143D01*
X13522571Y-16928572D01*
X13522571Y-16842857D01*
X13536857Y-16814286D01*
X13551143Y-16800000D01*
X13579714Y-16785714D01*
X13622571Y-16785714D01*
X13651143Y-16800000D01*
X13665428Y-16814286D01*
X13679714Y-16842857D01*
X13679714Y-16928572D01*
X13665428Y-16957143D01*
X13651143Y-16971429D01*
X13622571Y-16985714D01*
X13579714Y-16985714D01*
X13851143Y-16985714D02*
X13822571Y-16971429D01*
X13808286Y-16942857D01*
X13808286Y-16685714D01*
X14079714Y-16971429D02*
X14051143Y-16985714D01*
X13994000Y-16985714D01*
X13965428Y-16971429D01*
X13951143Y-16942857D01*
X13951143Y-16828572D01*
X13965428Y-16800000D01*
X13994000Y-16785714D01*
X14051143Y-16785714D01*
X14079714Y-16800000D01*
X14094000Y-16828572D01*
X14094000Y-16857143D01*
X13951143Y-16885714D01*
X14208286Y-16971429D02*
X14236857Y-16985714D01*
X14294000Y-16985714D01*
X14322571Y-16971429D01*
X14336857Y-16942857D01*
X14336857Y-16928572D01*
X14322571Y-16900000D01*
X14294000Y-16885714D01*
X14251143Y-16885714D01*
X14222571Y-16871429D01*
X14208286Y-16842857D01*
X14208286Y-16828572D01*
X14222571Y-16800000D01*
X14251143Y-16785714D01*
X14294000Y-16785714D01*
X14322571Y-16800000D01*
X14436857Y-17100000D02*
X14451143Y-17085714D01*
X14479714Y-17042857D01*
X14494000Y-17014286D01*
X14508286Y-16971429D01*
X14522571Y-16900000D01*
X14522571Y-16842857D01*
X14508286Y-16771429D01*
X14494000Y-16728571D01*
X14479714Y-16700000D01*
X14451143Y-16657143D01*
X14436857Y-16642857D01*
X7329000Y-17196000D02*
X7329000Y-17296000D01*
X7279000Y-17246000D02*
X7379000Y-17246000D01*
X7822571Y-17381714D02*
X7651143Y-17381714D01*
X7736857Y-17381714D02*
X7736857Y-17081714D01*
X7708286Y-17124572D01*
X7679714Y-17153143D01*
X7651143Y-17167429D01*
X7951143Y-17353143D02*
X7965428Y-17367429D01*
X7951143Y-17381714D01*
X7936857Y-17367429D01*
X7951143Y-17353143D01*
X7951143Y-17381714D01*
X8151143Y-17081714D02*
X8179714Y-17081714D01*
X8208286Y-17096000D01*
X8222571Y-17110286D01*
X8236857Y-17138857D01*
X8251143Y-17196000D01*
X8251143Y-17267429D01*
X8236857Y-17324572D01*
X8222571Y-17353143D01*
X8208286Y-17367429D01*
X8179714Y-17381714D01*
X8151143Y-17381714D01*
X8122571Y-17367429D01*
X8108286Y-17353143D01*
X8094000Y-17324572D01*
X8079714Y-17267429D01*
X8079714Y-17196000D01*
X8094000Y-17138857D01*
X8108286Y-17110286D01*
X8122571Y-17096000D01*
X8151143Y-17081714D01*
X8436857Y-17081714D02*
X8465428Y-17081714D01*
X8494000Y-17096000D01*
X8508286Y-17110286D01*
X8522571Y-17138857D01*
X8536857Y-17196000D01*
X8536857Y-17267429D01*
X8522571Y-17324572D01*
X8508286Y-17353143D01*
X8494000Y-17367429D01*
X8465428Y-17381714D01*
X8436857Y-17381714D01*
X8408286Y-17367429D01*
X8394000Y-17353143D01*
X8379714Y-17324572D01*
X8365428Y-17267429D01*
X8365428Y-17196000D01*
X8379714Y-17138857D01*
X8394000Y-17110286D01*
X8408286Y-17096000D01*
X8436857Y-17081714D01*
X8665428Y-17381714D02*
X8665428Y-17181714D01*
X8665428Y-17210286D02*
X8679714Y-17196000D01*
X8708286Y-17181714D01*
X8751143Y-17181714D01*
X8779714Y-17196000D01*
X8794000Y-17224572D01*
X8794000Y-17381714D01*
X8794000Y-17224572D02*
X8808286Y-17196000D01*
X8836857Y-17181714D01*
X8879714Y-17181714D01*
X8908286Y-17196000D01*
X8922571Y-17224572D01*
X8922571Y-17381714D01*
X9065428Y-17381714D02*
X9065428Y-17181714D01*
X9065428Y-17210286D02*
X9079714Y-17196000D01*
X9108286Y-17181714D01*
X9151143Y-17181714D01*
X9179714Y-17196000D01*
X9194000Y-17224572D01*
X9194000Y-17381714D01*
X9194000Y-17224572D02*
X9208286Y-17196000D01*
X9236857Y-17181714D01*
X9279714Y-17181714D01*
X9308286Y-17196000D01*
X9322571Y-17224572D01*
X9322571Y-17381714D01*
X9908286Y-17067429D02*
X9651143Y-17453143D01*
X10294000Y-17081714D02*
X10322571Y-17081714D01*
X10351143Y-17096000D01*
X10365428Y-17110286D01*
X10379714Y-17138857D01*
X10394000Y-17196000D01*
X10394000Y-17267429D01*
X10379714Y-17324572D01*
X10365428Y-17353143D01*
X10351143Y-17367429D01*
X10322571Y-17381714D01*
X10294000Y-17381714D01*
X10265428Y-17367429D01*
X10251143Y-17353143D01*
X10236857Y-17324572D01*
X10222571Y-17267429D01*
X10222571Y-17196000D01*
X10236857Y-17138857D01*
X10251143Y-17110286D01*
X10265428Y-17096000D01*
X10294000Y-17081714D01*
X10522571Y-17353143D02*
X10536857Y-17367429D01*
X10522571Y-17381714D01*
X10508286Y-17367429D01*
X10522571Y-17353143D01*
X10522571Y-17381714D01*
X10722571Y-17081714D02*
X10751143Y-17081714D01*
X10779714Y-17096000D01*
X10794000Y-17110286D01*
X10808286Y-17138857D01*
X10822571Y-17196000D01*
X10822571Y-17267429D01*
X10808286Y-17324572D01*
X10794000Y-17353143D01*
X10779714Y-17367429D01*
X10751143Y-17381714D01*
X10722571Y-17381714D01*
X10694000Y-17367429D01*
X10679714Y-17353143D01*
X10665428Y-17324572D01*
X10651143Y-17267429D01*
X10651143Y-17196000D01*
X10665428Y-17138857D01*
X10679714Y-17110286D01*
X10694000Y-17096000D01*
X10722571Y-17081714D01*
X10922571Y-17081714D02*
X11108286Y-17081714D01*
X11008286Y-17196000D01*
X11051143Y-17196000D01*
X11079714Y-17210286D01*
X11094000Y-17224572D01*
X11108286Y-17253143D01*
X11108286Y-17324572D01*
X11094000Y-17353143D01*
X11079714Y-17367429D01*
X11051143Y-17381714D01*
X10965428Y-17381714D01*
X10936857Y-17367429D01*
X10922571Y-17353143D01*
X11251143Y-17381714D02*
X11308286Y-17381714D01*
X11336857Y-17367429D01*
X11351143Y-17353143D01*
X11379714Y-17310286D01*
X11394000Y-17253143D01*
X11394000Y-17138857D01*
X11379714Y-17110286D01*
X11365428Y-17096000D01*
X11336857Y-17081714D01*
X11279714Y-17081714D01*
X11251143Y-17096000D01*
X11236857Y-17110286D01*
X11222571Y-17138857D01*
X11222571Y-17210286D01*
X11236857Y-17238857D01*
X11251143Y-17253143D01*
X11279714Y-17267429D01*
X11336857Y-17267429D01*
X11365428Y-17253143D01*
X11379714Y-17238857D01*
X11394000Y-17210286D01*
X11508286Y-17081714D02*
X11508286Y-17138857D01*
X11622571Y-17081714D02*
X11622571Y-17138857D01*
X12065428Y-17496000D02*
X12051143Y-17481714D01*
X12022571Y-17438857D01*
X12008286Y-17410286D01*
X11994000Y-17367429D01*
X11979714Y-17296000D01*
X11979714Y-17238857D01*
X11994000Y-17167429D01*
X12008286Y-17124572D01*
X12022571Y-17096000D01*
X12051143Y-17053143D01*
X12065428Y-17038857D01*
X12151143Y-17081714D02*
X12336857Y-17081714D01*
X12236857Y-17196000D01*
X12279714Y-17196000D01*
X12308286Y-17210286D01*
X12322571Y-17224572D01*
X12336857Y-17253143D01*
X12336857Y-17324572D01*
X12322571Y-17353143D01*
X12308286Y-17367429D01*
X12279714Y-17381714D01*
X12194000Y-17381714D01*
X12165428Y-17367429D01*
X12151143Y-17353143D01*
X12608286Y-17081714D02*
X12465428Y-17081714D01*
X12451143Y-17224572D01*
X12465428Y-17210286D01*
X12494000Y-17196000D01*
X12565428Y-17196000D01*
X12594000Y-17210286D01*
X12608286Y-17224572D01*
X12622571Y-17253143D01*
X12622571Y-17324572D01*
X12608286Y-17353143D01*
X12594000Y-17367429D01*
X12565428Y-17381714D01*
X12494000Y-17381714D01*
X12465428Y-17367429D01*
X12451143Y-17353143D01*
X12979714Y-17381714D02*
X12979714Y-17081714D01*
X13108286Y-17381714D02*
X13108286Y-17224572D01*
X13094000Y-17196000D01*
X13065428Y-17181714D01*
X13022571Y-17181714D01*
X12994000Y-17196000D01*
X12979714Y-17210286D01*
X13294000Y-17381714D02*
X13265428Y-17367429D01*
X13251143Y-17353143D01*
X13236857Y-17324572D01*
X13236857Y-17238857D01*
X13251143Y-17210286D01*
X13265428Y-17196000D01*
X13294000Y-17181714D01*
X13336857Y-17181714D01*
X13365428Y-17196000D01*
X13379714Y-17210286D01*
X13394000Y-17238857D01*
X13394000Y-17324572D01*
X13379714Y-17353143D01*
X13365428Y-17367429D01*
X13336857Y-17381714D01*
X13294000Y-17381714D01*
X13565428Y-17381714D02*
X13536857Y-17367429D01*
X13522571Y-17338857D01*
X13522571Y-17081714D01*
X13794000Y-17367429D02*
X13765428Y-17381714D01*
X13708286Y-17381714D01*
X13679714Y-17367429D01*
X13665428Y-17338857D01*
X13665428Y-17224572D01*
X13679714Y-17196000D01*
X13708286Y-17181714D01*
X13765428Y-17181714D01*
X13794000Y-17196000D01*
X13808286Y-17224572D01*
X13808286Y-17253143D01*
X13665428Y-17281714D01*
X13922571Y-17367429D02*
X13951143Y-17381714D01*
X14008286Y-17381714D01*
X14036857Y-17367429D01*
X14051143Y-17338857D01*
X14051143Y-17324572D01*
X14036857Y-17296000D01*
X14008286Y-17281714D01*
X13965428Y-17281714D01*
X13936857Y-17267429D01*
X13922571Y-17238857D01*
X13922571Y-17224572D01*
X13936857Y-17196000D01*
X13965428Y-17181714D01*
X14008286Y-17181714D01*
X14036857Y-17196000D01*
X14151143Y-17496000D02*
X14165428Y-17481714D01*
X14194000Y-17438857D01*
X14208286Y-17410286D01*
X14222571Y-17367429D01*
X14236857Y-17296000D01*
X14236857Y-17238857D01*
X14222571Y-17167429D01*
X14208286Y-17124572D01*
X14194000Y-17096000D01*
X14165428Y-17053143D01*
X14151143Y-17038857D01*
X7362891Y-17680891D02*
X7362891Y-17603109D01*
X7285109Y-17603109D01*
X7285109Y-17680891D01*
X7362891Y-17680891D01*
X7822571Y-17777714D02*
X7651143Y-17777714D01*
X7736857Y-17777714D02*
X7736857Y-17477714D01*
X7708286Y-17520572D01*
X7679714Y-17549143D01*
X7651143Y-17563429D01*
X7951143Y-17749143D02*
X7965428Y-17763429D01*
X7951143Y-17777714D01*
X7936857Y-17763429D01*
X7951143Y-17749143D01*
X7951143Y-17777714D01*
X8251143Y-17777714D02*
X8079714Y-17777714D01*
X8165428Y-17777714D02*
X8165428Y-17477714D01*
X8136857Y-17520572D01*
X8108286Y-17549143D01*
X8079714Y-17563429D01*
X8436857Y-17477714D02*
X8465428Y-17477714D01*
X8494000Y-17492000D01*
X8508286Y-17506286D01*
X8522571Y-17534857D01*
X8536857Y-17592000D01*
X8536857Y-17663429D01*
X8522571Y-17720572D01*
X8508286Y-17749143D01*
X8494000Y-17763429D01*
X8465428Y-17777714D01*
X8436857Y-17777714D01*
X8408286Y-17763429D01*
X8394000Y-17749143D01*
X8379714Y-17720572D01*
X8365428Y-17663429D01*
X8365428Y-17592000D01*
X8379714Y-17534857D01*
X8394000Y-17506286D01*
X8408286Y-17492000D01*
X8436857Y-17477714D01*
X8665428Y-17777714D02*
X8665428Y-17577714D01*
X8665428Y-17606286D02*
X8679714Y-17592000D01*
X8708286Y-17577714D01*
X8751143Y-17577714D01*
X8779714Y-17592000D01*
X8794000Y-17620572D01*
X8794000Y-17777714D01*
X8794000Y-17620572D02*
X8808286Y-17592000D01*
X8836857Y-17577714D01*
X8879714Y-17577714D01*
X8908286Y-17592000D01*
X8922571Y-17620572D01*
X8922571Y-17777714D01*
X9065428Y-17777714D02*
X9065428Y-17577714D01*
X9065428Y-17606286D02*
X9079714Y-17592000D01*
X9108286Y-17577714D01*
X9151143Y-17577714D01*
X9179714Y-17592000D01*
X9194000Y-17620572D01*
X9194000Y-17777714D01*
X9194000Y-17620572D02*
X9208286Y-17592000D01*
X9236857Y-17577714D01*
X9279714Y-17577714D01*
X9308286Y-17592000D01*
X9322571Y-17620572D01*
X9322571Y-17777714D01*
X9908286Y-17463429D02*
X9651143Y-17849143D01*
X10294000Y-17477714D02*
X10322571Y-17477714D01*
X10351143Y-17492000D01*
X10365428Y-17506286D01*
X10379714Y-17534857D01*
X10394000Y-17592000D01*
X10394000Y-17663429D01*
X10379714Y-17720572D01*
X10365428Y-17749143D01*
X10351143Y-17763429D01*
X10322571Y-17777714D01*
X10294000Y-17777714D01*
X10265428Y-17763429D01*
X10251143Y-17749143D01*
X10236857Y-17720572D01*
X10222571Y-17663429D01*
X10222571Y-17592000D01*
X10236857Y-17534857D01*
X10251143Y-17506286D01*
X10265428Y-17492000D01*
X10294000Y-17477714D01*
X10522571Y-17749143D02*
X10536857Y-17763429D01*
X10522571Y-17777714D01*
X10508286Y-17763429D01*
X10522571Y-17749143D01*
X10522571Y-17777714D01*
X10722571Y-17477714D02*
X10751143Y-17477714D01*
X10779714Y-17492000D01*
X10794000Y-17506286D01*
X10808286Y-17534857D01*
X10822571Y-17592000D01*
X10822571Y-17663429D01*
X10808286Y-17720572D01*
X10794000Y-17749143D01*
X10779714Y-17763429D01*
X10751143Y-17777714D01*
X10722571Y-17777714D01*
X10694000Y-17763429D01*
X10679714Y-17749143D01*
X10665428Y-17720572D01*
X10651143Y-17663429D01*
X10651143Y-17592000D01*
X10665428Y-17534857D01*
X10679714Y-17506286D01*
X10694000Y-17492000D01*
X10722571Y-17477714D01*
X11079714Y-17577714D02*
X11079714Y-17777714D01*
X11008286Y-17463429D02*
X10936857Y-17677714D01*
X11122571Y-17677714D01*
X11208286Y-17477714D02*
X11394000Y-17477714D01*
X11294000Y-17592000D01*
X11336857Y-17592000D01*
X11365428Y-17606286D01*
X11379714Y-17620572D01*
X11394000Y-17649143D01*
X11394000Y-17720572D01*
X11379714Y-17749143D01*
X11365428Y-17763429D01*
X11336857Y-17777714D01*
X11251143Y-17777714D01*
X11222571Y-17763429D01*
X11208286Y-17749143D01*
X11508286Y-17477714D02*
X11508286Y-17534857D01*
X11622571Y-17477714D02*
X11622571Y-17534857D01*
X12065428Y-17892000D02*
X12051143Y-17877714D01*
X12022571Y-17834857D01*
X12008286Y-17806286D01*
X11994000Y-17763429D01*
X11979714Y-17692000D01*
X11979714Y-17634857D01*
X11994000Y-17563429D01*
X12008286Y-17520572D01*
X12022571Y-17492000D01*
X12051143Y-17449143D01*
X12065428Y-17434857D01*
X12336857Y-17777714D02*
X12165428Y-17777714D01*
X12251143Y-17777714D02*
X12251143Y-17477714D01*
X12222571Y-17520572D01*
X12194000Y-17549143D01*
X12165428Y-17563429D01*
X12436857Y-17477714D02*
X12622571Y-17477714D01*
X12522571Y-17592000D01*
X12565428Y-17592000D01*
X12594000Y-17606286D01*
X12608286Y-17620572D01*
X12622571Y-17649143D01*
X12622571Y-17720572D01*
X12608286Y-17749143D01*
X12594000Y-17763429D01*
X12565428Y-17777714D01*
X12479714Y-17777714D01*
X12451143Y-17763429D01*
X12436857Y-17749143D01*
X12979714Y-17777714D02*
X12979714Y-17477714D01*
X13108286Y-17777714D02*
X13108286Y-17620572D01*
X13094000Y-17592000D01*
X13065428Y-17577714D01*
X13022571Y-17577714D01*
X12994000Y-17592000D01*
X12979714Y-17606286D01*
X13294000Y-17777714D02*
X13265428Y-17763429D01*
X13251143Y-17749143D01*
X13236857Y-17720572D01*
X13236857Y-17634857D01*
X13251143Y-17606286D01*
X13265428Y-17592000D01*
X13294000Y-17577714D01*
X13336857Y-17577714D01*
X13365428Y-17592000D01*
X13379714Y-17606286D01*
X13394000Y-17634857D01*
X13394000Y-17720572D01*
X13379714Y-17749143D01*
X13365428Y-17763429D01*
X13336857Y-17777714D01*
X13294000Y-17777714D01*
X13565428Y-17777714D02*
X13536857Y-17763429D01*
X13522571Y-17734857D01*
X13522571Y-17477714D01*
X13794000Y-17763429D02*
X13765428Y-17777714D01*
X13708286Y-17777714D01*
X13679714Y-17763429D01*
X13665428Y-17734857D01*
X13665428Y-17620572D01*
X13679714Y-17592000D01*
X13708286Y-17577714D01*
X13765428Y-17577714D01*
X13794000Y-17592000D01*
X13808286Y-17620572D01*
X13808286Y-17649143D01*
X13665428Y-17677714D01*
X13922571Y-17763429D02*
X13951143Y-17777714D01*
X14008286Y-17777714D01*
X14036857Y-17763429D01*
X14051143Y-17734857D01*
X14051143Y-17720572D01*
X14036857Y-17692000D01*
X14008286Y-17677714D01*
X13965428Y-17677714D01*
X13936857Y-17663429D01*
X13922571Y-17634857D01*
X13922571Y-17620572D01*
X13936857Y-17592000D01*
X13965428Y-17577714D01*
X14008286Y-17577714D01*
X14036857Y-17592000D01*
X14151143Y-17892000D02*
X14165428Y-17877714D01*
X14194000Y-17834857D01*
X14208286Y-17806286D01*
X14222571Y-17763429D01*
X14236857Y-17692000D01*
X14236857Y-17634857D01*
X14222571Y-17563429D01*
X14208286Y-17520572D01*
X14194000Y-17492000D01*
X14165428Y-17449143D01*
X14151143Y-17434857D01*
X7314000Y-18103000D02*
X7379000Y-18038000D01*
X7314000Y-17973000D01*
X7249000Y-18038000D01*
X7314000Y-18103000D01*
X7822571Y-18173714D02*
X7651143Y-18173714D01*
X7736857Y-18173714D02*
X7736857Y-17873714D01*
X7708286Y-17916572D01*
X7679714Y-17945143D01*
X7651143Y-17959429D01*
X7951143Y-18145143D02*
X7965428Y-18159429D01*
X7951143Y-18173714D01*
X7936857Y-18159429D01*
X7951143Y-18145143D01*
X7951143Y-18173714D01*
X8065428Y-17873714D02*
X8251143Y-17873714D01*
X8151143Y-17988000D01*
X8194000Y-17988000D01*
X8222571Y-18002286D01*
X8236857Y-18016572D01*
X8251143Y-18045143D01*
X8251143Y-18116572D01*
X8236857Y-18145143D01*
X8222571Y-18159429D01*
X8194000Y-18173714D01*
X8108286Y-18173714D01*
X8079714Y-18159429D01*
X8065428Y-18145143D01*
X8436857Y-17873714D02*
X8465428Y-17873714D01*
X8494000Y-17888000D01*
X8508286Y-17902286D01*
X8522571Y-17930857D01*
X8536857Y-17988000D01*
X8536857Y-18059429D01*
X8522571Y-18116572D01*
X8508286Y-18145143D01*
X8494000Y-18159429D01*
X8465428Y-18173714D01*
X8436857Y-18173714D01*
X8408286Y-18159429D01*
X8394000Y-18145143D01*
X8379714Y-18116572D01*
X8365428Y-18059429D01*
X8365428Y-17988000D01*
X8379714Y-17930857D01*
X8394000Y-17902286D01*
X8408286Y-17888000D01*
X8436857Y-17873714D01*
X8665428Y-18173714D02*
X8665428Y-17973714D01*
X8665428Y-18002286D02*
X8679714Y-17988000D01*
X8708286Y-17973714D01*
X8751143Y-17973714D01*
X8779714Y-17988000D01*
X8794000Y-18016572D01*
X8794000Y-18173714D01*
X8794000Y-18016572D02*
X8808286Y-17988000D01*
X8836857Y-17973714D01*
X8879714Y-17973714D01*
X8908286Y-17988000D01*
X8922571Y-18016572D01*
X8922571Y-18173714D01*
X9065428Y-18173714D02*
X9065428Y-17973714D01*
X9065428Y-18002286D02*
X9079714Y-17988000D01*
X9108286Y-17973714D01*
X9151143Y-17973714D01*
X9179714Y-17988000D01*
X9194000Y-18016572D01*
X9194000Y-18173714D01*
X9194000Y-18016572D02*
X9208286Y-17988000D01*
X9236857Y-17973714D01*
X9279714Y-17973714D01*
X9308286Y-17988000D01*
X9322571Y-18016572D01*
X9322571Y-18173714D01*
X9908286Y-17859429D02*
X9651143Y-18245143D01*
X10294000Y-17873714D02*
X10322571Y-17873714D01*
X10351143Y-17888000D01*
X10365428Y-17902286D01*
X10379714Y-17930857D01*
X10394000Y-17988000D01*
X10394000Y-18059429D01*
X10379714Y-18116572D01*
X10365428Y-18145143D01*
X10351143Y-18159429D01*
X10322571Y-18173714D01*
X10294000Y-18173714D01*
X10265428Y-18159429D01*
X10251143Y-18145143D01*
X10236857Y-18116572D01*
X10222571Y-18059429D01*
X10222571Y-17988000D01*
X10236857Y-17930857D01*
X10251143Y-17902286D01*
X10265428Y-17888000D01*
X10294000Y-17873714D01*
X10522571Y-18145143D02*
X10536857Y-18159429D01*
X10522571Y-18173714D01*
X10508286Y-18159429D01*
X10522571Y-18145143D01*
X10522571Y-18173714D01*
X10722571Y-17873714D02*
X10751143Y-17873714D01*
X10779714Y-17888000D01*
X10794000Y-17902286D01*
X10808286Y-17930857D01*
X10822571Y-17988000D01*
X10822571Y-18059429D01*
X10808286Y-18116572D01*
X10794000Y-18145143D01*
X10779714Y-18159429D01*
X10751143Y-18173714D01*
X10722571Y-18173714D01*
X10694000Y-18159429D01*
X10679714Y-18145143D01*
X10665428Y-18116572D01*
X10651143Y-18059429D01*
X10651143Y-17988000D01*
X10665428Y-17930857D01*
X10679714Y-17902286D01*
X10694000Y-17888000D01*
X10722571Y-17873714D01*
X11094000Y-17873714D02*
X10951143Y-17873714D01*
X10936857Y-18016572D01*
X10951143Y-18002286D01*
X10979714Y-17988000D01*
X11051143Y-17988000D01*
X11079714Y-18002286D01*
X11094000Y-18016572D01*
X11108286Y-18045143D01*
X11108286Y-18116572D01*
X11094000Y-18145143D01*
X11079714Y-18159429D01*
X11051143Y-18173714D01*
X10979714Y-18173714D01*
X10951143Y-18159429D01*
X10936857Y-18145143D01*
X11394000Y-18173714D02*
X11222571Y-18173714D01*
X11308286Y-18173714D02*
X11308286Y-17873714D01*
X11279714Y-17916572D01*
X11251143Y-17945143D01*
X11222571Y-17959429D01*
X11508286Y-17873714D02*
X11508286Y-17930857D01*
X11622571Y-17873714D02*
X11622571Y-17930857D01*
X12065428Y-18288000D02*
X12051143Y-18273714D01*
X12022571Y-18230857D01*
X12008286Y-18202286D01*
X11994000Y-18159429D01*
X11979714Y-18088000D01*
X11979714Y-18030857D01*
X11994000Y-17959429D01*
X12008286Y-17916572D01*
X12022571Y-17888000D01*
X12051143Y-17845143D01*
X12065428Y-17830857D01*
X12165428Y-17902286D02*
X12179714Y-17888000D01*
X12208286Y-17873714D01*
X12279714Y-17873714D01*
X12308286Y-17888000D01*
X12322571Y-17902286D01*
X12336857Y-17930857D01*
X12336857Y-17959429D01*
X12322571Y-18002286D01*
X12151143Y-18173714D01*
X12336857Y-18173714D01*
X12694000Y-18173714D02*
X12694000Y-17873714D01*
X12822571Y-18173714D02*
X12822571Y-18016572D01*
X12808286Y-17988000D01*
X12779714Y-17973714D01*
X12736857Y-17973714D01*
X12708286Y-17988000D01*
X12694000Y-18002286D01*
X13008286Y-18173714D02*
X12979714Y-18159429D01*
X12965428Y-18145143D01*
X12951143Y-18116572D01*
X12951143Y-18030857D01*
X12965428Y-18002286D01*
X12979714Y-17988000D01*
X13008286Y-17973714D01*
X13051143Y-17973714D01*
X13079714Y-17988000D01*
X13094000Y-18002286D01*
X13108286Y-18030857D01*
X13108286Y-18116572D01*
X13094000Y-18145143D01*
X13079714Y-18159429D01*
X13051143Y-18173714D01*
X13008286Y-18173714D01*
X13279714Y-18173714D02*
X13251143Y-18159429D01*
X13236857Y-18130857D01*
X13236857Y-17873714D01*
X13508286Y-18159429D02*
X13479714Y-18173714D01*
X13422571Y-18173714D01*
X13394000Y-18159429D01*
X13379714Y-18130857D01*
X13379714Y-18016572D01*
X13394000Y-17988000D01*
X13422571Y-17973714D01*
X13479714Y-17973714D01*
X13508286Y-17988000D01*
X13522571Y-18016572D01*
X13522571Y-18045143D01*
X13379714Y-18073714D01*
X13636857Y-18159429D02*
X13665428Y-18173714D01*
X13722571Y-18173714D01*
X13751143Y-18159429D01*
X13765428Y-18130857D01*
X13765428Y-18116572D01*
X13751143Y-18088000D01*
X13722571Y-18073714D01*
X13679714Y-18073714D01*
X13651143Y-18059429D01*
X13636857Y-18030857D01*
X13636857Y-18016572D01*
X13651143Y-17988000D01*
X13679714Y-17973714D01*
X13722571Y-17973714D01*
X13751143Y-17988000D01*
X13865428Y-18288000D02*
X13879714Y-18273714D01*
X13908286Y-18230857D01*
X13922571Y-18202286D01*
X13936857Y-18159429D01*
X13951143Y-18088000D01*
X13951143Y-18030857D01*
X13936857Y-17959429D01*
X13922571Y-17916572D01*
X13908286Y-17888000D01*
X13879714Y-17845143D01*
X13865428Y-17830857D01*
X7219000Y-18354000D02*
X7379000Y-18514000D01*
X7379000Y-18354000D02*
X7219000Y-18514000D01*
X7379000Y-18434000D02*
G75*
G03*
X7379000Y-18434000I-80000J0D01*
G01*
X7822571Y-18569714D02*
X7651143Y-18569714D01*
X7736857Y-18569714D02*
X7736857Y-18269714D01*
X7708286Y-18312572D01*
X7679714Y-18341143D01*
X7651143Y-18355429D01*
X7951143Y-18541143D02*
X7965428Y-18555429D01*
X7951143Y-18569714D01*
X7936857Y-18555429D01*
X7951143Y-18541143D01*
X7951143Y-18569714D01*
X8222571Y-18269714D02*
X8165428Y-18269714D01*
X8136857Y-18284000D01*
X8122571Y-18298286D01*
X8094000Y-18341143D01*
X8079714Y-18398286D01*
X8079714Y-18512572D01*
X8094000Y-18541143D01*
X8108286Y-18555429D01*
X8136857Y-18569714D01*
X8194000Y-18569714D01*
X8222571Y-18555429D01*
X8236857Y-18541143D01*
X8251143Y-18512572D01*
X8251143Y-18441143D01*
X8236857Y-18412572D01*
X8222571Y-18398286D01*
X8194000Y-18384000D01*
X8136857Y-18384000D01*
X8108286Y-18398286D01*
X8094000Y-18412572D01*
X8079714Y-18441143D01*
X8436857Y-18269714D02*
X8465428Y-18269714D01*
X8494000Y-18284000D01*
X8508286Y-18298286D01*
X8522571Y-18326857D01*
X8536857Y-18384000D01*
X8536857Y-18455429D01*
X8522571Y-18512572D01*
X8508286Y-18541143D01*
X8494000Y-18555429D01*
X8465428Y-18569714D01*
X8436857Y-18569714D01*
X8408286Y-18555429D01*
X8394000Y-18541143D01*
X8379714Y-18512572D01*
X8365428Y-18455429D01*
X8365428Y-18384000D01*
X8379714Y-18326857D01*
X8394000Y-18298286D01*
X8408286Y-18284000D01*
X8436857Y-18269714D01*
X8665428Y-18569714D02*
X8665428Y-18369714D01*
X8665428Y-18398286D02*
X8679714Y-18384000D01*
X8708286Y-18369714D01*
X8751143Y-18369714D01*
X8779714Y-18384000D01*
X8794000Y-18412572D01*
X8794000Y-18569714D01*
X8794000Y-18412572D02*
X8808286Y-18384000D01*
X8836857Y-18369714D01*
X8879714Y-18369714D01*
X8908286Y-18384000D01*
X8922571Y-18412572D01*
X8922571Y-18569714D01*
X9065428Y-18569714D02*
X9065428Y-18369714D01*
X9065428Y-18398286D02*
X9079714Y-18384000D01*
X9108286Y-18369714D01*
X9151143Y-18369714D01*
X9179714Y-18384000D01*
X9194000Y-18412572D01*
X9194000Y-18569714D01*
X9194000Y-18412572D02*
X9208286Y-18384000D01*
X9236857Y-18369714D01*
X9279714Y-18369714D01*
X9308286Y-18384000D01*
X9322571Y-18412572D01*
X9322571Y-18569714D01*
X9908286Y-18255429D02*
X9651143Y-18641143D01*
X10294000Y-18269714D02*
X10322571Y-18269714D01*
X10351143Y-18284000D01*
X10365428Y-18298286D01*
X10379714Y-18326857D01*
X10394000Y-18384000D01*
X10394000Y-18455429D01*
X10379714Y-18512572D01*
X10365428Y-18541143D01*
X10351143Y-18555429D01*
X10322571Y-18569714D01*
X10294000Y-18569714D01*
X10265428Y-18555429D01*
X10251143Y-18541143D01*
X10236857Y-18512572D01*
X10222571Y-18455429D01*
X10222571Y-18384000D01*
X10236857Y-18326857D01*
X10251143Y-18298286D01*
X10265428Y-18284000D01*
X10294000Y-18269714D01*
X10522571Y-18541143D02*
X10536857Y-18555429D01*
X10522571Y-18569714D01*
X10508286Y-18555429D01*
X10522571Y-18541143D01*
X10522571Y-18569714D01*
X10722571Y-18269714D02*
X10751143Y-18269714D01*
X10779714Y-18284000D01*
X10794000Y-18298286D01*
X10808286Y-18326857D01*
X10822571Y-18384000D01*
X10822571Y-18455429D01*
X10808286Y-18512572D01*
X10794000Y-18541143D01*
X10779714Y-18555429D01*
X10751143Y-18569714D01*
X10722571Y-18569714D01*
X10694000Y-18555429D01*
X10679714Y-18541143D01*
X10665428Y-18512572D01*
X10651143Y-18455429D01*
X10651143Y-18384000D01*
X10665428Y-18326857D01*
X10679714Y-18298286D01*
X10694000Y-18284000D01*
X10722571Y-18269714D01*
X11079714Y-18269714D02*
X11022571Y-18269714D01*
X10994000Y-18284000D01*
X10979714Y-18298286D01*
X10951143Y-18341143D01*
X10936857Y-18398286D01*
X10936857Y-18512572D01*
X10951143Y-18541143D01*
X10965428Y-18555429D01*
X10994000Y-18569714D01*
X11051143Y-18569714D01*
X11079714Y-18555429D01*
X11094000Y-18541143D01*
X11108286Y-18512572D01*
X11108286Y-18441143D01*
X11094000Y-18412572D01*
X11079714Y-18398286D01*
X11051143Y-18384000D01*
X10994000Y-18384000D01*
X10965428Y-18398286D01*
X10951143Y-18412572D01*
X10936857Y-18441143D01*
X11208286Y-18269714D02*
X11394000Y-18269714D01*
X11294000Y-18384000D01*
X11336857Y-18384000D01*
X11365428Y-18398286D01*
X11379714Y-18412572D01*
X11394000Y-18441143D01*
X11394000Y-18512572D01*
X11379714Y-18541143D01*
X11365428Y-18555429D01*
X11336857Y-18569714D01*
X11251143Y-18569714D01*
X11222571Y-18555429D01*
X11208286Y-18541143D01*
X11508286Y-18269714D02*
X11508286Y-18326857D01*
X11622571Y-18269714D02*
X11622571Y-18326857D01*
X12065428Y-18684000D02*
X12051143Y-18669714D01*
X12022571Y-18626857D01*
X12008286Y-18598286D01*
X11994000Y-18555429D01*
X11979714Y-18484000D01*
X11979714Y-18426857D01*
X11994000Y-18355429D01*
X12008286Y-18312572D01*
X12022571Y-18284000D01*
X12051143Y-18241143D01*
X12065428Y-18226857D01*
X12165428Y-18298286D02*
X12179714Y-18284000D01*
X12208286Y-18269714D01*
X12279714Y-18269714D01*
X12308286Y-18284000D01*
X12322571Y-18298286D01*
X12336857Y-18326857D01*
X12336857Y-18355429D01*
X12322571Y-18398286D01*
X12151143Y-18569714D01*
X12336857Y-18569714D01*
X12694000Y-18569714D02*
X12694000Y-18269714D01*
X12822571Y-18569714D02*
X12822571Y-18412572D01*
X12808286Y-18384000D01*
X12779714Y-18369714D01*
X12736857Y-18369714D01*
X12708286Y-18384000D01*
X12694000Y-18398286D01*
X13008286Y-18569714D02*
X12979714Y-18555429D01*
X12965428Y-18541143D01*
X12951143Y-18512572D01*
X12951143Y-18426857D01*
X12965428Y-18398286D01*
X12979714Y-18384000D01*
X13008286Y-18369714D01*
X13051143Y-18369714D01*
X13079714Y-18384000D01*
X13094000Y-18398286D01*
X13108286Y-18426857D01*
X13108286Y-18512572D01*
X13094000Y-18541143D01*
X13079714Y-18555429D01*
X13051143Y-18569714D01*
X13008286Y-18569714D01*
X13279714Y-18569714D02*
X13251143Y-18555429D01*
X13236857Y-18526857D01*
X13236857Y-18269714D01*
X13508286Y-18555429D02*
X13479714Y-18569714D01*
X13422571Y-18569714D01*
X13394000Y-18555429D01*
X13379714Y-18526857D01*
X13379714Y-18412572D01*
X13394000Y-18384000D01*
X13422571Y-18369714D01*
X13479714Y-18369714D01*
X13508286Y-18384000D01*
X13522571Y-18412572D01*
X13522571Y-18441143D01*
X13379714Y-18469714D01*
X13636857Y-18555429D02*
X13665428Y-18569714D01*
X13722571Y-18569714D01*
X13751143Y-18555429D01*
X13765428Y-18526857D01*
X13765428Y-18512572D01*
X13751143Y-18484000D01*
X13722571Y-18469714D01*
X13679714Y-18469714D01*
X13651143Y-18455429D01*
X13636857Y-18426857D01*
X13636857Y-18412572D01*
X13651143Y-18384000D01*
X13679714Y-18369714D01*
X13722571Y-18369714D01*
X13751143Y-18384000D01*
X13865428Y-18684000D02*
X13879714Y-18669714D01*
X13908286Y-18626857D01*
X13922571Y-18598286D01*
X13936857Y-18555429D01*
X13951143Y-18484000D01*
X13951143Y-18426857D01*
X13936857Y-18355429D01*
X13922571Y-18312572D01*
X13908286Y-18284000D01*
X13879714Y-18241143D01*
X13865428Y-18226857D01*
X7179000Y-18730000D02*
X7379000Y-18930000D01*
X7379000Y-18730000D02*
X7179000Y-18930000D01*
X7279000Y-18730000D02*
X7279000Y-18930000D01*
X7179000Y-18830000D02*
X7379000Y-18830000D01*
X7651143Y-18694286D02*
X7665428Y-18680000D01*
X7694000Y-18665714D01*
X7765428Y-18665714D01*
X7794000Y-18680000D01*
X7808286Y-18694286D01*
X7822571Y-18722857D01*
X7822571Y-18751429D01*
X7808286Y-18794286D01*
X7636857Y-18965714D01*
X7822571Y-18965714D01*
X7951143Y-18937143D02*
X7965428Y-18951429D01*
X7951143Y-18965714D01*
X7936857Y-18951429D01*
X7951143Y-18937143D01*
X7951143Y-18965714D01*
X8151143Y-18665714D02*
X8179714Y-18665714D01*
X8208286Y-18680000D01*
X8222571Y-18694286D01*
X8236857Y-18722857D01*
X8251143Y-18780000D01*
X8251143Y-18851429D01*
X8236857Y-18908572D01*
X8222571Y-18937143D01*
X8208286Y-18951429D01*
X8179714Y-18965714D01*
X8151143Y-18965714D01*
X8122571Y-18951429D01*
X8108286Y-18937143D01*
X8094000Y-18908572D01*
X8079714Y-18851429D01*
X8079714Y-18780000D01*
X8094000Y-18722857D01*
X8108286Y-18694286D01*
X8122571Y-18680000D01*
X8151143Y-18665714D01*
X8436857Y-18665714D02*
X8465428Y-18665714D01*
X8494000Y-18680000D01*
X8508286Y-18694286D01*
X8522571Y-18722857D01*
X8536857Y-18780000D01*
X8536857Y-18851429D01*
X8522571Y-18908572D01*
X8508286Y-18937143D01*
X8494000Y-18951429D01*
X8465428Y-18965714D01*
X8436857Y-18965714D01*
X8408286Y-18951429D01*
X8394000Y-18937143D01*
X8379714Y-18908572D01*
X8365428Y-18851429D01*
X8365428Y-18780000D01*
X8379714Y-18722857D01*
X8394000Y-18694286D01*
X8408286Y-18680000D01*
X8436857Y-18665714D01*
X8665428Y-18965714D02*
X8665428Y-18765714D01*
X8665428Y-18794286D02*
X8679714Y-18780000D01*
X8708286Y-18765714D01*
X8751143Y-18765714D01*
X8779714Y-18780000D01*
X8794000Y-18808572D01*
X8794000Y-18965714D01*
X8794000Y-18808572D02*
X8808286Y-18780000D01*
X8836857Y-18765714D01*
X8879714Y-18765714D01*
X8908286Y-18780000D01*
X8922571Y-18808572D01*
X8922571Y-18965714D01*
X9065428Y-18965714D02*
X9065428Y-18765714D01*
X9065428Y-18794286D02*
X9079714Y-18780000D01*
X9108286Y-18765714D01*
X9151143Y-18765714D01*
X9179714Y-18780000D01*
X9194000Y-18808572D01*
X9194000Y-18965714D01*
X9194000Y-18808572D02*
X9208286Y-18780000D01*
X9236857Y-18765714D01*
X9279714Y-18765714D01*
X9308286Y-18780000D01*
X9322571Y-18808572D01*
X9322571Y-18965714D01*
X9908286Y-18651429D02*
X9651143Y-19037143D01*
X10294000Y-18665714D02*
X10322571Y-18665714D01*
X10351143Y-18680000D01*
X10365428Y-18694286D01*
X10379714Y-18722857D01*
X10394000Y-18780000D01*
X10394000Y-18851429D01*
X10379714Y-18908572D01*
X10365428Y-18937143D01*
X10351143Y-18951429D01*
X10322571Y-18965714D01*
X10294000Y-18965714D01*
X10265428Y-18951429D01*
X10251143Y-18937143D01*
X10236857Y-18908572D01*
X10222571Y-18851429D01*
X10222571Y-18780000D01*
X10236857Y-18722857D01*
X10251143Y-18694286D01*
X10265428Y-18680000D01*
X10294000Y-18665714D01*
X10522571Y-18937143D02*
X10536857Y-18951429D01*
X10522571Y-18965714D01*
X10508286Y-18951429D01*
X10522571Y-18937143D01*
X10522571Y-18965714D01*
X10722571Y-18665714D02*
X10751143Y-18665714D01*
X10779714Y-18680000D01*
X10794000Y-18694286D01*
X10808286Y-18722857D01*
X10822571Y-18780000D01*
X10822571Y-18851429D01*
X10808286Y-18908572D01*
X10794000Y-18937143D01*
X10779714Y-18951429D01*
X10751143Y-18965714D01*
X10722571Y-18965714D01*
X10694000Y-18951429D01*
X10679714Y-18937143D01*
X10665428Y-18908572D01*
X10651143Y-18851429D01*
X10651143Y-18780000D01*
X10665428Y-18722857D01*
X10679714Y-18694286D01*
X10694000Y-18680000D01*
X10722571Y-18665714D01*
X10922571Y-18665714D02*
X11122571Y-18665714D01*
X10994000Y-18965714D01*
X11251143Y-18965714D02*
X11308286Y-18965714D01*
X11336857Y-18951429D01*
X11351143Y-18937143D01*
X11379714Y-18894286D01*
X11394000Y-18837143D01*
X11394000Y-18722857D01*
X11379714Y-18694286D01*
X11365428Y-18680000D01*
X11336857Y-18665714D01*
X11279714Y-18665714D01*
X11251143Y-18680000D01*
X11236857Y-18694286D01*
X11222571Y-18722857D01*
X11222571Y-18794286D01*
X11236857Y-18822857D01*
X11251143Y-18837143D01*
X11279714Y-18851429D01*
X11336857Y-18851429D01*
X11365428Y-18837143D01*
X11379714Y-18822857D01*
X11394000Y-18794286D01*
X11508286Y-18665714D02*
X11508286Y-18722857D01*
X11622571Y-18665714D02*
X11622571Y-18722857D01*
X12065428Y-19080000D02*
X12051143Y-19065714D01*
X12022571Y-19022857D01*
X12008286Y-18994286D01*
X11994000Y-18951429D01*
X11979714Y-18880000D01*
X11979714Y-18822857D01*
X11994000Y-18751429D01*
X12008286Y-18708572D01*
X12022571Y-18680000D01*
X12051143Y-18637143D01*
X12065428Y-18622857D01*
X12322571Y-18665714D02*
X12179714Y-18665714D01*
X12165428Y-18808572D01*
X12179714Y-18794286D01*
X12208286Y-18780000D01*
X12279714Y-18780000D01*
X12308286Y-18794286D01*
X12322571Y-18808572D01*
X12336857Y-18837143D01*
X12336857Y-18908572D01*
X12322571Y-18937143D01*
X12308286Y-18951429D01*
X12279714Y-18965714D01*
X12208286Y-18965714D01*
X12179714Y-18951429D01*
X12165428Y-18937143D01*
X12694000Y-18965714D02*
X12694000Y-18665714D01*
X12822571Y-18965714D02*
X12822571Y-18808572D01*
X12808286Y-18780000D01*
X12779714Y-18765714D01*
X12736857Y-18765714D01*
X12708286Y-18780000D01*
X12694000Y-18794286D01*
X13008286Y-18965714D02*
X12979714Y-18951429D01*
X12965428Y-18937143D01*
X12951143Y-18908572D01*
X12951143Y-18822857D01*
X12965428Y-18794286D01*
X12979714Y-18780000D01*
X13008286Y-18765714D01*
X13051143Y-18765714D01*
X13079714Y-18780000D01*
X13094000Y-18794286D01*
X13108286Y-18822857D01*
X13108286Y-18908572D01*
X13094000Y-18937143D01*
X13079714Y-18951429D01*
X13051143Y-18965714D01*
X13008286Y-18965714D01*
X13279714Y-18965714D02*
X13251143Y-18951429D01*
X13236857Y-18922857D01*
X13236857Y-18665714D01*
X13508286Y-18951429D02*
X13479714Y-18965714D01*
X13422571Y-18965714D01*
X13394000Y-18951429D01*
X13379714Y-18922857D01*
X13379714Y-18808572D01*
X13394000Y-18780000D01*
X13422571Y-18765714D01*
X13479714Y-18765714D01*
X13508286Y-18780000D01*
X13522571Y-18808572D01*
X13522571Y-18837143D01*
X13379714Y-18865714D01*
X13636857Y-18951429D02*
X13665428Y-18965714D01*
X13722571Y-18965714D01*
X13751143Y-18951429D01*
X13765428Y-18922857D01*
X13765428Y-18908572D01*
X13751143Y-18880000D01*
X13722571Y-18865714D01*
X13679714Y-18865714D01*
X13651143Y-18851429D01*
X13636857Y-18822857D01*
X13636857Y-18808572D01*
X13651143Y-18780000D01*
X13679714Y-18765714D01*
X13722571Y-18765714D01*
X13751143Y-18780000D01*
X13865428Y-19080000D02*
X13879714Y-19065714D01*
X13908286Y-19022857D01*
X13922571Y-18994286D01*
X13936857Y-18951429D01*
X13951143Y-18880000D01*
X13951143Y-18822857D01*
X13936857Y-18751429D01*
X13922571Y-18708572D01*
X13908286Y-18680000D01*
X13879714Y-18637143D01*
X13865428Y-18622857D01*
X7079000Y-19076000D02*
X7379000Y-19376000D01*
X7379000Y-19076000D02*
X7079000Y-19376000D01*
X7335067Y-19332067D02*
X7335067Y-19119933D01*
X7122933Y-19119933D01*
X7122933Y-19332067D01*
X7335067Y-19332067D01*
X7636857Y-19061714D02*
X7822571Y-19061714D01*
X7722571Y-19176000D01*
X7765428Y-19176000D01*
X7794000Y-19190286D01*
X7808286Y-19204572D01*
X7822571Y-19233143D01*
X7822571Y-19304572D01*
X7808286Y-19333143D01*
X7794000Y-19347429D01*
X7765428Y-19361714D01*
X7679714Y-19361714D01*
X7651143Y-19347429D01*
X7636857Y-19333143D01*
X7951143Y-19333143D02*
X7965428Y-19347429D01*
X7951143Y-19361714D01*
X7936857Y-19347429D01*
X7951143Y-19333143D01*
X7951143Y-19361714D01*
X8151143Y-19061714D02*
X8179714Y-19061714D01*
X8208286Y-19076000D01*
X8222571Y-19090286D01*
X8236857Y-19118857D01*
X8251143Y-19176000D01*
X8251143Y-19247429D01*
X8236857Y-19304572D01*
X8222571Y-19333143D01*
X8208286Y-19347429D01*
X8179714Y-19361714D01*
X8151143Y-19361714D01*
X8122571Y-19347429D01*
X8108286Y-19333143D01*
X8094000Y-19304572D01*
X8079714Y-19247429D01*
X8079714Y-19176000D01*
X8094000Y-19118857D01*
X8108286Y-19090286D01*
X8122571Y-19076000D01*
X8151143Y-19061714D01*
X8436857Y-19061714D02*
X8465428Y-19061714D01*
X8494000Y-19076000D01*
X8508286Y-19090286D01*
X8522571Y-19118857D01*
X8536857Y-19176000D01*
X8536857Y-19247429D01*
X8522571Y-19304572D01*
X8508286Y-19333143D01*
X8494000Y-19347429D01*
X8465428Y-19361714D01*
X8436857Y-19361714D01*
X8408286Y-19347429D01*
X8394000Y-19333143D01*
X8379714Y-19304572D01*
X8365428Y-19247429D01*
X8365428Y-19176000D01*
X8379714Y-19118857D01*
X8394000Y-19090286D01*
X8408286Y-19076000D01*
X8436857Y-19061714D01*
X8665428Y-19361714D02*
X8665428Y-19161714D01*
X8665428Y-19190286D02*
X8679714Y-19176000D01*
X8708286Y-19161714D01*
X8751143Y-19161714D01*
X8779714Y-19176000D01*
X8794000Y-19204572D01*
X8794000Y-19361714D01*
X8794000Y-19204572D02*
X8808286Y-19176000D01*
X8836857Y-19161714D01*
X8879714Y-19161714D01*
X8908286Y-19176000D01*
X8922571Y-19204572D01*
X8922571Y-19361714D01*
X9065428Y-19361714D02*
X9065428Y-19161714D01*
X9065428Y-19190286D02*
X9079714Y-19176000D01*
X9108286Y-19161714D01*
X9151143Y-19161714D01*
X9179714Y-19176000D01*
X9194000Y-19204572D01*
X9194000Y-19361714D01*
X9194000Y-19204572D02*
X9208286Y-19176000D01*
X9236857Y-19161714D01*
X9279714Y-19161714D01*
X9308286Y-19176000D01*
X9322571Y-19204572D01*
X9322571Y-19361714D01*
X9908286Y-19047429D02*
X9651143Y-19433143D01*
X10294000Y-19061714D02*
X10322571Y-19061714D01*
X10351143Y-19076000D01*
X10365428Y-19090286D01*
X10379714Y-19118857D01*
X10394000Y-19176000D01*
X10394000Y-19247429D01*
X10379714Y-19304572D01*
X10365428Y-19333143D01*
X10351143Y-19347429D01*
X10322571Y-19361714D01*
X10294000Y-19361714D01*
X10265428Y-19347429D01*
X10251143Y-19333143D01*
X10236857Y-19304572D01*
X10222571Y-19247429D01*
X10222571Y-19176000D01*
X10236857Y-19118857D01*
X10251143Y-19090286D01*
X10265428Y-19076000D01*
X10294000Y-19061714D01*
X10522571Y-19333143D02*
X10536857Y-19347429D01*
X10522571Y-19361714D01*
X10508286Y-19347429D01*
X10522571Y-19333143D01*
X10522571Y-19361714D01*
X10822571Y-19361714D02*
X10651143Y-19361714D01*
X10736857Y-19361714D02*
X10736857Y-19061714D01*
X10708286Y-19104572D01*
X10679714Y-19133143D01*
X10651143Y-19147429D01*
X11108286Y-19361714D02*
X10936857Y-19361714D01*
X11022571Y-19361714D02*
X11022571Y-19061714D01*
X10994000Y-19104572D01*
X10965428Y-19133143D01*
X10936857Y-19147429D01*
X11279714Y-19190286D02*
X11251143Y-19176000D01*
X11236857Y-19161714D01*
X11222571Y-19133143D01*
X11222571Y-19118857D01*
X11236857Y-19090286D01*
X11251143Y-19076000D01*
X11279714Y-19061714D01*
X11336857Y-19061714D01*
X11365428Y-19076000D01*
X11379714Y-19090286D01*
X11394000Y-19118857D01*
X11394000Y-19133143D01*
X11379714Y-19161714D01*
X11365428Y-19176000D01*
X11336857Y-19190286D01*
X11279714Y-19190286D01*
X11251143Y-19204572D01*
X11236857Y-19218857D01*
X11222571Y-19247429D01*
X11222571Y-19304572D01*
X11236857Y-19333143D01*
X11251143Y-19347429D01*
X11279714Y-19361714D01*
X11336857Y-19361714D01*
X11365428Y-19347429D01*
X11379714Y-19333143D01*
X11394000Y-19304572D01*
X11394000Y-19247429D01*
X11379714Y-19218857D01*
X11365428Y-19204572D01*
X11336857Y-19190286D01*
X11508286Y-19061714D02*
X11508286Y-19118857D01*
X11622571Y-19061714D02*
X11622571Y-19118857D01*
X12065428Y-19476000D02*
X12051143Y-19461714D01*
X12022571Y-19418857D01*
X12008286Y-19390286D01*
X11994000Y-19347429D01*
X11979714Y-19276000D01*
X11979714Y-19218857D01*
X11994000Y-19147429D01*
X12008286Y-19104572D01*
X12022571Y-19076000D01*
X12051143Y-19033143D01*
X12065428Y-19018857D01*
X12151143Y-19061714D02*
X12336857Y-19061714D01*
X12236857Y-19176000D01*
X12279714Y-19176000D01*
X12308286Y-19190286D01*
X12322571Y-19204572D01*
X12336857Y-19233143D01*
X12336857Y-19304572D01*
X12322571Y-19333143D01*
X12308286Y-19347429D01*
X12279714Y-19361714D01*
X12194000Y-19361714D01*
X12165428Y-19347429D01*
X12151143Y-19333143D01*
X12694000Y-19361714D02*
X12694000Y-19061714D01*
X12822571Y-19361714D02*
X12822571Y-19204572D01*
X12808286Y-19176000D01*
X12779714Y-19161714D01*
X12736857Y-19161714D01*
X12708286Y-19176000D01*
X12694000Y-19190286D01*
X13008286Y-19361714D02*
X12979714Y-19347429D01*
X12965428Y-19333143D01*
X12951143Y-19304572D01*
X12951143Y-19218857D01*
X12965428Y-19190286D01*
X12979714Y-19176000D01*
X13008286Y-19161714D01*
X13051143Y-19161714D01*
X13079714Y-19176000D01*
X13094000Y-19190286D01*
X13108286Y-19218857D01*
X13108286Y-19304572D01*
X13094000Y-19333143D01*
X13079714Y-19347429D01*
X13051143Y-19361714D01*
X13008286Y-19361714D01*
X13279714Y-19361714D02*
X13251143Y-19347429D01*
X13236857Y-19318857D01*
X13236857Y-19061714D01*
X13508286Y-19347429D02*
X13479714Y-19361714D01*
X13422571Y-19361714D01*
X13394000Y-19347429D01*
X13379714Y-19318857D01*
X13379714Y-19204572D01*
X13394000Y-19176000D01*
X13422571Y-19161714D01*
X13479714Y-19161714D01*
X13508286Y-19176000D01*
X13522571Y-19204572D01*
X13522571Y-19233143D01*
X13379714Y-19261714D01*
X13636857Y-19347429D02*
X13665428Y-19361714D01*
X13722571Y-19361714D01*
X13751143Y-19347429D01*
X13765428Y-19318857D01*
X13765428Y-19304572D01*
X13751143Y-19276000D01*
X13722571Y-19261714D01*
X13679714Y-19261714D01*
X13651143Y-19247429D01*
X13636857Y-19218857D01*
X13636857Y-19204572D01*
X13651143Y-19176000D01*
X13679714Y-19161714D01*
X13722571Y-19161714D01*
X13751143Y-19176000D01*
X13865428Y-19476000D02*
X13879714Y-19461714D01*
X13908286Y-19418857D01*
X13922571Y-19390286D01*
X13936857Y-19347429D01*
X13951143Y-19276000D01*
X13951143Y-19218857D01*
X13936857Y-19147429D01*
X13922571Y-19104572D01*
X13908286Y-19076000D01*
X13879714Y-19033143D01*
X13865428Y-19018857D01*
M02*
