%TF.GenerationSoftware,KiCad,Pcbnew,5.1.8-5.1.8*%
%TF.CreationDate,2021-07-28T16:27:41+08:00*%
%TF.ProjectId,fluxgate,666c7578-6761-4746-952e-6b696361645f,rev?*%
%TF.SameCoordinates,Original*%
%TF.FileFunction,Legend,Top*%
%TF.FilePolarity,Positive*%
%FSLAX46Y46*%
G04 Gerber Fmt 4.6, Leading zero omitted, Abs format (unit mm)*
G04 Created by KiCad (PCBNEW 5.1.8-5.1.8) date 2021-07-28 16:27:41*
%MOMM*%
%LPD*%
G01*
G04 APERTURE LIST*
%ADD10C,0.150000*%
%ADD11C,0.120000*%
G04 APERTURE END LIST*
D10*
X130949510Y-115123220D02*
X130949510Y-114123220D01*
X131187605Y-114123220D01*
X131330462Y-114170840D01*
X131425700Y-114266078D01*
X131473320Y-114361316D01*
X131520939Y-114551792D01*
X131520939Y-114694649D01*
X131473320Y-114885125D01*
X131425700Y-114980363D01*
X131330462Y-115075601D01*
X131187605Y-115123220D01*
X130949510Y-115123220D01*
X131949510Y-115123220D02*
X131949510Y-114123220D01*
X132616177Y-114123220D02*
X132806653Y-114123220D01*
X132901891Y-114170840D01*
X132997129Y-114266078D01*
X133044748Y-114456554D01*
X133044748Y-114789887D01*
X132997129Y-114980363D01*
X132901891Y-115075601D01*
X132806653Y-115123220D01*
X132616177Y-115123220D01*
X132520939Y-115075601D01*
X132425700Y-114980363D01*
X132378081Y-114789887D01*
X132378081Y-114456554D01*
X132425700Y-114266078D01*
X132520939Y-114170840D01*
X132616177Y-114123220D01*
X128081161Y-115043222D02*
X128033542Y-115090841D01*
X127890685Y-115138460D01*
X127795447Y-115138460D01*
X127652590Y-115090841D01*
X127557352Y-114995603D01*
X127509733Y-114900365D01*
X127462114Y-114709889D01*
X127462114Y-114567032D01*
X127509733Y-114376556D01*
X127557352Y-114281318D01*
X127652590Y-114186080D01*
X127795447Y-114138460D01*
X127890685Y-114138460D01*
X128033542Y-114186080D01*
X128081161Y-114233699D01*
X128985923Y-115138460D02*
X128509733Y-115138460D01*
X128509733Y-114138460D01*
X129319257Y-115138460D02*
X129319257Y-114138460D01*
X129890685Y-115138460D02*
X129462114Y-114567032D01*
X129890685Y-114138460D02*
X129319257Y-114709889D01*
X124173075Y-114186080D02*
X124077837Y-114138460D01*
X123934980Y-114138460D01*
X123792122Y-114186080D01*
X123696884Y-114281318D01*
X123649265Y-114376556D01*
X123601646Y-114567032D01*
X123601646Y-114709889D01*
X123649265Y-114900365D01*
X123696884Y-114995603D01*
X123792122Y-115090841D01*
X123934980Y-115138460D01*
X124030218Y-115138460D01*
X124173075Y-115090841D01*
X124220694Y-115043222D01*
X124220694Y-114709889D01*
X124030218Y-114709889D01*
X124649265Y-115138460D02*
X124649265Y-114138460D01*
X125220694Y-115138460D01*
X125220694Y-114138460D01*
X125696884Y-115138460D02*
X125696884Y-114138460D01*
X125934980Y-114138460D01*
X126077837Y-114186080D01*
X126173075Y-114281318D01*
X126220694Y-114376556D01*
X126268313Y-114567032D01*
X126268313Y-114709889D01*
X126220694Y-114900365D01*
X126173075Y-114995603D01*
X126077837Y-115090841D01*
X125934980Y-115138460D01*
X125696884Y-115138460D01*
X132349904Y-150062226D02*
X132826095Y-150062226D01*
X132254666Y-150347940D02*
X132588000Y-149347940D01*
X132921333Y-150347940D01*
X108123028Y-152013611D02*
X108265885Y-152061230D01*
X108313504Y-152108849D01*
X108361123Y-152204087D01*
X108361123Y-152346944D01*
X108313504Y-152442182D01*
X108265885Y-152489801D01*
X108170647Y-152537420D01*
X107789695Y-152537420D01*
X107789695Y-151537420D01*
X108123028Y-151537420D01*
X108218266Y-151585040D01*
X108265885Y-151632659D01*
X108313504Y-151727897D01*
X108313504Y-151823135D01*
X108265885Y-151918373D01*
X108218266Y-151965992D01*
X108123028Y-152013611D01*
X107789695Y-152013611D01*
X76621735Y-102212520D02*
X76526497Y-102164900D01*
X76383640Y-102164900D01*
X76240782Y-102212520D01*
X76145544Y-102307758D01*
X76097925Y-102402996D01*
X76050306Y-102593472D01*
X76050306Y-102736329D01*
X76097925Y-102926805D01*
X76145544Y-103022043D01*
X76240782Y-103117281D01*
X76383640Y-103164900D01*
X76478878Y-103164900D01*
X76621735Y-103117281D01*
X76669354Y-103069662D01*
X76669354Y-102736329D01*
X76478878Y-102736329D01*
X77097925Y-103164900D02*
X77097925Y-102164900D01*
X77669354Y-103164900D01*
X77669354Y-102164900D01*
X78145544Y-103164900D02*
X78145544Y-102164900D01*
X78383640Y-102164900D01*
X78526497Y-102212520D01*
X78621735Y-102307758D01*
X78669354Y-102402996D01*
X78716973Y-102593472D01*
X78716973Y-102736329D01*
X78669354Y-102926805D01*
X78621735Y-103022043D01*
X78526497Y-103117281D01*
X78383640Y-103164900D01*
X78145544Y-103164900D01*
X76088406Y-111209840D02*
X76421740Y-112209840D01*
X76755073Y-111209840D01*
X77659835Y-112114602D02*
X77612216Y-112162221D01*
X77469359Y-112209840D01*
X77374120Y-112209840D01*
X77231263Y-112162221D01*
X77136025Y-112066983D01*
X77088406Y-111971745D01*
X77040787Y-111781269D01*
X77040787Y-111638412D01*
X77088406Y-111447936D01*
X77136025Y-111352698D01*
X77231263Y-111257460D01*
X77374120Y-111209840D01*
X77469359Y-111209840D01*
X77612216Y-111257460D01*
X77659835Y-111305079D01*
X78659835Y-112114602D02*
X78612216Y-112162221D01*
X78469359Y-112209840D01*
X78374120Y-112209840D01*
X78231263Y-112162221D01*
X78136025Y-112066983D01*
X78088406Y-111971745D01*
X78040787Y-111781269D01*
X78040787Y-111638412D01*
X78088406Y-111447936D01*
X78136025Y-111352698D01*
X78231263Y-111257460D01*
X78374120Y-111209840D01*
X78469359Y-111209840D01*
X78612216Y-111257460D01*
X78659835Y-111305079D01*
D11*
%TO.C,J2*%
X129480000Y-148530000D02*
X130810000Y-148530000D01*
X129480000Y-149860000D02*
X129480000Y-148530000D01*
X129480000Y-151130000D02*
X132140000Y-151130000D01*
X132140000Y-151130000D02*
X132140000Y-151190000D01*
X129480000Y-151130000D02*
X129480000Y-151190000D01*
X129480000Y-151190000D02*
X132140000Y-151190000D01*
%TO.C,J3*%
X144720000Y-63560000D02*
X147380000Y-63560000D01*
X144720000Y-63500000D02*
X144720000Y-63560000D01*
X147380000Y-63500000D02*
X147380000Y-63560000D01*
X144720000Y-63500000D02*
X147380000Y-63500000D01*
X144720000Y-62230000D02*
X144720000Y-60900000D01*
X144720000Y-60900000D02*
X146050000Y-60900000D01*
%TO.C,J4*%
X172530000Y-85970000D02*
X172530000Y-87300000D01*
X171200000Y-85970000D02*
X172530000Y-85970000D01*
X169930000Y-85970000D02*
X169930000Y-88630000D01*
X169930000Y-88630000D02*
X169870000Y-88630000D01*
X169930000Y-85970000D02*
X169870000Y-85970000D01*
X169870000Y-85970000D02*
X169870000Y-88630000D01*
%TO.C,J5*%
X106620000Y-148530000D02*
X107950000Y-148530000D01*
X106620000Y-149860000D02*
X106620000Y-148530000D01*
X106620000Y-151130000D02*
X109280000Y-151130000D01*
X109280000Y-151130000D02*
X109280000Y-151190000D01*
X106620000Y-151130000D02*
X106620000Y-151190000D01*
X106620000Y-151190000D02*
X109280000Y-151190000D01*
%TO.C,J6*%
X76140000Y-101660000D02*
X78800000Y-101660000D01*
X76140000Y-101600000D02*
X76140000Y-101660000D01*
X78800000Y-101600000D02*
X78800000Y-101660000D01*
X76140000Y-101600000D02*
X78800000Y-101600000D01*
X76140000Y-100330000D02*
X76140000Y-99000000D01*
X76140000Y-99000000D02*
X77470000Y-99000000D01*
%TO.C,J7*%
X168850000Y-64830000D02*
X171510000Y-64830000D01*
X168850000Y-64770000D02*
X168850000Y-64830000D01*
X171510000Y-64770000D02*
X171510000Y-64830000D01*
X168850000Y-64770000D02*
X171510000Y-64770000D01*
X168850000Y-63500000D02*
X168850000Y-62170000D01*
X168850000Y-62170000D02*
X170180000Y-62170000D01*
%TO.C,J8*%
X172018000Y-108779000D02*
X172018000Y-110109000D01*
X170688000Y-108779000D02*
X172018000Y-108779000D01*
X169418000Y-108779000D02*
X169418000Y-111439000D01*
X169418000Y-111439000D02*
X169358000Y-111439000D01*
X169418000Y-108779000D02*
X169358000Y-108779000D01*
X169358000Y-108779000D02*
X169358000Y-111439000D01*
%TO.C,DS1*%
X86300000Y-59750000D02*
X86300000Y-58420000D01*
X87630000Y-59750000D02*
X86300000Y-59750000D01*
X88900000Y-59750000D02*
X88900000Y-57090000D01*
X88900000Y-57090000D02*
X127060000Y-57090000D01*
X88900000Y-59750000D02*
X127060000Y-59750000D01*
X127060000Y-59750000D02*
X127060000Y-57090000D01*
%TO.C,D8*%
X90370000Y-69670000D02*
X87430000Y-69670000D01*
X87430000Y-69670000D02*
X87430000Y-75110000D01*
X87430000Y-75110000D02*
X90370000Y-75110000D01*
X90370000Y-75110000D02*
X90370000Y-69670000D01*
X88900000Y-68650000D02*
X88900000Y-69670000D01*
X88900000Y-76130000D02*
X88900000Y-75110000D01*
X90370000Y-70570000D02*
X87430000Y-70570000D01*
X90370000Y-70690000D02*
X87430000Y-70690000D01*
X90370000Y-70450000D02*
X87430000Y-70450000D01*
%TO.C,D7*%
X119180000Y-109400000D02*
X122120000Y-109400000D01*
X122120000Y-109400000D02*
X122120000Y-103960000D01*
X122120000Y-103960000D02*
X119180000Y-103960000D01*
X119180000Y-103960000D02*
X119180000Y-109400000D01*
X120650000Y-110420000D02*
X120650000Y-109400000D01*
X120650000Y-102940000D02*
X120650000Y-103960000D01*
X119180000Y-108500000D02*
X122120000Y-108500000D01*
X119180000Y-108380000D02*
X122120000Y-108380000D01*
X119180000Y-108620000D02*
X122120000Y-108620000D01*
%TO.C,D6*%
X96340000Y-103940000D02*
X96340000Y-106880000D01*
X96340000Y-106880000D02*
X101780000Y-106880000D01*
X101780000Y-106880000D02*
X101780000Y-103940000D01*
X101780000Y-103940000D02*
X96340000Y-103940000D01*
X95320000Y-105410000D02*
X96340000Y-105410000D01*
X102800000Y-105410000D02*
X101780000Y-105410000D01*
X97240000Y-103940000D02*
X97240000Y-106880000D01*
X97360000Y-103940000D02*
X97360000Y-106880000D01*
X97120000Y-103940000D02*
X97120000Y-106880000D01*
%TO.C,R49*%
X166970000Y-71120000D02*
G75*
G03*
X166970000Y-71120000I-1370000J0D01*
G01*
X166970000Y-71120000D02*
X169580000Y-71120000D01*
%TO.C,R48*%
X151230000Y-72390000D02*
G75*
G03*
X151230000Y-72390000I-1370000J0D01*
G01*
X149860000Y-73760000D02*
X149860000Y-76370000D01*
%TO.C,R47*%
X138022000Y-83820000D02*
G75*
G03*
X138022000Y-83820000I-1370000J0D01*
G01*
X135282000Y-83820000D02*
X132672000Y-83820000D01*
%TO.C,R46*%
X152373000Y-88138000D02*
G75*
G03*
X152373000Y-88138000I-1370000J0D01*
G01*
X149633000Y-88138000D02*
X147023000Y-88138000D01*
%TO.C,R45*%
X127481000Y-87249000D02*
G75*
G03*
X127481000Y-87249000I-1370000J0D01*
G01*
X127481000Y-87249000D02*
X130091000Y-87249000D01*
%TO.C,R44*%
X139546000Y-89408000D02*
G75*
G03*
X139546000Y-89408000I-1370000J0D01*
G01*
X139546000Y-89408000D02*
X142156000Y-89408000D01*
%TO.C,R43*%
X150468000Y-113665000D02*
G75*
G03*
X150468000Y-113665000I-1370000J0D01*
G01*
X149098000Y-112295000D02*
X149098000Y-109685000D01*
%TO.C,R42*%
X155675000Y-105500000D02*
G75*
G03*
X155675000Y-105500000I-1370000J0D01*
G01*
X152935000Y-105500000D02*
X150325000Y-105500000D01*
%TO.C,R41*%
X142340000Y-93345000D02*
G75*
G03*
X142340000Y-93345000I-1370000J0D01*
G01*
X142340000Y-93345000D02*
X144950000Y-93345000D01*
%TO.C,R40*%
X155040000Y-108585000D02*
G75*
G03*
X155040000Y-108585000I-1370000J0D01*
G01*
X153670000Y-109955000D02*
X153670000Y-112565000D01*
%TO.C,R39*%
X142975000Y-105410000D02*
G75*
G03*
X142975000Y-105410000I-1370000J0D01*
G01*
X142975000Y-105410000D02*
X145585000Y-105410000D01*
%TO.C,R38*%
X142975000Y-98425000D02*
G75*
G03*
X142975000Y-98425000I-1370000J0D01*
G01*
X142975000Y-98425000D02*
X145585000Y-98425000D01*
%TO.C,R37*%
X142975680Y-102077260D02*
G75*
G03*
X142975680Y-102077260I-1370000J0D01*
G01*
X142975680Y-102077260D02*
X145585680Y-102077260D01*
%TO.C,R36*%
X150570000Y-92200000D02*
G75*
G03*
X150570000Y-92200000I-1370000J0D01*
G01*
X150570000Y-92200000D02*
X153180000Y-92200000D01*
%TO.C,R35*%
X163295000Y-84582000D02*
G75*
G03*
X163295000Y-84582000I-1370000J0D01*
G01*
X160555000Y-84582000D02*
X157945000Y-84582000D01*
%TO.C,R34*%
X163295000Y-109220000D02*
G75*
G03*
X163295000Y-109220000I-1370000J0D01*
G01*
X160555000Y-109220000D02*
X157945000Y-109220000D01*
%TO.C,R33*%
X158215000Y-87630000D02*
G75*
G03*
X158215000Y-87630000I-1370000J0D01*
G01*
X158215000Y-87630000D02*
X160825000Y-87630000D01*
%TO.C,R32*%
X169970000Y-105700000D02*
G75*
G03*
X169970000Y-105700000I-1370000J0D01*
G01*
X167230000Y-105700000D02*
X164620000Y-105700000D01*
%TO.C,R31*%
X169645000Y-91440000D02*
G75*
G03*
X169645000Y-91440000I-1370000J0D01*
G01*
X166905000Y-91440000D02*
X164295000Y-91440000D01*
%TO.C,R30*%
X172185000Y-96520000D02*
G75*
G03*
X172185000Y-96520000I-1370000J0D01*
G01*
X170815000Y-97890000D02*
X170815000Y-100500000D01*
%TO.C,R29*%
X83285000Y-57023000D02*
G75*
G03*
X83285000Y-57023000I-1370000J0D01*
G01*
X81915000Y-58393000D02*
X81915000Y-61003000D01*
%TO.C,R28*%
X114400000Y-82550000D02*
G75*
G03*
X114400000Y-82550000I-1370000J0D01*
G01*
X113030000Y-81180000D02*
X113030000Y-78570000D01*
%TO.C,R27*%
X132180000Y-58420000D02*
G75*
G03*
X132180000Y-58420000I-1370000J0D01*
G01*
X132180000Y-58420000D02*
X134790000Y-58420000D01*
%TO.C,R26*%
X129640000Y-78740000D02*
G75*
G03*
X129640000Y-78740000I-1370000J0D01*
G01*
X128270000Y-80110000D02*
X128270000Y-82720000D01*
%TO.C,R25*%
X123290000Y-78740000D02*
G75*
G03*
X123290000Y-78740000I-1370000J0D01*
G01*
X121920000Y-80110000D02*
X121920000Y-82720000D01*
%TO.C,R24*%
X99541000Y-117094000D02*
G75*
G03*
X99541000Y-117094000I-1370000J0D01*
G01*
X98171000Y-115724000D02*
X98171000Y-113114000D01*
%TO.C,R23*%
X103351000Y-124079000D02*
G75*
G03*
X103351000Y-124079000I-1370000J0D01*
G01*
X101981000Y-125449000D02*
X101981000Y-128059000D01*
%TO.C,R22*%
X84936000Y-119634000D02*
G75*
G03*
X84936000Y-119634000I-1370000J0D01*
G01*
X83566000Y-121004000D02*
X83566000Y-123614000D01*
%TO.C,R21*%
X109370000Y-123190000D02*
G75*
G03*
X109370000Y-123190000I-1370000J0D01*
G01*
X108000000Y-121820000D02*
X108000000Y-119210000D01*
%TO.C,R20*%
X97170000Y-134874000D02*
G75*
G03*
X97170000Y-134874000I-1370000J0D01*
G01*
X95800000Y-136244000D02*
X95800000Y-138854000D01*
%TO.C,R19*%
X117194000Y-125095000D02*
G75*
G03*
X117194000Y-125095000I-1370000J0D01*
G01*
X114454000Y-125095000D02*
X111844000Y-125095000D01*
%TO.C,R18*%
X87476000Y-129159000D02*
G75*
G03*
X87476000Y-129159000I-1370000J0D01*
G01*
X84736000Y-129159000D02*
X82126000Y-129159000D01*
%TO.C,R17*%
X139800000Y-62230000D02*
G75*
G03*
X139800000Y-62230000I-1370000J0D01*
G01*
X137060000Y-62230000D02*
X134450000Y-62230000D01*
%TO.C,R16*%
X115924000Y-138430000D02*
G75*
G03*
X115924000Y-138430000I-1370000J0D01*
G01*
X115924000Y-138430000D02*
X118534000Y-138430000D01*
%TO.C,R15*%
X139800000Y-72390000D02*
G75*
G03*
X139800000Y-72390000I-1370000J0D01*
G01*
X137060000Y-72390000D02*
X134450000Y-72390000D01*
%TO.C,R14*%
X127100000Y-111760000D02*
G75*
G03*
X127100000Y-111760000I-1370000J0D01*
G01*
X127100000Y-111760000D02*
X129710000Y-111760000D01*
%TO.C,R13*%
X89381000Y-139319000D02*
G75*
G03*
X89381000Y-139319000I-1370000J0D01*
G01*
X89381000Y-139319000D02*
X91991000Y-139319000D01*
%TO.C,R12*%
X139800000Y-67310000D02*
G75*
G03*
X139800000Y-67310000I-1370000J0D01*
G01*
X137060000Y-67310000D02*
X134450000Y-67310000D01*
%TO.C,R11*%
X126338000Y-142748000D02*
G75*
G03*
X126338000Y-142748000I-1370000J0D01*
G01*
X124968000Y-141378000D02*
X124968000Y-138768000D01*
%TO.C,R10*%
X145007000Y-142875000D02*
G75*
G03*
X145007000Y-142875000I-1370000J0D01*
G01*
X143637000Y-141505000D02*
X143637000Y-138895000D01*
%TO.C,R9*%
X159170000Y-135000000D02*
G75*
G03*
X159170000Y-135000000I-1370000J0D01*
G01*
X159170000Y-135000000D02*
X161780000Y-135000000D01*
%TO.C,R8*%
X136244000Y-137795000D02*
G75*
G03*
X136244000Y-137795000I-1370000J0D01*
G01*
X136244000Y-137795000D02*
X138854000Y-137795000D01*
%TO.C,R7*%
X154786000Y-129286000D02*
G75*
G03*
X154786000Y-129286000I-1370000J0D01*
G01*
X153416000Y-130656000D02*
X153416000Y-133266000D01*
%TO.C,R6*%
X137514000Y-125730000D02*
G75*
G03*
X137514000Y-125730000I-1370000J0D01*
G01*
X134774000Y-125730000D02*
X132164000Y-125730000D01*
%TO.C,R5*%
X166851000Y-126746000D02*
G75*
G03*
X166851000Y-126746000I-1370000J0D01*
G01*
X165481000Y-128116000D02*
X165481000Y-130726000D01*
%TO.C,R4*%
X128870000Y-125800000D02*
G75*
G03*
X128870000Y-125800000I-1370000J0D01*
G01*
X127500000Y-124430000D02*
X127500000Y-121820000D01*
%TO.C,R3*%
X172058000Y-122936000D02*
G75*
G03*
X172058000Y-122936000I-1370000J0D01*
G01*
X170688000Y-124306000D02*
X170688000Y-126916000D01*
%TO.C,R2*%
X153770000Y-120650000D02*
G75*
G03*
X153770000Y-120650000I-1370000J0D01*
G01*
X152400000Y-122020000D02*
X152400000Y-124630000D01*
%TO.C,R1*%
X166724000Y-117221000D02*
G75*
G03*
X166724000Y-117221000I-1370000J0D01*
G01*
X163984000Y-117221000D02*
X161374000Y-117221000D01*
%TO.C,Q19*%
X114830000Y-70540000D02*
X111230000Y-70540000D01*
X110705816Y-71267205D02*
G75*
G02*
X111230000Y-70540000I2324184J-1122795D01*
G01*
X110673600Y-73488807D02*
G75*
G03*
X113030000Y-74990000I2356400J1098807D01*
G01*
X115386400Y-73488807D02*
G75*
G02*
X113030000Y-74990000I-2356400J1098807D01*
G01*
X115354184Y-71267205D02*
G75*
G03*
X114830000Y-70540000I-2324184J-1122795D01*
G01*
%TO.C,Q18*%
X123880000Y-71860000D02*
X123880000Y-75460000D01*
X124607205Y-75984184D02*
G75*
G02*
X123880000Y-75460000I1122795J2324184D01*
G01*
X126828807Y-76016400D02*
G75*
G03*
X128330000Y-73660000I-1098807J2356400D01*
G01*
X126828807Y-71303600D02*
G75*
G02*
X128330000Y-73660000I-1098807J-2356400D01*
G01*
X124607205Y-71335816D02*
G75*
G03*
X123880000Y-71860000I1122795J-2324184D01*
G01*
%TO.C,Q17*%
X117530000Y-71860000D02*
X117530000Y-75460000D01*
X118257205Y-75984184D02*
G75*
G02*
X117530000Y-75460000I1122795J2324184D01*
G01*
X120478807Y-76016400D02*
G75*
G03*
X121980000Y-73660000I-1098807J2356400D01*
G01*
X120478807Y-71303600D02*
G75*
G02*
X121980000Y-73660000I-1098807J-2356400D01*
G01*
X118257205Y-71335816D02*
G75*
G03*
X117530000Y-71860000I1122795J-2324184D01*
G01*
%TO.C,Y1*%
X133475000Y-107300000D02*
X127075000Y-107300000D01*
X133475000Y-102250000D02*
X127075000Y-102250000D01*
X127075000Y-102250000D02*
G75*
G03*
X127075000Y-107300000I0J-2525000D01*
G01*
X133475000Y-102250000D02*
G75*
G02*
X133475000Y-107300000I0J-2525000D01*
G01*
%TO.C,U7*%
X159750000Y-82610000D02*
X161400000Y-82610000D01*
X161400000Y-82610000D02*
X161400000Y-72330000D01*
X161400000Y-72330000D02*
X156100000Y-72330000D01*
X156100000Y-72330000D02*
X156100000Y-82610000D01*
X156100000Y-82610000D02*
X157750000Y-82610000D01*
X157750000Y-82610000D02*
G75*
G02*
X159750000Y-82610000I1000000J0D01*
G01*
%TO.C,U4*%
X168335000Y-98060000D02*
X168335000Y-96410000D01*
X168335000Y-96410000D02*
X150435000Y-96410000D01*
X150435000Y-96410000D02*
X150435000Y-101710000D01*
X150435000Y-101710000D02*
X168335000Y-101710000D01*
X168335000Y-101710000D02*
X168335000Y-100060000D01*
X168335000Y-100060000D02*
G75*
G02*
X168335000Y-98060000I0J1000000D01*
G01*
%TO.C,U3*%
X74200000Y-91480000D02*
X74200000Y-81240000D01*
X78841000Y-91480000D02*
X78841000Y-81240000D01*
X74200000Y-91480000D02*
X78841000Y-91480000D01*
X74200000Y-81240000D02*
X78841000Y-81240000D01*
X75710000Y-91480000D02*
X75710000Y-81240000D01*
X74200000Y-88210000D02*
X75710000Y-88210000D01*
X74200000Y-84509000D02*
X75710000Y-84509000D01*
%TO.C,U2*%
X94053000Y-84654000D02*
X94053000Y-86154000D01*
X94053000Y-86154000D02*
X95003000Y-86154000D01*
X95003000Y-86154000D02*
X95003000Y-91279000D01*
X104453000Y-84654000D02*
X104453000Y-86154000D01*
X104453000Y-86154000D02*
X103503000Y-86154000D01*
X103503000Y-86154000D02*
X103503000Y-87254000D01*
%TO.C,Q23*%
X164360000Y-57840000D02*
X160760000Y-57840000D01*
X160235816Y-58567205D02*
G75*
G02*
X160760000Y-57840000I2324184J-1122795D01*
G01*
X160203600Y-60788807D02*
G75*
G03*
X162560000Y-62290000I2356400J1098807D01*
G01*
X164916400Y-60788807D02*
G75*
G02*
X162560000Y-62290000I-2356400J1098807D01*
G01*
X164884184Y-58567205D02*
G75*
G03*
X164360000Y-57840000I-2324184J-1122795D01*
G01*
%TO.C,Q22*%
X164360000Y-64190000D02*
X160760000Y-64190000D01*
X160235816Y-64917205D02*
G75*
G02*
X160760000Y-64190000I2324184J-1122795D01*
G01*
X160203600Y-67138807D02*
G75*
G03*
X162560000Y-68640000I2356400J1098807D01*
G01*
X164916400Y-67138807D02*
G75*
G02*
X162560000Y-68640000I-2356400J1098807D01*
G01*
X164884184Y-64917205D02*
G75*
G03*
X164360000Y-64190000I-2324184J-1122795D01*
G01*
%TO.C,Q21*%
X153140000Y-61540000D02*
X156740000Y-61540000D01*
X157264184Y-60812795D02*
G75*
G02*
X156740000Y-61540000I-2324184J1122795D01*
G01*
X157296400Y-58591193D02*
G75*
G03*
X154940000Y-57090000I-2356400J-1098807D01*
G01*
X152583600Y-58591193D02*
G75*
G02*
X154940000Y-57090000I2356400J-1098807D01*
G01*
X152615816Y-60812795D02*
G75*
G03*
X153140000Y-61540000I2324184J1122795D01*
G01*
%TO.C,Q20*%
X153140000Y-67890000D02*
X156740000Y-67890000D01*
X157264184Y-67162795D02*
G75*
G02*
X156740000Y-67890000I-2324184J1122795D01*
G01*
X157296400Y-64941193D02*
G75*
G03*
X154940000Y-63440000I-2356400J-1098807D01*
G01*
X152583600Y-64941193D02*
G75*
G02*
X154940000Y-63440000I2356400J-1098807D01*
G01*
X152615816Y-67162795D02*
G75*
G03*
X153140000Y-67890000I2324184J1122795D01*
G01*
%TO.C,Q16*%
X95101000Y-125294000D02*
X98701000Y-125294000D01*
X99225184Y-124566795D02*
G75*
G02*
X98701000Y-125294000I-2324184J1122795D01*
G01*
X99257400Y-122345193D02*
G75*
G03*
X96901000Y-120844000I-2356400J-1098807D01*
G01*
X94544600Y-122345193D02*
G75*
G02*
X96901000Y-120844000I2356400J-1098807D01*
G01*
X94576816Y-124566795D02*
G75*
G03*
X95101000Y-125294000I2324184J1122795D01*
G01*
%TO.C,Q15*%
X93036000Y-125244000D02*
X93036000Y-121644000D01*
X92308795Y-121119816D02*
G75*
G02*
X93036000Y-121644000I-1122795J-2324184D01*
G01*
X90087193Y-121087600D02*
G75*
G03*
X88586000Y-123444000I1098807J-2356400D01*
G01*
X90087193Y-125800400D02*
G75*
G02*
X88586000Y-123444000I1098807J2356400D01*
G01*
X92308795Y-125768184D02*
G75*
G03*
X93036000Y-125244000I-1122795J2324184D01*
G01*
%TO.C,Q14*%
X110004000Y-130230000D02*
X106404000Y-130230000D01*
X105879816Y-130957205D02*
G75*
G02*
X106404000Y-130230000I2324184J-1122795D01*
G01*
X105847600Y-133178807D02*
G75*
G03*
X108204000Y-134680000I2356400J1098807D01*
G01*
X110560400Y-133178807D02*
G75*
G02*
X108204000Y-134680000I-2356400J1098807D01*
G01*
X110528184Y-130957205D02*
G75*
G03*
X110004000Y-130230000I-2324184J-1122795D01*
G01*
%TO.C,Q13*%
X92986000Y-127309000D02*
X89386000Y-127309000D01*
X88861816Y-128036205D02*
G75*
G02*
X89386000Y-127309000I2324184J-1122795D01*
G01*
X88829600Y-130257807D02*
G75*
G03*
X91186000Y-131759000I2356400J1098807D01*
G01*
X93542400Y-130257807D02*
G75*
G02*
X91186000Y-131759000I-2356400J1098807D01*
G01*
X93510184Y-128036205D02*
G75*
G03*
X92986000Y-127309000I-2324184J-1122795D01*
G01*
%TO.C,Q12*%
X118419000Y-130280000D02*
X118419000Y-133880000D01*
X119146205Y-134404184D02*
G75*
G02*
X118419000Y-133880000I1122795J2324184D01*
G01*
X121367807Y-134436400D02*
G75*
G03*
X122869000Y-132080000I-1098807J2356400D01*
G01*
X121367807Y-129723600D02*
G75*
G02*
X122869000Y-132080000I-1098807J-2356400D01*
G01*
X119146205Y-129755816D02*
G75*
G03*
X118419000Y-130280000I1122795J-2324184D01*
G01*
%TO.C,Q11*%
X112069000Y-130280000D02*
X112069000Y-133880000D01*
X112796205Y-134404184D02*
G75*
G02*
X112069000Y-133880000I1122795J2324184D01*
G01*
X115017807Y-134436400D02*
G75*
G03*
X116519000Y-132080000I-1098807J2356400D01*
G01*
X115017807Y-129723600D02*
G75*
G02*
X116519000Y-132080000I-1098807J-2356400D01*
G01*
X112796205Y-129755816D02*
G75*
G03*
X112069000Y-130280000I1122795J-2324184D01*
G01*
%TO.C,Q10*%
X120799000Y-146560000D02*
X120799000Y-145060000D01*
X120799000Y-145060000D02*
X120529000Y-145060000D01*
X120529000Y-145060000D02*
X120529000Y-142230000D01*
X113899000Y-146560000D02*
X113899000Y-145060000D01*
X113899000Y-145060000D02*
X114169000Y-145060000D01*
X114169000Y-145060000D02*
X114169000Y-143960000D01*
%TO.C,Q9*%
X88921000Y-146179000D02*
X88921000Y-144679000D01*
X88921000Y-144679000D02*
X88651000Y-144679000D01*
X88651000Y-144679000D02*
X88651000Y-141849000D01*
X82021000Y-146179000D02*
X82021000Y-144679000D01*
X82021000Y-144679000D02*
X82291000Y-144679000D01*
X82291000Y-144679000D02*
X82291000Y-143579000D01*
%TO.C,Q8*%
X140864000Y-145715000D02*
X140864000Y-144215000D01*
X140864000Y-144215000D02*
X140594000Y-144215000D01*
X140594000Y-144215000D02*
X140594000Y-141385000D01*
X133964000Y-145715000D02*
X133964000Y-144215000D01*
X133964000Y-144215000D02*
X134234000Y-144215000D01*
X134234000Y-144215000D02*
X134234000Y-143115000D01*
%TO.C,Q7*%
X158391000Y-146433000D02*
X158391000Y-144933000D01*
X158391000Y-144933000D02*
X158121000Y-144933000D01*
X158121000Y-144933000D02*
X158121000Y-142103000D01*
X151491000Y-146433000D02*
X151491000Y-144933000D01*
X151491000Y-144933000D02*
X151761000Y-144933000D01*
X151761000Y-144933000D02*
X151761000Y-143833000D01*
%TO.C,Q6*%
X139374000Y-130280000D02*
X139374000Y-133880000D01*
X140101205Y-134404184D02*
G75*
G02*
X139374000Y-133880000I1122795J2324184D01*
G01*
X142322807Y-134436400D02*
G75*
G03*
X143824000Y-132080000I-1098807J2356400D01*
G01*
X142322807Y-129723600D02*
G75*
G02*
X143824000Y-132080000I-1098807J-2356400D01*
G01*
X140101205Y-129755816D02*
G75*
G03*
X139374000Y-130280000I1122795J-2324184D01*
G01*
%TO.C,Q5*%
X132389000Y-130280000D02*
X132389000Y-133880000D01*
X133116205Y-134404184D02*
G75*
G02*
X132389000Y-133880000I1122795J2324184D01*
G01*
X135337807Y-134436400D02*
G75*
G03*
X136839000Y-132080000I-1098807J2356400D01*
G01*
X135337807Y-129723600D02*
G75*
G02*
X136839000Y-132080000I-1098807J-2356400D01*
G01*
X133116205Y-129755816D02*
G75*
G03*
X132389000Y-130280000I1122795J-2324184D01*
G01*
%TO.C,Q4*%
X161566000Y-126801000D02*
X157966000Y-126801000D01*
X157441816Y-127528205D02*
G75*
G02*
X157966000Y-126801000I2324184J-1122795D01*
G01*
X157409600Y-129749807D02*
G75*
G03*
X159766000Y-131251000I2356400J1098807D01*
G01*
X162122400Y-129749807D02*
G75*
G02*
X159766000Y-131251000I-2356400J1098807D01*
G01*
X162090184Y-127528205D02*
G75*
G03*
X161566000Y-126801000I-2324184J-1122795D01*
G01*
%TO.C,Q3*%
X130324000Y-130230000D02*
X126724000Y-130230000D01*
X126199816Y-130957205D02*
G75*
G02*
X126724000Y-130230000I2324184J-1122795D01*
G01*
X126167600Y-133178807D02*
G75*
G03*
X128524000Y-134680000I2356400J1098807D01*
G01*
X130880400Y-133178807D02*
G75*
G02*
X128524000Y-134680000I-2356400J1098807D01*
G01*
X130848184Y-130957205D02*
G75*
G03*
X130324000Y-130230000I-2324184J-1122795D01*
G01*
%TO.C,Q2*%
X161616000Y-124736000D02*
X161616000Y-121136000D01*
X160888795Y-120611816D02*
G75*
G02*
X161616000Y-121136000I-1122795J-2324184D01*
G01*
X158667193Y-120579600D02*
G75*
G03*
X157166000Y-122936000I1098807J-2356400D01*
G01*
X158667193Y-125292400D02*
G75*
G02*
X157166000Y-122936000I1098807J2356400D01*
G01*
X160888795Y-125260184D02*
G75*
G03*
X161616000Y-124736000I-1122795J2324184D01*
G01*
%TO.C,Q1*%
X163681000Y-124786000D02*
X167281000Y-124786000D01*
X167805184Y-124058795D02*
G75*
G02*
X167281000Y-124786000I-2324184J1122795D01*
G01*
X167837400Y-121837193D02*
G75*
G03*
X165481000Y-120336000I-2356400J-1098807D01*
G01*
X163124600Y-121837193D02*
G75*
G02*
X165481000Y-120336000I2356400J-1098807D01*
G01*
X163156816Y-124058795D02*
G75*
G03*
X163681000Y-124786000I2324184J1122795D01*
G01*
%TO.C,L1*%
X106020000Y-97500000D02*
G75*
G03*
X106020000Y-97500000I-5120000J0D01*
G01*
%TO.C,J11*%
X132648000Y-118170000D02*
X132648000Y-115510000D01*
X127508000Y-118170000D02*
X132648000Y-118170000D01*
X127508000Y-115510000D02*
X132648000Y-115510000D01*
X127508000Y-118170000D02*
X127508000Y-115510000D01*
X126238000Y-118170000D02*
X124908000Y-118170000D01*
X124908000Y-118170000D02*
X124908000Y-116840000D01*
%TO.C,J1*%
X76140000Y-110550000D02*
X78800000Y-110550000D01*
X76140000Y-110490000D02*
X76140000Y-110550000D01*
X78800000Y-110490000D02*
X78800000Y-110550000D01*
X76140000Y-110490000D02*
X78800000Y-110490000D01*
X76140000Y-109220000D02*
X76140000Y-107890000D01*
X76140000Y-107890000D02*
X77470000Y-107890000D01*
%TO.C,D5*%
X84621000Y-133754000D02*
X84621000Y-135994000D01*
X84621000Y-135994000D02*
X88861000Y-135994000D01*
X88861000Y-135994000D02*
X88861000Y-133754000D01*
X88861000Y-133754000D02*
X84621000Y-133754000D01*
X83971000Y-134874000D02*
X84621000Y-134874000D01*
X89511000Y-134874000D02*
X88861000Y-134874000D01*
X85341000Y-133754000D02*
X85341000Y-135994000D01*
X85461000Y-133754000D02*
X85461000Y-135994000D01*
X85221000Y-133754000D02*
X85221000Y-135994000D01*
%TO.C,D4*%
X85672000Y-112830000D02*
X85672000Y-115770000D01*
X85672000Y-115770000D02*
X91112000Y-115770000D01*
X91112000Y-115770000D02*
X91112000Y-112830000D01*
X91112000Y-112830000D02*
X85672000Y-112830000D01*
X84652000Y-114300000D02*
X85672000Y-114300000D01*
X92132000Y-114300000D02*
X91112000Y-114300000D01*
X86572000Y-112830000D02*
X86572000Y-115770000D01*
X86692000Y-112830000D02*
X86692000Y-115770000D01*
X86452000Y-112830000D02*
X86452000Y-115770000D01*
%TO.C,D3*%
X144706000Y-123898000D02*
X144706000Y-120958000D01*
X144706000Y-120958000D02*
X139266000Y-120958000D01*
X139266000Y-120958000D02*
X139266000Y-123898000D01*
X139266000Y-123898000D02*
X144706000Y-123898000D01*
X145726000Y-122428000D02*
X144706000Y-122428000D01*
X138246000Y-122428000D02*
X139266000Y-122428000D01*
X143806000Y-123898000D02*
X143806000Y-120958000D01*
X143686000Y-123898000D02*
X143686000Y-120958000D01*
X143926000Y-123898000D02*
X143926000Y-120958000D01*
%TO.C,D2*%
X85418000Y-94659000D02*
X90858000Y-94659000D01*
X90858000Y-94659000D02*
X90858000Y-84919000D01*
X90858000Y-84919000D02*
X85418000Y-84919000D01*
X85418000Y-84919000D02*
X85418000Y-94659000D01*
X88138000Y-95569000D02*
X88138000Y-94659000D01*
X88138000Y-84009000D02*
X88138000Y-84919000D01*
X85418000Y-93114000D02*
X90858000Y-93114000D01*
X85418000Y-92994000D02*
X90858000Y-92994000D01*
X85418000Y-93234000D02*
X90858000Y-93234000D01*
%TO.C,D1*%
X155106000Y-137691000D02*
X155106000Y-139931000D01*
X155106000Y-139931000D02*
X159346000Y-139931000D01*
X159346000Y-139931000D02*
X159346000Y-137691000D01*
X159346000Y-137691000D02*
X155106000Y-137691000D01*
X154456000Y-138811000D02*
X155106000Y-138811000D01*
X159996000Y-138811000D02*
X159346000Y-138811000D01*
X155826000Y-137691000D02*
X155826000Y-139931000D01*
X155946000Y-137691000D02*
X155946000Y-139931000D01*
X155706000Y-137691000D02*
X155706000Y-139931000D01*
%TO.C,C26*%
X140612000Y-116956000D02*
X140612000Y-113716000D01*
X142852000Y-116956000D02*
X142852000Y-113716000D01*
X140612000Y-116956000D02*
X140677000Y-116956000D01*
X142787000Y-116956000D02*
X142852000Y-116956000D01*
X140612000Y-113716000D02*
X140677000Y-113716000D01*
X142787000Y-113716000D02*
X142852000Y-113716000D01*
%TO.C,C21*%
X143626000Y-84559000D02*
X140386000Y-84559000D01*
X143626000Y-82319000D02*
X140386000Y-82319000D01*
X143626000Y-84559000D02*
X143626000Y-84494000D01*
X143626000Y-82384000D02*
X143626000Y-82319000D01*
X140386000Y-84559000D02*
X140386000Y-84494000D01*
X140386000Y-82384000D02*
X140386000Y-82319000D01*
%TO.C,C20*%
X150865000Y-84813000D02*
X147625000Y-84813000D01*
X150865000Y-82573000D02*
X147625000Y-82573000D01*
X150865000Y-84813000D02*
X150865000Y-84748000D01*
X150865000Y-82638000D02*
X150865000Y-82573000D01*
X147625000Y-84813000D02*
X147625000Y-84748000D01*
X147625000Y-82638000D02*
X147625000Y-82573000D01*
%TO.C,C17*%
X119750000Y-98910000D02*
X116510000Y-98910000D01*
X119750000Y-96670000D02*
X116510000Y-96670000D01*
X119750000Y-98910000D02*
X119750000Y-98845000D01*
X119750000Y-96735000D02*
X119750000Y-96670000D01*
X116510000Y-98910000D02*
X116510000Y-98845000D01*
X116510000Y-96735000D02*
X116510000Y-96670000D01*
%TO.C,C13*%
X117360000Y-104140000D02*
G75*
G03*
X117360000Y-104140000I-5120000J0D01*
G01*
X112240000Y-99060000D02*
X112240000Y-109220000D01*
X112280000Y-99060000D02*
X112280000Y-109220000D01*
X112320000Y-99060000D02*
X112320000Y-109220000D01*
X112360000Y-99061000D02*
X112360000Y-109219000D01*
X112400000Y-99062000D02*
X112400000Y-109218000D01*
X112440000Y-99063000D02*
X112440000Y-109217000D01*
X112480000Y-99065000D02*
X112480000Y-109215000D01*
X112520000Y-99067000D02*
X112520000Y-109213000D01*
X112560000Y-99070000D02*
X112560000Y-109210000D01*
X112600000Y-99072000D02*
X112600000Y-109208000D01*
X112640000Y-99075000D02*
X112640000Y-109205000D01*
X112680000Y-99078000D02*
X112680000Y-109202000D01*
X112720000Y-99082000D02*
X112720000Y-109198000D01*
X112760000Y-99086000D02*
X112760000Y-102899000D01*
X112760000Y-105381000D02*
X112760000Y-109194000D01*
X112800000Y-99090000D02*
X112800000Y-102899000D01*
X112800000Y-105381000D02*
X112800000Y-109190000D01*
X112840000Y-99095000D02*
X112840000Y-102899000D01*
X112840000Y-105381000D02*
X112840000Y-109185000D01*
X112880000Y-99100000D02*
X112880000Y-102899000D01*
X112880000Y-105381000D02*
X112880000Y-109180000D01*
X112920000Y-99105000D02*
X112920000Y-102899000D01*
X112920000Y-105381000D02*
X112920000Y-109175000D01*
X112961000Y-99110000D02*
X112961000Y-102899000D01*
X112961000Y-105381000D02*
X112961000Y-109170000D01*
X113001000Y-99116000D02*
X113001000Y-102899000D01*
X113001000Y-105381000D02*
X113001000Y-109164000D01*
X113041000Y-99122000D02*
X113041000Y-102899000D01*
X113041000Y-105381000D02*
X113041000Y-109158000D01*
X113081000Y-99129000D02*
X113081000Y-102899000D01*
X113081000Y-105381000D02*
X113081000Y-109151000D01*
X113121000Y-99136000D02*
X113121000Y-102899000D01*
X113121000Y-105381000D02*
X113121000Y-109144000D01*
X113161000Y-99143000D02*
X113161000Y-102899000D01*
X113161000Y-105381000D02*
X113161000Y-109137000D01*
X113201000Y-99150000D02*
X113201000Y-102899000D01*
X113201000Y-105381000D02*
X113201000Y-109130000D01*
X113241000Y-99158000D02*
X113241000Y-102899000D01*
X113241000Y-105381000D02*
X113241000Y-109122000D01*
X113281000Y-99166000D02*
X113281000Y-102899000D01*
X113281000Y-105381000D02*
X113281000Y-109114000D01*
X113321000Y-99175000D02*
X113321000Y-102899000D01*
X113321000Y-105381000D02*
X113321000Y-109105000D01*
X113361000Y-99184000D02*
X113361000Y-102899000D01*
X113361000Y-105381000D02*
X113361000Y-109096000D01*
X113401000Y-99193000D02*
X113401000Y-102899000D01*
X113401000Y-105381000D02*
X113401000Y-109087000D01*
X113441000Y-99202000D02*
X113441000Y-102899000D01*
X113441000Y-105381000D02*
X113441000Y-109078000D01*
X113481000Y-99212000D02*
X113481000Y-102899000D01*
X113481000Y-105381000D02*
X113481000Y-109068000D01*
X113521000Y-99222000D02*
X113521000Y-102899000D01*
X113521000Y-105381000D02*
X113521000Y-109058000D01*
X113561000Y-99233000D02*
X113561000Y-102899000D01*
X113561000Y-105381000D02*
X113561000Y-109047000D01*
X113601000Y-99243000D02*
X113601000Y-102899000D01*
X113601000Y-105381000D02*
X113601000Y-109037000D01*
X113641000Y-99255000D02*
X113641000Y-102899000D01*
X113641000Y-105381000D02*
X113641000Y-109025000D01*
X113681000Y-99266000D02*
X113681000Y-102899000D01*
X113681000Y-105381000D02*
X113681000Y-109014000D01*
X113721000Y-99278000D02*
X113721000Y-102899000D01*
X113721000Y-105381000D02*
X113721000Y-109002000D01*
X113761000Y-99290000D02*
X113761000Y-102899000D01*
X113761000Y-105381000D02*
X113761000Y-108990000D01*
X113801000Y-99303000D02*
X113801000Y-102899000D01*
X113801000Y-105381000D02*
X113801000Y-108977000D01*
X113841000Y-99316000D02*
X113841000Y-102899000D01*
X113841000Y-105381000D02*
X113841000Y-108964000D01*
X113881000Y-99329000D02*
X113881000Y-102899000D01*
X113881000Y-105381000D02*
X113881000Y-108951000D01*
X113921000Y-99343000D02*
X113921000Y-102899000D01*
X113921000Y-105381000D02*
X113921000Y-108937000D01*
X113961000Y-99357000D02*
X113961000Y-102899000D01*
X113961000Y-105381000D02*
X113961000Y-108923000D01*
X114001000Y-99372000D02*
X114001000Y-102899000D01*
X114001000Y-105381000D02*
X114001000Y-108908000D01*
X114041000Y-99386000D02*
X114041000Y-102899000D01*
X114041000Y-105381000D02*
X114041000Y-108894000D01*
X114081000Y-99402000D02*
X114081000Y-102899000D01*
X114081000Y-105381000D02*
X114081000Y-108878000D01*
X114121000Y-99417000D02*
X114121000Y-102899000D01*
X114121000Y-105381000D02*
X114121000Y-108863000D01*
X114161000Y-99433000D02*
X114161000Y-102899000D01*
X114161000Y-105381000D02*
X114161000Y-108847000D01*
X114201000Y-99450000D02*
X114201000Y-102899000D01*
X114201000Y-105381000D02*
X114201000Y-108830000D01*
X114241000Y-99466000D02*
X114241000Y-102899000D01*
X114241000Y-105381000D02*
X114241000Y-108814000D01*
X114281000Y-99483000D02*
X114281000Y-102899000D01*
X114281000Y-105381000D02*
X114281000Y-108797000D01*
X114321000Y-99501000D02*
X114321000Y-102899000D01*
X114321000Y-105381000D02*
X114321000Y-108779000D01*
X114361000Y-99519000D02*
X114361000Y-102899000D01*
X114361000Y-105381000D02*
X114361000Y-108761000D01*
X114401000Y-99537000D02*
X114401000Y-102899000D01*
X114401000Y-105381000D02*
X114401000Y-108743000D01*
X114441000Y-99556000D02*
X114441000Y-102899000D01*
X114441000Y-105381000D02*
X114441000Y-108724000D01*
X114481000Y-99576000D02*
X114481000Y-102899000D01*
X114481000Y-105381000D02*
X114481000Y-108704000D01*
X114521000Y-99595000D02*
X114521000Y-102899000D01*
X114521000Y-105381000D02*
X114521000Y-108685000D01*
X114561000Y-99615000D02*
X114561000Y-102899000D01*
X114561000Y-105381000D02*
X114561000Y-108665000D01*
X114601000Y-99636000D02*
X114601000Y-102899000D01*
X114601000Y-105381000D02*
X114601000Y-108644000D01*
X114641000Y-99657000D02*
X114641000Y-102899000D01*
X114641000Y-105381000D02*
X114641000Y-108623000D01*
X114681000Y-99678000D02*
X114681000Y-102899000D01*
X114681000Y-105381000D02*
X114681000Y-108602000D01*
X114721000Y-99700000D02*
X114721000Y-102899000D01*
X114721000Y-105381000D02*
X114721000Y-108580000D01*
X114761000Y-99723000D02*
X114761000Y-102899000D01*
X114761000Y-105381000D02*
X114761000Y-108557000D01*
X114801000Y-99745000D02*
X114801000Y-102899000D01*
X114801000Y-105381000D02*
X114801000Y-108535000D01*
X114841000Y-99769000D02*
X114841000Y-102899000D01*
X114841000Y-105381000D02*
X114841000Y-108511000D01*
X114881000Y-99793000D02*
X114881000Y-102899000D01*
X114881000Y-105381000D02*
X114881000Y-108487000D01*
X114921000Y-99817000D02*
X114921000Y-102899000D01*
X114921000Y-105381000D02*
X114921000Y-108463000D01*
X114961000Y-99842000D02*
X114961000Y-102899000D01*
X114961000Y-105381000D02*
X114961000Y-108438000D01*
X115001000Y-99867000D02*
X115001000Y-102899000D01*
X115001000Y-105381000D02*
X115001000Y-108413000D01*
X115041000Y-99893000D02*
X115041000Y-102899000D01*
X115041000Y-105381000D02*
X115041000Y-108387000D01*
X115081000Y-99919000D02*
X115081000Y-102899000D01*
X115081000Y-105381000D02*
X115081000Y-108361000D01*
X115121000Y-99946000D02*
X115121000Y-102899000D01*
X115121000Y-105381000D02*
X115121000Y-108334000D01*
X115161000Y-99974000D02*
X115161000Y-102899000D01*
X115161000Y-105381000D02*
X115161000Y-108306000D01*
X115201000Y-100002000D02*
X115201000Y-102899000D01*
X115201000Y-105381000D02*
X115201000Y-108278000D01*
X115241000Y-100030000D02*
X115241000Y-108250000D01*
X115281000Y-100060000D02*
X115281000Y-108220000D01*
X115321000Y-100090000D02*
X115321000Y-108190000D01*
X115361000Y-100120000D02*
X115361000Y-108160000D01*
X115401000Y-100151000D02*
X115401000Y-108129000D01*
X115441000Y-100183000D02*
X115441000Y-108097000D01*
X115481000Y-100215000D02*
X115481000Y-108065000D01*
X115521000Y-100248000D02*
X115521000Y-108032000D01*
X115561000Y-100282000D02*
X115561000Y-107998000D01*
X115601000Y-100316000D02*
X115601000Y-107964000D01*
X115641000Y-100351000D02*
X115641000Y-107929000D01*
X115681000Y-100387000D02*
X115681000Y-107893000D01*
X115721000Y-100424000D02*
X115721000Y-107856000D01*
X115761000Y-100461000D02*
X115761000Y-107819000D01*
X115801000Y-100500000D02*
X115801000Y-107780000D01*
X115841000Y-100539000D02*
X115841000Y-107741000D01*
X115881000Y-100579000D02*
X115881000Y-107701000D01*
X115921000Y-100620000D02*
X115921000Y-107660000D01*
X115961000Y-100662000D02*
X115961000Y-107618000D01*
X116001000Y-100704000D02*
X116001000Y-107576000D01*
X116041000Y-100748000D02*
X116041000Y-107532000D01*
X116081000Y-100793000D02*
X116081000Y-107487000D01*
X116121000Y-100839000D02*
X116121000Y-107441000D01*
X116161000Y-100886000D02*
X116161000Y-107394000D01*
X116201000Y-100934000D02*
X116201000Y-107346000D01*
X116241000Y-100984000D02*
X116241000Y-107296000D01*
X116281000Y-101034000D02*
X116281000Y-107246000D01*
X116321000Y-101086000D02*
X116321000Y-107194000D01*
X116361000Y-101140000D02*
X116361000Y-107140000D01*
X116401000Y-101195000D02*
X116401000Y-107085000D01*
X116441000Y-101251000D02*
X116441000Y-107029000D01*
X116481000Y-101310000D02*
X116481000Y-106970000D01*
X116521000Y-101370000D02*
X116521000Y-106910000D01*
X116561000Y-101431000D02*
X116561000Y-106849000D01*
X116601000Y-101495000D02*
X116601000Y-106785000D01*
X116641000Y-101561000D02*
X116641000Y-106719000D01*
X116681000Y-101630000D02*
X116681000Y-106650000D01*
X116721000Y-101701000D02*
X116721000Y-106579000D01*
X116761000Y-101775000D02*
X116761000Y-106505000D01*
X116801000Y-101851000D02*
X116801000Y-106429000D01*
X116841000Y-101931000D02*
X116841000Y-106349000D01*
X116881000Y-102015000D02*
X116881000Y-106265000D01*
X116921000Y-102103000D02*
X116921000Y-106177000D01*
X116961000Y-102196000D02*
X116961000Y-106084000D01*
X117001000Y-102294000D02*
X117001000Y-105986000D01*
X117041000Y-102398000D02*
X117041000Y-105882000D01*
X117081000Y-102510000D02*
X117081000Y-105770000D01*
X117121000Y-102630000D02*
X117121000Y-105650000D01*
X117161000Y-102762000D02*
X117161000Y-105518000D01*
X117201000Y-102910000D02*
X117201000Y-105370000D01*
X117241000Y-103078000D02*
X117241000Y-105202000D01*
X117281000Y-103278000D02*
X117281000Y-105002000D01*
X117321000Y-103541000D02*
X117321000Y-104739000D01*
X106760354Y-101265000D02*
X107760354Y-101265000D01*
X107260354Y-100765000D02*
X107260354Y-101765000D01*
%TO.C,C12*%
X84650000Y-68580000D02*
G75*
G03*
X84650000Y-68580000I-5120000J0D01*
G01*
X79530000Y-73660000D02*
X79530000Y-63500000D01*
X79490000Y-73660000D02*
X79490000Y-63500000D01*
X79450000Y-73660000D02*
X79450000Y-63500000D01*
X79410000Y-73659000D02*
X79410000Y-63501000D01*
X79370000Y-73658000D02*
X79370000Y-63502000D01*
X79330000Y-73657000D02*
X79330000Y-63503000D01*
X79290000Y-73655000D02*
X79290000Y-63505000D01*
X79250000Y-73653000D02*
X79250000Y-63507000D01*
X79210000Y-73650000D02*
X79210000Y-63510000D01*
X79170000Y-73648000D02*
X79170000Y-63512000D01*
X79130000Y-73645000D02*
X79130000Y-63515000D01*
X79090000Y-73642000D02*
X79090000Y-63518000D01*
X79050000Y-73638000D02*
X79050000Y-63522000D01*
X79010000Y-73634000D02*
X79010000Y-69821000D01*
X79010000Y-67339000D02*
X79010000Y-63526000D01*
X78970000Y-73630000D02*
X78970000Y-69821000D01*
X78970000Y-67339000D02*
X78970000Y-63530000D01*
X78930000Y-73625000D02*
X78930000Y-69821000D01*
X78930000Y-67339000D02*
X78930000Y-63535000D01*
X78890000Y-73620000D02*
X78890000Y-69821000D01*
X78890000Y-67339000D02*
X78890000Y-63540000D01*
X78850000Y-73615000D02*
X78850000Y-69821000D01*
X78850000Y-67339000D02*
X78850000Y-63545000D01*
X78809000Y-73610000D02*
X78809000Y-69821000D01*
X78809000Y-67339000D02*
X78809000Y-63550000D01*
X78769000Y-73604000D02*
X78769000Y-69821000D01*
X78769000Y-67339000D02*
X78769000Y-63556000D01*
X78729000Y-73598000D02*
X78729000Y-69821000D01*
X78729000Y-67339000D02*
X78729000Y-63562000D01*
X78689000Y-73591000D02*
X78689000Y-69821000D01*
X78689000Y-67339000D02*
X78689000Y-63569000D01*
X78649000Y-73584000D02*
X78649000Y-69821000D01*
X78649000Y-67339000D02*
X78649000Y-63576000D01*
X78609000Y-73577000D02*
X78609000Y-69821000D01*
X78609000Y-67339000D02*
X78609000Y-63583000D01*
X78569000Y-73570000D02*
X78569000Y-69821000D01*
X78569000Y-67339000D02*
X78569000Y-63590000D01*
X78529000Y-73562000D02*
X78529000Y-69821000D01*
X78529000Y-67339000D02*
X78529000Y-63598000D01*
X78489000Y-73554000D02*
X78489000Y-69821000D01*
X78489000Y-67339000D02*
X78489000Y-63606000D01*
X78449000Y-73545000D02*
X78449000Y-69821000D01*
X78449000Y-67339000D02*
X78449000Y-63615000D01*
X78409000Y-73536000D02*
X78409000Y-69821000D01*
X78409000Y-67339000D02*
X78409000Y-63624000D01*
X78369000Y-73527000D02*
X78369000Y-69821000D01*
X78369000Y-67339000D02*
X78369000Y-63633000D01*
X78329000Y-73518000D02*
X78329000Y-69821000D01*
X78329000Y-67339000D02*
X78329000Y-63642000D01*
X78289000Y-73508000D02*
X78289000Y-69821000D01*
X78289000Y-67339000D02*
X78289000Y-63652000D01*
X78249000Y-73498000D02*
X78249000Y-69821000D01*
X78249000Y-67339000D02*
X78249000Y-63662000D01*
X78209000Y-73487000D02*
X78209000Y-69821000D01*
X78209000Y-67339000D02*
X78209000Y-63673000D01*
X78169000Y-73477000D02*
X78169000Y-69821000D01*
X78169000Y-67339000D02*
X78169000Y-63683000D01*
X78129000Y-73465000D02*
X78129000Y-69821000D01*
X78129000Y-67339000D02*
X78129000Y-63695000D01*
X78089000Y-73454000D02*
X78089000Y-69821000D01*
X78089000Y-67339000D02*
X78089000Y-63706000D01*
X78049000Y-73442000D02*
X78049000Y-69821000D01*
X78049000Y-67339000D02*
X78049000Y-63718000D01*
X78009000Y-73430000D02*
X78009000Y-69821000D01*
X78009000Y-67339000D02*
X78009000Y-63730000D01*
X77969000Y-73417000D02*
X77969000Y-69821000D01*
X77969000Y-67339000D02*
X77969000Y-63743000D01*
X77929000Y-73404000D02*
X77929000Y-69821000D01*
X77929000Y-67339000D02*
X77929000Y-63756000D01*
X77889000Y-73391000D02*
X77889000Y-69821000D01*
X77889000Y-67339000D02*
X77889000Y-63769000D01*
X77849000Y-73377000D02*
X77849000Y-69821000D01*
X77849000Y-67339000D02*
X77849000Y-63783000D01*
X77809000Y-73363000D02*
X77809000Y-69821000D01*
X77809000Y-67339000D02*
X77809000Y-63797000D01*
X77769000Y-73348000D02*
X77769000Y-69821000D01*
X77769000Y-67339000D02*
X77769000Y-63812000D01*
X77729000Y-73334000D02*
X77729000Y-69821000D01*
X77729000Y-67339000D02*
X77729000Y-63826000D01*
X77689000Y-73318000D02*
X77689000Y-69821000D01*
X77689000Y-67339000D02*
X77689000Y-63842000D01*
X77649000Y-73303000D02*
X77649000Y-69821000D01*
X77649000Y-67339000D02*
X77649000Y-63857000D01*
X77609000Y-73287000D02*
X77609000Y-69821000D01*
X77609000Y-67339000D02*
X77609000Y-63873000D01*
X77569000Y-73270000D02*
X77569000Y-69821000D01*
X77569000Y-67339000D02*
X77569000Y-63890000D01*
X77529000Y-73254000D02*
X77529000Y-69821000D01*
X77529000Y-67339000D02*
X77529000Y-63906000D01*
X77489000Y-73237000D02*
X77489000Y-69821000D01*
X77489000Y-67339000D02*
X77489000Y-63923000D01*
X77449000Y-73219000D02*
X77449000Y-69821000D01*
X77449000Y-67339000D02*
X77449000Y-63941000D01*
X77409000Y-73201000D02*
X77409000Y-69821000D01*
X77409000Y-67339000D02*
X77409000Y-63959000D01*
X77369000Y-73183000D02*
X77369000Y-69821000D01*
X77369000Y-67339000D02*
X77369000Y-63977000D01*
X77329000Y-73164000D02*
X77329000Y-69821000D01*
X77329000Y-67339000D02*
X77329000Y-63996000D01*
X77289000Y-73144000D02*
X77289000Y-69821000D01*
X77289000Y-67339000D02*
X77289000Y-64016000D01*
X77249000Y-73125000D02*
X77249000Y-69821000D01*
X77249000Y-67339000D02*
X77249000Y-64035000D01*
X77209000Y-73105000D02*
X77209000Y-69821000D01*
X77209000Y-67339000D02*
X77209000Y-64055000D01*
X77169000Y-73084000D02*
X77169000Y-69821000D01*
X77169000Y-67339000D02*
X77169000Y-64076000D01*
X77129000Y-73063000D02*
X77129000Y-69821000D01*
X77129000Y-67339000D02*
X77129000Y-64097000D01*
X77089000Y-73042000D02*
X77089000Y-69821000D01*
X77089000Y-67339000D02*
X77089000Y-64118000D01*
X77049000Y-73020000D02*
X77049000Y-69821000D01*
X77049000Y-67339000D02*
X77049000Y-64140000D01*
X77009000Y-72997000D02*
X77009000Y-69821000D01*
X77009000Y-67339000D02*
X77009000Y-64163000D01*
X76969000Y-72975000D02*
X76969000Y-69821000D01*
X76969000Y-67339000D02*
X76969000Y-64185000D01*
X76929000Y-72951000D02*
X76929000Y-69821000D01*
X76929000Y-67339000D02*
X76929000Y-64209000D01*
X76889000Y-72927000D02*
X76889000Y-69821000D01*
X76889000Y-67339000D02*
X76889000Y-64233000D01*
X76849000Y-72903000D02*
X76849000Y-69821000D01*
X76849000Y-67339000D02*
X76849000Y-64257000D01*
X76809000Y-72878000D02*
X76809000Y-69821000D01*
X76809000Y-67339000D02*
X76809000Y-64282000D01*
X76769000Y-72853000D02*
X76769000Y-69821000D01*
X76769000Y-67339000D02*
X76769000Y-64307000D01*
X76729000Y-72827000D02*
X76729000Y-69821000D01*
X76729000Y-67339000D02*
X76729000Y-64333000D01*
X76689000Y-72801000D02*
X76689000Y-69821000D01*
X76689000Y-67339000D02*
X76689000Y-64359000D01*
X76649000Y-72774000D02*
X76649000Y-69821000D01*
X76649000Y-67339000D02*
X76649000Y-64386000D01*
X76609000Y-72746000D02*
X76609000Y-69821000D01*
X76609000Y-67339000D02*
X76609000Y-64414000D01*
X76569000Y-72718000D02*
X76569000Y-69821000D01*
X76569000Y-67339000D02*
X76569000Y-64442000D01*
X76529000Y-72690000D02*
X76529000Y-64470000D01*
X76489000Y-72660000D02*
X76489000Y-64500000D01*
X76449000Y-72630000D02*
X76449000Y-64530000D01*
X76409000Y-72600000D02*
X76409000Y-64560000D01*
X76369000Y-72569000D02*
X76369000Y-64591000D01*
X76329000Y-72537000D02*
X76329000Y-64623000D01*
X76289000Y-72505000D02*
X76289000Y-64655000D01*
X76249000Y-72472000D02*
X76249000Y-64688000D01*
X76209000Y-72438000D02*
X76209000Y-64722000D01*
X76169000Y-72404000D02*
X76169000Y-64756000D01*
X76129000Y-72369000D02*
X76129000Y-64791000D01*
X76089000Y-72333000D02*
X76089000Y-64827000D01*
X76049000Y-72296000D02*
X76049000Y-64864000D01*
X76009000Y-72259000D02*
X76009000Y-64901000D01*
X75969000Y-72220000D02*
X75969000Y-64940000D01*
X75929000Y-72181000D02*
X75929000Y-64979000D01*
X75889000Y-72141000D02*
X75889000Y-65019000D01*
X75849000Y-72100000D02*
X75849000Y-65060000D01*
X75809000Y-72058000D02*
X75809000Y-65102000D01*
X75769000Y-72016000D02*
X75769000Y-65144000D01*
X75729000Y-71972000D02*
X75729000Y-65188000D01*
X75689000Y-71927000D02*
X75689000Y-65233000D01*
X75649000Y-71881000D02*
X75649000Y-65279000D01*
X75609000Y-71834000D02*
X75609000Y-65326000D01*
X75569000Y-71786000D02*
X75569000Y-65374000D01*
X75529000Y-71736000D02*
X75529000Y-65424000D01*
X75489000Y-71686000D02*
X75489000Y-65474000D01*
X75449000Y-71634000D02*
X75449000Y-65526000D01*
X75409000Y-71580000D02*
X75409000Y-65580000D01*
X75369000Y-71525000D02*
X75369000Y-65635000D01*
X75329000Y-71469000D02*
X75329000Y-65691000D01*
X75289000Y-71410000D02*
X75289000Y-65750000D01*
X75249000Y-71350000D02*
X75249000Y-65810000D01*
X75209000Y-71289000D02*
X75209000Y-65871000D01*
X75169000Y-71225000D02*
X75169000Y-65935000D01*
X75129000Y-71159000D02*
X75129000Y-66001000D01*
X75089000Y-71090000D02*
X75089000Y-66070000D01*
X75049000Y-71019000D02*
X75049000Y-66141000D01*
X75009000Y-70945000D02*
X75009000Y-66215000D01*
X74969000Y-70869000D02*
X74969000Y-66291000D01*
X74929000Y-70789000D02*
X74929000Y-66371000D01*
X74889000Y-70705000D02*
X74889000Y-66455000D01*
X74849000Y-70617000D02*
X74849000Y-66543000D01*
X74809000Y-70524000D02*
X74809000Y-66636000D01*
X74769000Y-70426000D02*
X74769000Y-66734000D01*
X74729000Y-70322000D02*
X74729000Y-66838000D01*
X74689000Y-70210000D02*
X74689000Y-66950000D01*
X74649000Y-70090000D02*
X74649000Y-67070000D01*
X74609000Y-69958000D02*
X74609000Y-67202000D01*
X74569000Y-69810000D02*
X74569000Y-67350000D01*
X74529000Y-69642000D02*
X74529000Y-67518000D01*
X74489000Y-69442000D02*
X74489000Y-67718000D01*
X74449000Y-69179000D02*
X74449000Y-67981000D01*
X85009646Y-71455000D02*
X84009646Y-71455000D01*
X84509646Y-71955000D02*
X84509646Y-70955000D01*
%TO.C,C11*%
X110120000Y-111910000D02*
X113360000Y-111910000D01*
X110120000Y-114150000D02*
X113360000Y-114150000D01*
X110120000Y-111910000D02*
X110120000Y-111975000D01*
X110120000Y-114085000D02*
X110120000Y-114150000D01*
X113360000Y-111910000D02*
X113360000Y-111975000D01*
X113360000Y-114085000D02*
X113360000Y-114150000D01*
%TO.C,C10*%
X81610000Y-78590000D02*
X78370000Y-78590000D01*
X81610000Y-76350000D02*
X78370000Y-76350000D01*
X81610000Y-78590000D02*
X81610000Y-78525000D01*
X81610000Y-76415000D02*
X81610000Y-76350000D01*
X78370000Y-78590000D02*
X78370000Y-78525000D01*
X78370000Y-76415000D02*
X78370000Y-76350000D01*
%TO.C,C8*%
X147297000Y-113716000D02*
X147297000Y-116956000D01*
X145057000Y-113716000D02*
X145057000Y-116956000D01*
X147297000Y-113716000D02*
X147232000Y-113716000D01*
X145122000Y-113716000D02*
X145057000Y-113716000D01*
X147297000Y-116956000D02*
X147232000Y-116956000D01*
X145122000Y-116956000D02*
X145057000Y-116956000D01*
%TO.C,C7*%
X91000000Y-105410000D02*
G75*
G03*
X91000000Y-105410000I-5120000J0D01*
G01*
X85880000Y-110490000D02*
X85880000Y-100330000D01*
X85840000Y-110490000D02*
X85840000Y-100330000D01*
X85800000Y-110490000D02*
X85800000Y-100330000D01*
X85760000Y-110489000D02*
X85760000Y-100331000D01*
X85720000Y-110488000D02*
X85720000Y-100332000D01*
X85680000Y-110487000D02*
X85680000Y-100333000D01*
X85640000Y-110485000D02*
X85640000Y-100335000D01*
X85600000Y-110483000D02*
X85600000Y-100337000D01*
X85560000Y-110480000D02*
X85560000Y-100340000D01*
X85520000Y-110478000D02*
X85520000Y-100342000D01*
X85480000Y-110475000D02*
X85480000Y-100345000D01*
X85440000Y-110472000D02*
X85440000Y-100348000D01*
X85400000Y-110468000D02*
X85400000Y-100352000D01*
X85360000Y-110464000D02*
X85360000Y-106651000D01*
X85360000Y-104169000D02*
X85360000Y-100356000D01*
X85320000Y-110460000D02*
X85320000Y-106651000D01*
X85320000Y-104169000D02*
X85320000Y-100360000D01*
X85280000Y-110455000D02*
X85280000Y-106651000D01*
X85280000Y-104169000D02*
X85280000Y-100365000D01*
X85240000Y-110450000D02*
X85240000Y-106651000D01*
X85240000Y-104169000D02*
X85240000Y-100370000D01*
X85200000Y-110445000D02*
X85200000Y-106651000D01*
X85200000Y-104169000D02*
X85200000Y-100375000D01*
X85159000Y-110440000D02*
X85159000Y-106651000D01*
X85159000Y-104169000D02*
X85159000Y-100380000D01*
X85119000Y-110434000D02*
X85119000Y-106651000D01*
X85119000Y-104169000D02*
X85119000Y-100386000D01*
X85079000Y-110428000D02*
X85079000Y-106651000D01*
X85079000Y-104169000D02*
X85079000Y-100392000D01*
X85039000Y-110421000D02*
X85039000Y-106651000D01*
X85039000Y-104169000D02*
X85039000Y-100399000D01*
X84999000Y-110414000D02*
X84999000Y-106651000D01*
X84999000Y-104169000D02*
X84999000Y-100406000D01*
X84959000Y-110407000D02*
X84959000Y-106651000D01*
X84959000Y-104169000D02*
X84959000Y-100413000D01*
X84919000Y-110400000D02*
X84919000Y-106651000D01*
X84919000Y-104169000D02*
X84919000Y-100420000D01*
X84879000Y-110392000D02*
X84879000Y-106651000D01*
X84879000Y-104169000D02*
X84879000Y-100428000D01*
X84839000Y-110384000D02*
X84839000Y-106651000D01*
X84839000Y-104169000D02*
X84839000Y-100436000D01*
X84799000Y-110375000D02*
X84799000Y-106651000D01*
X84799000Y-104169000D02*
X84799000Y-100445000D01*
X84759000Y-110366000D02*
X84759000Y-106651000D01*
X84759000Y-104169000D02*
X84759000Y-100454000D01*
X84719000Y-110357000D02*
X84719000Y-106651000D01*
X84719000Y-104169000D02*
X84719000Y-100463000D01*
X84679000Y-110348000D02*
X84679000Y-106651000D01*
X84679000Y-104169000D02*
X84679000Y-100472000D01*
X84639000Y-110338000D02*
X84639000Y-106651000D01*
X84639000Y-104169000D02*
X84639000Y-100482000D01*
X84599000Y-110328000D02*
X84599000Y-106651000D01*
X84599000Y-104169000D02*
X84599000Y-100492000D01*
X84559000Y-110317000D02*
X84559000Y-106651000D01*
X84559000Y-104169000D02*
X84559000Y-100503000D01*
X84519000Y-110307000D02*
X84519000Y-106651000D01*
X84519000Y-104169000D02*
X84519000Y-100513000D01*
X84479000Y-110295000D02*
X84479000Y-106651000D01*
X84479000Y-104169000D02*
X84479000Y-100525000D01*
X84439000Y-110284000D02*
X84439000Y-106651000D01*
X84439000Y-104169000D02*
X84439000Y-100536000D01*
X84399000Y-110272000D02*
X84399000Y-106651000D01*
X84399000Y-104169000D02*
X84399000Y-100548000D01*
X84359000Y-110260000D02*
X84359000Y-106651000D01*
X84359000Y-104169000D02*
X84359000Y-100560000D01*
X84319000Y-110247000D02*
X84319000Y-106651000D01*
X84319000Y-104169000D02*
X84319000Y-100573000D01*
X84279000Y-110234000D02*
X84279000Y-106651000D01*
X84279000Y-104169000D02*
X84279000Y-100586000D01*
X84239000Y-110221000D02*
X84239000Y-106651000D01*
X84239000Y-104169000D02*
X84239000Y-100599000D01*
X84199000Y-110207000D02*
X84199000Y-106651000D01*
X84199000Y-104169000D02*
X84199000Y-100613000D01*
X84159000Y-110193000D02*
X84159000Y-106651000D01*
X84159000Y-104169000D02*
X84159000Y-100627000D01*
X84119000Y-110178000D02*
X84119000Y-106651000D01*
X84119000Y-104169000D02*
X84119000Y-100642000D01*
X84079000Y-110164000D02*
X84079000Y-106651000D01*
X84079000Y-104169000D02*
X84079000Y-100656000D01*
X84039000Y-110148000D02*
X84039000Y-106651000D01*
X84039000Y-104169000D02*
X84039000Y-100672000D01*
X83999000Y-110133000D02*
X83999000Y-106651000D01*
X83999000Y-104169000D02*
X83999000Y-100687000D01*
X83959000Y-110117000D02*
X83959000Y-106651000D01*
X83959000Y-104169000D02*
X83959000Y-100703000D01*
X83919000Y-110100000D02*
X83919000Y-106651000D01*
X83919000Y-104169000D02*
X83919000Y-100720000D01*
X83879000Y-110084000D02*
X83879000Y-106651000D01*
X83879000Y-104169000D02*
X83879000Y-100736000D01*
X83839000Y-110067000D02*
X83839000Y-106651000D01*
X83839000Y-104169000D02*
X83839000Y-100753000D01*
X83799000Y-110049000D02*
X83799000Y-106651000D01*
X83799000Y-104169000D02*
X83799000Y-100771000D01*
X83759000Y-110031000D02*
X83759000Y-106651000D01*
X83759000Y-104169000D02*
X83759000Y-100789000D01*
X83719000Y-110013000D02*
X83719000Y-106651000D01*
X83719000Y-104169000D02*
X83719000Y-100807000D01*
X83679000Y-109994000D02*
X83679000Y-106651000D01*
X83679000Y-104169000D02*
X83679000Y-100826000D01*
X83639000Y-109974000D02*
X83639000Y-106651000D01*
X83639000Y-104169000D02*
X83639000Y-100846000D01*
X83599000Y-109955000D02*
X83599000Y-106651000D01*
X83599000Y-104169000D02*
X83599000Y-100865000D01*
X83559000Y-109935000D02*
X83559000Y-106651000D01*
X83559000Y-104169000D02*
X83559000Y-100885000D01*
X83519000Y-109914000D02*
X83519000Y-106651000D01*
X83519000Y-104169000D02*
X83519000Y-100906000D01*
X83479000Y-109893000D02*
X83479000Y-106651000D01*
X83479000Y-104169000D02*
X83479000Y-100927000D01*
X83439000Y-109872000D02*
X83439000Y-106651000D01*
X83439000Y-104169000D02*
X83439000Y-100948000D01*
X83399000Y-109850000D02*
X83399000Y-106651000D01*
X83399000Y-104169000D02*
X83399000Y-100970000D01*
X83359000Y-109827000D02*
X83359000Y-106651000D01*
X83359000Y-104169000D02*
X83359000Y-100993000D01*
X83319000Y-109805000D02*
X83319000Y-106651000D01*
X83319000Y-104169000D02*
X83319000Y-101015000D01*
X83279000Y-109781000D02*
X83279000Y-106651000D01*
X83279000Y-104169000D02*
X83279000Y-101039000D01*
X83239000Y-109757000D02*
X83239000Y-106651000D01*
X83239000Y-104169000D02*
X83239000Y-101063000D01*
X83199000Y-109733000D02*
X83199000Y-106651000D01*
X83199000Y-104169000D02*
X83199000Y-101087000D01*
X83159000Y-109708000D02*
X83159000Y-106651000D01*
X83159000Y-104169000D02*
X83159000Y-101112000D01*
X83119000Y-109683000D02*
X83119000Y-106651000D01*
X83119000Y-104169000D02*
X83119000Y-101137000D01*
X83079000Y-109657000D02*
X83079000Y-106651000D01*
X83079000Y-104169000D02*
X83079000Y-101163000D01*
X83039000Y-109631000D02*
X83039000Y-106651000D01*
X83039000Y-104169000D02*
X83039000Y-101189000D01*
X82999000Y-109604000D02*
X82999000Y-106651000D01*
X82999000Y-104169000D02*
X82999000Y-101216000D01*
X82959000Y-109576000D02*
X82959000Y-106651000D01*
X82959000Y-104169000D02*
X82959000Y-101244000D01*
X82919000Y-109548000D02*
X82919000Y-106651000D01*
X82919000Y-104169000D02*
X82919000Y-101272000D01*
X82879000Y-109520000D02*
X82879000Y-101300000D01*
X82839000Y-109490000D02*
X82839000Y-101330000D01*
X82799000Y-109460000D02*
X82799000Y-101360000D01*
X82759000Y-109430000D02*
X82759000Y-101390000D01*
X82719000Y-109399000D02*
X82719000Y-101421000D01*
X82679000Y-109367000D02*
X82679000Y-101453000D01*
X82639000Y-109335000D02*
X82639000Y-101485000D01*
X82599000Y-109302000D02*
X82599000Y-101518000D01*
X82559000Y-109268000D02*
X82559000Y-101552000D01*
X82519000Y-109234000D02*
X82519000Y-101586000D01*
X82479000Y-109199000D02*
X82479000Y-101621000D01*
X82439000Y-109163000D02*
X82439000Y-101657000D01*
X82399000Y-109126000D02*
X82399000Y-101694000D01*
X82359000Y-109089000D02*
X82359000Y-101731000D01*
X82319000Y-109050000D02*
X82319000Y-101770000D01*
X82279000Y-109011000D02*
X82279000Y-101809000D01*
X82239000Y-108971000D02*
X82239000Y-101849000D01*
X82199000Y-108930000D02*
X82199000Y-101890000D01*
X82159000Y-108888000D02*
X82159000Y-101932000D01*
X82119000Y-108846000D02*
X82119000Y-101974000D01*
X82079000Y-108802000D02*
X82079000Y-102018000D01*
X82039000Y-108757000D02*
X82039000Y-102063000D01*
X81999000Y-108711000D02*
X81999000Y-102109000D01*
X81959000Y-108664000D02*
X81959000Y-102156000D01*
X81919000Y-108616000D02*
X81919000Y-102204000D01*
X81879000Y-108566000D02*
X81879000Y-102254000D01*
X81839000Y-108516000D02*
X81839000Y-102304000D01*
X81799000Y-108464000D02*
X81799000Y-102356000D01*
X81759000Y-108410000D02*
X81759000Y-102410000D01*
X81719000Y-108355000D02*
X81719000Y-102465000D01*
X81679000Y-108299000D02*
X81679000Y-102521000D01*
X81639000Y-108240000D02*
X81639000Y-102580000D01*
X81599000Y-108180000D02*
X81599000Y-102640000D01*
X81559000Y-108119000D02*
X81559000Y-102701000D01*
X81519000Y-108055000D02*
X81519000Y-102765000D01*
X81479000Y-107989000D02*
X81479000Y-102831000D01*
X81439000Y-107920000D02*
X81439000Y-102900000D01*
X81399000Y-107849000D02*
X81399000Y-102971000D01*
X81359000Y-107775000D02*
X81359000Y-103045000D01*
X81319000Y-107699000D02*
X81319000Y-103121000D01*
X81279000Y-107619000D02*
X81279000Y-103201000D01*
X81239000Y-107535000D02*
X81239000Y-103285000D01*
X81199000Y-107447000D02*
X81199000Y-103373000D01*
X81159000Y-107354000D02*
X81159000Y-103466000D01*
X81119000Y-107256000D02*
X81119000Y-103564000D01*
X81079000Y-107152000D02*
X81079000Y-103668000D01*
X81039000Y-107040000D02*
X81039000Y-103780000D01*
X80999000Y-106920000D02*
X80999000Y-103900000D01*
X80959000Y-106788000D02*
X80959000Y-104032000D01*
X80919000Y-106640000D02*
X80919000Y-104180000D01*
X80879000Y-106472000D02*
X80879000Y-104348000D01*
X80839000Y-106272000D02*
X80839000Y-104548000D01*
X80799000Y-106009000D02*
X80799000Y-104811000D01*
X91359646Y-108285000D02*
X90359646Y-108285000D01*
X90859646Y-108785000D02*
X90859646Y-107785000D01*
%TO.C,C6*%
X82920000Y-97640000D02*
X79680000Y-97640000D01*
X82920000Y-95400000D02*
X79680000Y-95400000D01*
X82920000Y-97640000D02*
X82920000Y-97575000D01*
X82920000Y-95465000D02*
X82920000Y-95400000D01*
X79680000Y-97640000D02*
X79680000Y-97575000D01*
X79680000Y-95465000D02*
X79680000Y-95400000D01*
%TO.C,C5*%
X137680000Y-98795000D02*
X137680000Y-95555000D01*
X139920000Y-98795000D02*
X139920000Y-95555000D01*
X137680000Y-98795000D02*
X137745000Y-98795000D01*
X139855000Y-98795000D02*
X139920000Y-98795000D01*
X137680000Y-95555000D02*
X137745000Y-95555000D01*
X139855000Y-95555000D02*
X139920000Y-95555000D01*
%TO.C,C4*%
X145785000Y-109705000D02*
X142545000Y-109705000D01*
X145785000Y-107465000D02*
X142545000Y-107465000D01*
X145785000Y-109705000D02*
X145785000Y-109640000D01*
X145785000Y-107530000D02*
X145785000Y-107465000D01*
X142545000Y-109705000D02*
X142545000Y-109640000D01*
X142545000Y-107530000D02*
X142545000Y-107465000D01*
%TO.C,C3*%
X93464748Y-117629000D02*
X93987252Y-117629000D01*
X93464748Y-119099000D02*
X93987252Y-119099000D01*
%TO.C,C1*%
X169137000Y-132072748D02*
X169137000Y-132595252D01*
X167667000Y-132072748D02*
X167667000Y-132595252D01*
%TO.C,J2*%
D10*
X130476666Y-146982380D02*
X130476666Y-147696666D01*
X130429047Y-147839523D01*
X130333809Y-147934761D01*
X130190952Y-147982380D01*
X130095714Y-147982380D01*
X130905238Y-147077619D02*
X130952857Y-147030000D01*
X131048095Y-146982380D01*
X131286190Y-146982380D01*
X131381428Y-147030000D01*
X131429047Y-147077619D01*
X131476666Y-147172857D01*
X131476666Y-147268095D01*
X131429047Y-147410952D01*
X130857619Y-147982380D01*
X131476666Y-147982380D01*
%TO.C,J3*%
X145716666Y-59352380D02*
X145716666Y-60066666D01*
X145669047Y-60209523D01*
X145573809Y-60304761D01*
X145430952Y-60352380D01*
X145335714Y-60352380D01*
X146097619Y-59352380D02*
X146716666Y-59352380D01*
X146383333Y-59733333D01*
X146526190Y-59733333D01*
X146621428Y-59780952D01*
X146669047Y-59828571D01*
X146716666Y-59923809D01*
X146716666Y-60161904D01*
X146669047Y-60257142D01*
X146621428Y-60304761D01*
X146526190Y-60352380D01*
X146240476Y-60352380D01*
X146145238Y-60304761D01*
X146097619Y-60257142D01*
%TO.C,J4*%
X172982380Y-87633333D02*
X173696666Y-87633333D01*
X173839523Y-87680952D01*
X173934761Y-87776190D01*
X173982380Y-87919047D01*
X173982380Y-88014285D01*
X173315714Y-86728571D02*
X173982380Y-86728571D01*
X172934761Y-86966666D02*
X173649047Y-87204761D01*
X173649047Y-86585714D01*
%TO.C,J5*%
X107616666Y-146982380D02*
X107616666Y-147696666D01*
X107569047Y-147839523D01*
X107473809Y-147934761D01*
X107330952Y-147982380D01*
X107235714Y-147982380D01*
X108569047Y-146982380D02*
X108092857Y-146982380D01*
X108045238Y-147458571D01*
X108092857Y-147410952D01*
X108188095Y-147363333D01*
X108426190Y-147363333D01*
X108521428Y-147410952D01*
X108569047Y-147458571D01*
X108616666Y-147553809D01*
X108616666Y-147791904D01*
X108569047Y-147887142D01*
X108521428Y-147934761D01*
X108426190Y-147982380D01*
X108188095Y-147982380D01*
X108092857Y-147934761D01*
X108045238Y-147887142D01*
%TO.C,J6*%
X77136666Y-97452380D02*
X77136666Y-98166666D01*
X77089047Y-98309523D01*
X76993809Y-98404761D01*
X76850952Y-98452380D01*
X76755714Y-98452380D01*
X78041428Y-97452380D02*
X77850952Y-97452380D01*
X77755714Y-97500000D01*
X77708095Y-97547619D01*
X77612857Y-97690476D01*
X77565238Y-97880952D01*
X77565238Y-98261904D01*
X77612857Y-98357142D01*
X77660476Y-98404761D01*
X77755714Y-98452380D01*
X77946190Y-98452380D01*
X78041428Y-98404761D01*
X78089047Y-98357142D01*
X78136666Y-98261904D01*
X78136666Y-98023809D01*
X78089047Y-97928571D01*
X78041428Y-97880952D01*
X77946190Y-97833333D01*
X77755714Y-97833333D01*
X77660476Y-97880952D01*
X77612857Y-97928571D01*
X77565238Y-98023809D01*
%TO.C,J7*%
X169846666Y-60622380D02*
X169846666Y-61336666D01*
X169799047Y-61479523D01*
X169703809Y-61574761D01*
X169560952Y-61622380D01*
X169465714Y-61622380D01*
X170227619Y-60622380D02*
X170894285Y-60622380D01*
X170465714Y-61622380D01*
%TO.C,J8*%
X172470380Y-110442333D02*
X173184666Y-110442333D01*
X173327523Y-110489952D01*
X173422761Y-110585190D01*
X173470380Y-110728047D01*
X173470380Y-110823285D01*
X172898952Y-109823285D02*
X172851333Y-109918523D01*
X172803714Y-109966142D01*
X172708476Y-110013761D01*
X172660857Y-110013761D01*
X172565619Y-109966142D01*
X172518000Y-109918523D01*
X172470380Y-109823285D01*
X172470380Y-109632809D01*
X172518000Y-109537571D01*
X172565619Y-109489952D01*
X172660857Y-109442333D01*
X172708476Y-109442333D01*
X172803714Y-109489952D01*
X172851333Y-109537571D01*
X172898952Y-109632809D01*
X172898952Y-109823285D01*
X172946571Y-109918523D01*
X172994190Y-109966142D01*
X173089428Y-110013761D01*
X173279904Y-110013761D01*
X173375142Y-109966142D01*
X173422761Y-109918523D01*
X173470380Y-109823285D01*
X173470380Y-109632809D01*
X173422761Y-109537571D01*
X173375142Y-109489952D01*
X173279904Y-109442333D01*
X173089428Y-109442333D01*
X172994190Y-109489952D01*
X172946571Y-109537571D01*
X172898952Y-109632809D01*
%TO.C,DS1*%
X85752380Y-59634285D02*
X84752380Y-59634285D01*
X84752380Y-59396190D01*
X84800000Y-59253333D01*
X84895238Y-59158095D01*
X84990476Y-59110476D01*
X85180952Y-59062857D01*
X85323809Y-59062857D01*
X85514285Y-59110476D01*
X85609523Y-59158095D01*
X85704761Y-59253333D01*
X85752380Y-59396190D01*
X85752380Y-59634285D01*
X85704761Y-58681904D02*
X85752380Y-58539047D01*
X85752380Y-58300952D01*
X85704761Y-58205714D01*
X85657142Y-58158095D01*
X85561904Y-58110476D01*
X85466666Y-58110476D01*
X85371428Y-58158095D01*
X85323809Y-58205714D01*
X85276190Y-58300952D01*
X85228571Y-58491428D01*
X85180952Y-58586666D01*
X85133333Y-58634285D01*
X85038095Y-58681904D01*
X84942857Y-58681904D01*
X84847619Y-58634285D01*
X84800000Y-58586666D01*
X84752380Y-58491428D01*
X84752380Y-58253333D01*
X84800000Y-58110476D01*
X85752380Y-57158095D02*
X85752380Y-57729523D01*
X85752380Y-57443809D02*
X84752380Y-57443809D01*
X84895238Y-57539047D01*
X84990476Y-57634285D01*
X85038095Y-57729523D01*
%TO.C,D8*%
X91822380Y-73128095D02*
X90822380Y-73128095D01*
X90822380Y-72890000D01*
X90870000Y-72747142D01*
X90965238Y-72651904D01*
X91060476Y-72604285D01*
X91250952Y-72556666D01*
X91393809Y-72556666D01*
X91584285Y-72604285D01*
X91679523Y-72651904D01*
X91774761Y-72747142D01*
X91822380Y-72890000D01*
X91822380Y-73128095D01*
X91250952Y-71985238D02*
X91203333Y-72080476D01*
X91155714Y-72128095D01*
X91060476Y-72175714D01*
X91012857Y-72175714D01*
X90917619Y-72128095D01*
X90870000Y-72080476D01*
X90822380Y-71985238D01*
X90822380Y-71794761D01*
X90870000Y-71699523D01*
X90917619Y-71651904D01*
X91012857Y-71604285D01*
X91060476Y-71604285D01*
X91155714Y-71651904D01*
X91203333Y-71699523D01*
X91250952Y-71794761D01*
X91250952Y-71985238D01*
X91298571Y-72080476D01*
X91346190Y-72128095D01*
X91441428Y-72175714D01*
X91631904Y-72175714D01*
X91727142Y-72128095D01*
X91774761Y-72080476D01*
X91822380Y-71985238D01*
X91822380Y-71794761D01*
X91774761Y-71699523D01*
X91727142Y-71651904D01*
X91631904Y-71604285D01*
X91441428Y-71604285D01*
X91346190Y-71651904D01*
X91298571Y-71699523D01*
X91250952Y-71794761D01*
X91452380Y-67571904D02*
X90452380Y-67571904D01*
X91452380Y-67000476D02*
X90880952Y-67429047D01*
X90452380Y-67000476D02*
X91023809Y-67571904D01*
%TO.C,D7*%
X118632380Y-107418095D02*
X117632380Y-107418095D01*
X117632380Y-107180000D01*
X117680000Y-107037142D01*
X117775238Y-106941904D01*
X117870476Y-106894285D01*
X118060952Y-106846666D01*
X118203809Y-106846666D01*
X118394285Y-106894285D01*
X118489523Y-106941904D01*
X118584761Y-107037142D01*
X118632380Y-107180000D01*
X118632380Y-107418095D01*
X117632380Y-106513333D02*
X117632380Y-105846666D01*
X118632380Y-106275238D01*
X119002380Y-112021904D02*
X118002380Y-112021904D01*
X119002380Y-111450476D02*
X118430952Y-111879047D01*
X118002380Y-111450476D02*
X118573809Y-112021904D01*
%TO.C,D6*%
X98321904Y-103392380D02*
X98321904Y-102392380D01*
X98560000Y-102392380D01*
X98702857Y-102440000D01*
X98798095Y-102535238D01*
X98845714Y-102630476D01*
X98893333Y-102820952D01*
X98893333Y-102963809D01*
X98845714Y-103154285D01*
X98798095Y-103249523D01*
X98702857Y-103344761D01*
X98560000Y-103392380D01*
X98321904Y-103392380D01*
X99750476Y-102392380D02*
X99560000Y-102392380D01*
X99464761Y-102440000D01*
X99417142Y-102487619D01*
X99321904Y-102630476D01*
X99274285Y-102820952D01*
X99274285Y-103201904D01*
X99321904Y-103297142D01*
X99369523Y-103344761D01*
X99464761Y-103392380D01*
X99655238Y-103392380D01*
X99750476Y-103344761D01*
X99798095Y-103297142D01*
X99845714Y-103201904D01*
X99845714Y-102963809D01*
X99798095Y-102868571D01*
X99750476Y-102820952D01*
X99655238Y-102773333D01*
X99464761Y-102773333D01*
X99369523Y-102820952D01*
X99321904Y-102868571D01*
X99274285Y-102963809D01*
X93718095Y-103762380D02*
X93718095Y-102762380D01*
X94289523Y-103762380D02*
X93860952Y-103190952D01*
X94289523Y-102762380D02*
X93718095Y-103333809D01*
%TO.C,R49*%
X167497142Y-69202380D02*
X167163809Y-68726190D01*
X166925714Y-69202380D02*
X166925714Y-68202380D01*
X167306666Y-68202380D01*
X167401904Y-68250000D01*
X167449523Y-68297619D01*
X167497142Y-68392857D01*
X167497142Y-68535714D01*
X167449523Y-68630952D01*
X167401904Y-68678571D01*
X167306666Y-68726190D01*
X166925714Y-68726190D01*
X168354285Y-68535714D02*
X168354285Y-69202380D01*
X168116190Y-68154761D02*
X167878095Y-68869047D01*
X168497142Y-68869047D01*
X168925714Y-69202380D02*
X169116190Y-69202380D01*
X169211428Y-69154761D01*
X169259047Y-69107142D01*
X169354285Y-68964285D01*
X169401904Y-68773809D01*
X169401904Y-68392857D01*
X169354285Y-68297619D01*
X169306666Y-68250000D01*
X169211428Y-68202380D01*
X169020952Y-68202380D01*
X168925714Y-68250000D01*
X168878095Y-68297619D01*
X168830476Y-68392857D01*
X168830476Y-68630952D01*
X168878095Y-68726190D01*
X168925714Y-68773809D01*
X169020952Y-68821428D01*
X169211428Y-68821428D01*
X169306666Y-68773809D01*
X169354285Y-68726190D01*
X169401904Y-68630952D01*
%TO.C,R48*%
X152682380Y-75572857D02*
X152206190Y-75906190D01*
X152682380Y-76144285D02*
X151682380Y-76144285D01*
X151682380Y-75763333D01*
X151730000Y-75668095D01*
X151777619Y-75620476D01*
X151872857Y-75572857D01*
X152015714Y-75572857D01*
X152110952Y-75620476D01*
X152158571Y-75668095D01*
X152206190Y-75763333D01*
X152206190Y-76144285D01*
X152015714Y-74715714D02*
X152682380Y-74715714D01*
X151634761Y-74953809D02*
X152349047Y-75191904D01*
X152349047Y-74572857D01*
X152110952Y-74049047D02*
X152063333Y-74144285D01*
X152015714Y-74191904D01*
X151920476Y-74239523D01*
X151872857Y-74239523D01*
X151777619Y-74191904D01*
X151730000Y-74144285D01*
X151682380Y-74049047D01*
X151682380Y-73858571D01*
X151730000Y-73763333D01*
X151777619Y-73715714D01*
X151872857Y-73668095D01*
X151920476Y-73668095D01*
X152015714Y-73715714D01*
X152063333Y-73763333D01*
X152110952Y-73858571D01*
X152110952Y-74049047D01*
X152158571Y-74144285D01*
X152206190Y-74191904D01*
X152301428Y-74239523D01*
X152491904Y-74239523D01*
X152587142Y-74191904D01*
X152634761Y-74144285D01*
X152682380Y-74049047D01*
X152682380Y-73858571D01*
X152634761Y-73763333D01*
X152587142Y-73715714D01*
X152491904Y-73668095D01*
X152301428Y-73668095D01*
X152206190Y-73715714D01*
X152158571Y-73763333D01*
X152110952Y-73858571D01*
%TO.C,R47*%
X133469142Y-86642380D02*
X133135809Y-86166190D01*
X132897714Y-86642380D02*
X132897714Y-85642380D01*
X133278666Y-85642380D01*
X133373904Y-85690000D01*
X133421523Y-85737619D01*
X133469142Y-85832857D01*
X133469142Y-85975714D01*
X133421523Y-86070952D01*
X133373904Y-86118571D01*
X133278666Y-86166190D01*
X132897714Y-86166190D01*
X134326285Y-85975714D02*
X134326285Y-86642380D01*
X134088190Y-85594761D02*
X133850095Y-86309047D01*
X134469142Y-86309047D01*
X134754857Y-85642380D02*
X135421523Y-85642380D01*
X134992952Y-86642380D01*
%TO.C,R46*%
X147820142Y-90960380D02*
X147486809Y-90484190D01*
X147248714Y-90960380D02*
X147248714Y-89960380D01*
X147629666Y-89960380D01*
X147724904Y-90008000D01*
X147772523Y-90055619D01*
X147820142Y-90150857D01*
X147820142Y-90293714D01*
X147772523Y-90388952D01*
X147724904Y-90436571D01*
X147629666Y-90484190D01*
X147248714Y-90484190D01*
X148677285Y-90293714D02*
X148677285Y-90960380D01*
X148439190Y-89912761D02*
X148201095Y-90627047D01*
X148820142Y-90627047D01*
X149629666Y-89960380D02*
X149439190Y-89960380D01*
X149343952Y-90008000D01*
X149296333Y-90055619D01*
X149201095Y-90198476D01*
X149153476Y-90388952D01*
X149153476Y-90769904D01*
X149201095Y-90865142D01*
X149248714Y-90912761D01*
X149343952Y-90960380D01*
X149534428Y-90960380D01*
X149629666Y-90912761D01*
X149677285Y-90865142D01*
X149724904Y-90769904D01*
X149724904Y-90531809D01*
X149677285Y-90436571D01*
X149629666Y-90388952D01*
X149534428Y-90341333D01*
X149343952Y-90341333D01*
X149248714Y-90388952D01*
X149201095Y-90436571D01*
X149153476Y-90531809D01*
%TO.C,R45*%
X128008142Y-85331380D02*
X127674809Y-84855190D01*
X127436714Y-85331380D02*
X127436714Y-84331380D01*
X127817666Y-84331380D01*
X127912904Y-84379000D01*
X127960523Y-84426619D01*
X128008142Y-84521857D01*
X128008142Y-84664714D01*
X127960523Y-84759952D01*
X127912904Y-84807571D01*
X127817666Y-84855190D01*
X127436714Y-84855190D01*
X128865285Y-84664714D02*
X128865285Y-85331380D01*
X128627190Y-84283761D02*
X128389095Y-84998047D01*
X129008142Y-84998047D01*
X129865285Y-84331380D02*
X129389095Y-84331380D01*
X129341476Y-84807571D01*
X129389095Y-84759952D01*
X129484333Y-84712333D01*
X129722428Y-84712333D01*
X129817666Y-84759952D01*
X129865285Y-84807571D01*
X129912904Y-84902809D01*
X129912904Y-85140904D01*
X129865285Y-85236142D01*
X129817666Y-85283761D01*
X129722428Y-85331380D01*
X129484333Y-85331380D01*
X129389095Y-85283761D01*
X129341476Y-85236142D01*
%TO.C,R44*%
X140073142Y-87490380D02*
X139739809Y-87014190D01*
X139501714Y-87490380D02*
X139501714Y-86490380D01*
X139882666Y-86490380D01*
X139977904Y-86538000D01*
X140025523Y-86585619D01*
X140073142Y-86680857D01*
X140073142Y-86823714D01*
X140025523Y-86918952D01*
X139977904Y-86966571D01*
X139882666Y-87014190D01*
X139501714Y-87014190D01*
X140930285Y-86823714D02*
X140930285Y-87490380D01*
X140692190Y-86442761D02*
X140454095Y-87157047D01*
X141073142Y-87157047D01*
X141882666Y-86823714D02*
X141882666Y-87490380D01*
X141644571Y-86442761D02*
X141406476Y-87157047D01*
X142025523Y-87157047D01*
%TO.C,R43*%
X147180380Y-111767857D02*
X146704190Y-112101190D01*
X147180380Y-112339285D02*
X146180380Y-112339285D01*
X146180380Y-111958333D01*
X146228000Y-111863095D01*
X146275619Y-111815476D01*
X146370857Y-111767857D01*
X146513714Y-111767857D01*
X146608952Y-111815476D01*
X146656571Y-111863095D01*
X146704190Y-111958333D01*
X146704190Y-112339285D01*
X146513714Y-110910714D02*
X147180380Y-110910714D01*
X146132761Y-111148809D02*
X146847047Y-111386904D01*
X146847047Y-110767857D01*
X146180380Y-110482142D02*
X146180380Y-109863095D01*
X146561333Y-110196428D01*
X146561333Y-110053571D01*
X146608952Y-109958333D01*
X146656571Y-109910714D01*
X146751809Y-109863095D01*
X146989904Y-109863095D01*
X147085142Y-109910714D01*
X147132761Y-109958333D01*
X147180380Y-110053571D01*
X147180380Y-110339285D01*
X147132761Y-110434523D01*
X147085142Y-110482142D01*
%TO.C,R42*%
X151122142Y-108322380D02*
X150788809Y-107846190D01*
X150550714Y-108322380D02*
X150550714Y-107322380D01*
X150931666Y-107322380D01*
X151026904Y-107370000D01*
X151074523Y-107417619D01*
X151122142Y-107512857D01*
X151122142Y-107655714D01*
X151074523Y-107750952D01*
X151026904Y-107798571D01*
X150931666Y-107846190D01*
X150550714Y-107846190D01*
X151979285Y-107655714D02*
X151979285Y-108322380D01*
X151741190Y-107274761D02*
X151503095Y-107989047D01*
X152122142Y-107989047D01*
X152455476Y-107417619D02*
X152503095Y-107370000D01*
X152598333Y-107322380D01*
X152836428Y-107322380D01*
X152931666Y-107370000D01*
X152979285Y-107417619D01*
X153026904Y-107512857D01*
X153026904Y-107608095D01*
X152979285Y-107750952D01*
X152407857Y-108322380D01*
X153026904Y-108322380D01*
%TO.C,R41*%
X142867142Y-91427380D02*
X142533809Y-90951190D01*
X142295714Y-91427380D02*
X142295714Y-90427380D01*
X142676666Y-90427380D01*
X142771904Y-90475000D01*
X142819523Y-90522619D01*
X142867142Y-90617857D01*
X142867142Y-90760714D01*
X142819523Y-90855952D01*
X142771904Y-90903571D01*
X142676666Y-90951190D01*
X142295714Y-90951190D01*
X143724285Y-90760714D02*
X143724285Y-91427380D01*
X143486190Y-90379761D02*
X143248095Y-91094047D01*
X143867142Y-91094047D01*
X144771904Y-91427380D02*
X144200476Y-91427380D01*
X144486190Y-91427380D02*
X144486190Y-90427380D01*
X144390952Y-90570238D01*
X144295714Y-90665476D01*
X144200476Y-90713095D01*
%TO.C,R40*%
X156492380Y-111767857D02*
X156016190Y-112101190D01*
X156492380Y-112339285D02*
X155492380Y-112339285D01*
X155492380Y-111958333D01*
X155540000Y-111863095D01*
X155587619Y-111815476D01*
X155682857Y-111767857D01*
X155825714Y-111767857D01*
X155920952Y-111815476D01*
X155968571Y-111863095D01*
X156016190Y-111958333D01*
X156016190Y-112339285D01*
X155825714Y-110910714D02*
X156492380Y-110910714D01*
X155444761Y-111148809D02*
X156159047Y-111386904D01*
X156159047Y-110767857D01*
X155492380Y-110196428D02*
X155492380Y-110101190D01*
X155540000Y-110005952D01*
X155587619Y-109958333D01*
X155682857Y-109910714D01*
X155873333Y-109863095D01*
X156111428Y-109863095D01*
X156301904Y-109910714D01*
X156397142Y-109958333D01*
X156444761Y-110005952D01*
X156492380Y-110101190D01*
X156492380Y-110196428D01*
X156444761Y-110291666D01*
X156397142Y-110339285D01*
X156301904Y-110386904D01*
X156111428Y-110434523D01*
X155873333Y-110434523D01*
X155682857Y-110386904D01*
X155587619Y-110339285D01*
X155540000Y-110291666D01*
X155492380Y-110196428D01*
%TO.C,R39*%
X143502142Y-103492380D02*
X143168809Y-103016190D01*
X142930714Y-103492380D02*
X142930714Y-102492380D01*
X143311666Y-102492380D01*
X143406904Y-102540000D01*
X143454523Y-102587619D01*
X143502142Y-102682857D01*
X143502142Y-102825714D01*
X143454523Y-102920952D01*
X143406904Y-102968571D01*
X143311666Y-103016190D01*
X142930714Y-103016190D01*
X143835476Y-102492380D02*
X144454523Y-102492380D01*
X144121190Y-102873333D01*
X144264047Y-102873333D01*
X144359285Y-102920952D01*
X144406904Y-102968571D01*
X144454523Y-103063809D01*
X144454523Y-103301904D01*
X144406904Y-103397142D01*
X144359285Y-103444761D01*
X144264047Y-103492380D01*
X143978333Y-103492380D01*
X143883095Y-103444761D01*
X143835476Y-103397142D01*
X144930714Y-103492380D02*
X145121190Y-103492380D01*
X145216428Y-103444761D01*
X145264047Y-103397142D01*
X145359285Y-103254285D01*
X145406904Y-103063809D01*
X145406904Y-102682857D01*
X145359285Y-102587619D01*
X145311666Y-102540000D01*
X145216428Y-102492380D01*
X145025952Y-102492380D01*
X144930714Y-102540000D01*
X144883095Y-102587619D01*
X144835476Y-102682857D01*
X144835476Y-102920952D01*
X144883095Y-103016190D01*
X144930714Y-103063809D01*
X145025952Y-103111428D01*
X145216428Y-103111428D01*
X145311666Y-103063809D01*
X145359285Y-103016190D01*
X145406904Y-102920952D01*
%TO.C,R38*%
X143502142Y-96507380D02*
X143168809Y-96031190D01*
X142930714Y-96507380D02*
X142930714Y-95507380D01*
X143311666Y-95507380D01*
X143406904Y-95555000D01*
X143454523Y-95602619D01*
X143502142Y-95697857D01*
X143502142Y-95840714D01*
X143454523Y-95935952D01*
X143406904Y-95983571D01*
X143311666Y-96031190D01*
X142930714Y-96031190D01*
X143835476Y-95507380D02*
X144454523Y-95507380D01*
X144121190Y-95888333D01*
X144264047Y-95888333D01*
X144359285Y-95935952D01*
X144406904Y-95983571D01*
X144454523Y-96078809D01*
X144454523Y-96316904D01*
X144406904Y-96412142D01*
X144359285Y-96459761D01*
X144264047Y-96507380D01*
X143978333Y-96507380D01*
X143883095Y-96459761D01*
X143835476Y-96412142D01*
X145025952Y-95935952D02*
X144930714Y-95888333D01*
X144883095Y-95840714D01*
X144835476Y-95745476D01*
X144835476Y-95697857D01*
X144883095Y-95602619D01*
X144930714Y-95555000D01*
X145025952Y-95507380D01*
X145216428Y-95507380D01*
X145311666Y-95555000D01*
X145359285Y-95602619D01*
X145406904Y-95697857D01*
X145406904Y-95745476D01*
X145359285Y-95840714D01*
X145311666Y-95888333D01*
X145216428Y-95935952D01*
X145025952Y-95935952D01*
X144930714Y-95983571D01*
X144883095Y-96031190D01*
X144835476Y-96126428D01*
X144835476Y-96316904D01*
X144883095Y-96412142D01*
X144930714Y-96459761D01*
X145025952Y-96507380D01*
X145216428Y-96507380D01*
X145311666Y-96459761D01*
X145359285Y-96412142D01*
X145406904Y-96316904D01*
X145406904Y-96126428D01*
X145359285Y-96031190D01*
X145311666Y-95983571D01*
X145216428Y-95935952D01*
%TO.C,R37*%
X143502822Y-100159640D02*
X143169489Y-99683450D01*
X142931394Y-100159640D02*
X142931394Y-99159640D01*
X143312346Y-99159640D01*
X143407584Y-99207260D01*
X143455203Y-99254879D01*
X143502822Y-99350117D01*
X143502822Y-99492974D01*
X143455203Y-99588212D01*
X143407584Y-99635831D01*
X143312346Y-99683450D01*
X142931394Y-99683450D01*
X143836156Y-99159640D02*
X144455203Y-99159640D01*
X144121870Y-99540593D01*
X144264727Y-99540593D01*
X144359965Y-99588212D01*
X144407584Y-99635831D01*
X144455203Y-99731069D01*
X144455203Y-99969164D01*
X144407584Y-100064402D01*
X144359965Y-100112021D01*
X144264727Y-100159640D01*
X143979013Y-100159640D01*
X143883775Y-100112021D01*
X143836156Y-100064402D01*
X144788537Y-99159640D02*
X145455203Y-99159640D01*
X145026632Y-100159640D01*
%TO.C,R36*%
X151097142Y-90282380D02*
X150763809Y-89806190D01*
X150525714Y-90282380D02*
X150525714Y-89282380D01*
X150906666Y-89282380D01*
X151001904Y-89330000D01*
X151049523Y-89377619D01*
X151097142Y-89472857D01*
X151097142Y-89615714D01*
X151049523Y-89710952D01*
X151001904Y-89758571D01*
X150906666Y-89806190D01*
X150525714Y-89806190D01*
X151430476Y-89282380D02*
X152049523Y-89282380D01*
X151716190Y-89663333D01*
X151859047Y-89663333D01*
X151954285Y-89710952D01*
X152001904Y-89758571D01*
X152049523Y-89853809D01*
X152049523Y-90091904D01*
X152001904Y-90187142D01*
X151954285Y-90234761D01*
X151859047Y-90282380D01*
X151573333Y-90282380D01*
X151478095Y-90234761D01*
X151430476Y-90187142D01*
X152906666Y-89282380D02*
X152716190Y-89282380D01*
X152620952Y-89330000D01*
X152573333Y-89377619D01*
X152478095Y-89520476D01*
X152430476Y-89710952D01*
X152430476Y-90091904D01*
X152478095Y-90187142D01*
X152525714Y-90234761D01*
X152620952Y-90282380D01*
X152811428Y-90282380D01*
X152906666Y-90234761D01*
X152954285Y-90187142D01*
X153001904Y-90091904D01*
X153001904Y-89853809D01*
X152954285Y-89758571D01*
X152906666Y-89710952D01*
X152811428Y-89663333D01*
X152620952Y-89663333D01*
X152525714Y-89710952D01*
X152478095Y-89758571D01*
X152430476Y-89853809D01*
%TO.C,R35*%
X158742142Y-87404380D02*
X158408809Y-86928190D01*
X158170714Y-87404380D02*
X158170714Y-86404380D01*
X158551666Y-86404380D01*
X158646904Y-86452000D01*
X158694523Y-86499619D01*
X158742142Y-86594857D01*
X158742142Y-86737714D01*
X158694523Y-86832952D01*
X158646904Y-86880571D01*
X158551666Y-86928190D01*
X158170714Y-86928190D01*
X159075476Y-86404380D02*
X159694523Y-86404380D01*
X159361190Y-86785333D01*
X159504047Y-86785333D01*
X159599285Y-86832952D01*
X159646904Y-86880571D01*
X159694523Y-86975809D01*
X159694523Y-87213904D01*
X159646904Y-87309142D01*
X159599285Y-87356761D01*
X159504047Y-87404380D01*
X159218333Y-87404380D01*
X159123095Y-87356761D01*
X159075476Y-87309142D01*
X160599285Y-86404380D02*
X160123095Y-86404380D01*
X160075476Y-86880571D01*
X160123095Y-86832952D01*
X160218333Y-86785333D01*
X160456428Y-86785333D01*
X160551666Y-86832952D01*
X160599285Y-86880571D01*
X160646904Y-86975809D01*
X160646904Y-87213904D01*
X160599285Y-87309142D01*
X160551666Y-87356761D01*
X160456428Y-87404380D01*
X160218333Y-87404380D01*
X160123095Y-87356761D01*
X160075476Y-87309142D01*
%TO.C,R34*%
X158742142Y-112042380D02*
X158408809Y-111566190D01*
X158170714Y-112042380D02*
X158170714Y-111042380D01*
X158551666Y-111042380D01*
X158646904Y-111090000D01*
X158694523Y-111137619D01*
X158742142Y-111232857D01*
X158742142Y-111375714D01*
X158694523Y-111470952D01*
X158646904Y-111518571D01*
X158551666Y-111566190D01*
X158170714Y-111566190D01*
X159075476Y-111042380D02*
X159694523Y-111042380D01*
X159361190Y-111423333D01*
X159504047Y-111423333D01*
X159599285Y-111470952D01*
X159646904Y-111518571D01*
X159694523Y-111613809D01*
X159694523Y-111851904D01*
X159646904Y-111947142D01*
X159599285Y-111994761D01*
X159504047Y-112042380D01*
X159218333Y-112042380D01*
X159123095Y-111994761D01*
X159075476Y-111947142D01*
X160551666Y-111375714D02*
X160551666Y-112042380D01*
X160313571Y-110994761D02*
X160075476Y-111709047D01*
X160694523Y-111709047D01*
%TO.C,R33*%
X158742142Y-85712380D02*
X158408809Y-85236190D01*
X158170714Y-85712380D02*
X158170714Y-84712380D01*
X158551666Y-84712380D01*
X158646904Y-84760000D01*
X158694523Y-84807619D01*
X158742142Y-84902857D01*
X158742142Y-85045714D01*
X158694523Y-85140952D01*
X158646904Y-85188571D01*
X158551666Y-85236190D01*
X158170714Y-85236190D01*
X159075476Y-84712380D02*
X159694523Y-84712380D01*
X159361190Y-85093333D01*
X159504047Y-85093333D01*
X159599285Y-85140952D01*
X159646904Y-85188571D01*
X159694523Y-85283809D01*
X159694523Y-85521904D01*
X159646904Y-85617142D01*
X159599285Y-85664761D01*
X159504047Y-85712380D01*
X159218333Y-85712380D01*
X159123095Y-85664761D01*
X159075476Y-85617142D01*
X160027857Y-84712380D02*
X160646904Y-84712380D01*
X160313571Y-85093333D01*
X160456428Y-85093333D01*
X160551666Y-85140952D01*
X160599285Y-85188571D01*
X160646904Y-85283809D01*
X160646904Y-85521904D01*
X160599285Y-85617142D01*
X160551666Y-85664761D01*
X160456428Y-85712380D01*
X160170714Y-85712380D01*
X160075476Y-85664761D01*
X160027857Y-85617142D01*
%TO.C,R32*%
X165417142Y-108522380D02*
X165083809Y-108046190D01*
X164845714Y-108522380D02*
X164845714Y-107522380D01*
X165226666Y-107522380D01*
X165321904Y-107570000D01*
X165369523Y-107617619D01*
X165417142Y-107712857D01*
X165417142Y-107855714D01*
X165369523Y-107950952D01*
X165321904Y-107998571D01*
X165226666Y-108046190D01*
X164845714Y-108046190D01*
X165750476Y-107522380D02*
X166369523Y-107522380D01*
X166036190Y-107903333D01*
X166179047Y-107903333D01*
X166274285Y-107950952D01*
X166321904Y-107998571D01*
X166369523Y-108093809D01*
X166369523Y-108331904D01*
X166321904Y-108427142D01*
X166274285Y-108474761D01*
X166179047Y-108522380D01*
X165893333Y-108522380D01*
X165798095Y-108474761D01*
X165750476Y-108427142D01*
X166750476Y-107617619D02*
X166798095Y-107570000D01*
X166893333Y-107522380D01*
X167131428Y-107522380D01*
X167226666Y-107570000D01*
X167274285Y-107617619D01*
X167321904Y-107712857D01*
X167321904Y-107808095D01*
X167274285Y-107950952D01*
X166702857Y-108522380D01*
X167321904Y-108522380D01*
%TO.C,R31*%
X165092142Y-94262380D02*
X164758809Y-93786190D01*
X164520714Y-94262380D02*
X164520714Y-93262380D01*
X164901666Y-93262380D01*
X164996904Y-93310000D01*
X165044523Y-93357619D01*
X165092142Y-93452857D01*
X165092142Y-93595714D01*
X165044523Y-93690952D01*
X164996904Y-93738571D01*
X164901666Y-93786190D01*
X164520714Y-93786190D01*
X165425476Y-93262380D02*
X166044523Y-93262380D01*
X165711190Y-93643333D01*
X165854047Y-93643333D01*
X165949285Y-93690952D01*
X165996904Y-93738571D01*
X166044523Y-93833809D01*
X166044523Y-94071904D01*
X165996904Y-94167142D01*
X165949285Y-94214761D01*
X165854047Y-94262380D01*
X165568333Y-94262380D01*
X165473095Y-94214761D01*
X165425476Y-94167142D01*
X166996904Y-94262380D02*
X166425476Y-94262380D01*
X166711190Y-94262380D02*
X166711190Y-93262380D01*
X166615952Y-93405238D01*
X166520714Y-93500476D01*
X166425476Y-93548095D01*
%TO.C,R30*%
X173637380Y-99702857D02*
X173161190Y-100036190D01*
X173637380Y-100274285D02*
X172637380Y-100274285D01*
X172637380Y-99893333D01*
X172685000Y-99798095D01*
X172732619Y-99750476D01*
X172827857Y-99702857D01*
X172970714Y-99702857D01*
X173065952Y-99750476D01*
X173113571Y-99798095D01*
X173161190Y-99893333D01*
X173161190Y-100274285D01*
X172637380Y-99369523D02*
X172637380Y-98750476D01*
X173018333Y-99083809D01*
X173018333Y-98940952D01*
X173065952Y-98845714D01*
X173113571Y-98798095D01*
X173208809Y-98750476D01*
X173446904Y-98750476D01*
X173542142Y-98798095D01*
X173589761Y-98845714D01*
X173637380Y-98940952D01*
X173637380Y-99226666D01*
X173589761Y-99321904D01*
X173542142Y-99369523D01*
X172637380Y-98131428D02*
X172637380Y-98036190D01*
X172685000Y-97940952D01*
X172732619Y-97893333D01*
X172827857Y-97845714D01*
X173018333Y-97798095D01*
X173256428Y-97798095D01*
X173446904Y-97845714D01*
X173542142Y-97893333D01*
X173589761Y-97940952D01*
X173637380Y-98036190D01*
X173637380Y-98131428D01*
X173589761Y-98226666D01*
X173542142Y-98274285D01*
X173446904Y-98321904D01*
X173256428Y-98369523D01*
X173018333Y-98369523D01*
X172827857Y-98321904D01*
X172732619Y-98274285D01*
X172685000Y-98226666D01*
X172637380Y-98131428D01*
%TO.C,R29*%
X84737380Y-60205857D02*
X84261190Y-60539190D01*
X84737380Y-60777285D02*
X83737380Y-60777285D01*
X83737380Y-60396333D01*
X83785000Y-60301095D01*
X83832619Y-60253476D01*
X83927857Y-60205857D01*
X84070714Y-60205857D01*
X84165952Y-60253476D01*
X84213571Y-60301095D01*
X84261190Y-60396333D01*
X84261190Y-60777285D01*
X83832619Y-59824904D02*
X83785000Y-59777285D01*
X83737380Y-59682047D01*
X83737380Y-59443952D01*
X83785000Y-59348714D01*
X83832619Y-59301095D01*
X83927857Y-59253476D01*
X84023095Y-59253476D01*
X84165952Y-59301095D01*
X84737380Y-59872523D01*
X84737380Y-59253476D01*
X84737380Y-58777285D02*
X84737380Y-58586809D01*
X84689761Y-58491571D01*
X84642142Y-58443952D01*
X84499285Y-58348714D01*
X84308809Y-58301095D01*
X83927857Y-58301095D01*
X83832619Y-58348714D01*
X83785000Y-58396333D01*
X83737380Y-58491571D01*
X83737380Y-58682047D01*
X83785000Y-58777285D01*
X83832619Y-58824904D01*
X83927857Y-58872523D01*
X84165952Y-58872523D01*
X84261190Y-58824904D01*
X84308809Y-58777285D01*
X84356428Y-58682047D01*
X84356428Y-58491571D01*
X84308809Y-58396333D01*
X84261190Y-58348714D01*
X84165952Y-58301095D01*
%TO.C,R28*%
X111112380Y-80652857D02*
X110636190Y-80986190D01*
X111112380Y-81224285D02*
X110112380Y-81224285D01*
X110112380Y-80843333D01*
X110160000Y-80748095D01*
X110207619Y-80700476D01*
X110302857Y-80652857D01*
X110445714Y-80652857D01*
X110540952Y-80700476D01*
X110588571Y-80748095D01*
X110636190Y-80843333D01*
X110636190Y-81224285D01*
X110207619Y-80271904D02*
X110160000Y-80224285D01*
X110112380Y-80129047D01*
X110112380Y-79890952D01*
X110160000Y-79795714D01*
X110207619Y-79748095D01*
X110302857Y-79700476D01*
X110398095Y-79700476D01*
X110540952Y-79748095D01*
X111112380Y-80319523D01*
X111112380Y-79700476D01*
X110540952Y-79129047D02*
X110493333Y-79224285D01*
X110445714Y-79271904D01*
X110350476Y-79319523D01*
X110302857Y-79319523D01*
X110207619Y-79271904D01*
X110160000Y-79224285D01*
X110112380Y-79129047D01*
X110112380Y-78938571D01*
X110160000Y-78843333D01*
X110207619Y-78795714D01*
X110302857Y-78748095D01*
X110350476Y-78748095D01*
X110445714Y-78795714D01*
X110493333Y-78843333D01*
X110540952Y-78938571D01*
X110540952Y-79129047D01*
X110588571Y-79224285D01*
X110636190Y-79271904D01*
X110731428Y-79319523D01*
X110921904Y-79319523D01*
X111017142Y-79271904D01*
X111064761Y-79224285D01*
X111112380Y-79129047D01*
X111112380Y-78938571D01*
X111064761Y-78843333D01*
X111017142Y-78795714D01*
X110921904Y-78748095D01*
X110731428Y-78748095D01*
X110636190Y-78795714D01*
X110588571Y-78843333D01*
X110540952Y-78938571D01*
%TO.C,R27*%
X132707142Y-56502380D02*
X132373809Y-56026190D01*
X132135714Y-56502380D02*
X132135714Y-55502380D01*
X132516666Y-55502380D01*
X132611904Y-55550000D01*
X132659523Y-55597619D01*
X132707142Y-55692857D01*
X132707142Y-55835714D01*
X132659523Y-55930952D01*
X132611904Y-55978571D01*
X132516666Y-56026190D01*
X132135714Y-56026190D01*
X133088095Y-55597619D02*
X133135714Y-55550000D01*
X133230952Y-55502380D01*
X133469047Y-55502380D01*
X133564285Y-55550000D01*
X133611904Y-55597619D01*
X133659523Y-55692857D01*
X133659523Y-55788095D01*
X133611904Y-55930952D01*
X133040476Y-56502380D01*
X133659523Y-56502380D01*
X133992857Y-55502380D02*
X134659523Y-55502380D01*
X134230952Y-56502380D01*
%TO.C,R26*%
X131092380Y-81922857D02*
X130616190Y-82256190D01*
X131092380Y-82494285D02*
X130092380Y-82494285D01*
X130092380Y-82113333D01*
X130140000Y-82018095D01*
X130187619Y-81970476D01*
X130282857Y-81922857D01*
X130425714Y-81922857D01*
X130520952Y-81970476D01*
X130568571Y-82018095D01*
X130616190Y-82113333D01*
X130616190Y-82494285D01*
X130187619Y-81541904D02*
X130140000Y-81494285D01*
X130092380Y-81399047D01*
X130092380Y-81160952D01*
X130140000Y-81065714D01*
X130187619Y-81018095D01*
X130282857Y-80970476D01*
X130378095Y-80970476D01*
X130520952Y-81018095D01*
X131092380Y-81589523D01*
X131092380Y-80970476D01*
X130092380Y-80113333D02*
X130092380Y-80303809D01*
X130140000Y-80399047D01*
X130187619Y-80446666D01*
X130330476Y-80541904D01*
X130520952Y-80589523D01*
X130901904Y-80589523D01*
X130997142Y-80541904D01*
X131044761Y-80494285D01*
X131092380Y-80399047D01*
X131092380Y-80208571D01*
X131044761Y-80113333D01*
X130997142Y-80065714D01*
X130901904Y-80018095D01*
X130663809Y-80018095D01*
X130568571Y-80065714D01*
X130520952Y-80113333D01*
X130473333Y-80208571D01*
X130473333Y-80399047D01*
X130520952Y-80494285D01*
X130568571Y-80541904D01*
X130663809Y-80589523D01*
%TO.C,R25*%
X124742380Y-81922857D02*
X124266190Y-82256190D01*
X124742380Y-82494285D02*
X123742380Y-82494285D01*
X123742380Y-82113333D01*
X123790000Y-82018095D01*
X123837619Y-81970476D01*
X123932857Y-81922857D01*
X124075714Y-81922857D01*
X124170952Y-81970476D01*
X124218571Y-82018095D01*
X124266190Y-82113333D01*
X124266190Y-82494285D01*
X123837619Y-81541904D02*
X123790000Y-81494285D01*
X123742380Y-81399047D01*
X123742380Y-81160952D01*
X123790000Y-81065714D01*
X123837619Y-81018095D01*
X123932857Y-80970476D01*
X124028095Y-80970476D01*
X124170952Y-81018095D01*
X124742380Y-81589523D01*
X124742380Y-80970476D01*
X123742380Y-80065714D02*
X123742380Y-80541904D01*
X124218571Y-80589523D01*
X124170952Y-80541904D01*
X124123333Y-80446666D01*
X124123333Y-80208571D01*
X124170952Y-80113333D01*
X124218571Y-80065714D01*
X124313809Y-80018095D01*
X124551904Y-80018095D01*
X124647142Y-80065714D01*
X124694761Y-80113333D01*
X124742380Y-80208571D01*
X124742380Y-80446666D01*
X124694761Y-80541904D01*
X124647142Y-80589523D01*
%TO.C,R24*%
X96253380Y-115196857D02*
X95777190Y-115530190D01*
X96253380Y-115768285D02*
X95253380Y-115768285D01*
X95253380Y-115387333D01*
X95301000Y-115292095D01*
X95348619Y-115244476D01*
X95443857Y-115196857D01*
X95586714Y-115196857D01*
X95681952Y-115244476D01*
X95729571Y-115292095D01*
X95777190Y-115387333D01*
X95777190Y-115768285D01*
X95348619Y-114815904D02*
X95301000Y-114768285D01*
X95253380Y-114673047D01*
X95253380Y-114434952D01*
X95301000Y-114339714D01*
X95348619Y-114292095D01*
X95443857Y-114244476D01*
X95539095Y-114244476D01*
X95681952Y-114292095D01*
X96253380Y-114863523D01*
X96253380Y-114244476D01*
X95586714Y-113387333D02*
X96253380Y-113387333D01*
X95205761Y-113625428D02*
X95920047Y-113863523D01*
X95920047Y-113244476D01*
%TO.C,R23*%
X104803380Y-127261857D02*
X104327190Y-127595190D01*
X104803380Y-127833285D02*
X103803380Y-127833285D01*
X103803380Y-127452333D01*
X103851000Y-127357095D01*
X103898619Y-127309476D01*
X103993857Y-127261857D01*
X104136714Y-127261857D01*
X104231952Y-127309476D01*
X104279571Y-127357095D01*
X104327190Y-127452333D01*
X104327190Y-127833285D01*
X103898619Y-126880904D02*
X103851000Y-126833285D01*
X103803380Y-126738047D01*
X103803380Y-126499952D01*
X103851000Y-126404714D01*
X103898619Y-126357095D01*
X103993857Y-126309476D01*
X104089095Y-126309476D01*
X104231952Y-126357095D01*
X104803380Y-126928523D01*
X104803380Y-126309476D01*
X103803380Y-125976142D02*
X103803380Y-125357095D01*
X104184333Y-125690428D01*
X104184333Y-125547571D01*
X104231952Y-125452333D01*
X104279571Y-125404714D01*
X104374809Y-125357095D01*
X104612904Y-125357095D01*
X104708142Y-125404714D01*
X104755761Y-125452333D01*
X104803380Y-125547571D01*
X104803380Y-125833285D01*
X104755761Y-125928523D01*
X104708142Y-125976142D01*
%TO.C,R22*%
X86388380Y-122816857D02*
X85912190Y-123150190D01*
X86388380Y-123388285D02*
X85388380Y-123388285D01*
X85388380Y-123007333D01*
X85436000Y-122912095D01*
X85483619Y-122864476D01*
X85578857Y-122816857D01*
X85721714Y-122816857D01*
X85816952Y-122864476D01*
X85864571Y-122912095D01*
X85912190Y-123007333D01*
X85912190Y-123388285D01*
X85483619Y-122435904D02*
X85436000Y-122388285D01*
X85388380Y-122293047D01*
X85388380Y-122054952D01*
X85436000Y-121959714D01*
X85483619Y-121912095D01*
X85578857Y-121864476D01*
X85674095Y-121864476D01*
X85816952Y-121912095D01*
X86388380Y-122483523D01*
X86388380Y-121864476D01*
X85483619Y-121483523D02*
X85436000Y-121435904D01*
X85388380Y-121340666D01*
X85388380Y-121102571D01*
X85436000Y-121007333D01*
X85483619Y-120959714D01*
X85578857Y-120912095D01*
X85674095Y-120912095D01*
X85816952Y-120959714D01*
X86388380Y-121531142D01*
X86388380Y-120912095D01*
%TO.C,R21*%
X106082380Y-121292857D02*
X105606190Y-121626190D01*
X106082380Y-121864285D02*
X105082380Y-121864285D01*
X105082380Y-121483333D01*
X105130000Y-121388095D01*
X105177619Y-121340476D01*
X105272857Y-121292857D01*
X105415714Y-121292857D01*
X105510952Y-121340476D01*
X105558571Y-121388095D01*
X105606190Y-121483333D01*
X105606190Y-121864285D01*
X105177619Y-120911904D02*
X105130000Y-120864285D01*
X105082380Y-120769047D01*
X105082380Y-120530952D01*
X105130000Y-120435714D01*
X105177619Y-120388095D01*
X105272857Y-120340476D01*
X105368095Y-120340476D01*
X105510952Y-120388095D01*
X106082380Y-120959523D01*
X106082380Y-120340476D01*
X106082380Y-119388095D02*
X106082380Y-119959523D01*
X106082380Y-119673809D02*
X105082380Y-119673809D01*
X105225238Y-119769047D01*
X105320476Y-119864285D01*
X105368095Y-119959523D01*
%TO.C,R20*%
X98622380Y-138056857D02*
X98146190Y-138390190D01*
X98622380Y-138628285D02*
X97622380Y-138628285D01*
X97622380Y-138247333D01*
X97670000Y-138152095D01*
X97717619Y-138104476D01*
X97812857Y-138056857D01*
X97955714Y-138056857D01*
X98050952Y-138104476D01*
X98098571Y-138152095D01*
X98146190Y-138247333D01*
X98146190Y-138628285D01*
X97717619Y-137675904D02*
X97670000Y-137628285D01*
X97622380Y-137533047D01*
X97622380Y-137294952D01*
X97670000Y-137199714D01*
X97717619Y-137152095D01*
X97812857Y-137104476D01*
X97908095Y-137104476D01*
X98050952Y-137152095D01*
X98622380Y-137723523D01*
X98622380Y-137104476D01*
X97622380Y-136485428D02*
X97622380Y-136390190D01*
X97670000Y-136294952D01*
X97717619Y-136247333D01*
X97812857Y-136199714D01*
X98003333Y-136152095D01*
X98241428Y-136152095D01*
X98431904Y-136199714D01*
X98527142Y-136247333D01*
X98574761Y-136294952D01*
X98622380Y-136390190D01*
X98622380Y-136485428D01*
X98574761Y-136580666D01*
X98527142Y-136628285D01*
X98431904Y-136675904D01*
X98241428Y-136723523D01*
X98003333Y-136723523D01*
X97812857Y-136675904D01*
X97717619Y-136628285D01*
X97670000Y-136580666D01*
X97622380Y-136485428D01*
%TO.C,R19*%
X112641142Y-127917380D02*
X112307809Y-127441190D01*
X112069714Y-127917380D02*
X112069714Y-126917380D01*
X112450666Y-126917380D01*
X112545904Y-126965000D01*
X112593523Y-127012619D01*
X112641142Y-127107857D01*
X112641142Y-127250714D01*
X112593523Y-127345952D01*
X112545904Y-127393571D01*
X112450666Y-127441190D01*
X112069714Y-127441190D01*
X113593523Y-127917380D02*
X113022095Y-127917380D01*
X113307809Y-127917380D02*
X113307809Y-126917380D01*
X113212571Y-127060238D01*
X113117333Y-127155476D01*
X113022095Y-127203095D01*
X114069714Y-127917380D02*
X114260190Y-127917380D01*
X114355428Y-127869761D01*
X114403047Y-127822142D01*
X114498285Y-127679285D01*
X114545904Y-127488809D01*
X114545904Y-127107857D01*
X114498285Y-127012619D01*
X114450666Y-126965000D01*
X114355428Y-126917380D01*
X114164952Y-126917380D01*
X114069714Y-126965000D01*
X114022095Y-127012619D01*
X113974476Y-127107857D01*
X113974476Y-127345952D01*
X114022095Y-127441190D01*
X114069714Y-127488809D01*
X114164952Y-127536428D01*
X114355428Y-127536428D01*
X114450666Y-127488809D01*
X114498285Y-127441190D01*
X114545904Y-127345952D01*
%TO.C,R18*%
X82923142Y-131981380D02*
X82589809Y-131505190D01*
X82351714Y-131981380D02*
X82351714Y-130981380D01*
X82732666Y-130981380D01*
X82827904Y-131029000D01*
X82875523Y-131076619D01*
X82923142Y-131171857D01*
X82923142Y-131314714D01*
X82875523Y-131409952D01*
X82827904Y-131457571D01*
X82732666Y-131505190D01*
X82351714Y-131505190D01*
X83875523Y-131981380D02*
X83304095Y-131981380D01*
X83589809Y-131981380D02*
X83589809Y-130981380D01*
X83494571Y-131124238D01*
X83399333Y-131219476D01*
X83304095Y-131267095D01*
X84446952Y-131409952D02*
X84351714Y-131362333D01*
X84304095Y-131314714D01*
X84256476Y-131219476D01*
X84256476Y-131171857D01*
X84304095Y-131076619D01*
X84351714Y-131029000D01*
X84446952Y-130981380D01*
X84637428Y-130981380D01*
X84732666Y-131029000D01*
X84780285Y-131076619D01*
X84827904Y-131171857D01*
X84827904Y-131219476D01*
X84780285Y-131314714D01*
X84732666Y-131362333D01*
X84637428Y-131409952D01*
X84446952Y-131409952D01*
X84351714Y-131457571D01*
X84304095Y-131505190D01*
X84256476Y-131600428D01*
X84256476Y-131790904D01*
X84304095Y-131886142D01*
X84351714Y-131933761D01*
X84446952Y-131981380D01*
X84637428Y-131981380D01*
X84732666Y-131933761D01*
X84780285Y-131886142D01*
X84827904Y-131790904D01*
X84827904Y-131600428D01*
X84780285Y-131505190D01*
X84732666Y-131457571D01*
X84637428Y-131409952D01*
%TO.C,R17*%
X135247142Y-65052380D02*
X134913809Y-64576190D01*
X134675714Y-65052380D02*
X134675714Y-64052380D01*
X135056666Y-64052380D01*
X135151904Y-64100000D01*
X135199523Y-64147619D01*
X135247142Y-64242857D01*
X135247142Y-64385714D01*
X135199523Y-64480952D01*
X135151904Y-64528571D01*
X135056666Y-64576190D01*
X134675714Y-64576190D01*
X136199523Y-65052380D02*
X135628095Y-65052380D01*
X135913809Y-65052380D02*
X135913809Y-64052380D01*
X135818571Y-64195238D01*
X135723333Y-64290476D01*
X135628095Y-64338095D01*
X136532857Y-64052380D02*
X137199523Y-64052380D01*
X136770952Y-65052380D01*
%TO.C,R16*%
X116451142Y-136512380D02*
X116117809Y-136036190D01*
X115879714Y-136512380D02*
X115879714Y-135512380D01*
X116260666Y-135512380D01*
X116355904Y-135560000D01*
X116403523Y-135607619D01*
X116451142Y-135702857D01*
X116451142Y-135845714D01*
X116403523Y-135940952D01*
X116355904Y-135988571D01*
X116260666Y-136036190D01*
X115879714Y-136036190D01*
X117403523Y-136512380D02*
X116832095Y-136512380D01*
X117117809Y-136512380D02*
X117117809Y-135512380D01*
X117022571Y-135655238D01*
X116927333Y-135750476D01*
X116832095Y-135798095D01*
X118260666Y-135512380D02*
X118070190Y-135512380D01*
X117974952Y-135560000D01*
X117927333Y-135607619D01*
X117832095Y-135750476D01*
X117784476Y-135940952D01*
X117784476Y-136321904D01*
X117832095Y-136417142D01*
X117879714Y-136464761D01*
X117974952Y-136512380D01*
X118165428Y-136512380D01*
X118260666Y-136464761D01*
X118308285Y-136417142D01*
X118355904Y-136321904D01*
X118355904Y-136083809D01*
X118308285Y-135988571D01*
X118260666Y-135940952D01*
X118165428Y-135893333D01*
X117974952Y-135893333D01*
X117879714Y-135940952D01*
X117832095Y-135988571D01*
X117784476Y-136083809D01*
%TO.C,R15*%
X135247142Y-75212380D02*
X134913809Y-74736190D01*
X134675714Y-75212380D02*
X134675714Y-74212380D01*
X135056666Y-74212380D01*
X135151904Y-74260000D01*
X135199523Y-74307619D01*
X135247142Y-74402857D01*
X135247142Y-74545714D01*
X135199523Y-74640952D01*
X135151904Y-74688571D01*
X135056666Y-74736190D01*
X134675714Y-74736190D01*
X136199523Y-75212380D02*
X135628095Y-75212380D01*
X135913809Y-75212380D02*
X135913809Y-74212380D01*
X135818571Y-74355238D01*
X135723333Y-74450476D01*
X135628095Y-74498095D01*
X137104285Y-74212380D02*
X136628095Y-74212380D01*
X136580476Y-74688571D01*
X136628095Y-74640952D01*
X136723333Y-74593333D01*
X136961428Y-74593333D01*
X137056666Y-74640952D01*
X137104285Y-74688571D01*
X137151904Y-74783809D01*
X137151904Y-75021904D01*
X137104285Y-75117142D01*
X137056666Y-75164761D01*
X136961428Y-75212380D01*
X136723333Y-75212380D01*
X136628095Y-75164761D01*
X136580476Y-75117142D01*
%TO.C,R14*%
X127627142Y-109842380D02*
X127293809Y-109366190D01*
X127055714Y-109842380D02*
X127055714Y-108842380D01*
X127436666Y-108842380D01*
X127531904Y-108890000D01*
X127579523Y-108937619D01*
X127627142Y-109032857D01*
X127627142Y-109175714D01*
X127579523Y-109270952D01*
X127531904Y-109318571D01*
X127436666Y-109366190D01*
X127055714Y-109366190D01*
X128579523Y-109842380D02*
X128008095Y-109842380D01*
X128293809Y-109842380D02*
X128293809Y-108842380D01*
X128198571Y-108985238D01*
X128103333Y-109080476D01*
X128008095Y-109128095D01*
X129436666Y-109175714D02*
X129436666Y-109842380D01*
X129198571Y-108794761D02*
X128960476Y-109509047D01*
X129579523Y-109509047D01*
%TO.C,R13*%
X89908142Y-137401380D02*
X89574809Y-136925190D01*
X89336714Y-137401380D02*
X89336714Y-136401380D01*
X89717666Y-136401380D01*
X89812904Y-136449000D01*
X89860523Y-136496619D01*
X89908142Y-136591857D01*
X89908142Y-136734714D01*
X89860523Y-136829952D01*
X89812904Y-136877571D01*
X89717666Y-136925190D01*
X89336714Y-136925190D01*
X90860523Y-137401380D02*
X90289095Y-137401380D01*
X90574809Y-137401380D02*
X90574809Y-136401380D01*
X90479571Y-136544238D01*
X90384333Y-136639476D01*
X90289095Y-136687095D01*
X91193857Y-136401380D02*
X91812904Y-136401380D01*
X91479571Y-136782333D01*
X91622428Y-136782333D01*
X91717666Y-136829952D01*
X91765285Y-136877571D01*
X91812904Y-136972809D01*
X91812904Y-137210904D01*
X91765285Y-137306142D01*
X91717666Y-137353761D01*
X91622428Y-137401380D01*
X91336714Y-137401380D01*
X91241476Y-137353761D01*
X91193857Y-137306142D01*
%TO.C,R12*%
X135247142Y-70132380D02*
X134913809Y-69656190D01*
X134675714Y-70132380D02*
X134675714Y-69132380D01*
X135056666Y-69132380D01*
X135151904Y-69180000D01*
X135199523Y-69227619D01*
X135247142Y-69322857D01*
X135247142Y-69465714D01*
X135199523Y-69560952D01*
X135151904Y-69608571D01*
X135056666Y-69656190D01*
X134675714Y-69656190D01*
X136199523Y-70132380D02*
X135628095Y-70132380D01*
X135913809Y-70132380D02*
X135913809Y-69132380D01*
X135818571Y-69275238D01*
X135723333Y-69370476D01*
X135628095Y-69418095D01*
X136580476Y-69227619D02*
X136628095Y-69180000D01*
X136723333Y-69132380D01*
X136961428Y-69132380D01*
X137056666Y-69180000D01*
X137104285Y-69227619D01*
X137151904Y-69322857D01*
X137151904Y-69418095D01*
X137104285Y-69560952D01*
X136532857Y-70132380D01*
X137151904Y-70132380D01*
%TO.C,R11*%
X123050380Y-140850857D02*
X122574190Y-141184190D01*
X123050380Y-141422285D02*
X122050380Y-141422285D01*
X122050380Y-141041333D01*
X122098000Y-140946095D01*
X122145619Y-140898476D01*
X122240857Y-140850857D01*
X122383714Y-140850857D01*
X122478952Y-140898476D01*
X122526571Y-140946095D01*
X122574190Y-141041333D01*
X122574190Y-141422285D01*
X123050380Y-139898476D02*
X123050380Y-140469904D01*
X123050380Y-140184190D02*
X122050380Y-140184190D01*
X122193238Y-140279428D01*
X122288476Y-140374666D01*
X122336095Y-140469904D01*
X123050380Y-138946095D02*
X123050380Y-139517523D01*
X123050380Y-139231809D02*
X122050380Y-139231809D01*
X122193238Y-139327047D01*
X122288476Y-139422285D01*
X122336095Y-139517523D01*
%TO.C,R10*%
X141719380Y-140977857D02*
X141243190Y-141311190D01*
X141719380Y-141549285D02*
X140719380Y-141549285D01*
X140719380Y-141168333D01*
X140767000Y-141073095D01*
X140814619Y-141025476D01*
X140909857Y-140977857D01*
X141052714Y-140977857D01*
X141147952Y-141025476D01*
X141195571Y-141073095D01*
X141243190Y-141168333D01*
X141243190Y-141549285D01*
X141719380Y-140025476D02*
X141719380Y-140596904D01*
X141719380Y-140311190D02*
X140719380Y-140311190D01*
X140862238Y-140406428D01*
X140957476Y-140501666D01*
X141005095Y-140596904D01*
X140719380Y-139406428D02*
X140719380Y-139311190D01*
X140767000Y-139215952D01*
X140814619Y-139168333D01*
X140909857Y-139120714D01*
X141100333Y-139073095D01*
X141338428Y-139073095D01*
X141528904Y-139120714D01*
X141624142Y-139168333D01*
X141671761Y-139215952D01*
X141719380Y-139311190D01*
X141719380Y-139406428D01*
X141671761Y-139501666D01*
X141624142Y-139549285D01*
X141528904Y-139596904D01*
X141338428Y-139644523D01*
X141100333Y-139644523D01*
X140909857Y-139596904D01*
X140814619Y-139549285D01*
X140767000Y-139501666D01*
X140719380Y-139406428D01*
%TO.C,R9*%
X160173333Y-133082380D02*
X159840000Y-132606190D01*
X159601904Y-133082380D02*
X159601904Y-132082380D01*
X159982857Y-132082380D01*
X160078095Y-132130000D01*
X160125714Y-132177619D01*
X160173333Y-132272857D01*
X160173333Y-132415714D01*
X160125714Y-132510952D01*
X160078095Y-132558571D01*
X159982857Y-132606190D01*
X159601904Y-132606190D01*
X160649523Y-133082380D02*
X160840000Y-133082380D01*
X160935238Y-133034761D01*
X160982857Y-132987142D01*
X161078095Y-132844285D01*
X161125714Y-132653809D01*
X161125714Y-132272857D01*
X161078095Y-132177619D01*
X161030476Y-132130000D01*
X160935238Y-132082380D01*
X160744761Y-132082380D01*
X160649523Y-132130000D01*
X160601904Y-132177619D01*
X160554285Y-132272857D01*
X160554285Y-132510952D01*
X160601904Y-132606190D01*
X160649523Y-132653809D01*
X160744761Y-132701428D01*
X160935238Y-132701428D01*
X161030476Y-132653809D01*
X161078095Y-132606190D01*
X161125714Y-132510952D01*
%TO.C,R8*%
X137247333Y-135877380D02*
X136914000Y-135401190D01*
X136675904Y-135877380D02*
X136675904Y-134877380D01*
X137056857Y-134877380D01*
X137152095Y-134925000D01*
X137199714Y-134972619D01*
X137247333Y-135067857D01*
X137247333Y-135210714D01*
X137199714Y-135305952D01*
X137152095Y-135353571D01*
X137056857Y-135401190D01*
X136675904Y-135401190D01*
X137818761Y-135305952D02*
X137723523Y-135258333D01*
X137675904Y-135210714D01*
X137628285Y-135115476D01*
X137628285Y-135067857D01*
X137675904Y-134972619D01*
X137723523Y-134925000D01*
X137818761Y-134877380D01*
X138009238Y-134877380D01*
X138104476Y-134925000D01*
X138152095Y-134972619D01*
X138199714Y-135067857D01*
X138199714Y-135115476D01*
X138152095Y-135210714D01*
X138104476Y-135258333D01*
X138009238Y-135305952D01*
X137818761Y-135305952D01*
X137723523Y-135353571D01*
X137675904Y-135401190D01*
X137628285Y-135496428D01*
X137628285Y-135686904D01*
X137675904Y-135782142D01*
X137723523Y-135829761D01*
X137818761Y-135877380D01*
X138009238Y-135877380D01*
X138104476Y-135829761D01*
X138152095Y-135782142D01*
X138199714Y-135686904D01*
X138199714Y-135496428D01*
X138152095Y-135401190D01*
X138104476Y-135353571D01*
X138009238Y-135305952D01*
%TO.C,R7*%
X156238380Y-131992666D02*
X155762190Y-132326000D01*
X156238380Y-132564095D02*
X155238380Y-132564095D01*
X155238380Y-132183142D01*
X155286000Y-132087904D01*
X155333619Y-132040285D01*
X155428857Y-131992666D01*
X155571714Y-131992666D01*
X155666952Y-132040285D01*
X155714571Y-132087904D01*
X155762190Y-132183142D01*
X155762190Y-132564095D01*
X155238380Y-131659333D02*
X155238380Y-130992666D01*
X156238380Y-131421238D01*
%TO.C,R6*%
X133437333Y-128552380D02*
X133104000Y-128076190D01*
X132865904Y-128552380D02*
X132865904Y-127552380D01*
X133246857Y-127552380D01*
X133342095Y-127600000D01*
X133389714Y-127647619D01*
X133437333Y-127742857D01*
X133437333Y-127885714D01*
X133389714Y-127980952D01*
X133342095Y-128028571D01*
X133246857Y-128076190D01*
X132865904Y-128076190D01*
X134294476Y-127552380D02*
X134104000Y-127552380D01*
X134008761Y-127600000D01*
X133961142Y-127647619D01*
X133865904Y-127790476D01*
X133818285Y-127980952D01*
X133818285Y-128361904D01*
X133865904Y-128457142D01*
X133913523Y-128504761D01*
X134008761Y-128552380D01*
X134199238Y-128552380D01*
X134294476Y-128504761D01*
X134342095Y-128457142D01*
X134389714Y-128361904D01*
X134389714Y-128123809D01*
X134342095Y-128028571D01*
X134294476Y-127980952D01*
X134199238Y-127933333D01*
X134008761Y-127933333D01*
X133913523Y-127980952D01*
X133865904Y-128028571D01*
X133818285Y-128123809D01*
%TO.C,R5*%
X168303380Y-129452666D02*
X167827190Y-129786000D01*
X168303380Y-130024095D02*
X167303380Y-130024095D01*
X167303380Y-129643142D01*
X167351000Y-129547904D01*
X167398619Y-129500285D01*
X167493857Y-129452666D01*
X167636714Y-129452666D01*
X167731952Y-129500285D01*
X167779571Y-129547904D01*
X167827190Y-129643142D01*
X167827190Y-130024095D01*
X167303380Y-128547904D02*
X167303380Y-129024095D01*
X167779571Y-129071714D01*
X167731952Y-129024095D01*
X167684333Y-128928857D01*
X167684333Y-128690761D01*
X167731952Y-128595523D01*
X167779571Y-128547904D01*
X167874809Y-128500285D01*
X168112904Y-128500285D01*
X168208142Y-128547904D01*
X168255761Y-128595523D01*
X168303380Y-128690761D01*
X168303380Y-128928857D01*
X168255761Y-129024095D01*
X168208142Y-129071714D01*
%TO.C,R4*%
X125582380Y-123426666D02*
X125106190Y-123760000D01*
X125582380Y-123998095D02*
X124582380Y-123998095D01*
X124582380Y-123617142D01*
X124630000Y-123521904D01*
X124677619Y-123474285D01*
X124772857Y-123426666D01*
X124915714Y-123426666D01*
X125010952Y-123474285D01*
X125058571Y-123521904D01*
X125106190Y-123617142D01*
X125106190Y-123998095D01*
X124915714Y-122569523D02*
X125582380Y-122569523D01*
X124534761Y-122807619D02*
X125249047Y-123045714D01*
X125249047Y-122426666D01*
%TO.C,R3*%
X173510380Y-125642666D02*
X173034190Y-125976000D01*
X173510380Y-126214095D02*
X172510380Y-126214095D01*
X172510380Y-125833142D01*
X172558000Y-125737904D01*
X172605619Y-125690285D01*
X172700857Y-125642666D01*
X172843714Y-125642666D01*
X172938952Y-125690285D01*
X172986571Y-125737904D01*
X173034190Y-125833142D01*
X173034190Y-126214095D01*
X172510380Y-125309333D02*
X172510380Y-124690285D01*
X172891333Y-125023619D01*
X172891333Y-124880761D01*
X172938952Y-124785523D01*
X172986571Y-124737904D01*
X173081809Y-124690285D01*
X173319904Y-124690285D01*
X173415142Y-124737904D01*
X173462761Y-124785523D01*
X173510380Y-124880761D01*
X173510380Y-125166476D01*
X173462761Y-125261714D01*
X173415142Y-125309333D01*
%TO.C,R2*%
X155222380Y-123356666D02*
X154746190Y-123690000D01*
X155222380Y-123928095D02*
X154222380Y-123928095D01*
X154222380Y-123547142D01*
X154270000Y-123451904D01*
X154317619Y-123404285D01*
X154412857Y-123356666D01*
X154555714Y-123356666D01*
X154650952Y-123404285D01*
X154698571Y-123451904D01*
X154746190Y-123547142D01*
X154746190Y-123928095D01*
X154317619Y-122975714D02*
X154270000Y-122928095D01*
X154222380Y-122832857D01*
X154222380Y-122594761D01*
X154270000Y-122499523D01*
X154317619Y-122451904D01*
X154412857Y-122404285D01*
X154508095Y-122404285D01*
X154650952Y-122451904D01*
X155222380Y-123023333D01*
X155222380Y-122404285D01*
%TO.C,R1*%
X162647333Y-120043380D02*
X162314000Y-119567190D01*
X162075904Y-120043380D02*
X162075904Y-119043380D01*
X162456857Y-119043380D01*
X162552095Y-119091000D01*
X162599714Y-119138619D01*
X162647333Y-119233857D01*
X162647333Y-119376714D01*
X162599714Y-119471952D01*
X162552095Y-119519571D01*
X162456857Y-119567190D01*
X162075904Y-119567190D01*
X163599714Y-120043380D02*
X163028285Y-120043380D01*
X163314000Y-120043380D02*
X163314000Y-119043380D01*
X163218761Y-119186238D01*
X163123523Y-119281476D01*
X163028285Y-119329095D01*
%TO.C,Q19*%
X112458571Y-76497619D02*
X112363333Y-76450000D01*
X112268095Y-76354761D01*
X112125238Y-76211904D01*
X112030000Y-76164285D01*
X111934761Y-76164285D01*
X111982380Y-76402380D02*
X111887142Y-76354761D01*
X111791904Y-76259523D01*
X111744285Y-76069047D01*
X111744285Y-75735714D01*
X111791904Y-75545238D01*
X111887142Y-75450000D01*
X111982380Y-75402380D01*
X112172857Y-75402380D01*
X112268095Y-75450000D01*
X112363333Y-75545238D01*
X112410952Y-75735714D01*
X112410952Y-76069047D01*
X112363333Y-76259523D01*
X112268095Y-76354761D01*
X112172857Y-76402380D01*
X111982380Y-76402380D01*
X113363333Y-76402380D02*
X112791904Y-76402380D01*
X113077619Y-76402380D02*
X113077619Y-75402380D01*
X112982380Y-75545238D01*
X112887142Y-75640476D01*
X112791904Y-75688095D01*
X113839523Y-76402380D02*
X114030000Y-76402380D01*
X114125238Y-76354761D01*
X114172857Y-76307142D01*
X114268095Y-76164285D01*
X114315714Y-75973809D01*
X114315714Y-75592857D01*
X114268095Y-75497619D01*
X114220476Y-75450000D01*
X114125238Y-75402380D01*
X113934761Y-75402380D01*
X113839523Y-75450000D01*
X113791904Y-75497619D01*
X113744285Y-75592857D01*
X113744285Y-75830952D01*
X113791904Y-75926190D01*
X113839523Y-75973809D01*
X113934761Y-76021428D01*
X114125238Y-76021428D01*
X114220476Y-75973809D01*
X114268095Y-75926190D01*
X114315714Y-75830952D01*
%TO.C,Q18*%
X129837619Y-74231428D02*
X129790000Y-74326666D01*
X129694761Y-74421904D01*
X129551904Y-74564761D01*
X129504285Y-74660000D01*
X129504285Y-74755238D01*
X129742380Y-74707619D02*
X129694761Y-74802857D01*
X129599523Y-74898095D01*
X129409047Y-74945714D01*
X129075714Y-74945714D01*
X128885238Y-74898095D01*
X128790000Y-74802857D01*
X128742380Y-74707619D01*
X128742380Y-74517142D01*
X128790000Y-74421904D01*
X128885238Y-74326666D01*
X129075714Y-74279047D01*
X129409047Y-74279047D01*
X129599523Y-74326666D01*
X129694761Y-74421904D01*
X129742380Y-74517142D01*
X129742380Y-74707619D01*
X129742380Y-73326666D02*
X129742380Y-73898095D01*
X129742380Y-73612380D02*
X128742380Y-73612380D01*
X128885238Y-73707619D01*
X128980476Y-73802857D01*
X129028095Y-73898095D01*
X129170952Y-72755238D02*
X129123333Y-72850476D01*
X129075714Y-72898095D01*
X128980476Y-72945714D01*
X128932857Y-72945714D01*
X128837619Y-72898095D01*
X128790000Y-72850476D01*
X128742380Y-72755238D01*
X128742380Y-72564761D01*
X128790000Y-72469523D01*
X128837619Y-72421904D01*
X128932857Y-72374285D01*
X128980476Y-72374285D01*
X129075714Y-72421904D01*
X129123333Y-72469523D01*
X129170952Y-72564761D01*
X129170952Y-72755238D01*
X129218571Y-72850476D01*
X129266190Y-72898095D01*
X129361428Y-72945714D01*
X129551904Y-72945714D01*
X129647142Y-72898095D01*
X129694761Y-72850476D01*
X129742380Y-72755238D01*
X129742380Y-72564761D01*
X129694761Y-72469523D01*
X129647142Y-72421904D01*
X129551904Y-72374285D01*
X129361428Y-72374285D01*
X129266190Y-72421904D01*
X129218571Y-72469523D01*
X129170952Y-72564761D01*
%TO.C,Q17*%
X123487619Y-74231428D02*
X123440000Y-74326666D01*
X123344761Y-74421904D01*
X123201904Y-74564761D01*
X123154285Y-74660000D01*
X123154285Y-74755238D01*
X123392380Y-74707619D02*
X123344761Y-74802857D01*
X123249523Y-74898095D01*
X123059047Y-74945714D01*
X122725714Y-74945714D01*
X122535238Y-74898095D01*
X122440000Y-74802857D01*
X122392380Y-74707619D01*
X122392380Y-74517142D01*
X122440000Y-74421904D01*
X122535238Y-74326666D01*
X122725714Y-74279047D01*
X123059047Y-74279047D01*
X123249523Y-74326666D01*
X123344761Y-74421904D01*
X123392380Y-74517142D01*
X123392380Y-74707619D01*
X123392380Y-73326666D02*
X123392380Y-73898095D01*
X123392380Y-73612380D02*
X122392380Y-73612380D01*
X122535238Y-73707619D01*
X122630476Y-73802857D01*
X122678095Y-73898095D01*
X122392380Y-72993333D02*
X122392380Y-72326666D01*
X123392380Y-72755238D01*
%TO.C,Y1*%
X129798809Y-108276190D02*
X129798809Y-108752380D01*
X129465476Y-107752380D02*
X129798809Y-108276190D01*
X130132142Y-107752380D01*
X130989285Y-108752380D02*
X130417857Y-108752380D01*
X130703571Y-108752380D02*
X130703571Y-107752380D01*
X130608333Y-107895238D01*
X130513095Y-107990476D01*
X130417857Y-108038095D01*
%TO.C,U7*%
X157988095Y-83062380D02*
X157988095Y-83871904D01*
X158035714Y-83967142D01*
X158083333Y-84014761D01*
X158178571Y-84062380D01*
X158369047Y-84062380D01*
X158464285Y-84014761D01*
X158511904Y-83967142D01*
X158559523Y-83871904D01*
X158559523Y-83062380D01*
X158940476Y-83062380D02*
X159607142Y-83062380D01*
X159178571Y-84062380D01*
%TO.C,U4*%
X168787380Y-99821904D02*
X169596904Y-99821904D01*
X169692142Y-99774285D01*
X169739761Y-99726666D01*
X169787380Y-99631428D01*
X169787380Y-99440952D01*
X169739761Y-99345714D01*
X169692142Y-99298095D01*
X169596904Y-99250476D01*
X168787380Y-99250476D01*
X169120714Y-98345714D02*
X169787380Y-98345714D01*
X168739761Y-98583809D02*
X169454047Y-98821904D01*
X169454047Y-98202857D01*
%TO.C,U3*%
X72652380Y-87121904D02*
X73461904Y-87121904D01*
X73557142Y-87074285D01*
X73604761Y-87026666D01*
X73652380Y-86931428D01*
X73652380Y-86740952D01*
X73604761Y-86645714D01*
X73557142Y-86598095D01*
X73461904Y-86550476D01*
X72652380Y-86550476D01*
X72652380Y-86169523D02*
X72652380Y-85550476D01*
X73033333Y-85883809D01*
X73033333Y-85740952D01*
X73080952Y-85645714D01*
X73128571Y-85598095D01*
X73223809Y-85550476D01*
X73461904Y-85550476D01*
X73557142Y-85598095D01*
X73604761Y-85645714D01*
X73652380Y-85740952D01*
X73652380Y-86026666D01*
X73604761Y-86121904D01*
X73557142Y-86169523D01*
%TO.C,U2*%
X92055380Y-83965904D02*
X92864904Y-83965904D01*
X92960142Y-83918285D01*
X93007761Y-83870666D01*
X93055380Y-83775428D01*
X93055380Y-83584952D01*
X93007761Y-83489714D01*
X92960142Y-83442095D01*
X92864904Y-83394476D01*
X92055380Y-83394476D01*
X92150619Y-82965904D02*
X92103000Y-82918285D01*
X92055380Y-82823047D01*
X92055380Y-82584952D01*
X92103000Y-82489714D01*
X92150619Y-82442095D01*
X92245857Y-82394476D01*
X92341095Y-82394476D01*
X92483952Y-82442095D01*
X93055380Y-83013523D01*
X93055380Y-82394476D01*
%TO.C,Q23*%
X161988571Y-63797619D02*
X161893333Y-63750000D01*
X161798095Y-63654761D01*
X161655238Y-63511904D01*
X161560000Y-63464285D01*
X161464761Y-63464285D01*
X161512380Y-63702380D02*
X161417142Y-63654761D01*
X161321904Y-63559523D01*
X161274285Y-63369047D01*
X161274285Y-63035714D01*
X161321904Y-62845238D01*
X161417142Y-62750000D01*
X161512380Y-62702380D01*
X161702857Y-62702380D01*
X161798095Y-62750000D01*
X161893333Y-62845238D01*
X161940952Y-63035714D01*
X161940952Y-63369047D01*
X161893333Y-63559523D01*
X161798095Y-63654761D01*
X161702857Y-63702380D01*
X161512380Y-63702380D01*
X162321904Y-62797619D02*
X162369523Y-62750000D01*
X162464761Y-62702380D01*
X162702857Y-62702380D01*
X162798095Y-62750000D01*
X162845714Y-62797619D01*
X162893333Y-62892857D01*
X162893333Y-62988095D01*
X162845714Y-63130952D01*
X162274285Y-63702380D01*
X162893333Y-63702380D01*
X163226666Y-62702380D02*
X163845714Y-62702380D01*
X163512380Y-63083333D01*
X163655238Y-63083333D01*
X163750476Y-63130952D01*
X163798095Y-63178571D01*
X163845714Y-63273809D01*
X163845714Y-63511904D01*
X163798095Y-63607142D01*
X163750476Y-63654761D01*
X163655238Y-63702380D01*
X163369523Y-63702380D01*
X163274285Y-63654761D01*
X163226666Y-63607142D01*
%TO.C,Q22*%
X161988571Y-70147619D02*
X161893333Y-70100000D01*
X161798095Y-70004761D01*
X161655238Y-69861904D01*
X161560000Y-69814285D01*
X161464761Y-69814285D01*
X161512380Y-70052380D02*
X161417142Y-70004761D01*
X161321904Y-69909523D01*
X161274285Y-69719047D01*
X161274285Y-69385714D01*
X161321904Y-69195238D01*
X161417142Y-69100000D01*
X161512380Y-69052380D01*
X161702857Y-69052380D01*
X161798095Y-69100000D01*
X161893333Y-69195238D01*
X161940952Y-69385714D01*
X161940952Y-69719047D01*
X161893333Y-69909523D01*
X161798095Y-70004761D01*
X161702857Y-70052380D01*
X161512380Y-70052380D01*
X162321904Y-69147619D02*
X162369523Y-69100000D01*
X162464761Y-69052380D01*
X162702857Y-69052380D01*
X162798095Y-69100000D01*
X162845714Y-69147619D01*
X162893333Y-69242857D01*
X162893333Y-69338095D01*
X162845714Y-69480952D01*
X162274285Y-70052380D01*
X162893333Y-70052380D01*
X163274285Y-69147619D02*
X163321904Y-69100000D01*
X163417142Y-69052380D01*
X163655238Y-69052380D01*
X163750476Y-69100000D01*
X163798095Y-69147619D01*
X163845714Y-69242857D01*
X163845714Y-69338095D01*
X163798095Y-69480952D01*
X163226666Y-70052380D01*
X163845714Y-70052380D01*
%TO.C,Q21*%
X154368571Y-56677619D02*
X154273333Y-56630000D01*
X154178095Y-56534761D01*
X154035238Y-56391904D01*
X153940000Y-56344285D01*
X153844761Y-56344285D01*
X153892380Y-56582380D02*
X153797142Y-56534761D01*
X153701904Y-56439523D01*
X153654285Y-56249047D01*
X153654285Y-55915714D01*
X153701904Y-55725238D01*
X153797142Y-55630000D01*
X153892380Y-55582380D01*
X154082857Y-55582380D01*
X154178095Y-55630000D01*
X154273333Y-55725238D01*
X154320952Y-55915714D01*
X154320952Y-56249047D01*
X154273333Y-56439523D01*
X154178095Y-56534761D01*
X154082857Y-56582380D01*
X153892380Y-56582380D01*
X154701904Y-55677619D02*
X154749523Y-55630000D01*
X154844761Y-55582380D01*
X155082857Y-55582380D01*
X155178095Y-55630000D01*
X155225714Y-55677619D01*
X155273333Y-55772857D01*
X155273333Y-55868095D01*
X155225714Y-56010952D01*
X154654285Y-56582380D01*
X155273333Y-56582380D01*
X156225714Y-56582380D02*
X155654285Y-56582380D01*
X155940000Y-56582380D02*
X155940000Y-55582380D01*
X155844761Y-55725238D01*
X155749523Y-55820476D01*
X155654285Y-55868095D01*
%TO.C,Q20*%
X154368571Y-63027619D02*
X154273333Y-62980000D01*
X154178095Y-62884761D01*
X154035238Y-62741904D01*
X153940000Y-62694285D01*
X153844761Y-62694285D01*
X153892380Y-62932380D02*
X153797142Y-62884761D01*
X153701904Y-62789523D01*
X153654285Y-62599047D01*
X153654285Y-62265714D01*
X153701904Y-62075238D01*
X153797142Y-61980000D01*
X153892380Y-61932380D01*
X154082857Y-61932380D01*
X154178095Y-61980000D01*
X154273333Y-62075238D01*
X154320952Y-62265714D01*
X154320952Y-62599047D01*
X154273333Y-62789523D01*
X154178095Y-62884761D01*
X154082857Y-62932380D01*
X153892380Y-62932380D01*
X154701904Y-62027619D02*
X154749523Y-61980000D01*
X154844761Y-61932380D01*
X155082857Y-61932380D01*
X155178095Y-61980000D01*
X155225714Y-62027619D01*
X155273333Y-62122857D01*
X155273333Y-62218095D01*
X155225714Y-62360952D01*
X154654285Y-62932380D01*
X155273333Y-62932380D01*
X155892380Y-61932380D02*
X155987619Y-61932380D01*
X156082857Y-61980000D01*
X156130476Y-62027619D01*
X156178095Y-62122857D01*
X156225714Y-62313333D01*
X156225714Y-62551428D01*
X156178095Y-62741904D01*
X156130476Y-62837142D01*
X156082857Y-62884761D01*
X155987619Y-62932380D01*
X155892380Y-62932380D01*
X155797142Y-62884761D01*
X155749523Y-62837142D01*
X155701904Y-62741904D01*
X155654285Y-62551428D01*
X155654285Y-62313333D01*
X155701904Y-62122857D01*
X155749523Y-62027619D01*
X155797142Y-61980000D01*
X155892380Y-61932380D01*
%TO.C,Q16*%
X96329571Y-120431619D02*
X96234333Y-120384000D01*
X96139095Y-120288761D01*
X95996238Y-120145904D01*
X95901000Y-120098285D01*
X95805761Y-120098285D01*
X95853380Y-120336380D02*
X95758142Y-120288761D01*
X95662904Y-120193523D01*
X95615285Y-120003047D01*
X95615285Y-119669714D01*
X95662904Y-119479238D01*
X95758142Y-119384000D01*
X95853380Y-119336380D01*
X96043857Y-119336380D01*
X96139095Y-119384000D01*
X96234333Y-119479238D01*
X96281952Y-119669714D01*
X96281952Y-120003047D01*
X96234333Y-120193523D01*
X96139095Y-120288761D01*
X96043857Y-120336380D01*
X95853380Y-120336380D01*
X97234333Y-120336380D02*
X96662904Y-120336380D01*
X96948619Y-120336380D02*
X96948619Y-119336380D01*
X96853380Y-119479238D01*
X96758142Y-119574476D01*
X96662904Y-119622095D01*
X98091476Y-119336380D02*
X97901000Y-119336380D01*
X97805761Y-119384000D01*
X97758142Y-119431619D01*
X97662904Y-119574476D01*
X97615285Y-119764952D01*
X97615285Y-120145904D01*
X97662904Y-120241142D01*
X97710523Y-120288761D01*
X97805761Y-120336380D01*
X97996238Y-120336380D01*
X98091476Y-120288761D01*
X98139095Y-120241142D01*
X98186714Y-120145904D01*
X98186714Y-119907809D01*
X98139095Y-119812571D01*
X98091476Y-119764952D01*
X97996238Y-119717333D01*
X97805761Y-119717333D01*
X97710523Y-119764952D01*
X97662904Y-119812571D01*
X97615285Y-119907809D01*
%TO.C,Q15*%
X88173619Y-124015428D02*
X88126000Y-124110666D01*
X88030761Y-124205904D01*
X87887904Y-124348761D01*
X87840285Y-124444000D01*
X87840285Y-124539238D01*
X88078380Y-124491619D02*
X88030761Y-124586857D01*
X87935523Y-124682095D01*
X87745047Y-124729714D01*
X87411714Y-124729714D01*
X87221238Y-124682095D01*
X87126000Y-124586857D01*
X87078380Y-124491619D01*
X87078380Y-124301142D01*
X87126000Y-124205904D01*
X87221238Y-124110666D01*
X87411714Y-124063047D01*
X87745047Y-124063047D01*
X87935523Y-124110666D01*
X88030761Y-124205904D01*
X88078380Y-124301142D01*
X88078380Y-124491619D01*
X88078380Y-123110666D02*
X88078380Y-123682095D01*
X88078380Y-123396380D02*
X87078380Y-123396380D01*
X87221238Y-123491619D01*
X87316476Y-123586857D01*
X87364095Y-123682095D01*
X87078380Y-122205904D02*
X87078380Y-122682095D01*
X87554571Y-122729714D01*
X87506952Y-122682095D01*
X87459333Y-122586857D01*
X87459333Y-122348761D01*
X87506952Y-122253523D01*
X87554571Y-122205904D01*
X87649809Y-122158285D01*
X87887904Y-122158285D01*
X87983142Y-122205904D01*
X88030761Y-122253523D01*
X88078380Y-122348761D01*
X88078380Y-122586857D01*
X88030761Y-122682095D01*
X87983142Y-122729714D01*
%TO.C,Q14*%
X107632571Y-136187619D02*
X107537333Y-136140000D01*
X107442095Y-136044761D01*
X107299238Y-135901904D01*
X107204000Y-135854285D01*
X107108761Y-135854285D01*
X107156380Y-136092380D02*
X107061142Y-136044761D01*
X106965904Y-135949523D01*
X106918285Y-135759047D01*
X106918285Y-135425714D01*
X106965904Y-135235238D01*
X107061142Y-135140000D01*
X107156380Y-135092380D01*
X107346857Y-135092380D01*
X107442095Y-135140000D01*
X107537333Y-135235238D01*
X107584952Y-135425714D01*
X107584952Y-135759047D01*
X107537333Y-135949523D01*
X107442095Y-136044761D01*
X107346857Y-136092380D01*
X107156380Y-136092380D01*
X108537333Y-136092380D02*
X107965904Y-136092380D01*
X108251619Y-136092380D02*
X108251619Y-135092380D01*
X108156380Y-135235238D01*
X108061142Y-135330476D01*
X107965904Y-135378095D01*
X109394476Y-135425714D02*
X109394476Y-136092380D01*
X109156380Y-135044761D02*
X108918285Y-135759047D01*
X109537333Y-135759047D01*
%TO.C,Q13*%
X90614571Y-133266619D02*
X90519333Y-133219000D01*
X90424095Y-133123761D01*
X90281238Y-132980904D01*
X90186000Y-132933285D01*
X90090761Y-132933285D01*
X90138380Y-133171380D02*
X90043142Y-133123761D01*
X89947904Y-133028523D01*
X89900285Y-132838047D01*
X89900285Y-132504714D01*
X89947904Y-132314238D01*
X90043142Y-132219000D01*
X90138380Y-132171380D01*
X90328857Y-132171380D01*
X90424095Y-132219000D01*
X90519333Y-132314238D01*
X90566952Y-132504714D01*
X90566952Y-132838047D01*
X90519333Y-133028523D01*
X90424095Y-133123761D01*
X90328857Y-133171380D01*
X90138380Y-133171380D01*
X91519333Y-133171380D02*
X90947904Y-133171380D01*
X91233619Y-133171380D02*
X91233619Y-132171380D01*
X91138380Y-132314238D01*
X91043142Y-132409476D01*
X90947904Y-132457095D01*
X91852666Y-132171380D02*
X92471714Y-132171380D01*
X92138380Y-132552333D01*
X92281238Y-132552333D01*
X92376476Y-132599952D01*
X92424095Y-132647571D01*
X92471714Y-132742809D01*
X92471714Y-132980904D01*
X92424095Y-133076142D01*
X92376476Y-133123761D01*
X92281238Y-133171380D01*
X91995523Y-133171380D01*
X91900285Y-133123761D01*
X91852666Y-133076142D01*
%TO.C,Q12*%
X124376619Y-132651428D02*
X124329000Y-132746666D01*
X124233761Y-132841904D01*
X124090904Y-132984761D01*
X124043285Y-133080000D01*
X124043285Y-133175238D01*
X124281380Y-133127619D02*
X124233761Y-133222857D01*
X124138523Y-133318095D01*
X123948047Y-133365714D01*
X123614714Y-133365714D01*
X123424238Y-133318095D01*
X123329000Y-133222857D01*
X123281380Y-133127619D01*
X123281380Y-132937142D01*
X123329000Y-132841904D01*
X123424238Y-132746666D01*
X123614714Y-132699047D01*
X123948047Y-132699047D01*
X124138523Y-132746666D01*
X124233761Y-132841904D01*
X124281380Y-132937142D01*
X124281380Y-133127619D01*
X124281380Y-131746666D02*
X124281380Y-132318095D01*
X124281380Y-132032380D02*
X123281380Y-132032380D01*
X123424238Y-132127619D01*
X123519476Y-132222857D01*
X123567095Y-132318095D01*
X123376619Y-131365714D02*
X123329000Y-131318095D01*
X123281380Y-131222857D01*
X123281380Y-130984761D01*
X123329000Y-130889523D01*
X123376619Y-130841904D01*
X123471857Y-130794285D01*
X123567095Y-130794285D01*
X123709952Y-130841904D01*
X124281380Y-131413333D01*
X124281380Y-130794285D01*
%TO.C,Q11*%
X118026619Y-132651428D02*
X117979000Y-132746666D01*
X117883761Y-132841904D01*
X117740904Y-132984761D01*
X117693285Y-133080000D01*
X117693285Y-133175238D01*
X117931380Y-133127619D02*
X117883761Y-133222857D01*
X117788523Y-133318095D01*
X117598047Y-133365714D01*
X117264714Y-133365714D01*
X117074238Y-133318095D01*
X116979000Y-133222857D01*
X116931380Y-133127619D01*
X116931380Y-132937142D01*
X116979000Y-132841904D01*
X117074238Y-132746666D01*
X117264714Y-132699047D01*
X117598047Y-132699047D01*
X117788523Y-132746666D01*
X117883761Y-132841904D01*
X117931380Y-132937142D01*
X117931380Y-133127619D01*
X117931380Y-131746666D02*
X117931380Y-132318095D01*
X117931380Y-132032380D02*
X116931380Y-132032380D01*
X117074238Y-132127619D01*
X117169476Y-132222857D01*
X117217095Y-132318095D01*
X117931380Y-130794285D02*
X117931380Y-131365714D01*
X117931380Y-131080000D02*
X116931380Y-131080000D01*
X117074238Y-131175238D01*
X117169476Y-131270476D01*
X117217095Y-131365714D01*
%TO.C,Q10*%
X122396619Y-148101428D02*
X122349000Y-148196666D01*
X122253761Y-148291904D01*
X122110904Y-148434761D01*
X122063285Y-148530000D01*
X122063285Y-148625238D01*
X122301380Y-148577619D02*
X122253761Y-148672857D01*
X122158523Y-148768095D01*
X121968047Y-148815714D01*
X121634714Y-148815714D01*
X121444238Y-148768095D01*
X121349000Y-148672857D01*
X121301380Y-148577619D01*
X121301380Y-148387142D01*
X121349000Y-148291904D01*
X121444238Y-148196666D01*
X121634714Y-148149047D01*
X121968047Y-148149047D01*
X122158523Y-148196666D01*
X122253761Y-148291904D01*
X122301380Y-148387142D01*
X122301380Y-148577619D01*
X122301380Y-147196666D02*
X122301380Y-147768095D01*
X122301380Y-147482380D02*
X121301380Y-147482380D01*
X121444238Y-147577619D01*
X121539476Y-147672857D01*
X121587095Y-147768095D01*
X121301380Y-146577619D02*
X121301380Y-146482380D01*
X121349000Y-146387142D01*
X121396619Y-146339523D01*
X121491857Y-146291904D01*
X121682333Y-146244285D01*
X121920428Y-146244285D01*
X122110904Y-146291904D01*
X122206142Y-146339523D01*
X122253761Y-146387142D01*
X122301380Y-146482380D01*
X122301380Y-146577619D01*
X122253761Y-146672857D01*
X122206142Y-146720476D01*
X122110904Y-146768095D01*
X121920428Y-146815714D01*
X121682333Y-146815714D01*
X121491857Y-146768095D01*
X121396619Y-146720476D01*
X121349000Y-146672857D01*
X121301380Y-146577619D01*
%TO.C,Q9*%
X90518619Y-147244238D02*
X90471000Y-147339476D01*
X90375761Y-147434714D01*
X90232904Y-147577571D01*
X90185285Y-147672809D01*
X90185285Y-147768047D01*
X90423380Y-147720428D02*
X90375761Y-147815666D01*
X90280523Y-147910904D01*
X90090047Y-147958523D01*
X89756714Y-147958523D01*
X89566238Y-147910904D01*
X89471000Y-147815666D01*
X89423380Y-147720428D01*
X89423380Y-147529952D01*
X89471000Y-147434714D01*
X89566238Y-147339476D01*
X89756714Y-147291857D01*
X90090047Y-147291857D01*
X90280523Y-147339476D01*
X90375761Y-147434714D01*
X90423380Y-147529952D01*
X90423380Y-147720428D01*
X90423380Y-146815666D02*
X90423380Y-146625190D01*
X90375761Y-146529952D01*
X90328142Y-146482333D01*
X90185285Y-146387095D01*
X89994809Y-146339476D01*
X89613857Y-146339476D01*
X89518619Y-146387095D01*
X89471000Y-146434714D01*
X89423380Y-146529952D01*
X89423380Y-146720428D01*
X89471000Y-146815666D01*
X89518619Y-146863285D01*
X89613857Y-146910904D01*
X89851952Y-146910904D01*
X89947190Y-146863285D01*
X89994809Y-146815666D01*
X90042428Y-146720428D01*
X90042428Y-146529952D01*
X89994809Y-146434714D01*
X89947190Y-146387095D01*
X89851952Y-146339476D01*
%TO.C,Q8*%
X142461619Y-146780238D02*
X142414000Y-146875476D01*
X142318761Y-146970714D01*
X142175904Y-147113571D01*
X142128285Y-147208809D01*
X142128285Y-147304047D01*
X142366380Y-147256428D02*
X142318761Y-147351666D01*
X142223523Y-147446904D01*
X142033047Y-147494523D01*
X141699714Y-147494523D01*
X141509238Y-147446904D01*
X141414000Y-147351666D01*
X141366380Y-147256428D01*
X141366380Y-147065952D01*
X141414000Y-146970714D01*
X141509238Y-146875476D01*
X141699714Y-146827857D01*
X142033047Y-146827857D01*
X142223523Y-146875476D01*
X142318761Y-146970714D01*
X142366380Y-147065952D01*
X142366380Y-147256428D01*
X141794952Y-146256428D02*
X141747333Y-146351666D01*
X141699714Y-146399285D01*
X141604476Y-146446904D01*
X141556857Y-146446904D01*
X141461619Y-146399285D01*
X141414000Y-146351666D01*
X141366380Y-146256428D01*
X141366380Y-146065952D01*
X141414000Y-145970714D01*
X141461619Y-145923095D01*
X141556857Y-145875476D01*
X141604476Y-145875476D01*
X141699714Y-145923095D01*
X141747333Y-145970714D01*
X141794952Y-146065952D01*
X141794952Y-146256428D01*
X141842571Y-146351666D01*
X141890190Y-146399285D01*
X141985428Y-146446904D01*
X142175904Y-146446904D01*
X142271142Y-146399285D01*
X142318761Y-146351666D01*
X142366380Y-146256428D01*
X142366380Y-146065952D01*
X142318761Y-145970714D01*
X142271142Y-145923095D01*
X142175904Y-145875476D01*
X141985428Y-145875476D01*
X141890190Y-145923095D01*
X141842571Y-145970714D01*
X141794952Y-146065952D01*
%TO.C,Q7*%
X159988619Y-147498238D02*
X159941000Y-147593476D01*
X159845761Y-147688714D01*
X159702904Y-147831571D01*
X159655285Y-147926809D01*
X159655285Y-148022047D01*
X159893380Y-147974428D02*
X159845761Y-148069666D01*
X159750523Y-148164904D01*
X159560047Y-148212523D01*
X159226714Y-148212523D01*
X159036238Y-148164904D01*
X158941000Y-148069666D01*
X158893380Y-147974428D01*
X158893380Y-147783952D01*
X158941000Y-147688714D01*
X159036238Y-147593476D01*
X159226714Y-147545857D01*
X159560047Y-147545857D01*
X159750523Y-147593476D01*
X159845761Y-147688714D01*
X159893380Y-147783952D01*
X159893380Y-147974428D01*
X158893380Y-147212523D02*
X158893380Y-146545857D01*
X159893380Y-146974428D01*
%TO.C,Q6*%
X145331619Y-132175238D02*
X145284000Y-132270476D01*
X145188761Y-132365714D01*
X145045904Y-132508571D01*
X144998285Y-132603809D01*
X144998285Y-132699047D01*
X145236380Y-132651428D02*
X145188761Y-132746666D01*
X145093523Y-132841904D01*
X144903047Y-132889523D01*
X144569714Y-132889523D01*
X144379238Y-132841904D01*
X144284000Y-132746666D01*
X144236380Y-132651428D01*
X144236380Y-132460952D01*
X144284000Y-132365714D01*
X144379238Y-132270476D01*
X144569714Y-132222857D01*
X144903047Y-132222857D01*
X145093523Y-132270476D01*
X145188761Y-132365714D01*
X145236380Y-132460952D01*
X145236380Y-132651428D01*
X144236380Y-131365714D02*
X144236380Y-131556190D01*
X144284000Y-131651428D01*
X144331619Y-131699047D01*
X144474476Y-131794285D01*
X144664952Y-131841904D01*
X145045904Y-131841904D01*
X145141142Y-131794285D01*
X145188761Y-131746666D01*
X145236380Y-131651428D01*
X145236380Y-131460952D01*
X145188761Y-131365714D01*
X145141142Y-131318095D01*
X145045904Y-131270476D01*
X144807809Y-131270476D01*
X144712571Y-131318095D01*
X144664952Y-131365714D01*
X144617333Y-131460952D01*
X144617333Y-131651428D01*
X144664952Y-131746666D01*
X144712571Y-131794285D01*
X144807809Y-131841904D01*
%TO.C,Q5*%
X138346619Y-132175238D02*
X138299000Y-132270476D01*
X138203761Y-132365714D01*
X138060904Y-132508571D01*
X138013285Y-132603809D01*
X138013285Y-132699047D01*
X138251380Y-132651428D02*
X138203761Y-132746666D01*
X138108523Y-132841904D01*
X137918047Y-132889523D01*
X137584714Y-132889523D01*
X137394238Y-132841904D01*
X137299000Y-132746666D01*
X137251380Y-132651428D01*
X137251380Y-132460952D01*
X137299000Y-132365714D01*
X137394238Y-132270476D01*
X137584714Y-132222857D01*
X137918047Y-132222857D01*
X138108523Y-132270476D01*
X138203761Y-132365714D01*
X138251380Y-132460952D01*
X138251380Y-132651428D01*
X137251380Y-131318095D02*
X137251380Y-131794285D01*
X137727571Y-131841904D01*
X137679952Y-131794285D01*
X137632333Y-131699047D01*
X137632333Y-131460952D01*
X137679952Y-131365714D01*
X137727571Y-131318095D01*
X137822809Y-131270476D01*
X138060904Y-131270476D01*
X138156142Y-131318095D01*
X138203761Y-131365714D01*
X138251380Y-131460952D01*
X138251380Y-131699047D01*
X138203761Y-131794285D01*
X138156142Y-131841904D01*
%TO.C,Q4*%
X159670761Y-132758619D02*
X159575523Y-132711000D01*
X159480285Y-132615761D01*
X159337428Y-132472904D01*
X159242190Y-132425285D01*
X159146952Y-132425285D01*
X159194571Y-132663380D02*
X159099333Y-132615761D01*
X159004095Y-132520523D01*
X158956476Y-132330047D01*
X158956476Y-131996714D01*
X159004095Y-131806238D01*
X159099333Y-131711000D01*
X159194571Y-131663380D01*
X159385047Y-131663380D01*
X159480285Y-131711000D01*
X159575523Y-131806238D01*
X159623142Y-131996714D01*
X159623142Y-132330047D01*
X159575523Y-132520523D01*
X159480285Y-132615761D01*
X159385047Y-132663380D01*
X159194571Y-132663380D01*
X160480285Y-131996714D02*
X160480285Y-132663380D01*
X160242190Y-131615761D02*
X160004095Y-132330047D01*
X160623142Y-132330047D01*
%TO.C,Q3*%
X128428761Y-136187619D02*
X128333523Y-136140000D01*
X128238285Y-136044761D01*
X128095428Y-135901904D01*
X128000190Y-135854285D01*
X127904952Y-135854285D01*
X127952571Y-136092380D02*
X127857333Y-136044761D01*
X127762095Y-135949523D01*
X127714476Y-135759047D01*
X127714476Y-135425714D01*
X127762095Y-135235238D01*
X127857333Y-135140000D01*
X127952571Y-135092380D01*
X128143047Y-135092380D01*
X128238285Y-135140000D01*
X128333523Y-135235238D01*
X128381142Y-135425714D01*
X128381142Y-135759047D01*
X128333523Y-135949523D01*
X128238285Y-136044761D01*
X128143047Y-136092380D01*
X127952571Y-136092380D01*
X128714476Y-135092380D02*
X129333523Y-135092380D01*
X129000190Y-135473333D01*
X129143047Y-135473333D01*
X129238285Y-135520952D01*
X129285904Y-135568571D01*
X129333523Y-135663809D01*
X129333523Y-135901904D01*
X129285904Y-135997142D01*
X129238285Y-136044761D01*
X129143047Y-136092380D01*
X128857333Y-136092380D01*
X128762095Y-136044761D01*
X128714476Y-135997142D01*
%TO.C,Q2*%
X156753619Y-123031238D02*
X156706000Y-123126476D01*
X156610761Y-123221714D01*
X156467904Y-123364571D01*
X156420285Y-123459809D01*
X156420285Y-123555047D01*
X156658380Y-123507428D02*
X156610761Y-123602666D01*
X156515523Y-123697904D01*
X156325047Y-123745523D01*
X155991714Y-123745523D01*
X155801238Y-123697904D01*
X155706000Y-123602666D01*
X155658380Y-123507428D01*
X155658380Y-123316952D01*
X155706000Y-123221714D01*
X155801238Y-123126476D01*
X155991714Y-123078857D01*
X156325047Y-123078857D01*
X156515523Y-123126476D01*
X156610761Y-123221714D01*
X156658380Y-123316952D01*
X156658380Y-123507428D01*
X155753619Y-122697904D02*
X155706000Y-122650285D01*
X155658380Y-122555047D01*
X155658380Y-122316952D01*
X155706000Y-122221714D01*
X155753619Y-122174095D01*
X155848857Y-122126476D01*
X155944095Y-122126476D01*
X156086952Y-122174095D01*
X156658380Y-122745523D01*
X156658380Y-122126476D01*
%TO.C,Q1*%
X165385761Y-119923619D02*
X165290523Y-119876000D01*
X165195285Y-119780761D01*
X165052428Y-119637904D01*
X164957190Y-119590285D01*
X164861952Y-119590285D01*
X164909571Y-119828380D02*
X164814333Y-119780761D01*
X164719095Y-119685523D01*
X164671476Y-119495047D01*
X164671476Y-119161714D01*
X164719095Y-118971238D01*
X164814333Y-118876000D01*
X164909571Y-118828380D01*
X165100047Y-118828380D01*
X165195285Y-118876000D01*
X165290523Y-118971238D01*
X165338142Y-119161714D01*
X165338142Y-119495047D01*
X165290523Y-119685523D01*
X165195285Y-119780761D01*
X165100047Y-119828380D01*
X164909571Y-119828380D01*
X166290523Y-119828380D02*
X165719095Y-119828380D01*
X166004809Y-119828380D02*
X166004809Y-118828380D01*
X165909571Y-118971238D01*
X165814333Y-119066476D01*
X165719095Y-119114095D01*
%TO.C,L1*%
X107602380Y-97666666D02*
X107602380Y-98142857D01*
X106602380Y-98142857D01*
X107602380Y-96809523D02*
X107602380Y-97380952D01*
X107602380Y-97095238D02*
X106602380Y-97095238D01*
X106745238Y-97190476D01*
X106840476Y-97285714D01*
X106888095Y-97380952D01*
%TO.C,J11*%
X123360380Y-117649523D02*
X124074666Y-117649523D01*
X124217523Y-117697142D01*
X124312761Y-117792380D01*
X124360380Y-117935238D01*
X124360380Y-118030476D01*
X124360380Y-116649523D02*
X124360380Y-117220952D01*
X124360380Y-116935238D02*
X123360380Y-116935238D01*
X123503238Y-117030476D01*
X123598476Y-117125714D01*
X123646095Y-117220952D01*
X124360380Y-115697142D02*
X124360380Y-116268571D01*
X124360380Y-115982857D02*
X123360380Y-115982857D01*
X123503238Y-116078095D01*
X123598476Y-116173333D01*
X123646095Y-116268571D01*
%TO.C,J1*%
X77136666Y-106342380D02*
X77136666Y-107056666D01*
X77089047Y-107199523D01*
X76993809Y-107294761D01*
X76850952Y-107342380D01*
X76755714Y-107342380D01*
X78136666Y-107342380D02*
X77565238Y-107342380D01*
X77850952Y-107342380D02*
X77850952Y-106342380D01*
X77755714Y-106485238D01*
X77660476Y-106580476D01*
X77565238Y-106628095D01*
%TO.C,D5*%
X86002904Y-133206380D02*
X86002904Y-132206380D01*
X86241000Y-132206380D01*
X86383857Y-132254000D01*
X86479095Y-132349238D01*
X86526714Y-132444476D01*
X86574333Y-132634952D01*
X86574333Y-132777809D01*
X86526714Y-132968285D01*
X86479095Y-133063523D01*
X86383857Y-133158761D01*
X86241000Y-133206380D01*
X86002904Y-133206380D01*
X87479095Y-132206380D02*
X87002904Y-132206380D01*
X86955285Y-132682571D01*
X87002904Y-132634952D01*
X87098142Y-132587333D01*
X87336238Y-132587333D01*
X87431476Y-132634952D01*
X87479095Y-132682571D01*
X87526714Y-132777809D01*
X87526714Y-133015904D01*
X87479095Y-133111142D01*
X87431476Y-133158761D01*
X87336238Y-133206380D01*
X87098142Y-133206380D01*
X87002904Y-133158761D01*
X86955285Y-133111142D01*
X82669095Y-133526380D02*
X82669095Y-132526380D01*
X83240523Y-133526380D02*
X82811952Y-132954952D01*
X83240523Y-132526380D02*
X82669095Y-133097809D01*
%TO.C,D4*%
X87653904Y-112282380D02*
X87653904Y-111282380D01*
X87892000Y-111282380D01*
X88034857Y-111330000D01*
X88130095Y-111425238D01*
X88177714Y-111520476D01*
X88225333Y-111710952D01*
X88225333Y-111853809D01*
X88177714Y-112044285D01*
X88130095Y-112139523D01*
X88034857Y-112234761D01*
X87892000Y-112282380D01*
X87653904Y-112282380D01*
X89082476Y-111615714D02*
X89082476Y-112282380D01*
X88844380Y-111234761D02*
X88606285Y-111949047D01*
X89225333Y-111949047D01*
X83050095Y-112652380D02*
X83050095Y-111652380D01*
X83621523Y-112652380D02*
X83192952Y-112080952D01*
X83621523Y-111652380D02*
X83050095Y-112223809D01*
%TO.C,D3*%
X141247904Y-125350380D02*
X141247904Y-124350380D01*
X141486000Y-124350380D01*
X141628857Y-124398000D01*
X141724095Y-124493238D01*
X141771714Y-124588476D01*
X141819333Y-124778952D01*
X141819333Y-124921809D01*
X141771714Y-125112285D01*
X141724095Y-125207523D01*
X141628857Y-125302761D01*
X141486000Y-125350380D01*
X141247904Y-125350380D01*
X142152666Y-124350380D02*
X142771714Y-124350380D01*
X142438380Y-124731333D01*
X142581238Y-124731333D01*
X142676476Y-124778952D01*
X142724095Y-124826571D01*
X142771714Y-124921809D01*
X142771714Y-125159904D01*
X142724095Y-125255142D01*
X142676476Y-125302761D01*
X142581238Y-125350380D01*
X142295523Y-125350380D01*
X142200285Y-125302761D01*
X142152666Y-125255142D01*
X146804095Y-124980380D02*
X146804095Y-123980380D01*
X147375523Y-124980380D02*
X146946952Y-124408952D01*
X147375523Y-123980380D02*
X146804095Y-124551809D01*
%TO.C,D2*%
X84870380Y-90527095D02*
X83870380Y-90527095D01*
X83870380Y-90289000D01*
X83918000Y-90146142D01*
X84013238Y-90050904D01*
X84108476Y-90003285D01*
X84298952Y-89955666D01*
X84441809Y-89955666D01*
X84632285Y-90003285D01*
X84727523Y-90050904D01*
X84822761Y-90146142D01*
X84870380Y-90289000D01*
X84870380Y-90527095D01*
X83965619Y-89574714D02*
X83918000Y-89527095D01*
X83870380Y-89431857D01*
X83870380Y-89193761D01*
X83918000Y-89098523D01*
X83965619Y-89050904D01*
X84060857Y-89003285D01*
X84156095Y-89003285D01*
X84298952Y-89050904D01*
X84870380Y-89622333D01*
X84870380Y-89003285D01*
X85990380Y-97670904D02*
X84990380Y-97670904D01*
X85990380Y-97099476D02*
X85418952Y-97528047D01*
X84990380Y-97099476D02*
X85561809Y-97670904D01*
%TO.C,D1*%
X156487904Y-137143380D02*
X156487904Y-136143380D01*
X156726000Y-136143380D01*
X156868857Y-136191000D01*
X156964095Y-136286238D01*
X157011714Y-136381476D01*
X157059333Y-136571952D01*
X157059333Y-136714809D01*
X157011714Y-136905285D01*
X156964095Y-137000523D01*
X156868857Y-137095761D01*
X156726000Y-137143380D01*
X156487904Y-137143380D01*
X158011714Y-137143380D02*
X157440285Y-137143380D01*
X157726000Y-137143380D02*
X157726000Y-136143380D01*
X157630761Y-136286238D01*
X157535523Y-136381476D01*
X157440285Y-136429095D01*
X153154095Y-137463380D02*
X153154095Y-136463380D01*
X153725523Y-137463380D02*
X153296952Y-136891952D01*
X153725523Y-136463380D02*
X153154095Y-137034809D01*
%TO.C,C26*%
X139839142Y-115978857D02*
X139886761Y-116026476D01*
X139934380Y-116169333D01*
X139934380Y-116264571D01*
X139886761Y-116407428D01*
X139791523Y-116502666D01*
X139696285Y-116550285D01*
X139505809Y-116597904D01*
X139362952Y-116597904D01*
X139172476Y-116550285D01*
X139077238Y-116502666D01*
X138982000Y-116407428D01*
X138934380Y-116264571D01*
X138934380Y-116169333D01*
X138982000Y-116026476D01*
X139029619Y-115978857D01*
X139029619Y-115597904D02*
X138982000Y-115550285D01*
X138934380Y-115455047D01*
X138934380Y-115216952D01*
X138982000Y-115121714D01*
X139029619Y-115074095D01*
X139124857Y-115026476D01*
X139220095Y-115026476D01*
X139362952Y-115074095D01*
X139934380Y-115645523D01*
X139934380Y-115026476D01*
X138934380Y-114169333D02*
X138934380Y-114359809D01*
X138982000Y-114455047D01*
X139029619Y-114502666D01*
X139172476Y-114597904D01*
X139362952Y-114645523D01*
X139743904Y-114645523D01*
X139839142Y-114597904D01*
X139886761Y-114550285D01*
X139934380Y-114455047D01*
X139934380Y-114264571D01*
X139886761Y-114169333D01*
X139839142Y-114121714D01*
X139743904Y-114074095D01*
X139505809Y-114074095D01*
X139410571Y-114121714D01*
X139362952Y-114169333D01*
X139315333Y-114264571D01*
X139315333Y-114455047D01*
X139362952Y-114550285D01*
X139410571Y-114597904D01*
X139505809Y-114645523D01*
%TO.C,C21*%
X141363142Y-86046142D02*
X141315523Y-86093761D01*
X141172666Y-86141380D01*
X141077428Y-86141380D01*
X140934571Y-86093761D01*
X140839333Y-85998523D01*
X140791714Y-85903285D01*
X140744095Y-85712809D01*
X140744095Y-85569952D01*
X140791714Y-85379476D01*
X140839333Y-85284238D01*
X140934571Y-85189000D01*
X141077428Y-85141380D01*
X141172666Y-85141380D01*
X141315523Y-85189000D01*
X141363142Y-85236619D01*
X141744095Y-85236619D02*
X141791714Y-85189000D01*
X141886952Y-85141380D01*
X142125047Y-85141380D01*
X142220285Y-85189000D01*
X142267904Y-85236619D01*
X142315523Y-85331857D01*
X142315523Y-85427095D01*
X142267904Y-85569952D01*
X141696476Y-86141380D01*
X142315523Y-86141380D01*
X143267904Y-86141380D02*
X142696476Y-86141380D01*
X142982190Y-86141380D02*
X142982190Y-85141380D01*
X142886952Y-85284238D01*
X142791714Y-85379476D01*
X142696476Y-85427095D01*
%TO.C,C20*%
X148602142Y-86300142D02*
X148554523Y-86347761D01*
X148411666Y-86395380D01*
X148316428Y-86395380D01*
X148173571Y-86347761D01*
X148078333Y-86252523D01*
X148030714Y-86157285D01*
X147983095Y-85966809D01*
X147983095Y-85823952D01*
X148030714Y-85633476D01*
X148078333Y-85538238D01*
X148173571Y-85443000D01*
X148316428Y-85395380D01*
X148411666Y-85395380D01*
X148554523Y-85443000D01*
X148602142Y-85490619D01*
X148983095Y-85490619D02*
X149030714Y-85443000D01*
X149125952Y-85395380D01*
X149364047Y-85395380D01*
X149459285Y-85443000D01*
X149506904Y-85490619D01*
X149554523Y-85585857D01*
X149554523Y-85681095D01*
X149506904Y-85823952D01*
X148935476Y-86395380D01*
X149554523Y-86395380D01*
X150173571Y-85395380D02*
X150268809Y-85395380D01*
X150364047Y-85443000D01*
X150411666Y-85490619D01*
X150459285Y-85585857D01*
X150506904Y-85776333D01*
X150506904Y-86014428D01*
X150459285Y-86204904D01*
X150411666Y-86300142D01*
X150364047Y-86347761D01*
X150268809Y-86395380D01*
X150173571Y-86395380D01*
X150078333Y-86347761D01*
X150030714Y-86300142D01*
X149983095Y-86204904D01*
X149935476Y-86014428D01*
X149935476Y-85776333D01*
X149983095Y-85585857D01*
X150030714Y-85490619D01*
X150078333Y-85443000D01*
X150173571Y-85395380D01*
%TO.C,C17*%
X117487142Y-100397142D02*
X117439523Y-100444761D01*
X117296666Y-100492380D01*
X117201428Y-100492380D01*
X117058571Y-100444761D01*
X116963333Y-100349523D01*
X116915714Y-100254285D01*
X116868095Y-100063809D01*
X116868095Y-99920952D01*
X116915714Y-99730476D01*
X116963333Y-99635238D01*
X117058571Y-99540000D01*
X117201428Y-99492380D01*
X117296666Y-99492380D01*
X117439523Y-99540000D01*
X117487142Y-99587619D01*
X118439523Y-100492380D02*
X117868095Y-100492380D01*
X118153809Y-100492380D02*
X118153809Y-99492380D01*
X118058571Y-99635238D01*
X117963333Y-99730476D01*
X117868095Y-99778095D01*
X118772857Y-99492380D02*
X119439523Y-99492380D01*
X119010952Y-100492380D01*
%TO.C,C13*%
X111597142Y-98247142D02*
X111549523Y-98294761D01*
X111406666Y-98342380D01*
X111311428Y-98342380D01*
X111168571Y-98294761D01*
X111073333Y-98199523D01*
X111025714Y-98104285D01*
X110978095Y-97913809D01*
X110978095Y-97770952D01*
X111025714Y-97580476D01*
X111073333Y-97485238D01*
X111168571Y-97390000D01*
X111311428Y-97342380D01*
X111406666Y-97342380D01*
X111549523Y-97390000D01*
X111597142Y-97437619D01*
X112549523Y-98342380D02*
X111978095Y-98342380D01*
X112263809Y-98342380D02*
X112263809Y-97342380D01*
X112168571Y-97485238D01*
X112073333Y-97580476D01*
X111978095Y-97628095D01*
X112882857Y-97342380D02*
X113501904Y-97342380D01*
X113168571Y-97723333D01*
X113311428Y-97723333D01*
X113406666Y-97770952D01*
X113454285Y-97818571D01*
X113501904Y-97913809D01*
X113501904Y-98151904D01*
X113454285Y-98247142D01*
X113406666Y-98294761D01*
X113311428Y-98342380D01*
X113025714Y-98342380D01*
X112930476Y-98294761D01*
X112882857Y-98247142D01*
%TO.C,C12*%
X78887142Y-75187142D02*
X78839523Y-75234761D01*
X78696666Y-75282380D01*
X78601428Y-75282380D01*
X78458571Y-75234761D01*
X78363333Y-75139523D01*
X78315714Y-75044285D01*
X78268095Y-74853809D01*
X78268095Y-74710952D01*
X78315714Y-74520476D01*
X78363333Y-74425238D01*
X78458571Y-74330000D01*
X78601428Y-74282380D01*
X78696666Y-74282380D01*
X78839523Y-74330000D01*
X78887142Y-74377619D01*
X79839523Y-75282380D02*
X79268095Y-75282380D01*
X79553809Y-75282380D02*
X79553809Y-74282380D01*
X79458571Y-74425238D01*
X79363333Y-74520476D01*
X79268095Y-74568095D01*
X80220476Y-74377619D02*
X80268095Y-74330000D01*
X80363333Y-74282380D01*
X80601428Y-74282380D01*
X80696666Y-74330000D01*
X80744285Y-74377619D01*
X80791904Y-74472857D01*
X80791904Y-74568095D01*
X80744285Y-74710952D01*
X80172857Y-75282380D01*
X80791904Y-75282380D01*
%TO.C,C11*%
X111097142Y-111137142D02*
X111049523Y-111184761D01*
X110906666Y-111232380D01*
X110811428Y-111232380D01*
X110668571Y-111184761D01*
X110573333Y-111089523D01*
X110525714Y-110994285D01*
X110478095Y-110803809D01*
X110478095Y-110660952D01*
X110525714Y-110470476D01*
X110573333Y-110375238D01*
X110668571Y-110280000D01*
X110811428Y-110232380D01*
X110906666Y-110232380D01*
X111049523Y-110280000D01*
X111097142Y-110327619D01*
X112049523Y-111232380D02*
X111478095Y-111232380D01*
X111763809Y-111232380D02*
X111763809Y-110232380D01*
X111668571Y-110375238D01*
X111573333Y-110470476D01*
X111478095Y-110518095D01*
X113001904Y-111232380D02*
X112430476Y-111232380D01*
X112716190Y-111232380D02*
X112716190Y-110232380D01*
X112620952Y-110375238D01*
X112525714Y-110470476D01*
X112430476Y-110518095D01*
%TO.C,C10*%
X79347142Y-80077142D02*
X79299523Y-80124761D01*
X79156666Y-80172380D01*
X79061428Y-80172380D01*
X78918571Y-80124761D01*
X78823333Y-80029523D01*
X78775714Y-79934285D01*
X78728095Y-79743809D01*
X78728095Y-79600952D01*
X78775714Y-79410476D01*
X78823333Y-79315238D01*
X78918571Y-79220000D01*
X79061428Y-79172380D01*
X79156666Y-79172380D01*
X79299523Y-79220000D01*
X79347142Y-79267619D01*
X80299523Y-80172380D02*
X79728095Y-80172380D01*
X80013809Y-80172380D02*
X80013809Y-79172380D01*
X79918571Y-79315238D01*
X79823333Y-79410476D01*
X79728095Y-79458095D01*
X80918571Y-79172380D02*
X81013809Y-79172380D01*
X81109047Y-79220000D01*
X81156666Y-79267619D01*
X81204285Y-79362857D01*
X81251904Y-79553333D01*
X81251904Y-79791428D01*
X81204285Y-79981904D01*
X81156666Y-80077142D01*
X81109047Y-80124761D01*
X81013809Y-80172380D01*
X80918571Y-80172380D01*
X80823333Y-80124761D01*
X80775714Y-80077142D01*
X80728095Y-79981904D01*
X80680476Y-79791428D01*
X80680476Y-79553333D01*
X80728095Y-79362857D01*
X80775714Y-79267619D01*
X80823333Y-79220000D01*
X80918571Y-79172380D01*
%TO.C,C8*%
X148784142Y-115502666D02*
X148831761Y-115550285D01*
X148879380Y-115693142D01*
X148879380Y-115788380D01*
X148831761Y-115931238D01*
X148736523Y-116026476D01*
X148641285Y-116074095D01*
X148450809Y-116121714D01*
X148307952Y-116121714D01*
X148117476Y-116074095D01*
X148022238Y-116026476D01*
X147927000Y-115931238D01*
X147879380Y-115788380D01*
X147879380Y-115693142D01*
X147927000Y-115550285D01*
X147974619Y-115502666D01*
X148307952Y-114931238D02*
X148260333Y-115026476D01*
X148212714Y-115074095D01*
X148117476Y-115121714D01*
X148069857Y-115121714D01*
X147974619Y-115074095D01*
X147927000Y-115026476D01*
X147879380Y-114931238D01*
X147879380Y-114740761D01*
X147927000Y-114645523D01*
X147974619Y-114597904D01*
X148069857Y-114550285D01*
X148117476Y-114550285D01*
X148212714Y-114597904D01*
X148260333Y-114645523D01*
X148307952Y-114740761D01*
X148307952Y-114931238D01*
X148355571Y-115026476D01*
X148403190Y-115074095D01*
X148498428Y-115121714D01*
X148688904Y-115121714D01*
X148784142Y-115074095D01*
X148831761Y-115026476D01*
X148879380Y-114931238D01*
X148879380Y-114740761D01*
X148831761Y-114645523D01*
X148784142Y-114597904D01*
X148688904Y-114550285D01*
X148498428Y-114550285D01*
X148403190Y-114597904D01*
X148355571Y-114645523D01*
X148307952Y-114740761D01*
%TO.C,C7*%
X85713333Y-112017142D02*
X85665714Y-112064761D01*
X85522857Y-112112380D01*
X85427619Y-112112380D01*
X85284761Y-112064761D01*
X85189523Y-111969523D01*
X85141904Y-111874285D01*
X85094285Y-111683809D01*
X85094285Y-111540952D01*
X85141904Y-111350476D01*
X85189523Y-111255238D01*
X85284761Y-111160000D01*
X85427619Y-111112380D01*
X85522857Y-111112380D01*
X85665714Y-111160000D01*
X85713333Y-111207619D01*
X86046666Y-111112380D02*
X86713333Y-111112380D01*
X86284761Y-112112380D01*
%TO.C,C6*%
X81133333Y-99127142D02*
X81085714Y-99174761D01*
X80942857Y-99222380D01*
X80847619Y-99222380D01*
X80704761Y-99174761D01*
X80609523Y-99079523D01*
X80561904Y-98984285D01*
X80514285Y-98793809D01*
X80514285Y-98650952D01*
X80561904Y-98460476D01*
X80609523Y-98365238D01*
X80704761Y-98270000D01*
X80847619Y-98222380D01*
X80942857Y-98222380D01*
X81085714Y-98270000D01*
X81133333Y-98317619D01*
X81990476Y-98222380D02*
X81800000Y-98222380D01*
X81704761Y-98270000D01*
X81657142Y-98317619D01*
X81561904Y-98460476D01*
X81514285Y-98650952D01*
X81514285Y-99031904D01*
X81561904Y-99127142D01*
X81609523Y-99174761D01*
X81704761Y-99222380D01*
X81895238Y-99222380D01*
X81990476Y-99174761D01*
X82038095Y-99127142D01*
X82085714Y-99031904D01*
X82085714Y-98793809D01*
X82038095Y-98698571D01*
X81990476Y-98650952D01*
X81895238Y-98603333D01*
X81704761Y-98603333D01*
X81609523Y-98650952D01*
X81561904Y-98698571D01*
X81514285Y-98793809D01*
%TO.C,C5*%
X136907142Y-97341666D02*
X136954761Y-97389285D01*
X137002380Y-97532142D01*
X137002380Y-97627380D01*
X136954761Y-97770238D01*
X136859523Y-97865476D01*
X136764285Y-97913095D01*
X136573809Y-97960714D01*
X136430952Y-97960714D01*
X136240476Y-97913095D01*
X136145238Y-97865476D01*
X136050000Y-97770238D01*
X136002380Y-97627380D01*
X136002380Y-97532142D01*
X136050000Y-97389285D01*
X136097619Y-97341666D01*
X136002380Y-96436904D02*
X136002380Y-96913095D01*
X136478571Y-96960714D01*
X136430952Y-96913095D01*
X136383333Y-96817857D01*
X136383333Y-96579761D01*
X136430952Y-96484523D01*
X136478571Y-96436904D01*
X136573809Y-96389285D01*
X136811904Y-96389285D01*
X136907142Y-96436904D01*
X136954761Y-96484523D01*
X137002380Y-96579761D01*
X137002380Y-96817857D01*
X136954761Y-96913095D01*
X136907142Y-96960714D01*
%TO.C,C4*%
X143998333Y-111192142D02*
X143950714Y-111239761D01*
X143807857Y-111287380D01*
X143712619Y-111287380D01*
X143569761Y-111239761D01*
X143474523Y-111144523D01*
X143426904Y-111049285D01*
X143379285Y-110858809D01*
X143379285Y-110715952D01*
X143426904Y-110525476D01*
X143474523Y-110430238D01*
X143569761Y-110335000D01*
X143712619Y-110287380D01*
X143807857Y-110287380D01*
X143950714Y-110335000D01*
X143998333Y-110382619D01*
X144855476Y-110620714D02*
X144855476Y-111287380D01*
X144617380Y-110239761D02*
X144379285Y-110954047D01*
X144998333Y-110954047D01*
%TO.C,C3*%
X93559333Y-117041142D02*
X93511714Y-117088761D01*
X93368857Y-117136380D01*
X93273619Y-117136380D01*
X93130761Y-117088761D01*
X93035523Y-116993523D01*
X92987904Y-116898285D01*
X92940285Y-116707809D01*
X92940285Y-116564952D01*
X92987904Y-116374476D01*
X93035523Y-116279238D01*
X93130761Y-116184000D01*
X93273619Y-116136380D01*
X93368857Y-116136380D01*
X93511714Y-116184000D01*
X93559333Y-116231619D01*
X93892666Y-116136380D02*
X94511714Y-116136380D01*
X94178380Y-116517333D01*
X94321238Y-116517333D01*
X94416476Y-116564952D01*
X94464095Y-116612571D01*
X94511714Y-116707809D01*
X94511714Y-116945904D01*
X94464095Y-117041142D01*
X94416476Y-117088761D01*
X94321238Y-117136380D01*
X94035523Y-117136380D01*
X93940285Y-117088761D01*
X93892666Y-117041142D01*
%TO.C,C1*%
X170439142Y-132500666D02*
X170486761Y-132548285D01*
X170534380Y-132691142D01*
X170534380Y-132786380D01*
X170486761Y-132929238D01*
X170391523Y-133024476D01*
X170296285Y-133072095D01*
X170105809Y-133119714D01*
X169962952Y-133119714D01*
X169772476Y-133072095D01*
X169677238Y-133024476D01*
X169582000Y-132929238D01*
X169534380Y-132786380D01*
X169534380Y-132691142D01*
X169582000Y-132548285D01*
X169629619Y-132500666D01*
X170534380Y-131548285D02*
X170534380Y-132119714D01*
X170534380Y-131834000D02*
X169534380Y-131834000D01*
X169677238Y-131929238D01*
X169772476Y-132024476D01*
X169820095Y-132119714D01*
%TD*%
M02*
