M48
; DRILL file {KiCad 5.1.8-5.1.8} date Wed Jul 28 16:27:38 2021
; FORMAT={-:-/ absolute / metric / decimal}
; #@! TF.CreationDate,2021-07-28T16:27:38+08:00
; #@! TF.GenerationSoftware,Kicad,Pcbnew,5.1.8-5.1.8
; #@! TF.FileFunction,Plated,1,2,PTH
FMAT,2
METRIC
T1C0.400
T2C0.800
T3C1.000
T4C1.100
T5C1.300
T6C1.600
T7C2.000
T8C3.000
%
G90
G05
T1
X80.525Y-148.075
X81.28Y-151.13
X81.28Y-153.67
X86.106Y-137.414
X91.44Y-147.32
X91.44Y-149.86
X91.44Y-152.4
X93.98Y-147.32
X93.98Y-149.86
X93.98Y-152.4
X96.52Y-147.32
X96.52Y-149.86
X96.52Y-152.4
X99.06Y-147.32
X99.06Y-149.86
X99.06Y-152.4
X110.49Y-147.32
X110.49Y-152.4
X110.72Y-149.63
X116.522Y-116.649
X121.92Y-147.32
X121.92Y-149.86
X121.92Y-152.4
X123.952Y-95.504
X124.206Y-93.726
X124.206Y-96.52
X124.46Y-147.32
X124.46Y-149.86
X124.46Y-152.4
X129.54Y-147.32
X130.175Y-93.599
X130.302Y-99.187
X130.429Y-100.965
X130.683Y-102.616
X130.81Y-152.4
X131.318Y-94.869
X132.08Y-147.32
X132.08Y-152.4
X134.239Y-118.999
X134.62Y-98.171
X134.747Y-103.759
X137.033Y-118.11
X142.24Y-151.13
X142.24Y-153.67
X147.32Y-147.32
X147.32Y-149.86
X147.32Y-152.4
X149.815Y-147.365
X149.86Y-149.86
X149.86Y-152.4
X153.289Y-141.351
X160.02Y-147.32
X160.02Y-149.86
X160.02Y-152.4
X162.56Y-147.32
X162.56Y-149.86
X162.56Y-152.4
X165.1Y-147.32
X165.1Y-149.86
X165.1Y-152.4
T2
X149.2Y-92.2
X154.28Y-92.2
X128.27Y-78.74
X128.27Y-83.82
X159.766Y-120.396
X159.766Y-122.936
X159.766Y-125.476
X110.49Y-72.39
X113.03Y-72.39
X115.57Y-72.39
X124.968Y-137.668
X124.968Y-142.748
X83.566Y-119.634
X83.566Y-124.714
X145.923Y-88.138
X151.003Y-88.138
X125.984Y-132.08
X128.524Y-132.08
X131.064Y-132.08
X160.02Y-66.04
X162.56Y-66.04
X165.1Y-66.04
X127.5Y-120.72
X127.5Y-125.8
X153.416Y-138.811
X161.036Y-138.811
X78.74Y-77.47
X81.24Y-77.47
X149.86Y-72.39
X149.86Y-77.47
X110.744Y-125.095
X115.824Y-125.095
X133.35Y-62.23
X138.43Y-62.23
X154.94Y-73.66
X154.94Y-76.2
X154.94Y-78.74
X154.94Y-81.28
X162.56Y-73.66
X162.56Y-76.2
X162.56Y-78.74
X162.56Y-81.28
X156.845Y-84.582
X161.925Y-84.582
X160.02Y-59.69
X162.56Y-59.69
X165.1Y-59.69
X152.4Y-120.65
X152.4Y-125.73
X142.915Y-108.585
X145.415Y-108.585
X146.177Y-114.086
X146.177Y-116.586
X82.931Y-134.874
X90.551Y-134.874
X113.03Y-77.47
X113.03Y-82.55
X160.274Y-117.221
X165.354Y-117.221
X141.605Y-98.425
X146.685Y-98.425
X80.05Y-96.52
X82.55Y-96.52
X88.011Y-139.319
X93.091Y-139.319
X162.941Y-122.936
X165.481Y-122.936
X168.021Y-122.936
X133.35Y-67.31
X138.43Y-67.31
X149.098Y-108.585
X149.098Y-113.665
X133.35Y-72.39
X138.43Y-72.39
X114.554Y-138.43
X119.634Y-138.43
X153.67Y-108.585
X153.67Y-113.665
X131.572Y-83.82
X136.652Y-83.82
X157.8Y-135.0
X162.88Y-135.0
X163.195Y-91.44
X168.275Y-91.44
X101.981Y-124.079
X101.981Y-129.159
X141.606Y-102.077
X146.686Y-102.077
X138.176Y-89.408
X143.256Y-89.408
X163.52Y-105.7
X168.6Y-105.7
X147.995Y-83.693
X150.495Y-83.693
X98.171Y-112.014
X98.171Y-117.094
X131.064Y-125.73
X136.144Y-125.73
X105.664Y-132.08
X108.204Y-132.08
X110.744Y-132.08
X110.49Y-60.96
X110.49Y-68.58
X113.03Y-60.96
X113.03Y-68.58
X115.57Y-60.96
X115.57Y-68.58
X118.11Y-60.96
X118.11Y-68.58
X120.65Y-60.96
X120.65Y-68.58
X123.19Y-60.96
X123.19Y-68.58
X125.73Y-60.96
X125.73Y-68.58
X128.27Y-60.96
X128.27Y-68.58
X140.97Y-93.345
X146.05Y-93.345
X95.8Y-134.874
X95.8Y-139.954
X125.73Y-111.76
X130.81Y-111.76
X165.481Y-126.746
X165.481Y-131.826
X94.361Y-123.444
X96.901Y-123.444
X99.441Y-123.444
X108.0Y-118.11
X108.0Y-123.19
X140.756Y-83.439
X143.256Y-83.439
X170.815Y-96.52
X170.815Y-101.6
X153.416Y-129.286
X153.416Y-134.366
X165.6Y-71.12
X170.68Y-71.12
X127.835Y-104.775
X132.715Y-104.775
X116.88Y-97.79
X119.38Y-97.79
X120.269Y-129.54
X120.269Y-132.08
X120.269Y-134.62
X138.8Y-95.925
X138.8Y-98.425
X141.224Y-129.54
X141.224Y-132.08
X141.224Y-134.62
X81.026Y-129.159
X86.106Y-129.159
X152.4Y-66.04
X154.94Y-66.04
X157.48Y-66.04
X125.73Y-71.12
X125.73Y-73.66
X125.73Y-76.2
X149.225Y-105.5
X154.305Y-105.5
X134.874Y-137.795
X139.954Y-137.795
X119.38Y-71.12
X119.38Y-73.66
X119.38Y-76.2
X113.919Y-129.54
X113.919Y-132.08
X113.919Y-134.62
X157.226Y-128.651
X159.766Y-128.651
X162.306Y-128.651
X126.111Y-87.249
X131.191Y-87.249
X170.688Y-122.936
X170.688Y-128.016
X134.239Y-129.54
X134.239Y-132.08
X134.239Y-134.62
X152.4Y-59.69
X154.94Y-59.69
X157.48Y-59.69
X156.845Y-87.63
X161.925Y-87.63
X110.49Y-113.03
X112.99Y-113.03
X81.915Y-57.023
X81.915Y-62.103
X141.732Y-114.086
X141.732Y-116.586
X121.92Y-78.74
X121.92Y-83.82
X88.646Y-129.159
X91.186Y-129.159
X93.726Y-129.159
X143.637Y-137.795
X143.637Y-142.875
X91.186Y-120.904
X91.186Y-123.444
X91.186Y-125.984
X156.845Y-109.22
X161.925Y-109.22
X130.81Y-58.42
X135.89Y-58.42
X151.765Y-95.25
X151.765Y-102.87
X154.305Y-95.25
X154.305Y-102.87
X156.845Y-95.25
X156.845Y-102.87
X159.385Y-95.25
X159.385Y-102.87
X161.925Y-95.25
X161.925Y-102.87
X164.465Y-95.25
X164.465Y-102.87
X167.005Y-95.25
X167.005Y-102.87
X141.605Y-105.41
X146.685Y-105.41
T3
X139.7Y-77.47
X142.24Y-72.39
X77.47Y-109.22
X77.47Y-100.33
X170.18Y-63.5
X130.81Y-149.86
X77.78Y-68.58
X81.28Y-68.58
X146.05Y-62.23
X110.49Y-104.14
X113.99Y-104.14
X87.63Y-58.42
X90.17Y-58.42
X92.71Y-58.42
X95.25Y-58.42
X97.79Y-58.42
X100.33Y-58.42
X102.87Y-58.42
X105.41Y-58.42
X107.95Y-58.42
X110.49Y-58.42
X113.03Y-58.42
X115.57Y-58.42
X118.11Y-58.42
X120.65Y-58.42
X123.19Y-58.42
X125.73Y-58.42
X84.13Y-105.41
X87.63Y-105.41
X126.238Y-116.84
X128.778Y-116.84
X131.318Y-116.84
X170.688Y-110.109
X107.95Y-149.86
X171.2Y-87.3
T4
X83.312Y-114.3
X93.472Y-114.3
X88.9Y-67.31
X88.9Y-77.47
X77.47Y-83.82
X77.47Y-86.36
X77.47Y-88.9
X93.98Y-105.41
X104.14Y-105.41
X120.65Y-101.6
X120.65Y-111.76
X136.906Y-122.428
X147.066Y-122.428
T5
X100.9Y-95.0
X100.9Y-100.0
T6
X88.138Y-82.169
X88.138Y-97.409
T7
X80.4Y-141.2
X104.76Y-147.94
X142.7Y-148.1
X150.503Y-143.203
X170.83Y-58.05
T8
X76.84Y-57.89
X76.84Y-151.89
X170.18Y-151.13
T0
M30
