%TF.GenerationSoftware,KiCad,Pcbnew,5.1.8-5.1.8*%
%TF.CreationDate,2021-07-28T16:27:40+08:00*%
%TF.ProjectId,fluxgate,666c7578-6761-4746-952e-6b696361645f,rev?*%
%TF.SameCoordinates,Original*%
%TF.FileFunction,Copper,L1,Top*%
%TF.FilePolarity,Positive*%
%FSLAX46Y46*%
G04 Gerber Fmt 4.6, Leading zero omitted, Abs format (unit mm)*
G04 Created by KiCad (PCBNEW 5.1.8-5.1.8) date 2021-07-28 16:27:40*
%MOMM*%
%LPD*%
G01*
G04 APERTURE LIST*
%TA.AperFunction,ComponentPad*%
%ADD10R,1.700000X1.700000*%
%TD*%
%TA.AperFunction,ComponentPad*%
%ADD11O,1.700000X1.700000*%
%TD*%
%TA.AperFunction,ComponentPad*%
%ADD12O,2.200000X2.200000*%
%TD*%
%TA.AperFunction,ComponentPad*%
%ADD13R,2.200000X2.200000*%
%TD*%
%TA.AperFunction,ComponentPad*%
%ADD14O,1.600000X1.600000*%
%TD*%
%TA.AperFunction,ComponentPad*%
%ADD15C,1.600000*%
%TD*%
%TA.AperFunction,ComponentPad*%
%ADD16R,1.500000X1.500000*%
%TD*%
%TA.AperFunction,ComponentPad*%
%ADD17C,1.500000*%
%TD*%
%TA.AperFunction,ComponentPad*%
%ADD18R,1.600000X1.600000*%
%TD*%
%TA.AperFunction,ComponentPad*%
%ADD19O,2.000000X1.905000*%
%TD*%
%TA.AperFunction,ComponentPad*%
%ADD20R,2.000000X1.905000*%
%TD*%
%TA.AperFunction,SMDPad,CuDef*%
%ADD21R,10.800000X9.400000*%
%TD*%
%TA.AperFunction,SMDPad,CuDef*%
%ADD22R,1.100000X4.600000*%
%TD*%
%TA.AperFunction,SMDPad,CuDef*%
%ADD23R,5.800000X6.400000*%
%TD*%
%TA.AperFunction,SMDPad,CuDef*%
%ADD24R,1.200000X2.200000*%
%TD*%
%TA.AperFunction,ComponentPad*%
%ADD25C,2.600000*%
%TD*%
%TA.AperFunction,ComponentPad*%
%ADD26O,3.200000X3.200000*%
%TD*%
%TA.AperFunction,ComponentPad*%
%ADD27R,3.200000X3.200000*%
%TD*%
%TA.AperFunction,ComponentPad*%
%ADD28C,2.000000*%
%TD*%
%TA.AperFunction,ComponentPad*%
%ADD29R,2.000000X2.000000*%
%TD*%
%TA.AperFunction,ViaPad*%
%ADD30C,4.000000*%
%TD*%
%TA.AperFunction,ViaPad*%
%ADD31C,3.000000*%
%TD*%
%TA.AperFunction,ViaPad*%
%ADD32C,0.800000*%
%TD*%
%TA.AperFunction,ViaPad*%
%ADD33C,2.000000*%
%TD*%
%TA.AperFunction,Conductor*%
%ADD34C,1.000000*%
%TD*%
%TA.AperFunction,Conductor*%
%ADD35C,0.250000*%
%TD*%
%TA.AperFunction,Conductor*%
%ADD36C,1.500000*%
%TD*%
%TA.AperFunction,Conductor*%
%ADD37C,0.500000*%
%TD*%
%TA.AperFunction,Conductor*%
%ADD38C,5.000000*%
%TD*%
%TA.AperFunction,Conductor*%
%ADD39C,0.254000*%
%TD*%
%TA.AperFunction,Conductor*%
%ADD40C,0.100000*%
%TD*%
G04 APERTURE END LIST*
D10*
%TO.P,J2,1*%
%TO.N,/A*%
X130810000Y-149860000D03*
%TD*%
%TO.P,J3,1*%
%TO.N,/dian_ci_bu_chang-*%
X146050000Y-62230000D03*
%TD*%
%TO.P,J4,1*%
%TO.N,/chan_gan_qi_xin_hao-*%
X171200000Y-87300000D03*
%TD*%
%TO.P,J5,1*%
%TO.N,/B*%
X107950000Y-149860000D03*
%TD*%
%TO.P,J6,1*%
%TO.N,GND*%
X77470000Y-100330000D03*
%TD*%
%TO.P,J7,1*%
%TO.N,/dian_ci_bu_chang+*%
X170180000Y-63500000D03*
%TD*%
%TO.P,J8,1*%
%TO.N,/chuan_gan_qi_xin_hao+*%
X170688000Y-110109000D03*
%TD*%
D11*
%TO.P,DS1,16*%
%TO.N,Net-(DS1-Pad16)*%
X125730000Y-58420000D03*
%TO.P,DS1,15*%
%TO.N,Net-(DS1-Pad15)*%
X123190000Y-58420000D03*
%TO.P,DS1,14*%
%TO.N,Net-(DS1-Pad14)*%
X120650000Y-58420000D03*
%TO.P,DS1,13*%
%TO.N,Net-(DS1-Pad13)*%
X118110000Y-58420000D03*
%TO.P,DS1,12*%
%TO.N,Net-(DS1-Pad12)*%
X115570000Y-58420000D03*
%TO.P,DS1,11*%
%TO.N,Net-(DS1-Pad11)*%
X113030000Y-58420000D03*
%TO.P,DS1,10*%
%TO.N,N/C*%
X110490000Y-58420000D03*
%TO.P,DS1,9*%
X107950000Y-58420000D03*
%TO.P,DS1,8*%
X105410000Y-58420000D03*
%TO.P,DS1,7*%
X102870000Y-58420000D03*
%TO.P,DS1,6*%
%TO.N,Net-(DS1-Pad6)*%
X100330000Y-58420000D03*
%TO.P,DS1,5*%
%TO.N,GND*%
X97790000Y-58420000D03*
%TO.P,DS1,4*%
%TO.N,Net-(DS1-Pad4)*%
X95250000Y-58420000D03*
%TO.P,DS1,3*%
%TO.N,Net-(DS1-Pad3)*%
X92710000Y-58420000D03*
%TO.P,DS1,2*%
%TO.N,+5V*%
X90170000Y-58420000D03*
D10*
%TO.P,DS1,1*%
%TO.N,GND*%
X87630000Y-58420000D03*
%TD*%
D12*
%TO.P,D8,2*%
%TO.N,GND*%
X88900000Y-77470000D03*
D13*
%TO.P,D8,1*%
%TO.N,+5V*%
X88900000Y-67310000D03*
%TD*%
D12*
%TO.P,D7,2*%
%TO.N,-5V*%
X120650000Y-101600000D03*
D13*
%TO.P,D7,1*%
%TO.N,GND*%
X120650000Y-111760000D03*
%TD*%
D12*
%TO.P,D6,2*%
%TO.N,GND*%
X104140000Y-105410000D03*
D13*
%TO.P,D6,1*%
%TO.N,+12V*%
X93980000Y-105410000D03*
%TD*%
D14*
%TO.P,R49,2*%
%TO.N,Net-(R49-Pad2)*%
X170680000Y-71120000D03*
D15*
%TO.P,R49,1*%
%TO.N,Net-(Q22-Pad2)*%
X165600000Y-71120000D03*
%TD*%
D14*
%TO.P,R48,2*%
%TO.N,Net-(R48-Pad2)*%
X149860000Y-77470000D03*
D15*
%TO.P,R48,1*%
%TO.N,Net-(Q20-Pad2)*%
X149860000Y-72390000D03*
%TD*%
D14*
%TO.P,R47,2*%
%TO.N,Net-(C19-Pad1)*%
X131572000Y-83820000D03*
D15*
%TO.P,R47,1*%
%TO.N,Net-(C21-Pad2)*%
X136652000Y-83820000D03*
%TD*%
D14*
%TO.P,R46,2*%
%TO.N,Net-(C9-Pad1)*%
X145923000Y-88138000D03*
D15*
%TO.P,R46,1*%
%TO.N,Net-(C20-Pad1)*%
X151003000Y-88138000D03*
%TD*%
D14*
%TO.P,R45,2*%
%TO.N,Net-(C19-Pad1)*%
X131191000Y-87249000D03*
D15*
%TO.P,R45,1*%
%TO.N,GND*%
X126111000Y-87249000D03*
%TD*%
D14*
%TO.P,R44,2*%
%TO.N,GND*%
X143256000Y-89408000D03*
D15*
%TO.P,R44,1*%
%TO.N,Net-(C9-Pad1)*%
X138176000Y-89408000D03*
%TD*%
D14*
%TO.P,R43,2*%
%TO.N,Net-(R42-Pad2)*%
X149098000Y-108585000D03*
D15*
%TO.P,R43,1*%
%TO.N,/PA3_ADC*%
X149098000Y-113665000D03*
%TD*%
D14*
%TO.P,R42,2*%
%TO.N,Net-(R42-Pad2)*%
X149225000Y-105500000D03*
D15*
%TO.P,R42,1*%
%TO.N,Net-(R40-Pad1)*%
X154305000Y-105500000D03*
%TD*%
D14*
%TO.P,R41,2*%
%TO.N,Net-(C4-Pad1)*%
X146050000Y-93345000D03*
D15*
%TO.P,R41,1*%
%TO.N,/A_3.3V*%
X140970000Y-93345000D03*
%TD*%
D14*
%TO.P,R40,2*%
%TO.N,Net-(C4-Pad1)*%
X153670000Y-113665000D03*
D15*
%TO.P,R40,1*%
%TO.N,Net-(R40-Pad1)*%
X153670000Y-108585000D03*
%TD*%
D14*
%TO.P,R39,2*%
%TO.N,Net-(C4-Pad1)*%
X146685000Y-105410000D03*
D15*
%TO.P,R39,1*%
%TO.N,GND*%
X141605000Y-105410000D03*
%TD*%
D14*
%TO.P,R38,2*%
%TO.N,Net-(C4-Pad1)*%
X146685000Y-98425000D03*
D15*
%TO.P,R38,1*%
%TO.N,GND*%
X141605000Y-98425000D03*
%TD*%
D14*
%TO.P,R37,2*%
%TO.N,Net-(C4-Pad1)*%
X146685680Y-102077260D03*
D15*
%TO.P,R37,1*%
%TO.N,GND*%
X141605680Y-102077260D03*
%TD*%
D14*
%TO.P,R36,2*%
%TO.N,Net-(R34-Pad2)*%
X154280000Y-92200000D03*
D15*
%TO.P,R36,1*%
%TO.N,Net-(R36-Pad1)*%
X149200000Y-92200000D03*
%TD*%
D14*
%TO.P,R35,2*%
%TO.N,Net-(R33-Pad1)*%
X156845000Y-84582000D03*
D15*
%TO.P,R35,1*%
%TO.N,GND*%
X161925000Y-84582000D03*
%TD*%
D14*
%TO.P,R34,2*%
%TO.N,Net-(R34-Pad2)*%
X156845000Y-109220000D03*
D15*
%TO.P,R34,1*%
%TO.N,Net-(R32-Pad1)*%
X161925000Y-109220000D03*
%TD*%
D14*
%TO.P,R33,2*%
%TO.N,Net-(R31-Pad1)*%
X161925000Y-87630000D03*
D15*
%TO.P,R33,1*%
%TO.N,Net-(R33-Pad1)*%
X156845000Y-87630000D03*
%TD*%
D14*
%TO.P,R32,2*%
%TO.N,Net-(R30-Pad2)*%
X163520000Y-105700000D03*
D15*
%TO.P,R32,1*%
%TO.N,Net-(R32-Pad1)*%
X168600000Y-105700000D03*
%TD*%
D14*
%TO.P,R31,2*%
%TO.N,Net-(R30-Pad1)*%
X163195000Y-91440000D03*
D15*
%TO.P,R31,1*%
%TO.N,Net-(R31-Pad1)*%
X168275000Y-91440000D03*
%TD*%
D14*
%TO.P,R30,2*%
%TO.N,Net-(R30-Pad2)*%
X170815000Y-101600000D03*
D15*
%TO.P,R30,1*%
%TO.N,Net-(R30-Pad1)*%
X170815000Y-96520000D03*
%TD*%
D14*
%TO.P,R29,2*%
%TO.N,GND*%
X81915000Y-62103000D03*
D15*
%TO.P,R29,1*%
%TO.N,Net-(DS1-Pad3)*%
X81915000Y-57023000D03*
%TD*%
D14*
%TO.P,R28,2*%
%TO.N,Net-(Q19-Pad2)*%
X113030000Y-77470000D03*
D15*
%TO.P,R28,1*%
%TO.N,/PA2_SER*%
X113030000Y-82550000D03*
%TD*%
D14*
%TO.P,R27,2*%
%TO.N,GND*%
X135890000Y-58420000D03*
D15*
%TO.P,R27,1*%
%TO.N,Net-(DS1-Pad16)*%
X130810000Y-58420000D03*
%TD*%
D14*
%TO.P,R26,2*%
%TO.N,/PA0_SRCLK*%
X128270000Y-83820000D03*
D15*
%TO.P,R26,1*%
%TO.N,Net-(Q18-Pad2)*%
X128270000Y-78740000D03*
%TD*%
D14*
%TO.P,R25,2*%
%TO.N,/PA1_RCLK*%
X121920000Y-83820000D03*
D15*
%TO.P,R25,1*%
%TO.N,Net-(Q17-Pad2)*%
X121920000Y-78740000D03*
%TD*%
D14*
%TO.P,R24,2*%
%TO.N,/PA6_PWM*%
X98171000Y-112014000D03*
D15*
%TO.P,R24,1*%
%TO.N,Net-(Q16-Pad2)*%
X98171000Y-117094000D03*
%TD*%
D14*
%TO.P,R23,2*%
%TO.N,GND*%
X101981000Y-129159000D03*
D15*
%TO.P,R23,1*%
%TO.N,Net-(Q16-Pad3)*%
X101981000Y-124079000D03*
%TD*%
D14*
%TO.P,R22,2*%
%TO.N,Net-(Q15-Pad2)*%
X83566000Y-124714000D03*
D15*
%TO.P,R22,1*%
%TO.N,Net-(C3-Pad1)*%
X83566000Y-119634000D03*
%TD*%
D14*
%TO.P,R21,2*%
%TO.N,/PA6_PWM*%
X108000000Y-118110000D03*
D15*
%TO.P,R21,1*%
%TO.N,Net-(Q14-Pad2)*%
X108000000Y-123190000D03*
%TD*%
D14*
%TO.P,R20,2*%
%TO.N,/B*%
X95800000Y-139954000D03*
D15*
%TO.P,R20,1*%
%TO.N,Net-(D5-Pad2)*%
X95800000Y-134874000D03*
%TD*%
D14*
%TO.P,R19,2*%
%TO.N,Net-(Q11-Pad2)*%
X110744000Y-125095000D03*
D15*
%TO.P,R19,1*%
%TO.N,+12V*%
X115824000Y-125095000D03*
%TD*%
D14*
%TO.P,R18,2*%
%TO.N,Net-(D5-Pad1)*%
X81026000Y-129159000D03*
D15*
%TO.P,R18,1*%
%TO.N,Net-(Q13-Pad3)*%
X86106000Y-129159000D03*
%TD*%
D14*
%TO.P,R17,2*%
%TO.N,Net-(Q19-Pad1)*%
X133350000Y-62230000D03*
D15*
%TO.P,R17,1*%
%TO.N,+5V*%
X138430000Y-62230000D03*
%TD*%
D14*
%TO.P,R16,2*%
%TO.N,Net-(Q10-Pad1)*%
X119634000Y-138430000D03*
D15*
%TO.P,R16,1*%
%TO.N,Net-(Q11-Pad3)*%
X114554000Y-138430000D03*
%TD*%
D14*
%TO.P,R15,2*%
%TO.N,Net-(Q18-Pad1)*%
X133350000Y-72390000D03*
D15*
%TO.P,R15,1*%
%TO.N,+5V*%
X138430000Y-72390000D03*
%TD*%
D14*
%TO.P,R14,2*%
%TO.N,GND*%
X130810000Y-111760000D03*
D15*
%TO.P,R14,1*%
%TO.N,Net-(R14-Pad1)*%
X125730000Y-111760000D03*
%TD*%
D14*
%TO.P,R13,2*%
%TO.N,/B*%
X93091000Y-139319000D03*
D15*
%TO.P,R13,1*%
%TO.N,Net-(Q13-Pad3)*%
X88011000Y-139319000D03*
%TD*%
D14*
%TO.P,R12,2*%
%TO.N,Net-(Q17-Pad1)*%
X133350000Y-67310000D03*
D15*
%TO.P,R12,1*%
%TO.N,+5V*%
X138430000Y-67310000D03*
%TD*%
D14*
%TO.P,R11,2*%
%TO.N,GND*%
X124968000Y-137668000D03*
D15*
%TO.P,R11,1*%
%TO.N,Net-(Q10-Pad1)*%
X124968000Y-142748000D03*
%TD*%
D14*
%TO.P,R10,2*%
%TO.N,GND*%
X143637000Y-137795000D03*
D15*
%TO.P,R10,1*%
%TO.N,Net-(Q6-Pad3)*%
X143637000Y-142875000D03*
%TD*%
D14*
%TO.P,R9,2*%
%TO.N,/A*%
X162880000Y-135000000D03*
D15*
%TO.P,R9,1*%
%TO.N,Net-(Q4-Pad3)*%
X157800000Y-135000000D03*
%TD*%
D14*
%TO.P,R8,2*%
%TO.N,Net-(Q6-Pad3)*%
X139954000Y-137795000D03*
D15*
%TO.P,R8,1*%
%TO.N,Net-(Q5-Pad3)*%
X134874000Y-137795000D03*
%TD*%
D14*
%TO.P,R7,2*%
%TO.N,Net-(D1-Pad1)*%
X153416000Y-134366000D03*
D15*
%TO.P,R7,1*%
%TO.N,Net-(Q4-Pad3)*%
X153416000Y-129286000D03*
%TD*%
D14*
%TO.P,R6,2*%
%TO.N,Net-(Q3-Pad1)*%
X131064000Y-125730000D03*
D15*
%TO.P,R6,1*%
%TO.N,+12V*%
X136144000Y-125730000D03*
%TD*%
D14*
%TO.P,R5,2*%
%TO.N,/A*%
X165481000Y-131826000D03*
D15*
%TO.P,R5,1*%
%TO.N,Net-(D1-Pad2)*%
X165481000Y-126746000D03*
%TD*%
D14*
%TO.P,R4,2*%
%TO.N,/PA7_PWM1*%
X127500000Y-120720000D03*
D15*
%TO.P,R4,1*%
%TO.N,Net-(Q3-Pad2)*%
X127500000Y-125800000D03*
%TD*%
D14*
%TO.P,R3,2*%
%TO.N,GND*%
X170688000Y-128016000D03*
D15*
%TO.P,R3,1*%
%TO.N,Net-(Q1-Pad3)*%
X170688000Y-122936000D03*
%TD*%
D14*
%TO.P,R2,2*%
%TO.N,Net-(Q1-Pad1)*%
X152400000Y-125730000D03*
D15*
%TO.P,R2,1*%
%TO.N,Net-(C1-Pad1)*%
X152400000Y-120650000D03*
%TD*%
D14*
%TO.P,R1,2*%
%TO.N,/PA7_PWM1*%
X160274000Y-117221000D03*
D15*
%TO.P,R1,1*%
%TO.N,Net-(Q1-Pad2)*%
X165354000Y-117221000D03*
%TD*%
D16*
%TO.P,Q19,1*%
%TO.N,Net-(Q19-Pad1)*%
X115570000Y-72390000D03*
D17*
%TO.P,Q19,3*%
%TO.N,GND*%
X110490000Y-72390000D03*
%TO.P,Q19,2*%
%TO.N,Net-(Q19-Pad2)*%
X113030000Y-72390000D03*
%TD*%
D16*
%TO.P,Q18,1*%
%TO.N,Net-(Q18-Pad1)*%
X125730000Y-71120000D03*
D17*
%TO.P,Q18,3*%
%TO.N,GND*%
X125730000Y-76200000D03*
%TO.P,Q18,2*%
%TO.N,Net-(Q18-Pad2)*%
X125730000Y-73660000D03*
%TD*%
D16*
%TO.P,Q17,1*%
%TO.N,Net-(Q17-Pad1)*%
X119380000Y-71120000D03*
D17*
%TO.P,Q17,3*%
%TO.N,GND*%
X119380000Y-76200000D03*
%TO.P,Q17,2*%
%TO.N,Net-(Q17-Pad2)*%
X119380000Y-73660000D03*
%TD*%
%TO.P,Y1,2*%
%TO.N,Net-(C14-Pad1)*%
X127835000Y-104775000D03*
%TO.P,Y1,1*%
%TO.N,Net-(C15-Pad2)*%
X132715000Y-104775000D03*
%TD*%
D14*
%TO.P,U9,16*%
%TO.N,+5V*%
X110490000Y-68580000D03*
%TO.P,U9,8*%
%TO.N,GND*%
X128270000Y-60960000D03*
%TO.P,U9,15*%
%TO.N,Net-(DS1-Pad4)*%
X113030000Y-68580000D03*
%TO.P,U9,7*%
%TO.N,N/C*%
X125730000Y-60960000D03*
%TO.P,U9,14*%
%TO.N,Net-(Q19-Pad1)*%
X115570000Y-68580000D03*
%TO.P,U9,6*%
%TO.N,Net-(DS1-Pad15)*%
X123190000Y-60960000D03*
%TO.P,U9,13*%
%TO.N,GND*%
X118110000Y-68580000D03*
%TO.P,U9,5*%
%TO.N,Net-(DS1-Pad14)*%
X120650000Y-60960000D03*
%TO.P,U9,12*%
%TO.N,Net-(Q17-Pad1)*%
X120650000Y-68580000D03*
%TO.P,U9,4*%
%TO.N,Net-(DS1-Pad13)*%
X118110000Y-60960000D03*
%TO.P,U9,11*%
%TO.N,Net-(Q18-Pad1)*%
X123190000Y-68580000D03*
%TO.P,U9,3*%
%TO.N,Net-(DS1-Pad12)*%
X115570000Y-60960000D03*
%TO.P,U9,10*%
%TO.N,+5V*%
X125730000Y-68580000D03*
%TO.P,U9,2*%
%TO.N,Net-(DS1-Pad11)*%
X113030000Y-60960000D03*
%TO.P,U9,9*%
%TO.N,N/C*%
X128270000Y-68580000D03*
D18*
%TO.P,U9,1*%
%TO.N,Net-(DS1-Pad6)*%
X110490000Y-60960000D03*
%TD*%
D14*
%TO.P,U7,8*%
%TO.N,+5V*%
X154940000Y-81280000D03*
%TO.P,U7,4*%
%TO.N,-5V*%
X162560000Y-73660000D03*
%TO.P,U7,7*%
%TO.N,Net-(R48-Pad2)*%
X154940000Y-78740000D03*
%TO.P,U7,3*%
%TO.N,Net-(C21-Pad2)*%
X162560000Y-76200000D03*
%TO.P,U7,6*%
%TO.N,/dian_ci_bu_chang-*%
X154940000Y-76200000D03*
%TO.P,U7,2*%
%TO.N,/dian_ci_bu_chang+*%
X162560000Y-78740000D03*
%TO.P,U7,5*%
%TO.N,Net-(C20-Pad1)*%
X154940000Y-73660000D03*
D18*
%TO.P,U7,1*%
%TO.N,Net-(R49-Pad2)*%
X162560000Y-81280000D03*
%TD*%
D14*
%TO.P,U4,14*%
%TO.N,Net-(R32-Pad1)*%
X167005000Y-102870000D03*
%TO.P,U4,7*%
%TO.N,Net-(R36-Pad1)*%
X151765000Y-95250000D03*
%TO.P,U4,13*%
%TO.N,Net-(R30-Pad2)*%
X164465000Y-102870000D03*
%TO.P,U4,6*%
%TO.N,Net-(R34-Pad2)*%
X154305000Y-95250000D03*
%TO.P,U4,12*%
%TO.N,/chuan_gan_qi_xin_hao+*%
X161925000Y-102870000D03*
%TO.P,U4,5*%
%TO.N,Net-(R33-Pad1)*%
X156845000Y-95250000D03*
%TO.P,U4,11*%
%TO.N,-5V*%
X159385000Y-102870000D03*
%TO.P,U4,4*%
%TO.N,+5V*%
X159385000Y-95250000D03*
%TO.P,U4,10*%
%TO.N,Net-(R36-Pad1)*%
X156845000Y-102870000D03*
%TO.P,U4,3*%
%TO.N,/chan_gan_qi_xin_hao-*%
X161925000Y-95250000D03*
%TO.P,U4,9*%
%TO.N,Net-(R40-Pad1)*%
X154305000Y-102870000D03*
%TO.P,U4,2*%
%TO.N,Net-(R30-Pad1)*%
X164465000Y-95250000D03*
%TO.P,U4,8*%
%TO.N,Net-(R42-Pad2)*%
X151765000Y-102870000D03*
D18*
%TO.P,U4,1*%
%TO.N,Net-(R31-Pad1)*%
X167005000Y-95250000D03*
%TD*%
D19*
%TO.P,U3,3*%
%TO.N,+5V*%
X77470000Y-83820000D03*
%TO.P,U3,2*%
%TO.N,GND*%
X77470000Y-86360000D03*
D20*
%TO.P,U3,1*%
%TO.N,+12V*%
X77470000Y-88900000D03*
%TD*%
D21*
%TO.P,U2,3*%
%TO.N,-5V*%
X99253000Y-79829000D03*
D22*
%TO.P,U2,5*%
X102653000Y-88979000D03*
%TO.P,U2,4*%
%TO.N,GND*%
X100953000Y-88979000D03*
%TO.P,U2,3*%
%TO.N,-5V*%
X99253000Y-88979000D03*
%TO.P,U2,2*%
%TO.N,Net-(D2-Pad1)*%
X97553000Y-88979000D03*
%TO.P,U2,1*%
%TO.N,+12V*%
X95853000Y-88979000D03*
%TD*%
D16*
%TO.P,Q23,1*%
%TO.N,/dian_ci_bu_chang+*%
X165100000Y-59690000D03*
D17*
%TO.P,Q23,3*%
%TO.N,-5V*%
X160020000Y-59690000D03*
%TO.P,Q23,2*%
%TO.N,Net-(Q22-Pad2)*%
X162560000Y-59690000D03*
%TD*%
D16*
%TO.P,Q22,1*%
%TO.N,/dian_ci_bu_chang+*%
X165100000Y-66040000D03*
D17*
%TO.P,Q22,3*%
%TO.N,+5V*%
X160020000Y-66040000D03*
%TO.P,Q22,2*%
%TO.N,Net-(Q22-Pad2)*%
X162560000Y-66040000D03*
%TD*%
D16*
%TO.P,Q21,1*%
%TO.N,/dian_ci_bu_chang-*%
X152400000Y-59690000D03*
D17*
%TO.P,Q21,3*%
%TO.N,-5V*%
X157480000Y-59690000D03*
%TO.P,Q21,2*%
%TO.N,Net-(Q20-Pad2)*%
X154940000Y-59690000D03*
%TD*%
D16*
%TO.P,Q20,1*%
%TO.N,/dian_ci_bu_chang-*%
X152400000Y-66040000D03*
D17*
%TO.P,Q20,3*%
%TO.N,+5V*%
X157480000Y-66040000D03*
%TO.P,Q20,2*%
%TO.N,Net-(Q20-Pad2)*%
X154940000Y-66040000D03*
%TD*%
D16*
%TO.P,Q16,1*%
%TO.N,Net-(Q15-Pad2)*%
X94361000Y-123444000D03*
D17*
%TO.P,Q16,3*%
%TO.N,Net-(Q16-Pad3)*%
X99441000Y-123444000D03*
%TO.P,Q16,2*%
%TO.N,Net-(Q16-Pad2)*%
X96901000Y-123444000D03*
%TD*%
D16*
%TO.P,Q15,1*%
%TO.N,Net-(D5-Pad2)*%
X91186000Y-125984000D03*
D17*
%TO.P,Q15,3*%
%TO.N,Net-(C3-Pad1)*%
X91186000Y-120904000D03*
%TO.P,Q15,2*%
%TO.N,Net-(Q15-Pad2)*%
X91186000Y-123444000D03*
%TD*%
D16*
%TO.P,Q14,1*%
%TO.N,Net-(Q11-Pad2)*%
X110744000Y-132080000D03*
D17*
%TO.P,Q14,3*%
%TO.N,GND*%
X105664000Y-132080000D03*
%TO.P,Q14,2*%
%TO.N,Net-(Q14-Pad2)*%
X108204000Y-132080000D03*
%TD*%
D16*
%TO.P,Q13,1*%
%TO.N,/B*%
X93726000Y-129159000D03*
D17*
%TO.P,Q13,3*%
%TO.N,Net-(Q13-Pad3)*%
X88646000Y-129159000D03*
%TO.P,Q13,2*%
%TO.N,Net-(D5-Pad2)*%
X91186000Y-129159000D03*
%TD*%
D16*
%TO.P,Q12,1*%
%TO.N,GND*%
X120269000Y-129540000D03*
D17*
%TO.P,Q12,3*%
%TO.N,Net-(Q10-Pad1)*%
X120269000Y-134620000D03*
%TO.P,Q12,2*%
%TO.N,Net-(Q11-Pad2)*%
X120269000Y-132080000D03*
%TD*%
D16*
%TO.P,Q11,1*%
%TO.N,+12V*%
X113919000Y-129540000D03*
D17*
%TO.P,Q11,3*%
%TO.N,Net-(Q11-Pad3)*%
X113919000Y-134620000D03*
%TO.P,Q11,2*%
%TO.N,Net-(Q11-Pad2)*%
X113919000Y-132080000D03*
%TD*%
D23*
%TO.P,Q10,2*%
%TO.N,/B*%
X117349000Y-149630000D03*
D24*
%TO.P,Q10,3*%
%TO.N,GND*%
X115069000Y-143330000D03*
%TO.P,Q10,1*%
%TO.N,Net-(Q10-Pad1)*%
X119629000Y-143330000D03*
%TD*%
D23*
%TO.P,Q9,2*%
%TO.N,+12V*%
X85471000Y-149249000D03*
D24*
%TO.P,Q9,3*%
%TO.N,/B*%
X83191000Y-142949000D03*
%TO.P,Q9,1*%
%TO.N,Net-(Q13-Pad3)*%
X87751000Y-142949000D03*
%TD*%
D23*
%TO.P,Q8,2*%
%TO.N,/A*%
X137414000Y-148785000D03*
D24*
%TO.P,Q8,3*%
%TO.N,GND*%
X135134000Y-142485000D03*
%TO.P,Q8,1*%
%TO.N,Net-(Q6-Pad3)*%
X139694000Y-142485000D03*
%TD*%
D23*
%TO.P,Q7,2*%
%TO.N,+12V*%
X154941000Y-149503000D03*
D24*
%TO.P,Q7,3*%
%TO.N,/A*%
X152661000Y-143203000D03*
%TO.P,Q7,1*%
%TO.N,Net-(Q4-Pad3)*%
X157221000Y-143203000D03*
%TD*%
D16*
%TO.P,Q6,1*%
%TO.N,GND*%
X141224000Y-129540000D03*
D17*
%TO.P,Q6,3*%
%TO.N,Net-(Q6-Pad3)*%
X141224000Y-134620000D03*
%TO.P,Q6,2*%
%TO.N,Net-(Q3-Pad1)*%
X141224000Y-132080000D03*
%TD*%
D16*
%TO.P,Q5,1*%
%TO.N,+12V*%
X134239000Y-129540000D03*
D17*
%TO.P,Q5,3*%
%TO.N,Net-(Q5-Pad3)*%
X134239000Y-134620000D03*
%TO.P,Q5,2*%
%TO.N,Net-(Q3-Pad1)*%
X134239000Y-132080000D03*
%TD*%
D16*
%TO.P,Q4,1*%
%TO.N,/A*%
X162306000Y-128651000D03*
D17*
%TO.P,Q4,3*%
%TO.N,Net-(Q4-Pad3)*%
X157226000Y-128651000D03*
%TO.P,Q4,2*%
%TO.N,Net-(D1-Pad2)*%
X159766000Y-128651000D03*
%TD*%
D16*
%TO.P,Q3,1*%
%TO.N,Net-(Q3-Pad1)*%
X131064000Y-132080000D03*
D17*
%TO.P,Q3,3*%
%TO.N,GND*%
X125984000Y-132080000D03*
%TO.P,Q3,2*%
%TO.N,Net-(Q3-Pad2)*%
X128524000Y-132080000D03*
%TD*%
D16*
%TO.P,Q2,1*%
%TO.N,Net-(D1-Pad2)*%
X159766000Y-125476000D03*
D17*
%TO.P,Q2,3*%
%TO.N,Net-(C1-Pad1)*%
X159766000Y-120396000D03*
%TO.P,Q2,2*%
%TO.N,Net-(Q1-Pad1)*%
X159766000Y-122936000D03*
%TD*%
D16*
%TO.P,Q1,1*%
%TO.N,Net-(Q1-Pad1)*%
X162941000Y-122936000D03*
D17*
%TO.P,Q1,3*%
%TO.N,Net-(Q1-Pad3)*%
X168021000Y-122936000D03*
%TO.P,Q1,2*%
%TO.N,Net-(Q1-Pad2)*%
X165481000Y-122936000D03*
%TD*%
D25*
%TO.P,L1,2*%
%TO.N,Net-(D2-Pad1)*%
X100900000Y-100000000D03*
%TO.P,L1,1*%
%TO.N,GND*%
X100900000Y-95000000D03*
%TD*%
D11*
%TO.P,J11,3*%
%TO.N,/DIO*%
X131318000Y-116840000D03*
%TO.P,J11,2*%
%TO.N,/CLK*%
X128778000Y-116840000D03*
D10*
%TO.P,J11,1*%
%TO.N,GND*%
X126238000Y-116840000D03*
%TD*%
%TO.P,J1,1*%
%TO.N,+12V*%
X77470000Y-109220000D03*
%TD*%
D14*
%TO.P,D5,2*%
%TO.N,Net-(D5-Pad2)*%
X90551000Y-134874000D03*
D18*
%TO.P,D5,1*%
%TO.N,Net-(D5-Pad1)*%
X82931000Y-134874000D03*
%TD*%
D12*
%TO.P,D4,2*%
%TO.N,+12V*%
X93472000Y-114300000D03*
D13*
%TO.P,D4,1*%
%TO.N,Net-(C3-Pad1)*%
X83312000Y-114300000D03*
%TD*%
D12*
%TO.P,D3,2*%
%TO.N,+12V*%
X136906000Y-122428000D03*
D13*
%TO.P,D3,1*%
%TO.N,Net-(C1-Pad1)*%
X147066000Y-122428000D03*
%TD*%
D26*
%TO.P,D2,2*%
%TO.N,-5V*%
X88138000Y-82169000D03*
D27*
%TO.P,D2,1*%
%TO.N,Net-(D2-Pad1)*%
X88138000Y-97409000D03*
%TD*%
D14*
%TO.P,D1,2*%
%TO.N,Net-(D1-Pad2)*%
X161036000Y-138811000D03*
D18*
%TO.P,D1,1*%
%TO.N,Net-(D1-Pad1)*%
X153416000Y-138811000D03*
%TD*%
D15*
%TO.P,C26,2*%
%TO.N,GND*%
X141732000Y-114086000D03*
%TO.P,C26,1*%
%TO.N,Net-(C26-Pad1)*%
X141732000Y-116586000D03*
%TD*%
%TO.P,C21,2*%
%TO.N,Net-(C21-Pad2)*%
X140756000Y-83439000D03*
%TO.P,C21,1*%
%TO.N,GND*%
X143256000Y-83439000D03*
%TD*%
%TO.P,C20,2*%
%TO.N,GND*%
X147995000Y-83693000D03*
%TO.P,C20,1*%
%TO.N,Net-(C20-Pad1)*%
X150495000Y-83693000D03*
%TD*%
%TO.P,C17,2*%
%TO.N,GND*%
X116880000Y-97790000D03*
%TO.P,C17,1*%
%TO.N,Net-(C17-Pad1)*%
X119380000Y-97790000D03*
%TD*%
D28*
%TO.P,C13,2*%
%TO.N,-5V*%
X113990000Y-104140000D03*
D29*
%TO.P,C13,1*%
%TO.N,GND*%
X110490000Y-104140000D03*
%TD*%
D28*
%TO.P,C12,2*%
%TO.N,GND*%
X77780000Y-68580000D03*
D29*
%TO.P,C12,1*%
%TO.N,+5V*%
X81280000Y-68580000D03*
%TD*%
D15*
%TO.P,C11,2*%
%TO.N,-5V*%
X112990000Y-113030000D03*
%TO.P,C11,1*%
%TO.N,GND*%
X110490000Y-113030000D03*
%TD*%
%TO.P,C10,2*%
%TO.N,GND*%
X78740000Y-77470000D03*
%TO.P,C10,1*%
%TO.N,+5V*%
X81240000Y-77470000D03*
%TD*%
%TO.P,C8,2*%
%TO.N,Net-(C26-Pad1)*%
X146177000Y-116586000D03*
%TO.P,C8,1*%
%TO.N,/PA3_ADC*%
X146177000Y-114086000D03*
%TD*%
D28*
%TO.P,C7,2*%
%TO.N,GND*%
X84130000Y-105410000D03*
D29*
%TO.P,C7,1*%
%TO.N,+12V*%
X87630000Y-105410000D03*
%TD*%
D15*
%TO.P,C6,2*%
%TO.N,GND*%
X80050000Y-96520000D03*
%TO.P,C6,1*%
%TO.N,+12V*%
X82550000Y-96520000D03*
%TD*%
%TO.P,C5,2*%
%TO.N,/A_3.3V*%
X138800000Y-95925000D03*
%TO.P,C5,1*%
%TO.N,GND*%
X138800000Y-98425000D03*
%TD*%
%TO.P,C4,2*%
%TO.N,GND*%
X142915000Y-108585000D03*
%TO.P,C4,1*%
%TO.N,Net-(C4-Pad1)*%
X145415000Y-108585000D03*
%TD*%
%TO.P,C3,2*%
%TO.N,/B*%
%TA.AperFunction,SMDPad,CuDef*%
G36*
G01*
X94176000Y-118839000D02*
X94176000Y-117889000D01*
G75*
G02*
X94426000Y-117639000I250000J0D01*
G01*
X95101000Y-117639000D01*
G75*
G02*
X95351000Y-117889000I0J-250000D01*
G01*
X95351000Y-118839000D01*
G75*
G02*
X95101000Y-119089000I-250000J0D01*
G01*
X94426000Y-119089000D01*
G75*
G02*
X94176000Y-118839000I0J250000D01*
G01*
G37*
%TD.AperFunction*%
%TO.P,C3,1*%
%TO.N,Net-(C3-Pad1)*%
%TA.AperFunction,SMDPad,CuDef*%
G36*
G01*
X92101000Y-118839000D02*
X92101000Y-117889000D01*
G75*
G02*
X92351000Y-117639000I250000J0D01*
G01*
X93026000Y-117639000D01*
G75*
G02*
X93276000Y-117889000I0J-250000D01*
G01*
X93276000Y-118839000D01*
G75*
G02*
X93026000Y-119089000I-250000J0D01*
G01*
X92351000Y-119089000D01*
G75*
G02*
X92101000Y-118839000I0J250000D01*
G01*
G37*
%TD.AperFunction*%
%TD*%
%TO.P,C1,2*%
%TO.N,/A*%
%TA.AperFunction,SMDPad,CuDef*%
G36*
G01*
X167927000Y-132784000D02*
X168877000Y-132784000D01*
G75*
G02*
X169127000Y-133034000I0J-250000D01*
G01*
X169127000Y-133709000D01*
G75*
G02*
X168877000Y-133959000I-250000J0D01*
G01*
X167927000Y-133959000D01*
G75*
G02*
X167677000Y-133709000I0J250000D01*
G01*
X167677000Y-133034000D01*
G75*
G02*
X167927000Y-132784000I250000J0D01*
G01*
G37*
%TD.AperFunction*%
%TO.P,C1,1*%
%TO.N,Net-(C1-Pad1)*%
%TA.AperFunction,SMDPad,CuDef*%
G36*
G01*
X167927000Y-130709000D02*
X168877000Y-130709000D01*
G75*
G02*
X169127000Y-130959000I0J-250000D01*
G01*
X169127000Y-131634000D01*
G75*
G02*
X168877000Y-131884000I-250000J0D01*
G01*
X167927000Y-131884000D01*
G75*
G02*
X167677000Y-131634000I0J250000D01*
G01*
X167677000Y-130959000D01*
G75*
G02*
X167927000Y-130709000I250000J0D01*
G01*
G37*
%TD.AperFunction*%
%TD*%
D30*
%TO.N,*%
X76840000Y-151890000D03*
X170180000Y-151130000D03*
%TO.N,GND*%
X76840000Y-57890000D03*
D31*
X170830000Y-58050000D03*
D32*
%TO.N,+12V*%
X99060000Y-147320000D03*
X99060000Y-149860000D03*
X99060000Y-152400000D03*
X96520000Y-152400000D03*
X96520000Y-149860000D03*
X96520000Y-147320000D03*
X93980000Y-147320000D03*
X93980000Y-149860000D03*
X93980000Y-152400000D03*
X91440000Y-152400000D03*
X91440000Y-149860000D03*
X91440000Y-147320000D03*
X80525000Y-148075000D03*
X81280000Y-151130000D03*
X81280000Y-153670000D03*
X147320000Y-147320000D03*
X147320000Y-149860000D03*
X147320000Y-152400000D03*
X149860000Y-152400000D03*
X149860000Y-149860000D03*
X149815000Y-147365000D03*
X160020000Y-147320000D03*
X160020000Y-149860000D03*
X160020000Y-152400000D03*
X162560000Y-152400000D03*
X162560000Y-149860000D03*
X162560000Y-147320000D03*
X165100000Y-147320000D03*
X165100000Y-149860000D03*
X165100000Y-152400000D03*
%TO.N,/PA3_ADC*%
X130175000Y-93599000D03*
D33*
%TO.N,-5V*%
X139700000Y-77470000D03*
X142240000Y-72390000D03*
D32*
X137033000Y-118110000D03*
X134239000Y-118999000D03*
X116522500Y-116649500D03*
%TO.N,/PA10_TIM1_CH3*%
X130302000Y-99187000D03*
X130429000Y-100965000D03*
%TO.N,/DIO*%
X134747000Y-103759000D03*
%TO.N,/CLK*%
X130683000Y-102616000D03*
%TO.N,/PA7_PWM1*%
X134620000Y-98171000D03*
%TO.N,/PA6_PWM*%
X131318000Y-94869000D03*
%TO.N,/PA1_RCLK*%
X123952000Y-95504000D03*
%TO.N,/PA0_SRCLK*%
X124206000Y-93726000D03*
%TO.N,/PA2_SER*%
X124206000Y-96520000D03*
%TO.N,/A*%
X153289000Y-141351000D03*
X142240000Y-151130000D03*
X142240000Y-153670000D03*
X130810000Y-152400000D03*
X129540000Y-147320000D03*
X132080000Y-147320000D03*
X132080000Y-152400000D03*
D31*
X150503000Y-143203000D03*
X142700000Y-148100000D03*
D32*
%TO.N,/B*%
X86106000Y-137414000D03*
X121920000Y-147320000D03*
X121920000Y-149860000D03*
X121920000Y-152400000D03*
X124460000Y-147320000D03*
X124460000Y-149860000D03*
X124460000Y-152400000D03*
X110490000Y-147320000D03*
X110720000Y-149630000D03*
X110490000Y-152400000D03*
D31*
X80400000Y-141200000D03*
X104760000Y-147940000D03*
%TD*%
D34*
%TO.N,Net-(C1-Pad1)*%
X152654000Y-120396000D02*
X152400000Y-120650000D01*
X159766000Y-120396000D02*
X152654000Y-120396000D01*
D35*
X166370000Y-124968000D02*
X167386000Y-125984000D01*
X165608000Y-124968000D02*
X166370000Y-124968000D01*
X164084000Y-123444000D02*
X165608000Y-124968000D01*
X164084000Y-121993998D02*
X164084000Y-123444000D01*
X162486002Y-120396000D02*
X164084000Y-121993998D01*
X159766000Y-120396000D02*
X162486002Y-120396000D01*
D34*
X168402000Y-130302000D02*
X167386000Y-129286000D01*
X168402000Y-131296500D02*
X168402000Y-130302000D01*
D35*
X167386000Y-125984000D02*
X167386000Y-129286000D01*
D34*
X150622000Y-122428000D02*
X152400000Y-120650000D01*
X147066000Y-122428000D02*
X150622000Y-122428000D01*
%TO.N,GND*%
X115069000Y-143330000D02*
X115069000Y-141739000D01*
X115069000Y-141739000D02*
X114300000Y-140970000D01*
X114300000Y-140970000D02*
X113030000Y-140970000D01*
X105664000Y-133604000D02*
X105664000Y-132080000D01*
X113030000Y-140970000D02*
X105664000Y-133604000D01*
X104902000Y-132080000D02*
X101981000Y-129159000D01*
X105664000Y-132080000D02*
X104902000Y-132080000D01*
X135134000Y-142485000D02*
X134865000Y-142485000D01*
X125984000Y-133604000D02*
X125984000Y-132080000D01*
X134865000Y-142485000D02*
X125984000Y-133604000D01*
X125984000Y-132080000D02*
X123444000Y-129540000D01*
X123444000Y-129540000D02*
X120269000Y-129540000D01*
X141605000Y-98425000D02*
X141605000Y-105410000D01*
X142915000Y-106720000D02*
X141605000Y-105410000D01*
X142915000Y-108585000D02*
X142915000Y-106720000D01*
X100838000Y-89094000D02*
X100953000Y-88979000D01*
X100900000Y-89032000D02*
X100953000Y-88979000D01*
X100900000Y-95000000D02*
X100900000Y-89032000D01*
X138800000Y-98425000D02*
X141605000Y-98425000D01*
%TO.N,Net-(C3-Pad1)*%
X92688500Y-119401500D02*
X91186000Y-120904000D01*
X92688500Y-118364000D02*
X92688500Y-119401500D01*
X89916000Y-119634000D02*
X91186000Y-120904000D01*
X83566000Y-119634000D02*
X89916000Y-119634000D01*
X83312000Y-119380000D02*
X83566000Y-119634000D01*
X83312000Y-114300000D02*
X83312000Y-119380000D01*
%TO.N,Net-(C4-Pad1)*%
X146685000Y-98425000D02*
X146685000Y-105410000D01*
X145415000Y-106680000D02*
X146685000Y-105410000D01*
X145415000Y-108585000D02*
X145415000Y-106680000D01*
X146685000Y-93980000D02*
X146050000Y-93345000D01*
X146685000Y-98425000D02*
X146685000Y-93980000D01*
X153670000Y-113665000D02*
X151257000Y-111252000D01*
X151257000Y-111252000D02*
X148590000Y-111252000D01*
X145923000Y-108585000D02*
X145415000Y-108585000D01*
X148590000Y-111252000D02*
X145923000Y-108585000D01*
%TO.N,/A_3.3V*%
X139065000Y-95925000D02*
X139065000Y-95250000D01*
X138800000Y-95515000D02*
X140970000Y-93345000D01*
X138800000Y-95925000D02*
X138800000Y-95515000D01*
%TO.N,+12V*%
X115824000Y-125095000D02*
X115824000Y-127635000D01*
X115824000Y-127635000D02*
X113919000Y-129540000D01*
X134239000Y-127635000D02*
X136144000Y-125730000D01*
X134239000Y-129540000D02*
X134239000Y-127635000D01*
X115824000Y-125095000D02*
X122809000Y-125095000D01*
X122809000Y-125095000D02*
X124714000Y-123190000D01*
X133604000Y-123190000D02*
X136144000Y-125730000D01*
X124714000Y-123190000D02*
X133604000Y-123190000D01*
X93472000Y-114300000D02*
X99822000Y-114300000D01*
X136906000Y-124968000D02*
X136144000Y-125730000D01*
X136906000Y-122428000D02*
X136906000Y-124968000D01*
X99822000Y-114300000D02*
X99822000Y-114554000D01*
X99822000Y-114554000D02*
X105664000Y-120396000D01*
X111125000Y-120396000D02*
X115824000Y-125095000D01*
X105664000Y-120396000D02*
X111125000Y-120396000D01*
D36*
X93472000Y-113522000D02*
X93472000Y-114300000D01*
X81699000Y-149249000D02*
X80525000Y-148075000D01*
X85471000Y-149249000D02*
X81699000Y-149249000D01*
X154941000Y-149503000D02*
X151953000Y-149503000D01*
X151953000Y-149503000D02*
X149815000Y-147365000D01*
X146840000Y-144390000D02*
X146840000Y-129390000D01*
X143180000Y-125730000D02*
X136144000Y-125730000D01*
X146840000Y-129390000D02*
X143180000Y-125730000D01*
X80525000Y-148075000D02*
X76840000Y-144390000D01*
X149815000Y-147365000D02*
X146840000Y-144390000D01*
X82550000Y-96520000D02*
X82550000Y-93980000D01*
D34*
X93980000Y-105410000D02*
X87630000Y-105410000D01*
D36*
X76840000Y-144390000D02*
X76840000Y-114390000D01*
X93472000Y-105918000D02*
X93980000Y-105410000D01*
X93472000Y-114300000D02*
X93472000Y-105918000D01*
X76840000Y-114390000D02*
X77380000Y-114390000D01*
X81280000Y-110490000D02*
X86360000Y-110490000D01*
X87630000Y-109220000D02*
X87630000Y-105410000D01*
X86360000Y-110490000D02*
X87630000Y-109220000D01*
X82550000Y-96520000D02*
X82550000Y-97790000D01*
X87630000Y-102870000D02*
X87630000Y-105410000D01*
X82550000Y-97790000D02*
X87630000Y-102870000D01*
X82550000Y-93980000D02*
X77470000Y-88900000D01*
X93980000Y-88900000D02*
X95250000Y-88900000D01*
D34*
X95853000Y-88979000D02*
X94059000Y-88979000D01*
X94059000Y-88979000D02*
X93980000Y-88900000D01*
D36*
X77470000Y-88900000D02*
X93980000Y-88900000D01*
X77380000Y-114390000D02*
X81280000Y-110490000D01*
X80010000Y-109220000D02*
X81280000Y-110490000D01*
X77470000Y-109220000D02*
X80010000Y-109220000D01*
D34*
%TO.N,/PA3_ADC*%
X146598000Y-113665000D02*
X146177000Y-114086000D01*
X149098000Y-113665000D02*
X146598000Y-113665000D01*
D37*
X146177000Y-114086000D02*
X144145000Y-112054000D01*
X144145000Y-112054000D02*
X143931000Y-112054000D01*
X143931000Y-112054000D02*
X142621000Y-110744000D01*
X142621000Y-110744000D02*
X142240000Y-110744000D01*
X142240000Y-110744000D02*
X139192000Y-107696000D01*
X139192000Y-107696000D02*
X139192000Y-100965000D01*
X139192000Y-100965000D02*
X137160000Y-98933000D01*
X137160000Y-98933000D02*
X137160000Y-96520000D01*
X137160000Y-96520000D02*
X134239000Y-93599000D01*
X134239000Y-93599000D02*
X130175000Y-93599000D01*
D34*
%TO.N,Net-(C9-Pad1)*%
X145923000Y-88138000D02*
X144780000Y-86995000D01*
X140589000Y-86995000D02*
X138176000Y-89408000D01*
X144780000Y-86995000D02*
X140589000Y-86995000D01*
D36*
%TO.N,+5V*%
X81240000Y-68620000D02*
X81280000Y-68580000D01*
X81240000Y-77470000D02*
X81240000Y-68620000D01*
X77470000Y-83820000D02*
X81280000Y-80010000D01*
X81240000Y-79970000D02*
X81240000Y-77470000D01*
X81280000Y-80010000D02*
X81240000Y-79970000D01*
D34*
X83820000Y-66040000D02*
X81280000Y-68580000D01*
X86360000Y-66040000D02*
X83820000Y-66040000D01*
X88900000Y-66040000D02*
X87630000Y-64770000D01*
X88900000Y-67310000D02*
X88900000Y-66040000D01*
X87630000Y-64770000D02*
X86360000Y-66040000D01*
D36*
X157480000Y-66040000D02*
X160020000Y-66040000D01*
X157480000Y-66040000D02*
X157480000Y-67310000D01*
X157480000Y-67310000D02*
X158750000Y-68580000D01*
D34*
X160020000Y-72390000D02*
X160020000Y-81280000D01*
X158750000Y-71120000D02*
X160020000Y-72390000D01*
X158750000Y-68580000D02*
X158750000Y-71120000D01*
X160020000Y-81280000D02*
X159385000Y-81280000D01*
X159385000Y-81280000D02*
X154940000Y-81280000D01*
X110490000Y-68580000D02*
X110490000Y-67310000D01*
X110490000Y-67310000D02*
X107950000Y-64770000D01*
X107950000Y-64770000D02*
X104140000Y-64770000D01*
X89535000Y-62865000D02*
X87630000Y-64770000D01*
X90170000Y-57150000D02*
X91440000Y-55880000D01*
X90170000Y-58420000D02*
X90170000Y-57150000D01*
X90170000Y-58420000D02*
X90170000Y-62230000D01*
X90170000Y-62230000D02*
X89535000Y-62865000D01*
X101600000Y-62230000D02*
X90170000Y-62230000D01*
X104140000Y-64770000D02*
X101600000Y-62230000D01*
X147320000Y-81280000D02*
X154940000Y-81280000D01*
X138430000Y-72390000D02*
X147320000Y-81280000D01*
X91440000Y-55880000D02*
X138430000Y-55880000D01*
X159385000Y-95250000D02*
X159385000Y-81280000D01*
D37*
X137900000Y-70100000D02*
X138430000Y-69570000D01*
X125730000Y-68580000D02*
X127250000Y-70100000D01*
D34*
X138430000Y-69570000D02*
X138430000Y-72390000D01*
D37*
X127250000Y-70100000D02*
X137900000Y-70100000D01*
D34*
X138430000Y-55880000D02*
X138430000Y-69570000D01*
%TO.N,-5V*%
X99253000Y-88979000D02*
X99253000Y-79829000D01*
X102653000Y-83229000D02*
X99253000Y-79829000D01*
D36*
X99253000Y-79829000D02*
X101419000Y-79829000D01*
X113990000Y-112030000D02*
X112990000Y-113030000D01*
X113990000Y-104140000D02*
X113990000Y-112030000D01*
X157480000Y-59690000D02*
X160020000Y-59690000D01*
D34*
X162560000Y-73660000D02*
X162560000Y-72390000D01*
X162560000Y-72390000D02*
X161290000Y-71120000D01*
X161290000Y-71120000D02*
X161290000Y-69850000D01*
D37*
X161290000Y-69850000D02*
X161290000Y-64770000D01*
X161290000Y-64770000D02*
X160020000Y-63500000D01*
X160020000Y-63500000D02*
X160020000Y-62230000D01*
D36*
X160020000Y-59690000D02*
X160020000Y-62230000D01*
D34*
X157480000Y-59690000D02*
X157480000Y-57150000D01*
D36*
X116530000Y-101600000D02*
X113990000Y-104140000D01*
X120650000Y-101600000D02*
X116530000Y-101600000D01*
X113990000Y-101290000D02*
X113990000Y-104140000D01*
X109220000Y-96520000D02*
X113990000Y-101290000D01*
X101419000Y-79829000D02*
X109220000Y-87630000D01*
D34*
X136842500Y-80327500D02*
X135890000Y-81280000D01*
X139700000Y-77470000D02*
X136842500Y-80327500D01*
X135890000Y-81280000D02*
X119380000Y-81280000D01*
X119380000Y-81280000D02*
X117929000Y-79829000D01*
X142240000Y-72390000D02*
X142240000Y-72390000D01*
X142240000Y-57150000D02*
X142240000Y-72390000D01*
X157480000Y-57150000D02*
X142240000Y-57150000D01*
X159385000Y-102870000D02*
X159385000Y-112649000D01*
X159385000Y-112649000D02*
X156464000Y-115570000D01*
X156464000Y-115570000D02*
X150876000Y-115570000D01*
D37*
X150622000Y-115570000D02*
X148082000Y-118110000D01*
X150876000Y-115570000D02*
X150622000Y-115570000D01*
X148082000Y-118110000D02*
X139700000Y-118110000D01*
X139700000Y-118110000D02*
X137033000Y-118110000D01*
X137033000Y-118110000D02*
X137033000Y-118110000D01*
X134239000Y-118999000D02*
X118872000Y-118999000D01*
X118872000Y-118999000D02*
X116522500Y-116649500D01*
X116522500Y-116649500D02*
X116459000Y-116586000D01*
D38*
X99253000Y-79829000D02*
X104575000Y-79829000D01*
X104575000Y-79829000D02*
X105264000Y-80518000D01*
X105264000Y-80518000D02*
X105727500Y-80518000D01*
X98869500Y-82169000D02*
X88138000Y-82169000D01*
X105092500Y-75946000D02*
X98869500Y-82169000D01*
X105727500Y-80518000D02*
X105727500Y-87757000D01*
X109220000Y-91249500D02*
X109220000Y-95694500D01*
X105727500Y-87757000D02*
X109220000Y-91249500D01*
D36*
X109220000Y-95694500D02*
X109220000Y-96520000D01*
X109220000Y-87630000D02*
X109220000Y-95694500D01*
D38*
X109220000Y-95694500D02*
X109220000Y-95313500D01*
X109220000Y-95313500D02*
X104648000Y-90741500D01*
D34*
X102653000Y-86513500D02*
X102653000Y-88979000D01*
X102653000Y-85723000D02*
X102653000Y-83229000D01*
X102653000Y-88979000D02*
X102653000Y-85723000D01*
X104687000Y-87757000D02*
X105727500Y-87757000D01*
X103180000Y-86306000D02*
X103180000Y-86250000D01*
X102653000Y-86833000D02*
X103180000Y-86306000D01*
X102653000Y-85723000D02*
X102653000Y-86833000D01*
X103180000Y-86306000D02*
X103180000Y-84880000D01*
X102653000Y-87777000D02*
X103680000Y-86750000D01*
X102653000Y-88979000D02*
X102653000Y-87777000D01*
X103680000Y-86750000D02*
X104687000Y-87757000D01*
X103180000Y-86250000D02*
X103680000Y-86750000D01*
X103875000Y-87757000D02*
X105727500Y-87757000D01*
X102653000Y-88979000D02*
X103875000Y-87757000D01*
D38*
X114651990Y-90714630D02*
X113567010Y-90714630D01*
X113567010Y-90714630D02*
X108694220Y-85841840D01*
X110053120Y-95313500D02*
X114651990Y-90714630D01*
X109220000Y-95313500D02*
X110053120Y-95313500D01*
D34*
X108048400Y-79829000D02*
X99253000Y-79829000D01*
X117929000Y-79829000D02*
X108048400Y-79829000D01*
D38*
X96037400Y-75946000D02*
X95628460Y-75537060D01*
X95628460Y-75537060D02*
X95628460Y-67203320D01*
X95628460Y-67203320D02*
X98884740Y-67203320D01*
X98884740Y-67203320D02*
X99758500Y-68077080D01*
X99758500Y-68077080D02*
X99758500Y-72839580D01*
X99758500Y-72839580D02*
X101391720Y-71206360D01*
X101391720Y-71206360D02*
X105018840Y-71206360D01*
X99253000Y-79829000D02*
X99253000Y-77261760D01*
X99253000Y-77261760D02*
X101612700Y-74902060D01*
D35*
%TO.N,/PA10_TIM1_CH3*%
X130429000Y-100965000D02*
X130429000Y-100965000D01*
D37*
X130429000Y-99314000D02*
X130302000Y-99187000D01*
X130429000Y-100965000D02*
X130429000Y-99314000D01*
D34*
%TO.N,Net-(C19-Pad1)*%
X131191000Y-84201000D02*
X131572000Y-83820000D01*
X131191000Y-87249000D02*
X131191000Y-84201000D01*
%TO.N,Net-(C20-Pad1)*%
X151003000Y-84201000D02*
X150495000Y-83693000D01*
X151003000Y-88138000D02*
X151003000Y-84201000D01*
%TO.N,Net-(C21-Pad2)*%
X137033000Y-83439000D02*
X136652000Y-83820000D01*
X140756000Y-83439000D02*
X137033000Y-83439000D01*
%TO.N,Net-(D1-Pad2)*%
X159766000Y-125476000D02*
X159766000Y-128651000D01*
X165481000Y-126746000D02*
X164211000Y-126746000D01*
X162941000Y-125476000D02*
X159766000Y-125476000D01*
X164211000Y-126746000D02*
X162941000Y-125476000D01*
X159766000Y-128651000D02*
X159766000Y-132461000D01*
X161036000Y-133731000D02*
X161036000Y-138811000D01*
X159766000Y-132461000D02*
X161036000Y-133731000D01*
%TO.N,Net-(D1-Pad1)*%
X153416000Y-134366000D02*
X153416000Y-138811000D01*
%TO.N,Net-(D2-Pad1)*%
X88138000Y-97409000D02*
X92423000Y-97409000D01*
X95678000Y-99234000D02*
X93138000Y-96694000D01*
X92423000Y-97409000D02*
X93138000Y-96694000D01*
X97553000Y-92279000D02*
X97553000Y-88979000D01*
X93138000Y-96694000D02*
X97553000Y-92279000D01*
X96444000Y-100000000D02*
X95678000Y-99234000D01*
X100900000Y-100000000D02*
X96444000Y-100000000D01*
%TO.N,Net-(D5-Pad2)*%
X91186000Y-125984000D02*
X91186000Y-129159000D01*
X91186000Y-134239000D02*
X90551000Y-134874000D01*
X91186000Y-129159000D02*
X91186000Y-134239000D01*
X95631000Y-134874000D02*
X90551000Y-134874000D01*
%TO.N,Net-(D5-Pad1)*%
X81026000Y-132969000D02*
X81026000Y-129159000D01*
X82931000Y-134874000D02*
X81026000Y-132969000D01*
%TO.N,Net-(DS1-Pad16)*%
X130810000Y-58420000D02*
X125730000Y-58420000D01*
D36*
%TO.N,Net-(DS1-Pad14)*%
X120650000Y-60960000D02*
X120650000Y-58420000D01*
%TO.N,Net-(DS1-Pad13)*%
X118110000Y-60960000D02*
X118110000Y-58420000D01*
%TO.N,Net-(DS1-Pad12)*%
X115570000Y-60960000D02*
X115570000Y-58420000D01*
%TO.N,Net-(DS1-Pad11)*%
X113030000Y-60960000D02*
X113030000Y-58420000D01*
D37*
%TO.N,Net-(DS1-Pad6)*%
X110490000Y-60960000D02*
X107460000Y-60960000D01*
X107460000Y-60960000D02*
X106500000Y-60000000D01*
X101910000Y-60000000D02*
X100330000Y-58420000D01*
X106500000Y-60000000D02*
X101910000Y-60000000D01*
%TO.N,Net-(DS1-Pad4)*%
X95250000Y-58420000D02*
X95250000Y-59690000D01*
X95250000Y-59690000D02*
X96520000Y-60960000D01*
X96520000Y-60960000D02*
X104140000Y-60960000D01*
X104140000Y-60960000D02*
X105410000Y-62230000D01*
X105410000Y-62230000D02*
X107950000Y-62230000D01*
X107950000Y-62230000D02*
X113030000Y-67310000D01*
X113030000Y-67310000D02*
X113030000Y-68580000D01*
D36*
%TO.N,/dian_ci_bu_chang-*%
X152400000Y-62230000D02*
X152400000Y-66040000D01*
X152400000Y-59690000D02*
X152400000Y-62230000D01*
D34*
X153670000Y-76200000D02*
X154940000Y-76200000D01*
X152400000Y-74930000D02*
X153670000Y-76200000D01*
X148590000Y-74930000D02*
X152400000Y-74930000D01*
X147320000Y-73660000D02*
X148590000Y-74930000D01*
X147320000Y-69850000D02*
X147320000Y-73660000D01*
X151130000Y-66040000D02*
X147320000Y-69850000D01*
X152400000Y-66040000D02*
X151130000Y-66040000D01*
X146050000Y-62230000D02*
X152400000Y-62230000D01*
%TO.N,/dian_ci_bu_chang+*%
X162560000Y-78740000D02*
X163830000Y-78740000D01*
X163830000Y-78740000D02*
X167640000Y-74930000D01*
X167640000Y-68580000D02*
X165100000Y-66040000D01*
X167640000Y-74930000D02*
X167640000Y-68580000D01*
X170180000Y-63500000D02*
X165100000Y-63500000D01*
D36*
X165100000Y-63500000D02*
X165100000Y-59690000D01*
X165100000Y-66040000D02*
X165100000Y-63500000D01*
D37*
%TO.N,/DIO*%
X131318000Y-116840000D02*
X131318000Y-115062000D01*
X131318000Y-115062000D02*
X134493000Y-111887000D01*
X134493000Y-111887000D02*
X134493000Y-107188000D01*
X134493000Y-107188000D02*
X134747000Y-106934000D01*
X134747000Y-106934000D02*
X134747000Y-103759000D01*
X134747000Y-103759000D02*
X134747000Y-103759000D01*
D35*
%TO.N,/CLK*%
X130175000Y-105537000D02*
X130175000Y-103124000D01*
X130175000Y-103124000D02*
X130683000Y-102616000D01*
X130683000Y-102616000D02*
X130683000Y-102616000D01*
D37*
X128778000Y-116840000D02*
X128778000Y-110052000D01*
X130175000Y-108655000D02*
X130175000Y-105537000D01*
X128778000Y-110052000D02*
X130175000Y-108655000D01*
D34*
%TO.N,Net-(Q1-Pad1)*%
X159766000Y-122936000D02*
X162941000Y-122936000D01*
X155194000Y-122936000D02*
X152400000Y-125730000D01*
X159766000Y-122936000D02*
X155194000Y-122936000D01*
%TO.N,Net-(Q1-Pad3)*%
X168021000Y-122936000D02*
X170688000Y-122936000D01*
%TO.N,Net-(Q1-Pad2)*%
X165354000Y-122809000D02*
X165481000Y-122936000D01*
X165354000Y-117221000D02*
X165354000Y-122809000D01*
%TO.N,Net-(Q3-Pad1)*%
X131064000Y-132080000D02*
X141224000Y-132080000D01*
X131064000Y-125730000D02*
X131064000Y-132080000D01*
%TO.N,Net-(Q3-Pad2)*%
X127500000Y-125800000D02*
X127500000Y-129000000D01*
X128524000Y-130024000D02*
X128524000Y-132080000D01*
X127500000Y-129000000D02*
X128524000Y-130024000D01*
%TO.N,Net-(Q4-Pad3)*%
X154051000Y-128651000D02*
X153416000Y-129286000D01*
X157226000Y-128651000D02*
X154051000Y-128651000D01*
X157221000Y-135006000D02*
X157861000Y-134366000D01*
X157800000Y-129225000D02*
X157226000Y-128651000D01*
X157800000Y-135000000D02*
X157800000Y-129225000D01*
X157800000Y-142624000D02*
X157221000Y-143203000D01*
X157800000Y-135000000D02*
X157800000Y-142624000D01*
%TO.N,Net-(Q5-Pad3)*%
X134874000Y-135255000D02*
X134239000Y-134620000D01*
X134874000Y-137795000D02*
X134874000Y-135255000D01*
%TO.N,Net-(Q6-Pad3)*%
X139954000Y-135890000D02*
X141224000Y-134620000D01*
X139954000Y-137795000D02*
X139954000Y-135890000D01*
X139694000Y-138055000D02*
X139954000Y-137795000D01*
X139694000Y-142485000D02*
X139694000Y-138055000D01*
X143247000Y-142485000D02*
X143637000Y-142875000D01*
X139694000Y-142485000D02*
X143247000Y-142485000D01*
%TO.N,Net-(Q13-Pad3)*%
X88011000Y-129794000D02*
X88646000Y-129159000D01*
X88011000Y-139319000D02*
X88011000Y-129794000D01*
X86106000Y-129159000D02*
X88646000Y-129159000D01*
X87751000Y-139579000D02*
X88011000Y-139319000D01*
X87751000Y-142949000D02*
X87751000Y-139579000D01*
%TO.N,Net-(Q10-Pad1)*%
X119634000Y-135255000D02*
X120269000Y-134620000D01*
X119634000Y-138430000D02*
X119634000Y-135255000D01*
X119629000Y-138435000D02*
X119634000Y-138430000D01*
X119629000Y-143330000D02*
X119629000Y-138435000D01*
X120211000Y-142748000D02*
X119629000Y-143330000D01*
X124968000Y-142748000D02*
X120211000Y-142748000D01*
%TO.N,Net-(Q11-Pad3)*%
X114554000Y-135255000D02*
X113919000Y-134620000D01*
X114554000Y-138430000D02*
X114554000Y-135255000D01*
%TO.N,Net-(Q11-Pad2)*%
X110744000Y-125095000D02*
X110744000Y-132080000D01*
X110744000Y-132080000D02*
X120269000Y-132080000D01*
%TO.N,Net-(Q14-Pad2)*%
X108204000Y-128270000D02*
X108204000Y-132080000D01*
X108000000Y-128066000D02*
X108204000Y-128270000D01*
X108000000Y-123190000D02*
X108000000Y-128066000D01*
%TO.N,Net-(Q15-Pad2)*%
X84836000Y-123444000D02*
X83566000Y-124714000D01*
X91186000Y-123444000D02*
X84836000Y-123444000D01*
X94361000Y-123444000D02*
X91186000Y-123444000D01*
%TO.N,Net-(Q16-Pad3)*%
X101346000Y-123444000D02*
X101981000Y-124079000D01*
X99441000Y-123444000D02*
X101346000Y-123444000D01*
%TO.N,Net-(Q16-Pad2)*%
X96901000Y-123444000D02*
X96901000Y-121539000D01*
X98171000Y-120269000D02*
X98171000Y-117094000D01*
X96901000Y-121539000D02*
X98171000Y-120269000D01*
%TO.N,Net-(Q17-Pad1)*%
X133350000Y-67310000D02*
X132080000Y-67310000D01*
X132080000Y-67310000D02*
X130810000Y-66040000D01*
X130810000Y-66040000D02*
X121920000Y-66040000D01*
X121920000Y-66040000D02*
X120650000Y-67310000D01*
X120650000Y-67310000D02*
X120650000Y-68580000D01*
X120650000Y-69850000D02*
X120650000Y-68580000D01*
X119380000Y-71120000D02*
X120650000Y-69850000D01*
%TO.N,Net-(Q17-Pad2)*%
X120650000Y-73660000D02*
X121920000Y-74930000D01*
X121920000Y-74930000D02*
X121920000Y-78740000D01*
X119380000Y-73660000D02*
X120650000Y-73660000D01*
%TO.N,Net-(Q18-Pad1)*%
X132080000Y-72390000D02*
X130810000Y-71120000D01*
X130810000Y-71120000D02*
X125730000Y-71120000D01*
X133350000Y-72390000D02*
X132080000Y-72390000D01*
X123190000Y-69850000D02*
X124460000Y-71120000D01*
X124460000Y-71120000D02*
X125730000Y-71120000D01*
X123190000Y-68580000D02*
X123190000Y-69850000D01*
%TO.N,Net-(Q18-Pad2)*%
X127000000Y-73660000D02*
X128270000Y-74930000D01*
X128270000Y-74930000D02*
X128270000Y-78740000D01*
X125730000Y-73660000D02*
X127000000Y-73660000D01*
%TO.N,Net-(Q19-Pad1)*%
X133350000Y-62230000D02*
X132080000Y-63500000D01*
X132080000Y-63500000D02*
X118110000Y-63500000D01*
X118110000Y-63500000D02*
X115570000Y-66040000D01*
X115570000Y-66040000D02*
X115570000Y-68580000D01*
X115570000Y-72390000D02*
X115570000Y-68580000D01*
%TO.N,Net-(Q19-Pad2)*%
X113030000Y-72390000D02*
X113030000Y-77470000D01*
D36*
%TO.N,Net-(Q20-Pad2)*%
X154940000Y-59690000D02*
X154940000Y-66040000D01*
D34*
X149860000Y-72390000D02*
X149860000Y-71120000D01*
X149860000Y-71120000D02*
X151130000Y-69850000D01*
X151130000Y-69850000D02*
X153670000Y-69850000D01*
X154940000Y-68580000D02*
X154940000Y-66040000D01*
X153670000Y-69850000D02*
X154940000Y-68580000D01*
D36*
%TO.N,Net-(Q22-Pad2)*%
X162560000Y-59690000D02*
X162560000Y-66040000D01*
D34*
X162560000Y-66040000D02*
X162560000Y-68580000D01*
X163060000Y-68580000D02*
X162560000Y-68580000D01*
X165600000Y-71120000D02*
X163060000Y-68580000D01*
%TO.N,/PA7_PWM1*%
X149860000Y-119380000D02*
X152019000Y-117221000D01*
X135890000Y-119380000D02*
X149860000Y-119380000D01*
X152019000Y-117221000D02*
X160274000Y-117221000D01*
X134620000Y-120650000D02*
X135890000Y-119380000D01*
D37*
X135890000Y-119380000D02*
X135890000Y-108204000D01*
X135890000Y-108204000D02*
X136652000Y-107442000D01*
X136652000Y-107442000D02*
X136652000Y-100203000D01*
X136652000Y-100203000D02*
X134620000Y-98171000D01*
X134620000Y-98171000D02*
X134620000Y-98171000D01*
D34*
X134550000Y-120720000D02*
X134620000Y-120650000D01*
X127500000Y-120720000D02*
X134550000Y-120720000D01*
%TO.N,/PA6_PWM*%
X98171000Y-112014000D02*
X102108000Y-112014000D01*
X112649000Y-118110000D02*
X117221000Y-113538000D01*
X117221000Y-113538000D02*
X117221000Y-110236000D01*
X117221000Y-110236000D02*
X123825000Y-103632000D01*
D35*
X126111000Y-94869000D02*
X125603000Y-95377000D01*
X131318000Y-94869000D02*
X126111000Y-94869000D01*
D34*
X108000000Y-118110000D02*
X112649000Y-118110000D01*
X102108000Y-112218000D02*
X102108000Y-112014000D01*
X108000000Y-118110000D02*
X102108000Y-112218000D01*
D37*
X125603000Y-101854000D02*
X123825000Y-103632000D01*
X125603000Y-95377000D02*
X125603000Y-101854000D01*
%TO.N,/PA1_RCLK*%
X121920000Y-83820000D02*
X121920000Y-93472000D01*
X121920000Y-93472000D02*
X123952000Y-95504000D01*
X123952000Y-95504000D02*
X123952000Y-95504000D01*
%TO.N,/PA0_SRCLK*%
X128270000Y-83820000D02*
X128270000Y-89662000D01*
X128270000Y-89662000D02*
X124206000Y-93726000D01*
X124206000Y-93726000D02*
X124206000Y-93726000D01*
%TO.N,/PA2_SER*%
X113030000Y-82550000D02*
X113030000Y-84836000D01*
X113030000Y-84836000D02*
X117602000Y-89408000D01*
X117602000Y-89408000D02*
X117602000Y-90678000D01*
X117602000Y-90678000D02*
X123444000Y-96520000D01*
X123444000Y-96520000D02*
X124206000Y-96520000D01*
X124206000Y-96520000D02*
X124206000Y-96520000D01*
D34*
%TO.N,Net-(R30-Pad2)*%
X170815000Y-101600000D02*
X169545000Y-100330000D01*
X169545000Y-100330000D02*
X165735000Y-100330000D01*
X165735000Y-100330000D02*
X164465000Y-101600000D01*
X164465000Y-101600000D02*
X164465000Y-102870000D01*
X163520000Y-105700000D02*
X163520000Y-104580000D01*
X164465000Y-103635000D02*
X164465000Y-102870000D01*
X163520000Y-104580000D02*
X164465000Y-103635000D01*
%TO.N,Net-(R30-Pad1)*%
X163195000Y-91440000D02*
X163195000Y-92710000D01*
X164465000Y-93980000D02*
X164465000Y-95250000D01*
X163195000Y-92710000D02*
X164465000Y-93980000D01*
X170815000Y-96520000D02*
X169545000Y-97790000D01*
X164465000Y-96381370D02*
X164465000Y-95250000D01*
X165873630Y-97790000D02*
X164465000Y-96381370D01*
X169545000Y-97790000D02*
X165873630Y-97790000D01*
%TO.N,Net-(R31-Pad1)*%
X168275000Y-93980000D02*
X167005000Y-95250000D01*
X168275000Y-91440000D02*
X168275000Y-93980000D01*
X164465000Y-87630000D02*
X168275000Y-91440000D01*
X161925000Y-87630000D02*
X164465000Y-87630000D01*
%TO.N,Net-(R32-Pad1)*%
X164465000Y-109220000D02*
X161925000Y-109220000D01*
X168600000Y-104465000D02*
X167005000Y-102870000D01*
X168600000Y-105700000D02*
X168600000Y-104465000D01*
X165080000Y-109220000D02*
X164465000Y-109220000D01*
X168600000Y-105700000D02*
X165080000Y-109220000D01*
%TO.N,Net-(R33-Pad1)*%
X156845000Y-87630000D02*
X156845000Y-95250000D01*
X156845000Y-84582000D02*
X156845000Y-87630000D01*
D37*
%TO.N,Net-(R34-Pad2)*%
X158115000Y-105410000D02*
X156845000Y-106680000D01*
X158115000Y-100330000D02*
X158115000Y-105410000D01*
D34*
X156845000Y-109220000D02*
X156845000Y-106680000D01*
X154305000Y-95250000D02*
X154305000Y-96520000D01*
X154305000Y-96520000D02*
X154940000Y-97155000D01*
D37*
X154940000Y-97155000D02*
X158115000Y-100330000D01*
D34*
X154305000Y-92225000D02*
X154280000Y-92200000D01*
X154305000Y-95250000D02*
X154305000Y-92225000D01*
%TO.N,Net-(R36-Pad1)*%
X151765000Y-96520000D02*
X151765000Y-95250000D01*
X156845000Y-101600000D02*
X151765000Y-96520000D01*
X156845000Y-102870000D02*
X156845000Y-101600000D01*
X151765000Y-94765000D02*
X149200000Y-92200000D01*
X151765000Y-95250000D02*
X151765000Y-94765000D01*
%TO.N,Net-(R40-Pad1)*%
X154305000Y-105410000D02*
X154305000Y-102870000D01*
X154305000Y-107950000D02*
X153670000Y-108585000D01*
X154305000Y-105500000D02*
X154305000Y-107950000D01*
%TO.N,Net-(R42-Pad2)*%
X149225000Y-105410000D02*
X151765000Y-102870000D01*
X149225000Y-108458000D02*
X149098000Y-108585000D01*
X149225000Y-105500000D02*
X149225000Y-108458000D01*
%TO.N,Net-(R48-Pad2)*%
X151130000Y-78740000D02*
X149860000Y-77470000D01*
X154940000Y-78740000D02*
X151130000Y-78740000D01*
%TO.N,Net-(R49-Pad2)*%
X166370000Y-81280000D02*
X162560000Y-81280000D01*
X170680000Y-76970000D02*
X166370000Y-81280000D01*
X170680000Y-71120000D02*
X170680000Y-76970000D01*
D36*
%TO.N,Net-(DS1-Pad15)*%
X123190000Y-60960000D02*
X123190000Y-58420000D01*
D34*
%TO.N,/A*%
X165481000Y-131826000D02*
X162306000Y-128651000D01*
X167026500Y-133371500D02*
X165481000Y-131826000D01*
X168402000Y-133371500D02*
X167026500Y-133371500D01*
X152661000Y-143203000D02*
X152661000Y-141979000D01*
X152661000Y-141979000D02*
X153289000Y-141351000D01*
X153289000Y-141351000D02*
X153416000Y-141224000D01*
X162880000Y-134427000D02*
X165481000Y-131826000D01*
X162880000Y-135000000D02*
X162880000Y-134427000D01*
D36*
X152661000Y-143203000D02*
X150503000Y-143203000D01*
X150503000Y-143203000D02*
X150503000Y-143203000D01*
D35*
%TO.N,/B*%
X95631000Y-122174000D02*
X95631000Y-127254000D01*
X94763500Y-121306500D02*
X95631000Y-122174000D01*
D34*
X94763500Y-118364000D02*
X94763500Y-119401500D01*
D35*
X94763500Y-119401500D02*
X94763500Y-121306500D01*
D34*
X93726000Y-129159000D02*
X94996000Y-127889000D01*
D35*
X95631000Y-127254000D02*
X94996000Y-127889000D01*
D34*
X93726000Y-139954000D02*
X93091000Y-139319000D01*
X83191000Y-142949000D02*
X83191000Y-140329000D01*
X83191000Y-140329000D02*
X86106000Y-137414000D01*
X86106000Y-137414000D02*
X86106000Y-137414000D01*
D36*
X95631000Y-139954000D02*
X96774000Y-139954000D01*
X106450000Y-149630000D02*
X110720000Y-149630000D01*
X110720000Y-149630000D02*
X117349000Y-149630000D01*
D34*
X95800000Y-139954000D02*
X93726000Y-139954000D01*
X97560000Y-140740000D02*
X96586000Y-140740000D01*
D36*
X96774000Y-139954000D02*
X97560000Y-140740000D01*
D34*
X96586000Y-140740000D02*
X95800000Y-139954000D01*
D36*
X97560000Y-140740000D02*
X104760000Y-147940000D01*
D34*
X98171000Y-137583000D02*
X95800000Y-139954000D01*
X98171000Y-132969000D02*
X98171000Y-137583000D01*
X94361000Y-129159000D02*
X98171000Y-132969000D01*
X93726000Y-129159000D02*
X94361000Y-129159000D01*
D36*
X83191000Y-142949000D02*
X82149000Y-142949000D01*
X82149000Y-142949000D02*
X80400000Y-141200000D01*
X80400000Y-141200000D02*
X80400000Y-141200000D01*
X104760000Y-147940000D02*
X106450000Y-149630000D01*
%TD*%
D39*
%TO.N,/A*%
X144653000Y-154205000D02*
X128397000Y-154205000D01*
X128397000Y-146177000D01*
X144653000Y-146177000D01*
X144653000Y-154205000D01*
%TA.AperFunction,Conductor*%
D40*
G36*
X144653000Y-154205000D02*
G01*
X128397000Y-154205000D01*
X128397000Y-146177000D01*
X144653000Y-146177000D01*
X144653000Y-154205000D01*
G37*
%TD.AperFunction*%
%TD*%
D39*
%TO.N,+12V*%
X100203000Y-154205000D02*
X80137000Y-154205000D01*
X80137000Y-146177000D01*
X100203000Y-146177000D01*
X100203000Y-154205000D01*
%TA.AperFunction,Conductor*%
D40*
G36*
X100203000Y-154205000D02*
G01*
X80137000Y-154205000D01*
X80137000Y-146177000D01*
X100203000Y-146177000D01*
X100203000Y-154205000D01*
G37*
%TD.AperFunction*%
%TD*%
D39*
%TO.N,+12V*%
X166243000Y-154205000D02*
X146177000Y-154205000D01*
X146177000Y-146177000D01*
X166243000Y-146177000D01*
X166243000Y-154205000D01*
%TA.AperFunction,Conductor*%
D40*
G36*
X166243000Y-154205000D02*
G01*
X146177000Y-154205000D01*
X146177000Y-146177000D01*
X166243000Y-146177000D01*
X166243000Y-154205000D01*
G37*
%TD.AperFunction*%
%TD*%
D39*
%TO.N,/B*%
X126873000Y-154205000D02*
X101727000Y-154205000D01*
X101727000Y-146177000D01*
X126873000Y-146177000D01*
X126873000Y-154205000D01*
%TA.AperFunction,Conductor*%
D40*
G36*
X126873000Y-154205000D02*
G01*
X101727000Y-154205000D01*
X101727000Y-146177000D01*
X126873000Y-146177000D01*
X126873000Y-154205000D01*
G37*
%TD.AperFunction*%
%TD*%
M02*
