%TF.GenerationSoftware,KiCad,Pcbnew,5.1.8-5.1.8*%
%TF.CreationDate,2021-07-28T16:27:41+08:00*%
%TF.ProjectId,fluxgate,666c7578-6761-4746-952e-6b696361645f,rev?*%
%TF.SameCoordinates,Original*%
%TF.FileFunction,Paste,Bot*%
%TF.FilePolarity,Positive*%
%FSLAX46Y46*%
G04 Gerber Fmt 4.6, Leading zero omitted, Abs format (unit mm)*
G04 Created by KiCad (PCBNEW 5.1.8-5.1.8) date 2021-07-28 16:27:41*
%MOMM*%
%LPD*%
G01*
G04 APERTURE LIST*
%ADD10R,2.000000X1.500000*%
%ADD11R,2.000000X3.800000*%
G04 APERTURE END LIST*
%TO.C,J12*%
G36*
G01*
X132700000Y-94450000D02*
X132700000Y-92950000D01*
G75*
G02*
X132950000Y-92700000I250000J0D01*
G01*
X133450000Y-92700000D01*
G75*
G02*
X133700000Y-92950000I0J-250000D01*
G01*
X133700000Y-94450000D01*
G75*
G02*
X133450000Y-94700000I-250000J0D01*
G01*
X132950000Y-94700000D01*
G75*
G02*
X132700000Y-94450000I0J250000D01*
G01*
G37*
%TD*%
%TO.C,J10*%
G36*
G01*
X138550000Y-101500000D02*
X137050000Y-101500000D01*
G75*
G02*
X136800000Y-101250000I0J250000D01*
G01*
X136800000Y-100750000D01*
G75*
G02*
X137050000Y-100500000I250000J0D01*
G01*
X138550000Y-100500000D01*
G75*
G02*
X138800000Y-100750000I0J-250000D01*
G01*
X138800000Y-101250000D01*
G75*
G02*
X138550000Y-101500000I-250000J0D01*
G01*
G37*
%TD*%
%TO.C,J9*%
G36*
G01*
X127400000Y-93850000D02*
X127400000Y-92350000D01*
G75*
G02*
X127650000Y-92100000I250000J0D01*
G01*
X128150000Y-92100000D01*
G75*
G02*
X128400000Y-92350000I0J-250000D01*
G01*
X128400000Y-93850000D01*
G75*
G02*
X128150000Y-94100000I-250000J0D01*
G01*
X127650000Y-94100000D01*
G75*
G02*
X127400000Y-93850000I0J250000D01*
G01*
G37*
%TD*%
D10*
%TO.C,U6*%
X94030000Y-67705000D03*
X94030000Y-63105000D03*
X94030000Y-65405000D03*
D11*
X100330000Y-65405000D03*
%TD*%
%TO.C,U5*%
G36*
G01*
X132300000Y-102720000D02*
X132300000Y-102520000D01*
G75*
G02*
X132400000Y-102420000I100000J0D01*
G01*
X133675000Y-102420000D01*
G75*
G02*
X133775000Y-102520000I0J-100000D01*
G01*
X133775000Y-102720000D01*
G75*
G02*
X133675000Y-102820000I-100000J0D01*
G01*
X132400000Y-102820000D01*
G75*
G02*
X132300000Y-102720000I0J100000D01*
G01*
G37*
G36*
G01*
X132300000Y-102070000D02*
X132300000Y-101870000D01*
G75*
G02*
X132400000Y-101770000I100000J0D01*
G01*
X133675000Y-101770000D01*
G75*
G02*
X133775000Y-101870000I0J-100000D01*
G01*
X133775000Y-102070000D01*
G75*
G02*
X133675000Y-102170000I-100000J0D01*
G01*
X132400000Y-102170000D01*
G75*
G02*
X132300000Y-102070000I0J100000D01*
G01*
G37*
G36*
G01*
X132300000Y-101420000D02*
X132300000Y-101220000D01*
G75*
G02*
X132400000Y-101120000I100000J0D01*
G01*
X133675000Y-101120000D01*
G75*
G02*
X133775000Y-101220000I0J-100000D01*
G01*
X133775000Y-101420000D01*
G75*
G02*
X133675000Y-101520000I-100000J0D01*
G01*
X132400000Y-101520000D01*
G75*
G02*
X132300000Y-101420000I0J100000D01*
G01*
G37*
G36*
G01*
X132300000Y-100770000D02*
X132300000Y-100570000D01*
G75*
G02*
X132400000Y-100470000I100000J0D01*
G01*
X133675000Y-100470000D01*
G75*
G02*
X133775000Y-100570000I0J-100000D01*
G01*
X133775000Y-100770000D01*
G75*
G02*
X133675000Y-100870000I-100000J0D01*
G01*
X132400000Y-100870000D01*
G75*
G02*
X132300000Y-100770000I0J100000D01*
G01*
G37*
G36*
G01*
X132300000Y-100120000D02*
X132300000Y-99920000D01*
G75*
G02*
X132400000Y-99820000I100000J0D01*
G01*
X133675000Y-99820000D01*
G75*
G02*
X133775000Y-99920000I0J-100000D01*
G01*
X133775000Y-100120000D01*
G75*
G02*
X133675000Y-100220000I-100000J0D01*
G01*
X132400000Y-100220000D01*
G75*
G02*
X132300000Y-100120000I0J100000D01*
G01*
G37*
G36*
G01*
X132300000Y-99470000D02*
X132300000Y-99270000D01*
G75*
G02*
X132400000Y-99170000I100000J0D01*
G01*
X133675000Y-99170000D01*
G75*
G02*
X133775000Y-99270000I0J-100000D01*
G01*
X133775000Y-99470000D01*
G75*
G02*
X133675000Y-99570000I-100000J0D01*
G01*
X132400000Y-99570000D01*
G75*
G02*
X132300000Y-99470000I0J100000D01*
G01*
G37*
G36*
G01*
X132300000Y-98820000D02*
X132300000Y-98620000D01*
G75*
G02*
X132400000Y-98520000I100000J0D01*
G01*
X133675000Y-98520000D01*
G75*
G02*
X133775000Y-98620000I0J-100000D01*
G01*
X133775000Y-98820000D01*
G75*
G02*
X133675000Y-98920000I-100000J0D01*
G01*
X132400000Y-98920000D01*
G75*
G02*
X132300000Y-98820000I0J100000D01*
G01*
G37*
G36*
G01*
X132300000Y-98170000D02*
X132300000Y-97970000D01*
G75*
G02*
X132400000Y-97870000I100000J0D01*
G01*
X133675000Y-97870000D01*
G75*
G02*
X133775000Y-97970000I0J-100000D01*
G01*
X133775000Y-98170000D01*
G75*
G02*
X133675000Y-98270000I-100000J0D01*
G01*
X132400000Y-98270000D01*
G75*
G02*
X132300000Y-98170000I0J100000D01*
G01*
G37*
G36*
G01*
X132300000Y-97520000D02*
X132300000Y-97320000D01*
G75*
G02*
X132400000Y-97220000I100000J0D01*
G01*
X133675000Y-97220000D01*
G75*
G02*
X133775000Y-97320000I0J-100000D01*
G01*
X133775000Y-97520000D01*
G75*
G02*
X133675000Y-97620000I-100000J0D01*
G01*
X132400000Y-97620000D01*
G75*
G02*
X132300000Y-97520000I0J100000D01*
G01*
G37*
G36*
G01*
X132300000Y-96870000D02*
X132300000Y-96670000D01*
G75*
G02*
X132400000Y-96570000I100000J0D01*
G01*
X133675000Y-96570000D01*
G75*
G02*
X133775000Y-96670000I0J-100000D01*
G01*
X133775000Y-96870000D01*
G75*
G02*
X133675000Y-96970000I-100000J0D01*
G01*
X132400000Y-96970000D01*
G75*
G02*
X132300000Y-96870000I0J100000D01*
G01*
G37*
G36*
G01*
X126575000Y-96870000D02*
X126575000Y-96670000D01*
G75*
G02*
X126675000Y-96570000I100000J0D01*
G01*
X127950000Y-96570000D01*
G75*
G02*
X128050000Y-96670000I0J-100000D01*
G01*
X128050000Y-96870000D01*
G75*
G02*
X127950000Y-96970000I-100000J0D01*
G01*
X126675000Y-96970000D01*
G75*
G02*
X126575000Y-96870000I0J100000D01*
G01*
G37*
G36*
G01*
X126575000Y-97520000D02*
X126575000Y-97320000D01*
G75*
G02*
X126675000Y-97220000I100000J0D01*
G01*
X127950000Y-97220000D01*
G75*
G02*
X128050000Y-97320000I0J-100000D01*
G01*
X128050000Y-97520000D01*
G75*
G02*
X127950000Y-97620000I-100000J0D01*
G01*
X126675000Y-97620000D01*
G75*
G02*
X126575000Y-97520000I0J100000D01*
G01*
G37*
G36*
G01*
X126575000Y-98170000D02*
X126575000Y-97970000D01*
G75*
G02*
X126675000Y-97870000I100000J0D01*
G01*
X127950000Y-97870000D01*
G75*
G02*
X128050000Y-97970000I0J-100000D01*
G01*
X128050000Y-98170000D01*
G75*
G02*
X127950000Y-98270000I-100000J0D01*
G01*
X126675000Y-98270000D01*
G75*
G02*
X126575000Y-98170000I0J100000D01*
G01*
G37*
G36*
G01*
X126575000Y-98820000D02*
X126575000Y-98620000D01*
G75*
G02*
X126675000Y-98520000I100000J0D01*
G01*
X127950000Y-98520000D01*
G75*
G02*
X128050000Y-98620000I0J-100000D01*
G01*
X128050000Y-98820000D01*
G75*
G02*
X127950000Y-98920000I-100000J0D01*
G01*
X126675000Y-98920000D01*
G75*
G02*
X126575000Y-98820000I0J100000D01*
G01*
G37*
G36*
G01*
X126575000Y-99470000D02*
X126575000Y-99270000D01*
G75*
G02*
X126675000Y-99170000I100000J0D01*
G01*
X127950000Y-99170000D01*
G75*
G02*
X128050000Y-99270000I0J-100000D01*
G01*
X128050000Y-99470000D01*
G75*
G02*
X127950000Y-99570000I-100000J0D01*
G01*
X126675000Y-99570000D01*
G75*
G02*
X126575000Y-99470000I0J100000D01*
G01*
G37*
G36*
G01*
X126575000Y-100120000D02*
X126575000Y-99920000D01*
G75*
G02*
X126675000Y-99820000I100000J0D01*
G01*
X127950000Y-99820000D01*
G75*
G02*
X128050000Y-99920000I0J-100000D01*
G01*
X128050000Y-100120000D01*
G75*
G02*
X127950000Y-100220000I-100000J0D01*
G01*
X126675000Y-100220000D01*
G75*
G02*
X126575000Y-100120000I0J100000D01*
G01*
G37*
G36*
G01*
X126575000Y-100770000D02*
X126575000Y-100570000D01*
G75*
G02*
X126675000Y-100470000I100000J0D01*
G01*
X127950000Y-100470000D01*
G75*
G02*
X128050000Y-100570000I0J-100000D01*
G01*
X128050000Y-100770000D01*
G75*
G02*
X127950000Y-100870000I-100000J0D01*
G01*
X126675000Y-100870000D01*
G75*
G02*
X126575000Y-100770000I0J100000D01*
G01*
G37*
G36*
G01*
X126575000Y-101420000D02*
X126575000Y-101220000D01*
G75*
G02*
X126675000Y-101120000I100000J0D01*
G01*
X127950000Y-101120000D01*
G75*
G02*
X128050000Y-101220000I0J-100000D01*
G01*
X128050000Y-101420000D01*
G75*
G02*
X127950000Y-101520000I-100000J0D01*
G01*
X126675000Y-101520000D01*
G75*
G02*
X126575000Y-101420000I0J100000D01*
G01*
G37*
G36*
G01*
X126575000Y-102070000D02*
X126575000Y-101870000D01*
G75*
G02*
X126675000Y-101770000I100000J0D01*
G01*
X127950000Y-101770000D01*
G75*
G02*
X128050000Y-101870000I0J-100000D01*
G01*
X128050000Y-102070000D01*
G75*
G02*
X127950000Y-102170000I-100000J0D01*
G01*
X126675000Y-102170000D01*
G75*
G02*
X126575000Y-102070000I0J100000D01*
G01*
G37*
G36*
G01*
X126575000Y-102720000D02*
X126575000Y-102520000D01*
G75*
G02*
X126675000Y-102420000I100000J0D01*
G01*
X127950000Y-102420000D01*
G75*
G02*
X128050000Y-102520000I0J-100000D01*
G01*
X128050000Y-102720000D01*
G75*
G02*
X127950000Y-102820000I-100000J0D01*
G01*
X126675000Y-102820000D01*
G75*
G02*
X126575000Y-102720000I0J100000D01*
G01*
G37*
%TD*%
%TO.C,C19*%
G36*
G01*
X130970000Y-91255000D02*
X131920000Y-91255000D01*
G75*
G02*
X132170000Y-91505000I0J-250000D01*
G01*
X132170000Y-92180000D01*
G75*
G02*
X131920000Y-92430000I-250000J0D01*
G01*
X130970000Y-92430000D01*
G75*
G02*
X130720000Y-92180000I0J250000D01*
G01*
X130720000Y-91505000D01*
G75*
G02*
X130970000Y-91255000I250000J0D01*
G01*
G37*
G36*
G01*
X130970000Y-89180000D02*
X131920000Y-89180000D01*
G75*
G02*
X132170000Y-89430000I0J-250000D01*
G01*
X132170000Y-90105000D01*
G75*
G02*
X131920000Y-90355000I-250000J0D01*
G01*
X130970000Y-90355000D01*
G75*
G02*
X130720000Y-90105000I0J250000D01*
G01*
X130720000Y-89430000D01*
G75*
G02*
X130970000Y-89180000I250000J0D01*
G01*
G37*
%TD*%
%TO.C,C18*%
G36*
G01*
X117660000Y-94775000D02*
X117660000Y-95725000D01*
G75*
G02*
X117410000Y-95975000I-250000J0D01*
G01*
X116735000Y-95975000D01*
G75*
G02*
X116485000Y-95725000I0J250000D01*
G01*
X116485000Y-94775000D01*
G75*
G02*
X116735000Y-94525000I250000J0D01*
G01*
X117410000Y-94525000D01*
G75*
G02*
X117660000Y-94775000I0J-250000D01*
G01*
G37*
G36*
G01*
X119735000Y-94775000D02*
X119735000Y-95725000D01*
G75*
G02*
X119485000Y-95975000I-250000J0D01*
G01*
X118810000Y-95975000D01*
G75*
G02*
X118560000Y-95725000I0J250000D01*
G01*
X118560000Y-94775000D01*
G75*
G02*
X118810000Y-94525000I250000J0D01*
G01*
X119485000Y-94525000D01*
G75*
G02*
X119735000Y-94775000I0J-250000D01*
G01*
G37*
%TD*%
%TO.C,C15*%
G36*
G01*
X133190000Y-107500000D02*
X132240000Y-107500000D01*
G75*
G02*
X131990000Y-107250000I0J250000D01*
G01*
X131990000Y-106575000D01*
G75*
G02*
X132240000Y-106325000I250000J0D01*
G01*
X133190000Y-106325000D01*
G75*
G02*
X133440000Y-106575000I0J-250000D01*
G01*
X133440000Y-107250000D01*
G75*
G02*
X133190000Y-107500000I-250000J0D01*
G01*
G37*
G36*
G01*
X133190000Y-109575000D02*
X132240000Y-109575000D01*
G75*
G02*
X131990000Y-109325000I0J250000D01*
G01*
X131990000Y-108650000D01*
G75*
G02*
X132240000Y-108400000I250000J0D01*
G01*
X133190000Y-108400000D01*
G75*
G02*
X133440000Y-108650000I0J-250000D01*
G01*
X133440000Y-109325000D01*
G75*
G02*
X133190000Y-109575000I-250000J0D01*
G01*
G37*
%TD*%
%TO.C,C14*%
G36*
G01*
X127160000Y-108400000D02*
X128110000Y-108400000D01*
G75*
G02*
X128360000Y-108650000I0J-250000D01*
G01*
X128360000Y-109325000D01*
G75*
G02*
X128110000Y-109575000I-250000J0D01*
G01*
X127160000Y-109575000D01*
G75*
G02*
X126910000Y-109325000I0J250000D01*
G01*
X126910000Y-108650000D01*
G75*
G02*
X127160000Y-108400000I250000J0D01*
G01*
G37*
G36*
G01*
X127160000Y-106325000D02*
X128110000Y-106325000D01*
G75*
G02*
X128360000Y-106575000I0J-250000D01*
G01*
X128360000Y-107250000D01*
G75*
G02*
X128110000Y-107500000I-250000J0D01*
G01*
X127160000Y-107500000D01*
G75*
G02*
X126910000Y-107250000I0J250000D01*
G01*
X126910000Y-106575000D01*
G75*
G02*
X127160000Y-106325000I250000J0D01*
G01*
G37*
%TD*%
%TO.C,C9*%
G36*
G01*
X134653000Y-91382000D02*
X135603000Y-91382000D01*
G75*
G02*
X135853000Y-91632000I0J-250000D01*
G01*
X135853000Y-92307000D01*
G75*
G02*
X135603000Y-92557000I-250000J0D01*
G01*
X134653000Y-92557000D01*
G75*
G02*
X134403000Y-92307000I0J250000D01*
G01*
X134403000Y-91632000D01*
G75*
G02*
X134653000Y-91382000I250000J0D01*
G01*
G37*
G36*
G01*
X134653000Y-89307000D02*
X135603000Y-89307000D01*
G75*
G02*
X135853000Y-89557000I0J-250000D01*
G01*
X135853000Y-90232000D01*
G75*
G02*
X135603000Y-90482000I-250000J0D01*
G01*
X134653000Y-90482000D01*
G75*
G02*
X134403000Y-90232000I0J250000D01*
G01*
X134403000Y-89557000D01*
G75*
G02*
X134653000Y-89307000I250000J0D01*
G01*
G37*
%TD*%
M02*
