%TF.GenerationSoftware,KiCad,Pcbnew,5.1.8-5.1.8*%
%TF.CreationDate,2021-02-27T17:22:07+08:00*%
%TF.ProjectId,Resolver,5265736f-6c76-4657-922e-6b696361645f,rev?*%
%TF.SameCoordinates,Original*%
%TF.FileFunction,Soldermask,Bot*%
%TF.FilePolarity,Negative*%
%FSLAX46Y46*%
G04 Gerber Fmt 4.6, Leading zero omitted, Abs format (unit mm)*
G04 Created by KiCad (PCBNEW 5.1.8-5.1.8) date 2021-02-27 17:22:07*
%MOMM*%
%LPD*%
G01*
G04 APERTURE LIST*
%ADD10O,1.600000X1.600000*%
%ADD11C,1.600000*%
%ADD12O,1.700000X1.700000*%
%ADD13R,1.700000X1.700000*%
%ADD14C,1.500000*%
%ADD15R,1.600000X1.600000*%
%ADD16O,2.000000X1.905000*%
%ADD17R,2.000000X1.905000*%
%ADD18R,1.050000X1.500000*%
%ADD19O,1.050000X1.500000*%
%ADD20O,2.200000X2.200000*%
%ADD21R,2.200000X2.200000*%
%ADD22C,2.000000*%
G04 APERTURE END LIST*
D10*
%TO.C,R31*%
X181610000Y-473710000D03*
D11*
X181610000Y-483870000D03*
%TD*%
D10*
%TO.C,R30*%
X194310000Y-472440000D03*
D11*
X194310000Y-482600000D03*
%TD*%
D10*
%TO.C,R29*%
X203200000Y-472440000D03*
D11*
X203200000Y-482600000D03*
%TD*%
D10*
%TO.C,R28*%
X187960000Y-477520000D03*
D11*
X187960000Y-487680000D03*
%TD*%
D10*
%TO.C,R27*%
X209550000Y-487680000D03*
D11*
X209550000Y-477520000D03*
%TD*%
D10*
%TO.C,R26*%
X163830000Y-473710000D03*
D11*
X163830000Y-483870000D03*
%TD*%
D10*
%TO.C,R25*%
X181610000Y-457200000D03*
D11*
X181610000Y-467360000D03*
%TD*%
D10*
%TO.C,R24*%
X231140000Y-441960000D03*
D11*
X231140000Y-452120000D03*
%TD*%
D10*
%TO.C,R23*%
X217170000Y-450850000D03*
D11*
X227330000Y-450850000D03*
%TD*%
D10*
%TO.C,R22*%
X245110000Y-441960000D03*
D11*
X234950000Y-441960000D03*
%TD*%
D10*
%TO.C,R21*%
X214630000Y-441960000D03*
D11*
X204470000Y-441960000D03*
%TD*%
D10*
%TO.C,R20*%
X248920000Y-433070000D03*
D11*
X248920000Y-443230000D03*
%TD*%
D10*
%TO.C,R19*%
X218440000Y-433070000D03*
D11*
X218440000Y-443230000D03*
%TD*%
D10*
%TO.C,R18*%
X254000000Y-440690000D03*
D11*
X254000000Y-430530000D03*
%TD*%
D10*
%TO.C,R17*%
X234950000Y-407670000D03*
D11*
X245110000Y-407670000D03*
%TD*%
D10*
%TO.C,R16*%
X223520000Y-441960000D03*
D11*
X223520000Y-431800000D03*
%TD*%
D10*
%TO.C,R15*%
X204470000Y-407670000D03*
D11*
X214630000Y-407670000D03*
%TD*%
D10*
%TO.C,R14*%
X229870000Y-410210000D03*
D11*
X229870000Y-420370000D03*
%TD*%
D10*
%TO.C,R13*%
X199390000Y-410210000D03*
D11*
X199390000Y-420370000D03*
%TD*%
D10*
%TO.C,R12*%
X250190000Y-410210000D03*
D11*
X250190000Y-420370000D03*
%TD*%
D10*
%TO.C,R11*%
X219710000Y-410210000D03*
D11*
X219710000Y-420370000D03*
%TD*%
D10*
%TO.C,R10*%
X234950000Y-414020000D03*
D11*
X245110000Y-414020000D03*
%TD*%
D10*
%TO.C,R9*%
X204470000Y-414020000D03*
D11*
X214630000Y-414020000D03*
%TD*%
D10*
%TO.C,R8*%
X163830000Y-458470000D03*
D11*
X163830000Y-468630000D03*
%TD*%
D10*
%TO.C,R7*%
X193040000Y-453390000D03*
D11*
X193040000Y-463550000D03*
%TD*%
D10*
%TO.C,R6*%
X177800000Y-440690000D03*
D11*
X177800000Y-450850000D03*
%TD*%
D10*
%TO.C,R5*%
X184150000Y-450850000D03*
D11*
X184150000Y-440690000D03*
%TD*%
D10*
%TO.C,R4*%
X245110000Y-469900000D03*
D11*
X255270000Y-469900000D03*
%TD*%
D10*
%TO.C,R3*%
X177800000Y-438150000D03*
D11*
X177800000Y-427990000D03*
%TD*%
D10*
%TO.C,R2*%
X190500000Y-427990000D03*
D11*
X190500000Y-438150000D03*
%TD*%
D10*
%TO.C,R1*%
X184150000Y-427990000D03*
D11*
X184150000Y-438150000D03*
%TD*%
D12*
%TO.C,J13*%
X182880000Y-495300000D03*
D13*
X182880000Y-492760000D03*
%TD*%
D14*
%TO.C,Y1*%
X247650000Y-481130000D03*
X247650000Y-476250000D03*
%TD*%
D10*
%TO.C,U8*%
X176530000Y-472440000D03*
X168910000Y-480060000D03*
X176530000Y-474980000D03*
X168910000Y-477520000D03*
X176530000Y-477520000D03*
X168910000Y-474980000D03*
X176530000Y-480060000D03*
D15*
X168910000Y-472440000D03*
%TD*%
D10*
%TO.C,U7*%
X243840000Y-420370000D03*
X236220000Y-435610000D03*
X243840000Y-422910000D03*
X236220000Y-433070000D03*
X243840000Y-425450000D03*
X236220000Y-430530000D03*
X243840000Y-427990000D03*
X236220000Y-427990000D03*
X243840000Y-430530000D03*
X236220000Y-425450000D03*
X243840000Y-433070000D03*
X236220000Y-422910000D03*
X243840000Y-435610000D03*
D15*
X236220000Y-420370000D03*
%TD*%
D10*
%TO.C,U6*%
X213360000Y-420370000D03*
X205740000Y-435610000D03*
X213360000Y-422910000D03*
X205740000Y-433070000D03*
X213360000Y-425450000D03*
X205740000Y-430530000D03*
X213360000Y-427990000D03*
X205740000Y-427990000D03*
X213360000Y-430530000D03*
X205740000Y-425450000D03*
X213360000Y-433070000D03*
X205740000Y-422910000D03*
X213360000Y-435610000D03*
D15*
X205740000Y-420370000D03*
%TD*%
D10*
%TO.C,U2*%
X176530000Y-458470000D03*
X168910000Y-466090000D03*
X176530000Y-461010000D03*
X168910000Y-463550000D03*
X176530000Y-463550000D03*
X168910000Y-461010000D03*
X176530000Y-466090000D03*
D15*
X168910000Y-458470000D03*
%TD*%
D16*
%TO.C,U1*%
X170180000Y-430530000D03*
X170180000Y-433070000D03*
D17*
X170180000Y-435610000D03*
%TD*%
D18*
%TO.C,Q4*%
X179070000Y-487680000D03*
D19*
X176530000Y-487680000D03*
X177800000Y-487680000D03*
%TD*%
D18*
%TO.C,Q3*%
X179070000Y-495300000D03*
D19*
X176530000Y-495300000D03*
X177800000Y-495300000D03*
%TD*%
D18*
%TO.C,Q2*%
X170180000Y-487680000D03*
D19*
X172720000Y-487680000D03*
X171450000Y-487680000D03*
%TD*%
D18*
%TO.C,Q1*%
X170180000Y-495300000D03*
D19*
X172720000Y-495300000D03*
X171450000Y-495300000D03*
%TD*%
D12*
%TO.C,J12*%
X163830000Y-491490000D03*
D13*
X166370000Y-491490000D03*
%TD*%
%TO.C,J11*%
X240030000Y-492760000D03*
%TD*%
D12*
%TO.C,J10*%
X233680000Y-492760000D03*
X231140000Y-492760000D03*
X228600000Y-492760000D03*
D13*
X226060000Y-492760000D03*
%TD*%
D12*
%TO.C,J9*%
X227330000Y-472440000D03*
D13*
X227330000Y-474980000D03*
%TD*%
D12*
%TO.C,J8*%
X246380000Y-492760000D03*
X248920000Y-492760000D03*
D13*
X251460000Y-492760000D03*
%TD*%
%TO.C,J6*%
X181610000Y-408940000D03*
%TD*%
%TO.C,J5*%
X172720000Y-408940000D03*
%TD*%
%TO.C,J4*%
X196850000Y-424180000D03*
%TD*%
%TO.C,J3*%
X252730000Y-424180000D03*
%TD*%
%TO.C,J2*%
X232410000Y-424180000D03*
%TD*%
%TO.C,J1*%
X217170000Y-424180000D03*
%TD*%
D20*
%TO.C,D1*%
X167640000Y-414020000D03*
D21*
X167640000Y-424180000D03*
%TD*%
D11*
%TO.C,C24*%
X187960000Y-459820000D03*
X187960000Y-464820000D03*
%TD*%
%TO.C,C23*%
X187960000Y-473630000D03*
X187960000Y-468630000D03*
%TD*%
D22*
%TO.C,C22*%
X194310000Y-486570000D03*
X194310000Y-496570000D03*
%TD*%
%TO.C,C21*%
X203200000Y-486570000D03*
X203200000Y-496570000D03*
%TD*%
D11*
%TO.C,C19*%
X238760000Y-447040000D03*
X238760000Y-452040000D03*
%TD*%
%TO.C,C18*%
X227410000Y-458470000D03*
X232410000Y-458470000D03*
%TD*%
%TO.C,C17*%
X228680000Y-427990000D03*
X233680000Y-427990000D03*
%TD*%
%TO.C,C16*%
X198200000Y-427990000D03*
X203200000Y-427990000D03*
%TD*%
%TO.C,C15*%
X251380000Y-427990000D03*
X246380000Y-427990000D03*
%TD*%
%TO.C,C14*%
X220900000Y-427990000D03*
X215900000Y-427990000D03*
%TD*%
%TO.C,C12*%
X255270000Y-459660000D03*
X255270000Y-454660000D03*
%TD*%
%TO.C,C8*%
X231140000Y-468550000D03*
X231140000Y-463550000D03*
%TD*%
%TO.C,C7*%
X252650000Y-463550000D03*
X247650000Y-463550000D03*
%TD*%
%TO.C,C4*%
X170180000Y-447040000D03*
D15*
X170180000Y-449040000D03*
%TD*%
D11*
%TO.C,C3*%
X191770000Y-449040000D03*
D15*
X191770000Y-447040000D03*
%TD*%
D11*
%TO.C,C2*%
X184150000Y-415370000D03*
X184150000Y-420370000D03*
%TD*%
%TO.C,C1*%
X176530000Y-417100000D03*
D15*
X176530000Y-419100000D03*
%TD*%
M02*
