%TF.GenerationSoftware,KiCad,Pcbnew,5.1.8-5.1.8*%
%TF.CreationDate,2021-02-27T17:22:06+08:00*%
%TF.ProjectId,Resolver,5265736f-6c76-4657-922e-6b696361645f,rev?*%
%TF.SameCoordinates,Original*%
%TF.FileFunction,Paste,Top*%
%TF.FilePolarity,Positive*%
%FSLAX46Y46*%
G04 Gerber Fmt 4.6, Leading zero omitted, Abs format (unit mm)*
G04 Created by KiCad (PCBNEW 5.1.8-5.1.8) date 2021-02-27 17:22:06*
%MOMM*%
%LPD*%
G01*
G04 APERTURE LIST*
%ADD10R,2.000000X1.500000*%
%ADD11R,2.000000X3.800000*%
%ADD12R,4.200000X1.500000*%
G04 APERTURE END LIST*
%TO.C,U4*%
G36*
G01*
X240315000Y-480915000D02*
X240515000Y-480915000D01*
G75*
G02*
X240615000Y-481015000I0J-100000D01*
G01*
X240615000Y-482290000D01*
G75*
G02*
X240515000Y-482390000I-100000J0D01*
G01*
X240315000Y-482390000D01*
G75*
G02*
X240215000Y-482290000I0J100000D01*
G01*
X240215000Y-481015000D01*
G75*
G02*
X240315000Y-480915000I100000J0D01*
G01*
G37*
G36*
G01*
X239665000Y-480915000D02*
X239865000Y-480915000D01*
G75*
G02*
X239965000Y-481015000I0J-100000D01*
G01*
X239965000Y-482290000D01*
G75*
G02*
X239865000Y-482390000I-100000J0D01*
G01*
X239665000Y-482390000D01*
G75*
G02*
X239565000Y-482290000I0J100000D01*
G01*
X239565000Y-481015000D01*
G75*
G02*
X239665000Y-480915000I100000J0D01*
G01*
G37*
G36*
G01*
X239015000Y-480915000D02*
X239215000Y-480915000D01*
G75*
G02*
X239315000Y-481015000I0J-100000D01*
G01*
X239315000Y-482290000D01*
G75*
G02*
X239215000Y-482390000I-100000J0D01*
G01*
X239015000Y-482390000D01*
G75*
G02*
X238915000Y-482290000I0J100000D01*
G01*
X238915000Y-481015000D01*
G75*
G02*
X239015000Y-480915000I100000J0D01*
G01*
G37*
G36*
G01*
X238365000Y-480915000D02*
X238565000Y-480915000D01*
G75*
G02*
X238665000Y-481015000I0J-100000D01*
G01*
X238665000Y-482290000D01*
G75*
G02*
X238565000Y-482390000I-100000J0D01*
G01*
X238365000Y-482390000D01*
G75*
G02*
X238265000Y-482290000I0J100000D01*
G01*
X238265000Y-481015000D01*
G75*
G02*
X238365000Y-480915000I100000J0D01*
G01*
G37*
G36*
G01*
X237715000Y-480915000D02*
X237915000Y-480915000D01*
G75*
G02*
X238015000Y-481015000I0J-100000D01*
G01*
X238015000Y-482290000D01*
G75*
G02*
X237915000Y-482390000I-100000J0D01*
G01*
X237715000Y-482390000D01*
G75*
G02*
X237615000Y-482290000I0J100000D01*
G01*
X237615000Y-481015000D01*
G75*
G02*
X237715000Y-480915000I100000J0D01*
G01*
G37*
G36*
G01*
X237065000Y-480915000D02*
X237265000Y-480915000D01*
G75*
G02*
X237365000Y-481015000I0J-100000D01*
G01*
X237365000Y-482290000D01*
G75*
G02*
X237265000Y-482390000I-100000J0D01*
G01*
X237065000Y-482390000D01*
G75*
G02*
X236965000Y-482290000I0J100000D01*
G01*
X236965000Y-481015000D01*
G75*
G02*
X237065000Y-480915000I100000J0D01*
G01*
G37*
G36*
G01*
X236415000Y-480915000D02*
X236615000Y-480915000D01*
G75*
G02*
X236715000Y-481015000I0J-100000D01*
G01*
X236715000Y-482290000D01*
G75*
G02*
X236615000Y-482390000I-100000J0D01*
G01*
X236415000Y-482390000D01*
G75*
G02*
X236315000Y-482290000I0J100000D01*
G01*
X236315000Y-481015000D01*
G75*
G02*
X236415000Y-480915000I100000J0D01*
G01*
G37*
G36*
G01*
X235765000Y-480915000D02*
X235965000Y-480915000D01*
G75*
G02*
X236065000Y-481015000I0J-100000D01*
G01*
X236065000Y-482290000D01*
G75*
G02*
X235965000Y-482390000I-100000J0D01*
G01*
X235765000Y-482390000D01*
G75*
G02*
X235665000Y-482290000I0J100000D01*
G01*
X235665000Y-481015000D01*
G75*
G02*
X235765000Y-480915000I100000J0D01*
G01*
G37*
G36*
G01*
X235115000Y-480915000D02*
X235315000Y-480915000D01*
G75*
G02*
X235415000Y-481015000I0J-100000D01*
G01*
X235415000Y-482290000D01*
G75*
G02*
X235315000Y-482390000I-100000J0D01*
G01*
X235115000Y-482390000D01*
G75*
G02*
X235015000Y-482290000I0J100000D01*
G01*
X235015000Y-481015000D01*
G75*
G02*
X235115000Y-480915000I100000J0D01*
G01*
G37*
G36*
G01*
X234465000Y-480915000D02*
X234665000Y-480915000D01*
G75*
G02*
X234765000Y-481015000I0J-100000D01*
G01*
X234765000Y-482290000D01*
G75*
G02*
X234665000Y-482390000I-100000J0D01*
G01*
X234465000Y-482390000D01*
G75*
G02*
X234365000Y-482290000I0J100000D01*
G01*
X234365000Y-481015000D01*
G75*
G02*
X234465000Y-480915000I100000J0D01*
G01*
G37*
G36*
G01*
X234465000Y-475190000D02*
X234665000Y-475190000D01*
G75*
G02*
X234765000Y-475290000I0J-100000D01*
G01*
X234765000Y-476565000D01*
G75*
G02*
X234665000Y-476665000I-100000J0D01*
G01*
X234465000Y-476665000D01*
G75*
G02*
X234365000Y-476565000I0J100000D01*
G01*
X234365000Y-475290000D01*
G75*
G02*
X234465000Y-475190000I100000J0D01*
G01*
G37*
G36*
G01*
X235115000Y-475190000D02*
X235315000Y-475190000D01*
G75*
G02*
X235415000Y-475290000I0J-100000D01*
G01*
X235415000Y-476565000D01*
G75*
G02*
X235315000Y-476665000I-100000J0D01*
G01*
X235115000Y-476665000D01*
G75*
G02*
X235015000Y-476565000I0J100000D01*
G01*
X235015000Y-475290000D01*
G75*
G02*
X235115000Y-475190000I100000J0D01*
G01*
G37*
G36*
G01*
X235765000Y-475190000D02*
X235965000Y-475190000D01*
G75*
G02*
X236065000Y-475290000I0J-100000D01*
G01*
X236065000Y-476565000D01*
G75*
G02*
X235965000Y-476665000I-100000J0D01*
G01*
X235765000Y-476665000D01*
G75*
G02*
X235665000Y-476565000I0J100000D01*
G01*
X235665000Y-475290000D01*
G75*
G02*
X235765000Y-475190000I100000J0D01*
G01*
G37*
G36*
G01*
X236415000Y-475190000D02*
X236615000Y-475190000D01*
G75*
G02*
X236715000Y-475290000I0J-100000D01*
G01*
X236715000Y-476565000D01*
G75*
G02*
X236615000Y-476665000I-100000J0D01*
G01*
X236415000Y-476665000D01*
G75*
G02*
X236315000Y-476565000I0J100000D01*
G01*
X236315000Y-475290000D01*
G75*
G02*
X236415000Y-475190000I100000J0D01*
G01*
G37*
G36*
G01*
X237065000Y-475190000D02*
X237265000Y-475190000D01*
G75*
G02*
X237365000Y-475290000I0J-100000D01*
G01*
X237365000Y-476565000D01*
G75*
G02*
X237265000Y-476665000I-100000J0D01*
G01*
X237065000Y-476665000D01*
G75*
G02*
X236965000Y-476565000I0J100000D01*
G01*
X236965000Y-475290000D01*
G75*
G02*
X237065000Y-475190000I100000J0D01*
G01*
G37*
G36*
G01*
X237715000Y-475190000D02*
X237915000Y-475190000D01*
G75*
G02*
X238015000Y-475290000I0J-100000D01*
G01*
X238015000Y-476565000D01*
G75*
G02*
X237915000Y-476665000I-100000J0D01*
G01*
X237715000Y-476665000D01*
G75*
G02*
X237615000Y-476565000I0J100000D01*
G01*
X237615000Y-475290000D01*
G75*
G02*
X237715000Y-475190000I100000J0D01*
G01*
G37*
G36*
G01*
X238365000Y-475190000D02*
X238565000Y-475190000D01*
G75*
G02*
X238665000Y-475290000I0J-100000D01*
G01*
X238665000Y-476565000D01*
G75*
G02*
X238565000Y-476665000I-100000J0D01*
G01*
X238365000Y-476665000D01*
G75*
G02*
X238265000Y-476565000I0J100000D01*
G01*
X238265000Y-475290000D01*
G75*
G02*
X238365000Y-475190000I100000J0D01*
G01*
G37*
G36*
G01*
X239015000Y-475190000D02*
X239215000Y-475190000D01*
G75*
G02*
X239315000Y-475290000I0J-100000D01*
G01*
X239315000Y-476565000D01*
G75*
G02*
X239215000Y-476665000I-100000J0D01*
G01*
X239015000Y-476665000D01*
G75*
G02*
X238915000Y-476565000I0J100000D01*
G01*
X238915000Y-475290000D01*
G75*
G02*
X239015000Y-475190000I100000J0D01*
G01*
G37*
G36*
G01*
X239665000Y-475190000D02*
X239865000Y-475190000D01*
G75*
G02*
X239965000Y-475290000I0J-100000D01*
G01*
X239965000Y-476565000D01*
G75*
G02*
X239865000Y-476665000I-100000J0D01*
G01*
X239665000Y-476665000D01*
G75*
G02*
X239565000Y-476565000I0J100000D01*
G01*
X239565000Y-475290000D01*
G75*
G02*
X239665000Y-475190000I100000J0D01*
G01*
G37*
G36*
G01*
X240315000Y-475190000D02*
X240515000Y-475190000D01*
G75*
G02*
X240615000Y-475290000I0J-100000D01*
G01*
X240615000Y-476565000D01*
G75*
G02*
X240515000Y-476665000I-100000J0D01*
G01*
X240315000Y-476665000D01*
G75*
G02*
X240215000Y-476565000I0J100000D01*
G01*
X240215000Y-475290000D01*
G75*
G02*
X240315000Y-475190000I100000J0D01*
G01*
G37*
%TD*%
D10*
%TO.C,U3*%
X220320000Y-465850000D03*
X220320000Y-461250000D03*
X220320000Y-463550000D03*
D11*
X214020000Y-463550000D03*
%TD*%
D12*
%TO.C,L9*%
X246380000Y-455400000D03*
X246380000Y-459000000D03*
%TD*%
%TO.C,C20*%
G36*
G01*
X217620000Y-479265000D02*
X217620000Y-478315000D01*
G75*
G02*
X217870000Y-478065000I250000J0D01*
G01*
X218545000Y-478065000D01*
G75*
G02*
X218795000Y-478315000I0J-250000D01*
G01*
X218795000Y-479265000D01*
G75*
G02*
X218545000Y-479515000I-250000J0D01*
G01*
X217870000Y-479515000D01*
G75*
G02*
X217620000Y-479265000I0J250000D01*
G01*
G37*
G36*
G01*
X215545000Y-479265000D02*
X215545000Y-478315000D01*
G75*
G02*
X215795000Y-478065000I250000J0D01*
G01*
X216470000Y-478065000D01*
G75*
G02*
X216720000Y-478315000I0J-250000D01*
G01*
X216720000Y-479265000D01*
G75*
G02*
X216470000Y-479515000I-250000J0D01*
G01*
X215795000Y-479515000D01*
G75*
G02*
X215545000Y-479265000I0J250000D01*
G01*
G37*
%TD*%
%TO.C,C13*%
G36*
G01*
X217620000Y-474185000D02*
X217620000Y-473235000D01*
G75*
G02*
X217870000Y-472985000I250000J0D01*
G01*
X218545000Y-472985000D01*
G75*
G02*
X218795000Y-473235000I0J-250000D01*
G01*
X218795000Y-474185000D01*
G75*
G02*
X218545000Y-474435000I-250000J0D01*
G01*
X217870000Y-474435000D01*
G75*
G02*
X217620000Y-474185000I0J250000D01*
G01*
G37*
G36*
G01*
X215545000Y-474185000D02*
X215545000Y-473235000D01*
G75*
G02*
X215795000Y-472985000I250000J0D01*
G01*
X216470000Y-472985000D01*
G75*
G02*
X216720000Y-473235000I0J-250000D01*
G01*
X216720000Y-474185000D01*
G75*
G02*
X216470000Y-474435000I-250000J0D01*
G01*
X215795000Y-474435000D01*
G75*
G02*
X215545000Y-474185000I0J250000D01*
G01*
G37*
%TD*%
%TO.C,C9*%
G36*
G01*
X224315000Y-466540000D02*
X225265000Y-466540000D01*
G75*
G02*
X225515000Y-466790000I0J-250000D01*
G01*
X225515000Y-467465000D01*
G75*
G02*
X225265000Y-467715000I-250000J0D01*
G01*
X224315000Y-467715000D01*
G75*
G02*
X224065000Y-467465000I0J250000D01*
G01*
X224065000Y-466790000D01*
G75*
G02*
X224315000Y-466540000I250000J0D01*
G01*
G37*
G36*
G01*
X224315000Y-464465000D02*
X225265000Y-464465000D01*
G75*
G02*
X225515000Y-464715000I0J-250000D01*
G01*
X225515000Y-465390000D01*
G75*
G02*
X225265000Y-465640000I-250000J0D01*
G01*
X224315000Y-465640000D01*
G75*
G02*
X224065000Y-465390000I0J250000D01*
G01*
X224065000Y-464715000D01*
G75*
G02*
X224315000Y-464465000I250000J0D01*
G01*
G37*
%TD*%
%TO.C,C6*%
G36*
G01*
X254450000Y-483075000D02*
X254450000Y-482125000D01*
G75*
G02*
X254700000Y-481875000I250000J0D01*
G01*
X255375000Y-481875000D01*
G75*
G02*
X255625000Y-482125000I0J-250000D01*
G01*
X255625000Y-483075000D01*
G75*
G02*
X255375000Y-483325000I-250000J0D01*
G01*
X254700000Y-483325000D01*
G75*
G02*
X254450000Y-483075000I0J250000D01*
G01*
G37*
G36*
G01*
X252375000Y-483075000D02*
X252375000Y-482125000D01*
G75*
G02*
X252625000Y-481875000I250000J0D01*
G01*
X253300000Y-481875000D01*
G75*
G02*
X253550000Y-482125000I0J-250000D01*
G01*
X253550000Y-483075000D01*
G75*
G02*
X253300000Y-483325000I-250000J0D01*
G01*
X252625000Y-483325000D01*
G75*
G02*
X252375000Y-483075000I0J250000D01*
G01*
G37*
%TD*%
%TO.C,C5*%
G36*
G01*
X254450000Y-475455000D02*
X254450000Y-474505000D01*
G75*
G02*
X254700000Y-474255000I250000J0D01*
G01*
X255375000Y-474255000D01*
G75*
G02*
X255625000Y-474505000I0J-250000D01*
G01*
X255625000Y-475455000D01*
G75*
G02*
X255375000Y-475705000I-250000J0D01*
G01*
X254700000Y-475705000D01*
G75*
G02*
X254450000Y-475455000I0J250000D01*
G01*
G37*
G36*
G01*
X252375000Y-475455000D02*
X252375000Y-474505000D01*
G75*
G02*
X252625000Y-474255000I250000J0D01*
G01*
X253300000Y-474255000D01*
G75*
G02*
X253550000Y-474505000I0J-250000D01*
G01*
X253550000Y-475455000D01*
G75*
G02*
X253300000Y-475705000I-250000J0D01*
G01*
X252625000Y-475705000D01*
G75*
G02*
X252375000Y-475455000I0J250000D01*
G01*
G37*
%TD*%
M02*
