%TF.GenerationSoftware,KiCad,Pcbnew,5.1.8-5.1.8*%
%TF.CreationDate,2021-02-27T17:22:06+08:00*%
%TF.ProjectId,Resolver,5265736f-6c76-4657-922e-6b696361645f,rev?*%
%TF.SameCoordinates,Original*%
%TF.FileFunction,Legend,Top*%
%TF.FilePolarity,Positive*%
%FSLAX46Y46*%
G04 Gerber Fmt 4.6, Leading zero omitted, Abs format (unit mm)*
G04 Created by KiCad (PCBNEW 5.1.8-5.1.8) date 2021-02-27 17:22:06*
%MOMM*%
%LPD*%
G01*
G04 APERTURE LIST*
%ADD10C,0.150000*%
%ADD11C,0.120000*%
G04 APERTURE END LIST*
D10*
X219313333Y-424584761D02*
X219456190Y-424632380D01*
X219694285Y-424632380D01*
X219789523Y-424584761D01*
X219837142Y-424537142D01*
X219884761Y-424441904D01*
X219884761Y-424346666D01*
X219837142Y-424251428D01*
X219789523Y-424203809D01*
X219694285Y-424156190D01*
X219503809Y-424108571D01*
X219408571Y-424060952D01*
X219360952Y-424013333D01*
X219313333Y-423918095D01*
X219313333Y-423822857D01*
X219360952Y-423727619D01*
X219408571Y-423680000D01*
X219503809Y-423632380D01*
X219741904Y-423632380D01*
X219884761Y-423680000D01*
X220313333Y-424632380D02*
X220313333Y-423632380D01*
X220789523Y-424632380D02*
X220789523Y-423632380D01*
X221360952Y-424632380D01*
X221360952Y-423632380D01*
X221837142Y-424251428D02*
X222599047Y-424251428D01*
X191373333Y-424584761D02*
X191516190Y-424632380D01*
X191754285Y-424632380D01*
X191849523Y-424584761D01*
X191897142Y-424537142D01*
X191944761Y-424441904D01*
X191944761Y-424346666D01*
X191897142Y-424251428D01*
X191849523Y-424203809D01*
X191754285Y-424156190D01*
X191563809Y-424108571D01*
X191468571Y-424060952D01*
X191420952Y-424013333D01*
X191373333Y-423918095D01*
X191373333Y-423822857D01*
X191420952Y-423727619D01*
X191468571Y-423680000D01*
X191563809Y-423632380D01*
X191801904Y-423632380D01*
X191944761Y-423680000D01*
X192373333Y-424632380D02*
X192373333Y-423632380D01*
X192849523Y-424632380D02*
X192849523Y-423632380D01*
X193420952Y-424632380D01*
X193420952Y-423632380D01*
X193897142Y-424251428D02*
X194659047Y-424251428D01*
X194278095Y-424632380D02*
X194278095Y-423870476D01*
X255230476Y-424537142D02*
X255182857Y-424584761D01*
X255040000Y-424632380D01*
X254944761Y-424632380D01*
X254801904Y-424584761D01*
X254706666Y-424489523D01*
X254659047Y-424394285D01*
X254611428Y-424203809D01*
X254611428Y-424060952D01*
X254659047Y-423870476D01*
X254706666Y-423775238D01*
X254801904Y-423680000D01*
X254944761Y-423632380D01*
X255040000Y-423632380D01*
X255182857Y-423680000D01*
X255230476Y-423727619D01*
X255849523Y-423632380D02*
X256040000Y-423632380D01*
X256135238Y-423680000D01*
X256230476Y-423775238D01*
X256278095Y-423965714D01*
X256278095Y-424299047D01*
X256230476Y-424489523D01*
X256135238Y-424584761D01*
X256040000Y-424632380D01*
X255849523Y-424632380D01*
X255754285Y-424584761D01*
X255659047Y-424489523D01*
X255611428Y-424299047D01*
X255611428Y-423965714D01*
X255659047Y-423775238D01*
X255754285Y-423680000D01*
X255849523Y-423632380D01*
X256659047Y-424584761D02*
X256801904Y-424632380D01*
X257040000Y-424632380D01*
X257135238Y-424584761D01*
X257182857Y-424537142D01*
X257230476Y-424441904D01*
X257230476Y-424346666D01*
X257182857Y-424251428D01*
X257135238Y-424203809D01*
X257040000Y-424156190D01*
X256849523Y-424108571D01*
X256754285Y-424060952D01*
X256706666Y-424013333D01*
X256659047Y-423918095D01*
X256659047Y-423822857D01*
X256706666Y-423727619D01*
X256754285Y-423680000D01*
X256849523Y-423632380D01*
X257087619Y-423632380D01*
X257230476Y-423680000D01*
X257659047Y-424251428D02*
X258420952Y-424251428D01*
X227290476Y-424537142D02*
X227242857Y-424584761D01*
X227100000Y-424632380D01*
X227004761Y-424632380D01*
X226861904Y-424584761D01*
X226766666Y-424489523D01*
X226719047Y-424394285D01*
X226671428Y-424203809D01*
X226671428Y-424060952D01*
X226719047Y-423870476D01*
X226766666Y-423775238D01*
X226861904Y-423680000D01*
X227004761Y-423632380D01*
X227100000Y-423632380D01*
X227242857Y-423680000D01*
X227290476Y-423727619D01*
X227909523Y-423632380D02*
X228100000Y-423632380D01*
X228195238Y-423680000D01*
X228290476Y-423775238D01*
X228338095Y-423965714D01*
X228338095Y-424299047D01*
X228290476Y-424489523D01*
X228195238Y-424584761D01*
X228100000Y-424632380D01*
X227909523Y-424632380D01*
X227814285Y-424584761D01*
X227719047Y-424489523D01*
X227671428Y-424299047D01*
X227671428Y-423965714D01*
X227719047Y-423775238D01*
X227814285Y-423680000D01*
X227909523Y-423632380D01*
X228719047Y-424584761D02*
X228861904Y-424632380D01*
X229100000Y-424632380D01*
X229195238Y-424584761D01*
X229242857Y-424537142D01*
X229290476Y-424441904D01*
X229290476Y-424346666D01*
X229242857Y-424251428D01*
X229195238Y-424203809D01*
X229100000Y-424156190D01*
X228909523Y-424108571D01*
X228814285Y-424060952D01*
X228766666Y-424013333D01*
X228719047Y-423918095D01*
X228719047Y-423822857D01*
X228766666Y-423727619D01*
X228814285Y-423680000D01*
X228909523Y-423632380D01*
X229147619Y-423632380D01*
X229290476Y-423680000D01*
X229719047Y-424251428D02*
X230480952Y-424251428D01*
X230100000Y-424632380D02*
X230100000Y-423870476D01*
X180848095Y-412250000D02*
X180752857Y-412202380D01*
X180610000Y-412202380D01*
X180467142Y-412250000D01*
X180371904Y-412345238D01*
X180324285Y-412440476D01*
X180276666Y-412630952D01*
X180276666Y-412773809D01*
X180324285Y-412964285D01*
X180371904Y-413059523D01*
X180467142Y-413154761D01*
X180610000Y-413202380D01*
X180705238Y-413202380D01*
X180848095Y-413154761D01*
X180895714Y-413107142D01*
X180895714Y-412773809D01*
X180705238Y-412773809D01*
X181324285Y-413202380D02*
X181324285Y-412202380D01*
X181895714Y-413202380D01*
X181895714Y-412202380D01*
X182371904Y-413202380D02*
X182371904Y-412202380D01*
X182610000Y-412202380D01*
X182752857Y-412250000D01*
X182848095Y-412345238D01*
X182895714Y-412440476D01*
X182943333Y-412630952D01*
X182943333Y-412773809D01*
X182895714Y-412964285D01*
X182848095Y-413059523D01*
X182752857Y-413154761D01*
X182610000Y-413202380D01*
X182371904Y-413202380D01*
X171386666Y-412202380D02*
X171720000Y-413202380D01*
X172053333Y-412202380D01*
X172958095Y-413107142D02*
X172910476Y-413154761D01*
X172767619Y-413202380D01*
X172672380Y-413202380D01*
X172529523Y-413154761D01*
X172434285Y-413059523D01*
X172386666Y-412964285D01*
X172339047Y-412773809D01*
X172339047Y-412630952D01*
X172386666Y-412440476D01*
X172434285Y-412345238D01*
X172529523Y-412250000D01*
X172672380Y-412202380D01*
X172767619Y-412202380D01*
X172910476Y-412250000D01*
X172958095Y-412297619D01*
X173958095Y-413107142D02*
X173910476Y-413154761D01*
X173767619Y-413202380D01*
X173672380Y-413202380D01*
X173529523Y-413154761D01*
X173434285Y-413059523D01*
X173386666Y-412964285D01*
X173339047Y-412773809D01*
X173339047Y-412630952D01*
X173386666Y-412440476D01*
X173434285Y-412345238D01*
X173529523Y-412250000D01*
X173672380Y-412202380D01*
X173767619Y-412202380D01*
X173910476Y-412250000D01*
X173958095Y-412297619D01*
X226512380Y-497808095D02*
X225512380Y-497808095D01*
X226512380Y-497236666D01*
X225512380Y-497236666D01*
X226464761Y-496808095D02*
X226512380Y-496665238D01*
X226512380Y-496427142D01*
X226464761Y-496331904D01*
X226417142Y-496284285D01*
X226321904Y-496236666D01*
X226226666Y-496236666D01*
X226131428Y-496284285D01*
X226083809Y-496331904D01*
X226036190Y-496427142D01*
X225988571Y-496617619D01*
X225940952Y-496712857D01*
X225893333Y-496760476D01*
X225798095Y-496808095D01*
X225702857Y-496808095D01*
X225607619Y-496760476D01*
X225560000Y-496712857D01*
X225512380Y-496617619D01*
X225512380Y-496379523D01*
X225560000Y-496236666D01*
X226464761Y-495855714D02*
X226512380Y-495712857D01*
X226512380Y-495474761D01*
X226464761Y-495379523D01*
X226417142Y-495331904D01*
X226321904Y-495284285D01*
X226226666Y-495284285D01*
X226131428Y-495331904D01*
X226083809Y-495379523D01*
X226036190Y-495474761D01*
X225988571Y-495665238D01*
X225940952Y-495760476D01*
X225893333Y-495808095D01*
X225798095Y-495855714D01*
X225702857Y-495855714D01*
X225607619Y-495808095D01*
X225560000Y-495760476D01*
X225512380Y-495665238D01*
X225512380Y-495427142D01*
X225560000Y-495284285D01*
X229004761Y-497855714D02*
X229052380Y-497712857D01*
X229052380Y-497474761D01*
X229004761Y-497379523D01*
X228957142Y-497331904D01*
X228861904Y-497284285D01*
X228766666Y-497284285D01*
X228671428Y-497331904D01*
X228623809Y-497379523D01*
X228576190Y-497474761D01*
X228528571Y-497665238D01*
X228480952Y-497760476D01*
X228433333Y-497808095D01*
X228338095Y-497855714D01*
X228242857Y-497855714D01*
X228147619Y-497808095D01*
X228100000Y-497760476D01*
X228052380Y-497665238D01*
X228052380Y-497427142D01*
X228100000Y-497284285D01*
X228957142Y-496284285D02*
X229004761Y-496331904D01*
X229052380Y-496474761D01*
X229052380Y-496570000D01*
X229004761Y-496712857D01*
X228909523Y-496808095D01*
X228814285Y-496855714D01*
X228623809Y-496903333D01*
X228480952Y-496903333D01*
X228290476Y-496855714D01*
X228195238Y-496808095D01*
X228100000Y-496712857D01*
X228052380Y-496570000D01*
X228052380Y-496474761D01*
X228100000Y-496331904D01*
X228147619Y-496284285D01*
X229052380Y-495855714D02*
X228052380Y-495855714D01*
X229052380Y-495284285D02*
X228480952Y-495712857D01*
X228052380Y-495284285D02*
X228623809Y-495855714D01*
X231592380Y-498141428D02*
X230592380Y-498141428D01*
X231306666Y-497808095D01*
X230592380Y-497474761D01*
X231592380Y-497474761D01*
X231592380Y-496998571D02*
X230592380Y-496998571D01*
X231544761Y-496570000D02*
X231592380Y-496427142D01*
X231592380Y-496189047D01*
X231544761Y-496093809D01*
X231497142Y-496046190D01*
X231401904Y-495998571D01*
X231306666Y-495998571D01*
X231211428Y-496046190D01*
X231163809Y-496093809D01*
X231116190Y-496189047D01*
X231068571Y-496379523D01*
X231020952Y-496474761D01*
X230973333Y-496522380D01*
X230878095Y-496570000D01*
X230782857Y-496570000D01*
X230687619Y-496522380D01*
X230640000Y-496474761D01*
X230592380Y-496379523D01*
X230592380Y-496141428D01*
X230640000Y-495998571D01*
X230592380Y-495379523D02*
X230592380Y-495189047D01*
X230640000Y-495093809D01*
X230735238Y-494998571D01*
X230925714Y-494950952D01*
X231259047Y-494950952D01*
X231449523Y-494998571D01*
X231544761Y-495093809D01*
X231592380Y-495189047D01*
X231592380Y-495379523D01*
X231544761Y-495474761D01*
X231449523Y-495570000D01*
X231259047Y-495617619D01*
X230925714Y-495617619D01*
X230735238Y-495570000D01*
X230640000Y-495474761D01*
X230592380Y-495379523D01*
X234132380Y-498141428D02*
X233132380Y-498141428D01*
X233846666Y-497808095D01*
X233132380Y-497474761D01*
X234132380Y-497474761D01*
X233132380Y-496808095D02*
X233132380Y-496617619D01*
X233180000Y-496522380D01*
X233275238Y-496427142D01*
X233465714Y-496379523D01*
X233799047Y-496379523D01*
X233989523Y-496427142D01*
X234084761Y-496522380D01*
X234132380Y-496617619D01*
X234132380Y-496808095D01*
X234084761Y-496903333D01*
X233989523Y-496998571D01*
X233799047Y-497046190D01*
X233465714Y-497046190D01*
X233275238Y-496998571D01*
X233180000Y-496903333D01*
X233132380Y-496808095D01*
X234084761Y-495998571D02*
X234132380Y-495855714D01*
X234132380Y-495617619D01*
X234084761Y-495522380D01*
X234037142Y-495474761D01*
X233941904Y-495427142D01*
X233846666Y-495427142D01*
X233751428Y-495474761D01*
X233703809Y-495522380D01*
X233656190Y-495617619D01*
X233608571Y-495808095D01*
X233560952Y-495903333D01*
X233513333Y-495950952D01*
X233418095Y-495998571D01*
X233322857Y-495998571D01*
X233227619Y-495950952D01*
X233180000Y-495903333D01*
X233132380Y-495808095D01*
X233132380Y-495570000D01*
X233180000Y-495427142D01*
X234132380Y-494998571D02*
X233132380Y-494998571D01*
X245880000Y-499982857D02*
X245832380Y-500078095D01*
X245832380Y-500220952D01*
X245880000Y-500363809D01*
X245975238Y-500459047D01*
X246070476Y-500506666D01*
X246260952Y-500554285D01*
X246403809Y-500554285D01*
X246594285Y-500506666D01*
X246689523Y-500459047D01*
X246784761Y-500363809D01*
X246832380Y-500220952D01*
X246832380Y-500125714D01*
X246784761Y-499982857D01*
X246737142Y-499935238D01*
X246403809Y-499935238D01*
X246403809Y-500125714D01*
X246832380Y-499506666D02*
X245832380Y-499506666D01*
X246832380Y-498935238D01*
X245832380Y-498935238D01*
X246832380Y-498459047D02*
X245832380Y-498459047D01*
X245832380Y-498220952D01*
X245880000Y-498078095D01*
X245975238Y-497982857D01*
X246070476Y-497935238D01*
X246260952Y-497887619D01*
X246403809Y-497887619D01*
X246594285Y-497935238D01*
X246689523Y-497982857D01*
X246784761Y-498078095D01*
X246832380Y-498220952D01*
X246832380Y-498459047D01*
X246832380Y-496887619D02*
X246356190Y-497220952D01*
X246832380Y-497459047D02*
X245832380Y-497459047D01*
X245832380Y-497078095D01*
X245880000Y-496982857D01*
X245927619Y-496935238D01*
X246022857Y-496887619D01*
X246165714Y-496887619D01*
X246260952Y-496935238D01*
X246308571Y-496982857D01*
X246356190Y-497078095D01*
X246356190Y-497459047D01*
X246308571Y-496459047D02*
X246308571Y-496125714D01*
X246832380Y-495982857D02*
X246832380Y-496459047D01*
X245832380Y-496459047D01*
X245832380Y-495982857D01*
X246308571Y-495220952D02*
X246308571Y-495554285D01*
X246832380Y-495554285D02*
X245832380Y-495554285D01*
X245832380Y-495078095D01*
X249372380Y-497593809D02*
X248372380Y-497593809D01*
X248372380Y-497355714D01*
X248420000Y-497212857D01*
X248515238Y-497117619D01*
X248610476Y-497070000D01*
X248800952Y-497022380D01*
X248943809Y-497022380D01*
X249134285Y-497070000D01*
X249229523Y-497117619D01*
X249324761Y-497212857D01*
X249372380Y-497355714D01*
X249372380Y-497593809D01*
X249372380Y-496593809D02*
X248372380Y-496593809D01*
X248372380Y-495927142D02*
X248372380Y-495736666D01*
X248420000Y-495641428D01*
X248515238Y-495546190D01*
X248705714Y-495498571D01*
X249039047Y-495498571D01*
X249229523Y-495546190D01*
X249324761Y-495641428D01*
X249372380Y-495736666D01*
X249372380Y-495927142D01*
X249324761Y-496022380D01*
X249229523Y-496117619D01*
X249039047Y-496165238D01*
X248705714Y-496165238D01*
X248515238Y-496117619D01*
X248420000Y-496022380D01*
X248372380Y-495927142D01*
X251817142Y-497165238D02*
X251864761Y-497212857D01*
X251912380Y-497355714D01*
X251912380Y-497450952D01*
X251864761Y-497593809D01*
X251769523Y-497689047D01*
X251674285Y-497736666D01*
X251483809Y-497784285D01*
X251340952Y-497784285D01*
X251150476Y-497736666D01*
X251055238Y-497689047D01*
X250960000Y-497593809D01*
X250912380Y-497450952D01*
X250912380Y-497355714D01*
X250960000Y-497212857D01*
X251007619Y-497165238D01*
X251912380Y-496260476D02*
X251912380Y-496736666D01*
X250912380Y-496736666D01*
X251912380Y-495927142D02*
X250912380Y-495927142D01*
X251912380Y-495355714D02*
X251340952Y-495784285D01*
X250912380Y-495355714D02*
X251483809Y-495927142D01*
D11*
%TO.C,R31*%
X181610000Y-474750000D02*
X181610000Y-475520000D01*
X181610000Y-482830000D02*
X181610000Y-482060000D01*
X180240000Y-475520000D02*
X180240000Y-482060000D01*
X182980000Y-475520000D02*
X180240000Y-475520000D01*
X182980000Y-482060000D02*
X182980000Y-475520000D01*
X180240000Y-482060000D02*
X182980000Y-482060000D01*
%TO.C,R30*%
X194310000Y-473480000D02*
X194310000Y-474250000D01*
X194310000Y-481560000D02*
X194310000Y-480790000D01*
X192940000Y-474250000D02*
X192940000Y-480790000D01*
X195680000Y-474250000D02*
X192940000Y-474250000D01*
X195680000Y-480790000D02*
X195680000Y-474250000D01*
X192940000Y-480790000D02*
X195680000Y-480790000D01*
%TO.C,R29*%
X203200000Y-473480000D02*
X203200000Y-474250000D01*
X203200000Y-481560000D02*
X203200000Y-480790000D01*
X201830000Y-474250000D02*
X201830000Y-480790000D01*
X204570000Y-474250000D02*
X201830000Y-474250000D01*
X204570000Y-480790000D02*
X204570000Y-474250000D01*
X201830000Y-480790000D02*
X204570000Y-480790000D01*
%TO.C,R28*%
X187960000Y-478560000D02*
X187960000Y-479330000D01*
X187960000Y-486640000D02*
X187960000Y-485870000D01*
X186590000Y-479330000D02*
X186590000Y-485870000D01*
X189330000Y-479330000D02*
X186590000Y-479330000D01*
X189330000Y-485870000D02*
X189330000Y-479330000D01*
X186590000Y-485870000D02*
X189330000Y-485870000D01*
%TO.C,R27*%
X209550000Y-486640000D02*
X209550000Y-485870000D01*
X209550000Y-478560000D02*
X209550000Y-479330000D01*
X210920000Y-485870000D02*
X210920000Y-479330000D01*
X208180000Y-485870000D02*
X210920000Y-485870000D01*
X208180000Y-479330000D02*
X208180000Y-485870000D01*
X210920000Y-479330000D02*
X208180000Y-479330000D01*
%TO.C,R26*%
X163830000Y-474750000D02*
X163830000Y-475520000D01*
X163830000Y-482830000D02*
X163830000Y-482060000D01*
X162460000Y-475520000D02*
X162460000Y-482060000D01*
X165200000Y-475520000D02*
X162460000Y-475520000D01*
X165200000Y-482060000D02*
X165200000Y-475520000D01*
X162460000Y-482060000D02*
X165200000Y-482060000D01*
%TO.C,R25*%
X181610000Y-458240000D02*
X181610000Y-459010000D01*
X181610000Y-466320000D02*
X181610000Y-465550000D01*
X180240000Y-459010000D02*
X180240000Y-465550000D01*
X182980000Y-459010000D02*
X180240000Y-459010000D01*
X182980000Y-465550000D02*
X182980000Y-459010000D01*
X180240000Y-465550000D02*
X182980000Y-465550000D01*
%TO.C,R24*%
X231140000Y-443000000D02*
X231140000Y-443770000D01*
X231140000Y-451080000D02*
X231140000Y-450310000D01*
X229770000Y-443770000D02*
X229770000Y-450310000D01*
X232510000Y-443770000D02*
X229770000Y-443770000D01*
X232510000Y-450310000D02*
X232510000Y-443770000D01*
X229770000Y-450310000D02*
X232510000Y-450310000D01*
%TO.C,R23*%
X218210000Y-450850000D02*
X218980000Y-450850000D01*
X226290000Y-450850000D02*
X225520000Y-450850000D01*
X218980000Y-452220000D02*
X225520000Y-452220000D01*
X218980000Y-449480000D02*
X218980000Y-452220000D01*
X225520000Y-449480000D02*
X218980000Y-449480000D01*
X225520000Y-452220000D02*
X225520000Y-449480000D01*
%TO.C,R22*%
X244070000Y-441960000D02*
X243300000Y-441960000D01*
X235990000Y-441960000D02*
X236760000Y-441960000D01*
X243300000Y-440590000D02*
X236760000Y-440590000D01*
X243300000Y-443330000D02*
X243300000Y-440590000D01*
X236760000Y-443330000D02*
X243300000Y-443330000D01*
X236760000Y-440590000D02*
X236760000Y-443330000D01*
%TO.C,R21*%
X213590000Y-441960000D02*
X212820000Y-441960000D01*
X205510000Y-441960000D02*
X206280000Y-441960000D01*
X212820000Y-440590000D02*
X206280000Y-440590000D01*
X212820000Y-443330000D02*
X212820000Y-440590000D01*
X206280000Y-443330000D02*
X212820000Y-443330000D01*
X206280000Y-440590000D02*
X206280000Y-443330000D01*
%TO.C,R20*%
X248920000Y-434110000D02*
X248920000Y-434880000D01*
X248920000Y-442190000D02*
X248920000Y-441420000D01*
X247550000Y-434880000D02*
X247550000Y-441420000D01*
X250290000Y-434880000D02*
X247550000Y-434880000D01*
X250290000Y-441420000D02*
X250290000Y-434880000D01*
X247550000Y-441420000D02*
X250290000Y-441420000D01*
%TO.C,R19*%
X218440000Y-434110000D02*
X218440000Y-434880000D01*
X218440000Y-442190000D02*
X218440000Y-441420000D01*
X217070000Y-434880000D02*
X217070000Y-441420000D01*
X219810000Y-434880000D02*
X217070000Y-434880000D01*
X219810000Y-441420000D02*
X219810000Y-434880000D01*
X217070000Y-441420000D02*
X219810000Y-441420000D01*
%TO.C,R18*%
X254000000Y-439650000D02*
X254000000Y-438880000D01*
X254000000Y-431570000D02*
X254000000Y-432340000D01*
X255370000Y-438880000D02*
X255370000Y-432340000D01*
X252630000Y-438880000D02*
X255370000Y-438880000D01*
X252630000Y-432340000D02*
X252630000Y-438880000D01*
X255370000Y-432340000D02*
X252630000Y-432340000D01*
%TO.C,R17*%
X235990000Y-407670000D02*
X236760000Y-407670000D01*
X244070000Y-407670000D02*
X243300000Y-407670000D01*
X236760000Y-409040000D02*
X243300000Y-409040000D01*
X236760000Y-406300000D02*
X236760000Y-409040000D01*
X243300000Y-406300000D02*
X236760000Y-406300000D01*
X243300000Y-409040000D02*
X243300000Y-406300000D01*
%TO.C,R16*%
X223520000Y-440920000D02*
X223520000Y-440150000D01*
X223520000Y-432840000D02*
X223520000Y-433610000D01*
X224890000Y-440150000D02*
X224890000Y-433610000D01*
X222150000Y-440150000D02*
X224890000Y-440150000D01*
X222150000Y-433610000D02*
X222150000Y-440150000D01*
X224890000Y-433610000D02*
X222150000Y-433610000D01*
%TO.C,R15*%
X205510000Y-407670000D02*
X206280000Y-407670000D01*
X213590000Y-407670000D02*
X212820000Y-407670000D01*
X206280000Y-409040000D02*
X212820000Y-409040000D01*
X206280000Y-406300000D02*
X206280000Y-409040000D01*
X212820000Y-406300000D02*
X206280000Y-406300000D01*
X212820000Y-409040000D02*
X212820000Y-406300000D01*
%TO.C,R14*%
X229870000Y-411250000D02*
X229870000Y-412020000D01*
X229870000Y-419330000D02*
X229870000Y-418560000D01*
X228500000Y-412020000D02*
X228500000Y-418560000D01*
X231240000Y-412020000D02*
X228500000Y-412020000D01*
X231240000Y-418560000D02*
X231240000Y-412020000D01*
X228500000Y-418560000D02*
X231240000Y-418560000D01*
%TO.C,R13*%
X199390000Y-411250000D02*
X199390000Y-412020000D01*
X199390000Y-419330000D02*
X199390000Y-418560000D01*
X198020000Y-412020000D02*
X198020000Y-418560000D01*
X200760000Y-412020000D02*
X198020000Y-412020000D01*
X200760000Y-418560000D02*
X200760000Y-412020000D01*
X198020000Y-418560000D02*
X200760000Y-418560000D01*
%TO.C,R12*%
X250190000Y-411250000D02*
X250190000Y-412020000D01*
X250190000Y-419330000D02*
X250190000Y-418560000D01*
X248820000Y-412020000D02*
X248820000Y-418560000D01*
X251560000Y-412020000D02*
X248820000Y-412020000D01*
X251560000Y-418560000D02*
X251560000Y-412020000D01*
X248820000Y-418560000D02*
X251560000Y-418560000D01*
%TO.C,R11*%
X219710000Y-411250000D02*
X219710000Y-412020000D01*
X219710000Y-419330000D02*
X219710000Y-418560000D01*
X218340000Y-412020000D02*
X218340000Y-418560000D01*
X221080000Y-412020000D02*
X218340000Y-412020000D01*
X221080000Y-418560000D02*
X221080000Y-412020000D01*
X218340000Y-418560000D02*
X221080000Y-418560000D01*
%TO.C,R10*%
X235990000Y-414020000D02*
X236760000Y-414020000D01*
X244070000Y-414020000D02*
X243300000Y-414020000D01*
X236760000Y-415390000D02*
X243300000Y-415390000D01*
X236760000Y-412650000D02*
X236760000Y-415390000D01*
X243300000Y-412650000D02*
X236760000Y-412650000D01*
X243300000Y-415390000D02*
X243300000Y-412650000D01*
%TO.C,R9*%
X205510000Y-414020000D02*
X206280000Y-414020000D01*
X213590000Y-414020000D02*
X212820000Y-414020000D01*
X206280000Y-415390000D02*
X212820000Y-415390000D01*
X206280000Y-412650000D02*
X206280000Y-415390000D01*
X212820000Y-412650000D02*
X206280000Y-412650000D01*
X212820000Y-415390000D02*
X212820000Y-412650000D01*
%TO.C,R8*%
X163830000Y-459510000D02*
X163830000Y-460280000D01*
X163830000Y-467590000D02*
X163830000Y-466820000D01*
X162460000Y-460280000D02*
X162460000Y-466820000D01*
X165200000Y-460280000D02*
X162460000Y-460280000D01*
X165200000Y-466820000D02*
X165200000Y-460280000D01*
X162460000Y-466820000D02*
X165200000Y-466820000D01*
%TO.C,R7*%
X193040000Y-454430000D02*
X193040000Y-455200000D01*
X193040000Y-462510000D02*
X193040000Y-461740000D01*
X191670000Y-455200000D02*
X191670000Y-461740000D01*
X194410000Y-455200000D02*
X191670000Y-455200000D01*
X194410000Y-461740000D02*
X194410000Y-455200000D01*
X191670000Y-461740000D02*
X194410000Y-461740000D01*
%TO.C,R6*%
X177800000Y-441730000D02*
X177800000Y-442500000D01*
X177800000Y-449810000D02*
X177800000Y-449040000D01*
X176430000Y-442500000D02*
X176430000Y-449040000D01*
X179170000Y-442500000D02*
X176430000Y-442500000D01*
X179170000Y-449040000D02*
X179170000Y-442500000D01*
X176430000Y-449040000D02*
X179170000Y-449040000D01*
%TO.C,R5*%
X184150000Y-449810000D02*
X184150000Y-449040000D01*
X184150000Y-441730000D02*
X184150000Y-442500000D01*
X185520000Y-449040000D02*
X185520000Y-442500000D01*
X182780000Y-449040000D02*
X185520000Y-449040000D01*
X182780000Y-442500000D02*
X182780000Y-449040000D01*
X185520000Y-442500000D02*
X182780000Y-442500000D01*
%TO.C,R4*%
X246150000Y-469900000D02*
X246920000Y-469900000D01*
X254230000Y-469900000D02*
X253460000Y-469900000D01*
X246920000Y-471270000D02*
X253460000Y-471270000D01*
X246920000Y-468530000D02*
X246920000Y-471270000D01*
X253460000Y-468530000D02*
X246920000Y-468530000D01*
X253460000Y-471270000D02*
X253460000Y-468530000D01*
%TO.C,R3*%
X177800000Y-437110000D02*
X177800000Y-436340000D01*
X177800000Y-429030000D02*
X177800000Y-429800000D01*
X179170000Y-436340000D02*
X179170000Y-429800000D01*
X176430000Y-436340000D02*
X179170000Y-436340000D01*
X176430000Y-429800000D02*
X176430000Y-436340000D01*
X179170000Y-429800000D02*
X176430000Y-429800000D01*
%TO.C,R2*%
X190500000Y-429030000D02*
X190500000Y-429800000D01*
X190500000Y-437110000D02*
X190500000Y-436340000D01*
X189130000Y-429800000D02*
X189130000Y-436340000D01*
X191870000Y-429800000D02*
X189130000Y-429800000D01*
X191870000Y-436340000D02*
X191870000Y-429800000D01*
X189130000Y-436340000D02*
X191870000Y-436340000D01*
%TO.C,R1*%
X184150000Y-429030000D02*
X184150000Y-429800000D01*
X184150000Y-437110000D02*
X184150000Y-436340000D01*
X182780000Y-429800000D02*
X182780000Y-436340000D01*
X185520000Y-429800000D02*
X182780000Y-429800000D01*
X185520000Y-436340000D02*
X185520000Y-429800000D01*
X182780000Y-436340000D02*
X185520000Y-436340000D01*
%TO.C,J13*%
X181550000Y-491430000D02*
X182880000Y-491430000D01*
X181550000Y-492760000D02*
X181550000Y-491430000D01*
X181550000Y-494030000D02*
X184210000Y-494030000D01*
X184210000Y-494030000D02*
X184210000Y-496630000D01*
X181550000Y-494030000D02*
X181550000Y-496630000D01*
X181550000Y-496630000D02*
X184210000Y-496630000D01*
%TO.C,Y1*%
X245125000Y-475490000D02*
X245125000Y-481890000D01*
X250175000Y-475490000D02*
X250175000Y-481890000D01*
X245125000Y-481890000D02*
G75*
G03*
X250175000Y-481890000I2525000J0D01*
G01*
X245125000Y-475490000D02*
G75*
G02*
X250175000Y-475490000I2525000J0D01*
G01*
%TO.C,U8*%
X175370000Y-471110000D02*
X173720000Y-471110000D01*
X175370000Y-481390000D02*
X175370000Y-471110000D01*
X170070000Y-481390000D02*
X175370000Y-481390000D01*
X170070000Y-471110000D02*
X170070000Y-481390000D01*
X171720000Y-471110000D02*
X170070000Y-471110000D01*
X173720000Y-471110000D02*
G75*
G02*
X171720000Y-471110000I-1000000J0D01*
G01*
%TO.C,U7*%
X242680000Y-419040000D02*
X241030000Y-419040000D01*
X242680000Y-436940000D02*
X242680000Y-419040000D01*
X237380000Y-436940000D02*
X242680000Y-436940000D01*
X237380000Y-419040000D02*
X237380000Y-436940000D01*
X239030000Y-419040000D02*
X237380000Y-419040000D01*
X241030000Y-419040000D02*
G75*
G02*
X239030000Y-419040000I-1000000J0D01*
G01*
%TO.C,U6*%
X212200000Y-419040000D02*
X210550000Y-419040000D01*
X212200000Y-436940000D02*
X212200000Y-419040000D01*
X206900000Y-436940000D02*
X212200000Y-436940000D01*
X206900000Y-419040000D02*
X206900000Y-436940000D01*
X208550000Y-419040000D02*
X206900000Y-419040000D01*
X210550000Y-419040000D02*
G75*
G02*
X208550000Y-419040000I-1000000J0D01*
G01*
%TO.C,U4*%
X240875000Y-478790000D02*
X240875000Y-475190000D01*
X240875000Y-478790000D02*
X240875000Y-480990000D01*
X234105000Y-478790000D02*
X234105000Y-476590000D01*
X234105000Y-478790000D02*
X234105000Y-480990000D01*
%TO.C,U3*%
X221270000Y-466960000D02*
X215260000Y-466960000D01*
X219020000Y-460140000D02*
X215260000Y-460140000D01*
X215260000Y-466960000D02*
X215260000Y-465700000D01*
X215260000Y-460140000D02*
X215260000Y-461400000D01*
%TO.C,U2*%
X175370000Y-457140000D02*
X173720000Y-457140000D01*
X175370000Y-467420000D02*
X175370000Y-457140000D01*
X170070000Y-467420000D02*
X175370000Y-467420000D01*
X170070000Y-457140000D02*
X170070000Y-467420000D01*
X171720000Y-457140000D02*
X170070000Y-457140000D01*
X173720000Y-457140000D02*
G75*
G02*
X171720000Y-457140000I-1000000J0D01*
G01*
%TO.C,U1*%
X166910000Y-431219000D02*
X168420000Y-431219000D01*
X166910000Y-434920000D02*
X168420000Y-434920000D01*
X168420000Y-438190000D02*
X168420000Y-427950000D01*
X166910000Y-427950000D02*
X171551000Y-427950000D01*
X166910000Y-438190000D02*
X171551000Y-438190000D01*
X171551000Y-438190000D02*
X171551000Y-427950000D01*
X166910000Y-438190000D02*
X166910000Y-427950000D01*
%TO.C,Q4*%
X179600000Y-485830000D02*
X176000000Y-485830000D01*
X175961522Y-485841522D02*
G75*
G03*
X177800000Y-490280000I1838478J-1838478D01*
G01*
X179638478Y-485841522D02*
G75*
G02*
X177800000Y-490280000I-1838478J-1838478D01*
G01*
%TO.C,Q3*%
X179600000Y-493450000D02*
X176000000Y-493450000D01*
X175961522Y-493461522D02*
G75*
G03*
X177800000Y-497900000I1838478J-1838478D01*
G01*
X179638478Y-493461522D02*
G75*
G02*
X177800000Y-497900000I-1838478J-1838478D01*
G01*
%TO.C,Q2*%
X169650000Y-489530000D02*
X173250000Y-489530000D01*
X173288478Y-489518478D02*
G75*
G03*
X171450000Y-485080000I-1838478J1838478D01*
G01*
X169611522Y-489518478D02*
G75*
G02*
X171450000Y-485080000I1838478J1838478D01*
G01*
%TO.C,Q1*%
X169650000Y-497150000D02*
X173250000Y-497150000D01*
X173288478Y-497138478D02*
G75*
G03*
X171450000Y-492700000I-1838478J1838478D01*
G01*
X169611522Y-497138478D02*
G75*
G02*
X171450000Y-492700000I1838478J1838478D01*
G01*
%TO.C,L9*%
X248980000Y-459750000D02*
X248980000Y-454650000D01*
X243780000Y-459750000D02*
X243780000Y-454650000D01*
%TO.C,J12*%
X167700000Y-490160000D02*
X167700000Y-491490000D01*
X166370000Y-490160000D02*
X167700000Y-490160000D01*
X165100000Y-490160000D02*
X165100000Y-492820000D01*
X165100000Y-492820000D02*
X162500000Y-492820000D01*
X165100000Y-490160000D02*
X162500000Y-490160000D01*
X162500000Y-490160000D02*
X162500000Y-492820000D01*
%TO.C,J11*%
X238700000Y-494090000D02*
X238700000Y-492760000D01*
X240030000Y-494090000D02*
X238700000Y-494090000D01*
X241300000Y-494090000D02*
X241300000Y-491430000D01*
X241300000Y-491430000D02*
X241360000Y-491430000D01*
X241300000Y-494090000D02*
X241360000Y-494090000D01*
X241360000Y-494090000D02*
X241360000Y-491430000D01*
%TO.C,J10*%
X224730000Y-494090000D02*
X224730000Y-492760000D01*
X226060000Y-494090000D02*
X224730000Y-494090000D01*
X227330000Y-494090000D02*
X227330000Y-491430000D01*
X227330000Y-491430000D02*
X235010000Y-491430000D01*
X227330000Y-494090000D02*
X235010000Y-494090000D01*
X235010000Y-494090000D02*
X235010000Y-491430000D01*
%TO.C,J9*%
X228660000Y-476310000D02*
X227330000Y-476310000D01*
X228660000Y-474980000D02*
X228660000Y-476310000D01*
X228660000Y-473710000D02*
X226000000Y-473710000D01*
X226000000Y-473710000D02*
X226000000Y-471110000D01*
X228660000Y-473710000D02*
X228660000Y-471110000D01*
X228660000Y-471110000D02*
X226000000Y-471110000D01*
%TO.C,J8*%
X252790000Y-491430000D02*
X252790000Y-492760000D01*
X251460000Y-491430000D02*
X252790000Y-491430000D01*
X250190000Y-491430000D02*
X250190000Y-494090000D01*
X250190000Y-494090000D02*
X245050000Y-494090000D01*
X250190000Y-491430000D02*
X245050000Y-491430000D01*
X245050000Y-491430000D02*
X245050000Y-494090000D01*
%TO.C,J6*%
X180280000Y-407610000D02*
X181610000Y-407610000D01*
X180280000Y-408940000D02*
X180280000Y-407610000D01*
X180280000Y-410210000D02*
X182940000Y-410210000D01*
X182940000Y-410210000D02*
X182940000Y-410270000D01*
X180280000Y-410210000D02*
X180280000Y-410270000D01*
X180280000Y-410270000D02*
X182940000Y-410270000D01*
%TO.C,J5*%
X171390000Y-407610000D02*
X172720000Y-407610000D01*
X171390000Y-408940000D02*
X171390000Y-407610000D01*
X171390000Y-410210000D02*
X174050000Y-410210000D01*
X174050000Y-410210000D02*
X174050000Y-410270000D01*
X171390000Y-410210000D02*
X171390000Y-410270000D01*
X171390000Y-410270000D02*
X174050000Y-410270000D01*
%TO.C,J4*%
X195520000Y-422850000D02*
X196850000Y-422850000D01*
X195520000Y-424180000D02*
X195520000Y-422850000D01*
X195520000Y-425450000D02*
X198180000Y-425450000D01*
X198180000Y-425450000D02*
X198180000Y-425510000D01*
X195520000Y-425450000D02*
X195520000Y-425510000D01*
X195520000Y-425510000D02*
X198180000Y-425510000D01*
%TO.C,J3*%
X251400000Y-422850000D02*
X252730000Y-422850000D01*
X251400000Y-424180000D02*
X251400000Y-422850000D01*
X251400000Y-425450000D02*
X254060000Y-425450000D01*
X254060000Y-425450000D02*
X254060000Y-425510000D01*
X251400000Y-425450000D02*
X251400000Y-425510000D01*
X251400000Y-425510000D02*
X254060000Y-425510000D01*
%TO.C,J2*%
X231080000Y-422850000D02*
X232410000Y-422850000D01*
X231080000Y-424180000D02*
X231080000Y-422850000D01*
X231080000Y-425450000D02*
X233740000Y-425450000D01*
X233740000Y-425450000D02*
X233740000Y-425510000D01*
X231080000Y-425450000D02*
X231080000Y-425510000D01*
X231080000Y-425510000D02*
X233740000Y-425510000D01*
%TO.C,J1*%
X215840000Y-422850000D02*
X217170000Y-422850000D01*
X215840000Y-424180000D02*
X215840000Y-422850000D01*
X215840000Y-425450000D02*
X218500000Y-425450000D01*
X218500000Y-425450000D02*
X218500000Y-425510000D01*
X215840000Y-425450000D02*
X215840000Y-425510000D01*
X215840000Y-425510000D02*
X218500000Y-425510000D01*
%TO.C,D1*%
X166170000Y-421040000D02*
X169110000Y-421040000D01*
X166170000Y-420800000D02*
X169110000Y-420800000D01*
X166170000Y-420920000D02*
X169110000Y-420920000D01*
X167640000Y-415360000D02*
X167640000Y-416380000D01*
X167640000Y-422840000D02*
X167640000Y-421820000D01*
X166170000Y-416380000D02*
X166170000Y-421820000D01*
X169110000Y-416380000D02*
X166170000Y-416380000D01*
X169110000Y-421820000D02*
X169110000Y-416380000D01*
X166170000Y-421820000D02*
X169110000Y-421820000D01*
%TO.C,C24*%
X189015000Y-459850000D02*
X189330000Y-459850000D01*
X186590000Y-459850000D02*
X186905000Y-459850000D01*
X189015000Y-464790000D02*
X189330000Y-464790000D01*
X186590000Y-464790000D02*
X186905000Y-464790000D01*
X189330000Y-464790000D02*
X189330000Y-459850000D01*
X186590000Y-464790000D02*
X186590000Y-459850000D01*
%TO.C,C23*%
X186905000Y-473600000D02*
X186590000Y-473600000D01*
X189330000Y-473600000D02*
X189015000Y-473600000D01*
X186905000Y-468660000D02*
X186590000Y-468660000D01*
X189330000Y-468660000D02*
X189015000Y-468660000D01*
X186590000Y-468660000D02*
X186590000Y-473600000D01*
X189330000Y-468660000D02*
X189330000Y-473600000D01*
%TO.C,C22*%
X194946000Y-487700000D02*
X196930000Y-487700000D01*
X191690000Y-487700000D02*
X193674000Y-487700000D01*
X194946000Y-495440000D02*
X196930000Y-495440000D01*
X191690000Y-495440000D02*
X193674000Y-495440000D01*
X196930000Y-495440000D02*
X196930000Y-487700000D01*
X191690000Y-495440000D02*
X191690000Y-487700000D01*
%TO.C,C21*%
X203836000Y-487700000D02*
X205820000Y-487700000D01*
X200580000Y-487700000D02*
X202564000Y-487700000D01*
X203836000Y-495440000D02*
X205820000Y-495440000D01*
X200580000Y-495440000D02*
X202564000Y-495440000D01*
X205820000Y-495440000D02*
X205820000Y-487700000D01*
X200580000Y-495440000D02*
X200580000Y-487700000D01*
%TO.C,C20*%
X216908748Y-479525000D02*
X217431252Y-479525000D01*
X216908748Y-478055000D02*
X217431252Y-478055000D01*
%TO.C,C19*%
X239815000Y-447070000D02*
X240130000Y-447070000D01*
X237390000Y-447070000D02*
X237705000Y-447070000D01*
X239815000Y-452010000D02*
X240130000Y-452010000D01*
X237390000Y-452010000D02*
X237705000Y-452010000D01*
X240130000Y-452010000D02*
X240130000Y-447070000D01*
X237390000Y-452010000D02*
X237390000Y-447070000D01*
%TO.C,C18*%
X227440000Y-457415000D02*
X227440000Y-457100000D01*
X227440000Y-459840000D02*
X227440000Y-459525000D01*
X232380000Y-457415000D02*
X232380000Y-457100000D01*
X232380000Y-459840000D02*
X232380000Y-459525000D01*
X232380000Y-457100000D02*
X227440000Y-457100000D01*
X232380000Y-459840000D02*
X227440000Y-459840000D01*
%TO.C,C17*%
X228710000Y-426935000D02*
X228710000Y-426620000D01*
X228710000Y-429360000D02*
X228710000Y-429045000D01*
X233650000Y-426935000D02*
X233650000Y-426620000D01*
X233650000Y-429360000D02*
X233650000Y-429045000D01*
X233650000Y-426620000D02*
X228710000Y-426620000D01*
X233650000Y-429360000D02*
X228710000Y-429360000D01*
%TO.C,C16*%
X198230000Y-426935000D02*
X198230000Y-426620000D01*
X198230000Y-429360000D02*
X198230000Y-429045000D01*
X203170000Y-426935000D02*
X203170000Y-426620000D01*
X203170000Y-429360000D02*
X203170000Y-429045000D01*
X203170000Y-426620000D02*
X198230000Y-426620000D01*
X203170000Y-429360000D02*
X198230000Y-429360000D01*
%TO.C,C15*%
X251350000Y-429045000D02*
X251350000Y-429360000D01*
X251350000Y-426620000D02*
X251350000Y-426935000D01*
X246410000Y-429045000D02*
X246410000Y-429360000D01*
X246410000Y-426620000D02*
X246410000Y-426935000D01*
X246410000Y-429360000D02*
X251350000Y-429360000D01*
X246410000Y-426620000D02*
X251350000Y-426620000D01*
%TO.C,C14*%
X220870000Y-429045000D02*
X220870000Y-429360000D01*
X220870000Y-426620000D02*
X220870000Y-426935000D01*
X215930000Y-429045000D02*
X215930000Y-429360000D01*
X215930000Y-426620000D02*
X215930000Y-426935000D01*
X215930000Y-429360000D02*
X220870000Y-429360000D01*
X215930000Y-426620000D02*
X220870000Y-426620000D01*
%TO.C,C13*%
X216908748Y-474445000D02*
X217431252Y-474445000D01*
X216908748Y-472975000D02*
X217431252Y-472975000D01*
%TO.C,C12*%
X254215000Y-459630000D02*
X253900000Y-459630000D01*
X256640000Y-459630000D02*
X256325000Y-459630000D01*
X254215000Y-454690000D02*
X253900000Y-454690000D01*
X256640000Y-454690000D02*
X256325000Y-454690000D01*
X253900000Y-454690000D02*
X253900000Y-459630000D01*
X256640000Y-454690000D02*
X256640000Y-459630000D01*
%TO.C,C9*%
X224055000Y-465828748D02*
X224055000Y-466351252D01*
X225525000Y-465828748D02*
X225525000Y-466351252D01*
%TO.C,C8*%
X230085000Y-468520000D02*
X229770000Y-468520000D01*
X232510000Y-468520000D02*
X232195000Y-468520000D01*
X230085000Y-463580000D02*
X229770000Y-463580000D01*
X232510000Y-463580000D02*
X232195000Y-463580000D01*
X229770000Y-463580000D02*
X229770000Y-468520000D01*
X232510000Y-463580000D02*
X232510000Y-468520000D01*
%TO.C,C7*%
X252620000Y-464605000D02*
X252620000Y-464920000D01*
X252620000Y-462180000D02*
X252620000Y-462495000D01*
X247680000Y-464605000D02*
X247680000Y-464920000D01*
X247680000Y-462180000D02*
X247680000Y-462495000D01*
X247680000Y-464920000D02*
X252620000Y-464920000D01*
X247680000Y-462180000D02*
X252620000Y-462180000D01*
%TO.C,C6*%
X253738748Y-483335000D02*
X254261252Y-483335000D01*
X253738748Y-481865000D02*
X254261252Y-481865000D01*
%TO.C,C5*%
X253738748Y-475715000D02*
X254261252Y-475715000D01*
X253738748Y-474245000D02*
X254261252Y-474245000D01*
%TO.C,C4*%
X168455000Y-450594775D02*
X168955000Y-450594775D01*
X168705000Y-450844775D02*
X168705000Y-450344775D01*
X169896000Y-445439000D02*
X170464000Y-445439000D01*
X169662000Y-445479000D02*
X170698000Y-445479000D01*
X169503000Y-445519000D02*
X170857000Y-445519000D01*
X169375000Y-445559000D02*
X170985000Y-445559000D01*
X169265000Y-445599000D02*
X171095000Y-445599000D01*
X169169000Y-445639000D02*
X171191000Y-445639000D01*
X169082000Y-445679000D02*
X171278000Y-445679000D01*
X169002000Y-445719000D02*
X171358000Y-445719000D01*
X168929000Y-445759000D02*
X171431000Y-445759000D01*
X168861000Y-445799000D02*
X171499000Y-445799000D01*
X168797000Y-445839000D02*
X171563000Y-445839000D01*
X168737000Y-445879000D02*
X171623000Y-445879000D01*
X168680000Y-445919000D02*
X171680000Y-445919000D01*
X168626000Y-445959000D02*
X171734000Y-445959000D01*
X168575000Y-445999000D02*
X171785000Y-445999000D01*
X171220000Y-446039000D02*
X171833000Y-446039000D01*
X168527000Y-446039000D02*
X169140000Y-446039000D01*
X171220000Y-446079000D02*
X171879000Y-446079000D01*
X168481000Y-446079000D02*
X169140000Y-446079000D01*
X171220000Y-446119000D02*
X171923000Y-446119000D01*
X168437000Y-446119000D02*
X169140000Y-446119000D01*
X171220000Y-446159000D02*
X171965000Y-446159000D01*
X168395000Y-446159000D02*
X169140000Y-446159000D01*
X171220000Y-446199000D02*
X172006000Y-446199000D01*
X168354000Y-446199000D02*
X169140000Y-446199000D01*
X171220000Y-446239000D02*
X172044000Y-446239000D01*
X168316000Y-446239000D02*
X169140000Y-446239000D01*
X171220000Y-446279000D02*
X172081000Y-446279000D01*
X168279000Y-446279000D02*
X169140000Y-446279000D01*
X171220000Y-446319000D02*
X172117000Y-446319000D01*
X168243000Y-446319000D02*
X169140000Y-446319000D01*
X171220000Y-446359000D02*
X172151000Y-446359000D01*
X168209000Y-446359000D02*
X169140000Y-446359000D01*
X171220000Y-446399000D02*
X172184000Y-446399000D01*
X168176000Y-446399000D02*
X169140000Y-446399000D01*
X171220000Y-446439000D02*
X172215000Y-446439000D01*
X168145000Y-446439000D02*
X169140000Y-446439000D01*
X171220000Y-446479000D02*
X172245000Y-446479000D01*
X168115000Y-446479000D02*
X169140000Y-446479000D01*
X171220000Y-446519000D02*
X172275000Y-446519000D01*
X168085000Y-446519000D02*
X169140000Y-446519000D01*
X171220000Y-446559000D02*
X172302000Y-446559000D01*
X168058000Y-446559000D02*
X169140000Y-446559000D01*
X171220000Y-446599000D02*
X172329000Y-446599000D01*
X168031000Y-446599000D02*
X169140000Y-446599000D01*
X171220000Y-446639000D02*
X172355000Y-446639000D01*
X168005000Y-446639000D02*
X169140000Y-446639000D01*
X171220000Y-446679000D02*
X172380000Y-446679000D01*
X167980000Y-446679000D02*
X169140000Y-446679000D01*
X171220000Y-446719000D02*
X172404000Y-446719000D01*
X167956000Y-446719000D02*
X169140000Y-446719000D01*
X171220000Y-446759000D02*
X172427000Y-446759000D01*
X167933000Y-446759000D02*
X169140000Y-446759000D01*
X171220000Y-446799000D02*
X172448000Y-446799000D01*
X167912000Y-446799000D02*
X169140000Y-446799000D01*
X171220000Y-446839000D02*
X172470000Y-446839000D01*
X167890000Y-446839000D02*
X169140000Y-446839000D01*
X171220000Y-446879000D02*
X172490000Y-446879000D01*
X167870000Y-446879000D02*
X169140000Y-446879000D01*
X171220000Y-446919000D02*
X172509000Y-446919000D01*
X167851000Y-446919000D02*
X169140000Y-446919000D01*
X171220000Y-446959000D02*
X172528000Y-446959000D01*
X167832000Y-446959000D02*
X169140000Y-446959000D01*
X171220000Y-446999000D02*
X172545000Y-446999000D01*
X167815000Y-446999000D02*
X169140000Y-446999000D01*
X171220000Y-447039000D02*
X172562000Y-447039000D01*
X167798000Y-447039000D02*
X169140000Y-447039000D01*
X171220000Y-447079000D02*
X172578000Y-447079000D01*
X167782000Y-447079000D02*
X169140000Y-447079000D01*
X171220000Y-447119000D02*
X172594000Y-447119000D01*
X167766000Y-447119000D02*
X169140000Y-447119000D01*
X171220000Y-447159000D02*
X172608000Y-447159000D01*
X167752000Y-447159000D02*
X169140000Y-447159000D01*
X171220000Y-447199000D02*
X172622000Y-447199000D01*
X167738000Y-447199000D02*
X169140000Y-447199000D01*
X171220000Y-447239000D02*
X172635000Y-447239000D01*
X167725000Y-447239000D02*
X169140000Y-447239000D01*
X171220000Y-447279000D02*
X172648000Y-447279000D01*
X167712000Y-447279000D02*
X169140000Y-447279000D01*
X171220000Y-447319000D02*
X172660000Y-447319000D01*
X167700000Y-447319000D02*
X169140000Y-447319000D01*
X171220000Y-447360000D02*
X172671000Y-447360000D01*
X167689000Y-447360000D02*
X169140000Y-447360000D01*
X171220000Y-447400000D02*
X172681000Y-447400000D01*
X167679000Y-447400000D02*
X169140000Y-447400000D01*
X171220000Y-447440000D02*
X172691000Y-447440000D01*
X167669000Y-447440000D02*
X169140000Y-447440000D01*
X171220000Y-447480000D02*
X172700000Y-447480000D01*
X167660000Y-447480000D02*
X169140000Y-447480000D01*
X171220000Y-447520000D02*
X172708000Y-447520000D01*
X167652000Y-447520000D02*
X169140000Y-447520000D01*
X171220000Y-447560000D02*
X172716000Y-447560000D01*
X167644000Y-447560000D02*
X169140000Y-447560000D01*
X171220000Y-447600000D02*
X172723000Y-447600000D01*
X167637000Y-447600000D02*
X169140000Y-447600000D01*
X171220000Y-447640000D02*
X172730000Y-447640000D01*
X167630000Y-447640000D02*
X169140000Y-447640000D01*
X171220000Y-447680000D02*
X172736000Y-447680000D01*
X167624000Y-447680000D02*
X169140000Y-447680000D01*
X171220000Y-447720000D02*
X172741000Y-447720000D01*
X167619000Y-447720000D02*
X169140000Y-447720000D01*
X171220000Y-447760000D02*
X172745000Y-447760000D01*
X167615000Y-447760000D02*
X169140000Y-447760000D01*
X171220000Y-447800000D02*
X172749000Y-447800000D01*
X167611000Y-447800000D02*
X169140000Y-447800000D01*
X171220000Y-447840000D02*
X172753000Y-447840000D01*
X167607000Y-447840000D02*
X169140000Y-447840000D01*
X171220000Y-447880000D02*
X172756000Y-447880000D01*
X167604000Y-447880000D02*
X169140000Y-447880000D01*
X171220000Y-447920000D02*
X172758000Y-447920000D01*
X167602000Y-447920000D02*
X169140000Y-447920000D01*
X171220000Y-447960000D02*
X172759000Y-447960000D01*
X167601000Y-447960000D02*
X169140000Y-447960000D01*
X167600000Y-448000000D02*
X169140000Y-448000000D01*
X171220000Y-448000000D02*
X172760000Y-448000000D01*
X167600000Y-448040000D02*
X169140000Y-448040000D01*
X171220000Y-448040000D02*
X172760000Y-448040000D01*
X172800000Y-448040000D02*
G75*
G03*
X172800000Y-448040000I-2620000J0D01*
G01*
%TO.C,C3*%
X193495000Y-445485225D02*
X192995000Y-445485225D01*
X193245000Y-445235225D02*
X193245000Y-445735225D01*
X192054000Y-450641000D02*
X191486000Y-450641000D01*
X192288000Y-450601000D02*
X191252000Y-450601000D01*
X192447000Y-450561000D02*
X191093000Y-450561000D01*
X192575000Y-450521000D02*
X190965000Y-450521000D01*
X192685000Y-450481000D02*
X190855000Y-450481000D01*
X192781000Y-450441000D02*
X190759000Y-450441000D01*
X192868000Y-450401000D02*
X190672000Y-450401000D01*
X192948000Y-450361000D02*
X190592000Y-450361000D01*
X193021000Y-450321000D02*
X190519000Y-450321000D01*
X193089000Y-450281000D02*
X190451000Y-450281000D01*
X193153000Y-450241000D02*
X190387000Y-450241000D01*
X193213000Y-450201000D02*
X190327000Y-450201000D01*
X193270000Y-450161000D02*
X190270000Y-450161000D01*
X193324000Y-450121000D02*
X190216000Y-450121000D01*
X193375000Y-450081000D02*
X190165000Y-450081000D01*
X190730000Y-450041000D02*
X190117000Y-450041000D01*
X193423000Y-450041000D02*
X192810000Y-450041000D01*
X190730000Y-450001000D02*
X190071000Y-450001000D01*
X193469000Y-450001000D02*
X192810000Y-450001000D01*
X190730000Y-449961000D02*
X190027000Y-449961000D01*
X193513000Y-449961000D02*
X192810000Y-449961000D01*
X190730000Y-449921000D02*
X189985000Y-449921000D01*
X193555000Y-449921000D02*
X192810000Y-449921000D01*
X190730000Y-449881000D02*
X189944000Y-449881000D01*
X193596000Y-449881000D02*
X192810000Y-449881000D01*
X190730000Y-449841000D02*
X189906000Y-449841000D01*
X193634000Y-449841000D02*
X192810000Y-449841000D01*
X190730000Y-449801000D02*
X189869000Y-449801000D01*
X193671000Y-449801000D02*
X192810000Y-449801000D01*
X190730000Y-449761000D02*
X189833000Y-449761000D01*
X193707000Y-449761000D02*
X192810000Y-449761000D01*
X190730000Y-449721000D02*
X189799000Y-449721000D01*
X193741000Y-449721000D02*
X192810000Y-449721000D01*
X190730000Y-449681000D02*
X189766000Y-449681000D01*
X193774000Y-449681000D02*
X192810000Y-449681000D01*
X190730000Y-449641000D02*
X189735000Y-449641000D01*
X193805000Y-449641000D02*
X192810000Y-449641000D01*
X190730000Y-449601000D02*
X189705000Y-449601000D01*
X193835000Y-449601000D02*
X192810000Y-449601000D01*
X190730000Y-449561000D02*
X189675000Y-449561000D01*
X193865000Y-449561000D02*
X192810000Y-449561000D01*
X190730000Y-449521000D02*
X189648000Y-449521000D01*
X193892000Y-449521000D02*
X192810000Y-449521000D01*
X190730000Y-449481000D02*
X189621000Y-449481000D01*
X193919000Y-449481000D02*
X192810000Y-449481000D01*
X190730000Y-449441000D02*
X189595000Y-449441000D01*
X193945000Y-449441000D02*
X192810000Y-449441000D01*
X190730000Y-449401000D02*
X189570000Y-449401000D01*
X193970000Y-449401000D02*
X192810000Y-449401000D01*
X190730000Y-449361000D02*
X189546000Y-449361000D01*
X193994000Y-449361000D02*
X192810000Y-449361000D01*
X190730000Y-449321000D02*
X189523000Y-449321000D01*
X194017000Y-449321000D02*
X192810000Y-449321000D01*
X190730000Y-449281000D02*
X189502000Y-449281000D01*
X194038000Y-449281000D02*
X192810000Y-449281000D01*
X190730000Y-449241000D02*
X189480000Y-449241000D01*
X194060000Y-449241000D02*
X192810000Y-449241000D01*
X190730000Y-449201000D02*
X189460000Y-449201000D01*
X194080000Y-449201000D02*
X192810000Y-449201000D01*
X190730000Y-449161000D02*
X189441000Y-449161000D01*
X194099000Y-449161000D02*
X192810000Y-449161000D01*
X190730000Y-449121000D02*
X189422000Y-449121000D01*
X194118000Y-449121000D02*
X192810000Y-449121000D01*
X190730000Y-449081000D02*
X189405000Y-449081000D01*
X194135000Y-449081000D02*
X192810000Y-449081000D01*
X190730000Y-449041000D02*
X189388000Y-449041000D01*
X194152000Y-449041000D02*
X192810000Y-449041000D01*
X190730000Y-449001000D02*
X189372000Y-449001000D01*
X194168000Y-449001000D02*
X192810000Y-449001000D01*
X190730000Y-448961000D02*
X189356000Y-448961000D01*
X194184000Y-448961000D02*
X192810000Y-448961000D01*
X190730000Y-448921000D02*
X189342000Y-448921000D01*
X194198000Y-448921000D02*
X192810000Y-448921000D01*
X190730000Y-448881000D02*
X189328000Y-448881000D01*
X194212000Y-448881000D02*
X192810000Y-448881000D01*
X190730000Y-448841000D02*
X189315000Y-448841000D01*
X194225000Y-448841000D02*
X192810000Y-448841000D01*
X190730000Y-448801000D02*
X189302000Y-448801000D01*
X194238000Y-448801000D02*
X192810000Y-448801000D01*
X190730000Y-448761000D02*
X189290000Y-448761000D01*
X194250000Y-448761000D02*
X192810000Y-448761000D01*
X190730000Y-448720000D02*
X189279000Y-448720000D01*
X194261000Y-448720000D02*
X192810000Y-448720000D01*
X190730000Y-448680000D02*
X189269000Y-448680000D01*
X194271000Y-448680000D02*
X192810000Y-448680000D01*
X190730000Y-448640000D02*
X189259000Y-448640000D01*
X194281000Y-448640000D02*
X192810000Y-448640000D01*
X190730000Y-448600000D02*
X189250000Y-448600000D01*
X194290000Y-448600000D02*
X192810000Y-448600000D01*
X190730000Y-448560000D02*
X189242000Y-448560000D01*
X194298000Y-448560000D02*
X192810000Y-448560000D01*
X190730000Y-448520000D02*
X189234000Y-448520000D01*
X194306000Y-448520000D02*
X192810000Y-448520000D01*
X190730000Y-448480000D02*
X189227000Y-448480000D01*
X194313000Y-448480000D02*
X192810000Y-448480000D01*
X190730000Y-448440000D02*
X189220000Y-448440000D01*
X194320000Y-448440000D02*
X192810000Y-448440000D01*
X190730000Y-448400000D02*
X189214000Y-448400000D01*
X194326000Y-448400000D02*
X192810000Y-448400000D01*
X190730000Y-448360000D02*
X189209000Y-448360000D01*
X194331000Y-448360000D02*
X192810000Y-448360000D01*
X190730000Y-448320000D02*
X189205000Y-448320000D01*
X194335000Y-448320000D02*
X192810000Y-448320000D01*
X190730000Y-448280000D02*
X189201000Y-448280000D01*
X194339000Y-448280000D02*
X192810000Y-448280000D01*
X190730000Y-448240000D02*
X189197000Y-448240000D01*
X194343000Y-448240000D02*
X192810000Y-448240000D01*
X190730000Y-448200000D02*
X189194000Y-448200000D01*
X194346000Y-448200000D02*
X192810000Y-448200000D01*
X190730000Y-448160000D02*
X189192000Y-448160000D01*
X194348000Y-448160000D02*
X192810000Y-448160000D01*
X190730000Y-448120000D02*
X189191000Y-448120000D01*
X194349000Y-448120000D02*
X192810000Y-448120000D01*
X194350000Y-448080000D02*
X192810000Y-448080000D01*
X190730000Y-448080000D02*
X189190000Y-448080000D01*
X194350000Y-448040000D02*
X192810000Y-448040000D01*
X190730000Y-448040000D02*
X189190000Y-448040000D01*
X194390000Y-448040000D02*
G75*
G03*
X194390000Y-448040000I-2620000J0D01*
G01*
%TO.C,C2*%
X185205000Y-415400000D02*
X185520000Y-415400000D01*
X182780000Y-415400000D02*
X183095000Y-415400000D01*
X185205000Y-420340000D02*
X185520000Y-420340000D01*
X182780000Y-420340000D02*
X183095000Y-420340000D01*
X185520000Y-420340000D02*
X185520000Y-415400000D01*
X182780000Y-420340000D02*
X182780000Y-415400000D01*
%TO.C,C1*%
X174805000Y-420654775D02*
X175305000Y-420654775D01*
X175055000Y-420904775D02*
X175055000Y-420404775D01*
X176246000Y-415499000D02*
X176814000Y-415499000D01*
X176012000Y-415539000D02*
X177048000Y-415539000D01*
X175853000Y-415579000D02*
X177207000Y-415579000D01*
X175725000Y-415619000D02*
X177335000Y-415619000D01*
X175615000Y-415659000D02*
X177445000Y-415659000D01*
X175519000Y-415699000D02*
X177541000Y-415699000D01*
X175432000Y-415739000D02*
X177628000Y-415739000D01*
X175352000Y-415779000D02*
X177708000Y-415779000D01*
X175279000Y-415819000D02*
X177781000Y-415819000D01*
X175211000Y-415859000D02*
X177849000Y-415859000D01*
X175147000Y-415899000D02*
X177913000Y-415899000D01*
X175087000Y-415939000D02*
X177973000Y-415939000D01*
X175030000Y-415979000D02*
X178030000Y-415979000D01*
X174976000Y-416019000D02*
X178084000Y-416019000D01*
X174925000Y-416059000D02*
X178135000Y-416059000D01*
X177570000Y-416099000D02*
X178183000Y-416099000D01*
X174877000Y-416099000D02*
X175490000Y-416099000D01*
X177570000Y-416139000D02*
X178229000Y-416139000D01*
X174831000Y-416139000D02*
X175490000Y-416139000D01*
X177570000Y-416179000D02*
X178273000Y-416179000D01*
X174787000Y-416179000D02*
X175490000Y-416179000D01*
X177570000Y-416219000D02*
X178315000Y-416219000D01*
X174745000Y-416219000D02*
X175490000Y-416219000D01*
X177570000Y-416259000D02*
X178356000Y-416259000D01*
X174704000Y-416259000D02*
X175490000Y-416259000D01*
X177570000Y-416299000D02*
X178394000Y-416299000D01*
X174666000Y-416299000D02*
X175490000Y-416299000D01*
X177570000Y-416339000D02*
X178431000Y-416339000D01*
X174629000Y-416339000D02*
X175490000Y-416339000D01*
X177570000Y-416379000D02*
X178467000Y-416379000D01*
X174593000Y-416379000D02*
X175490000Y-416379000D01*
X177570000Y-416419000D02*
X178501000Y-416419000D01*
X174559000Y-416419000D02*
X175490000Y-416419000D01*
X177570000Y-416459000D02*
X178534000Y-416459000D01*
X174526000Y-416459000D02*
X175490000Y-416459000D01*
X177570000Y-416499000D02*
X178565000Y-416499000D01*
X174495000Y-416499000D02*
X175490000Y-416499000D01*
X177570000Y-416539000D02*
X178595000Y-416539000D01*
X174465000Y-416539000D02*
X175490000Y-416539000D01*
X177570000Y-416579000D02*
X178625000Y-416579000D01*
X174435000Y-416579000D02*
X175490000Y-416579000D01*
X177570000Y-416619000D02*
X178652000Y-416619000D01*
X174408000Y-416619000D02*
X175490000Y-416619000D01*
X177570000Y-416659000D02*
X178679000Y-416659000D01*
X174381000Y-416659000D02*
X175490000Y-416659000D01*
X177570000Y-416699000D02*
X178705000Y-416699000D01*
X174355000Y-416699000D02*
X175490000Y-416699000D01*
X177570000Y-416739000D02*
X178730000Y-416739000D01*
X174330000Y-416739000D02*
X175490000Y-416739000D01*
X177570000Y-416779000D02*
X178754000Y-416779000D01*
X174306000Y-416779000D02*
X175490000Y-416779000D01*
X177570000Y-416819000D02*
X178777000Y-416819000D01*
X174283000Y-416819000D02*
X175490000Y-416819000D01*
X177570000Y-416859000D02*
X178798000Y-416859000D01*
X174262000Y-416859000D02*
X175490000Y-416859000D01*
X177570000Y-416899000D02*
X178820000Y-416899000D01*
X174240000Y-416899000D02*
X175490000Y-416899000D01*
X177570000Y-416939000D02*
X178840000Y-416939000D01*
X174220000Y-416939000D02*
X175490000Y-416939000D01*
X177570000Y-416979000D02*
X178859000Y-416979000D01*
X174201000Y-416979000D02*
X175490000Y-416979000D01*
X177570000Y-417019000D02*
X178878000Y-417019000D01*
X174182000Y-417019000D02*
X175490000Y-417019000D01*
X177570000Y-417059000D02*
X178895000Y-417059000D01*
X174165000Y-417059000D02*
X175490000Y-417059000D01*
X177570000Y-417099000D02*
X178912000Y-417099000D01*
X174148000Y-417099000D02*
X175490000Y-417099000D01*
X177570000Y-417139000D02*
X178928000Y-417139000D01*
X174132000Y-417139000D02*
X175490000Y-417139000D01*
X177570000Y-417179000D02*
X178944000Y-417179000D01*
X174116000Y-417179000D02*
X175490000Y-417179000D01*
X177570000Y-417219000D02*
X178958000Y-417219000D01*
X174102000Y-417219000D02*
X175490000Y-417219000D01*
X177570000Y-417259000D02*
X178972000Y-417259000D01*
X174088000Y-417259000D02*
X175490000Y-417259000D01*
X177570000Y-417299000D02*
X178985000Y-417299000D01*
X174075000Y-417299000D02*
X175490000Y-417299000D01*
X177570000Y-417339000D02*
X178998000Y-417339000D01*
X174062000Y-417339000D02*
X175490000Y-417339000D01*
X177570000Y-417379000D02*
X179010000Y-417379000D01*
X174050000Y-417379000D02*
X175490000Y-417379000D01*
X177570000Y-417420000D02*
X179021000Y-417420000D01*
X174039000Y-417420000D02*
X175490000Y-417420000D01*
X177570000Y-417460000D02*
X179031000Y-417460000D01*
X174029000Y-417460000D02*
X175490000Y-417460000D01*
X177570000Y-417500000D02*
X179041000Y-417500000D01*
X174019000Y-417500000D02*
X175490000Y-417500000D01*
X177570000Y-417540000D02*
X179050000Y-417540000D01*
X174010000Y-417540000D02*
X175490000Y-417540000D01*
X177570000Y-417580000D02*
X179058000Y-417580000D01*
X174002000Y-417580000D02*
X175490000Y-417580000D01*
X177570000Y-417620000D02*
X179066000Y-417620000D01*
X173994000Y-417620000D02*
X175490000Y-417620000D01*
X177570000Y-417660000D02*
X179073000Y-417660000D01*
X173987000Y-417660000D02*
X175490000Y-417660000D01*
X177570000Y-417700000D02*
X179080000Y-417700000D01*
X173980000Y-417700000D02*
X175490000Y-417700000D01*
X177570000Y-417740000D02*
X179086000Y-417740000D01*
X173974000Y-417740000D02*
X175490000Y-417740000D01*
X177570000Y-417780000D02*
X179091000Y-417780000D01*
X173969000Y-417780000D02*
X175490000Y-417780000D01*
X177570000Y-417820000D02*
X179095000Y-417820000D01*
X173965000Y-417820000D02*
X175490000Y-417820000D01*
X177570000Y-417860000D02*
X179099000Y-417860000D01*
X173961000Y-417860000D02*
X175490000Y-417860000D01*
X177570000Y-417900000D02*
X179103000Y-417900000D01*
X173957000Y-417900000D02*
X175490000Y-417900000D01*
X177570000Y-417940000D02*
X179106000Y-417940000D01*
X173954000Y-417940000D02*
X175490000Y-417940000D01*
X177570000Y-417980000D02*
X179108000Y-417980000D01*
X173952000Y-417980000D02*
X175490000Y-417980000D01*
X177570000Y-418020000D02*
X179109000Y-418020000D01*
X173951000Y-418020000D02*
X175490000Y-418020000D01*
X173950000Y-418060000D02*
X175490000Y-418060000D01*
X177570000Y-418060000D02*
X179110000Y-418060000D01*
X173950000Y-418100000D02*
X175490000Y-418100000D01*
X177570000Y-418100000D02*
X179110000Y-418100000D01*
X179150000Y-418100000D02*
G75*
G03*
X179150000Y-418100000I-2620000J0D01*
G01*
%TO.C,R31*%
D10*
X179692380Y-479432857D02*
X179216190Y-479766190D01*
X179692380Y-480004285D02*
X178692380Y-480004285D01*
X178692380Y-479623333D01*
X178740000Y-479528095D01*
X178787619Y-479480476D01*
X178882857Y-479432857D01*
X179025714Y-479432857D01*
X179120952Y-479480476D01*
X179168571Y-479528095D01*
X179216190Y-479623333D01*
X179216190Y-480004285D01*
X178692380Y-479099523D02*
X178692380Y-478480476D01*
X179073333Y-478813809D01*
X179073333Y-478670952D01*
X179120952Y-478575714D01*
X179168571Y-478528095D01*
X179263809Y-478480476D01*
X179501904Y-478480476D01*
X179597142Y-478528095D01*
X179644761Y-478575714D01*
X179692380Y-478670952D01*
X179692380Y-478956666D01*
X179644761Y-479051904D01*
X179597142Y-479099523D01*
X179692380Y-477528095D02*
X179692380Y-478099523D01*
X179692380Y-477813809D02*
X178692380Y-477813809D01*
X178835238Y-477909047D01*
X178930476Y-478004285D01*
X178978095Y-478099523D01*
%TO.C,R30*%
X192392380Y-478162857D02*
X191916190Y-478496190D01*
X192392380Y-478734285D02*
X191392380Y-478734285D01*
X191392380Y-478353333D01*
X191440000Y-478258095D01*
X191487619Y-478210476D01*
X191582857Y-478162857D01*
X191725714Y-478162857D01*
X191820952Y-478210476D01*
X191868571Y-478258095D01*
X191916190Y-478353333D01*
X191916190Y-478734285D01*
X191392380Y-477829523D02*
X191392380Y-477210476D01*
X191773333Y-477543809D01*
X191773333Y-477400952D01*
X191820952Y-477305714D01*
X191868571Y-477258095D01*
X191963809Y-477210476D01*
X192201904Y-477210476D01*
X192297142Y-477258095D01*
X192344761Y-477305714D01*
X192392380Y-477400952D01*
X192392380Y-477686666D01*
X192344761Y-477781904D01*
X192297142Y-477829523D01*
X191392380Y-476591428D02*
X191392380Y-476496190D01*
X191440000Y-476400952D01*
X191487619Y-476353333D01*
X191582857Y-476305714D01*
X191773333Y-476258095D01*
X192011428Y-476258095D01*
X192201904Y-476305714D01*
X192297142Y-476353333D01*
X192344761Y-476400952D01*
X192392380Y-476496190D01*
X192392380Y-476591428D01*
X192344761Y-476686666D01*
X192297142Y-476734285D01*
X192201904Y-476781904D01*
X192011428Y-476829523D01*
X191773333Y-476829523D01*
X191582857Y-476781904D01*
X191487619Y-476734285D01*
X191440000Y-476686666D01*
X191392380Y-476591428D01*
%TO.C,R29*%
X201282380Y-478162857D02*
X200806190Y-478496190D01*
X201282380Y-478734285D02*
X200282380Y-478734285D01*
X200282380Y-478353333D01*
X200330000Y-478258095D01*
X200377619Y-478210476D01*
X200472857Y-478162857D01*
X200615714Y-478162857D01*
X200710952Y-478210476D01*
X200758571Y-478258095D01*
X200806190Y-478353333D01*
X200806190Y-478734285D01*
X200377619Y-477781904D02*
X200330000Y-477734285D01*
X200282380Y-477639047D01*
X200282380Y-477400952D01*
X200330000Y-477305714D01*
X200377619Y-477258095D01*
X200472857Y-477210476D01*
X200568095Y-477210476D01*
X200710952Y-477258095D01*
X201282380Y-477829523D01*
X201282380Y-477210476D01*
X201282380Y-476734285D02*
X201282380Y-476543809D01*
X201234761Y-476448571D01*
X201187142Y-476400952D01*
X201044285Y-476305714D01*
X200853809Y-476258095D01*
X200472857Y-476258095D01*
X200377619Y-476305714D01*
X200330000Y-476353333D01*
X200282380Y-476448571D01*
X200282380Y-476639047D01*
X200330000Y-476734285D01*
X200377619Y-476781904D01*
X200472857Y-476829523D01*
X200710952Y-476829523D01*
X200806190Y-476781904D01*
X200853809Y-476734285D01*
X200901428Y-476639047D01*
X200901428Y-476448571D01*
X200853809Y-476353333D01*
X200806190Y-476305714D01*
X200710952Y-476258095D01*
%TO.C,R28*%
X186042380Y-483242857D02*
X185566190Y-483576190D01*
X186042380Y-483814285D02*
X185042380Y-483814285D01*
X185042380Y-483433333D01*
X185090000Y-483338095D01*
X185137619Y-483290476D01*
X185232857Y-483242857D01*
X185375714Y-483242857D01*
X185470952Y-483290476D01*
X185518571Y-483338095D01*
X185566190Y-483433333D01*
X185566190Y-483814285D01*
X185137619Y-482861904D02*
X185090000Y-482814285D01*
X185042380Y-482719047D01*
X185042380Y-482480952D01*
X185090000Y-482385714D01*
X185137619Y-482338095D01*
X185232857Y-482290476D01*
X185328095Y-482290476D01*
X185470952Y-482338095D01*
X186042380Y-482909523D01*
X186042380Y-482290476D01*
X185470952Y-481719047D02*
X185423333Y-481814285D01*
X185375714Y-481861904D01*
X185280476Y-481909523D01*
X185232857Y-481909523D01*
X185137619Y-481861904D01*
X185090000Y-481814285D01*
X185042380Y-481719047D01*
X185042380Y-481528571D01*
X185090000Y-481433333D01*
X185137619Y-481385714D01*
X185232857Y-481338095D01*
X185280476Y-481338095D01*
X185375714Y-481385714D01*
X185423333Y-481433333D01*
X185470952Y-481528571D01*
X185470952Y-481719047D01*
X185518571Y-481814285D01*
X185566190Y-481861904D01*
X185661428Y-481909523D01*
X185851904Y-481909523D01*
X185947142Y-481861904D01*
X185994761Y-481814285D01*
X186042380Y-481719047D01*
X186042380Y-481528571D01*
X185994761Y-481433333D01*
X185947142Y-481385714D01*
X185851904Y-481338095D01*
X185661428Y-481338095D01*
X185566190Y-481385714D01*
X185518571Y-481433333D01*
X185470952Y-481528571D01*
%TO.C,R27*%
X212372380Y-483242857D02*
X211896190Y-483576190D01*
X212372380Y-483814285D02*
X211372380Y-483814285D01*
X211372380Y-483433333D01*
X211420000Y-483338095D01*
X211467619Y-483290476D01*
X211562857Y-483242857D01*
X211705714Y-483242857D01*
X211800952Y-483290476D01*
X211848571Y-483338095D01*
X211896190Y-483433333D01*
X211896190Y-483814285D01*
X211467619Y-482861904D02*
X211420000Y-482814285D01*
X211372380Y-482719047D01*
X211372380Y-482480952D01*
X211420000Y-482385714D01*
X211467619Y-482338095D01*
X211562857Y-482290476D01*
X211658095Y-482290476D01*
X211800952Y-482338095D01*
X212372380Y-482909523D01*
X212372380Y-482290476D01*
X211372380Y-481957142D02*
X211372380Y-481290476D01*
X212372380Y-481719047D01*
%TO.C,R26*%
X161912380Y-479432857D02*
X161436190Y-479766190D01*
X161912380Y-480004285D02*
X160912380Y-480004285D01*
X160912380Y-479623333D01*
X160960000Y-479528095D01*
X161007619Y-479480476D01*
X161102857Y-479432857D01*
X161245714Y-479432857D01*
X161340952Y-479480476D01*
X161388571Y-479528095D01*
X161436190Y-479623333D01*
X161436190Y-480004285D01*
X161007619Y-479051904D02*
X160960000Y-479004285D01*
X160912380Y-478909047D01*
X160912380Y-478670952D01*
X160960000Y-478575714D01*
X161007619Y-478528095D01*
X161102857Y-478480476D01*
X161198095Y-478480476D01*
X161340952Y-478528095D01*
X161912380Y-479099523D01*
X161912380Y-478480476D01*
X160912380Y-477623333D02*
X160912380Y-477813809D01*
X160960000Y-477909047D01*
X161007619Y-477956666D01*
X161150476Y-478051904D01*
X161340952Y-478099523D01*
X161721904Y-478099523D01*
X161817142Y-478051904D01*
X161864761Y-478004285D01*
X161912380Y-477909047D01*
X161912380Y-477718571D01*
X161864761Y-477623333D01*
X161817142Y-477575714D01*
X161721904Y-477528095D01*
X161483809Y-477528095D01*
X161388571Y-477575714D01*
X161340952Y-477623333D01*
X161293333Y-477718571D01*
X161293333Y-477909047D01*
X161340952Y-478004285D01*
X161388571Y-478051904D01*
X161483809Y-478099523D01*
%TO.C,R25*%
X179692380Y-462922857D02*
X179216190Y-463256190D01*
X179692380Y-463494285D02*
X178692380Y-463494285D01*
X178692380Y-463113333D01*
X178740000Y-463018095D01*
X178787619Y-462970476D01*
X178882857Y-462922857D01*
X179025714Y-462922857D01*
X179120952Y-462970476D01*
X179168571Y-463018095D01*
X179216190Y-463113333D01*
X179216190Y-463494285D01*
X178787619Y-462541904D02*
X178740000Y-462494285D01*
X178692380Y-462399047D01*
X178692380Y-462160952D01*
X178740000Y-462065714D01*
X178787619Y-462018095D01*
X178882857Y-461970476D01*
X178978095Y-461970476D01*
X179120952Y-462018095D01*
X179692380Y-462589523D01*
X179692380Y-461970476D01*
X178692380Y-461065714D02*
X178692380Y-461541904D01*
X179168571Y-461589523D01*
X179120952Y-461541904D01*
X179073333Y-461446666D01*
X179073333Y-461208571D01*
X179120952Y-461113333D01*
X179168571Y-461065714D01*
X179263809Y-461018095D01*
X179501904Y-461018095D01*
X179597142Y-461065714D01*
X179644761Y-461113333D01*
X179692380Y-461208571D01*
X179692380Y-461446666D01*
X179644761Y-461541904D01*
X179597142Y-461589523D01*
%TO.C,R24*%
X229222380Y-447682857D02*
X228746190Y-448016190D01*
X229222380Y-448254285D02*
X228222380Y-448254285D01*
X228222380Y-447873333D01*
X228270000Y-447778095D01*
X228317619Y-447730476D01*
X228412857Y-447682857D01*
X228555714Y-447682857D01*
X228650952Y-447730476D01*
X228698571Y-447778095D01*
X228746190Y-447873333D01*
X228746190Y-448254285D01*
X228317619Y-447301904D02*
X228270000Y-447254285D01*
X228222380Y-447159047D01*
X228222380Y-446920952D01*
X228270000Y-446825714D01*
X228317619Y-446778095D01*
X228412857Y-446730476D01*
X228508095Y-446730476D01*
X228650952Y-446778095D01*
X229222380Y-447349523D01*
X229222380Y-446730476D01*
X228555714Y-445873333D02*
X229222380Y-445873333D01*
X228174761Y-446111428D02*
X228889047Y-446349523D01*
X228889047Y-445730476D01*
%TO.C,R23*%
X221607142Y-453672380D02*
X221273809Y-453196190D01*
X221035714Y-453672380D02*
X221035714Y-452672380D01*
X221416666Y-452672380D01*
X221511904Y-452720000D01*
X221559523Y-452767619D01*
X221607142Y-452862857D01*
X221607142Y-453005714D01*
X221559523Y-453100952D01*
X221511904Y-453148571D01*
X221416666Y-453196190D01*
X221035714Y-453196190D01*
X221988095Y-452767619D02*
X222035714Y-452720000D01*
X222130952Y-452672380D01*
X222369047Y-452672380D01*
X222464285Y-452720000D01*
X222511904Y-452767619D01*
X222559523Y-452862857D01*
X222559523Y-452958095D01*
X222511904Y-453100952D01*
X221940476Y-453672380D01*
X222559523Y-453672380D01*
X222892857Y-452672380D02*
X223511904Y-452672380D01*
X223178571Y-453053333D01*
X223321428Y-453053333D01*
X223416666Y-453100952D01*
X223464285Y-453148571D01*
X223511904Y-453243809D01*
X223511904Y-453481904D01*
X223464285Y-453577142D01*
X223416666Y-453624761D01*
X223321428Y-453672380D01*
X223035714Y-453672380D01*
X222940476Y-453624761D01*
X222892857Y-453577142D01*
%TO.C,R22*%
X239387142Y-440042380D02*
X239053809Y-439566190D01*
X238815714Y-440042380D02*
X238815714Y-439042380D01*
X239196666Y-439042380D01*
X239291904Y-439090000D01*
X239339523Y-439137619D01*
X239387142Y-439232857D01*
X239387142Y-439375714D01*
X239339523Y-439470952D01*
X239291904Y-439518571D01*
X239196666Y-439566190D01*
X238815714Y-439566190D01*
X239768095Y-439137619D02*
X239815714Y-439090000D01*
X239910952Y-439042380D01*
X240149047Y-439042380D01*
X240244285Y-439090000D01*
X240291904Y-439137619D01*
X240339523Y-439232857D01*
X240339523Y-439328095D01*
X240291904Y-439470952D01*
X239720476Y-440042380D01*
X240339523Y-440042380D01*
X240720476Y-439137619D02*
X240768095Y-439090000D01*
X240863333Y-439042380D01*
X241101428Y-439042380D01*
X241196666Y-439090000D01*
X241244285Y-439137619D01*
X241291904Y-439232857D01*
X241291904Y-439328095D01*
X241244285Y-439470952D01*
X240672857Y-440042380D01*
X241291904Y-440042380D01*
%TO.C,R21*%
X208907142Y-440042380D02*
X208573809Y-439566190D01*
X208335714Y-440042380D02*
X208335714Y-439042380D01*
X208716666Y-439042380D01*
X208811904Y-439090000D01*
X208859523Y-439137619D01*
X208907142Y-439232857D01*
X208907142Y-439375714D01*
X208859523Y-439470952D01*
X208811904Y-439518571D01*
X208716666Y-439566190D01*
X208335714Y-439566190D01*
X209288095Y-439137619D02*
X209335714Y-439090000D01*
X209430952Y-439042380D01*
X209669047Y-439042380D01*
X209764285Y-439090000D01*
X209811904Y-439137619D01*
X209859523Y-439232857D01*
X209859523Y-439328095D01*
X209811904Y-439470952D01*
X209240476Y-440042380D01*
X209859523Y-440042380D01*
X210811904Y-440042380D02*
X210240476Y-440042380D01*
X210526190Y-440042380D02*
X210526190Y-439042380D01*
X210430952Y-439185238D01*
X210335714Y-439280476D01*
X210240476Y-439328095D01*
%TO.C,R20*%
X247002380Y-438792857D02*
X246526190Y-439126190D01*
X247002380Y-439364285D02*
X246002380Y-439364285D01*
X246002380Y-438983333D01*
X246050000Y-438888095D01*
X246097619Y-438840476D01*
X246192857Y-438792857D01*
X246335714Y-438792857D01*
X246430952Y-438840476D01*
X246478571Y-438888095D01*
X246526190Y-438983333D01*
X246526190Y-439364285D01*
X246097619Y-438411904D02*
X246050000Y-438364285D01*
X246002380Y-438269047D01*
X246002380Y-438030952D01*
X246050000Y-437935714D01*
X246097619Y-437888095D01*
X246192857Y-437840476D01*
X246288095Y-437840476D01*
X246430952Y-437888095D01*
X247002380Y-438459523D01*
X247002380Y-437840476D01*
X246002380Y-437221428D02*
X246002380Y-437126190D01*
X246050000Y-437030952D01*
X246097619Y-436983333D01*
X246192857Y-436935714D01*
X246383333Y-436888095D01*
X246621428Y-436888095D01*
X246811904Y-436935714D01*
X246907142Y-436983333D01*
X246954761Y-437030952D01*
X247002380Y-437126190D01*
X247002380Y-437221428D01*
X246954761Y-437316666D01*
X246907142Y-437364285D01*
X246811904Y-437411904D01*
X246621428Y-437459523D01*
X246383333Y-437459523D01*
X246192857Y-437411904D01*
X246097619Y-437364285D01*
X246050000Y-437316666D01*
X246002380Y-437221428D01*
%TO.C,R19*%
X216522380Y-438792857D02*
X216046190Y-439126190D01*
X216522380Y-439364285D02*
X215522380Y-439364285D01*
X215522380Y-438983333D01*
X215570000Y-438888095D01*
X215617619Y-438840476D01*
X215712857Y-438792857D01*
X215855714Y-438792857D01*
X215950952Y-438840476D01*
X215998571Y-438888095D01*
X216046190Y-438983333D01*
X216046190Y-439364285D01*
X216522380Y-437840476D02*
X216522380Y-438411904D01*
X216522380Y-438126190D02*
X215522380Y-438126190D01*
X215665238Y-438221428D01*
X215760476Y-438316666D01*
X215808095Y-438411904D01*
X216522380Y-437364285D02*
X216522380Y-437173809D01*
X216474761Y-437078571D01*
X216427142Y-437030952D01*
X216284285Y-436935714D01*
X216093809Y-436888095D01*
X215712857Y-436888095D01*
X215617619Y-436935714D01*
X215570000Y-436983333D01*
X215522380Y-437078571D01*
X215522380Y-437269047D01*
X215570000Y-437364285D01*
X215617619Y-437411904D01*
X215712857Y-437459523D01*
X215950952Y-437459523D01*
X216046190Y-437411904D01*
X216093809Y-437364285D01*
X216141428Y-437269047D01*
X216141428Y-437078571D01*
X216093809Y-436983333D01*
X216046190Y-436935714D01*
X215950952Y-436888095D01*
%TO.C,R18*%
X256822380Y-436252857D02*
X256346190Y-436586190D01*
X256822380Y-436824285D02*
X255822380Y-436824285D01*
X255822380Y-436443333D01*
X255870000Y-436348095D01*
X255917619Y-436300476D01*
X256012857Y-436252857D01*
X256155714Y-436252857D01*
X256250952Y-436300476D01*
X256298571Y-436348095D01*
X256346190Y-436443333D01*
X256346190Y-436824285D01*
X256822380Y-435300476D02*
X256822380Y-435871904D01*
X256822380Y-435586190D02*
X255822380Y-435586190D01*
X255965238Y-435681428D01*
X256060476Y-435776666D01*
X256108095Y-435871904D01*
X256250952Y-434729047D02*
X256203333Y-434824285D01*
X256155714Y-434871904D01*
X256060476Y-434919523D01*
X256012857Y-434919523D01*
X255917619Y-434871904D01*
X255870000Y-434824285D01*
X255822380Y-434729047D01*
X255822380Y-434538571D01*
X255870000Y-434443333D01*
X255917619Y-434395714D01*
X256012857Y-434348095D01*
X256060476Y-434348095D01*
X256155714Y-434395714D01*
X256203333Y-434443333D01*
X256250952Y-434538571D01*
X256250952Y-434729047D01*
X256298571Y-434824285D01*
X256346190Y-434871904D01*
X256441428Y-434919523D01*
X256631904Y-434919523D01*
X256727142Y-434871904D01*
X256774761Y-434824285D01*
X256822380Y-434729047D01*
X256822380Y-434538571D01*
X256774761Y-434443333D01*
X256727142Y-434395714D01*
X256631904Y-434348095D01*
X256441428Y-434348095D01*
X256346190Y-434395714D01*
X256298571Y-434443333D01*
X256250952Y-434538571D01*
%TO.C,R17*%
X239387142Y-410492380D02*
X239053809Y-410016190D01*
X238815714Y-410492380D02*
X238815714Y-409492380D01*
X239196666Y-409492380D01*
X239291904Y-409540000D01*
X239339523Y-409587619D01*
X239387142Y-409682857D01*
X239387142Y-409825714D01*
X239339523Y-409920952D01*
X239291904Y-409968571D01*
X239196666Y-410016190D01*
X238815714Y-410016190D01*
X240339523Y-410492380D02*
X239768095Y-410492380D01*
X240053809Y-410492380D02*
X240053809Y-409492380D01*
X239958571Y-409635238D01*
X239863333Y-409730476D01*
X239768095Y-409778095D01*
X240672857Y-409492380D02*
X241339523Y-409492380D01*
X240910952Y-410492380D01*
%TO.C,R16*%
X226342380Y-437522857D02*
X225866190Y-437856190D01*
X226342380Y-438094285D02*
X225342380Y-438094285D01*
X225342380Y-437713333D01*
X225390000Y-437618095D01*
X225437619Y-437570476D01*
X225532857Y-437522857D01*
X225675714Y-437522857D01*
X225770952Y-437570476D01*
X225818571Y-437618095D01*
X225866190Y-437713333D01*
X225866190Y-438094285D01*
X226342380Y-436570476D02*
X226342380Y-437141904D01*
X226342380Y-436856190D02*
X225342380Y-436856190D01*
X225485238Y-436951428D01*
X225580476Y-437046666D01*
X225628095Y-437141904D01*
X225342380Y-435713333D02*
X225342380Y-435903809D01*
X225390000Y-435999047D01*
X225437619Y-436046666D01*
X225580476Y-436141904D01*
X225770952Y-436189523D01*
X226151904Y-436189523D01*
X226247142Y-436141904D01*
X226294761Y-436094285D01*
X226342380Y-435999047D01*
X226342380Y-435808571D01*
X226294761Y-435713333D01*
X226247142Y-435665714D01*
X226151904Y-435618095D01*
X225913809Y-435618095D01*
X225818571Y-435665714D01*
X225770952Y-435713333D01*
X225723333Y-435808571D01*
X225723333Y-435999047D01*
X225770952Y-436094285D01*
X225818571Y-436141904D01*
X225913809Y-436189523D01*
%TO.C,R15*%
X208907142Y-410492380D02*
X208573809Y-410016190D01*
X208335714Y-410492380D02*
X208335714Y-409492380D01*
X208716666Y-409492380D01*
X208811904Y-409540000D01*
X208859523Y-409587619D01*
X208907142Y-409682857D01*
X208907142Y-409825714D01*
X208859523Y-409920952D01*
X208811904Y-409968571D01*
X208716666Y-410016190D01*
X208335714Y-410016190D01*
X209859523Y-410492380D02*
X209288095Y-410492380D01*
X209573809Y-410492380D02*
X209573809Y-409492380D01*
X209478571Y-409635238D01*
X209383333Y-409730476D01*
X209288095Y-409778095D01*
X210764285Y-409492380D02*
X210288095Y-409492380D01*
X210240476Y-409968571D01*
X210288095Y-409920952D01*
X210383333Y-409873333D01*
X210621428Y-409873333D01*
X210716666Y-409920952D01*
X210764285Y-409968571D01*
X210811904Y-410063809D01*
X210811904Y-410301904D01*
X210764285Y-410397142D01*
X210716666Y-410444761D01*
X210621428Y-410492380D01*
X210383333Y-410492380D01*
X210288095Y-410444761D01*
X210240476Y-410397142D01*
%TO.C,R14*%
X227952380Y-415932857D02*
X227476190Y-416266190D01*
X227952380Y-416504285D02*
X226952380Y-416504285D01*
X226952380Y-416123333D01*
X227000000Y-416028095D01*
X227047619Y-415980476D01*
X227142857Y-415932857D01*
X227285714Y-415932857D01*
X227380952Y-415980476D01*
X227428571Y-416028095D01*
X227476190Y-416123333D01*
X227476190Y-416504285D01*
X227952380Y-414980476D02*
X227952380Y-415551904D01*
X227952380Y-415266190D02*
X226952380Y-415266190D01*
X227095238Y-415361428D01*
X227190476Y-415456666D01*
X227238095Y-415551904D01*
X227285714Y-414123333D02*
X227952380Y-414123333D01*
X226904761Y-414361428D02*
X227619047Y-414599523D01*
X227619047Y-413980476D01*
%TO.C,R13*%
X197472380Y-415932857D02*
X196996190Y-416266190D01*
X197472380Y-416504285D02*
X196472380Y-416504285D01*
X196472380Y-416123333D01*
X196520000Y-416028095D01*
X196567619Y-415980476D01*
X196662857Y-415932857D01*
X196805714Y-415932857D01*
X196900952Y-415980476D01*
X196948571Y-416028095D01*
X196996190Y-416123333D01*
X196996190Y-416504285D01*
X197472380Y-414980476D02*
X197472380Y-415551904D01*
X197472380Y-415266190D02*
X196472380Y-415266190D01*
X196615238Y-415361428D01*
X196710476Y-415456666D01*
X196758095Y-415551904D01*
X196472380Y-414647142D02*
X196472380Y-414028095D01*
X196853333Y-414361428D01*
X196853333Y-414218571D01*
X196900952Y-414123333D01*
X196948571Y-414075714D01*
X197043809Y-414028095D01*
X197281904Y-414028095D01*
X197377142Y-414075714D01*
X197424761Y-414123333D01*
X197472380Y-414218571D01*
X197472380Y-414504285D01*
X197424761Y-414599523D01*
X197377142Y-414647142D01*
%TO.C,R12*%
X248272380Y-415932857D02*
X247796190Y-416266190D01*
X248272380Y-416504285D02*
X247272380Y-416504285D01*
X247272380Y-416123333D01*
X247320000Y-416028095D01*
X247367619Y-415980476D01*
X247462857Y-415932857D01*
X247605714Y-415932857D01*
X247700952Y-415980476D01*
X247748571Y-416028095D01*
X247796190Y-416123333D01*
X247796190Y-416504285D01*
X248272380Y-414980476D02*
X248272380Y-415551904D01*
X248272380Y-415266190D02*
X247272380Y-415266190D01*
X247415238Y-415361428D01*
X247510476Y-415456666D01*
X247558095Y-415551904D01*
X247367619Y-414599523D02*
X247320000Y-414551904D01*
X247272380Y-414456666D01*
X247272380Y-414218571D01*
X247320000Y-414123333D01*
X247367619Y-414075714D01*
X247462857Y-414028095D01*
X247558095Y-414028095D01*
X247700952Y-414075714D01*
X248272380Y-414647142D01*
X248272380Y-414028095D01*
%TO.C,R11*%
X217792380Y-415932857D02*
X217316190Y-416266190D01*
X217792380Y-416504285D02*
X216792380Y-416504285D01*
X216792380Y-416123333D01*
X216840000Y-416028095D01*
X216887619Y-415980476D01*
X216982857Y-415932857D01*
X217125714Y-415932857D01*
X217220952Y-415980476D01*
X217268571Y-416028095D01*
X217316190Y-416123333D01*
X217316190Y-416504285D01*
X217792380Y-414980476D02*
X217792380Y-415551904D01*
X217792380Y-415266190D02*
X216792380Y-415266190D01*
X216935238Y-415361428D01*
X217030476Y-415456666D01*
X217078095Y-415551904D01*
X217792380Y-414028095D02*
X217792380Y-414599523D01*
X217792380Y-414313809D02*
X216792380Y-414313809D01*
X216935238Y-414409047D01*
X217030476Y-414504285D01*
X217078095Y-414599523D01*
%TO.C,R10*%
X239387142Y-416842380D02*
X239053809Y-416366190D01*
X238815714Y-416842380D02*
X238815714Y-415842380D01*
X239196666Y-415842380D01*
X239291904Y-415890000D01*
X239339523Y-415937619D01*
X239387142Y-416032857D01*
X239387142Y-416175714D01*
X239339523Y-416270952D01*
X239291904Y-416318571D01*
X239196666Y-416366190D01*
X238815714Y-416366190D01*
X240339523Y-416842380D02*
X239768095Y-416842380D01*
X240053809Y-416842380D02*
X240053809Y-415842380D01*
X239958571Y-415985238D01*
X239863333Y-416080476D01*
X239768095Y-416128095D01*
X240958571Y-415842380D02*
X241053809Y-415842380D01*
X241149047Y-415890000D01*
X241196666Y-415937619D01*
X241244285Y-416032857D01*
X241291904Y-416223333D01*
X241291904Y-416461428D01*
X241244285Y-416651904D01*
X241196666Y-416747142D01*
X241149047Y-416794761D01*
X241053809Y-416842380D01*
X240958571Y-416842380D01*
X240863333Y-416794761D01*
X240815714Y-416747142D01*
X240768095Y-416651904D01*
X240720476Y-416461428D01*
X240720476Y-416223333D01*
X240768095Y-416032857D01*
X240815714Y-415937619D01*
X240863333Y-415890000D01*
X240958571Y-415842380D01*
%TO.C,R9*%
X209383333Y-416842380D02*
X209050000Y-416366190D01*
X208811904Y-416842380D02*
X208811904Y-415842380D01*
X209192857Y-415842380D01*
X209288095Y-415890000D01*
X209335714Y-415937619D01*
X209383333Y-416032857D01*
X209383333Y-416175714D01*
X209335714Y-416270952D01*
X209288095Y-416318571D01*
X209192857Y-416366190D01*
X208811904Y-416366190D01*
X209859523Y-416842380D02*
X210050000Y-416842380D01*
X210145238Y-416794761D01*
X210192857Y-416747142D01*
X210288095Y-416604285D01*
X210335714Y-416413809D01*
X210335714Y-416032857D01*
X210288095Y-415937619D01*
X210240476Y-415890000D01*
X210145238Y-415842380D01*
X209954761Y-415842380D01*
X209859523Y-415890000D01*
X209811904Y-415937619D01*
X209764285Y-416032857D01*
X209764285Y-416270952D01*
X209811904Y-416366190D01*
X209859523Y-416413809D01*
X209954761Y-416461428D01*
X210145238Y-416461428D01*
X210240476Y-416413809D01*
X210288095Y-416366190D01*
X210335714Y-416270952D01*
%TO.C,R8*%
X161912380Y-463716666D02*
X161436190Y-464050000D01*
X161912380Y-464288095D02*
X160912380Y-464288095D01*
X160912380Y-463907142D01*
X160960000Y-463811904D01*
X161007619Y-463764285D01*
X161102857Y-463716666D01*
X161245714Y-463716666D01*
X161340952Y-463764285D01*
X161388571Y-463811904D01*
X161436190Y-463907142D01*
X161436190Y-464288095D01*
X161340952Y-463145238D02*
X161293333Y-463240476D01*
X161245714Y-463288095D01*
X161150476Y-463335714D01*
X161102857Y-463335714D01*
X161007619Y-463288095D01*
X160960000Y-463240476D01*
X160912380Y-463145238D01*
X160912380Y-462954761D01*
X160960000Y-462859523D01*
X161007619Y-462811904D01*
X161102857Y-462764285D01*
X161150476Y-462764285D01*
X161245714Y-462811904D01*
X161293333Y-462859523D01*
X161340952Y-462954761D01*
X161340952Y-463145238D01*
X161388571Y-463240476D01*
X161436190Y-463288095D01*
X161531428Y-463335714D01*
X161721904Y-463335714D01*
X161817142Y-463288095D01*
X161864761Y-463240476D01*
X161912380Y-463145238D01*
X161912380Y-462954761D01*
X161864761Y-462859523D01*
X161817142Y-462811904D01*
X161721904Y-462764285D01*
X161531428Y-462764285D01*
X161436190Y-462811904D01*
X161388571Y-462859523D01*
X161340952Y-462954761D01*
%TO.C,R7*%
X191122380Y-458636666D02*
X190646190Y-458970000D01*
X191122380Y-459208095D02*
X190122380Y-459208095D01*
X190122380Y-458827142D01*
X190170000Y-458731904D01*
X190217619Y-458684285D01*
X190312857Y-458636666D01*
X190455714Y-458636666D01*
X190550952Y-458684285D01*
X190598571Y-458731904D01*
X190646190Y-458827142D01*
X190646190Y-459208095D01*
X190122380Y-458303333D02*
X190122380Y-457636666D01*
X191122380Y-458065238D01*
%TO.C,R6*%
X175882380Y-445936666D02*
X175406190Y-446270000D01*
X175882380Y-446508095D02*
X174882380Y-446508095D01*
X174882380Y-446127142D01*
X174930000Y-446031904D01*
X174977619Y-445984285D01*
X175072857Y-445936666D01*
X175215714Y-445936666D01*
X175310952Y-445984285D01*
X175358571Y-446031904D01*
X175406190Y-446127142D01*
X175406190Y-446508095D01*
X174882380Y-445079523D02*
X174882380Y-445270000D01*
X174930000Y-445365238D01*
X174977619Y-445412857D01*
X175120476Y-445508095D01*
X175310952Y-445555714D01*
X175691904Y-445555714D01*
X175787142Y-445508095D01*
X175834761Y-445460476D01*
X175882380Y-445365238D01*
X175882380Y-445174761D01*
X175834761Y-445079523D01*
X175787142Y-445031904D01*
X175691904Y-444984285D01*
X175453809Y-444984285D01*
X175358571Y-445031904D01*
X175310952Y-445079523D01*
X175263333Y-445174761D01*
X175263333Y-445365238D01*
X175310952Y-445460476D01*
X175358571Y-445508095D01*
X175453809Y-445555714D01*
%TO.C,R5*%
X186972380Y-445936666D02*
X186496190Y-446270000D01*
X186972380Y-446508095D02*
X185972380Y-446508095D01*
X185972380Y-446127142D01*
X186020000Y-446031904D01*
X186067619Y-445984285D01*
X186162857Y-445936666D01*
X186305714Y-445936666D01*
X186400952Y-445984285D01*
X186448571Y-446031904D01*
X186496190Y-446127142D01*
X186496190Y-446508095D01*
X185972380Y-445031904D02*
X185972380Y-445508095D01*
X186448571Y-445555714D01*
X186400952Y-445508095D01*
X186353333Y-445412857D01*
X186353333Y-445174761D01*
X186400952Y-445079523D01*
X186448571Y-445031904D01*
X186543809Y-444984285D01*
X186781904Y-444984285D01*
X186877142Y-445031904D01*
X186924761Y-445079523D01*
X186972380Y-445174761D01*
X186972380Y-445412857D01*
X186924761Y-445508095D01*
X186877142Y-445555714D01*
%TO.C,R4*%
X250023333Y-472722380D02*
X249690000Y-472246190D01*
X249451904Y-472722380D02*
X249451904Y-471722380D01*
X249832857Y-471722380D01*
X249928095Y-471770000D01*
X249975714Y-471817619D01*
X250023333Y-471912857D01*
X250023333Y-472055714D01*
X249975714Y-472150952D01*
X249928095Y-472198571D01*
X249832857Y-472246190D01*
X249451904Y-472246190D01*
X250880476Y-472055714D02*
X250880476Y-472722380D01*
X250642380Y-471674761D02*
X250404285Y-472389047D01*
X251023333Y-472389047D01*
%TO.C,R3*%
X180622380Y-433236666D02*
X180146190Y-433570000D01*
X180622380Y-433808095D02*
X179622380Y-433808095D01*
X179622380Y-433427142D01*
X179670000Y-433331904D01*
X179717619Y-433284285D01*
X179812857Y-433236666D01*
X179955714Y-433236666D01*
X180050952Y-433284285D01*
X180098571Y-433331904D01*
X180146190Y-433427142D01*
X180146190Y-433808095D01*
X179622380Y-432903333D02*
X179622380Y-432284285D01*
X180003333Y-432617619D01*
X180003333Y-432474761D01*
X180050952Y-432379523D01*
X180098571Y-432331904D01*
X180193809Y-432284285D01*
X180431904Y-432284285D01*
X180527142Y-432331904D01*
X180574761Y-432379523D01*
X180622380Y-432474761D01*
X180622380Y-432760476D01*
X180574761Y-432855714D01*
X180527142Y-432903333D01*
%TO.C,R2*%
X188582380Y-433236666D02*
X188106190Y-433570000D01*
X188582380Y-433808095D02*
X187582380Y-433808095D01*
X187582380Y-433427142D01*
X187630000Y-433331904D01*
X187677619Y-433284285D01*
X187772857Y-433236666D01*
X187915714Y-433236666D01*
X188010952Y-433284285D01*
X188058571Y-433331904D01*
X188106190Y-433427142D01*
X188106190Y-433808095D01*
X187677619Y-432855714D02*
X187630000Y-432808095D01*
X187582380Y-432712857D01*
X187582380Y-432474761D01*
X187630000Y-432379523D01*
X187677619Y-432331904D01*
X187772857Y-432284285D01*
X187868095Y-432284285D01*
X188010952Y-432331904D01*
X188582380Y-432903333D01*
X188582380Y-432284285D01*
%TO.C,R1*%
X182232380Y-433236666D02*
X181756190Y-433570000D01*
X182232380Y-433808095D02*
X181232380Y-433808095D01*
X181232380Y-433427142D01*
X181280000Y-433331904D01*
X181327619Y-433284285D01*
X181422857Y-433236666D01*
X181565714Y-433236666D01*
X181660952Y-433284285D01*
X181708571Y-433331904D01*
X181756190Y-433427142D01*
X181756190Y-433808095D01*
X182232380Y-432284285D02*
X182232380Y-432855714D01*
X182232380Y-432570000D02*
X181232380Y-432570000D01*
X181375238Y-432665238D01*
X181470476Y-432760476D01*
X181518095Y-432855714D01*
%TO.C,J13*%
X182070476Y-489882380D02*
X182070476Y-490596666D01*
X182022857Y-490739523D01*
X181927619Y-490834761D01*
X181784761Y-490882380D01*
X181689523Y-490882380D01*
X183070476Y-490882380D02*
X182499047Y-490882380D01*
X182784761Y-490882380D02*
X182784761Y-489882380D01*
X182689523Y-490025238D01*
X182594285Y-490120476D01*
X182499047Y-490168095D01*
X183403809Y-489882380D02*
X184022857Y-489882380D01*
X183689523Y-490263333D01*
X183832380Y-490263333D01*
X183927619Y-490310952D01*
X183975238Y-490358571D01*
X184022857Y-490453809D01*
X184022857Y-490691904D01*
X183975238Y-490787142D01*
X183927619Y-490834761D01*
X183832380Y-490882380D01*
X183546666Y-490882380D01*
X183451428Y-490834761D01*
X183403809Y-490787142D01*
%TO.C,Y1*%
X251151190Y-479166190D02*
X251627380Y-479166190D01*
X250627380Y-479499523D02*
X251151190Y-479166190D01*
X250627380Y-478832857D01*
X251627380Y-477975714D02*
X251627380Y-478547142D01*
X251627380Y-478261428D02*
X250627380Y-478261428D01*
X250770238Y-478356666D01*
X250865476Y-478451904D01*
X250913095Y-478547142D01*
%TO.C,U8*%
X171958095Y-469562380D02*
X171958095Y-470371904D01*
X172005714Y-470467142D01*
X172053333Y-470514761D01*
X172148571Y-470562380D01*
X172339047Y-470562380D01*
X172434285Y-470514761D01*
X172481904Y-470467142D01*
X172529523Y-470371904D01*
X172529523Y-469562380D01*
X173148571Y-469990952D02*
X173053333Y-469943333D01*
X173005714Y-469895714D01*
X172958095Y-469800476D01*
X172958095Y-469752857D01*
X173005714Y-469657619D01*
X173053333Y-469610000D01*
X173148571Y-469562380D01*
X173339047Y-469562380D01*
X173434285Y-469610000D01*
X173481904Y-469657619D01*
X173529523Y-469752857D01*
X173529523Y-469800476D01*
X173481904Y-469895714D01*
X173434285Y-469943333D01*
X173339047Y-469990952D01*
X173148571Y-469990952D01*
X173053333Y-470038571D01*
X173005714Y-470086190D01*
X172958095Y-470181428D01*
X172958095Y-470371904D01*
X173005714Y-470467142D01*
X173053333Y-470514761D01*
X173148571Y-470562380D01*
X173339047Y-470562380D01*
X173434285Y-470514761D01*
X173481904Y-470467142D01*
X173529523Y-470371904D01*
X173529523Y-470181428D01*
X173481904Y-470086190D01*
X173434285Y-470038571D01*
X173339047Y-469990952D01*
%TO.C,U7*%
X239268095Y-417492380D02*
X239268095Y-418301904D01*
X239315714Y-418397142D01*
X239363333Y-418444761D01*
X239458571Y-418492380D01*
X239649047Y-418492380D01*
X239744285Y-418444761D01*
X239791904Y-418397142D01*
X239839523Y-418301904D01*
X239839523Y-417492380D01*
X240220476Y-417492380D02*
X240887142Y-417492380D01*
X240458571Y-418492380D01*
%TO.C,U6*%
X208788095Y-417492380D02*
X208788095Y-418301904D01*
X208835714Y-418397142D01*
X208883333Y-418444761D01*
X208978571Y-418492380D01*
X209169047Y-418492380D01*
X209264285Y-418444761D01*
X209311904Y-418397142D01*
X209359523Y-418301904D01*
X209359523Y-417492380D01*
X210264285Y-417492380D02*
X210073809Y-417492380D01*
X209978571Y-417540000D01*
X209930952Y-417587619D01*
X209835714Y-417730476D01*
X209788095Y-417920952D01*
X209788095Y-418301904D01*
X209835714Y-418397142D01*
X209883333Y-418444761D01*
X209978571Y-418492380D01*
X210169047Y-418492380D01*
X210264285Y-418444761D01*
X210311904Y-418397142D01*
X210359523Y-418301904D01*
X210359523Y-418063809D01*
X210311904Y-417968571D01*
X210264285Y-417920952D01*
X210169047Y-417873333D01*
X209978571Y-417873333D01*
X209883333Y-417920952D01*
X209835714Y-417968571D01*
X209788095Y-418063809D01*
%TO.C,U4*%
X241142380Y-479551904D02*
X241951904Y-479551904D01*
X242047142Y-479504285D01*
X242094761Y-479456666D01*
X242142380Y-479361428D01*
X242142380Y-479170952D01*
X242094761Y-479075714D01*
X242047142Y-479028095D01*
X241951904Y-478980476D01*
X241142380Y-478980476D01*
X241475714Y-478075714D02*
X242142380Y-478075714D01*
X241094761Y-478313809D02*
X241809047Y-478551904D01*
X241809047Y-477932857D01*
%TO.C,U3*%
X216408095Y-467502380D02*
X216408095Y-468311904D01*
X216455714Y-468407142D01*
X216503333Y-468454761D01*
X216598571Y-468502380D01*
X216789047Y-468502380D01*
X216884285Y-468454761D01*
X216931904Y-468407142D01*
X216979523Y-468311904D01*
X216979523Y-467502380D01*
X217360476Y-467502380D02*
X217979523Y-467502380D01*
X217646190Y-467883333D01*
X217789047Y-467883333D01*
X217884285Y-467930952D01*
X217931904Y-467978571D01*
X217979523Y-468073809D01*
X217979523Y-468311904D01*
X217931904Y-468407142D01*
X217884285Y-468454761D01*
X217789047Y-468502380D01*
X217503333Y-468502380D01*
X217408095Y-468454761D01*
X217360476Y-468407142D01*
%TO.C,U2*%
X171958095Y-455592380D02*
X171958095Y-456401904D01*
X172005714Y-456497142D01*
X172053333Y-456544761D01*
X172148571Y-456592380D01*
X172339047Y-456592380D01*
X172434285Y-456544761D01*
X172481904Y-456497142D01*
X172529523Y-456401904D01*
X172529523Y-455592380D01*
X172958095Y-455687619D02*
X173005714Y-455640000D01*
X173100952Y-455592380D01*
X173339047Y-455592380D01*
X173434285Y-455640000D01*
X173481904Y-455687619D01*
X173529523Y-455782857D01*
X173529523Y-455878095D01*
X173481904Y-456020952D01*
X172910476Y-456592380D01*
X173529523Y-456592380D01*
%TO.C,U1*%
X165362380Y-433831904D02*
X166171904Y-433831904D01*
X166267142Y-433784285D01*
X166314761Y-433736666D01*
X166362380Y-433641428D01*
X166362380Y-433450952D01*
X166314761Y-433355714D01*
X166267142Y-433308095D01*
X166171904Y-433260476D01*
X165362380Y-433260476D01*
X166362380Y-432260476D02*
X166362380Y-432831904D01*
X166362380Y-432546190D02*
X165362380Y-432546190D01*
X165505238Y-432641428D01*
X165600476Y-432736666D01*
X165648095Y-432831904D01*
%TO.C,Q4*%
X177704761Y-491787619D02*
X177609523Y-491740000D01*
X177514285Y-491644761D01*
X177371428Y-491501904D01*
X177276190Y-491454285D01*
X177180952Y-491454285D01*
X177228571Y-491692380D02*
X177133333Y-491644761D01*
X177038095Y-491549523D01*
X176990476Y-491359047D01*
X176990476Y-491025714D01*
X177038095Y-490835238D01*
X177133333Y-490740000D01*
X177228571Y-490692380D01*
X177419047Y-490692380D01*
X177514285Y-490740000D01*
X177609523Y-490835238D01*
X177657142Y-491025714D01*
X177657142Y-491359047D01*
X177609523Y-491549523D01*
X177514285Y-491644761D01*
X177419047Y-491692380D01*
X177228571Y-491692380D01*
X178514285Y-491025714D02*
X178514285Y-491692380D01*
X178276190Y-490644761D02*
X178038095Y-491359047D01*
X178657142Y-491359047D01*
%TO.C,Q3*%
X177704761Y-499407619D02*
X177609523Y-499360000D01*
X177514285Y-499264761D01*
X177371428Y-499121904D01*
X177276190Y-499074285D01*
X177180952Y-499074285D01*
X177228571Y-499312380D02*
X177133333Y-499264761D01*
X177038095Y-499169523D01*
X176990476Y-498979047D01*
X176990476Y-498645714D01*
X177038095Y-498455238D01*
X177133333Y-498360000D01*
X177228571Y-498312380D01*
X177419047Y-498312380D01*
X177514285Y-498360000D01*
X177609523Y-498455238D01*
X177657142Y-498645714D01*
X177657142Y-498979047D01*
X177609523Y-499169523D01*
X177514285Y-499264761D01*
X177419047Y-499312380D01*
X177228571Y-499312380D01*
X177990476Y-498312380D02*
X178609523Y-498312380D01*
X178276190Y-498693333D01*
X178419047Y-498693333D01*
X178514285Y-498740952D01*
X178561904Y-498788571D01*
X178609523Y-498883809D01*
X178609523Y-499121904D01*
X178561904Y-499217142D01*
X178514285Y-499264761D01*
X178419047Y-499312380D01*
X178133333Y-499312380D01*
X178038095Y-499264761D01*
X177990476Y-499217142D01*
%TO.C,Q2*%
X171354761Y-484667619D02*
X171259523Y-484620000D01*
X171164285Y-484524761D01*
X171021428Y-484381904D01*
X170926190Y-484334285D01*
X170830952Y-484334285D01*
X170878571Y-484572380D02*
X170783333Y-484524761D01*
X170688095Y-484429523D01*
X170640476Y-484239047D01*
X170640476Y-483905714D01*
X170688095Y-483715238D01*
X170783333Y-483620000D01*
X170878571Y-483572380D01*
X171069047Y-483572380D01*
X171164285Y-483620000D01*
X171259523Y-483715238D01*
X171307142Y-483905714D01*
X171307142Y-484239047D01*
X171259523Y-484429523D01*
X171164285Y-484524761D01*
X171069047Y-484572380D01*
X170878571Y-484572380D01*
X171688095Y-483667619D02*
X171735714Y-483620000D01*
X171830952Y-483572380D01*
X172069047Y-483572380D01*
X172164285Y-483620000D01*
X172211904Y-483667619D01*
X172259523Y-483762857D01*
X172259523Y-483858095D01*
X172211904Y-484000952D01*
X171640476Y-484572380D01*
X172259523Y-484572380D01*
%TO.C,Q1*%
X171354761Y-492287619D02*
X171259523Y-492240000D01*
X171164285Y-492144761D01*
X171021428Y-492001904D01*
X170926190Y-491954285D01*
X170830952Y-491954285D01*
X170878571Y-492192380D02*
X170783333Y-492144761D01*
X170688095Y-492049523D01*
X170640476Y-491859047D01*
X170640476Y-491525714D01*
X170688095Y-491335238D01*
X170783333Y-491240000D01*
X170878571Y-491192380D01*
X171069047Y-491192380D01*
X171164285Y-491240000D01*
X171259523Y-491335238D01*
X171307142Y-491525714D01*
X171307142Y-491859047D01*
X171259523Y-492049523D01*
X171164285Y-492144761D01*
X171069047Y-492192380D01*
X170878571Y-492192380D01*
X172259523Y-492192380D02*
X171688095Y-492192380D01*
X171973809Y-492192380D02*
X171973809Y-491192380D01*
X171878571Y-491335238D01*
X171783333Y-491430476D01*
X171688095Y-491478095D01*
%TO.C,L9*%
X243332380Y-457366666D02*
X243332380Y-457842857D01*
X242332380Y-457842857D01*
X243332380Y-456985714D02*
X243332380Y-456795238D01*
X243284761Y-456700000D01*
X243237142Y-456652380D01*
X243094285Y-456557142D01*
X242903809Y-456509523D01*
X242522857Y-456509523D01*
X242427619Y-456557142D01*
X242380000Y-456604761D01*
X242332380Y-456700000D01*
X242332380Y-456890476D01*
X242380000Y-456985714D01*
X242427619Y-457033333D01*
X242522857Y-457080952D01*
X242760952Y-457080952D01*
X242856190Y-457033333D01*
X242903809Y-456985714D01*
X242951428Y-456890476D01*
X242951428Y-456700000D01*
X242903809Y-456604761D01*
X242856190Y-456557142D01*
X242760952Y-456509523D01*
%TO.C,J12*%
X168152380Y-492299523D02*
X168866666Y-492299523D01*
X169009523Y-492347142D01*
X169104761Y-492442380D01*
X169152380Y-492585238D01*
X169152380Y-492680476D01*
X169152380Y-491299523D02*
X169152380Y-491870952D01*
X169152380Y-491585238D02*
X168152380Y-491585238D01*
X168295238Y-491680476D01*
X168390476Y-491775714D01*
X168438095Y-491870952D01*
X168247619Y-490918571D02*
X168200000Y-490870952D01*
X168152380Y-490775714D01*
X168152380Y-490537619D01*
X168200000Y-490442380D01*
X168247619Y-490394761D01*
X168342857Y-490347142D01*
X168438095Y-490347142D01*
X168580952Y-490394761D01*
X169152380Y-490966190D01*
X169152380Y-490347142D01*
%TO.C,J11*%
X237152380Y-493569523D02*
X237866666Y-493569523D01*
X238009523Y-493617142D01*
X238104761Y-493712380D01*
X238152380Y-493855238D01*
X238152380Y-493950476D01*
X238152380Y-492569523D02*
X238152380Y-493140952D01*
X238152380Y-492855238D02*
X237152380Y-492855238D01*
X237295238Y-492950476D01*
X237390476Y-493045714D01*
X237438095Y-493140952D01*
X238152380Y-491617142D02*
X238152380Y-492188571D01*
X238152380Y-491902857D02*
X237152380Y-491902857D01*
X237295238Y-491998095D01*
X237390476Y-492093333D01*
X237438095Y-492188571D01*
%TO.C,J10*%
X223182380Y-493569523D02*
X223896666Y-493569523D01*
X224039523Y-493617142D01*
X224134761Y-493712380D01*
X224182380Y-493855238D01*
X224182380Y-493950476D01*
X224182380Y-492569523D02*
X224182380Y-493140952D01*
X224182380Y-492855238D02*
X223182380Y-492855238D01*
X223325238Y-492950476D01*
X223420476Y-493045714D01*
X223468095Y-493140952D01*
X223182380Y-491950476D02*
X223182380Y-491855238D01*
X223230000Y-491760000D01*
X223277619Y-491712380D01*
X223372857Y-491664761D01*
X223563333Y-491617142D01*
X223801428Y-491617142D01*
X223991904Y-491664761D01*
X224087142Y-491712380D01*
X224134761Y-491760000D01*
X224182380Y-491855238D01*
X224182380Y-491950476D01*
X224134761Y-492045714D01*
X224087142Y-492093333D01*
X223991904Y-492140952D01*
X223801428Y-492188571D01*
X223563333Y-492188571D01*
X223372857Y-492140952D01*
X223277619Y-492093333D01*
X223230000Y-492045714D01*
X223182380Y-491950476D01*
%TO.C,J9*%
X226996666Y-476762380D02*
X226996666Y-477476666D01*
X226949047Y-477619523D01*
X226853809Y-477714761D01*
X226710952Y-477762380D01*
X226615714Y-477762380D01*
X227520476Y-477762380D02*
X227710952Y-477762380D01*
X227806190Y-477714761D01*
X227853809Y-477667142D01*
X227949047Y-477524285D01*
X227996666Y-477333809D01*
X227996666Y-476952857D01*
X227949047Y-476857619D01*
X227901428Y-476810000D01*
X227806190Y-476762380D01*
X227615714Y-476762380D01*
X227520476Y-476810000D01*
X227472857Y-476857619D01*
X227425238Y-476952857D01*
X227425238Y-477190952D01*
X227472857Y-477286190D01*
X227520476Y-477333809D01*
X227615714Y-477381428D01*
X227806190Y-477381428D01*
X227901428Y-477333809D01*
X227949047Y-477286190D01*
X227996666Y-477190952D01*
%TO.C,J8*%
X253242380Y-493093333D02*
X253956666Y-493093333D01*
X254099523Y-493140952D01*
X254194761Y-493236190D01*
X254242380Y-493379047D01*
X254242380Y-493474285D01*
X253670952Y-492474285D02*
X253623333Y-492569523D01*
X253575714Y-492617142D01*
X253480476Y-492664761D01*
X253432857Y-492664761D01*
X253337619Y-492617142D01*
X253290000Y-492569523D01*
X253242380Y-492474285D01*
X253242380Y-492283809D01*
X253290000Y-492188571D01*
X253337619Y-492140952D01*
X253432857Y-492093333D01*
X253480476Y-492093333D01*
X253575714Y-492140952D01*
X253623333Y-492188571D01*
X253670952Y-492283809D01*
X253670952Y-492474285D01*
X253718571Y-492569523D01*
X253766190Y-492617142D01*
X253861428Y-492664761D01*
X254051904Y-492664761D01*
X254147142Y-492617142D01*
X254194761Y-492569523D01*
X254242380Y-492474285D01*
X254242380Y-492283809D01*
X254194761Y-492188571D01*
X254147142Y-492140952D01*
X254051904Y-492093333D01*
X253861428Y-492093333D01*
X253766190Y-492140952D01*
X253718571Y-492188571D01*
X253670952Y-492283809D01*
%TO.C,J6*%
X181276666Y-406062380D02*
X181276666Y-406776666D01*
X181229047Y-406919523D01*
X181133809Y-407014761D01*
X180990952Y-407062380D01*
X180895714Y-407062380D01*
X182181428Y-406062380D02*
X181990952Y-406062380D01*
X181895714Y-406110000D01*
X181848095Y-406157619D01*
X181752857Y-406300476D01*
X181705238Y-406490952D01*
X181705238Y-406871904D01*
X181752857Y-406967142D01*
X181800476Y-407014761D01*
X181895714Y-407062380D01*
X182086190Y-407062380D01*
X182181428Y-407014761D01*
X182229047Y-406967142D01*
X182276666Y-406871904D01*
X182276666Y-406633809D01*
X182229047Y-406538571D01*
X182181428Y-406490952D01*
X182086190Y-406443333D01*
X181895714Y-406443333D01*
X181800476Y-406490952D01*
X181752857Y-406538571D01*
X181705238Y-406633809D01*
%TO.C,J5*%
X172386666Y-406062380D02*
X172386666Y-406776666D01*
X172339047Y-406919523D01*
X172243809Y-407014761D01*
X172100952Y-407062380D01*
X172005714Y-407062380D01*
X173339047Y-406062380D02*
X172862857Y-406062380D01*
X172815238Y-406538571D01*
X172862857Y-406490952D01*
X172958095Y-406443333D01*
X173196190Y-406443333D01*
X173291428Y-406490952D01*
X173339047Y-406538571D01*
X173386666Y-406633809D01*
X173386666Y-406871904D01*
X173339047Y-406967142D01*
X173291428Y-407014761D01*
X173196190Y-407062380D01*
X172958095Y-407062380D01*
X172862857Y-407014761D01*
X172815238Y-406967142D01*
%TO.C,J4*%
X196516666Y-421302380D02*
X196516666Y-422016666D01*
X196469047Y-422159523D01*
X196373809Y-422254761D01*
X196230952Y-422302380D01*
X196135714Y-422302380D01*
X197421428Y-421635714D02*
X197421428Y-422302380D01*
X197183333Y-421254761D02*
X196945238Y-421969047D01*
X197564285Y-421969047D01*
%TO.C,J3*%
X252396666Y-421302380D02*
X252396666Y-422016666D01*
X252349047Y-422159523D01*
X252253809Y-422254761D01*
X252110952Y-422302380D01*
X252015714Y-422302380D01*
X252777619Y-421302380D02*
X253396666Y-421302380D01*
X253063333Y-421683333D01*
X253206190Y-421683333D01*
X253301428Y-421730952D01*
X253349047Y-421778571D01*
X253396666Y-421873809D01*
X253396666Y-422111904D01*
X253349047Y-422207142D01*
X253301428Y-422254761D01*
X253206190Y-422302380D01*
X252920476Y-422302380D01*
X252825238Y-422254761D01*
X252777619Y-422207142D01*
%TO.C,J2*%
X232076666Y-421302380D02*
X232076666Y-422016666D01*
X232029047Y-422159523D01*
X231933809Y-422254761D01*
X231790952Y-422302380D01*
X231695714Y-422302380D01*
X232505238Y-421397619D02*
X232552857Y-421350000D01*
X232648095Y-421302380D01*
X232886190Y-421302380D01*
X232981428Y-421350000D01*
X233029047Y-421397619D01*
X233076666Y-421492857D01*
X233076666Y-421588095D01*
X233029047Y-421730952D01*
X232457619Y-422302380D01*
X233076666Y-422302380D01*
%TO.C,J1*%
X216836666Y-421302380D02*
X216836666Y-422016666D01*
X216789047Y-422159523D01*
X216693809Y-422254761D01*
X216550952Y-422302380D01*
X216455714Y-422302380D01*
X217836666Y-422302380D02*
X217265238Y-422302380D01*
X217550952Y-422302380D02*
X217550952Y-421302380D01*
X217455714Y-421445238D01*
X217360476Y-421540476D01*
X217265238Y-421588095D01*
%TO.C,D1*%
X165622380Y-419838095D02*
X164622380Y-419838095D01*
X164622380Y-419600000D01*
X164670000Y-419457142D01*
X164765238Y-419361904D01*
X164860476Y-419314285D01*
X165050952Y-419266666D01*
X165193809Y-419266666D01*
X165384285Y-419314285D01*
X165479523Y-419361904D01*
X165574761Y-419457142D01*
X165622380Y-419600000D01*
X165622380Y-419838095D01*
X165622380Y-418314285D02*
X165622380Y-418885714D01*
X165622380Y-418600000D02*
X164622380Y-418600000D01*
X164765238Y-418695238D01*
X164860476Y-418790476D01*
X164908095Y-418885714D01*
X165992380Y-424441904D02*
X164992380Y-424441904D01*
X165992380Y-423870476D02*
X165420952Y-424299047D01*
X164992380Y-423870476D02*
X165563809Y-424441904D01*
%TO.C,C24*%
X185817142Y-462962857D02*
X185864761Y-463010476D01*
X185912380Y-463153333D01*
X185912380Y-463248571D01*
X185864761Y-463391428D01*
X185769523Y-463486666D01*
X185674285Y-463534285D01*
X185483809Y-463581904D01*
X185340952Y-463581904D01*
X185150476Y-463534285D01*
X185055238Y-463486666D01*
X184960000Y-463391428D01*
X184912380Y-463248571D01*
X184912380Y-463153333D01*
X184960000Y-463010476D01*
X185007619Y-462962857D01*
X185007619Y-462581904D02*
X184960000Y-462534285D01*
X184912380Y-462439047D01*
X184912380Y-462200952D01*
X184960000Y-462105714D01*
X185007619Y-462058095D01*
X185102857Y-462010476D01*
X185198095Y-462010476D01*
X185340952Y-462058095D01*
X185912380Y-462629523D01*
X185912380Y-462010476D01*
X185245714Y-461153333D02*
X185912380Y-461153333D01*
X184864761Y-461391428D02*
X185579047Y-461629523D01*
X185579047Y-461010476D01*
%TO.C,C23*%
X190817142Y-471772857D02*
X190864761Y-471820476D01*
X190912380Y-471963333D01*
X190912380Y-472058571D01*
X190864761Y-472201428D01*
X190769523Y-472296666D01*
X190674285Y-472344285D01*
X190483809Y-472391904D01*
X190340952Y-472391904D01*
X190150476Y-472344285D01*
X190055238Y-472296666D01*
X189960000Y-472201428D01*
X189912380Y-472058571D01*
X189912380Y-471963333D01*
X189960000Y-471820476D01*
X190007619Y-471772857D01*
X190007619Y-471391904D02*
X189960000Y-471344285D01*
X189912380Y-471249047D01*
X189912380Y-471010952D01*
X189960000Y-470915714D01*
X190007619Y-470868095D01*
X190102857Y-470820476D01*
X190198095Y-470820476D01*
X190340952Y-470868095D01*
X190912380Y-471439523D01*
X190912380Y-470820476D01*
X189912380Y-470487142D02*
X189912380Y-469868095D01*
X190293333Y-470201428D01*
X190293333Y-470058571D01*
X190340952Y-469963333D01*
X190388571Y-469915714D01*
X190483809Y-469868095D01*
X190721904Y-469868095D01*
X190817142Y-469915714D01*
X190864761Y-469963333D01*
X190912380Y-470058571D01*
X190912380Y-470344285D01*
X190864761Y-470439523D01*
X190817142Y-470487142D01*
%TO.C,C22*%
X190917142Y-492212857D02*
X190964761Y-492260476D01*
X191012380Y-492403333D01*
X191012380Y-492498571D01*
X190964761Y-492641428D01*
X190869523Y-492736666D01*
X190774285Y-492784285D01*
X190583809Y-492831904D01*
X190440952Y-492831904D01*
X190250476Y-492784285D01*
X190155238Y-492736666D01*
X190060000Y-492641428D01*
X190012380Y-492498571D01*
X190012380Y-492403333D01*
X190060000Y-492260476D01*
X190107619Y-492212857D01*
X190107619Y-491831904D02*
X190060000Y-491784285D01*
X190012380Y-491689047D01*
X190012380Y-491450952D01*
X190060000Y-491355714D01*
X190107619Y-491308095D01*
X190202857Y-491260476D01*
X190298095Y-491260476D01*
X190440952Y-491308095D01*
X191012380Y-491879523D01*
X191012380Y-491260476D01*
X190107619Y-490879523D02*
X190060000Y-490831904D01*
X190012380Y-490736666D01*
X190012380Y-490498571D01*
X190060000Y-490403333D01*
X190107619Y-490355714D01*
X190202857Y-490308095D01*
X190298095Y-490308095D01*
X190440952Y-490355714D01*
X191012380Y-490927142D01*
X191012380Y-490308095D01*
%TO.C,C21*%
X199807142Y-492212857D02*
X199854761Y-492260476D01*
X199902380Y-492403333D01*
X199902380Y-492498571D01*
X199854761Y-492641428D01*
X199759523Y-492736666D01*
X199664285Y-492784285D01*
X199473809Y-492831904D01*
X199330952Y-492831904D01*
X199140476Y-492784285D01*
X199045238Y-492736666D01*
X198950000Y-492641428D01*
X198902380Y-492498571D01*
X198902380Y-492403333D01*
X198950000Y-492260476D01*
X198997619Y-492212857D01*
X198997619Y-491831904D02*
X198950000Y-491784285D01*
X198902380Y-491689047D01*
X198902380Y-491450952D01*
X198950000Y-491355714D01*
X198997619Y-491308095D01*
X199092857Y-491260476D01*
X199188095Y-491260476D01*
X199330952Y-491308095D01*
X199902380Y-491879523D01*
X199902380Y-491260476D01*
X199902380Y-490308095D02*
X199902380Y-490879523D01*
X199902380Y-490593809D02*
X198902380Y-490593809D01*
X199045238Y-490689047D01*
X199140476Y-490784285D01*
X199188095Y-490879523D01*
%TO.C,C20*%
X216527142Y-477467142D02*
X216479523Y-477514761D01*
X216336666Y-477562380D01*
X216241428Y-477562380D01*
X216098571Y-477514761D01*
X216003333Y-477419523D01*
X215955714Y-477324285D01*
X215908095Y-477133809D01*
X215908095Y-476990952D01*
X215955714Y-476800476D01*
X216003333Y-476705238D01*
X216098571Y-476610000D01*
X216241428Y-476562380D01*
X216336666Y-476562380D01*
X216479523Y-476610000D01*
X216527142Y-476657619D01*
X216908095Y-476657619D02*
X216955714Y-476610000D01*
X217050952Y-476562380D01*
X217289047Y-476562380D01*
X217384285Y-476610000D01*
X217431904Y-476657619D01*
X217479523Y-476752857D01*
X217479523Y-476848095D01*
X217431904Y-476990952D01*
X216860476Y-477562380D01*
X217479523Y-477562380D01*
X218098571Y-476562380D02*
X218193809Y-476562380D01*
X218289047Y-476610000D01*
X218336666Y-476657619D01*
X218384285Y-476752857D01*
X218431904Y-476943333D01*
X218431904Y-477181428D01*
X218384285Y-477371904D01*
X218336666Y-477467142D01*
X218289047Y-477514761D01*
X218193809Y-477562380D01*
X218098571Y-477562380D01*
X218003333Y-477514761D01*
X217955714Y-477467142D01*
X217908095Y-477371904D01*
X217860476Y-477181428D01*
X217860476Y-476943333D01*
X217908095Y-476752857D01*
X217955714Y-476657619D01*
X218003333Y-476610000D01*
X218098571Y-476562380D01*
%TO.C,C19*%
X236617142Y-450182857D02*
X236664761Y-450230476D01*
X236712380Y-450373333D01*
X236712380Y-450468571D01*
X236664761Y-450611428D01*
X236569523Y-450706666D01*
X236474285Y-450754285D01*
X236283809Y-450801904D01*
X236140952Y-450801904D01*
X235950476Y-450754285D01*
X235855238Y-450706666D01*
X235760000Y-450611428D01*
X235712380Y-450468571D01*
X235712380Y-450373333D01*
X235760000Y-450230476D01*
X235807619Y-450182857D01*
X236712380Y-449230476D02*
X236712380Y-449801904D01*
X236712380Y-449516190D02*
X235712380Y-449516190D01*
X235855238Y-449611428D01*
X235950476Y-449706666D01*
X235998095Y-449801904D01*
X236712380Y-448754285D02*
X236712380Y-448563809D01*
X236664761Y-448468571D01*
X236617142Y-448420952D01*
X236474285Y-448325714D01*
X236283809Y-448278095D01*
X235902857Y-448278095D01*
X235807619Y-448325714D01*
X235760000Y-448373333D01*
X235712380Y-448468571D01*
X235712380Y-448659047D01*
X235760000Y-448754285D01*
X235807619Y-448801904D01*
X235902857Y-448849523D01*
X236140952Y-448849523D01*
X236236190Y-448801904D01*
X236283809Y-448754285D01*
X236331428Y-448659047D01*
X236331428Y-448468571D01*
X236283809Y-448373333D01*
X236236190Y-448325714D01*
X236140952Y-448278095D01*
%TO.C,C18*%
X229267142Y-461327142D02*
X229219523Y-461374761D01*
X229076666Y-461422380D01*
X228981428Y-461422380D01*
X228838571Y-461374761D01*
X228743333Y-461279523D01*
X228695714Y-461184285D01*
X228648095Y-460993809D01*
X228648095Y-460850952D01*
X228695714Y-460660476D01*
X228743333Y-460565238D01*
X228838571Y-460470000D01*
X228981428Y-460422380D01*
X229076666Y-460422380D01*
X229219523Y-460470000D01*
X229267142Y-460517619D01*
X230219523Y-461422380D02*
X229648095Y-461422380D01*
X229933809Y-461422380D02*
X229933809Y-460422380D01*
X229838571Y-460565238D01*
X229743333Y-460660476D01*
X229648095Y-460708095D01*
X230790952Y-460850952D02*
X230695714Y-460803333D01*
X230648095Y-460755714D01*
X230600476Y-460660476D01*
X230600476Y-460612857D01*
X230648095Y-460517619D01*
X230695714Y-460470000D01*
X230790952Y-460422380D01*
X230981428Y-460422380D01*
X231076666Y-460470000D01*
X231124285Y-460517619D01*
X231171904Y-460612857D01*
X231171904Y-460660476D01*
X231124285Y-460755714D01*
X231076666Y-460803333D01*
X230981428Y-460850952D01*
X230790952Y-460850952D01*
X230695714Y-460898571D01*
X230648095Y-460946190D01*
X230600476Y-461041428D01*
X230600476Y-461231904D01*
X230648095Y-461327142D01*
X230695714Y-461374761D01*
X230790952Y-461422380D01*
X230981428Y-461422380D01*
X231076666Y-461374761D01*
X231124285Y-461327142D01*
X231171904Y-461231904D01*
X231171904Y-461041428D01*
X231124285Y-460946190D01*
X231076666Y-460898571D01*
X230981428Y-460850952D01*
%TO.C,C17*%
X230537142Y-430847142D02*
X230489523Y-430894761D01*
X230346666Y-430942380D01*
X230251428Y-430942380D01*
X230108571Y-430894761D01*
X230013333Y-430799523D01*
X229965714Y-430704285D01*
X229918095Y-430513809D01*
X229918095Y-430370952D01*
X229965714Y-430180476D01*
X230013333Y-430085238D01*
X230108571Y-429990000D01*
X230251428Y-429942380D01*
X230346666Y-429942380D01*
X230489523Y-429990000D01*
X230537142Y-430037619D01*
X231489523Y-430942380D02*
X230918095Y-430942380D01*
X231203809Y-430942380D02*
X231203809Y-429942380D01*
X231108571Y-430085238D01*
X231013333Y-430180476D01*
X230918095Y-430228095D01*
X231822857Y-429942380D02*
X232489523Y-429942380D01*
X232060952Y-430942380D01*
%TO.C,C16*%
X200057142Y-430847142D02*
X200009523Y-430894761D01*
X199866666Y-430942380D01*
X199771428Y-430942380D01*
X199628571Y-430894761D01*
X199533333Y-430799523D01*
X199485714Y-430704285D01*
X199438095Y-430513809D01*
X199438095Y-430370952D01*
X199485714Y-430180476D01*
X199533333Y-430085238D01*
X199628571Y-429990000D01*
X199771428Y-429942380D01*
X199866666Y-429942380D01*
X200009523Y-429990000D01*
X200057142Y-430037619D01*
X201009523Y-430942380D02*
X200438095Y-430942380D01*
X200723809Y-430942380D02*
X200723809Y-429942380D01*
X200628571Y-430085238D01*
X200533333Y-430180476D01*
X200438095Y-430228095D01*
X201866666Y-429942380D02*
X201676190Y-429942380D01*
X201580952Y-429990000D01*
X201533333Y-430037619D01*
X201438095Y-430180476D01*
X201390476Y-430370952D01*
X201390476Y-430751904D01*
X201438095Y-430847142D01*
X201485714Y-430894761D01*
X201580952Y-430942380D01*
X201771428Y-430942380D01*
X201866666Y-430894761D01*
X201914285Y-430847142D01*
X201961904Y-430751904D01*
X201961904Y-430513809D01*
X201914285Y-430418571D01*
X201866666Y-430370952D01*
X201771428Y-430323333D01*
X201580952Y-430323333D01*
X201485714Y-430370952D01*
X201438095Y-430418571D01*
X201390476Y-430513809D01*
%TO.C,C15*%
X248237142Y-425847142D02*
X248189523Y-425894761D01*
X248046666Y-425942380D01*
X247951428Y-425942380D01*
X247808571Y-425894761D01*
X247713333Y-425799523D01*
X247665714Y-425704285D01*
X247618095Y-425513809D01*
X247618095Y-425370952D01*
X247665714Y-425180476D01*
X247713333Y-425085238D01*
X247808571Y-424990000D01*
X247951428Y-424942380D01*
X248046666Y-424942380D01*
X248189523Y-424990000D01*
X248237142Y-425037619D01*
X249189523Y-425942380D02*
X248618095Y-425942380D01*
X248903809Y-425942380D02*
X248903809Y-424942380D01*
X248808571Y-425085238D01*
X248713333Y-425180476D01*
X248618095Y-425228095D01*
X250094285Y-424942380D02*
X249618095Y-424942380D01*
X249570476Y-425418571D01*
X249618095Y-425370952D01*
X249713333Y-425323333D01*
X249951428Y-425323333D01*
X250046666Y-425370952D01*
X250094285Y-425418571D01*
X250141904Y-425513809D01*
X250141904Y-425751904D01*
X250094285Y-425847142D01*
X250046666Y-425894761D01*
X249951428Y-425942380D01*
X249713333Y-425942380D01*
X249618095Y-425894761D01*
X249570476Y-425847142D01*
%TO.C,C14*%
X220337142Y-425847142D02*
X220289523Y-425894761D01*
X220146666Y-425942380D01*
X220051428Y-425942380D01*
X219908571Y-425894761D01*
X219813333Y-425799523D01*
X219765714Y-425704285D01*
X219718095Y-425513809D01*
X219718095Y-425370952D01*
X219765714Y-425180476D01*
X219813333Y-425085238D01*
X219908571Y-424990000D01*
X220051428Y-424942380D01*
X220146666Y-424942380D01*
X220289523Y-424990000D01*
X220337142Y-425037619D01*
X221289523Y-425942380D02*
X220718095Y-425942380D01*
X221003809Y-425942380D02*
X221003809Y-424942380D01*
X220908571Y-425085238D01*
X220813333Y-425180476D01*
X220718095Y-425228095D01*
X222146666Y-425275714D02*
X222146666Y-425942380D01*
X221908571Y-424894761D02*
X221670476Y-425609047D01*
X222289523Y-425609047D01*
%TO.C,C13*%
X216527142Y-472387142D02*
X216479523Y-472434761D01*
X216336666Y-472482380D01*
X216241428Y-472482380D01*
X216098571Y-472434761D01*
X216003333Y-472339523D01*
X215955714Y-472244285D01*
X215908095Y-472053809D01*
X215908095Y-471910952D01*
X215955714Y-471720476D01*
X216003333Y-471625238D01*
X216098571Y-471530000D01*
X216241428Y-471482380D01*
X216336666Y-471482380D01*
X216479523Y-471530000D01*
X216527142Y-471577619D01*
X217479523Y-472482380D02*
X216908095Y-472482380D01*
X217193809Y-472482380D02*
X217193809Y-471482380D01*
X217098571Y-471625238D01*
X217003333Y-471720476D01*
X216908095Y-471768095D01*
X217812857Y-471482380D02*
X218431904Y-471482380D01*
X218098571Y-471863333D01*
X218241428Y-471863333D01*
X218336666Y-471910952D01*
X218384285Y-471958571D01*
X218431904Y-472053809D01*
X218431904Y-472291904D01*
X218384285Y-472387142D01*
X218336666Y-472434761D01*
X218241428Y-472482380D01*
X217955714Y-472482380D01*
X217860476Y-472434761D01*
X217812857Y-472387142D01*
%TO.C,C12*%
X258127142Y-457802857D02*
X258174761Y-457850476D01*
X258222380Y-457993333D01*
X258222380Y-458088571D01*
X258174761Y-458231428D01*
X258079523Y-458326666D01*
X257984285Y-458374285D01*
X257793809Y-458421904D01*
X257650952Y-458421904D01*
X257460476Y-458374285D01*
X257365238Y-458326666D01*
X257270000Y-458231428D01*
X257222380Y-458088571D01*
X257222380Y-457993333D01*
X257270000Y-457850476D01*
X257317619Y-457802857D01*
X258222380Y-456850476D02*
X258222380Y-457421904D01*
X258222380Y-457136190D02*
X257222380Y-457136190D01*
X257365238Y-457231428D01*
X257460476Y-457326666D01*
X257508095Y-457421904D01*
X257317619Y-456469523D02*
X257270000Y-456421904D01*
X257222380Y-456326666D01*
X257222380Y-456088571D01*
X257270000Y-455993333D01*
X257317619Y-455945714D01*
X257412857Y-455898095D01*
X257508095Y-455898095D01*
X257650952Y-455945714D01*
X258222380Y-456517142D01*
X258222380Y-455898095D01*
%TO.C,C9*%
X226827142Y-466256666D02*
X226874761Y-466304285D01*
X226922380Y-466447142D01*
X226922380Y-466542380D01*
X226874761Y-466685238D01*
X226779523Y-466780476D01*
X226684285Y-466828095D01*
X226493809Y-466875714D01*
X226350952Y-466875714D01*
X226160476Y-466828095D01*
X226065238Y-466780476D01*
X225970000Y-466685238D01*
X225922380Y-466542380D01*
X225922380Y-466447142D01*
X225970000Y-466304285D01*
X226017619Y-466256666D01*
X226922380Y-465780476D02*
X226922380Y-465590000D01*
X226874761Y-465494761D01*
X226827142Y-465447142D01*
X226684285Y-465351904D01*
X226493809Y-465304285D01*
X226112857Y-465304285D01*
X226017619Y-465351904D01*
X225970000Y-465399523D01*
X225922380Y-465494761D01*
X225922380Y-465685238D01*
X225970000Y-465780476D01*
X226017619Y-465828095D01*
X226112857Y-465875714D01*
X226350952Y-465875714D01*
X226446190Y-465828095D01*
X226493809Y-465780476D01*
X226541428Y-465685238D01*
X226541428Y-465494761D01*
X226493809Y-465399523D01*
X226446190Y-465351904D01*
X226350952Y-465304285D01*
%TO.C,C8*%
X233997142Y-466216666D02*
X234044761Y-466264285D01*
X234092380Y-466407142D01*
X234092380Y-466502380D01*
X234044761Y-466645238D01*
X233949523Y-466740476D01*
X233854285Y-466788095D01*
X233663809Y-466835714D01*
X233520952Y-466835714D01*
X233330476Y-466788095D01*
X233235238Y-466740476D01*
X233140000Y-466645238D01*
X233092380Y-466502380D01*
X233092380Y-466407142D01*
X233140000Y-466264285D01*
X233187619Y-466216666D01*
X233520952Y-465645238D02*
X233473333Y-465740476D01*
X233425714Y-465788095D01*
X233330476Y-465835714D01*
X233282857Y-465835714D01*
X233187619Y-465788095D01*
X233140000Y-465740476D01*
X233092380Y-465645238D01*
X233092380Y-465454761D01*
X233140000Y-465359523D01*
X233187619Y-465311904D01*
X233282857Y-465264285D01*
X233330476Y-465264285D01*
X233425714Y-465311904D01*
X233473333Y-465359523D01*
X233520952Y-465454761D01*
X233520952Y-465645238D01*
X233568571Y-465740476D01*
X233616190Y-465788095D01*
X233711428Y-465835714D01*
X233901904Y-465835714D01*
X233997142Y-465788095D01*
X234044761Y-465740476D01*
X234092380Y-465645238D01*
X234092380Y-465454761D01*
X234044761Y-465359523D01*
X233997142Y-465311904D01*
X233901904Y-465264285D01*
X233711428Y-465264285D01*
X233616190Y-465311904D01*
X233568571Y-465359523D01*
X233520952Y-465454761D01*
%TO.C,C7*%
X249983333Y-461407142D02*
X249935714Y-461454761D01*
X249792857Y-461502380D01*
X249697619Y-461502380D01*
X249554761Y-461454761D01*
X249459523Y-461359523D01*
X249411904Y-461264285D01*
X249364285Y-461073809D01*
X249364285Y-460930952D01*
X249411904Y-460740476D01*
X249459523Y-460645238D01*
X249554761Y-460550000D01*
X249697619Y-460502380D01*
X249792857Y-460502380D01*
X249935714Y-460550000D01*
X249983333Y-460597619D01*
X250316666Y-460502380D02*
X250983333Y-460502380D01*
X250554761Y-461502380D01*
%TO.C,C6*%
X253833333Y-481277142D02*
X253785714Y-481324761D01*
X253642857Y-481372380D01*
X253547619Y-481372380D01*
X253404761Y-481324761D01*
X253309523Y-481229523D01*
X253261904Y-481134285D01*
X253214285Y-480943809D01*
X253214285Y-480800952D01*
X253261904Y-480610476D01*
X253309523Y-480515238D01*
X253404761Y-480420000D01*
X253547619Y-480372380D01*
X253642857Y-480372380D01*
X253785714Y-480420000D01*
X253833333Y-480467619D01*
X254690476Y-480372380D02*
X254500000Y-480372380D01*
X254404761Y-480420000D01*
X254357142Y-480467619D01*
X254261904Y-480610476D01*
X254214285Y-480800952D01*
X254214285Y-481181904D01*
X254261904Y-481277142D01*
X254309523Y-481324761D01*
X254404761Y-481372380D01*
X254595238Y-481372380D01*
X254690476Y-481324761D01*
X254738095Y-481277142D01*
X254785714Y-481181904D01*
X254785714Y-480943809D01*
X254738095Y-480848571D01*
X254690476Y-480800952D01*
X254595238Y-480753333D01*
X254404761Y-480753333D01*
X254309523Y-480800952D01*
X254261904Y-480848571D01*
X254214285Y-480943809D01*
%TO.C,C5*%
X253833333Y-473657142D02*
X253785714Y-473704761D01*
X253642857Y-473752380D01*
X253547619Y-473752380D01*
X253404761Y-473704761D01*
X253309523Y-473609523D01*
X253261904Y-473514285D01*
X253214285Y-473323809D01*
X253214285Y-473180952D01*
X253261904Y-472990476D01*
X253309523Y-472895238D01*
X253404761Y-472800000D01*
X253547619Y-472752380D01*
X253642857Y-472752380D01*
X253785714Y-472800000D01*
X253833333Y-472847619D01*
X254738095Y-472752380D02*
X254261904Y-472752380D01*
X254214285Y-473228571D01*
X254261904Y-473180952D01*
X254357142Y-473133333D01*
X254595238Y-473133333D01*
X254690476Y-473180952D01*
X254738095Y-473228571D01*
X254785714Y-473323809D01*
X254785714Y-473561904D01*
X254738095Y-473657142D01*
X254690476Y-473704761D01*
X254595238Y-473752380D01*
X254357142Y-473752380D01*
X254261904Y-473704761D01*
X254214285Y-473657142D01*
%TO.C,C4*%
X166787142Y-448206666D02*
X166834761Y-448254285D01*
X166882380Y-448397142D01*
X166882380Y-448492380D01*
X166834761Y-448635238D01*
X166739523Y-448730476D01*
X166644285Y-448778095D01*
X166453809Y-448825714D01*
X166310952Y-448825714D01*
X166120476Y-448778095D01*
X166025238Y-448730476D01*
X165930000Y-448635238D01*
X165882380Y-448492380D01*
X165882380Y-448397142D01*
X165930000Y-448254285D01*
X165977619Y-448206666D01*
X166215714Y-447349523D02*
X166882380Y-447349523D01*
X165834761Y-447587619D02*
X166549047Y-447825714D01*
X166549047Y-447206666D01*
%TO.C,C3*%
X195877142Y-448206666D02*
X195924761Y-448254285D01*
X195972380Y-448397142D01*
X195972380Y-448492380D01*
X195924761Y-448635238D01*
X195829523Y-448730476D01*
X195734285Y-448778095D01*
X195543809Y-448825714D01*
X195400952Y-448825714D01*
X195210476Y-448778095D01*
X195115238Y-448730476D01*
X195020000Y-448635238D01*
X194972380Y-448492380D01*
X194972380Y-448397142D01*
X195020000Y-448254285D01*
X195067619Y-448206666D01*
X194972380Y-447873333D02*
X194972380Y-447254285D01*
X195353333Y-447587619D01*
X195353333Y-447444761D01*
X195400952Y-447349523D01*
X195448571Y-447301904D01*
X195543809Y-447254285D01*
X195781904Y-447254285D01*
X195877142Y-447301904D01*
X195924761Y-447349523D01*
X195972380Y-447444761D01*
X195972380Y-447730476D01*
X195924761Y-447825714D01*
X195877142Y-447873333D01*
%TO.C,C2*%
X182007142Y-418036666D02*
X182054761Y-418084285D01*
X182102380Y-418227142D01*
X182102380Y-418322380D01*
X182054761Y-418465238D01*
X181959523Y-418560476D01*
X181864285Y-418608095D01*
X181673809Y-418655714D01*
X181530952Y-418655714D01*
X181340476Y-418608095D01*
X181245238Y-418560476D01*
X181150000Y-418465238D01*
X181102380Y-418322380D01*
X181102380Y-418227142D01*
X181150000Y-418084285D01*
X181197619Y-418036666D01*
X181197619Y-417655714D02*
X181150000Y-417608095D01*
X181102380Y-417512857D01*
X181102380Y-417274761D01*
X181150000Y-417179523D01*
X181197619Y-417131904D01*
X181292857Y-417084285D01*
X181388095Y-417084285D01*
X181530952Y-417131904D01*
X182102380Y-417703333D01*
X182102380Y-417084285D01*
%TO.C,C1*%
X173137142Y-418266666D02*
X173184761Y-418314285D01*
X173232380Y-418457142D01*
X173232380Y-418552380D01*
X173184761Y-418695238D01*
X173089523Y-418790476D01*
X172994285Y-418838095D01*
X172803809Y-418885714D01*
X172660952Y-418885714D01*
X172470476Y-418838095D01*
X172375238Y-418790476D01*
X172280000Y-418695238D01*
X172232380Y-418552380D01*
X172232380Y-418457142D01*
X172280000Y-418314285D01*
X172327619Y-418266666D01*
X173232380Y-417314285D02*
X173232380Y-417885714D01*
X173232380Y-417600000D02*
X172232380Y-417600000D01*
X172375238Y-417695238D01*
X172470476Y-417790476D01*
X172518095Y-417885714D01*
%TD*%
M02*
