M48
; DRILL file {KiCad 5.1.8-5.1.8} date Sat Feb 27 17:20:59 2021
; FORMAT={-:-/ absolute / inch / decimal}
; #@! TF.CreationDate,2021-02-27T17:20:59+08:00
; #@! TF.GenerationSoftware,Kicad,Pcbnew,5.1.8-5.1.8
; #@! TF.FileFunction,Plated,1,2,PTH
FMAT,2
INCH
T1C0.0157
T2C0.0295
T3C0.0315
T4C0.0394
T5C0.0433
T6C0.1181
%
G90
G05
T1
X6.85Y-19.3
X6.9Y-19.1
X7.4Y-18.9
X8.35Y-18.6
X8.35Y-19.1
X9.05Y-18.95
X9.15Y-18.8
X9.3Y-19.1
T2
X6.95Y-19.2
X7.0Y-19.2
X7.05Y-19.2
X6.7Y-19.2
X6.75Y-19.2
X6.8Y-19.2
X6.7Y-19.5
X6.75Y-19.5
X6.8Y-19.5
X6.95Y-19.5
X7.0Y-19.5
X7.05Y-19.5
T3
X7.0Y-16.85
X7.0Y-17.25
X7.15Y-18.65
X7.15Y-19.05
X8.5Y-16.85
X8.6969Y-16.85
X9.75Y-18.25
X9.9469Y-18.25
X9.0031Y-16.85
X9.2Y-16.85
X9.25Y-16.05
X9.65Y-16.05
X8.65Y-16.15
X8.65Y-16.55
X10.0Y-16.95
X10.0Y-17.35
X9.4Y-17.6
X9.4Y-17.7969
X7.15Y-18.0
X7.15Y-18.4
X7.65Y-18.6
X7.65Y-19.0
X9.75Y-18.75
X9.75Y-18.9421
X8.05Y-17.4
X8.45Y-17.4
X7.85Y-16.15
X7.85Y-16.55
X8.8Y-17.0
X8.8Y-17.4
X8.6Y-17.05
X8.6Y-17.45
X6.65Y-18.05
X6.65Y-18.15
X6.65Y-18.25
X6.65Y-18.35
X6.95Y-18.05
X6.95Y-18.15
X6.95Y-18.25
X6.95Y-18.35
X9.25Y-16.3
X9.65Y-16.3
X9.3Y-16.55
X9.3Y-16.65
X9.3Y-16.75
X9.3Y-16.85
X9.3Y-16.95
X9.3Y-17.05
X9.3Y-17.15
X9.6Y-16.55
X9.6Y-16.65
X9.6Y-16.75
X9.6Y-16.85
X9.6Y-16.95
X9.6Y-17.05
X9.6Y-17.15
X7.5Y-16.85
X7.5Y-17.25
X6.95Y-16.4213
X6.95Y-16.5
X6.7Y-17.6
X6.7Y-17.6787
X9.8Y-17.05
X9.8Y-17.45
X9.1Y-18.25
X9.1Y-18.4469
X6.65Y-18.6
X6.65Y-18.7
X6.65Y-18.8
X6.65Y-18.9
X6.95Y-18.6
X6.95Y-18.7
X6.95Y-18.8
X6.95Y-18.9
X7.4Y-18.1031
X7.4Y-18.3
X9.1Y-17.4
X9.1Y-17.8
X8.05Y-16.3
X8.45Y-16.3
X9.25Y-17.4
X9.65Y-17.4
X8.25Y-18.8
X8.25Y-19.2
X9.65Y-18.5
X10.05Y-18.5
X8.9531Y-18.05
X9.15Y-18.05
X7.55Y-17.6
X7.55Y-17.6787
X7.4Y-18.45
X7.4Y-18.6469
X7.25Y-16.85
X7.25Y-17.25
X8.0Y-18.6
X8.0Y-19.0
X7.6Y-17.85
X7.6Y-18.25
X7.25Y-17.35
X7.25Y-17.75
X7.8031Y-16.85
X8.0Y-16.85
X9.7Y-16.85
X9.8969Y-16.85
X9.05Y-16.15
X9.05Y-16.55
X7.25Y-16.3531
X7.25Y-16.55
X9.85Y-16.15
X9.85Y-16.55
X8.05Y-16.05
X8.45Y-16.05
X6.45Y-18.05
X6.45Y-18.45
X8.55Y-17.75
X8.95Y-17.75
X10.05Y-17.9
X10.05Y-18.0969
X7.4Y-18.8
X7.4Y-19.2
X7.0Y-17.35
X7.0Y-17.75
X6.45Y-18.65
X6.45Y-19.05
X8.1Y-16.55
X8.1Y-16.65
X8.1Y-16.75
X8.1Y-16.85
X8.1Y-16.95
X8.1Y-17.05
X8.1Y-17.15
X8.4Y-16.55
X8.4Y-16.65
X8.4Y-16.75
X8.4Y-16.85
X8.4Y-16.95
X8.4Y-17.05
X8.4Y-17.15
T4
X7.15Y-16.1
X9.15Y-16.7
X7.65Y-19.1563
X7.65Y-19.55
X7.2Y-19.4
X7.2Y-19.5
X8.55Y-16.7
X8.95Y-18.6
X8.95Y-18.7
X9.95Y-16.7
X7.75Y-16.7
X6.45Y-19.35
X6.55Y-19.35
X9.45Y-19.4
X8.0Y-19.1563
X8.0Y-19.55
X9.7Y-19.4
X9.8Y-19.4
X9.9Y-19.4
X6.8Y-16.1
X8.9Y-19.4
X9.0Y-19.4
X9.1Y-19.4
X9.2Y-19.4
T5
X6.6Y-16.3
X6.6Y-16.7
X6.7Y-16.95
X6.7Y-17.05
X6.7Y-17.15
T6
X6.45Y-16.0
X6.45Y-19.55
X10.05Y-16.0
X10.05Y-19.6
T0
M30
