M48
; DRILL file {KiCad 5.1.8-5.1.8} date Fri Sep  3 20:09:41 2021
; FORMAT={-:-/ absolute / metric / decimal}
; #@! TF.CreationDate,2021-09-03T20:09:41+08:00
; #@! TF.GenerationSoftware,Kicad,Pcbnew,5.1.8-5.1.8
; #@! TF.FileFunction,Plated,1,2,PTH
FMAT,2
METRIC
T1C0.400
T2C0.700
T3C0.800
T4C1.000
T5C1.100
T6C1.200
T7C1.300
T8C1.500
T9C2.000
T10C2.500
T11C3.000
%
G90
G05
T1
X161.412Y-100.965
X164.305Y-100.965
X178.999Y-110.81
X180.335Y-110.825
X181.559Y-110.846
X182.839Y-110.856
X183.942Y-110.866
T2
X99.09Y-132.649
X101.63Y-132.649
X185.898Y-120.457
X138.0Y-115.46
X138.0Y-118.0
X184.671Y-108.047
X161.996Y-154.716
X161.996Y-157.256
X161.839Y-83.909
X176.695Y-140.988
X165.232Y-106.596
X157.856Y-79.769
X166.985Y-154.676
X166.985Y-157.216
X101.63Y-127.483
X101.63Y-130.023
X101.427Y-124.338
X103.967Y-124.338
X101.585Y-121.829
X104.125Y-121.829
X94.562Y-136.512
X172.24Y-118.31
X172.24Y-120.85
X166.027Y-87.394
X150.678Y-150.04
X155.926Y-115.489
X158.466Y-115.489
X144.762Y-151.364
X144.277Y-125.9
X144.277Y-128.44
X179.571Y-115.225
X182.111Y-115.225
X113.558Y-118.842
X113.558Y-121.382
X157.858Y-95.786
X140.777Y-93.751
X143.317Y-93.751
X181.747Y-104.079
X181.747Y-106.619
X122.131Y-120.886
X167.94Y-115.255
X170.48Y-115.255
X150.67Y-153.38
X165.925Y-84.549
X178.562Y-84.836
X181.102Y-84.836
X168.857Y-126.281
X168.857Y-128.821
X175.202Y-149.459
X125.948Y-123.789
X151.656Y-134.082
X110.41Y-94.42
X112.95Y-94.42
X136.794Y-84.696
X178.704Y-148.438
X178.704Y-150.978
X157.414Y-98.669
X173.553Y-131.821
X176.093Y-131.821
X181.798Y-99.314
X181.798Y-101.854
X129.794Y-65.278
X132.334Y-65.278
X140.61Y-125.895
X140.61Y-128.435
X124.656Y-141.747
X114.478Y-126.919
X114.478Y-129.459
X178.562Y-76.962
X181.102Y-76.962
X104.13Y-92.98
X106.67Y-92.98
X142.288Y-122.593
X149.878Y-104.745
X152.75Y-104.44
X147.043Y-104.376
X169.657Y-154.676
X169.657Y-157.216
X178.562Y-82.042
X181.102Y-82.042
X133.955Y-90.841
X178.762Y-133.217
X178.762Y-135.757
X159.385Y-154.716
X159.385Y-157.256
X142.23Y-136.718
X168.877Y-123.248
X106.71Y-149.027
X109.25Y-149.027
X122.906Y-135.893
X128.255Y-127.259
X128.255Y-129.799
X175.021Y-143.32
X177.561Y-143.32
X107.927Y-146.759
X110.467Y-146.759
X168.148Y-68.326
X170.688Y-68.326
X146.207Y-136.629
X116.713Y-129.327
X119.253Y-129.327
X143.85Y-104.267
T3
X173.385Y-137.165
X173.385Y-139.665
X119.151Y-124.536
X119.151Y-127.036
X122.0Y-96.0
X124.5Y-96.0
X129.515Y-140.238
X129.515Y-147.858
X132.055Y-140.238
X132.055Y-147.858
X134.595Y-140.238
X134.595Y-147.858
X137.135Y-140.238
X137.135Y-147.858
X139.675Y-140.238
X139.675Y-147.858
X142.215Y-140.238
X142.215Y-147.858
X144.755Y-140.238
X144.755Y-147.858
X147.295Y-140.238
X147.295Y-147.858
X146.758Y-89.662
X151.638Y-89.662
X160.366Y-118.524
X160.366Y-121.024
X104.445Y-127.295
X104.445Y-129.835
X104.445Y-132.375
X104.445Y-134.915
X104.445Y-137.455
X104.445Y-139.995
X104.445Y-142.535
X112.065Y-127.295
X112.065Y-129.835
X112.065Y-132.375
X112.065Y-134.915
X112.065Y-137.455
X112.065Y-139.995
X112.065Y-142.535
X154.33Y-144.785
X154.33Y-152.405
X156.87Y-144.785
X156.87Y-152.405
X159.41Y-144.785
X159.41Y-152.405
X161.95Y-144.785
X161.95Y-152.405
X164.49Y-144.785
X164.49Y-152.405
X167.03Y-144.785
X167.03Y-152.405
X169.57Y-144.785
X169.57Y-152.405
X172.11Y-144.785
X172.11Y-152.405
X100.279Y-135.905
X100.279Y-138.405
X157.333Y-101.462
X157.333Y-103.962
X125.73Y-72.898
X128.23Y-72.898
X119.497Y-131.648
X119.497Y-134.148
X160.981Y-133.41
X160.981Y-141.03
X163.521Y-133.41
X163.521Y-141.03
X166.061Y-133.41
X166.061Y-141.03
X168.601Y-133.41
X168.601Y-141.03
X153.244Y-118.341
X153.244Y-120.841
X168.656Y-71.882
X168.656Y-74.422
X168.656Y-76.962
X168.656Y-79.502
X168.656Y-82.042
X168.656Y-84.582
X168.656Y-87.122
X168.656Y-89.662
X176.276Y-71.882
X176.276Y-74.422
X176.276Y-76.962
X176.276Y-79.502
X176.276Y-82.042
X176.276Y-84.582
X176.276Y-87.122
X176.276Y-89.662
X147.463Y-118.42
X147.463Y-120.92
X178.191Y-118.402
X178.191Y-120.902
X160.858Y-80.665
X163.358Y-80.665
X172.568Y-125.319
X175.108Y-125.319
X177.648Y-125.319
X156.129Y-135.706
X156.129Y-138.206
X128.707Y-134.087
X131.207Y-134.087
X141.5Y-118.0
X144.0Y-118.0
X115.59Y-134.368
X115.59Y-136.868
X186.644Y-99.288
X186.644Y-101.788
X170.393Y-100.015
X170.393Y-102.555
X170.393Y-105.095
X170.393Y-107.635
X178.013Y-100.015
X178.013Y-102.555
X178.013Y-105.095
X178.013Y-107.635
X160.643Y-125.082
X163.183Y-125.082
X165.723Y-125.082
X147.897Y-125.24
X150.437Y-125.24
X152.977Y-125.24
X117.003Y-116.952
X119.503Y-116.952
X109.514Y-76.2
X112.014Y-76.2
X166.436Y-118.42
X166.436Y-120.92
X140.873Y-96.205
X143.373Y-96.205
T4
X92.009Y-110.094
X95.291Y-110.124
X98.501Y-110.145
X101.849Y-110.165
X105.115Y-110.221
X108.519Y-110.231
X112.07Y-110.261
X115.402Y-110.272
X118.781Y-110.353
X122.326Y-110.327
X126.121Y-110.383
X129.809Y-110.409
X133.335Y-110.424
X135.301Y-151.714
X136.967Y-110.485
X140.289Y-151.714
X140.777Y-110.51
X144.506Y-110.526
X147.97Y-110.556
X151.74Y-110.602
X155.717Y-110.617
X159.659Y-110.673
X163.241Y-110.688
X167.371Y-110.729
X171.16Y-110.754
X176.51Y-110.754
X185.537Y-110.876
X188.397Y-110.846
X98.806Y-75.438
X98.806Y-78.938
X161.544Y-89.662
X161.544Y-92.202
X161.544Y-94.742
X107.0Y-102.0
X110.5Y-102.0
X134.62Y-76.962
X138.12Y-76.962
T5
X118.649Y-101.074
X118.649Y-107.574
X123.149Y-101.074
X123.149Y-107.574
X112.522Y-73.152
X122.682Y-73.152
X120.16Y-62.857
X120.16Y-65.397
X120.16Y-67.937
X125.476Y-68.834
X135.636Y-68.834
X131.15Y-101.102
X131.15Y-107.602
X135.65Y-101.102
X135.65Y-107.602
T6
X134.874Y-65.278
X137.414Y-65.278
X139.954Y-65.278
X142.494Y-65.278
X145.034Y-65.278
X147.574Y-65.278
X150.114Y-65.278
X152.654Y-65.278
X155.194Y-65.278
X157.734Y-65.278
X160.274Y-65.278
X162.814Y-65.278
X165.354Y-65.278
X167.894Y-65.278
X170.434Y-65.278
X172.974Y-65.278
T7
X98.0Y-86.0
X98.0Y-91.0
T8
X183.02Y-151.95
X93.543Y-69.121
X94.201Y-98.298
X187.83Y-136.66
X187.48Y-152.09
X182.9Y-147.49
X187.76Y-131.96
X187.47Y-147.5
X183.18Y-132.01
X182.8Y-136.61
T9
X93.452Y-106.197
X93.706Y-113.889
X93.706Y-157.282
X187.168Y-113.894
X187.173Y-157.185
X187.269Y-62.514
X187.462Y-106.258
T10
X103.474Y-65.278
X103.475Y-96.279
X178.473Y-65.278
X178.473Y-96.279
T11
X93.726Y-63.5
T0
M30
