%TF.GenerationSoftware,KiCad,Pcbnew,5.1.8-5.1.8*%
%TF.CreationDate,2021-09-03T20:09:13+08:00*%
%TF.ProjectId,lcr-1,6c63722d-312e-46b6-9963-61645f706362,rev?*%
%TF.SameCoordinates,Original*%
%TF.FileFunction,Soldermask,Bot*%
%TF.FilePolarity,Negative*%
%FSLAX46Y46*%
G04 Gerber Fmt 4.6, Leading zero omitted, Abs format (unit mm)*
G04 Created by KiCad (PCBNEW 5.1.8-5.1.8) date 2021-09-03 20:09:13*
%MOMM*%
%LPD*%
G01*
G04 APERTURE LIST*
%ADD10C,3.000000*%
%ADD11O,2.000000X1.905000*%
%ADD12R,2.000000X1.905000*%
%ADD13O,1.400000X1.400000*%
%ADD14C,1.400000*%
%ADD15O,1.800000X2.600000*%
%ADD16R,1.800000X2.600000*%
%ADD17O,1.600000X1.600000*%
%ADD18R,1.600000X1.600000*%
%ADD19C,1.600000*%
%ADD20R,1.500000X1.500000*%
%ADD21C,1.500000*%
%ADD22C,2.000000*%
%ADD23C,2.600000*%
%ADD24O,1.700000X1.700000*%
%ADD25R,1.700000X1.700000*%
%ADD26O,2.200000X2.200000*%
%ADD27R,2.200000X2.200000*%
%ADD28R,2.000000X2.000000*%
%ADD29C,4.000000*%
%ADD30C,0.800000*%
G04 APERTURE END LIST*
D10*
%TO.C,J11*%
X187830000Y-136660000D03*
%TD*%
%TO.C,J10*%
X187760000Y-131960000D03*
%TD*%
%TO.C,J9*%
X187470000Y-147500000D03*
%TD*%
%TO.C,J6*%
X187480000Y-152090000D03*
%TD*%
D11*
%TO.C,U8*%
X120159780Y-62857380D03*
X120159780Y-65397380D03*
D12*
X120159780Y-67937380D03*
%TD*%
D13*
%TO.C,R34*%
X110410000Y-94420000D03*
D14*
X112950000Y-94420000D03*
%TD*%
D13*
%TO.C,R33*%
X104130000Y-92980000D03*
D14*
X106670000Y-92980000D03*
%TD*%
D13*
%TO.C,R19*%
X172240000Y-120850000D03*
D14*
X172240000Y-118310000D03*
%TD*%
%TO.C,J12*%
X161838640Y-83908900D03*
%TD*%
%TO.C,J40*%
X166027100Y-87393780D03*
%TD*%
%TO.C,J39*%
X165925500Y-84548980D03*
%TD*%
%TO.C,J38*%
X157855920Y-79768700D03*
%TD*%
%TO.C,J37*%
X136794240Y-84696300D03*
%TD*%
%TO.C,J41*%
X133954520Y-90840560D03*
%TD*%
D10*
%TO.C,J36*%
X94200980Y-98298000D03*
%TD*%
%TO.C,J35*%
X93543120Y-69121020D03*
%TD*%
D14*
%TO.C,J34*%
X122130820Y-120886220D03*
%TD*%
%TO.C,J33*%
X168876980Y-123248420D03*
%TD*%
%TO.C,J32*%
X142288260Y-122593100D03*
%TD*%
%TO.C,J31*%
X184670700Y-108046520D03*
%TD*%
%TO.C,J30*%
X125948440Y-123789440D03*
%TD*%
%TO.C,J29*%
X185897520Y-120456960D03*
%TD*%
%TO.C,J28*%
X165232080Y-106596180D03*
%TD*%
%TO.C,J27*%
X122905520Y-135892540D03*
%TD*%
%TO.C,J26*%
X94561660Y-136512300D03*
%TD*%
%TO.C,J25*%
X146207480Y-136629140D03*
%TD*%
%TO.C,J24*%
X150670000Y-153380000D03*
%TD*%
%TO.C,J23*%
X152750000Y-104440000D03*
%TD*%
%TO.C,J22*%
X157413960Y-98668840D03*
%TD*%
%TO.C,J21*%
X143850360Y-104267000D03*
%TD*%
%TO.C,J20*%
X150677880Y-150040340D03*
%TD*%
%TO.C,J19*%
X157858460Y-95785940D03*
%TD*%
%TO.C,J18*%
X142229840Y-136718040D03*
%TD*%
%TO.C,J17*%
X144762220Y-151363680D03*
%TD*%
%TO.C,J15*%
X124655580Y-141747240D03*
%TD*%
%TO.C,J14*%
X147043140Y-104376220D03*
%TD*%
%TO.C,J13*%
X175201580Y-149458680D03*
%TD*%
%TO.C,J8*%
X151655780Y-134081520D03*
%TD*%
%TO.C,J7*%
X149877780Y-104744520D03*
%TD*%
D10*
%TO.C,J5*%
X183020000Y-151950000D03*
%TD*%
%TO.C,J4*%
X182900000Y-147490000D03*
%TD*%
%TO.C,J3*%
X182800000Y-136610000D03*
%TD*%
%TO.C,J2*%
X183180000Y-132010000D03*
%TD*%
D14*
%TO.C,J1*%
X176695100Y-140987780D03*
%TD*%
D10*
%TO.C,DS1*%
X103474000Y-65278000D03*
X103474520Y-96278700D03*
X178473100Y-96278700D03*
X178473100Y-65278000D03*
D15*
X134874000Y-65278000D03*
X137414000Y-65278000D03*
X139954000Y-65278000D03*
X142494000Y-65278000D03*
X145034000Y-65278000D03*
X147574000Y-65278000D03*
X150114000Y-65278000D03*
X152654000Y-65278000D03*
X155194000Y-65278000D03*
X157734000Y-65278000D03*
X160274000Y-65278000D03*
X162814000Y-65278000D03*
X165354000Y-65278000D03*
X167894000Y-65278000D03*
X170434000Y-65278000D03*
D16*
X172974000Y-65278000D03*
%TD*%
D13*
%TO.C,R16*%
X167939980Y-115255040D03*
D14*
X170479980Y-115255040D03*
%TD*%
D17*
%TO.C,U6*%
X170393360Y-107635040D03*
X178013360Y-100015040D03*
X170393360Y-105095040D03*
X178013360Y-102555040D03*
X170393360Y-102555040D03*
X178013360Y-105095040D03*
X170393360Y-100015040D03*
D18*
X178013360Y-107635040D03*
%TD*%
D17*
%TO.C,U5*%
X104444800Y-142534640D03*
X112064800Y-127294640D03*
X104444800Y-139994640D03*
X112064800Y-129834640D03*
X104444800Y-137454640D03*
X112064800Y-132374640D03*
X104444800Y-134914640D03*
X112064800Y-134914640D03*
X104444800Y-132374640D03*
X112064800Y-137454640D03*
X104444800Y-129834640D03*
X112064800Y-139994640D03*
X104444800Y-127294640D03*
D18*
X112064800Y-142534640D03*
%TD*%
D17*
%TO.C,U1*%
X160981160Y-133410400D03*
X168601160Y-141030400D03*
X163521160Y-133410400D03*
X166061160Y-141030400D03*
X166061160Y-133410400D03*
X163521160Y-141030400D03*
X168601160Y-133410400D03*
D18*
X160981160Y-141030400D03*
%TD*%
D13*
%TO.C,R36*%
X168148000Y-68326000D03*
D14*
X170688000Y-68326000D03*
%TD*%
D13*
%TO.C,R35*%
X129794000Y-65278000D03*
D14*
X132334000Y-65278000D03*
%TD*%
D13*
%TO.C,R32*%
X178562000Y-76962000D03*
D14*
X181102000Y-76962000D03*
%TD*%
%TO.C,R31*%
X181102000Y-84836000D03*
D13*
X178562000Y-84836000D03*
%TD*%
%TO.C,R30*%
X178562000Y-82042000D03*
D14*
X181102000Y-82042000D03*
%TD*%
D13*
%TO.C,R29*%
X113558320Y-121381520D03*
D14*
X113558320Y-118841520D03*
%TD*%
D13*
%TO.C,R26*%
X144277340Y-128440180D03*
D14*
X144277340Y-125900180D03*
%TD*%
D13*
%TO.C,R25*%
X140609580Y-128435100D03*
D14*
X140609580Y-125895100D03*
%TD*%
D13*
%TO.C,R28*%
X114477800Y-129458720D03*
D14*
X114477800Y-126918720D03*
%TD*%
D13*
%TO.C,R27*%
X119253000Y-129326640D03*
D14*
X116713000Y-129326640D03*
%TD*%
D13*
%TO.C,R23*%
X128254760Y-127259080D03*
D14*
X128254760Y-129799080D03*
%TD*%
D13*
%TO.C,R24*%
X168856920Y-128821180D03*
D14*
X168856920Y-126281180D03*
%TD*%
D13*
%TO.C,R22*%
X181797960Y-99314000D03*
D14*
X181797960Y-101854000D03*
%TD*%
D13*
%TO.C,R21*%
X181747160Y-104079040D03*
D14*
X181747160Y-106619040D03*
%TD*%
D13*
%TO.C,R18*%
X104124760Y-121828560D03*
D14*
X101584760Y-121828560D03*
%TD*%
D13*
%TO.C,R17*%
X101427280Y-124338080D03*
D14*
X103967280Y-124338080D03*
%TD*%
D13*
%TO.C,R15*%
X101630480Y-130022600D03*
D14*
X101630480Y-127482600D03*
%TD*%
D13*
%TO.C,R14*%
X101630480Y-132648960D03*
D14*
X99090480Y-132648960D03*
%TD*%
D13*
%TO.C,R20*%
X179570640Y-115224560D03*
D14*
X182110640Y-115224560D03*
%TD*%
D13*
%TO.C,R12*%
X110467140Y-146758660D03*
D14*
X107927140Y-146758660D03*
%TD*%
D13*
%TO.C,R13*%
X106710480Y-149026880D03*
D14*
X109250480Y-149026880D03*
%TD*%
D13*
%TO.C,R11*%
X155925780Y-115488720D03*
D14*
X158465780Y-115488720D03*
%TD*%
D13*
%TO.C,R10*%
X138000000Y-115460000D03*
D14*
X138000000Y-118000000D03*
%TD*%
D13*
%TO.C,R9*%
X177561240Y-143319500D03*
D14*
X175021240Y-143319500D03*
%TD*%
D13*
%TO.C,R8*%
X159385000Y-154716480D03*
D14*
X159385000Y-157256480D03*
%TD*%
D13*
%TO.C,R7*%
X169656760Y-154675840D03*
D14*
X169656760Y-157215840D03*
%TD*%
D13*
%TO.C,R6*%
X178704240Y-150977600D03*
D14*
X178704240Y-148437600D03*
%TD*%
D13*
%TO.C,R5*%
X178762000Y-135756660D03*
D14*
X178762000Y-133216660D03*
%TD*%
D13*
%TO.C,R4*%
X176093120Y-131820920D03*
D14*
X173553120Y-131820920D03*
%TD*%
D13*
%TO.C,R3*%
X140776960Y-93751400D03*
D14*
X143316960Y-93751400D03*
%TD*%
D13*
%TO.C,R2*%
X166984680Y-154675840D03*
D14*
X166984680Y-157215840D03*
%TD*%
D13*
%TO.C,R1*%
X161996120Y-154716480D03*
D14*
X161996120Y-157256480D03*
%TD*%
D19*
%TO.C,C13*%
X178191420Y-120902100D03*
X178191420Y-118402100D03*
%TD*%
%TO.C,C11*%
X166436300Y-120919880D03*
X166436300Y-118419880D03*
%TD*%
%TO.C,C9*%
X153243540Y-120841140D03*
X153243540Y-118341140D03*
%TD*%
D20*
%TO.C,Q2*%
X160642560Y-125082300D03*
D21*
X165722560Y-125082300D03*
X163182560Y-125082300D03*
%TD*%
D19*
%TO.C,C8*%
X147462500Y-120919880D03*
X147462500Y-118419880D03*
%TD*%
%TO.C,C18*%
X119496840Y-134148200D03*
X119496840Y-131648200D03*
%TD*%
%TO.C,C12*%
X186644280Y-99287960D03*
X186644280Y-101787960D03*
%TD*%
D21*
%TO.C,Y1*%
X146758000Y-89662000D03*
X151638000Y-89662000D03*
%TD*%
D17*
%TO.C,U7*%
X176276000Y-71882000D03*
X168656000Y-89662000D03*
X176276000Y-74422000D03*
X168656000Y-87122000D03*
X176276000Y-76962000D03*
X168656000Y-84582000D03*
X176276000Y-79502000D03*
X168656000Y-82042000D03*
X176276000Y-82042000D03*
X168656000Y-79502000D03*
X176276000Y-84582000D03*
X168656000Y-76962000D03*
X176276000Y-87122000D03*
X168656000Y-74422000D03*
X176276000Y-89662000D03*
D18*
X168656000Y-71882000D03*
%TD*%
D17*
%TO.C,U4*%
X172110400Y-152405080D03*
X154330400Y-144785080D03*
X169570400Y-152405080D03*
X156870400Y-144785080D03*
X167030400Y-152405080D03*
X159410400Y-144785080D03*
X164490400Y-152405080D03*
X161950400Y-144785080D03*
X161950400Y-152405080D03*
X164490400Y-144785080D03*
X159410400Y-152405080D03*
X167030400Y-144785080D03*
X156870400Y-152405080D03*
X169570400Y-144785080D03*
X154330400Y-152405080D03*
D18*
X172110400Y-144785080D03*
%TD*%
D17*
%TO.C,U3*%
X129514600Y-140238480D03*
X147294600Y-147858480D03*
X132054600Y-140238480D03*
X144754600Y-147858480D03*
X134594600Y-140238480D03*
X142214600Y-147858480D03*
X137134600Y-140238480D03*
X139674600Y-147858480D03*
X139674600Y-140238480D03*
X137134600Y-147858480D03*
X142214600Y-140238480D03*
X134594600Y-147858480D03*
X144754600Y-140238480D03*
X132054600Y-147858480D03*
X147294600Y-140238480D03*
D18*
X129514600Y-147858480D03*
%TD*%
D22*
%TO.C,SW2*%
X131150360Y-107602160D03*
X135650360Y-107602160D03*
X131150360Y-101102160D03*
X135650360Y-101102160D03*
%TD*%
%TO.C,SW1*%
X123149360Y-101074080D03*
X118649360Y-101074080D03*
X123149360Y-107574080D03*
X118649360Y-107574080D03*
%TD*%
D20*
%TO.C,Q3*%
X172567860Y-125318520D03*
D21*
X177647860Y-125318520D03*
X175107860Y-125318520D03*
%TD*%
D20*
%TO.C,Q1*%
X147896840Y-125239780D03*
D21*
X152976840Y-125239780D03*
X150436840Y-125239780D03*
%TD*%
D23*
%TO.C,L1*%
X98000000Y-86000000D03*
X98000000Y-91000000D03*
%TD*%
D24*
%TO.C,J16*%
X161544000Y-94742000D03*
X161544000Y-92202000D03*
D25*
X161544000Y-89662000D03*
%TD*%
D26*
%TO.C,D3*%
X135636000Y-68834000D03*
D27*
X125476000Y-68834000D03*
%TD*%
D26*
%TO.C,D1*%
X122682000Y-73152000D03*
D27*
X112522000Y-73152000D03*
%TD*%
D19*
%TO.C,C17*%
X119151400Y-124535560D03*
X119151400Y-127035560D03*
%TD*%
%TO.C,C25*%
X163358200Y-80665320D03*
X160858200Y-80665320D03*
%TD*%
%TO.C,C19*%
X119502560Y-116951760D03*
X117002560Y-116951760D03*
%TD*%
%TO.C,C16*%
X100279200Y-135904600D03*
X100279200Y-138404600D03*
%TD*%
%TO.C,C15*%
X115590320Y-134367900D03*
X115590320Y-136867900D03*
%TD*%
%TO.C,C14*%
X131206880Y-134086600D03*
X128706880Y-134086600D03*
%TD*%
%TO.C,C5*%
X140873480Y-96205040D03*
X143373480Y-96205040D03*
%TD*%
%TO.C,C10*%
X160365700Y-121024020D03*
X160365700Y-118524020D03*
%TD*%
D22*
%TO.C,C27*%
X110500000Y-102000000D03*
D28*
X107000000Y-102000000D03*
%TD*%
D22*
%TO.C,C26*%
X138120000Y-76962000D03*
D28*
X134620000Y-76962000D03*
%TD*%
D19*
%TO.C,C24*%
X124500000Y-96000000D03*
X122000000Y-96000000D03*
%TD*%
%TO.C,C23*%
X128230000Y-72898000D03*
X125730000Y-72898000D03*
%TD*%
D22*
%TO.C,C22*%
X98806000Y-78938000D03*
D28*
X98806000Y-75438000D03*
%TD*%
D19*
%TO.C,C21*%
X109514000Y-76200000D03*
X112014000Y-76200000D03*
%TD*%
%TO.C,C6*%
X157332680Y-101462200D03*
X157332680Y-103962200D03*
%TD*%
%TO.C,C7*%
X141500000Y-118000000D03*
X144000000Y-118000000D03*
%TD*%
%TO.C,C4*%
X173385480Y-139665080D03*
X173385480Y-137165080D03*
%TD*%
%TO.C,C3*%
X156128720Y-135706480D03*
X156128720Y-138206480D03*
%TD*%
D29*
X93726000Y-63500000D03*
D22*
X92008960Y-110093760D03*
X95290640Y-110124240D03*
X98501200Y-110144560D03*
X101848920Y-110164880D03*
X105115360Y-110220760D03*
X108518960Y-110230920D03*
X112069880Y-110261400D03*
X115402360Y-110271560D03*
X118780560Y-110352840D03*
X122326400Y-110327440D03*
X126121160Y-110383320D03*
X129809240Y-110408720D03*
X133334760Y-110423960D03*
X136966960Y-110484920D03*
X140776960Y-110510320D03*
X144505680Y-110525560D03*
X147970240Y-110556040D03*
X151739600Y-110601760D03*
X155717240Y-110617000D03*
X159659320Y-110672880D03*
X163240720Y-110688120D03*
X167370760Y-110728760D03*
X171160440Y-110754160D03*
X176509680Y-110754160D03*
X185536840Y-110876080D03*
X188396880Y-110845600D03*
D30*
X178998880Y-110810040D03*
X180334920Y-110825280D03*
X181559200Y-110845600D03*
X182839360Y-110855760D03*
X183941720Y-110865920D03*
D10*
X187269120Y-62514480D03*
X187167520Y-113893600D03*
X187462160Y-106258360D03*
X93705680Y-157281880D03*
X93705680Y-113888520D03*
X93451680Y-106197400D03*
X187172600Y-157185360D03*
D30*
X161411920Y-100965000D03*
X164305000Y-100965000D03*
D22*
X140289280Y-151714200D03*
X135300720Y-151714200D03*
M02*
