%TF.GenerationSoftware,KiCad,Pcbnew,5.1.8-5.1.8*%
%TF.CreationDate,2021-09-03T20:09:13+08:00*%
%TF.ProjectId,lcr-1,6c63722d-312e-46b6-9963-61645f706362,rev?*%
%TF.SameCoordinates,Original*%
%TF.FileFunction,Paste,Top*%
%TF.FilePolarity,Positive*%
%FSLAX46Y46*%
G04 Gerber Fmt 4.6, Leading zero omitted, Abs format (unit mm)*
G04 Created by KiCad (PCBNEW 5.1.8-5.1.8) date 2021-09-03 20:09:13*
%MOMM*%
%LPD*%
G01*
G04 APERTURE LIST*
%ADD10R,2.000000X1.500000*%
%ADD11R,2.000000X3.800000*%
%ADD12R,4.550000X5.250000*%
%ADD13R,4.600000X1.100000*%
%ADD14R,3.500000X1.800000*%
G04 APERTURE END LIST*
%TO.C,C20*%
G36*
G01*
X98460000Y-94935000D02*
X98460000Y-95885000D01*
G75*
G02*
X98210000Y-96135000I-250000J0D01*
G01*
X97535000Y-96135000D01*
G75*
G02*
X97285000Y-95885000I0J250000D01*
G01*
X97285000Y-94935000D01*
G75*
G02*
X97535000Y-94685000I250000J0D01*
G01*
X98210000Y-94685000D01*
G75*
G02*
X98460000Y-94935000I0J-250000D01*
G01*
G37*
G36*
G01*
X100535000Y-94935000D02*
X100535000Y-95885000D01*
G75*
G02*
X100285000Y-96135000I-250000J0D01*
G01*
X99610000Y-96135000D01*
G75*
G02*
X99360000Y-95885000I0J250000D01*
G01*
X99360000Y-94935000D01*
G75*
G02*
X99610000Y-94685000I250000J0D01*
G01*
X100285000Y-94685000D01*
G75*
G02*
X100535000Y-94935000I0J-250000D01*
G01*
G37*
%TD*%
D10*
%TO.C,U9*%
X144678000Y-76948000D03*
X144678000Y-81548000D03*
X144678000Y-79248000D03*
D11*
X150978000Y-79248000D03*
%TD*%
%TO.C,U2*%
G36*
G01*
X151223000Y-93441000D02*
X151223000Y-93241000D01*
G75*
G02*
X151323000Y-93141000I100000J0D01*
G01*
X152598000Y-93141000D01*
G75*
G02*
X152698000Y-93241000I0J-100000D01*
G01*
X152698000Y-93441000D01*
G75*
G02*
X152598000Y-93541000I-100000J0D01*
G01*
X151323000Y-93541000D01*
G75*
G02*
X151223000Y-93441000I0J100000D01*
G01*
G37*
G36*
G01*
X151223000Y-94091000D02*
X151223000Y-93891000D01*
G75*
G02*
X151323000Y-93791000I100000J0D01*
G01*
X152598000Y-93791000D01*
G75*
G02*
X152698000Y-93891000I0J-100000D01*
G01*
X152698000Y-94091000D01*
G75*
G02*
X152598000Y-94191000I-100000J0D01*
G01*
X151323000Y-94191000D01*
G75*
G02*
X151223000Y-94091000I0J100000D01*
G01*
G37*
G36*
G01*
X151223000Y-94741000D02*
X151223000Y-94541000D01*
G75*
G02*
X151323000Y-94441000I100000J0D01*
G01*
X152598000Y-94441000D01*
G75*
G02*
X152698000Y-94541000I0J-100000D01*
G01*
X152698000Y-94741000D01*
G75*
G02*
X152598000Y-94841000I-100000J0D01*
G01*
X151323000Y-94841000D01*
G75*
G02*
X151223000Y-94741000I0J100000D01*
G01*
G37*
G36*
G01*
X151223000Y-95391000D02*
X151223000Y-95191000D01*
G75*
G02*
X151323000Y-95091000I100000J0D01*
G01*
X152598000Y-95091000D01*
G75*
G02*
X152698000Y-95191000I0J-100000D01*
G01*
X152698000Y-95391000D01*
G75*
G02*
X152598000Y-95491000I-100000J0D01*
G01*
X151323000Y-95491000D01*
G75*
G02*
X151223000Y-95391000I0J100000D01*
G01*
G37*
G36*
G01*
X151223000Y-96041000D02*
X151223000Y-95841000D01*
G75*
G02*
X151323000Y-95741000I100000J0D01*
G01*
X152598000Y-95741000D01*
G75*
G02*
X152698000Y-95841000I0J-100000D01*
G01*
X152698000Y-96041000D01*
G75*
G02*
X152598000Y-96141000I-100000J0D01*
G01*
X151323000Y-96141000D01*
G75*
G02*
X151223000Y-96041000I0J100000D01*
G01*
G37*
G36*
G01*
X151223000Y-96691000D02*
X151223000Y-96491000D01*
G75*
G02*
X151323000Y-96391000I100000J0D01*
G01*
X152598000Y-96391000D01*
G75*
G02*
X152698000Y-96491000I0J-100000D01*
G01*
X152698000Y-96691000D01*
G75*
G02*
X152598000Y-96791000I-100000J0D01*
G01*
X151323000Y-96791000D01*
G75*
G02*
X151223000Y-96691000I0J100000D01*
G01*
G37*
G36*
G01*
X151223000Y-97341000D02*
X151223000Y-97141000D01*
G75*
G02*
X151323000Y-97041000I100000J0D01*
G01*
X152598000Y-97041000D01*
G75*
G02*
X152698000Y-97141000I0J-100000D01*
G01*
X152698000Y-97341000D01*
G75*
G02*
X152598000Y-97441000I-100000J0D01*
G01*
X151323000Y-97441000D01*
G75*
G02*
X151223000Y-97341000I0J100000D01*
G01*
G37*
G36*
G01*
X151223000Y-97991000D02*
X151223000Y-97791000D01*
G75*
G02*
X151323000Y-97691000I100000J0D01*
G01*
X152598000Y-97691000D01*
G75*
G02*
X152698000Y-97791000I0J-100000D01*
G01*
X152698000Y-97991000D01*
G75*
G02*
X152598000Y-98091000I-100000J0D01*
G01*
X151323000Y-98091000D01*
G75*
G02*
X151223000Y-97991000I0J100000D01*
G01*
G37*
G36*
G01*
X151223000Y-98641000D02*
X151223000Y-98441000D01*
G75*
G02*
X151323000Y-98341000I100000J0D01*
G01*
X152598000Y-98341000D01*
G75*
G02*
X152698000Y-98441000I0J-100000D01*
G01*
X152698000Y-98641000D01*
G75*
G02*
X152598000Y-98741000I-100000J0D01*
G01*
X151323000Y-98741000D01*
G75*
G02*
X151223000Y-98641000I0J100000D01*
G01*
G37*
G36*
G01*
X151223000Y-99291000D02*
X151223000Y-99091000D01*
G75*
G02*
X151323000Y-98991000I100000J0D01*
G01*
X152598000Y-98991000D01*
G75*
G02*
X152698000Y-99091000I0J-100000D01*
G01*
X152698000Y-99291000D01*
G75*
G02*
X152598000Y-99391000I-100000J0D01*
G01*
X151323000Y-99391000D01*
G75*
G02*
X151223000Y-99291000I0J100000D01*
G01*
G37*
G36*
G01*
X145498000Y-99291000D02*
X145498000Y-99091000D01*
G75*
G02*
X145598000Y-98991000I100000J0D01*
G01*
X146873000Y-98991000D01*
G75*
G02*
X146973000Y-99091000I0J-100000D01*
G01*
X146973000Y-99291000D01*
G75*
G02*
X146873000Y-99391000I-100000J0D01*
G01*
X145598000Y-99391000D01*
G75*
G02*
X145498000Y-99291000I0J100000D01*
G01*
G37*
G36*
G01*
X145498000Y-98641000D02*
X145498000Y-98441000D01*
G75*
G02*
X145598000Y-98341000I100000J0D01*
G01*
X146873000Y-98341000D01*
G75*
G02*
X146973000Y-98441000I0J-100000D01*
G01*
X146973000Y-98641000D01*
G75*
G02*
X146873000Y-98741000I-100000J0D01*
G01*
X145598000Y-98741000D01*
G75*
G02*
X145498000Y-98641000I0J100000D01*
G01*
G37*
G36*
G01*
X145498000Y-97991000D02*
X145498000Y-97791000D01*
G75*
G02*
X145598000Y-97691000I100000J0D01*
G01*
X146873000Y-97691000D01*
G75*
G02*
X146973000Y-97791000I0J-100000D01*
G01*
X146973000Y-97991000D01*
G75*
G02*
X146873000Y-98091000I-100000J0D01*
G01*
X145598000Y-98091000D01*
G75*
G02*
X145498000Y-97991000I0J100000D01*
G01*
G37*
G36*
G01*
X145498000Y-97341000D02*
X145498000Y-97141000D01*
G75*
G02*
X145598000Y-97041000I100000J0D01*
G01*
X146873000Y-97041000D01*
G75*
G02*
X146973000Y-97141000I0J-100000D01*
G01*
X146973000Y-97341000D01*
G75*
G02*
X146873000Y-97441000I-100000J0D01*
G01*
X145598000Y-97441000D01*
G75*
G02*
X145498000Y-97341000I0J100000D01*
G01*
G37*
G36*
G01*
X145498000Y-96691000D02*
X145498000Y-96491000D01*
G75*
G02*
X145598000Y-96391000I100000J0D01*
G01*
X146873000Y-96391000D01*
G75*
G02*
X146973000Y-96491000I0J-100000D01*
G01*
X146973000Y-96691000D01*
G75*
G02*
X146873000Y-96791000I-100000J0D01*
G01*
X145598000Y-96791000D01*
G75*
G02*
X145498000Y-96691000I0J100000D01*
G01*
G37*
G36*
G01*
X145498000Y-96041000D02*
X145498000Y-95841000D01*
G75*
G02*
X145598000Y-95741000I100000J0D01*
G01*
X146873000Y-95741000D01*
G75*
G02*
X146973000Y-95841000I0J-100000D01*
G01*
X146973000Y-96041000D01*
G75*
G02*
X146873000Y-96141000I-100000J0D01*
G01*
X145598000Y-96141000D01*
G75*
G02*
X145498000Y-96041000I0J100000D01*
G01*
G37*
G36*
G01*
X145498000Y-95391000D02*
X145498000Y-95191000D01*
G75*
G02*
X145598000Y-95091000I100000J0D01*
G01*
X146873000Y-95091000D01*
G75*
G02*
X146973000Y-95191000I0J-100000D01*
G01*
X146973000Y-95391000D01*
G75*
G02*
X146873000Y-95491000I-100000J0D01*
G01*
X145598000Y-95491000D01*
G75*
G02*
X145498000Y-95391000I0J100000D01*
G01*
G37*
G36*
G01*
X145498000Y-94741000D02*
X145498000Y-94541000D01*
G75*
G02*
X145598000Y-94441000I100000J0D01*
G01*
X146873000Y-94441000D01*
G75*
G02*
X146973000Y-94541000I0J-100000D01*
G01*
X146973000Y-94741000D01*
G75*
G02*
X146873000Y-94841000I-100000J0D01*
G01*
X145598000Y-94841000D01*
G75*
G02*
X145498000Y-94741000I0J100000D01*
G01*
G37*
G36*
G01*
X145498000Y-94091000D02*
X145498000Y-93891000D01*
G75*
G02*
X145598000Y-93791000I100000J0D01*
G01*
X146873000Y-93791000D01*
G75*
G02*
X146973000Y-93891000I0J-100000D01*
G01*
X146973000Y-94091000D01*
G75*
G02*
X146873000Y-94191000I-100000J0D01*
G01*
X145598000Y-94191000D01*
G75*
G02*
X145498000Y-94091000I0J100000D01*
G01*
G37*
G36*
G01*
X145498000Y-93441000D02*
X145498000Y-93241000D01*
G75*
G02*
X145598000Y-93141000I100000J0D01*
G01*
X146873000Y-93141000D01*
G75*
G02*
X146973000Y-93241000I0J-100000D01*
G01*
X146973000Y-93441000D01*
G75*
G02*
X146873000Y-93541000I-100000J0D01*
G01*
X145598000Y-93541000D01*
G75*
G02*
X145498000Y-93441000I0J100000D01*
G01*
G37*
%TD*%
D12*
%TO.C,U10*%
X117282000Y-90405000D03*
X122132000Y-84855000D03*
X117282000Y-84855000D03*
X122132000Y-90405000D03*
D13*
X110557000Y-91030000D03*
X110557000Y-89330000D03*
X110557000Y-87630000D03*
X110557000Y-85930000D03*
X110557000Y-84230000D03*
%TD*%
D14*
%TO.C,D2*%
X121626000Y-78994000D03*
X116626000Y-78994000D03*
%TD*%
%TO.C,C28*%
G36*
G01*
X155379400Y-84549400D02*
X156329400Y-84549400D01*
G75*
G02*
X156579400Y-84799400I0J-250000D01*
G01*
X156579400Y-85474400D01*
G75*
G02*
X156329400Y-85724400I-250000J0D01*
G01*
X155379400Y-85724400D01*
G75*
G02*
X155129400Y-85474400I0J250000D01*
G01*
X155129400Y-84799400D01*
G75*
G02*
X155379400Y-84549400I250000J0D01*
G01*
G37*
G36*
G01*
X155379400Y-82474400D02*
X156329400Y-82474400D01*
G75*
G02*
X156579400Y-82724400I0J-250000D01*
G01*
X156579400Y-83399400D01*
G75*
G02*
X156329400Y-83649400I-250000J0D01*
G01*
X155379400Y-83649400D01*
G75*
G02*
X155129400Y-83399400I0J250000D01*
G01*
X155129400Y-82724400D01*
G75*
G02*
X155379400Y-82474400I250000J0D01*
G01*
G37*
%TD*%
%TO.C,C2*%
G36*
G01*
X157284000Y-89187000D02*
X157284000Y-90137000D01*
G75*
G02*
X157034000Y-90387000I-250000J0D01*
G01*
X156359000Y-90387000D01*
G75*
G02*
X156109000Y-90137000I0J250000D01*
G01*
X156109000Y-89187000D01*
G75*
G02*
X156359000Y-88937000I250000J0D01*
G01*
X157034000Y-88937000D01*
G75*
G02*
X157284000Y-89187000I0J-250000D01*
G01*
G37*
G36*
G01*
X159359000Y-89187000D02*
X159359000Y-90137000D01*
G75*
G02*
X159109000Y-90387000I-250000J0D01*
G01*
X158434000Y-90387000D01*
G75*
G02*
X158184000Y-90137000I0J250000D01*
G01*
X158184000Y-89187000D01*
G75*
G02*
X158434000Y-88937000I250000J0D01*
G01*
X159109000Y-88937000D01*
G75*
G02*
X159359000Y-89187000I0J-250000D01*
G01*
G37*
%TD*%
%TO.C,C1*%
G36*
G01*
X140266000Y-89187000D02*
X140266000Y-90137000D01*
G75*
G02*
X140016000Y-90387000I-250000J0D01*
G01*
X139341000Y-90387000D01*
G75*
G02*
X139091000Y-90137000I0J250000D01*
G01*
X139091000Y-89187000D01*
G75*
G02*
X139341000Y-88937000I250000J0D01*
G01*
X140016000Y-88937000D01*
G75*
G02*
X140266000Y-89187000I0J-250000D01*
G01*
G37*
G36*
G01*
X142341000Y-89187000D02*
X142341000Y-90137000D01*
G75*
G02*
X142091000Y-90387000I-250000J0D01*
G01*
X141416000Y-90387000D01*
G75*
G02*
X141166000Y-90137000I0J250000D01*
G01*
X141166000Y-89187000D01*
G75*
G02*
X141416000Y-88937000I250000J0D01*
G01*
X142091000Y-88937000D01*
G75*
G02*
X142341000Y-89187000I0J-250000D01*
G01*
G37*
%TD*%
M02*
