%FSLAX45Y45*%
G04 Gerber Fmt 4.5, Leading zero omitted, Abs format (unit mm)*
G04 Created by KiCad (PCBNEW 5.1.8-5.1.8) date 2021-09-03 20:09:42*
%MOMM*%
%LPD*%
G01*
G04 APERTURE LIST*
%TA.AperFunction,Profile*%
%ADD10C,0.100000*%
%TD*%
%ADD11C,0.200000*%
%ADD12C,0.300000*%
G04 APERTURE END LIST*
D10*
X9000000Y-16000000D02*
X9000000Y-6000000D01*
X19000000Y-16000000D02*
X9000000Y-16000000D01*
X19000000Y-6000000D02*
X19000000Y-16000000D01*
X9000000Y-6000000D02*
X19000000Y-6000000D01*
D11*
D12*
X9281428Y-16470714D02*
X9281428Y-16170714D01*
X9352857Y-16170714D01*
X9395714Y-16185000D01*
X9424286Y-16213571D01*
X9438571Y-16242143D01*
X9452857Y-16299286D01*
X9452857Y-16342143D01*
X9438571Y-16399286D01*
X9424286Y-16427857D01*
X9395714Y-16456429D01*
X9352857Y-16470714D01*
X9281428Y-16470714D01*
X9581428Y-16470714D02*
X9581428Y-16270714D01*
X9581428Y-16327857D02*
X9595714Y-16299286D01*
X9610000Y-16285000D01*
X9638571Y-16270714D01*
X9667143Y-16270714D01*
X9767143Y-16470714D02*
X9767143Y-16270714D01*
X9767143Y-16170714D02*
X9752857Y-16185000D01*
X9767143Y-16199286D01*
X9781428Y-16185000D01*
X9767143Y-16170714D01*
X9767143Y-16199286D01*
X9952857Y-16470714D02*
X9924286Y-16456429D01*
X9910000Y-16427857D01*
X9910000Y-16170714D01*
X10110000Y-16470714D02*
X10081428Y-16456429D01*
X10067143Y-16427857D01*
X10067143Y-16170714D01*
X10452857Y-16470714D02*
X10452857Y-16170714D01*
X10552857Y-16385000D01*
X10652857Y-16170714D01*
X10652857Y-16470714D01*
X10924286Y-16470714D02*
X10924286Y-16313571D01*
X10910000Y-16285000D01*
X10881428Y-16270714D01*
X10824286Y-16270714D01*
X10795714Y-16285000D01*
X10924286Y-16456429D02*
X10895714Y-16470714D01*
X10824286Y-16470714D01*
X10795714Y-16456429D01*
X10781428Y-16427857D01*
X10781428Y-16399286D01*
X10795714Y-16370714D01*
X10824286Y-16356429D01*
X10895714Y-16356429D01*
X10924286Y-16342143D01*
X11067143Y-16270714D02*
X11067143Y-16570714D01*
X11067143Y-16285000D02*
X11095714Y-16270714D01*
X11152857Y-16270714D01*
X11181428Y-16285000D01*
X11195714Y-16299286D01*
X11210000Y-16327857D01*
X11210000Y-16413571D01*
X11195714Y-16442143D01*
X11181428Y-16456429D01*
X11152857Y-16470714D01*
X11095714Y-16470714D01*
X11067143Y-16456429D01*
X11338571Y-16442143D02*
X11352857Y-16456429D01*
X11338571Y-16470714D01*
X11324286Y-16456429D01*
X11338571Y-16442143D01*
X11338571Y-16470714D01*
X11338571Y-16285000D02*
X11352857Y-16299286D01*
X11338571Y-16313571D01*
X11324286Y-16299286D01*
X11338571Y-16285000D01*
X11338571Y-16313571D01*
M02*
